<?xml version="1.0" encoding="utf-8"?>
<!-- Generator: Adobe Illustrator 24.2.3, SVG Export Plug-In . SVG Version: 6.00 Build 0)  -->
<svg version="1.1" id="_x31_0" xmlns="http://www.w3.org/2000/svg" xmlns:xlink="http://www.w3.org/1999/xlink" x="0px" y="0px"
	 viewBox="0 0 90 80" style="enable-background:new 0 0 90 80;" xml:space="preserve">
<style type="text/css">
	.st0{fill:#FFFFFF;}
</style>
<rect width="90" height="80"/>
<g>
	<path class="st0" d="M40.509,51.731c-8.827,0-16.009-7.182-16.009-16.009s7.182-16.009,16.009-16.009s16.009,7.182,16.009,16.009
		S49.336,51.731,40.509,51.731z M40.509,22.776c-7.138,0-12.945,5.807-12.945,12.945c0,7.138,5.807,12.945,12.945,12.945
		c7.138,0,12.945-5.807,12.945-12.945C53.454,28.583,47.647,22.776,40.509,22.776z"/>
	<path class="st0" d="M63.968,60.288c-0.392,0-0.784-0.15-1.083-0.449L49.874,46.828c-0.599-0.599-0.599-1.568,0-2.167
		s1.568-0.599,2.167,0l13.011,13.011c0.599,0.599,0.599,1.568,0,2.167C64.752,60.139,64.36,60.288,63.968,60.288z"/>
</g>
</svg>
