<?xml version="1.0" encoding="utf-8"?>
<!-- Generator: Adobe Illustrator 25.0.1, SVG Export Plug-In . SVG Version: 6.00 Build 0)  -->
<svg version="1.1" id="レイヤー_1" xmlns="http://www.w3.org/2000/svg" xmlns:xlink="http://www.w3.org/1999/xlink" x="0px"
	 y="0px" viewBox="0 0 150 130" style="enable-background:new 0 0 150 130;" xml:space="preserve">
<style type="text/css">
	.st0{fill:#670F17;}
	.st1{fill:#FFFFFF;}
</style>
<g id="menu_x5F_menu">
</g>
<g id="menu_x5F_search">
	<rect y="0" class="st0" width="150" height="130"/>
	<g>
		<path class="st1" d="M70.5,62.6c-8.8,0-16-7.2-16-16c0-8.8,7.2-16,16-16c8.8,0,16,7.2,16,16C86.5,55.4,79.3,62.6,70.5,62.6z
			 M70.5,33.7c-7.1,0-12.9,5.8-12.9,12.9s5.8,12.9,12.9,12.9s12.9-5.8,12.9-12.9S77.6,33.7,70.5,33.7z"/>
		<path class="st1" d="M94,71.2c-0.4,0-0.8-0.2-1.1-0.4l-13-13c-0.6-0.6-0.6-1.6,0-2.2c0.6-0.6,1.6-0.6,2.2,0l13,13
			c0.6,0.6,0.6,1.6,0,2.2C94.8,71,94.4,71.2,94,71.2z"/>
	</g>
</g>
<g id="menu_x5F_shop">
</g>
<g id="menu_x5F_favo">
</g>
<g id="menu_x5F_cart">
</g>
<g>
	<path class="st1" d="M59.6,88.7c0-0.8,0-1.3-0.1-1.8h1.4c-0.1,0.5-0.1,1-0.1,1.8v1.8H61c0.6,0,0.9,0,1.2-0.1v1.2
		c-0.4-0.1-0.7-0.1-1.2-0.1h-0.3v3.4c0.6-0.3,0.9-0.4,1.7-0.8l0.1,1c-0.8,0.4-1,0.5-1.8,0.9v5.7c0,1-0.5,1.3-2.1,1.3
		c-0.2,0-0.3,0-0.7,0c-0.1-0.5-0.1-0.7-0.3-1.1c0.5,0.1,0.8,0.1,1.3,0.1c0.5,0,0.6-0.1,0.6-0.4v-5.1c-0.3,0.1-0.3,0.1-1,0.4
		c-0.6,0.2-0.8,0.3-1.1,0.5l-0.4-1.2c0.7-0.1,1.1-0.3,2.4-0.8v-3.9h-0.9c-0.5,0-0.9,0-1.3,0.1v-1.2c0.4,0.1,0.8,0.1,1.4,0.1h0.9
		V88.7z M64.1,96.4c-0.7,0-1.1,0-1.6,0.1v-1.2c0.5,0.1,0.9,0.1,1.7,0.1H67v-0.6c0-0.7,0-1.1-0.1-1.6h1.3c-0.1,0.4-0.1,0.8-0.1,1.5
		v0.7h3.7c0.7,0,1.1,0,1.6-0.1v1.2c-0.6-0.1-1-0.1-1.6-0.1h-3.3c0.8,1,1.4,1.6,2.2,2.3c1.1,0.9,2,1.4,3.2,1.9
		c-0.3,0.4-0.5,0.6-0.7,1.1c-2.4-1.3-4-2.7-5.2-4.7c0.1,0.5,0.1,0.9,0.1,1.5v2.8c0,0.8,0,1.2,0.1,1.7h-1.3c0.1-0.5,0.1-0.9,0.1-1.7
		v-2.9c0-0.5,0-0.9,0.1-1.5c-1.3,2-2.7,3.2-5,4.6c-0.3-0.5-0.4-0.6-0.8-1c2.2-1,3.9-2.4,5.1-4.3H64.1z M63.7,88.6v2h-1.1
		c0-0.4,0.1-0.7,0.1-1.1v-0.8c0-0.5,0-0.8-0.1-1.1c0.4,0,0.8,0.1,1.6,0.1h7.3c0.8,0,1.2,0,1.6-0.1c-0.1,0.3-0.1,0.6-0.1,1.1v0.6
		c0,0.5,0,0.7,0.1,1H72v-1.7h-2.5v3.2c0,0.3,0.2,0.4,1.4,0.4c1.5,0,1.6-0.1,1.6-1.5c0.4,0.2,0.6,0.3,1,0.3c-0.2,2-0.4,2.2-2.7,2.2
		c-2,0-2.4-0.2-2.4-1.1v-3.5h-1.6c-0.1,1.6-0.3,2.4-0.9,3.3c-0.6,0.9-1.4,1.5-2.6,2.1c-0.3-0.4-0.4-0.6-0.8-0.9
		c2.3-0.8,3.1-1.9,3.2-4.4H63.7z"/>
	<path class="st1" d="M86.2,88.3c0-0.5,0-0.7-0.1-1h1.4c-0.1,0.6-0.1,0.8-0.1,2.2v0.2c3.4,0,4.8-0.1,5.4-0.1v1.3
		c-0.7-0.1-1.3-0.1-3.4-0.1c-0.3,0-0.5,0-1.9,0v3.6c0.3,0.8,0.4,1.3,0.4,2.1c0,1.9-0.9,3.5-2.4,4.7c-0.7,0.5-1.5,1-2.8,1.5
		c-0.3-0.6-0.4-0.7-0.8-1.1c1.4-0.5,2.2-0.8,2.9-1.4c1.3-1,1.9-2.2,2-3.8c-0.2,0.4-0.3,0.6-0.5,0.9c-0.5,0.6-1.3,1-2.3,1
		c-1.7,0-3-1.2-3-2.8c0-1.7,1.4-3,3.2-3c0.9,0,1.6,0.3,2.1,0.8c0-0.3,0-0.3,0-1c0-0.1,0-0.3,0-0.5c0-0.3,0-0.3,0-0.9
		c-3.6,0.1-7.3,0.3-8.5,0.5l-0.1-1.3c0.3,0,0.5,0,0.7,0c0.5,0,0.5,0,3.4-0.1c1.7-0.1,3.1-0.1,4.4-0.1L86.2,88.3z M85.4,93.7
		c-0.3-0.2-0.7-0.3-1.2-0.3c-1.1,0-2,0.8-2,1.9c0,1,0.8,1.8,1.9,1.8c1.2,0,2.1-0.9,2.1-2.1C86.2,94.3,86,94,85.4,93.7z"/>
</g>
</svg>
