<?xml version="1.0" encoding="utf-8"?>
<!-- Generator: Adobe Illustrator 24.2.3, SVG Export Plug-In . SVG Version: 6.00 Build 0)  -->
<svg version="1.1" xmlns="http://www.w3.org/2000/svg" xmlns:xlink="http://www.w3.org/1999/xlink" x="0px" y="0px"
	 viewBox="0 0 150 130" style="enable-background:new 0 0 150 130;" xml:space="preserve">
<style type="text/css">
	.st0{fill:#670F17;}
	.st1{fill:#FFFFFF;}
</style>
<g id="menu_x5F_menu">
</g>
<g id="menu_x5F_search">
</g>
<g id="menu_x5F_shop">
</g>
<g id="menu_x5F_favo">
	<rect y="0" class="st0" width="150" height="130"/>
	<g>
		<g>
			<path class="st1" d="M38.109,91.016c-0.216,0.036-0.288,0.054-0.54,0.108c-1.477,0.306-2.341,0.45-3.187,0.54v3.114
				c1.566-0.468,2.664-0.647,3.871-0.647c1.277,0,2.358,0.252,3.187,0.756c1.188,0.702,1.854,1.854,1.854,3.188
				c0,2.106-1.603,3.727-3.673,3.727c-1.423,0-2.431-0.738-2.772-2.034c-0.162-0.595-0.234-1.135-0.217-2.035
				c0.559-0.144,0.738-0.216,1.188-0.468c-0.036,0.324-0.036,0.486-0.036,0.702c0,1.872,0.541,2.646,1.855,2.646
				c1.404,0,2.412-1.062,2.412-2.538c0-1.765-1.494-2.863-3.854-2.863c-1.152,0-2.305,0.216-3.816,0.702v4.501
				c0,0.973-0.433,1.44-1.314,1.44c-1.009,0-2.18-0.45-2.971-1.152c-0.559-0.485-0.828-1.044-0.828-1.692
				c0-0.792,0.449-1.566,1.422-2.395c0.666-0.559,1.404-0.99,2.539-1.477v-3.402c-0.162,0.018-0.162,0.018-0.721,0.054
				c-0.324,0.018-0.63,0.018-1.152,0.018c-0.27,0-0.756,0-0.954-0.018c-0.216,0-0.36,0-0.414,0c-0.072,0-0.181,0-0.324,0v-1.188
				c0.522,0.09,1.026,0.126,1.837,0.126c0.486,0,1.188-0.018,1.729-0.054v-1.783c0-0.72-0.019-1.17-0.09-1.71h1.332
				c-0.072,0.504-0.09,0.846-0.09,1.675v1.729c1.548-0.198,2.683-0.433,3.673-0.774L38.109,91.016z M33.23,96.327
				c-1.783,0.864-2.791,1.837-2.791,2.701c0,0.378,0.252,0.738,0.773,1.08c0.486,0.306,1.135,0.522,1.604,0.522
				c0.359,0,0.414-0.108,0.414-0.883V96.327z M43.115,92.942c-0.955-1.333-2.232-2.575-3.637-3.529l0.936-0.702
				c1.656,1.17,2.557,2.034,3.637,3.421L43.115,92.942z"/>
			<path class="st1" d="M51.787,89.287c-0.9,1.494-1.62,2.358-2.826,3.475c-0.127-0.27-0.379-0.485-0.847-0.792
				c1.549-1.296,2.61-2.719,3.438-4.556c0.199-0.432,0.289-0.702,0.343-1.062l1.278,0.288c-0.126,0.216-0.145,0.252-0.307,0.63
				c-0.162,0.324-0.233,0.486-0.504,0.973h8.859c1.044,0,1.656-0.036,2.269-0.126v1.296c-0.433-0.09-1.171-0.126-2.269-0.126H51.787
				z M58.701,102.197c-1.116-1.152-1.908-1.873-3.511-3.133c-1.692,1.566-2.971,2.412-5.636,3.673
				c-0.27-0.45-0.432-0.648-0.864-0.99c2.575-1.081,4.052-1.963,5.582-3.367c-1.081-0.792-1.782-1.242-3.439-2.215l0.774-0.72
				c1.459,0.828,2.232,1.314,3.439,2.179c1.044-1.081,1.764-2.089,2.016-2.791l1.152,0.666c-0.071,0.09-0.071,0.09-0.252,0.306
				c-0.09,0.126-0.09,0.126-0.449,0.612c-0.469,0.648-0.99,1.278-1.549,1.873c1.332,0.99,2.305,1.818,3.564,2.971L58.701,102.197z
				 M51.067,94.383c-0.792,0-1.333,0.036-1.854,0.107v-1.224c0.486,0.071,0.973,0.107,1.674,0.107h8.625
				c1.062,0,1.477-0.018,2.035-0.09c-0.055,0.54-0.072,0.954-0.072,1.53c0,2.197,0.234,4.016,0.666,5.24
				c0.252,0.72,0.702,1.422,0.9,1.422c0.252,0,0.54-1.351,0.648-3.007c0.378,0.378,0.576,0.522,0.99,0.702
				c-0.145,1.242-0.252,1.783-0.486,2.467c-0.234,0.756-0.631,1.171-1.08,1.171c-0.703,0-1.585-1.062-2.071-2.521
				c-0.45-1.351-0.647-3.043-0.685-5.905H51.067z M51.373,90.728c0.342,0.072,0.828,0.09,1.566,0.09h7.293
				c0.863,0,1.386-0.036,1.764-0.107v1.224c-0.486-0.09-0.918-0.107-1.764-0.107h-7.185c-0.738,0-1.225,0.018-1.675,0.09V90.728z"/>
			<path class="st1" d="M72.002,87.847c-0.27,0.774-0.486,1.656-0.756,2.881c-0.379,1.891-0.541,3.475-0.541,5.636
				c0,1.404,0.037,2.467,0.108,3.421c0.252-1.206,0.595-2.196,1.171-3.511l0.863,0.414c-0.81,1.782-1.458,3.943-1.458,4.951
				c0,0.054,0,0.145,0,0.271l-1.296,0.107c-0.037-0.288-0.055-0.378-0.108-0.72c-0.343-1.909-0.468-3.205-0.468-5.096
				c0-2.557,0.216-4.465,0.81-7.13c0.181-0.847,0.216-1.026,0.253-1.44L72.002,87.847z M76.594,95.085
				c-0.9,0.99-1.352,1.854-1.352,2.646c0,1.333,1.135,1.98,3.457,1.98c1.639,0,3.17-0.233,4.143-0.63l0.18,1.387
				c-0.234,0.018-0.271,0.036-0.631,0.09c-1.26,0.252-2.467,0.36-3.691,0.36c-2.052,0-3.348-0.433-4.123-1.369
				c-0.359-0.45-0.539-0.99-0.539-1.656c0-1.099,0.449-2.07,1.566-3.349L76.594,95.085z M74.307,89.755
				c0.774,0.198,1.656,0.271,3.061,0.271c1.999,0,3.619-0.162,4.826-0.486l0.09,1.278c-0.036,0-0.45,0.054-1.242,0.162
				c-1.045,0.145-2.485,0.234-3.871,0.234c-1.009,0-1.711-0.054-2.881-0.181L74.307,89.755z"/>
			<path class="st1" d="M92.648,88.927c-0.343,0-0.775,0.036-1.369,0.09v-1.296c0.36,0.072,0.721,0.09,1.369,0.09h2.376
				c0.864,0,1.314-0.036,1.675-0.107c-0.055,0.449-0.072,0.792-0.072,1.188c0,2.27,0.486,4.285,1.531,6.284
				c0.701,1.351,1.584,2.557,2.7,3.728c1.062,1.08,1.747,1.62,3.367,2.61c-0.486,0.414-0.612,0.54-1.009,1.152
				c-1.566-1.099-2.412-1.837-3.492-3.079c-1.045-1.188-1.963-2.557-2.575-3.889c-0.54-1.135-0.811-1.927-1.134-3.331
				c-0.559,2.395-1.297,4.105-2.521,5.834c-0.666,0.954-1.494,1.872-2.431,2.736c-0.666,0.612-1.134,0.99-2.269,1.765
				c-0.288-0.468-0.522-0.738-0.973-1.062c1.963-1.225,2.989-2.106,4.178-3.547c1.296-1.585,2.215-3.313,2.772-5.239
				c0.343-1.225,0.486-2.125,0.576-3.926H92.648z"/>
			<path class="st1" d="M112.881,87.234c-0.145,0.378-0.252,0.883-0.414,1.854c-0.289,1.818-0.541,3.781-0.595,4.699l0.072,0.019
				c0.036-0.145,0.036-0.145,0.126-0.522c0.216-0.99,0.576-1.872,1.098-2.683c1.009-1.549,2.197-2.322,3.602-2.322
				c1.17,0,2.179,0.558,2.881,1.602c0.756,1.117,1.08,2.449,1.08,4.376c0,3.259-1.458,5.726-4.159,7.076
				c-0.864,0.432-1.944,0.792-3.204,1.062c-0.217-0.54-0.324-0.737-0.721-1.224c1.674-0.252,2.61-0.54,3.654-1.135
				c2.107-1.206,3.098-3.097,3.098-5.978c0-2.898-1.008-4.573-2.736-4.573c-1.369,0-2.521,1.026-3.548,3.133
				c-0.63,1.314-0.972,2.701-0.972,4.015c0,0.072,0,0.162,0.018,0.433l-1.297,0.054c0-0.09,0-0.162,0-0.197l-0.018-0.324
				l-0.036-1.873c0-0.162,0-0.324,0-0.414c0-1.765,0.162-3.457,0.612-6.644c0.036-0.271,0.055-0.36,0.055-0.576L112.881,87.234z"/>
		</g>
	</g>
	<g>
		<path class="st1" d="M75.005,67.266c-0.577,0-1.139-0.241-1.54-0.661L59.813,52.371c-1.894-1.973-2.937-4.593-2.937-7.375
			c0-2.781,1.043-5.4,2.936-7.375c1.909-1.99,4.452-3.086,7.16-3.086c2.709,0,5.252,1.096,7.161,3.086l0.871,0.909l0.873-0.909
			c1.908-1.99,4.451-3.086,7.16-3.086c2.707,0,5.25,1.096,7.16,3.086c0,0,0,0,0.001,0c3.899,4.066,3.9,10.683,0.001,14.75
			L76.542,66.607C76.139,67.027,75.579,67.266,75.005,67.266z M75.63,64.527l0.002,0.003C75.632,64.529,75.631,64.528,75.63,64.527z
			 M66.972,37.535c-1.883,0-3.657,0.768-4.994,2.163c-1.355,1.413-2.102,3.294-2.102,5.298c0,2.004,0.746,3.886,2.101,5.298
			l13.028,13.582l13.029-13.582c2.801-2.921,2.801-7.675-0.001-10.596c-1.34-1.395-3.114-2.164-4.996-2.164
			c-1.884,0-3.658,0.768-4.995,2.163l-1.956,2.038c-0.282,0.295-0.674,0.461-1.082,0.461l0,0c-0.409,0-0.8-0.167-1.083-0.462
			l-1.954-2.038C70.63,38.303,68.856,37.535,66.972,37.535z"/>
	</g>
</g>
<g id="menu_x5F_cart">
</g>
</svg>
