<?xml version="1.0" encoding="utf-8"?>
<!-- Generator: Adobe Illustrator 24.2.3, SVG Export Plug-In . SVG Version: 6.00 Build 0)  -->
<svg version="1.1" xmlns="http://www.w3.org/2000/svg" xmlns:xlink="http://www.w3.org/1999/xlink" x="0px" y="0px"
	 viewBox="0 0 150 130" style="enable-background:new 0 0 150 130;" xml:space="preserve">
<style type="text/css">
	.st0{fill:#670F17;}
	.st1{fill:#FFFFFF;}
</style>
<g id="menu_x5F_menu">
	<rect class="st0" width="150" height="130"/>
	<g>
		<path class="st1" d="M90.964,52.436H59.036c-0.848,0-1.536-0.688-1.536-1.536c0-0.848,0.687-1.536,1.536-1.536h31.928
			c0.848,0,1.536,0.688,1.536,1.536C92.5,51.749,91.812,52.436,90.964,52.436z"/>
		<path class="st1" d="M90.964,66.801H59.036c-0.848,0-1.536-0.688-1.536-1.536s0.687-1.536,1.536-1.536h31.928
			c0.848,0,1.536,0.688,1.536,1.536S91.812,66.801,90.964,66.801z"/>
		<path class="st1" d="M90.964,38.072H59.036c-0.848,0-1.536-0.688-1.536-1.536c0-0.848,0.687-1.536,1.536-1.536h31.928
			c0.848,0,1.536,0.688,1.536,1.536C92.5,37.384,91.812,38.072,90.964,38.072z"/>
	</g>
	<g>
		<path class="st1" d="M50.153,88.261c-0.234,0.342-0.306,0.504-0.558,1.099c-1.17,2.755-1.729,3.853-2.647,5.258
			c1.549,1.278,2.701,2.376,4.142,3.871l-1.009,1.116c-0.954-1.225-2.106-2.377-3.925-3.907c-1.891,2.593-4.087,4.483-7.238,6.266
			c-0.324-0.54-0.468-0.702-0.937-1.08c2.881-1.404,5.186-3.35,7.167-6.014c-1.639-1.314-3.331-2.431-4.844-3.26l0.9-0.954
			c1.765,1.062,2.665,1.657,4.682,3.133c0.846-1.332,1.494-2.628,2.125-4.195c0.45-1.098,0.54-1.386,0.63-1.908L50.153,88.261z"/>
		<path class="st1" d="M57.781,98.326c0.648,0.09,1.026,0.107,2.089,0.107h10.209c1.062,0,1.44-0.018,2.089-0.107v1.512
			c-0.594-0.071-1.117-0.09-2.071-0.09H59.851c-0.954,0-1.458,0.019-2.071,0.09V98.326z M59.599,89.774
			c0.594,0.09,0.99,0.107,1.926,0.107h6.878c0.936,0,1.333-0.018,1.926-0.107v1.458c-0.54-0.054-1.026-0.071-1.908-0.071h-6.914
			c-0.882,0-1.369,0.018-1.909,0.071V89.774z"/>
		<path class="st1" d="M89.122,100.612c0.847,0,1.152-0.018,1.621-0.107v1.313c-0.432-0.071-0.9-0.09-1.638-0.09h-8.823
			c-0.774,0-1.207,0.019-1.639,0.09v-1.313c0.486,0.09,0.774,0.107,1.621,0.107h5.474c0.414-1.927,0.828-4.573,0.99-6.193H81.92
			c-1.026,0-1.116,0-1.584,0.071v-1.296c0.432,0.072,0.9,0.108,1.603,0.108h4.826c0.432,0,0.594-0.019,0.846-0.127l0.594,0.522
			c-0.144,0.307-0.162,0.36-0.288,1.261c-0.414,2.862-0.558,3.763-0.937,5.653H89.122z"/>
		<path class="st1" d="M97.147,94.023c0.522,0.09,1.008,0.108,2.233,0.108h10.461c1.333,0,1.621-0.019,2.179-0.09v1.458
			c-0.576-0.054-0.99-0.072-2.197-0.072H99.38c-1.314,0-1.693,0.019-2.233,0.072V94.023z"/>
	</g>
</g>
<g id="menu_x5F_search">
</g>
<g id="menu_x5F_shop">
</g>
<g id="menu_x5F_favo">
</g>
<g id="menu_x5F_cart">
</g>
</svg>
