<?xml version="1.0" encoding="utf-8"?>
<!-- Generator: Adobe Illustrator 24.2.3, SVG Export Plug-In . SVG Version: 6.00 Build 0)  -->
<svg version="1.1" xmlns="http://www.w3.org/2000/svg" xmlns:xlink="http://www.w3.org/1999/xlink" x="0px" y="0px"
	 viewBox="0 0 150 130" style="enable-background:new 0 0 150 130;" xml:space="preserve">
<style type="text/css">
	.st0{fill:#670F17;}
	.st1{fill:#FFFFFF;}
</style>
<g id="menu_x5F_menu">
	<rect x="-850" class="st0" width="150" height="130"/>
	<g>
		<path class="st1" d="M-759.036,52.436h-31.928c-0.848,0-1.536-0.688-1.536-1.536c0-0.848,0.688-1.536,1.536-1.536h31.928
			c0.848,0,1.536,0.688,1.536,1.536C-757.5,51.749-758.188,52.436-759.036,52.436z"/>
		<path class="st1" d="M-759.036,66.801h-31.928c-0.848,0-1.536-0.688-1.536-1.536s0.688-1.536,1.536-1.536h31.928
			c0.848,0,1.536,0.688,1.536,1.536S-758.188,66.801-759.036,66.801z"/>
		<path class="st1" d="M-759.036,38.072h-31.928c-0.848,0-1.536-0.688-1.536-1.536c0-0.848,0.688-1.536,1.536-1.536h31.928
			c0.848,0,1.536,0.688,1.536,1.536C-757.5,37.384-758.188,38.072-759.036,38.072z"/>
	</g>
	<g>
		<path class="st1" d="M-800.628,88.261c-0.234,0.342-0.306,0.504-0.558,1.099c-1.17,2.755-1.729,3.853-2.647,5.258
			c1.549,1.278,2.701,2.376,4.142,3.871l-1.009,1.116c-0.954-1.225-2.106-2.377-3.925-3.907c-1.891,2.593-4.087,4.483-7.238,6.266
			c-0.324-0.54-0.468-0.702-0.937-1.08c2.881-1.404,5.186-3.35,7.167-6.014c-1.639-1.314-3.331-2.431-4.844-3.26l0.9-0.954
			c1.765,1.062,2.665,1.657,4.682,3.133c0.846-1.332,1.494-2.628,2.125-4.195c0.45-1.098,0.54-1.386,0.63-1.908L-800.628,88.261z"/>
		<path class="st1" d="M-793,98.326c0.648,0.09,1.026,0.107,2.089,0.107h10.209c1.062,0,1.44-0.018,2.089-0.107v1.512
			c-0.594-0.071-1.117-0.09-2.071-0.09h-10.245c-0.954,0-1.458,0.019-2.071,0.09V98.326z M-791.181,89.774
			c0.594,0.09,0.99,0.107,1.926,0.107h6.878c0.936,0,1.333-0.018,1.926-0.107v1.458c-0.54-0.054-1.026-0.071-1.908-0.071h-6.914
			c-0.882,0-1.369,0.018-1.909,0.071V89.774z"/>
		<path class="st1" d="M-761.658,100.612c0.847,0,1.152-0.018,1.621-0.107v1.313c-0.432-0.071-0.9-0.09-1.638-0.09h-8.823
			c-0.774,0-1.207,0.019-1.639,0.09v-1.313c0.486,0.09,0.774,0.107,1.621,0.107h5.474c0.414-1.927,0.828-4.573,0.99-6.193h-4.808
			c-1.026,0-1.116,0-1.584,0.071v-1.296c0.432,0.072,0.9,0.108,1.603,0.108h4.826c0.432,0,0.594-0.019,0.846-0.127l0.594,0.522
			c-0.144,0.307-0.162,0.36-0.288,1.261c-0.414,2.862-0.558,3.763-0.937,5.653H-761.658z"/>
		<path class="st1" d="M-753.634,94.023c0.522,0.09,1.008,0.108,2.233,0.108h10.461c1.333,0,1.621-0.019,2.179-0.09v1.458
			c-0.576-0.054-0.99-0.072-2.197-0.072h-10.443c-1.314,0-1.693,0.019-2.233,0.072V94.023z"/>
	</g>
</g>
<g id="レイヤー_2">
	<rect x="-680" y="0" class="st0" width="150" height="130"/>
	<g>
		<g>
			<path class="st1" d="M-632.053,90.836c0.468,0.071,0.774,0.09,1.386,0.09c1.639,0,3.673-0.145,5.366-0.378
				c-0.27-0.612-0.558-1.333-0.882-2.143c-0.198-0.469-0.306-0.721-0.468-1.045l1.422-0.198c0.072,0.469,0.072,0.469,0.522,1.621
				c0.432,1.152,0.486,1.242,0.648,1.584c1.747-0.288,3.385-0.72,4.357-1.134l0.18,1.278c-0.378,0.072-0.522,0.107-1.062,0.252
				c-1.081,0.288-1.296,0.342-2.431,0.558c-0.432,0.091-0.432,0.091-0.612,0.126c0.648,1.405,1.98,3.565,3.241,5.24l-1.207,0.684
				c-0.486-0.396-0.738-0.558-1.242-0.738c-0.918-0.306-1.927-0.468-3.151-0.468c-1.512,0-2.61,0.252-3.421,0.757
				c-0.594,0.378-0.972,1.025-0.972,1.674c0,0.559,0.252,1.045,0.684,1.404c0.667,0.522,1.963,0.828,3.511,0.828
				c1.783,0,3.763-0.449,5.113-1.152l0.198,1.387c-1.8,0.666-3.511,0.973-5.293,0.973c-2.197,0-3.854-0.486-4.682-1.351
				c-0.522-0.559-0.81-1.261-0.81-1.98c0-1.188,0.774-2.323,2.035-2.935c0.954-0.469,2.035-0.667,3.493-0.667
				c1.548,0,2.971,0.252,3.727,0.648c-0.937-1.278-1.387-2.017-2.161-3.529c-0.198-0.378-0.198-0.414-0.306-0.594
				c-1.783,0.252-4.033,0.432-6.41,0.468c-0.342,0-0.432,0.019-0.702,0.055L-632.053,90.836z"/>
			<path class="st1" d="M-613.531,91.79c0.648-0.019,1.332-0.09,3.979-0.469c0.306-1.35,0.54-3.061,0.54-3.816
				c0-0.036,0-0.126,0-0.234l1.44,0.162c-0.108,0.342-0.198,0.756-0.342,1.729c-0.072,0.45-0.234,1.278-0.378,2.053
				c0.414-0.036,0.648-0.054,1.062-0.054c1.278,0,2.035,0.216,2.593,0.756c0.63,0.594,0.882,1.422,0.882,2.898
				c0,2.755-0.468,5.149-1.207,6.194c-0.432,0.612-0.918,0.846-1.765,0.846c-0.774,0-1.53-0.197-2.719-0.702
				c0.036-0.27,0.036-0.396,0.036-0.647c0-0.271,0-0.379-0.054-0.702c1.026,0.521,2.035,0.828,2.683,0.828
				c0.45,0,0.792-0.288,1.026-0.864c0.486-1.152,0.756-2.989,0.756-5.006c0-1.908-0.54-2.521-2.214-2.521
				c-0.396,0-0.63,0.018-1.296,0.09c-0.756,3.367-2.017,6.5-3.889,9.795l-1.225-0.721c1.495-1.962,3.043-5.563,3.853-8.966
				c-2.305,0.323-2.809,0.414-3.619,0.647L-613.531,91.79z M-601.702,90.134c1.783,1.908,3.007,3.997,3.763,6.373l-1.152,0.648
				c-0.594-2.286-2.052-4.861-3.673-6.464L-601.702,90.134z M-600.892,87.072c0.81,0.973,1.314,1.729,1.854,2.791l-0.9,0.54
				c-0.45-0.954-1.314-2.286-1.854-2.862L-600.892,87.072z M-598.857,86.101c0.81,0.99,1.26,1.656,1.854,2.79l-0.9,0.522
				c-0.378-0.847-1.134-2.017-1.836-2.827L-598.857,86.101z"/>
			<path class="st1" d="M-585.179,88.261c0-0.468-0.019-0.666-0.071-1.044h1.35c-0.072,0.576-0.09,0.846-0.09,2.25v0.198
				c3.402-0.018,4.789-0.054,5.384-0.126v1.278c-0.667-0.072-1.297-0.09-3.439-0.09c-0.271,0-0.468,0-1.927,0.036v3.564
				c0.307,0.757,0.433,1.333,0.433,2.125c0,1.873-0.864,3.529-2.413,4.699c-0.738,0.54-1.53,0.955-2.845,1.459
				c-0.306-0.576-0.414-0.738-0.792-1.135c1.404-0.45,2.196-0.811,2.917-1.351c1.313-0.99,1.944-2.16,2.017-3.799
				c-0.162,0.433-0.271,0.63-0.486,0.882c-0.54,0.648-1.314,0.973-2.269,0.973c-1.729,0-2.953-1.188-2.953-2.845
				c0-1.711,1.351-2.971,3.187-2.971c0.865,0,1.621,0.288,2.089,0.81c-0.018-0.252-0.018-0.323-0.018-0.99
				c0-0.071-0.019-0.252-0.019-0.468c0-0.252,0-0.252,0-0.937c-3.619,0.072-7.256,0.252-8.462,0.45l-0.054-1.314
				c0.324,0.019,0.45,0.019,0.72,0.019c0.522,0,0.522,0,3.421-0.108c1.729-0.072,3.133-0.108,4.357-0.144L-585.179,88.261z
				 M-585.953,93.681c-0.342-0.198-0.72-0.288-1.206-0.288c-1.134,0-1.999,0.81-1.999,1.891c0,1.044,0.757,1.782,1.855,1.782
				c1.242,0,2.105-0.864,2.105-2.125C-585.197,94.347-585.431,93.969-585.953,93.681z"/>
		</g>
	</g>
	<g>
		<path class="st1" d="M-609.491,62.631c-8.827,0-16.009-7.182-16.009-16.009c0-8.828,7.182-16.01,16.009-16.01
			c8.828,0,16.01,7.182,16.01,16.01C-593.481,55.449-600.663,62.631-609.491,62.631z M-609.491,33.677
			c-7.138,0-12.945,5.807-12.945,12.945s5.806,12.944,12.945,12.944s12.945-5.806,12.945-12.944S-602.353,33.677-609.491,33.677z"/>
		<path class="st1" d="M-586.032,71.189c-0.392,0-0.784-0.15-1.083-0.449l-13.011-13.011c-0.599-0.598-0.599-1.568,0-2.167
			c0.598-0.598,1.568-0.598,2.167,0l13.011,13.011c0.599,0.599,0.599,1.568,0,2.167C-585.248,71.039-585.64,71.189-586.032,71.189z"
			/>
	</g>
</g>
<g id="レイヤー_3">
	<rect x="-510" y="0" class="st0" width="150" height="130"/>
	<g>
		<path class="st1" d="M-419.036,52.436h-31.928c-0.848,0-1.536-0.688-1.536-1.536c0-0.848,0.687-1.536,1.536-1.536h31.928
			c0.848,0,1.536,0.688,1.536,1.536C-417.5,51.749-418.188,52.436-419.036,52.436z"/>
		<path class="st1" d="M-419.036,66.801h-31.928c-0.848,0-1.536-0.688-1.536-1.536s0.687-1.536,1.536-1.536h31.928
			c0.848,0,1.536,0.688,1.536,1.536S-418.188,66.801-419.036,66.801z"/>
		<path class="st1" d="M-419.036,38.072h-31.928c-0.848,0-1.536-0.688-1.536-1.536c0-0.848,0.687-1.536,1.536-1.536h31.928
			c0.848,0,1.536,0.688,1.536,1.536C-417.5,37.384-418.188,38.072-419.036,38.072z"/>
	</g>
	<g>
		<g>
			<path class="st1" d="M-471.287,92.132c1.711,0.702,3.007,1.368,4.573,2.358l-0.702,1.207c-1.314-0.954-2.953-1.854-4.592-2.467
				L-471.287,92.132z M-471.756,100.36c1.171,0,3.043-0.432,4.844-1.116c2.232-0.847,3.943-2.125,5.402-4.016
				c1.008-1.314,1.602-2.448,2.16-4.033c0.45,0.469,0.631,0.631,1.116,0.955c-1.566,3.745-3.763,6.193-6.932,7.76
				c-1.261,0.63-3.079,1.242-4.556,1.549c-0.288,0.054-0.612,0.126-0.973,0.198c-0.359,0.071-0.432,0.107-0.701,0.197
				L-471.756,100.36z M-469.883,87.829c1.765,0.72,2.936,1.313,4.465,2.269l-0.738,1.206c-1.242-0.918-3.114-1.927-4.429-2.377
				L-469.883,87.829z"/>
			<path class="st1" d="M-449.363,101.747c-0.972,0-1.115,0-1.566,0.071v-1.26c0.433,0.072,0.9,0.107,1.566,0.107h6.914v-3.385
				h-6.338c-0.953,0-1.098,0-1.548,0.072v-1.225c0.433,0.072,0.864,0.108,1.566,0.108h6.319v-3.133h-6.733
				c-0.954,0-1.116,0-1.566,0.071v-1.242c0.433,0.072,0.864,0.108,1.566,0.108h6.698c0.576,0,0.9-0.019,1.225-0.036
				c-0.019,0.468-0.019,0.756-0.019,1.387v8.139c0,0.576,0.019,0.81,0.072,1.116h-1.243v-0.9H-449.363z"/>
			<path class="st1" d="M-430.498,91.79c0.72,1.242,1.115,2.089,1.781,3.997l-1.224,0.414c-0.433-1.584-0.937-2.791-1.692-4.033
				L-430.498,91.79z M-420.344,91.682c-0.107,0.288-0.107,0.288-0.396,1.459c-0.287,1.26-0.936,2.916-1.584,4.033
				c-1.278,2.196-3.169,3.853-5.96,5.203c-0.271-0.45-0.414-0.63-0.828-1.008c2.772-1.243,4.466-2.629,5.708-4.7
				c0.684-1.134,1.206-2.484,1.53-3.871c0.126-0.594,0.198-1.008,0.198-1.224v-0.072c0-0.055,0-0.055,0-0.108L-420.344,91.682z
				 M-426.826,91.069c0.955,1.711,1.279,2.431,1.747,3.871l-1.188,0.414c-0.324-1.278-0.882-2.593-1.656-3.942L-426.826,91.069z"/>
			<path class="st1" d="M-401.462,89.089c-0.054-0.198-0.072-0.36-0.072-0.522c0-1.134,0.919-2.052,2.053-2.052
				c1.116,0,2.034,0.918,2.034,2.034c0,1.135-0.918,2.053-2.053,2.053c-0.197,0-0.377-0.018-0.63-0.09
				c-0.018,0.054-0.018,0.054-0.036,0.107c-0.882,3.205-2.034,5.456-3.673,7.166c-1.872,1.963-3.907,3.277-6.554,4.268
				c-0.252-0.558-0.45-0.811-0.883-1.242c2.413-0.666,4.97-2.251,6.59-4.087c1.477-1.675,2.521-3.781,3.151-6.41h-9.165
				c-1.044,0-1.477,0.036-2.016,0.108v-1.44c0.647,0.09,1.062,0.107,2.034,0.107h8.858H-401.462z M-400.777,88.549
				c0,0.721,0.576,1.297,1.296,1.297c0.702,0,1.278-0.576,1.278-1.297c0-0.702-0.576-1.278-1.278-1.278
				C-400.201,87.271-400.777,87.847-400.777,88.549z"/>
		</g>
	</g>
</g>
<g id="レイヤー_4">
	<rect x="-340" y="0" class="st0" width="150" height="130"/>
	<g>
		<path class="st1" d="M-249.036,52.436h-31.928c-0.848,0-1.536-0.688-1.536-1.536c0-0.848,0.687-1.536,1.536-1.536h31.928
			c0.848,0,1.536,0.688,1.536,1.536C-247.5,51.749-248.188,52.436-249.036,52.436z"/>
		<path class="st1" d="M-249.036,66.801h-31.928c-0.848,0-1.536-0.688-1.536-1.536s0.687-1.536,1.536-1.536h31.928
			c0.848,0,1.536,0.688,1.536,1.536S-248.188,66.801-249.036,66.801z"/>
		<path class="st1" d="M-249.036,38.072h-31.928c-0.848,0-1.536-0.688-1.536-1.536c0-0.848,0.687-1.536,1.536-1.536h31.928
			c0.848,0,1.536,0.688,1.536,1.536C-247.5,37.384-248.188,38.072-249.036,38.072z"/>
	</g>
	<g>
		<g>
			<path class="st1" d="M-303.877,91.016c-0.216,0.036-0.288,0.054-0.54,0.108c-1.477,0.306-2.341,0.45-3.187,0.54v3.114
				c1.566-0.468,2.664-0.647,3.871-0.647c1.277,0,2.358,0.252,3.187,0.756c1.188,0.702,1.854,1.854,1.854,3.188
				c0,2.106-1.603,3.727-3.673,3.727c-1.423,0-2.431-0.738-2.772-2.034c-0.162-0.595-0.234-1.135-0.217-2.035
				c0.559-0.144,0.738-0.216,1.188-0.468c-0.036,0.324-0.036,0.486-0.036,0.702c0,1.872,0.541,2.646,1.855,2.646
				c1.404,0,2.412-1.062,2.412-2.538c0-1.765-1.494-2.863-3.854-2.863c-1.152,0-2.305,0.216-3.816,0.702v4.501
				c0,0.973-0.433,1.44-1.314,1.44c-1.009,0-2.18-0.45-2.971-1.152c-0.559-0.485-0.828-1.044-0.828-1.692
				c0-0.792,0.449-1.566,1.422-2.395c0.666-0.559,1.404-0.99,2.539-1.477v-3.402c-0.162,0.018-0.162,0.018-0.721,0.054
				c-0.324,0.018-0.63,0.018-1.152,0.018c-0.27,0-0.756,0-0.954-0.018c-0.216,0-0.36,0-0.414,0c-0.072,0-0.181,0-0.324,0v-1.188
				c0.522,0.09,1.026,0.126,1.837,0.126c0.486,0,1.188-0.018,1.729-0.054v-1.783c0-0.72-0.019-1.17-0.09-1.71h1.332
				c-0.072,0.504-0.09,0.846-0.09,1.675v1.729c1.548-0.198,2.683-0.433,3.673-0.774L-303.877,91.016z M-308.756,96.327
				c-1.783,0.864-2.791,1.837-2.791,2.701c0,0.378,0.252,0.738,0.773,1.08c0.486,0.306,1.135,0.522,1.604,0.522
				c0.359,0,0.414-0.108,0.414-0.883V96.327z M-298.871,92.942c-0.955-1.333-2.232-2.575-3.637-3.529l0.936-0.702
				c1.656,1.17,2.557,2.034,3.637,3.421L-298.871,92.942z"/>
			<path class="st1" d="M-290.199,89.287c-0.9,1.494-1.62,2.358-2.826,3.475c-0.127-0.27-0.379-0.485-0.847-0.792
				c1.549-1.296,2.61-2.719,3.438-4.556c0.199-0.432,0.289-0.702,0.343-1.062l1.278,0.288c-0.126,0.216-0.145,0.252-0.307,0.63
				c-0.162,0.324-0.233,0.486-0.504,0.973h8.859c1.044,0,1.656-0.036,2.269-0.126v1.296c-0.433-0.09-1.171-0.126-2.269-0.126
				H-290.199z M-283.285,102.197c-1.116-1.152-1.908-1.873-3.511-3.133c-1.692,1.566-2.971,2.412-5.636,3.673
				c-0.27-0.45-0.432-0.648-0.864-0.99c2.575-1.081,4.052-1.963,5.582-3.367c-1.081-0.792-1.782-1.242-3.439-2.215l0.774-0.72
				c1.459,0.828,2.232,1.314,3.439,2.179c1.044-1.081,1.764-2.089,2.016-2.791l1.152,0.666c-0.071,0.09-0.071,0.09-0.252,0.306
				c-0.09,0.126-0.09,0.126-0.449,0.612c-0.469,0.648-0.99,1.278-1.549,1.873c1.332,0.99,2.305,1.818,3.564,2.971L-283.285,102.197z
				 M-290.919,94.383c-0.792,0-1.333,0.036-1.854,0.107v-1.224c0.486,0.071,0.973,0.107,1.674,0.107h8.625
				c1.062,0,1.477-0.018,2.035-0.09c-0.055,0.54-0.072,0.954-0.072,1.53c0,2.197,0.234,4.016,0.666,5.24
				c0.252,0.72,0.702,1.422,0.9,1.422c0.252,0,0.54-1.351,0.648-3.007c0.378,0.378,0.576,0.522,0.99,0.702
				c-0.145,1.242-0.252,1.783-0.486,2.467c-0.234,0.756-0.631,1.171-1.08,1.171c-0.703,0-1.585-1.062-2.071-2.521
				c-0.45-1.351-0.647-3.043-0.685-5.905H-290.919z M-290.613,90.728c0.342,0.072,0.828,0.09,1.566,0.09h7.293
				c0.863,0,1.386-0.036,1.764-0.107v1.224c-0.486-0.09-0.918-0.107-1.764-0.107h-7.185c-0.738,0-1.225,0.018-1.675,0.09V90.728z"/>
			<path class="st1" d="M-269.984,87.847c-0.27,0.774-0.486,1.656-0.756,2.881c-0.379,1.891-0.541,3.475-0.541,5.636
				c0,1.404,0.037,2.467,0.108,3.421c0.252-1.206,0.595-2.196,1.171-3.511l0.863,0.414c-0.81,1.782-1.458,3.943-1.458,4.951
				c0,0.054,0,0.145,0,0.271l-1.296,0.107c-0.037-0.288-0.055-0.378-0.108-0.72c-0.343-1.909-0.468-3.205-0.468-5.096
				c0-2.557,0.216-4.465,0.81-7.13c0.181-0.847,0.216-1.026,0.253-1.44L-269.984,87.847z M-265.393,95.085
				c-0.9,0.99-1.352,1.854-1.352,2.646c0,1.333,1.135,1.98,3.457,1.98c1.639,0,3.17-0.233,4.143-0.63l0.18,1.387
				c-0.234,0.018-0.271,0.036-0.631,0.09c-1.26,0.252-2.467,0.36-3.691,0.36c-2.052,0-3.348-0.433-4.123-1.369
				c-0.359-0.45-0.539-0.99-0.539-1.656c0-1.099,0.449-2.07,1.566-3.349L-265.393,95.085z M-267.68,89.755
				c0.774,0.198,1.656,0.271,3.061,0.271c1.999,0,3.619-0.162,4.826-0.486l0.09,1.278c-0.036,0-0.45,0.054-1.242,0.162
				c-1.045,0.145-2.485,0.234-3.871,0.234c-1.009,0-1.711-0.054-2.881-0.181L-267.68,89.755z"/>
			<path class="st1" d="M-249.338,88.927c-0.343,0-0.775,0.036-1.369,0.09v-1.296c0.36,0.072,0.721,0.09,1.369,0.09h2.376
				c0.864,0,1.314-0.036,1.675-0.107c-0.055,0.449-0.072,0.792-0.072,1.188c0,2.27,0.486,4.285,1.531,6.284
				c0.701,1.351,1.584,2.557,2.7,3.728c1.062,1.08,1.747,1.62,3.367,2.61c-0.486,0.414-0.612,0.54-1.009,1.152
				c-1.566-1.099-2.412-1.837-3.492-3.079c-1.045-1.188-1.963-2.557-2.575-3.889c-0.54-1.135-0.811-1.927-1.134-3.331
				c-0.559,2.395-1.297,4.105-2.521,5.834c-0.666,0.954-1.494,1.872-2.431,2.736c-0.666,0.612-1.134,0.99-2.269,1.765
				c-0.288-0.468-0.522-0.738-0.973-1.062c1.963-1.225,2.989-2.106,4.178-3.547c1.296-1.585,2.215-3.313,2.772-5.239
				c0.343-1.225,0.486-2.125,0.576-3.926H-249.338z"/>
			<path class="st1" d="M-229.105,87.234c-0.145,0.378-0.252,0.883-0.414,1.854c-0.289,1.818-0.541,3.781-0.595,4.699l0.072,0.019
				c0.036-0.145,0.036-0.145,0.126-0.522c0.216-0.99,0.576-1.872,1.098-2.683c1.009-1.549,2.197-2.322,3.602-2.322
				c1.17,0,2.179,0.558,2.881,1.602c0.756,1.117,1.08,2.449,1.08,4.376c0,3.259-1.458,5.726-4.159,7.076
				c-0.864,0.432-1.944,0.792-3.204,1.062c-0.217-0.54-0.324-0.737-0.721-1.224c1.674-0.252,2.61-0.54,3.654-1.135
				c2.107-1.206,3.098-3.097,3.098-5.978c0-2.898-1.008-4.573-2.736-4.573c-1.369,0-2.521,1.026-3.548,3.133
				c-0.63,1.314-0.972,2.701-0.972,4.015c0,0.072,0,0.162,0.018,0.433l-1.297,0.054c0-0.09,0-0.162,0-0.197l-0.018-0.324
				l-0.036-1.873c0-0.162,0-0.324,0-0.414c0-1.765,0.162-3.457,0.612-6.644c0.036-0.271,0.055-0.36,0.055-0.576L-229.105,87.234z"/>
		</g>
	</g>
</g>
<g id="レイヤー_5">
	<rect x="-170" y="0" class="st0" width="150" height="130"/>
	<g>
		<path class="st1" d="M-79.036,52.436h-31.928c-0.848,0-1.536-0.688-1.536-1.536c0-0.848,0.687-1.536,1.536-1.536h31.928
			c0.848,0,1.536,0.688,1.536,1.536C-77.5,51.749-78.188,52.436-79.036,52.436z"/>
		<path class="st1" d="M-79.036,66.801h-31.928c-0.848,0-1.536-0.688-1.536-1.536s0.687-1.536,1.536-1.536h31.928
			c0.848,0,1.536,0.688,1.536,1.536S-78.188,66.801-79.036,66.801z"/>
		<path class="st1" d="M-79.036,38.072h-31.928c-0.848,0-1.536-0.688-1.536-1.536c0-0.848,0.687-1.536,1.536-1.536h31.928
			c0.848,0,1.536,0.688,1.536,1.536C-77.5,37.384-78.188,38.072-79.036,38.072z"/>
	</g>
	<g>
		<g>
			<path class="st1" d="M-116.976,90.8c0.072-0.919,0.108-1.909,0.108-2.701c0-0.414-0.018-0.612-0.072-0.937l1.459,0.036
				c-0.072,0.414-0.072,0.414-0.145,2.323c-0.036,0.558-0.036,0.773-0.09,1.278l4.501-0.019c0.811,0,0.829-0.018,1.188-0.126
				l0.666,0.576c-0.107,0.271-0.126,0.433-0.144,1.081c-0.054,2.34-0.271,5.059-0.505,6.302c-0.449,2.467-0.99,3.114-2.61,3.114
				c-0.576,0-1.278-0.09-2.232-0.306c0-0.108,0-0.162,0-0.216c0-0.414-0.036-0.667-0.198-1.135c0.973,0.324,1.729,0.468,2.322,0.468
				c0.883,0,1.171-0.432,1.513-2.214c0.271-1.423,0.433-3.728,0.45-6.393l-5.041,0.019c-0.234,2.305-0.648,3.799-1.441,5.312
				c-1.008,1.854-2.682,3.547-4.717,4.771c-0.324-0.522-0.469-0.666-0.918-1.062c2.143-1.135,3.691-2.719,4.682-4.735
				c0.611-1.261,0.882-2.269,1.115-4.285l-3.276,0.018c-1.062,0-1.261,0-1.909,0.09l-0.018-1.368
				c0.612,0.108,1.045,0.126,1.945,0.126L-116.976,90.8z"/>
			<path class="st1" d="M-103.334,94.023c0.522,0.09,1.009,0.108,2.233,0.108h10.461c1.333,0,1.62-0.019,2.179-0.09v1.458
				c-0.576-0.054-0.99-0.072-2.197-0.072h-10.442c-1.314,0-1.692,0.019-2.233,0.072V94.023z"/>
			<path class="st1" d="M-79.77,102.234c0.071-0.486,0.107-0.919,0.107-1.891V89.161c0-0.954-0.036-1.387-0.107-1.837h1.548
				c-0.071,0.469-0.09,0.847-0.09,1.873v3.367c2.772,0.99,4.861,1.98,8.013,3.799l-0.774,1.332
				c-1.692-1.188-4.177-2.521-6.716-3.564c-0.271-0.108-0.396-0.181-0.559-0.307l-0.036,0.019c0.054,0.359,0.072,0.612,0.072,1.062
				v5.42c0,1.009,0.019,1.404,0.09,1.909H-79.77z"/>
		</g>
	</g>
</g>
<g id="レイヤー_6">
	<rect y="0" class="st0" width="150" height="130"/>
	<path class="st1" d="M96,77.901H54c-3.314,0-6-2.686-6-6v-42c0-3.314,2.686-6,6-6h42c3.314,0,6,2.686,6,6v42
		C102,75.214,99.314,77.901,96,77.901z"/>
	<g>
		<g>
			<path class="st1" d="M52.77,87.901c0.072,1.206,0.738,4.159,1.35,5.96c1.062-0.433,1.566-0.631,4.357-1.603
				c0.631-0.234,0.793-0.288,1.152-0.468l0.541,1.368c-1.261,0.27-3.836,1.098-5.42,1.746c-3.079,1.225-4.412,2.413-4.412,3.907
				c0,1.639,1.387,2.269,4.916,2.269c2.07,0,4.088-0.233,5.149-0.612l0.144,1.495c-0.342,0-0.342,0-1.332,0.107
				c-1.854,0.181-2.719,0.234-3.979,0.234c-1.783,0-3.133-0.162-3.998-0.486c-1.477-0.54-2.232-1.53-2.232-2.953
				c0-1.152,0.541-2.196,1.603-3.061c0.685-0.558,1.243-0.9,2.358-1.458c-0.504-1.477-0.846-2.737-1.314-5.042
				c-0.162-0.756-0.197-0.846-0.306-1.134L52.77,87.901z"/>
			<path class="st1" d="M71.309,88.405c-0.107,0.595-0.18,1.513-0.234,3.781c-0.072,2.161-0.125,4.609-0.125,5.42
				c0,0.216,0.018,0.684,0.035,1.08c0.072,1.08,0.307,1.675,0.847,2.161c0.504,0.449,1.313,0.702,2.251,0.702
				c2.143,0,3.799-1.081,4.824-3.134c0.415-0.846,0.631-1.548,0.883-2.826c0.486,0.414,0.756,0.594,1.297,0.882
				c-0.685,2.089-1.207,3.151-1.999,4.088c-1.278,1.494-2.971,2.232-5.077,2.232c-1.531,0-2.665-0.433-3.385-1.261
				c-0.738-0.846-0.99-1.801-0.99-3.691c0-1.206,0.018-1.656,0.162-7.328c0.018-0.54,0.018-0.864,0.018-1.17
				c0-0.378-0.018-0.576-0.072-0.954L71.309,88.405z M76.332,88.783c0.811,0.973,1.297,1.729,1.854,2.791l-0.918,0.54
				c-0.45-0.954-1.314-2.305-1.837-2.862L76.332,88.783z M78.312,87.739c0.811,0.99,1.261,1.656,1.873,2.791l-0.918,0.522
				c-0.379-0.847-1.135-1.999-1.837-2.827L78.312,87.739z"/>
			<path class="st1" d="M89.633,88.892C90.137,88.982,90.461,89,91.325,89c1.494,0,3.89-0.108,5.509-0.234
				c0.469-0.036,0.631-0.072,0.865-0.198l0.756,0.99c-0.252,0.126-0.342,0.198-0.918,0.757c-2.484,2.431-4.664,4.303-5.924,5.113
				l0.035,0.054c1.369-0.738,2.828-1.116,4.412-1.116c3.007,0,4.934,1.477,4.934,3.781c0,2.809-2.611,4.663-6.608,4.663
				c-2.538,0-3.997-0.937-3.997-2.593c0-1.206,1.116-2.106,2.611-2.106c1.206,0,2.25,0.522,2.971,1.477
				c0.378,0.504,0.576,0.937,0.828,1.729c1.891-0.522,2.881-1.62,2.881-3.151c0-1.729-1.44-2.755-3.871-2.755
				c-2.646,0-5.492,1.152-7.58,3.079l-0.811-1.152c0.648-0.378,1.297-0.846,2.521-1.836c1.927-1.531,4.771-4.033,6.014-5.258
				c0.108-0.108,0.108-0.108,0.253-0.252c0,0,0.035-0.036,0.071-0.072l0.072-0.072l-0.036-0.036c-0.055,0-0.055,0-0.162,0.019
				c-0.576,0.107-2.736,0.234-5.474,0.324c-0.396,0.018-0.576,0.036-0.972,0.09L89.633,88.892z M93.018,99.137
				c-0.9,0-1.459,0.432-1.459,1.116c0,0.468,0.234,0.811,0.721,1.099c0.469,0.252,1.242,0.414,2.017,0.414
				c0.45,0,0.666-0.019,1.314-0.126C95.215,100.001,94.314,99.137,93.018,99.137z"/>
		</g>
	</g>
	<g>
		<path class="st0" d="M86.332,63.401c-0.299,0-0.598-0.114-0.826-0.342L62.842,40.394c-0.456-0.456-0.456-1.195,0-1.651
			c0.456-0.456,1.195-0.456,1.651,0l22.665,22.665c0.456,0.456,0.456,1.195,0,1.651C86.93,63.287,86.631,63.401,86.332,63.401z"/>
		<path class="st0" d="M63.668,63.401c-0.299,0-0.598-0.114-0.826-0.342c-0.456-0.456-0.456-1.195,0-1.651l22.665-22.665
			c0.456-0.456,1.195-0.456,1.651,0c0.456,0.456,0.456,1.195,0,1.651L64.493,63.059C64.265,63.287,63.966,63.401,63.668,63.401z"/>
	</g>
</g>
</svg>
