<?xml version="1.0" encoding="utf-8"?>
<!-- Generator: Adobe Illustrator 24.2.3, SVG Export Plug-In . SVG Version: 6.00 Build 0)  -->
<svg version="1.1" xmlns="http://www.w3.org/2000/svg" xmlns:xlink="http://www.w3.org/1999/xlink" x="0px" y="0px"
	 viewBox="0 0 150 130" style="enable-background:new 0 0 150 130;" xml:space="preserve">
<style type="text/css">
	.st0{fill:#670F17;}
	.st1{fill:#FFFFFF;}
</style>
<g id="menu_x5F_menu">
</g>
<g id="menu_x5F_search">
</g>
<g id="menu_x5F_shop">
</g>
<g id="menu_x5F_favo">
</g>
<g id="menu_x5F_cart">
	<rect y="0" class="st0" width="150" height="130"/>
	<g>
		<g>
			<path class="st1" d="M54.614,90.8c0.072-0.919,0.108-1.909,0.108-2.701c0-0.414-0.018-0.612-0.072-0.937l1.459,0.036
				c-0.072,0.414-0.072,0.414-0.145,2.323c-0.036,0.558-0.036,0.773-0.09,1.278l4.501-0.019c0.811,0,0.829-0.018,1.188-0.126
				l0.666,0.576c-0.107,0.271-0.126,0.433-0.144,1.081c-0.054,2.34-0.271,5.059-0.505,6.302c-0.449,2.467-0.99,3.114-2.61,3.114
				c-0.576,0-1.278-0.09-2.232-0.306c0-0.108,0-0.162,0-0.216c0-0.414-0.036-0.667-0.198-1.135c0.973,0.324,1.729,0.468,2.322,0.468
				c0.883,0,1.171-0.432,1.513-2.214c0.271-1.423,0.433-3.728,0.45-6.393l-5.041,0.019c-0.234,2.305-0.648,3.799-1.441,5.312
				c-1.008,1.854-2.682,3.547-4.717,4.771c-0.324-0.522-0.469-0.666-0.918-1.062c2.143-1.135,3.691-2.719,4.682-4.735
				c0.611-1.261,0.882-2.269,1.115-4.285l-3.276,0.018c-1.062,0-1.261,0-1.909,0.09l-0.018-1.368
				c0.612,0.108,1.045,0.126,1.945,0.126L54.614,90.8z"/>
			<path class="st1" d="M68.256,94.023c0.522,0.09,1.009,0.108,2.233,0.108H80.95c1.333,0,1.62-0.019,2.179-0.09v1.458
				c-0.576-0.054-0.99-0.072-2.197-0.072H70.489c-1.314,0-1.692,0.019-2.233,0.072V94.023z"/>
			<path class="st1" d="M91.82,102.234c0.071-0.486,0.107-0.919,0.107-1.891V89.161c0-0.954-0.036-1.387-0.107-1.837h1.548
				c-0.071,0.469-0.09,0.847-0.09,1.873v3.367c2.772,0.99,4.861,1.98,8.013,3.799l-0.774,1.332
				c-1.692-1.188-4.177-2.521-6.716-3.564c-0.271-0.108-0.396-0.181-0.559-0.307l-0.036,0.019c0.054,0.359,0.072,0.612,0.072,1.062
				v5.42c0,1.009,0.019,1.404,0.09,1.909H91.82z"/>
		</g>
	</g>
	<g>
		<path class="st1" d="M89.391,62.696H66.447c-2.028,0-3.765-1.38-4.223-3.356l-5.941-24.834h-3.164c-0.828,0-1.5-0.671-1.5-1.5
			s0.672-1.5,1.5-1.5h4.348c0.694,0,1.298,0.476,1.459,1.151l6.219,25.996c0.144,0.619,0.678,1.044,1.303,1.044h22.944
			c0.828,0,1.5,0.672,1.5,1.5S90.219,62.696,89.391,62.696z"/>
		<path class="st1" d="M94.057,39.221c-0.285-0.359-0.718-0.568-1.176-0.568H59.25c-0.458,0-0.891,0.209-1.176,0.568
			c-0.284,0.359-0.389,0.828-0.285,1.274l3.595,15.348c0.159,0.679,0.765,1.158,1.461,1.158h26.441c0.696,0,1.302-0.479,1.461-1.158
			l3.595-15.348C94.446,40.049,94.341,39.58,94.057,39.221z M88.097,54.001H64.035l-2.893-12.348H90.99L88.097,54.001z"/>
		<path class="st1" d="M70.884,60.13c-2.803,0-5.083,2.28-5.083,5.083c0,2.803,2.28,5.083,5.083,5.083
			c2.804,0,5.084-2.28,5.084-5.083C75.968,62.411,73.688,60.13,70.884,60.13z M70.884,67.216c-1.104,0-2.003-0.898-2.003-2.003
			s0.898-2.003,2.003-2.003s2.004,0.898,2.004,2.003S71.989,67.216,70.884,67.216z"/>
		<path class="st1" d="M83.825,60.13c-2.803,0-5.083,2.28-5.083,5.083c0,2.803,2.28,5.083,5.083,5.083
			c2.804,0,5.084-2.28,5.084-5.083C88.909,62.411,86.628,60.13,83.825,60.13z M83.825,67.216c-1.104,0-2.003-0.898-2.003-2.003
			s0.898-2.003,2.003-2.003s2.004,0.898,2.004,2.003S84.929,67.216,83.825,67.216z"/>
	</g>
</g>
</svg>
