<svg id="レイヤー_1" data-name="レイヤー 1" xmlns="http://www.w3.org/2000/svg" width="250" height="100" viewBox="0 0 250 100"><title>pc_doors</title><path d="M83.985,40.87c0,1.723-.686,2.616-2.5,2.616-1.725,0-2.558-.594-2.558-2.319V38.9a5.742,5.742,0,0,0-.091-1.266c-.13-.321-.522-.321-.831-.321v-.218c.449.011.915.029,1.365.036.49-.007.976-.025,1.46-.036v.218c-.309,0-.714-.013-.827.321a5.8,5.8,0,0,0-.09,1.266v2.336c0,1.223.479,1.914,1.8,1.914A1.754,1.754,0,0,0,83.7,41.193V39.108a6.69,6.69,0,0,0-.091-1.362c-.135-.4-.529-.436-.9-.436v-.218c.37.011.739.029,1.124.036.354-.007.708-.025,1.062-.036v.218c-.3.009-.636,0-.772.344a5.219,5.219,0,0,0-.134,1.454Z"/><path d="M88.927,40.307c.96-.086,1.745-.606,1.745-1.631,0-1.322-1.106-1.569-2.2-1.569-.405.011-.822.029-1.226.036-.542-.007-1.1-.025-1.648-.036v.218c.307,0,.712-.012.812.321a6.215,6.215,0,0,1,.084,1.267V41.6a6.166,6.166,0,0,1-.084,1.263c-.1.323-.5.323-.812.323V43.4c.48-.009.957-.031,1.439-.04.465.009.916.031,1.354.04v-.219c-.3,0-.708.012-.817-.323a6.239,6.239,0,0,1-.083-1.263V40.474c.5,0,.467.058.787.413l1.592,1.956.455.557c.237-.009.478-.031.721-.04.285.009.575.031.863.04v-.219a1.257,1.257,0,0,1-.943-.563Zm-1.433-2.573c0-.106-.029-.286.1-.342a3.425,3.425,0,0,1,.627-.009,1.284,1.284,0,0,1,1.344,1.422c0,1.382-.869,1.41-2.072,1.41Z"/><path d="M93.409,41.6a6.239,6.239,0,0,1-.083,1.263c-.113.335-.511.322-.826.322v.22c.541-.009,1.089-.031,1.622-.04.429.009.843.031,1.264.04a4.059,4.059,0,0,0,1.769-.249,1.553,1.553,0,0,0,.933-1.38,1.572,1.572,0,0,0-.744-1.307,2.894,2.894,0,0,0-1.407-.391v-.021c.74-.219,1.452-.587,1.452-1.453,0-1.265-1.365-1.518-2.37-1.492-.379.011-.758.029-1.141.036-.463-.007-.912-.025-1.378-.036v.218c.315,0,.713-.012.826.321a6.289,6.289,0,0,1,.083,1.267Zm.983-1.374H94.7a3.343,3.343,0,0,1,1.5.2,1.326,1.326,0,0,1,.686,1.267c0,.9-.421,1.452-1.364,1.452-.366,0-.845.009-1-.4a3.859,3.859,0,0,1-.123-1.2Zm0-2.392c0-.076,0-.342.062-.4s.44-.047.565-.047a1.147,1.147,0,0,1,1.317,1.262,1.2,1.2,0,0,1-.489,1.125,2.072,2.072,0,0,1-1.145.2h-.31Z"/><path d="M100.266,41.1h2.367l.378.977a2.21,2.21,0,0,1,.187.74c0,.374-.466.352-.736.362V43.4c.458-.009.934-.031,1.4-.04.447.009.914.031,1.367.04v-.219a1.062,1.062,0,0,1-.834-.356,6.944,6.944,0,0,1-.5-1.043l-1.938-4.828h-.325l-1.477,3.74c-.269.607-.527,1.2-.8,1.809a.924.924,0,0,1-.918.678V43.4c.336-.009.661-.031,1-.04.361.009.7.031,1.062.04v-.219c-.291-.03-.781,0-.781-.408a5.464,5.464,0,0,1,.461-1.437Zm.123-.309,1.066-2.678,1.055,2.678Z"/><path d="M106.578,37.879a1.1,1.1,0,0,0-1.047-.569v-.218c.308.011.6.029.908.036.257-.007.511-.025.764-.036l4.052,4.892h.023V39.343a8.138,8.138,0,0,0-.087-1.464c-.121-.532-.38-.5-.86-.569v-.218c.359.011.7.029,1.058.036.338-.007.662-.025,1.02-.036v.218c-.358.037-.605.009-.731.421a9.408,9.408,0,0,0-.117,1.661v4.094h-.283c-.215-.256-.434-.522-.636-.783l-3.756-4.509h-.025v3.2a4.458,4.458,0,0,0,.143,1.38c.168.372.478.352.835.391v.219c-.36-.009-.735-.031-1.1-.04-.354.009-.71.031-1.068.04v-.219c.377-.039.732-.06.831-.463a7.756,7.756,0,0,0,.073-1.308Z"/><path d="M122.131,40.292c.956-.087,1.74-.606,1.74-1.631,0-1.322-1.1-1.569-2.2-1.569-.4.011-.818.029-1.221.036-.545-.007-1.106-.025-1.645-.036v.218c.3,0,.7-.013.809.321A6.21,6.21,0,0,1,119.7,38.9V41.58a6.151,6.151,0,0,1-.084,1.262c-.1.324-.506.324-.809.324v.219c.479-.009.958-.031,1.437-.04.46.009.905.031,1.351.04v-.219c-.307,0-.7.012-.811-.324a6.011,6.011,0,0,1-.086-1.262V40.459c.5,0,.465.059.787.413l1.593,1.956.456.557c.232-.009.479-.031.71-.04.3.009.577.031.872.04v-.219a1.272,1.272,0,0,1-.946-.563Zm-1.437-2.573c0-.107-.028-.286.1-.342a3.417,3.417,0,0,1,.627-.009,1.287,1.287,0,0,1,1.35,1.422c0,1.382-.871,1.41-2.075,1.41Z"/><path d="M126.845,38.93a5.347,5.347,0,0,0-.1-1.26c-.123-.323-.522-.323-.83-.323v-.255H130.7v1.433h-.221c-.186-1.11-.685-1.178-1.7-1.178h-.7c-.14,0-.207-.008-.239.036a1.547,1.547,0,0,0-.012.355v2.255c1.319.055,1.511-.486,1.574-1.17h.22c-.009.425-.027.863-.041,1.293.014.388.032.786.041,1.178h-.22c-.139-1-.647-1.043-1.574-1.043V41.8a1.836,1.836,0,0,0,.17.966c.26.329.845.347,1.238.338,1-.014,1.644-.142,1.771-1.273h.224l-.087,1.531h-5.225v-.217c.308,0,.707,0,.83-.323a5.361,5.361,0,0,0,.1-1.268Z"/><path d="M132.513,41.464h.226c.192.959.707,1.766,1.819,1.766a1.219,1.219,0,0,0,1.366-1.187c0-.864-.754-1.2-1.453-1.483-.88-.33-1.81-.79-1.81-1.871a1.738,1.738,0,0,1,1.9-1.715,2.5,2.5,0,0,1,1.45.487l.221-.369h.108l.049,1.642h-.217c-.226-.788-.678-1.5-1.611-1.5a1.027,1.027,0,0,0-1.119,1c0,.75.678,1.006,1.275,1.256,1,.407,2.114.9,2.114,2.148s-1.172,1.84-2.3,1.84a2.664,2.664,0,0,1-1.679-.573l-.235.4h-.111Z"/><path d="M138.857,38.93a5.141,5.141,0,0,0-.1-1.26c-.122-.323-.52-.323-.82-.323v-.255H142.7v1.433h-.213c-.179-1.11-.682-1.178-1.705-1.178h-.689c-.142,0-.212-.008-.243.036a1.644,1.644,0,0,0-.009.355v2.255c1.319.055,1.509-.486,1.572-1.17h.221c-.012.425-.025.863-.041,1.293.016.388.029.786.041,1.178h-.221c-.135-1-.654-1.043-1.572-1.043V41.8a1.817,1.817,0,0,0,.172.966c.258.329.848.347,1.234.338,1-.014,1.652-.142,1.77-1.273h.226l-.088,1.531h-5.217v-.217c.3,0,.7,0,.82-.323a5.154,5.154,0,0,0,.1-1.268Z"/><path d="M145.673,41.087h2.373l.379.977a2.214,2.214,0,0,1,.189.739c0,.375-.471.353-.743.363v.219c.468-.009.931-.031,1.4-.04.447.009.906.031,1.36.04v-.219a1.056,1.056,0,0,1-.829-.356,6.79,6.79,0,0,1-.5-1.043l-1.943-4.828h-.329l-1.465,3.74c-.269.607-.53,1.2-.8,1.809a.933.933,0,0,1-.928.678v.219c.347-.009.666-.031,1.006-.04.359.009.7.031,1.061.04v-.219c-.292-.03-.785,0-.785-.408a5.478,5.478,0,0,1,.461-1.437Zm.126-.309,1.065-2.678,1.059,2.678Z"/><path d="M154.5,40.292c.958-.087,1.744-.606,1.744-1.631,0-1.322-1.1-1.569-2.2-1.569-.406.011-.825.029-1.225.036-.543-.007-1.109-.025-1.647-.036v.218c.312,0,.712-.013.81.321a5.933,5.933,0,0,1,.088,1.266V41.58a5.877,5.877,0,0,1-.088,1.262c-.1.324-.5.324-.81.324v.219c.479-.009.957-.031,1.437-.04.462.009.917.031,1.355.04v-.219c-.311,0-.7.012-.815-.324a6.08,6.08,0,0,1-.085-1.262V40.459c.505,0,.463.059.787.413l1.595,1.956.454.557c.227-.009.478-.031.711-.04.294.009.58.031.873.04v-.219a1.269,1.269,0,0,1-.947-.563Zm-1.434-2.573c0-.107-.024-.286.1-.342a3.4,3.4,0,0,1,.625-.009,1.289,1.289,0,0,1,1.349,1.422c0,1.382-.872,1.41-2.075,1.41Z"/><path d="M163.317,37.121h.145l.081,1.871h-.226a1.987,1.987,0,0,0-2.029-1.8c-1.718,0-2.233,1.68-2.233,3.108s.554,2.964,2.257,2.964c1.341,0,1.831-.946,2.12-2.087h.172V43.26h-.12l-.23-.485a3.233,3.233,0,0,1-2.12.711A3.049,3.049,0,0,1,157.85,40.3a3.235,3.235,0,0,1,3.367-3.328,3.333,3.333,0,0,1,1.95.59Z"/><path d="M166.654,41.58a5.51,5.51,0,0,0,.094,1.262c.128.324.52.324.827.324v.219c-.456-.009-.931-.031-1.386-.04-.484.009-.977.031-1.448.04v-.219c.31,0,.7,0,.823-.324a5.29,5.29,0,0,0,.1-1.262V38.9a5.341,5.341,0,0,0-.1-1.266c-.124-.321-.513-.321-.823-.321v-.218c.455.011.916.029,1.376.036.488-.007.967-.025,1.458-.036v.218c-.307,0-.7,0-.827.321a5.562,5.562,0,0,0-.094,1.266V40h3.428V38.9a5.742,5.742,0,0,0-.091-1.266c-.13-.321-.525-.321-.83-.321v-.218c.474.011.932.029,1.407.036s.955-.025,1.432-.036v.218c-.309,0-.7,0-.823.321a5.186,5.186,0,0,0-.1,1.266V41.58a5.137,5.137,0,0,0,.1,1.262c.119.324.514.324.823.324v.219c-.469-.009-.935-.031-1.4-.04-.476.009-.964.031-1.441.04v-.219c.305,0,.7,0,.83-.324a5.687,5.687,0,0,0,.091-1.262V40.3h-3.428Z"/><path d="M99.785,52.846a7.53,7.53,0,0,0-1.049-2.08,6.728,6.728,0,0,0-1.6-1.58,4.919,4.919,0,0,0-2.013-.837c-.282-.054-.587-.1-.925-.134a12.171,12.171,0,0,0-1.238-.054c-.167,0-.353,0-.55.01s-.384.023-.574.044-.365.039-.527.051a2.074,2.074,0,0,0-.386.062c-.074.684-.116,1.624-.133,2.825s-.023,2.628-.023,4.288v2.446q0,1.089.031,1.779c0,.2.012.408.032.639s.045.447.074.666a2.877,2.877,0,0,0,.138.589,1.043,1.043,0,0,0,.217.384,1.993,1.993,0,0,0,1.06.535,6.951,6.951,0,0,0,1.207.115c.352,0,.711-.02,1.083-.052a5.476,5.476,0,0,0,1.037-.2,5.566,5.566,0,0,0,3.395-2.521,8.858,8.858,0,0,0,1.12-4.611A7.561,7.561,0,0,0,99.785,52.846Zm2.567,5.085a6.663,6.663,0,0,1-1.027,2.049A6.015,6.015,0,0,1,99.82,61.4a8.155,8.155,0,0,1-1.82.9,9.715,9.715,0,0,1-1.986.467,14.242,14.242,0,0,1-1.987.14H86.393V62.7a3.634,3.634,0,0,0,1.014-.271,1.953,1.953,0,0,0,.745-.5.709.709,0,0,0,.154-.355c.036-.165.066-.355.092-.565s.051-.432.067-.666.021-.468.021-.691c0-.2,0-.458,0-.794s.012-.7.016-1.1.01-.8.01-1.223V50.494c0-.251-.011-.483-.031-.7a3.933,3.933,0,0,0-.1-.585A.938.938,0,0,0,88.2,48.8a1.661,1.661,0,0,0-.751-.523,5.1,5.1,0,0,0-.984-.21v-.207c.588,0,1.429-.005,2.532-.016s2.435-.015,4-.015h1.335c.462,0,.925.02,1.386.061a12.676,12.676,0,0,1,1.381.21,6.887,6.887,0,0,1,1.36.44,7.959,7.959,0,0,1,1.656.961,6.4,6.4,0,0,1,1.347,1.391,6.772,6.772,0,0,1,.92,1.862,7.7,7.7,0,0,1,.346,2.414A9.228,9.228,0,0,1,102.352,57.931Z"/><path d="M116.706,52.722a8.224,8.224,0,0,0-.978-2.355,5.606,5.606,0,0,0-1.64-1.715A4.063,4.063,0,0,0,111.773,48a4.145,4.145,0,0,0-2.346.657,5.339,5.339,0,0,0-1.628,1.707,7.845,7.845,0,0,0-.94,2.372,12.105,12.105,0,0,0-.3,2.688,11.112,11.112,0,0,0,.334,2.738,7.48,7.48,0,0,0,.991,2.325,5.244,5.244,0,0,0,1.645,1.611,4.345,4.345,0,0,0,2.308.6,3.91,3.91,0,0,0,2.284-.669,5.629,5.629,0,0,0,1.616-1.723,8.274,8.274,0,0,0,.97-2.378,11.008,11.008,0,0,0,.324-2.633A10.6,10.6,0,0,0,116.706,52.722ZM119,58.361a7.776,7.776,0,0,1-1.7,2.465,7.476,7.476,0,0,1-2.507,1.61,8.455,8.455,0,0,1-6.044.011,7.536,7.536,0,0,1-2.487-1.567,7.321,7.321,0,0,1-1.681-2.424,7.668,7.668,0,0,1-.618-3.1,7.747,7.747,0,0,1,.649-3.227,7.22,7.22,0,0,1,1.744-2.421,7.636,7.636,0,0,1,2.568-1.527,9.038,9.038,0,0,1,3.1-.533,7.761,7.761,0,0,1,3.185.627,7.231,7.231,0,0,1,2.39,1.68,7.341,7.341,0,0,1,1.5,2.436,8.067,8.067,0,0,1,.521,2.882A7.563,7.563,0,0,1,119,58.361Z"/><path d="M133.6,52.722a8.2,8.2,0,0,0-.983-2.355,5.6,5.6,0,0,0-1.635-1.715A4.076,4.076,0,0,0,128.668,48a4.145,4.145,0,0,0-2.344.657,5.324,5.324,0,0,0-1.63,1.707,7.816,7.816,0,0,0-.937,2.372,11.934,11.934,0,0,0-.305,2.688,11.064,11.064,0,0,0,.334,2.738,7.626,7.626,0,0,0,.992,2.325,5.215,5.215,0,0,0,1.649,1.611,4.329,4.329,0,0,0,2.3.6,3.931,3.931,0,0,0,2.286-.669,5.623,5.623,0,0,0,1.614-1.723,8.392,8.392,0,0,0,.972-2.378,11,11,0,0,0,.32-2.633A10.6,10.6,0,0,0,133.6,52.722Zm2.294,5.639a7.8,7.8,0,0,1-1.707,2.465,7.468,7.468,0,0,1-2.5,1.61,8.463,8.463,0,0,1-6.047.011,7.539,7.539,0,0,1-2.483-1.567,7.4,7.4,0,0,1-1.684-2.424,8.278,8.278,0,0,1,.032-6.33,7.209,7.209,0,0,1,1.745-2.421,7.655,7.655,0,0,1,2.57-1.527,9.024,9.024,0,0,1,3.1-.533,7.762,7.762,0,0,1,3.186.627,7.262,7.262,0,0,1,2.39,1.68,7.371,7.371,0,0,1,1.5,2.436,8.09,8.09,0,0,1,.523,2.882A7.6,7.6,0,0,1,135.9,58.361Z"/><path d="M146.383,49.878a3.613,3.613,0,0,0-1.531-1.3,4.715,4.715,0,0,0-1.055-.334,6.387,6.387,0,0,0-1.164-.1c-.294,0-.531.008-.716.022s-.32.03-.419.042c-.013.084-.027.158-.039.219a1.605,1.605,0,0,0-.03.241c-.01.1-.014.234-.021.407s-.018.423-.031.744c-.02.489-.035,1.038-.045,1.652s-.017,1.207-.017,1.777v2.3c.576,0,1.113-.025,1.61-.072a6.5,6.5,0,0,0,1.438-.3,3.853,3.853,0,0,0,1.157-.566,3.276,3.276,0,0,0,.787-.8,3.342,3.342,0,0,0,.453-.971,4.011,4.011,0,0,0,.145-1.088A3.37,3.37,0,0,0,146.383,49.878Zm2.076,13.03c-.125-.127-.216-.221-.27-.285L148,62.406c-.067-.087-.154-.206-.259-.366s-.267-.4-.489-.723q-.4-.586-.7-1.056t-.619-.931c-.208-.3-.435-.618-.682-.931s-.539-.664-.874-1.056a8.756,8.756,0,0,0-.917-.9,2.265,2.265,0,0,0-1.042-.522,3.212,3.212,0,0,0-.613-.087c-.127,0-.29-.005-.485-.018V58.18q0,1,.032,1.694c.01.447.027.829.041,1.152a1.5,1.5,0,0,0,.23.792,1.84,1.84,0,0,0,.647.555,2.939,2.939,0,0,0,1.341.324v.211h-6.672V62.7a5.669,5.669,0,0,0,1.006-.248,1.62,1.62,0,0,0,.751-.5.957.957,0,0,0,.174-.375,4.551,4.551,0,0,0,.091-.565c.019-.207.038-.432.053-.666s.02-.468.02-.691c0-.2,0-.458.01-.794s.01-.7.012-1.1.009-.8.009-1.223V51.245c0-.249,0-.5-.011-.762s-.02-.5-.045-.731a3.634,3.634,0,0,0-.1-.627.864.864,0,0,0-.2-.407,1.564,1.564,0,0,0-.7-.451,7.564,7.564,0,0,0-.953-.2v-.207h.859c.475,0,1.01-.005,1.61-.016s1.2-.015,1.8-.015h1.465q1.4,0,2.5.085a4.939,4.939,0,0,1,1.988.562,4.052,4.052,0,0,1,1.489,1.307,3.618,3.618,0,0,1,.566,2.08,3.321,3.321,0,0,1-.283,1.391,3.683,3.683,0,0,1-.755,1.089,4.541,4.541,0,0,1-1.1.8,8.716,8.716,0,0,1-1.313.565v.062a2.749,2.749,0,0,1,.69.545,7.548,7.548,0,0,1,.646.793c.364.531.757,1.1,1.184,1.714s.806,1.157,1.137,1.633a6.384,6.384,0,0,0,1.509,1.588,4.037,4.037,0,0,0,1.712.648v.211Z"/><path d="M163.276,60.59a4.049,4.049,0,0,1-1.13,1.362,4.736,4.736,0,0,1-1.726.838,8.308,8.308,0,0,1-2.2.271,10.09,10.09,0,0,1-1.755-.126,6.933,6.933,0,0,1-1.212-.3,4.344,4.344,0,0,1-.723-.325.918.918,0,0,0-.3-.147c-.045,0-.134.083-.272.251s-.265.328-.376.479H153.4l-.064-4.164h.184a6.9,6.9,0,0,0,.484,1.1,8.83,8.83,0,0,0,.641,1.006,5.271,5.271,0,0,0,.734.826,3.508,3.508,0,0,0,.744.544,5.66,5.66,0,0,0,.942.378,3.732,3.732,0,0,0,1.133.186,3.668,3.668,0,0,0,2.515-.847,2.9,2.9,0,0,0,.964-2.293,2.624,2.624,0,0,0-.186-1.024,2.5,2.5,0,0,0-.514-.765,3.12,3.12,0,0,0-.764-.555,8.5,8.5,0,0,0-.946-.417c-.331-.127-.623-.23-.877-.315s-.483-.163-.7-.24-.442-.155-.668-.23-.51-.178-.83-.3a4.474,4.474,0,0,1-1.048-.574,4.275,4.275,0,0,1-.877-.859,4.2,4.2,0,0,1-.607-1.089,3.492,3.492,0,0,1-.234-1.265,4.314,4.314,0,0,1,.413-1.945,3.973,3.973,0,0,1,1.115-1.361,4.629,4.629,0,0,1,1.606-.808,6.881,6.881,0,0,1,1.911-.263,7.034,7.034,0,0,1,1.61.16,6.2,6.2,0,0,1,1.1.345,3.643,3.643,0,0,1,.65.345,1.137,1.137,0,0,0,.24.156c.039,0,.129-.081.26-.25s.257-.336.366-.5h.231v3.873H162.7a8.545,8.545,0,0,0-.647-1.371,6.387,6.387,0,0,0-.922-1.216,4.41,4.41,0,0,0-1.192-.864,3.226,3.226,0,0,0-1.483-.339,3.952,3.952,0,0,0-1.225.187,2.842,2.842,0,0,0-1,.569,2.56,2.56,0,0,0-.67.929,3.146,3.146,0,0,0-.242,1.267,2.418,2.418,0,0,0,.667,1.781,4.783,4.783,0,0,0,1.734,1.066c.281.112.538.21.781.293s.487.163.724.241.478.157.717.241.5.176.766.27a4.881,4.881,0,0,1,2.2,1.519,4.263,4.263,0,0,1,.375,4.279Z"/></svg>