<svg id="レイヤー_1" data-name="レイヤー 1" xmlns="http://www.w3.org/2000/svg" width="250" height="100" viewBox="0 0 250 100"><title>pc_ekal</title><path d="M92.4,53.544H85.265V50.19h6.4a.148.148,0,0,0,.148-.148V47.5a.147.147,0,0,0-.148-.147h-6.4V44.456h6.983a.149.149,0,0,0,.148-.148V41.555a.148.148,0,0,0-.148-.148h-10.1a.148.148,0,0,0-.147.148V56.442a.15.15,0,0,0,.147.151H92.4a.15.15,0,0,0,.148-.151v-2.75a.148.148,0,0,0-.148-.148"/><path d="M114.361,47.451l5.2-5.8a.149.149,0,0,0-.11-.248h-3.707a.143.143,0,0,0-.113.051l-5.017,5.867v-5.77a.148.148,0,0,0-.148-.148H107.5a.148.148,0,0,0-.148.148V56.442a.15.15,0,0,0,.148.151h2.969a.15.15,0,0,0,.148-.151V51.7L112.147,50l3.963,6.522a.155.155,0,0,0,.128.073h3.725a.151.151,0,0,0,.13-.078.144.144,0,0,0-.005-.15Z"/><path d="M141.123,41.507a.149.149,0,0,0-.14-.1h-3.045a.145.145,0,0,0-.14.1L132.69,56.4a.15.15,0,0,0,.02.134.152.152,0,0,0,.12.063h2.989a.149.149,0,0,0,.14-.105l1.028-3.211h4.832l.99,3.211a.149.149,0,0,0,.141.105h3.091a.15.15,0,0,0,.119-.238Zm-.171,9.034h-3.1l1.572-4.887Z"/><path d="M169.852,53.544h-6.435V41.555a.147.147,0,0,0-.147-.148H160.3a.149.149,0,0,0-.15.148V56.442a.151.151,0,0,0,.15.151h9.551a.15.15,0,0,0,.148-.151v-2.75a.148.148,0,0,0-.148-.148"/></svg>