<svg xmlns="http://www.w3.org/2000/svg" viewBox="0 0 112.79 24.78"><defs><style>.cls-1{fill:#fff;}</style></defs><title>footer_app</title><g id="レイヤー_2" data-name="レイヤー 2"><g id="bold_ol"><path class="cls-1" d="M0,.24H1.73v5a2.81,2.81,0,0,0,.2,1.22,1.33,1.33,0,0,0,1.35.69,1.31,1.31,0,0,0,1.34-.69,2.81,2.81,0,0,0,.2-1.22v-5H6.55v5a4.23,4.23,0,0,1-.4,2A3,3,0,0,1,3.28,8.62,3,3,0,0,1,.4,7.29a4.23,4.23,0,0,1-.4-2Z"/><path class="cls-1" d="M13.87.45a2.07,2.07,0,0,1,.77.57,2.68,2.68,0,0,1,.41.69,2.28,2.28,0,0,1,.15.86,2.54,2.54,0,0,1-.29,1.14,1.7,1.7,0,0,1-1,.8,1.54,1.54,0,0,1,.8.64A2.81,2.81,0,0,1,15,6.43V7a4.09,4.09,0,0,0,0,.76.67.67,0,0,0,.31.46v.21H13.45c0-.18-.09-.33-.11-.44a3.26,3.26,0,0,1-.07-.7V6.51a1.62,1.62,0,0,0-.27-1,1.42,1.42,0,0,0-1-.26H10.35V8.41H8.68V.24h3.91A3.5,3.5,0,0,1,13.87.45ZM10.35,1.66V3.85h1.83A1.91,1.91,0,0,0,13,3.72a.91.91,0,0,0,.49-.92,1,1,0,0,0-.47-1,1.77,1.77,0,0,0-.79-.14Z"/><path class="cls-1" d="M23.6,1.11A2.08,2.08,0,0,1,24,2.36a1.85,1.85,0,0,1-.38,1.2A2,2,0,0,1,23,4a1.87,1.87,0,0,1,.94.72,2.19,2.19,0,0,1,.32,1.2,2.32,2.32,0,0,1-.37,1.3,2.12,2.12,0,0,1-.58.65,2.28,2.28,0,0,1-.92.41,5.91,5.91,0,0,1-1.15.11H17.54V.24h3.95A2.47,2.47,0,0,1,23.6,1.11Zm-4.43.55v1.8h2a1.7,1.7,0,0,0,.87-.2.79.79,0,0,0,.33-.72.75.75,0,0,0-.44-.76,3.21,3.21,0,0,0-1-.12Zm0,3.15V7h2A1.86,1.86,0,0,0,22,6.84a1,1,0,0,0,.53-1A.87.87,0,0,0,22,5a1.93,1.93,0,0,0-.81-.14Z"/><path class="cls-1" d="M28.26.24h1.93l2.89,8.17H31.23l-.54-1.68h-3l-.55,1.68H25.35Zm-.11,5.08h2.09l-1-3.21Z"/><path class="cls-1" d="M34.55.24h1.78l3.24,5.69V.24h1.59V8.41h-1.7l-3.32-5.8v5.8H34.55Z"/><path class="cls-1" d="M52.28.45A2,2,0,0,1,53,1a2.42,2.42,0,0,1,.41.69,2.1,2.1,0,0,1,.16.86,2.43,2.43,0,0,1-.3,1.14,1.67,1.67,0,0,1-1,.8,1.47,1.47,0,0,1,.8.64,2.67,2.67,0,0,1,.24,1.28V7a4.37,4.37,0,0,0,0,.76.68.68,0,0,0,.32.46v.21H51.86A3.09,3.09,0,0,1,51.75,8a4.06,4.06,0,0,1-.08-.7V6.51a1.62,1.62,0,0,0-.27-1,1.37,1.37,0,0,0-1-.26H48.75V8.41H47.09V.24H51A3.52,3.52,0,0,1,52.28.45ZM48.75,1.66V3.85h1.84a1.91,1.91,0,0,0,.82-.13.92.92,0,0,0,.48-.92,1,1,0,0,0-.46-1,1.8,1.8,0,0,0-.79-.14Z"/><path class="cls-1" d="M62,1.68H57.64V3.42h4V4.84h-4v2.1h4.51V8.41H56V.24h6Z"/><path class="cls-1" d="M65.28,5.89a1.64,1.64,0,0,0,.31.83A1.8,1.8,0,0,0,67,7.23a3,3,0,0,0,1-.14.94.94,0,0,0,.73-.94.72.72,0,0,0-.35-.63,4,4,0,0,0-1.14-.38l-.88-.2a5.55,5.55,0,0,1-1.79-.62,2,2,0,0,1-.83-1.77A2.33,2.33,0,0,1,64.59.73,3.41,3.41,0,0,1,67,0a3.67,3.67,0,0,1,2.23.68,2.43,2.43,0,0,1,1,2H68.52a1.18,1.18,0,0,0-.66-1,2.34,2.34,0,0,0-1-.2,2,2,0,0,0-1.07.26.86.86,0,0,0-.41.75.7.7,0,0,0,.4.65,4.71,4.71,0,0,0,1.08.34l1.44.34a3.66,3.66,0,0,1,1.41.59A2,2,0,0,1,70.42,6a2.36,2.36,0,0,1-.87,1.86,3.65,3.65,0,0,1-2.44.74,4,4,0,0,1-2.53-.73,2.4,2.4,0,0,1-.93-2Z"/><path class="cls-1" d="M78.22,1.68H73.9V3.42h4V4.84h-4v2.1h4.52V8.41H72.23V.24h6Z"/><path class="cls-1" d="M82.53.24h1.93l2.89,8.17H85.5L85,6.73H82L81.4,8.41H79.62Zm-.11,5.08h2.09l-1-3.21Z"/><path class="cls-1" d="M94,.45a2,2,0,0,1,.76.57,2.42,2.42,0,0,1,.41.69,2.27,2.27,0,0,1,.16.86A2.43,2.43,0,0,1,95,3.71a1.67,1.67,0,0,1-1,.8,1.47,1.47,0,0,1,.8.64,2.67,2.67,0,0,1,.24,1.28V7a4.37,4.37,0,0,0,0,.76.68.68,0,0,0,.32.46v.21H93.54c-.06-.18-.09-.33-.12-.44a5.35,5.35,0,0,1-.07-.7V6.51a1.62,1.62,0,0,0-.27-1,1.37,1.37,0,0,0-1-.26H90.43V8.41H88.77V.24h3.9A3.52,3.52,0,0,1,94,.45ZM90.43,1.66V3.85h1.84a1.94,1.94,0,0,0,.82-.13.92.92,0,0,0,.48-.92,1,1,0,0,0-.46-1,1.8,1.8,0,0,0-.79-.14Z"/><path class="cls-1" d="M98.27,1.09a3.35,3.35,0,0,1,2.5-1,3.38,3.38,0,0,1,3,1.36A2.91,2.91,0,0,1,104.31,3h-1.7a2.38,2.38,0,0,0-.42-.89,1.68,1.68,0,0,0-1.35-.53,1.66,1.66,0,0,0-1.44.75,3.68,3.68,0,0,0-.52,2.13,3.25,3.25,0,0,0,.55,2.06,1.75,1.75,0,0,0,1.41.68,1.61,1.61,0,0,0,1.34-.59,2.49,2.49,0,0,0,.42-1h1.7a3.7,3.7,0,0,1-1.12,2.18,3.24,3.24,0,0,1-2.31.83A3.44,3.44,0,0,1,98.13,7.5a4.51,4.51,0,0,1-1-3.11A4.5,4.5,0,0,1,98.27,1.09Z"/><path class="cls-1" d="M106.23,8.41V.24h1.7V3.35h3.17V.24h1.69V8.41H111.1V4.76h-3.17V8.41Z"/><path class="cls-1" d="M37,20.65l-.06-.07-1.06.6.08.09a12.73,12.73,0,0,1,1,1.46,27.88,27.88,0,0,1-2.91.27,30.14,30.14,0,0,0,1.59-3.32c.09-.21.13-.29.18-.39l.06-.11-1.41-.37,0,.11a7.44,7.44,0,0,1-.52,1.53,23.32,23.32,0,0,1-1.29,2.6h-.46a6.11,6.11,0,0,1-.64,0h-.13l.21,1.38.11,0a5.73,5.73,0,0,1,.83-.08h.21a48,48,0,0,0,4.81-.49c.14.26.22.43.43.88l0,.1,1.15-.67,0-.09A23.66,23.66,0,0,0,37,20.65Z"/><path class="cls-1" d="M38.85,19.25a8.32,8.32,0,0,1-1-1,5.92,5.92,0,0,1-1-1.74l0-.11-1.19.51.12.24.09.17a1.12,1.12,0,0,1,0,.13l0,.08a9.71,9.71,0,0,0,.83,1.38,9.86,9.86,0,0,0,2.1,2.1l.09.07.06-.11a4.38,4.38,0,0,1,.66-1l.07-.08-.1-.07A8.28,8.28,0,0,1,38.85,19.25Z"/><path class="cls-1" d="M31.71,21.07,31.8,21a10.34,10.34,0,0,0,2.91-3.54,1.69,1.69,0,0,1,.11-.23l0-.09.07-.13.07-.1-1.34-.5,0,.12a3.37,3.37,0,0,1-.46,1.08A7,7,0,0,1,31,19.9L30.9,20l.08.08a4.13,4.13,0,0,1,.67.92Z"/><path class="cls-1" d="M45,22.71V20.88h.52a8.85,8.85,0,0,1,.89.05h.11V19.76h-.11a7.46,7.46,0,0,1-.9.05H43.31a7.69,7.69,0,0,1-.92-.05h-.11v1.18h.11a8.66,8.66,0,0,1,.9-.05h.5v2a12.28,12.28,0,0,1-1.71.19H42l.18,1.14,0,.09h.1l.32-.06c1.19-.18,2.62-.47,4.16-.84l.07,0V22.29l-.12,0C45.89,22.52,45.54,22.59,45,22.71Z"/><path class="cls-1" d="M49.46,21.87l-.13-.09,0,.16a5.09,5.09,0,0,1-.25,1.26l-.12-.11a2.61,2.61,0,0,1-.52-.86,9.7,9.7,0,0,1-.62-3.33H49a7,7,0,0,1,1,.06h.11V17.73l-.12,0a4.68,4.68,0,0,1-.85.05l.5-.28-.07-.09a8,8,0,0,0-.9-1l0,0-.91.43a3,3,0,0,1,0-.31l0-.11H46.48l0,.12a6.15,6.15,0,0,1,0,.68c0,.26,0,.28,0,.64H43.11a7.59,7.59,0,0,1-1-.05H42V19h.11a8.57,8.57,0,0,1,1-.06h3.51A15,15,0,0,0,46.83,21a6.6,6.6,0,0,0,1,2.75,1.89,1.89,0,0,0,1.27.92.89.89,0,0,0,.71-.42,4.39,4.39,0,0,0,.53-1.74V22.4l-.07,0A4.1,4.1,0,0,1,49.46,21.87Zm-1.71-5,0,0a5.9,5.9,0,0,1,.75.89h-.79v-.93Z"/><path class="cls-1" d="M60.41,16.92a2.34,2.34,0,0,1-.85.08H54.87a6.69,6.69,0,0,1-1.23-.07l-.12,0v1.36l.12,0a9.12,9.12,0,0,1,1.21-.05h4.56a3.82,3.82,0,0,1-.76,1,4,4,0,0,1-1.21.78c0-.13,0-.26,0-.39a5.58,5.58,0,0,1,0-.71l0-.11H56l0,.12a1.86,1.86,0,0,1,0,.52c0,1.68-.28,2.41-1.17,3.13a4.17,4.17,0,0,1-1.54.74l-.16.05.11.12a3.29,3.29,0,0,1,.7,1l0,.08.08,0a5.34,5.34,0,0,0,2.37-1.65,4.48,4.48,0,0,0,.88-2.61,2.77,2.77,0,0,1,.71.74l0,.07.08,0a5.76,5.76,0,0,0,1.1-.76,5.62,5.62,0,0,0,1.41-1.84l0-.1a1.74,1.74,0,0,1,.3-.51l.05-.07-.7-.79Z"/><path class="cls-1" d="M70.35,16.2a1.13,1.13,0,0,0-1.13,1.05H64.65a6.51,6.51,0,0,1-1.14-.06l-.11,0v1.41l.11,0a6,6,0,0,1,1.12-.05h4.16a6.41,6.41,0,0,1-4.6,4.64l-.16.05.12.12a3.2,3.2,0,0,1,.77,1.05l0,.08.09,0a8.14,8.14,0,0,0,5.2-6h.1a1.14,1.14,0,1,0,0-2.28Zm0,1.63a.49.49,0,1,1,0-1,.48.48,0,0,1,.49.48A.49.49,0,0,1,70.35,17.83Z"/><path class="cls-1" d="M78.37,16.72l0,.12a4,4,0,0,1,0,.84V18.8a13.54,13.54,0,0,1,0,1.5,2.42,2.42,0,0,1-1.2,2.22,4.67,4.67,0,0,1-1.9.7l-.17,0,.11.12a3.05,3.05,0,0,1,.61,1.05l0,.09.09,0a7.92,7.92,0,0,0,1.78-.7,3.58,3.58,0,0,0,1.82-2.16,10.84,10.84,0,0,0,.24-2.75V17.66a4.6,4.6,0,0,1,0-.82l0-.12Z"/><path class="cls-1" d="M74.32,20.89V21h1.46l0-.12a4.77,4.77,0,0,1,0-.77V17.62a5.14,5.14,0,0,1,0-.79l0-.12H74.32v.12a4.79,4.79,0,0,1,0,.79v2.48A6.22,6.22,0,0,1,74.32,20.89Z"/></g></g></svg>