<svg id="レイヤー_1" data-name="レイヤー 1" xmlns="http://www.w3.org/2000/svg" width="250" height="100" viewBox="0 0 250 100"><title>pc_freitag</title><polygon points="75 33.145 175 33.145 175 66.855 75 66.855 75 33.145 75 33.145"/><polygon points="86.111 53.577 90.658 53.577 90.658 51.783 96.111 51.783 96.111 49.587 90.658 49.587 90.658 48.851 96.111 48.851 96.111 46.382 86.111 46.382 86.111 53.577" fill="#fff" fill-rule="evenodd"/><path d="M102.313,48.357h1.473c.806,0,1.184.182,1.184.635,0,.534-.227.806-1.259.806h-1.4Zm-4.547,5.22h4.547V51.259h.025l2.128,2.318h5.378L106.721,50.6c1.41-.09,2.8-.675,2.8-2.106,0-1.36-1.2-2.116-3.237-2.116H97.766Z" fill="#fff" fill-rule="evenodd"/><polygon points="111.216 53.577 121.367 53.577 121.367 51.693 115.763 51.693 115.763 51.018 121.367 51.018 121.367 49.345 115.763 49.345 115.763 48.66 121.367 48.66 121.367 46.382 111.216 46.382 111.216 53.577" fill="#fff" fill-rule="evenodd"/><rect x="123.056" y="46.382" width="4.547" height="7.195" fill="#fff"/><polygon points="131.805 53.577 136.352 53.577 136.352 49.214 139.022 49.214 139.022 46.382 129.135 46.382 129.135 49.214 131.805 49.214 131.805 53.577" fill="#fff" fill-rule="evenodd"/><path d="M146.594,50.685h-1.952l.944-2.63h.038Zm-7.443,2.892h4.634l.34-.917h3.011l.289.917h4.7l-2.9-7.195h-7.2Z" fill="#fff" fill-rule="evenodd"/><path d="M163.844,49.919h-4.156V51.9h-.655c-1.146,0-1.952-.443-1.952-1.562,0-1.35,1.612-1.471,2.909-1.471a32.484,32.484,0,0,1,3.715.212V46.554a37.309,37.309,0,0,0-5.088-.383c-3.3,0-6.083.887-6.083,3.839,0,2.68,2.33,3.779,5.881,3.779a19.638,19.638,0,0,0,5.429-.635Z" fill="#fff" fill-rule="evenodd"/><path d="M168.436,47.61a1.608,1.608,0,1,1-1.608-1.635A1.6,1.6,0,0,1,168.436,47.61Z" fill="#fff"/><path d="M168.137,47.61a1.31,1.31,0,1,0-1.309,1.354A1.271,1.271,0,0,0,168.137,47.61Z" fill="#231815"/><path d="M167.2,47.761l.316.677h-.325l-.285-.628h-.334v.628h-.3V46.732h.628a.547.547,0,0,1,.606.535A.506.506,0,0,1,167.2,47.761Z" fill="#fff"/><path d="M166.9,47.534c.178,0,.294-.08.294-.267a.26.26,0,0,0-.294-.259h-.334v.526Z" fill="#231815"/></svg>