<svg id="レイヤー_1" data-name="レイヤー 1" xmlns="http://www.w3.org/2000/svg" viewBox="0 0 100 19" width="100" height="19"><defs><style>.cls-1{fill:#fff;}.cls-2{fill:#b48f58;}</style></defs><title>pcfooter-urclub</title><path class="cls-1" d="M.27,3.88c.9,0,1.22.05,2.06.05s1.16,0,2.06,0V4.3l-.73.39c-.18.12-.25.18-.26.36s0,.51,0,.8v6.69c0,2,.32,3.39,1,4.16a3.75,3.75,0,0,0,3.08,1.16,3.78,3.78,0,0,0,3.11-1.19,6.4,6.4,0,0,0,1-4V6.8c0-.34,0-.66,0-1s0-.56,0-.8a.36.36,0,0,0-.28-.33l-.78-.45V3.88c.89,0,1.18.05,1.81.05s.86,0,1.74,0l0,.38-.81.47a.36.36,0,0,0-.25.36c0,.23,0,.49,0,.78v6.35a7.71,7.71,0,0,1-1.41,5.09A5.46,5.46,0,0,1,7.08,19a5.73,5.73,0,0,1-4.35-1.48,6.51,6.51,0,0,1-1.41-4.61v-6c0-.35,0-.67,0-1s0-.55,0-.78a.42.42,0,0,0-.24-.4L.27,4.31Z"/><path class="cls-1" d="M54.86,6.8v8.53c0,.78,0,1.55,0,2.3l6.37-.08.89-1.49.39,0-.19,2.45-.06.08c-1.81,0-4.25,0-5.79,0H53.86c-.85,0-1.25,0-2.14,0v-.5l.77-.28a.34.34,0,0,0,.28-.33c0-.28,0-.59,0-.94s0-.73,0-1.15V6.84c0-.35,0-.67,0-1s0-.55,0-.78-.07-.39-.23-.44l-.78-.49V3.89c.9,0,1.21,0,2,0s1.16,0,2.06,0v.29l-.74.49c-.16.1-.22.13-.23.3s0,.68,0,1.15S54.86,6.82,54.86,6.8Z"/><path class="cls-1" d="M64.05,3.88c.91,0,1.39.05,2.23.05s1.32,0,2.22-.05l0,.46-.92.38a.33.33,0,0,0-.27.33c0,.24,0,.51,0,.8s0,.61,0,1v5.74c0,2,.32,3.39,1,4.16a4.66,4.66,0,0,0,6.19,0,6.4,6.4,0,0,0,1-4V6.8c0-.34,0-.66,0-1s0-.56,0-.8a.36.36,0,0,0-.28-.33l-.84-.35,0-.49c.89,0,1.27.05,1.91.05s1,0,1.84-.05l0,.46-.94.4a.37.37,0,0,0-.26.36c0,.23,0,.49,0,.78s0,.61,0,1v5.39c0,2.29-.46,4-1.4,5.09A5.46,5.46,0,0,1,71,19a5.75,5.75,0,0,1-4.36-1.48,6.55,6.55,0,0,1-1.4-4.61v-6c0-.35,0-.67,0-1s0-.55,0-.78A.37.37,0,0,0,65,4.74l-.92-.4Z"/><path class="cls-1" d="M80.74,3.88c.9,0,1.49.05,2.35.05l1.59-.07,1.49,0a5.89,5.89,0,0,1,3.48.86,2.84,2.84,0,0,1,1.18,2.46,3.53,3.53,0,0,1-2.78,3.51,4.28,4.28,0,0,1,2.5,1.21,3.36,3.36,0,0,1,.87,2.38,3.83,3.83,0,0,1-1.53,3.25,6.88,6.88,0,0,1-4.23,1.15l-1.16,0q-.63,0-1.41,0c-.85,0-1.2,0-2.09,0v-.41l.77-.36a.44.44,0,0,0,.25-.39c0-.28,0-.59,0-.94s0-.73,0-1.15V6.84c0-.35,0-.67,0-1s0-.55,0-.78a.38.38,0,0,0-.26-.36l-1-.39Zm3.35,6.55h1.32a3.25,3.25,0,0,0,2.33-.75,2.83,2.83,0,0,0,.79-2.17,2.62,2.62,0,0,0-.81-2.16,3.59,3.59,0,0,0-2.33-.66l-.6,0-.7.06Zm0,.84v6.37a2.55,2.55,0,0,0,.73.15l.76,0A3.73,3.73,0,0,0,88.22,17a3.3,3.3,0,0,0,.9-2.5A3,3,0,0,0,88.21,12a4.48,4.48,0,0,0-3-.79C84.86,11.24,84.47,11.25,84.09,11.27Z"/><path class="cls-1" d="M44.2,17.69a6,6,0,0,1-4.65-1.82,6.79,6.79,0,0,1-1.67-4.56,6.79,6.79,0,0,1,1.67-4.56A6,6,0,0,1,44.2,4.92a10.38,10.38,0,0,1,3.47.63l.16-.46a8.06,8.06,0,0,0-4.68-1.43,7.44,7.44,0,0,0-5.48,2.07,7.32,7.32,0,0,0-2.1,5.45c0,.09,0,.17,0,.26h0a7.32,7.32,0,0,0,2.1,5.45A7.48,7.48,0,0,0,43.15,19a8.06,8.06,0,0,0,4.68-1.42l-.12-.48A10.63,10.63,0,0,1,44.2,17.69Z"/><polyline class="cls-1" points="47.83 5.08 47.31 6.64 47.1 6.64 46.68 5.22"/><path class="cls-1" d="M30.25,18.26c-1.48,0-2.71-2.09-2.71-2.09l-3.08-5.49a4.45,4.45,0,0,0,1.79-1.21A3.65,3.65,0,0,0,27,7.05a2.93,2.93,0,0,0-1.15-2.52,5.61,5.61,0,0,0-3.43-.87h-.57l-.9,0-.9,0-.61,0c-.82,0-1.29,0-2.14,0l0,.44.87.39c.15,0,.4.17.41.34v.53c0,.27,0,.74,0,1.08v4.62h0V16.5c0,.35,0,.66,0,.94a.46.46,0,0,1-.28.43l-.75.42,0,.31c.88,0,1.23,0,2.07,0s1.12,0,1.95,0v-.28l-.67-.4c-.21-.12-.23-.3-.24-.52s0-.58,0-.91,0-.72,0-1.14V11.22a16.6,16.6,0,0,0,1.75-.12l3.31,5.77c1.33,2.14,4.51,1.78,4.51,1.78ZM20.43,4.75l.68,0c.22,0,.41,0,.6,0a3.55,3.55,0,0,1,2.39.67,2.7,2.7,0,0,1,.76,2.13,2.78,2.78,0,0,1-.8,2.21,3.72,3.72,0,0,1-2.51.71l-1.12,0Z"/><rect class="cls-2" x="94.99" y="0.85" width="3.92" height="3.92" transform="translate(26.41 69.38) rotate(-45)"/></svg>