<svg id="レイヤー_1" data-name="レイヤー 1" xmlns="http://www.w3.org/2000/svg" viewBox="0 0 94 35"><defs><style>.cls-1{fill:#fff;}</style></defs><title>pcfooter-ur</title><path class="cls-1" d="M4.11,28.49v1.24c0,.33,0,.62,0,.86v.76c0,.21,0,.4,0,.55a2.44,2.44,0,0,1-.13.8,1.77,1.77,0,0,1-.39.61,1.93,1.93,0,0,1-.65.4,2.39,2.39,0,0,1-.88.15,2.68,2.68,0,0,1-.89-.14,2.06,2.06,0,0,1-.65-.41,1.77,1.77,0,0,1-.39-.61A2.44,2.44,0,0,1,0,31.9c0-.15,0-.34,0-.55v-.76c0-.24,0-.53,0-.86S0,29,0,28.49H.61c0,.06,0,.29,0,.67v2.7A1.41,1.41,0,0,0,1,33a1.5,1.5,0,0,0,1.06.37A1.47,1.47,0,0,0,3.14,33a1.43,1.43,0,0,0,.37-1.1v-.62c0-.2,0-.4,0-.58,0-.62,0-1.13,0-1.52s0-.61,0-.65Z"/><path class="cls-1" d="M9.69,33.42l-.47.41c-.06-.06-.25-.29-.58-.68L7.09,31.31v0a1.66,1.66,0,0,0,.38-.17,2.16,2.16,0,0,0,.4-.28,1.4,1.4,0,0,0,.24-.33A1.16,1.16,0,0,0,8.22,30a.91.91,0,0,0-.16-.52.87.87,0,0,0-.41-.32,1.46,1.46,0,0,0-.46-.1l-.44,0H6.44c0,.5,0,.93,0,1.31s0,.65,0,.81c0,.36,0,.84,0,1.46s0,1,0,1.15H5.82c0-.15,0-.46,0-.91s0-1,0-1.68v-.72c0-.36,0-1,0-1.93h1a6.26,6.26,0,0,1,.63,0,2.06,2.06,0,0,1,.6.17,1.4,1.4,0,0,1,.59.48,1.37,1.37,0,0,1,.22.75,1.34,1.34,0,0,1-.33.93,3,3,0,0,1-.62.55v0c.34.42.71.85,1.12,1.29l.66.72"/><path class="cls-1" d="M13.48,32.67a.92.92,0,0,1-.33.32,1.51,1.51,0,0,1-.62.19,4.92,4.92,0,0,1-.79,0H11.3s0-.28,0-.73v-2.3c0-.43,0-.83,0-1.22h.51a2.78,2.78,0,0,1,.51,0,1.59,1.59,0,0,1,.4.12.77.77,0,0,1,.31.28.68.68,0,0,1,.11.41.8.8,0,0,1-.1.41.94.94,0,0,1-.26.3,1.08,1.08,0,0,1-.37.19,2.31,2.31,0,0,1-.49.07l.06.46h.51a1.27,1.27,0,0,1,.48.08.81.81,0,0,1,.35.22.83.83,0,0,1,.2.3.86.86,0,0,1,.07.36,1,1,0,0,1-.11.46m.67-1a1.31,1.31,0,0,0-.24-.37,1.39,1.39,0,0,0-.43-.3,1.76,1.76,0,0,0-.5-.13v0a1.38,1.38,0,0,0,.56-.42,1.16,1.16,0,0,0,.24-.72,1.06,1.06,0,0,0-.19-.65,1.24,1.24,0,0,0-.54-.4,1.9,1.9,0,0,0-.55-.15,3.89,3.89,0,0,0-.71-.05h-.7l-.41,0s0,.25,0,.7,0,1.06,0,1.83c0,.4,0,.83,0,1.27s0,.93,0,1.43l.43,0h.77a4.74,4.74,0,0,0,.89-.08,2.41,2.41,0,0,0,.71-.26A1.46,1.46,0,0,0,14,32.9a1.33,1.33,0,0,0,.19-.71,1.41,1.41,0,0,0-.08-.5"/><path class="cls-1" d="M18.13,31.37H16.31c.12-.27.27-.61.44-1s.34-.78.46-1.07h0l.47,1.09.43,1Zm.85.45c-.48-1.1-1-2.24-1.47-3.41H17c-.51,1.17-1,2.29-1.47,3.35s-.74,1.67-.8,1.8l.5.28s.09-.22.24-.56l.6-1.41h2.24c.24.56.43,1,.58,1.39l.23.58.58-.31L19,31.82"/><path class="cls-1" d="M25,28.49c0,.41,0,.88,0,1.4s0,.91,0,1.15c0,.74,0,1.33,0,1.76s0,.68,0,.71l-.51.25c-.75-1.07-1.45-2-2.11-2.89s-1-1.36-1.14-1.49h0c0,.7,0,1.56,0,2.59s0,1.61,0,1.76h-.58V33c0-.4,0-1,0-1.67V30.23c0-.47,0-1,0-1.5l.57-.28c0,.06.42.57,1.14,1.52s1.4,1.85,2,2.67h0c0-.4,0-1.08,0-2s0-1.66,0-2.12Z"/><path class="cls-1" d="M32.49,33.42l-.47.41-.58-.68-1.55-1.84v0a1.84,1.84,0,0,0,.37-.17,1.87,1.87,0,0,0,.4-.28A1.13,1.13,0,0,0,31,30a.91.91,0,0,0-.15-.52.9.9,0,0,0-.42-.32A1.46,1.46,0,0,0,30,29l-.44,0h-.31c0,.5,0,.93,0,1.31s0,.65,0,.81c0,.36,0,.84,0,1.46s0,1,0,1.15h-.62c0-.15,0-.46,0-.91s0-1,0-1.68v-.72c0-.36,0-1,0-1.93h1a6.26,6.26,0,0,1,.63,0,2.06,2.06,0,0,1,.6.17,1.34,1.34,0,0,1,.59.48,1.37,1.37,0,0,1,.22.75,1.34,1.34,0,0,1-.33.93,3,3,0,0,1-.62.55v0c.34.42.72.85,1.12,1.29l.66.72"/><path class="cls-1" d="M36.67,33.73H33.48c0-.15,0-.47,0-1s0-1,0-1.57V30c0-.49,0-1,0-1.51h3.14V29H34.1c0,.3,0,.6,0,.89v.84h2.53v.55H34.09v1.18c0,.29,0,.53,0,.73h2.57Z"/><path class="cls-1" d="M40.62,32.25a1.34,1.34,0,0,1-.67,1.2,1.92,1.92,0,0,1-.64.26,3.35,3.35,0,0,1-.81.09H38l-.3,0,0-.56.29,0,.56,0a2.85,2.85,0,0,0,.52-.06,1.62,1.62,0,0,0,.48-.14.91.91,0,0,0,.33-.27.69.69,0,0,0,.12-.41.79.79,0,0,0-.12-.45,1,1,0,0,0-.39-.35L39,31.33a4,4,0,0,1-.51-.28,1.61,1.61,0,0,1-.54-.53,1.24,1.24,0,0,1-.16-.64,1.21,1.21,0,0,1,.14-.62,1.57,1.57,0,0,1,.39-.46,1.69,1.69,0,0,1,.59-.27,2.61,2.61,0,0,1,.77-.1h.47l.27,0,.05.56-.27,0a4.91,4.91,0,0,0-.59,0,2.1,2.1,0,0,0-.43.05,1.76,1.76,0,0,0-.39.15.92.92,0,0,0-.26.26.7.7,0,0,0,0,.74,1.27,1.27,0,0,0,.41.37,2.94,2.94,0,0,0,.41.22l.49.28a1.6,1.6,0,0,1,.56.53,1.22,1.22,0,0,1,.19.68"/><path class="cls-1" d="M45.16,33.73H42c0-.15,0-.47,0-1s0-1,0-1.57V30c0-.49,0-1,0-1.51h3.14V29H42.59c0,.3,0,.6,0,.89v.84h2.53v.55H42.58v1.18c0,.29,0,.53,0,.73h2.57Z"/><path class="cls-1" d="M49.15,31.37H47.34c.11-.27.26-.61.44-1s.33-.78.46-1.07h0l.47,1.09.43,1Zm.86.45c-.48-1.1-1-2.24-1.47-3.41h-.49c-.5,1.17-1,2.29-1.46,3.35s-.74,1.67-.81,1.8l.51.28s.09-.22.23-.56.35-.8.61-1.41h2.24c.24.56.43,1,.57,1.39l.24.58.58-.31L50,31.82"/><path class="cls-1" d="M55.55,33.42l-.47.41-.59-.68L53,31.31v0a1.88,1.88,0,0,0,.38-.17,2.16,2.16,0,0,0,.4-.28,1.4,1.4,0,0,0,.24-.33,1.17,1.17,0,0,0,.1-.53.91.91,0,0,0-.15-.52.85.85,0,0,0-.42-.32,1.34,1.34,0,0,0-.45-.1l-.44,0H52.3c0,.5,0,.93,0,1.31v.81c0,.36,0,.84,0,1.46s0,1,0,1.15h-.62c0-.15,0-.46,0-.91s0-1,0-1.68v-.72c0-.36,0-1,0-1.93h1a6.26,6.26,0,0,1,.63,0,2.26,2.26,0,0,1,.6.17,1.4,1.4,0,0,1,.59.48,1.37,1.37,0,0,1,.21.75,1.38,1.38,0,0,1-.32.93,2.74,2.74,0,0,1-.63.55v0c.35.42.72.85,1.13,1.29l.66.72"/><path class="cls-1" d="M59.86,33.26s0,.09,0,.2,0,.22,0,.35h-.13a5.08,5.08,0,0,1-1.63-.24,3,3,0,0,1-1.17-.7,2.34,2.34,0,0,1-.5-.76,2.73,2.73,0,0,1-.19-1,2.34,2.34,0,0,1,.19-.93,2.44,2.44,0,0,1,.48-.73A2.83,2.83,0,0,1,58,28.71a4.49,4.49,0,0,1,1.56-.27h.17a2,2,0,0,0,0,.22l0,.34h-.13a4.18,4.18,0,0,0-1,.11,2.91,2.91,0,0,0-.86.32,2,2,0,0,0-.73.72,1.92,1.92,0,0,0-.26,1,2.06,2.06,0,0,0,.23,1,1.89,1.89,0,0,0,.73.73,2.86,2.86,0,0,0,.9.35,4.77,4.77,0,0,0,1,.11h.18"/><path class="cls-1" d="M65.2,33.73h-.61v-.86c0-.43,0-.95,0-1.58h-3c0,.72,0,1.28,0,1.65s0,.64,0,.79H61c0-.15,0-.43,0-.83s0-1.07,0-2c0-.29,0-.64,0-1.05s0-.86,0-1.34h.62c0,.4,0,.78,0,1.16s0,.75,0,1.09h3c0-.34,0-.7,0-1.08V28.49h.61c0,.39,0,.85,0,1.37s0,.93,0,1.26c0,.77,0,1.36,0,1.77s0,.69,0,.84"/><path class="cls-1" d="M72.24,33.07a1.31,1.31,0,0,0,0,.19,3.39,3.39,0,0,0,0,.35h-.13a5.32,5.32,0,0,1-1.66-.24,3,3,0,0,1-1.19-.68,2,2,0,0,1-.51-.74,2.4,2.4,0,0,1-.19-1,2,2,0,0,1,.19-.9,2.24,2.24,0,0,1,.49-.72,3,3,0,0,1,1.18-.7,4.8,4.8,0,0,1,1.58-.26h.17s0,.12,0,.22l0,.32H72A4.9,4.9,0,0,0,71,29a3,3,0,0,0-.89.32,1.92,1.92,0,0,0-.74.7,1.81,1.81,0,0,0-.26.93,1.94,1.94,0,0,0,.23.93,1.82,1.82,0,0,0,.74.71A3.08,3.08,0,0,0,71,33a5,5,0,0,0,1,.1h.18"/><path class="cls-1" d="M76.57,31.6a2.22,2.22,0,0,1-.16.85,1.92,1.92,0,0,1-1,1.06,2.07,2.07,0,0,1-1.39,0,1.75,1.75,0,0,1-.57-.37,1.88,1.88,0,0,1-.45-.69,2.23,2.23,0,0,1-.16-.86,2.38,2.38,0,0,1,.14-.81,2,2,0,0,1,.42-.66,1.84,1.84,0,0,1,.59-.41,2,2,0,0,1,.72-.14,1.81,1.81,0,0,1,.72.13,1.74,1.74,0,0,1,.58.39,2.23,2.23,0,0,1,.43.68,2.45,2.45,0,0,1,.14.83m-.61,0a2.1,2.1,0,0,0-.12-.7,1.39,1.39,0,0,0-.36-.57,1.18,1.18,0,0,0-.35-.23,1.25,1.25,0,0,0-.43-.07,1.11,1.11,0,0,0-.46.08,1.1,1.1,0,0,0-.36.26,1.47,1.47,0,0,0-.32.53,1.84,1.84,0,0,0-.12.66,2.09,2.09,0,0,0,.12.72,1.51,1.51,0,0,0,.38.56,1.18,1.18,0,0,0,.76.27,1.12,1.12,0,0,0,.45-.08,1,1,0,0,0,.36-.25,1.26,1.26,0,0,0,.33-.53,1.82,1.82,0,0,0,.12-.65"/><rect class="cls-1" x="77.55" y="32.72" width="0.77" height="0.81"/><path class="cls-1" d="M80.55,32.77v0l-1,1.88-.4-.18s.13-.26.31-.66.37-.83.56-1.32Z"/><path class="cls-1" d="M85,33.53H81.87c0-.44,0-.88,0-1.33s0-.89,0-1.32c0-.73,0-1.28,0-1.66s0-.65,0-.8h.63c0,.33,0,.71,0,1.14v2.73c0,.45,0,.69,0,.72H85Z"/><path class="cls-1" d="M88,33.07l-.07.48h-.31a1.81,1.81,0,0,1-1.18-.33,1.21,1.21,0,0,1-.4-1V30.12H85.4v-.45h.67v-.9h.55v.9H88v.45H86.62v.48c0,.26,0,.46,0,.59v.94a.89.89,0,0,0,.27.72,1.26,1.26,0,0,0,.82.22H88Z"/><path class="cls-1" d="M91.9,33.59h-.34a8.21,8.21,0,0,1-1.13-.06,3.37,3.37,0,0,1-.8-.25,1.85,1.85,0,0,1-.77-.65,1.58,1.58,0,0,1-.26-.9,1.8,1.8,0,0,1,.29-1,1.92,1.92,0,0,1,.85-.7,2.93,2.93,0,0,1,.74-.23,4,4,0,0,1,.83-.08V27.94h.6s0,.41,0,1.07,0,1.33,0,2,0,1,0,1.45,0,.81,0,1.12m-.59-2.68V30.2a3.26,3.26,0,0,0-.72.07,2.51,2.51,0,0,0-.58.17,1.39,1.39,0,0,0-.59.5,1.41,1.41,0,0,0-.21.77,1.12,1.12,0,0,0,.2.68,1.52,1.52,0,0,0,.5.44,2.65,2.65,0,0,0,.6.21,3.11,3.11,0,0,0,.69.07h.1v-.57c0-.36,0-.9,0-1.63"/><rect class="cls-1" x="93.23" y="32.72" width="0.77" height="0.81"/><path class="cls-1" d="M40.16,24.51a14.34,14.34,0,0,1-3.63-8.31l-.05-.41V.16H31.93V16.25a15.88,15.88,0,0,0,3.25,9l.14.21h9.74V.16h-4.9Z"/><path class="cls-1" d="M59.25,14.77A10.66,10.66,0,0,0,59.06.16H49.57V25.48h4.89V15L57,25.48h5L59.11,14.93l.14-.16M56.83,9.94a5.48,5.48,0,0,1-2.27,2.88V2.55a8,8,0,0,1,1.27,1.32,6.66,6.66,0,0,1,1.43,3.7,5.49,5.49,0,0,1-.43,2.37"/></svg>