<svg id="レイヤー_1" data-name="レイヤー 1" xmlns="http://www.w3.org/2000/svg" width="250" height="100" viewBox="0 0 250 100"><title>pc_furniture</title><path d="M75.554,47.814c-2.424,0-3.554-1.2-3.554-3.577V39.143h1.506V44.19c0,1.447.436,2.518,2.083,2.518s2.082-1.118,2.082-2.553V39.143H79.13v5.13C79.13,46.614,77.907,47.814,75.554,47.814Z"/><path d="M85.744,47.65a11.261,11.261,0,0,1-.33-2.142c-.117-1.141-.2-1.635-1.482-1.635H82.32V47.65H80.861V39.143h3.224c1.447,0,3.036.306,3.036,2.117A2,2,0,0,1,85.4,43.3c1.071.188,1.247.824,1.329,1.847a7.582,7.582,0,0,0,.506,2.507Zm-1.976-7.437H82.32v2.624h1.224c1,0,2.129-.129,2.129-1.365C85.673,40.366,84.685,40.213,83.768,40.213Z"/><path d="M91.979,47.65H88.8V39.143h3.224c1.423,0,2.835.435,2.835,2.141a1.914,1.914,0,0,1-1.576,1.93,2.014,2.014,0,0,1,1.894,2.059C95.179,47.155,93.508,47.65,91.979,47.65ZM91.8,40.213H90.226v2.554h1.459c.906,0,1.706-.3,1.706-1.318C93.391,40.519,92.638,40.213,91.8,40.213Zm.071,3.566H90.226v2.8h1.4c1.012,0,2.059-.165,2.059-1.388C93.685,44.061,92.873,43.779,91.873,43.779Z"/><path d="M102.685,47.65l-.812-2.118H97.931l-.8,2.118H95.672l3.471-8.507h1.612l3.565,8.507Zm-2.812-7.343L98.331,44.5h3.13Z"/><path d="M109.955,47.65l-3.765-7.119V47.65h-1.3V39.143h2l3.765,7.118V39.143h1.294V47.65Z"/><path d="M122.249,47.65a11.179,11.179,0,0,1-.329-2.142c-.118-1.141-.2-1.635-1.483-1.635h-1.612V47.65h-1.459V39.143h3.224c1.447,0,3.035.306,3.035,2.117a2,2,0,0,1-1.717,2.036c1.07.188,1.247.824,1.329,1.847a7.608,7.608,0,0,0,.506,2.507Zm-1.977-7.437h-1.447v2.624h1.224c1,0,2.129-.129,2.129-1.365C122.178,40.366,121.19,40.213,120.272,40.213Z"/><path d="M125.307,47.65V39.143h5.506v1.082h-4.071v2.53h3.883v1.071h-3.883v2.741h4.224V47.65Z"/><path d="M135.083,47.779c-1.636,0-3.094-.659-3.188-2.506h1.458a1.568,1.568,0,0,0,1.765,1.424c.848,0,1.812-.4,1.812-1.365,0-.812-.87-1.106-1.506-1.306-1.353-.424-3.318-.859-3.318-2.6,0-1.776,1.648-2.424,3.177-2.424,1.506,0,2.93.542,2.942,2.307h-1.459c-.083-.93-.683-1.271-1.553-1.271-.789,0-1.624.376-1.624,1.259,0,1.035,1.624,1.294,2.4,1.541,1.212.388,2.447.894,2.447,2.365C138.436,47.061,136.7,47.779,135.083,47.779Z"/><path d="M139.93,47.65V39.143h5.506v1.082h-4.071v2.53h3.883v1.071h-3.883v2.741h4.224V47.65Z"/><path d="M153.154,47.65l-.812-2.118H148.4l-.8,2.118h-1.459l3.471-8.507h1.612l3.565,8.507Zm-2.812-7.343L148.8,44.5h3.13Z"/><path d="M160.376,47.65a11.338,11.338,0,0,1-.329-2.142c-.117-1.141-.2-1.635-1.482-1.635h-1.612V47.65h-1.459V39.143h3.224c1.447,0,3.035.306,3.035,2.117a2,2,0,0,1-1.717,2.036c1.07.188,1.247.824,1.329,1.847a7.582,7.582,0,0,0,.506,2.507ZM158.4,40.213h-1.447v2.624h1.223c1,0,2.13-.129,2.13-1.365C160.306,40.366,159.318,40.213,158.4,40.213Z"/><path d="M166.658,47.791c-2.682,0-3.859-1.859-3.859-4.33,0-2.424,1.236-4.471,3.859-4.471,1.542,0,3.119.729,3.166,2.506h-1.506a1.523,1.523,0,0,0-1.671-1.365c-1.789,0-2.33,1.824-2.33,3.33s.576,3.224,2.365,3.224a1.607,1.607,0,0,0,1.753-1.494h1.53C169.8,47.073,168.259,47.791,166.658,47.791Z"/><path d="M176.541,47.65V43.861h-4.059V47.65h-1.459V39.143h1.459v3.6h4.059v-3.6H178V47.65Z"/><path d="M91.887,53.927v1.93H95.37v1.565H91.887v3.4H89.369V52.315h6.213v1.612Z"/><path d="M103.652,59.963a4.287,4.287,0,0,1-3.177,1.047,3.654,3.654,0,0,1-3.306-1.365,4.022,4.022,0,0,1-.529-2.259V52.315h2.612v5.307c0,1.153.259,1.812,1.329,1.812s1.389-.706,1.389-1.836V52.315h2.518v5A3.542,3.542,0,0,1,103.652,59.963Z"/><path d="M111.1,60.822a7.89,7.89,0,0,1-.223-1.047c-.059-.377-.106-.753-.165-1.118-.153-.953-.329-1.212-1.271-1.212h-.917v3.377h-2.6V52.315H110a4.986,4.986,0,0,1,2.212.318,1.976,1.976,0,0,1,1.212,1.835,2.009,2.009,0,0,1-.788,1.636,2.938,2.938,0,0,1-1.188.494A1.806,1.806,0,0,1,113.2,58.3c.094.494.176,1,.247,1.506a4.322,4.322,0,0,0,.282,1.012Zm-1.753-6.965h-.823v2.094h.8c.906,0,1.647-.177,1.647-1.071C110.967,54.01,110.3,53.857,109.343,53.857Z"/><path d="M119.577,60.822l-2.625-6.26v6.26h-2.247V52.315h3.471l2.612,6.119V52.315h2.259v8.507Z"/><path d="M124.564,60.822V52.315h2.612v8.507Z"/><path d="M133.176,53.951v6.871h-2.612V53.951H128V52.315h7.754v1.636Z"/><path d="M143.576,59.963A4.288,4.288,0,0,1,140.4,61.01a3.653,3.653,0,0,1-3.306-1.365,4.022,4.022,0,0,1-.529-2.259V52.315h2.612v5.307c0,1.153.258,1.812,1.329,1.812s1.389-.706,1.389-1.836V52.315h2.517v5A3.541,3.541,0,0,1,143.576,59.963Z"/><path d="M151.058,60.822a7.734,7.734,0,0,1-.223-1.047c-.059-.377-.106-.753-.165-1.118-.153-.953-.33-1.212-1.271-1.212h-.918v3.377h-2.6V52.315h4.083a4.991,4.991,0,0,1,2.212.318,1.977,1.977,0,0,1,1.212,1.835A2.007,2.007,0,0,1,152.6,56.1a2.932,2.932,0,0,1-1.188.494,1.8,1.8,0,0,1,1.753,1.706c.094.494.177,1,.247,1.506a4.277,4.277,0,0,0,.283,1.012Zm-1.753-6.965h-.824v2.094h.8c.907,0,1.648-.177,1.648-1.071C150.929,54.01,150.258,53.857,149.305,53.857Z"/><path d="M154.665,60.822V52.315h6.366v1.612h-3.847v1.8h3.659V57.3h-3.659v1.93h3.976v1.588Z"/></svg>