<?xml version="1.0" encoding="utf-8"?>
<!-- Generator: Adobe Illustrator 23.1.1, SVG Export Plug-In . SVG Version: 6.00 Build 0)  -->
<svg version="1.1" xmlns="http://www.w3.org/2000/svg" xmlns:xlink="http://www.w3.org/1999/xlink" x="0px"
     y="0px" viewBox="0 0 284 46" >
<title>logo</title>
    <g>
	<g id="レイヤー_1-2">
		<path d="M17.9,0.9c0,2.1,0,3.8,0,5.2s0,2.5,0,3.6c0,1.2,0,2.3,0,3.2s0,1.6,0,2.3c0,1.1-0.2,2.3-0.6,3.3c-0.4,1-0.9,1.8-1.7,2.5
			c-0.8,0.8-1.8,1.3-2.8,1.7c-1.2,0.4-2.5,0.6-3.8,0.6c-1.3,0-2.6-0.2-3.9-0.6c-1-0.4-2-0.9-2.8-1.7c-0.8-0.7-1.3-1.6-1.7-2.5
			C0.2,17.4,0,16.2,0,15.1c0-0.6,0-1.4,0-2.3s0-1.9,0-3.2c0-1,0-2.2,0-3.6S0,3,0,0.9h2.7c0,0.3,0,1.2,0,2.8s0,3.6,0,6.2
			c0,0.8,0,1.6,0,2.4s0,1.7,0,2.6c-0.1,1.7,0.5,3.3,1.7,4.5C5.7,20.5,7.3,21.1,9,21c1.7,0.1,3.4-0.4,4.7-1.5
			c1.1-1.2,1.7-2.9,1.6-4.6c0-0.9,0-1.7,0-2.6s0-1.6,0-2.4c0-2.6,0-4.7,0-6.3s0-2.5,0-2.7L17.9,0.9z"/>
        <path d="M42.2,21.4l-2,1.7c-0.2-0.2-1.1-1.2-2.5-2.8s-3.7-4.2-6.8-7.6v-0.1c0.6-0.2,1.1-0.4,1.6-0.7c0.6-0.3,1.2-0.7,1.8-1.1
			c0.4-0.4,0.7-0.9,1-1.4c0.3-0.7,0.5-1.4,0.5-2.2c0-0.8-0.2-1.5-0.7-2.2c-0.5-0.6-1.1-1.1-1.8-1.3c-0.6-0.2-1.3-0.4-2-0.4
			c-0.7,0-1.3-0.1-1.9-0.1H28c0,2,0,3.9,0,5.4s0,2.7,0,3.3c0,1.5,0,3.5,0,6.1c0,2.5,0,4.1,0,4.8h-2.7c0-0.6,0-1.9,0-3.8s0-4.2,0-7
			v-3c0-1.5,0-4.1-0.1-8l1.7,0h2.7c0.9,0,1.8,0.1,2.8,0.2c0.9,0.1,1.7,0.3,2.5,0.7c1,0.4,1.9,1.1,2.5,2c0.6,0.9,1,2,0.9,3.1
			c0,1.4-0.5,2.8-1.4,3.8c-0.8,0.9-1.7,1.7-2.7,2.3v0.1c1.5,1.7,3.1,3.5,4.9,5.4C41.1,20.3,42,21.3,42.2,21.4z"/>
        <path d="M58.6,18.3c-0.3,0.6-0.8,1-1.4,1.3c-0.8,0.4-1.8,0.7-2.7,0.8c-1.1,0.1-2.3,0.2-3.5,0.2h-1h-0.9c0-0.1,0-1.1,0-3
			s0-3.8,0-5.6V8c0-1.8,0-3.5,0-5.1H50h1.4c0.7,0,1.5,0.1,2.2,0.2c0.6,0.1,1.2,0.3,1.7,0.5c0.5,0.3,1,0.7,1.3,1.2
			c0.3,0.5,0.5,1.1,0.5,1.7c0,0.6-0.1,1.2-0.4,1.7c-0.3,0.5-0.7,0.9-1.1,1.2c-0.5,0.3-1,0.6-1.6,0.8c-0.7,0.2-1.4,0.3-2.1,0.3
			l0.3,1.9h0.7h1.5c0.7,0,1.4,0.1,2.1,0.3c0.6,0.2,1.1,0.5,1.5,0.9c0.4,0.4,0.7,0.8,0.9,1.3c0.2,0.5,0.3,1,0.3,1.5
			C59.1,17.1,59,17.7,58.6,18.3z M61.5,14.2c-0.2-0.6-0.6-1.1-1.1-1.5c-0.5-0.5-1.2-1-1.8-1.2c-0.7-0.3-1.4-0.5-2.2-0.5v-0.2
			c1-0.4,1.8-1,2.4-1.8C59.6,8.1,60,7.1,60,6c0-1-0.3-1.9-0.8-2.7c-0.6-0.8-1.4-1.3-2.3-1.7C56,1.3,55.2,1.1,54.4,1
			c-1-0.2-2.1-0.2-3.1-0.2c-1,0-2,0-3,0.1s-1.6,0.1-1.8,0.1c0,0.1,0,1,0,2.9s0,4.4,0,7.6c0,1.7,0,3.4,0,5.3s0,3.8-0.1,5.9
			c0.1,0,0.8,0,1.9,0.1s2.2,0.1,3.3,0.1c1.3,0,2.6-0.1,3.9-0.3c1.1-0.2,2.1-0.6,3.1-1.1c1-0.5,1.8-1.2,2.4-2.1
			c0.6-0.9,0.8-1.9,0.8-2.9C61.9,15.6,61.8,14.9,61.5,14.2z"/>
        <path d="M78.8,12.9h-7.9c0.5-1.1,1.2-2.5,1.9-4.3s1.4-3.2,2-4.4h0.1c0.7,1.6,1.4,3.1,2,4.5S78.2,11.6,78.8,12.9L78.8,12.9z
			 M82.6,14.8c-2.1-4.5-4.2-9.3-6.4-14.1H74c-2.2,4.9-4.3,9.5-6.4,13.9c-2,4.4-3.2,6.9-3.5,7.5l2.2,1.2c0.1-0.2,0.4-0.9,1-2.3
			s1.5-3.4,2.6-5.9h9.7c1,2.4,1.9,4.3,2.5,5.8c0.6,1.5,1,2.3,1,2.4l2.5-1.3L82.6,14.8z"/>
        <path d="M108.6,0.9c0,1.7,0,3.7,0,5.8s0,3.8,0,4.7c0,3.1,0,5.5,0,7.3s0,2.8,0,2.9l-2.2,1.1c-3.3-4.4-6.3-8.4-9.2-12
			c-2.8-3.6-4.5-5.6-4.9-6.2l0,0c0,2.9,0,6.5,0.1,10.7s0.1,6.7,0.1,7.3h-2.6c0-0.3,0-1.2,0-2.9s0-4,0-6.9c0-1.2,0-2.8,0-4.7
			s0-4-0.1-6.2l2.5-1.2l5,6.3c3.1,4,6.1,7.7,8.8,11.1l0,0c0-1.7,0-4.5-0.1-8.4c0-4-0.1-6.9-0.1-8.8H108.6z"/>
        <path d="M141.3,21.4l-2.1,1.7c-0.2-0.2-1.1-1.2-2.5-2.8s-3.7-4.2-6.7-7.6v-0.1c0.6-0.2,1.1-0.4,1.6-0.7c0.6-0.3,1.2-0.7,1.7-1.1
			c0.4-0.4,0.8-0.9,1.1-1.4c0.3-0.7,0.5-1.4,0.4-2.2c0-0.8-0.2-1.5-0.7-2.2c-0.5-0.6-1.1-1.1-1.8-1.3c-0.6-0.2-1.3-0.4-2-0.4
			c-0.7,0-1.3-0.1-1.9-0.1h-1.3c0,2.1,0,3.9,0,5.5s0,2.7,0,3.3c0,1.5,0,3.5,0,6.1c0,2.5,0,4.1,0,4.8h-2.7c0-0.6,0-1.9,0-3.8
			s0-4.2,0-7V9c0-1.5,0-4.1-0.1-8h1.6h2.7c0.9,0,1.8,0.1,2.8,0.2c0.9,0.1,1.8,0.3,2.6,0.7c1,0.4,1.9,1.1,2.6,2c0.6,0.9,1,2,0.9,3.1
			c0,1.4-0.5,2.8-1.4,3.8c-0.8,0.9-1.7,1.7-2.7,2.3v0.1c1.5,1.7,3.1,3.5,4.9,5.4C140.2,20.3,141.1,21.3,141.3,21.4z"/>
        <path d="M159.4,22.7h-2.2h-5h-3.8c-1.1,0-2.1,0-2.9,0c0-0.6,0-2,0-4.1s0-4.3,0-6.5c0-1.2,0-2.9,0-4.9s0-4.1,0-6.3
			c0.8,0,1.7,0,2.9,0h8.6h2.1v2.2h-2h-4.7h-4.2c0,1.2,0,2.5,0,3.7s0,2.4,0,3.5h3.5h5.1h2.4v2.2h-2.7h-8.3c0,2.1,0,3.7,0,4.9
			s0,2.2,0,3h2.3h2.9c1.6,0,3,0,4.1,0h1.8L159.4,22.7z"/>
        <path d="M176.6,16.6c0,1-0.3,2.1-0.8,2.9c-0.5,0.8-1.3,1.5-2.1,2c-0.9,0.5-1.8,0.9-2.8,1.1c-1.1,0.3-2.3,0.4-3.5,0.4
			c-0.7,0-1.4,0-2.2-0.1l-1.2-0.1l-0.1-2.3l1.3,0.1c0.7,0,1.5,0.1,2.4,0.1c0.7,0,1.5-0.1,2.2-0.2c0.7-0.1,1.4-0.3,2.1-0.6
			c0.6-0.3,1.1-0.7,1.5-1.1c0.4-0.5,0.5-1.1,0.5-1.7c0-0.7-0.2-1.3-0.5-1.8c-0.4-0.6-1-1.1-1.7-1.5c-0.5-0.3-1.2-0.6-2-1
			c-0.8-0.3-1.5-0.7-2.2-1.1c-1-0.5-1.8-1.3-2.4-2.2c-0.5-0.8-0.7-1.7-0.7-2.7c0-0.9,0.2-1.8,0.6-2.6c0.4-0.7,1-1.4,1.7-1.9
			c0.8-0.6,1.7-1,2.6-1.2c1.1-0.3,2.2-0.4,3.4-0.4c0.7,0,1.4,0,2.1,0.1l1.2,0.1l0.2,2.3l-1.2-0.1C174.2,3,173.3,3,172.3,3
			c-0.6,0-1.3,0.1-1.9,0.2c-0.6,0.1-1.2,0.3-1.7,0.6c-0.4,0.2-0.8,0.6-1.1,1c-0.3,0.5-0.5,1-0.5,1.6c0,0.5,0.2,1.1,0.5,1.5
			c0.5,0.6,1.1,1.1,1.8,1.5c0.6,0.3,1.2,0.7,1.8,0.9c0.7,0.4,1.4,0.7,2.1,1.1c1,0.5,1.8,1.3,2.4,2.2
			C176.4,14.6,176.6,15.6,176.6,16.6z"/>
        <path d="M196.3,22.7h-2.2h-5h-3.8c-1.1,0-2.1,0-2.9,0c0-0.6,0-2,0.1-4.1s0-4.3,0-6.5c0-1.2,0-2.9,0-4.9s0-4.1-0.1-6.3
			c0.8,0,1.7,0,2.9,0h8.6h2.1v2.2h-2h-4.7h-4.2c0,1.2,0,2.5,0,3.7s0,2.4,0,3.5h3.5h5.1h2.4v2.2h-2.7h-8.3c0,2.1,0,3.7,0,4.9
			s0,2.2,0,3h2.3h2.9c1.6,0,3,0,4.1,0h1.8L196.3,22.7z"/>
        <path d="M213.7,12.9h-7.9c0.5-1.1,1.2-2.5,1.9-4.3s1.4-3.2,2-4.4h0.1c0.7,1.6,1.4,3.1,2.1,4.5S213.1,11.6,213.7,12.9L213.7,12.9z
			 M217.4,14.8c-2.1-4.5-4.2-9.3-6.4-14.1h-2.1c-2.2,4.9-4.3,9.5-6.4,13.9c-2.1,4.4-3.2,6.9-3.5,7.5l2.2,1.2l1-2.3
			c0.6-1.4,1.5-3.4,2.6-5.9h9.7c1,2.4,1.9,4.3,2.5,5.8c0.6,1.5,1,2.3,1,2.4l2.5-1.3C220.6,21.6,219.5,19.3,217.4,14.8z"/>
        <path d="M241.5,21.4l-2.1,1.7c-0.2-0.2-1.1-1.2-2.5-2.8s-3.7-4.2-6.7-7.6v-0.1c0.6-0.2,1.1-0.4,1.6-0.7c0.6-0.3,1.2-0.7,1.7-1.2
			c0.4-0.4,0.7-0.9,1-1.4c0.3-0.7,0.5-1.4,0.4-2.2c0-0.8-0.2-1.5-0.7-2.2c-0.5-0.6-1.1-1.1-1.8-1.3c-0.6-0.2-1.3-0.4-2-0.4
			c-0.7,0-1.3-0.1-1.9-0.1h-1.4c0,2.1-0.1,3.9-0.1,5.5s0,2.7,0,3.3c0,1.5,0,3.5,0,6.1c0,2.5,0,4.1,0,4.8h-2.5c0-0.6,0-1.9,0-3.8
			s0-4.2,0-7V9c0-1.5,0-4.1-0.1-8h1.6h2.7c0.9,0,1.8,0.1,2.8,0.2c0.9,0.1,1.8,0.3,2.6,0.7c1,0.4,1.9,1.1,2.6,2c0.6,0.9,1,2,0.9,3.1
			c0,1.4-0.5,2.8-1.4,3.8c-0.8,0.9-1.7,1.7-2.7,2.3v0.1c1.5,1.7,3.1,3.5,4.9,5.4C240.4,20.3,241.4,21.3,241.5,21.4z"/>
        <path d="M260.2,20.7c0,0.1,0,0.4-0.1,0.8s-0.1,0.9-0.1,1.5h-0.6c-2.4,0-4.8-0.3-7.1-1c-1.9-0.6-3.6-1.6-5.1-2.9
			c-0.9-0.9-1.7-2-2.2-3.2c-0.6-1.3-0.8-2.8-0.8-4.2c0-1.3,0.3-2.7,0.8-3.9c0.5-1.1,1.2-2.1,2.1-3c1.4-1.4,3.1-2.4,5-3
			c2.2-0.8,4.5-1.2,6.8-1.2h0.7c0,0.2,0,0.5,0.1,0.9s0.1,0.9,0.1,1.4h-0.5c-1.4,0-2.8,0.2-4.2,0.5c-1.3,0.2-2.6,0.7-3.8,1.3
			c-1.3,0.7-2.4,1.7-3.2,3c-0.7,1.2-1.1,2.6-1.1,3.9c0,1.4,0.3,2.8,1,4c0.8,1.3,1.8,2.3,3.1,3c1.2,0.7,2.5,1.2,3.9,1.5
			c1.4,0.3,2.9,0.4,4.3,0.5L260.2,20.7L260.2,20.7z"/>
        <path d="M283.5,22.7h-2.7c0-0.6,0-1.9,0-3.6s0-3.9,0-6.6h-13.1c0,3,0,5.3,0,6.9s0,2.6,0,3.3H265c0-0.6,0-1.8,0-3.5s0-4.5,0-8.4
			c0-1.2,0-2.6,0-4.3s0-3.6,0-5.6h2.7c0,1.7,0,3.3,0,4.8s0,3.1,0,4.5h13.2c0-1.4,0-2.9,0-4.5s0-3.2,0-4.9h2.7c0,1.6,0,3.5,0,5.7
			s0,3.9,0,5.2c0,3.2,0,5.6,0,7.3C283.4,20.9,283.5,22.1,283.5,22.7z"/>
        <path d="M123,38c-0.4-2.3-0.6-3.2-0.6-3.3v-0.1l-1.4-0.1v0.1l-1.2,2.7l-2.1,4.7c-0.9-1.9-1.6-3.6-2.2-5l-0.1-0.2l-1-2.2v-0.1
			l-1.6,0.1v0.1c0,0.2-0.2,1.2-0.7,3.5c-0.4,2.1-0.9,4.3-1.4,6.5v0.2l1.5,0.3V45c0.3-1.9,0.7-3.8,1.1-5.6c0.2-1.2,0.4-2,0.5-2.5
			l1.1,2.5c0.7,1.6,1.4,3.1,2,4.5V44h1.2v-0.1c0.6-1.5,1.3-3,2-4.5c0.5-1.2,0.9-2,1.1-2.5l1.5,8.3l1.5-0.3v-0.1
			C123.8,42.4,123.3,40.1,123,38z"/>
        <path d="M135.1,43.7h-4.2c0-0.4,0-0.8,0-1.3s0-1.2,0-2.2h5.2V39h-5.2c0-0.5,0-1,0-1.5s0-1,0-1.6h5.2v-1.3h-6.7v0.1c0,1,0,2,0,2.9
			c0,0.9,0,1.7,0,2.3c0,1,0,2.1,0,3s0,1.6,0,1.9v0.2h6.8v-1.3L135.1,43.7L135.1,43.7z"/>
        <path d="M148.4,35.8c-0.7-0.4-1.4-0.7-2.2-0.9c-0.9-0.2-1.9-0.3-2.8-0.3h-1.5v0.2c0,1.2,0,2.3,0,3.1v2.1c0,1,0,2.1,0,3.3
			s0,1.7,0,1.8v0.1h0.1h0.6h1.1c0.9,0,1.7-0.1,2.6-0.3c0.7-0.2,1.4-0.5,2.1-0.8c0.7-0.4,1.3-1,1.8-1.6c0.5-0.7,0.7-1.6,0.7-2.4
			C150.7,38.2,149.9,36.6,148.4,35.8L148.4,35.8z M149.1,39.9c0,0.6-0.2,1.3-0.5,1.8c-0.4,0.5-0.8,1-1.4,1.3
			c-0.5,0.3-1.1,0.5-1.6,0.6c-0.6,0.2-1.3,0.2-1.9,0.2h-0.2v-6.1c0-0.5,0-1.1,0-1.9h0.2c0.6,0,1.3,0.1,1.9,0.2
			c0.7,0.1,1.3,0.4,1.9,0.7c0.5,0.3,1,0.8,1.3,1.3C149,38.7,149.1,39.3,149.1,39.9L149.1,39.9z"/>
        <path d="M157.3,43.2c0-0.8,0-2,0-3.6c0-0.6,0-1.4,0-2.4s0-1.8,0-2.5v-0.1h-1.6v0.2c0,1,0,2,0,2.9s0,1.7,0,2.3c0,1.5,0,2.6,0,3.4
			s0,1.3,0,1.6v0.2h1.6V45C157.3,44.6,157.3,44.1,157.3,43.2z"/>
        <path d="M172.8,44.5l-1.5-3.3c-1-2.2-2-4.4-3-6.6v-0.1h-1.2v0.1c-1,2.3-2.1,4.5-3,6.5s-1.5,3.2-1.6,3.5l-0.1,0.1l1.3,0.7l0.1-0.2
			c0-0.1,0.2-0.4,0.5-1.1l1.2-2.7h4.3c0.5,1,0.9,1.9,1.2,2.6s0.5,1.1,0.5,1.1l0.1,0.2l1.4-0.8L172.8,44.5z M169.2,40.2H166l0.8-1.8
			l0.8-1.8c0.3,0.6,0.6,1.3,0.8,1.9S168.9,39.6,169.2,40.2L169.2,40.2z"/>
	</g>
</g>
</svg>
