<svg id="レイヤー_2" data-name="レイヤー 2" xmlns="http://www.w3.org/2000/svg" viewBox="0 0 35 31" width="35" height="31"><title>sp_heart_like</title><path d="M17.33,28.66,5.14,15.25a8.09,8.09,0,0,1-2-5.46A8.06,8.06,0,0,1,5.14,4.34a6.38,6.38,0,0,1,9.66,0l2.53,2.78,2.53-2.78a6.48,6.48,0,0,1,4.83-2.21,6.28,6.28,0,0,1,2.88.7,6.87,6.87,0,0,1,1.95,1.51,8.11,8.11,0,0,1,2,5.57,8.27,8.27,0,0,1-.33,2.28l1.92.57a10.44,10.44,0,0,0,.35-2h0q0-.4,0-.81s0-.1,0-.15h0A10.12,10.12,0,0,0,31,3a9.19,9.19,0,0,0-2.51-1.94,8.26,8.26,0,0,0-3.8-.92A8.49,8.49,0,0,0,18.38,3L17.33,4.15,16.28,3A8.39,8.39,0,0,0,3.66,3a10.1,10.1,0,0,0-2.57,6.8,10.1,10.1,0,0,0,2.57,6.8L16.17,30.35a1.55,1.55,0,0,0,2.31,0l4.6-4.95-1.46-1.36Z"/><polygon points="33.91 17.77 28.61 17.77 28.61 12.47 26.61 12.47 26.61 17.77 21.31 17.77 21.31 19.77 26.61 19.77 26.61 25.06 28.61 25.06 28.61 19.77 33.91 19.77 33.91 17.77"/></svg>