<svg id="レイヤー_1" data-name="レイヤー 1" xmlns="http://www.w3.org/2000/svg" width="250" height="100" viewBox="0 0 250 100"><title>pc_item</title><rect x="99.47" y="36.14" width="0.843" height="12.531"/><polygon points="114.445 36.141 109.569 36.141 108.726 36.141 103.851 36.141 103.851 36.983 108.726 36.983 108.726 48.672 109.569 48.672 109.569 36.983 114.445 36.983 114.445 36.141"/><polygon points="119.062 47.829 119.062 42.773 125.166 42.773 125.166 41.931 119.062 41.931 119.062 36.983 125.342 36.983 125.342 36.141 119.062 36.141 118.219 36.141 118.219 36.983 118.219 41.931 118.219 42.773 118.219 47.829 118.219 48.672 119.062 48.672 125.515 48.672 125.515 47.829 119.062 47.829"/><path d="M150.139,37.952l-.117-.108a3.831,3.831,0,0,0-2.728-.859c-1.855,0-2.431,1.268-2.431,1.731,0,.551,0,1.577,2.289,2.835,2.494,1.372,3.378,2.481,3.378,4.235,0,1.883-1.913,2.886-3.294,2.886a5.708,5.708,0,0,1-3.311-1.179l-.018-.015V46.272l.068.082.03.037a4.608,4.608,0,0,0,3.231,1.418c1,0,2.433-.72,2.433-2.023,0-1.4-.741-2.274-2.932-3.479-2.411-1.325-2.736-2.56-2.736-3.591a2.984,2.984,0,0,1,3.293-2.594,5.281,5.281,0,0,1,2.821.724l.022.014Z"/><path d="M139.289,36.141v0l0,0L134.675,42l-4.6-5.848v-.013h-.843V48.672h.843s0-7.9,0-11.154l4.595,5.843h.006l4.611-5.864V48.672h.843V36.141Z"/><path d="M84.813,56.643q0,1.014-.011,1.677c-.007.442-.01.826-.01,1.154,0,.4,0,.743,0,1.027s0,.529,0,.736a2.966,2.966,0,0,1-.182,1.08,2.232,2.232,0,0,1-.552.817,2.624,2.624,0,0,1-.908.546,3.6,3.6,0,0,1-1.246.2,3.65,3.65,0,0,1-1.246-.2,2.614,2.614,0,0,1-.913-.549,2.22,2.22,0,0,1-.552-.817,2.966,2.966,0,0,1-.182-1.08c0-.207,0-.453,0-.736s0-.626,0-1.027c0-.328,0-.712-.01-1.154s-.011-1-.011-1.677h.871c0,.088-.008.388-.013.9s-.007,1.186-.007,2.02c0,.254,0,.516,0,.787s0,.55,0,.835a1.869,1.869,0,0,0,.555,1.465,2.154,2.154,0,0,0,1.5.5,2.195,2.195,0,0,0,1.537-.475,1.945,1.945,0,0,0,.512-1.489c0-.285,0-.564,0-.835s0-.533,0-.787q0-1.251-.011-2.049c-.007-.531-.01-.822-.01-.871Z"/><path d="M92.672,63.292l-.661.544q-.115-.121-.823-.917t-2.179-2.482l.006-.047a3.276,3.276,0,0,0,1.093-.613,1.748,1.748,0,0,0,.341-.445,1.477,1.477,0,0,0,.145-.707,1.153,1.153,0,0,0-.214-.7,1.229,1.229,0,0,0-.589-.431,2.264,2.264,0,0,0-.644-.14c-.225-.015-.432-.023-.623-.023-.126,0-.223,0-.29,0l-.148,0q-.011,1-.013,1.771t0,1.083q0,.723.008,1.966t.013,1.559H87.22q.006-.316.016-1.227t.011-2.269v-.977q0-.713-.027-2.6l.528-.011q.474-.011.875-.011a7.18,7.18,0,0,1,.891.054,3.124,3.124,0,0,1,.844.226,1.9,1.9,0,0,1,.827.652,1.7,1.7,0,0,1,.306,1.011,1.763,1.763,0,0,1-.461,1.248,4.024,4.024,0,0,1-.872.741v.027q.725.846,1.588,1.744t.926.968"/><path d="M99.083,61.634a1.712,1.712,0,0,1-.272.95,2.015,2.015,0,0,1-.788.692,3.765,3.765,0,0,1-1.007.346,6.544,6.544,0,0,1-1.255.108q-.522,0-1.074-.018t-.614-.024q.017-1.014.021-1.914c0-.6.006-1.174.006-1.72q0-1.553-.014-2.458t-.013-.943c.049,0,.244-.012.582-.026s.669-.021.989-.021a6.615,6.615,0,0,1,1,.071,3.592,3.592,0,0,1,.776.2,1.731,1.731,0,0,1,.753.547,1.391,1.391,0,0,1,.275.874,1.475,1.475,0,0,1-.345.964,1.76,1.76,0,0,1-.785.573v.053a2.408,2.408,0,0,1,.705.171,1.806,1.806,0,0,1,.6.4,1.568,1.568,0,0,1,.342.5,1.744,1.744,0,0,1,.116.676m-.9.026a1.179,1.179,0,0,0-.1-.483,1.43,1.43,0,0,0-.285-.409,1.3,1.3,0,0,0-.494-.291,2.038,2.038,0,0,0-.683-.111c-.2,0-.357,0-.479.005s-.2,0-.24,0l-.085-.633a2.948,2.948,0,0,0,.69-.092,1.7,1.7,0,0,0,.53-.246,1.3,1.3,0,0,0,.365-.4,1.081,1.081,0,0,0,.142-.552.977.977,0,0,0-.158-.557,1.1,1.1,0,0,0-.432-.373,2.161,2.161,0,0,0-.569-.166,4.448,4.448,0,0,0-.722-.055c-.165,0-.317,0-.456.008s-.227.007-.266.007q-.015.771-.018,1.638t0,1.256q0,.909.008,1.825c.006.611.008.938.008.98l.282.013c.118.005.231.008.34.008a9.363,9.363,0,0,0,1.125-.063,2.388,2.388,0,0,0,.878-.264,1.2,1.2,0,0,0,.456-.428,1.166,1.166,0,0,0,.161-.618"/><path d="M106.854,63.432l-.821.425q-.021-.059-.338-.787t-.836-1.875h-3.126q-.557,1.231-.859,1.907c-.2.45-.313.7-.334.755l-.707-.383q.137-.274,1.132-2.42t2.067-4.512h.686q1.057,2.365,2.076,4.583t1.06,2.307m-2.293-2.913q-.281-.645-.591-1.348t-.652-1.469l-.022.005q-.266.581-.64,1.427t-.62,1.385l0,.005h2.529Z"/><path d="M114.23,56.643q-.011.829-.018,1.9t-.008,1.536q0,1.5.01,2.385t.011.942l-.7.344q-1.595-2.154-2.981-3.889l-1.6-2-.011,0q0,1.416.019,3.478t.024,2.379h-.824q.006-.134.016-.94t.011-2.251q0-.575-.006-1.528t-.021-2.021l.8-.38,1.619,2.053q1.522,1.932,2.869,3.589l.011-.005q0-.813-.022-2.737t-.02-2.852Z"/><path d="M124.845,63.292l-.66.544q-.117-.121-.823-.917t-2.179-2.482l0-.047a3.276,3.276,0,0,0,1.093-.613,1.748,1.748,0,0,0,.341-.445,1.477,1.477,0,0,0,.145-.707,1.153,1.153,0,0,0-.214-.7,1.234,1.234,0,0,0-.589-.431,2.265,2.265,0,0,0-.643-.14c-.226-.015-.433-.023-.623-.023-.127,0-.224,0-.291,0l-.148,0q-.011,1-.013,1.771t0,1.083q0,.723.008,1.966t.013,1.559h-.871q.006-.316.016-1.227t.011-2.269v-.977q0-.713-.027-2.6l.527-.011q.475-.011.876-.011a7.18,7.18,0,0,1,.891.054,3.133,3.133,0,0,1,.844.226,1.9,1.9,0,0,1,.828.652,1.707,1.707,0,0,1,.306,1.011,1.768,1.768,0,0,1-.461,1.248,4.05,4.05,0,0,1-.873.741v.027q.724.846,1.588,1.744t.926.968"/><path d="M130.739,63.7l-.7-.005q-.656-.006-1.621-.006-.671,0-1.228.006t-.942.005q.011-.306.019-1.326t.008-2.107q0-.6-.006-1.579t-.021-2.033q.375,0,.937.005c.375,0,.761,0,1.159,0q1.008,0,1.642,0l.686-.005v.734l-.662-.008q-.611-.009-1.518-.008l-.776,0-.6,0q0,.6-.011,1.191t-.01,1.122l.562,0,.578,0q.93,0,1.661-.008l.778-.008v.729l-.871-.008c-.553,0-1.057-.009-1.515-.009-.169,0-.37,0-.6,0l-.588,0q0,1,.005,1.584c0,.391.007.719.011.983q.31,0,.755.008c.3,0,.614,0,.955,0,.525,0,.965,0,1.323,0s.557-.005.6-.005Z"/><path d="M136.319,61.723a1.753,1.753,0,0,1-.256.953,1.979,1.979,0,0,1-.69.664,3.241,3.241,0,0,1-.909.35,4.993,4.993,0,0,1-1.137.119c-.225,0-.459-.006-.7-.02s-.381-.023-.42-.027L132.164,63c.05.007.187.021.412.04s.491.029.8.029A4.631,4.631,0,0,0,134.1,63a2.552,2.552,0,0,0,.681-.19,1.325,1.325,0,0,0,.478-.37.879.879,0,0,0,.166-.549,1.05,1.05,0,0,0-.166-.6,1.693,1.693,0,0,0-.552-.473c-.166-.1-.38-.209-.645-.333a6.879,6.879,0,0,1-.712-.38,2.181,2.181,0,0,1-.768-.716,1.661,1.661,0,0,1-.23-.863,1.642,1.642,0,0,1,.209-.843,2.1,2.1,0,0,1,.542-.61,2.365,2.365,0,0,1,.827-.38,4.351,4.351,0,0,1,1.086-.127c.219,0,.44.007.664.019s.352.02.383.024l.075.766-.386-.038q-.338-.032-.834-.031a2.97,2.97,0,0,0-.61.066,1.87,1.87,0,0,0-.551.2,1.089,1.089,0,0,0-.359.338.877.877,0,0,0-.148.507.909.909,0,0,0,.155.5,1.747,1.747,0,0,0,.584.494q.216.132.573.3t.7.372a2.378,2.378,0,0,1,.795.715,1.644,1.644,0,0,1,.266.922"/><path d="M142.718,63.7l-.7-.005q-.655-.006-1.621-.006-.671,0-1.228.006t-.942.005q.011-.306.019-1.326t.008-2.107q0-.6,0-1.579t-.022-2.033q.375,0,.937.005c.375,0,.761,0,1.159,0q1.01,0,1.642,0l.687-.005v.734l-.663-.008q-.61-.009-1.518-.008l-.776,0-.6,0q0,.6-.011,1.191t-.01,1.122l.563,0,.578,0q.928,0,1.66-.008l.779-.008v.729l-.872-.008c-.552,0-1.057-.009-1.515-.009-.169,0-.37,0-.6,0l-.589,0q0,1,0,1.584c0,.391.007.719.011.983q.31,0,.755.008c.295,0,.614,0,.955,0,.525,0,.965,0,1.323,0s.557-.005.6-.005Z"/><path d="M150.632,63.432l-.822.425q-.021-.059-.338-.787t-.836-1.875H145.51q-.555,1.231-.859,1.907t-.334.755l-.707-.383q.138-.274,1.133-2.42t2.067-4.512h.686q1.056,2.365,2.075,4.583t1.061,2.307m-2.294-2.913q-.279-.645-.591-1.348T147.1,57.7l-.021.005q-.266.581-.641,1.427t-.62,1.385l0,.005h2.529Z"/><path d="M157.377,63.292l-.66.544q-.117-.121-.823-.917t-2.18-2.482l.006-.047a3.276,3.276,0,0,0,1.093-.613,1.726,1.726,0,0,0,.341-.445,1.465,1.465,0,0,0,.145-.707,1.153,1.153,0,0,0-.214-.7,1.229,1.229,0,0,0-.589-.431,2.257,2.257,0,0,0-.643-.14c-.226-.015-.433-.023-.623-.023-.127,0-.224,0-.291,0l-.147,0q-.012,1-.014,1.771t0,1.083q0,.723.009,1.966t.013,1.559h-.871q0-.316.015-1.227t.011-2.269v-.977q0-.713-.026-2.6l.527-.011q.474-.011.875-.011a7.18,7.18,0,0,1,.891.054,3.124,3.124,0,0,1,.844.226,1.9,1.9,0,0,1,.828.652,1.7,1.7,0,0,1,.305,1.011,1.763,1.763,0,0,1-.461,1.248,4.024,4.024,0,0,1-.872.741v.027q.725.846,1.588,1.744t.926.968"/><path d="M163.461,63.065c0,.031-.013.12-.029.267s-.031.3-.045.478H163.2a7.446,7.446,0,0,1-2.291-.325,4.208,4.208,0,0,1-1.647-.943,3.117,3.117,0,0,1-.71-1.025,3.35,3.35,0,0,1-.262-1.362,2.978,2.978,0,0,1,.259-1.254,3.418,3.418,0,0,1,.676-.991,4.218,4.218,0,0,1,1.631-.971,6.56,6.56,0,0,1,2.191-.359h.238q0,.095.021.3c.011.139.023.289.037.451h-.18a6.8,6.8,0,0,0-1.369.146,4.163,4.163,0,0,0-1.221.436,2.776,2.776,0,0,0-1.026.974,2.435,2.435,0,0,0-.359,1.28,2.635,2.635,0,0,0,.323,1.3,2.563,2.563,0,0,0,1.02.98,4.378,4.378,0,0,0,1.276.476,6.87,6.87,0,0,0,1.4.147h.1c.046,0,.095,0,.148-.005"/><path d="M171,63.714h-.871c0-.211.008-.6.013-1.169s.008-1.278.008-2.126l-.94,0-1.293,0-1.254,0-.8,0q0,1.469.008,2.223t.013,1.072h-.871q.006-.316.016-1.124t.011-2.731q0-.581-.008-1.415t-.019-1.8h.871q0,.8-.01,1.576t-.011,1.471l.689,0,1.365,0,1.373,0,.855,0q0-.7-.011-1.468t-.01-1.579H171q-.011.8-.019,1.843t-.007,1.706q0,1.552.01,2.379c.007.551.013.932.016,1.143"/></svg>