<?xml version="1.0" encoding="utf-8"?>
<!-- Generator: Adobe Illustrator 22.1.0, SVG Export Plug-In . SVG Version: 6.00 Build 0)  -->
<!DOCTYPE svg PUBLIC "-//W3C//DTD SVG 1.1//EN" "http://www.w3.org/Graphics/SVG/1.1/DTD/svg11.dtd" [
	<!ENTITY st0 "fill:#FFFFFF;">
]>
<svg version="1.1" id="Logo" xmlns="http://www.w3.org/2000/svg" xmlns:xlink="http://www.w3.org/1999/xlink" x="0px" y="0px"
	 viewBox="0 0 26 26" style="enable-background:new 0 0 26 26;" xml:space="preserve">
<g>
	<path style="&st0;" d="M13,2.342c3.471,0,3.882,0.013,5.253,0.076c1.267,0.058,1.956,0.27,2.414,0.448
		c0.607,0.236,1.04,0.518,1.495,0.972c0.455,0.455,0.737,0.888,0.972,1.495c0.178,0.458,0.39,1.146,0.448,2.414
		c0.063,1.371,0.076,1.782,0.076,5.253s-0.013,3.882-0.076,5.253c-0.058,1.267-0.27,1.956-0.448,2.414
		c-0.236,0.607-0.518,1.04-0.972,1.495c-0.455,0.455-0.888,0.737-1.495,0.972c-0.458,0.178-1.146,0.39-2.414,0.448
		c-1.371,0.063-1.782,0.076-5.253,0.076s-3.882-0.013-5.253-0.076c-1.267-0.058-1.956-0.27-2.414-0.448
		c-0.607-0.236-1.04-0.518-1.495-0.972c-0.455-0.455-0.737-0.888-0.972-1.495c-0.178-0.458-0.39-1.146-0.448-2.414
		C2.356,16.882,2.342,16.471,2.342,13s0.013-3.882,0.076-5.253c0.058-1.267,0.27-1.956,0.448-2.414
		c0.236-0.607,0.518-1.04,0.972-1.495c0.455-0.455,0.888-0.737,1.495-0.972c0.458-0.178,1.146-0.39,2.414-0.448
		C9.118,2.356,9.529,2.342,13,2.342 M13,0C9.469,0,9.027,0.015,7.64,0.078C6.256,0.141,5.311,0.361,4.484,0.682
		C3.63,1.015,2.905,1.459,2.182,2.182C1.459,2.905,1.015,3.63,0.682,4.484C0.361,5.311,0.141,6.256,0.078,7.64
		C0.015,9.027,0,9.469,0,13c0,3.531,0.015,3.973,0.078,5.36c0.063,1.384,0.283,2.329,0.604,3.156
		c0.332,0.855,0.777,1.58,1.499,2.303c0.723,0.723,1.448,1.167,2.303,1.499c0.827,0.321,1.772,0.541,3.156,0.604
		C9.027,25.985,9.469,26,13,26s3.973-0.015,5.36-0.078c1.384-0.063,2.329-0.283,3.156-0.604c0.855-0.332,1.58-0.777,2.303-1.499
		c0.723-0.723,1.167-1.448,1.499-2.303c0.321-0.827,0.541-1.772,0.604-3.156C25.985,16.973,26,16.531,26,13s-0.015-3.973-0.078-5.36
		c-0.063-1.384-0.283-2.329-0.604-3.156c-0.332-0.855-0.777-1.58-1.499-2.303c-0.723-0.723-1.448-1.167-2.303-1.499
		c-0.827-0.321-1.772-0.541-3.156-0.604C16.973,0.015,16.531,0,13,0L13,0z"/>
	<path style="&st0;" d="M13,6.324c-3.687,0-6.676,2.989-6.676,6.676c0,3.687,2.989,6.676,6.676,6.676s6.676-2.989,6.676-6.676
		C19.676,9.313,16.687,6.324,13,6.324z M13,17.333c-2.393,0-4.333-1.94-4.333-4.333c0-2.393,1.94-4.333,4.333-4.333
		c2.393,0,4.333,1.94,4.333,4.333C17.333,15.393,15.393,17.333,13,17.333z"/>
	<circle style="&st0;" cx="19.939" cy="6.061" r="1.56"/>
</g>
</svg>
