<svg id="レイヤー_1" data-name="レイヤー 1" xmlns="http://www.w3.org/2000/svg" width="250" height="100" viewBox="0 0 250 100"><title>pc_kagure</title><path d="M120.725,52.13c-.524-.586-1.437-1.619-1.252-2.5.293-1.4,4.155-6.617,4.588-7.224.379-.533.759-.846.65-1.435a2.457,2.457,0,0,0-2.089-1.5c-.25.039-.247.238-.064.415a1.1,1.1,0,0,1,.452,1.251,47.444,47.444,0,0,1-2.466,4.688c-1.122,2.06-1.872,2.919-1.905,4.137-.03,1.067,1.418,2.653,2.419,4.038a16.649,16.649,0,0,1,2.3,5.271c.136.784.55,1.268.95,1.268s.718-.616.635-1.485C124.744,56.975,121.708,53.231,120.725,52.13Z"/><path d="M132.432,43.094c-.512-1.057-2.547-1.767-3.439-1.85-.3-.027-.363.314-.049.43A7.636,7.636,0,0,1,130.826,43c.628.578.748,1.09,1.242,1.206C132.369,44.272,132.832,43.92,132.432,43.094Z"/><path d="M127.216,43.388c-.309-.068-.409.259-.107.442a7.984,7.984,0,0,1,1.784,1.625c.574.684.634,1.23,1.129,1.418.3.114.831-.19.525-1.1C130.155,44.6,128.133,43.594,127.216,43.388Z"/><path d="M106.021,49.669a6.612,6.612,0,0,0-5.037-4.008c-.327-.06-.3.235-.035.341a7.088,7.088,0,0,1,3.6,3.221c.349.719.366,1.4.083,1.651a9.838,9.838,0,0,1-2.626.595c-.152.014-.149.264,0,.264a8.912,8.912,0,0,1,1.833.3c.578.181.595.578.793.693a.8.8,0,0,0,.892-.115A2.992,2.992,0,0,0,106.021,49.669Z"/><path d="M96.821,45.72a6.172,6.172,0,0,0-3.048.13l.01-.03a15.88,15.88,0,0,0,.98-3.515c-.025-.9-1.331-1.457-1.985-1.482-.6-.023-.7.4-.476.478a1.535,1.535,0,0,1,.929.879c.359.749-.129,2.887-.506,3.917l-.008.021-.452.126c-1.087.3-2.079.578-2.8.707A1.957,1.957,0,0,1,87.23,46.2c-.034-.063-.079-.076-.109-.065-.06.023-.095.161-.092.316a1.894,1.894,0,0,0,1.355,1.933c1,.152,2.389-.7,3.968-1.255a39.039,39.039,0,0,1-4.971,9.216c-.292.39-.5.6-.3,1.129.265.7.854.6,1.18.151a51.029,51.029,0,0,0,4.857-9.917c.118-.329.239-.651.352-.965a16.676,16.676,0,0,1,1.747-.492c.717-.147,1.852-.417,2.109,1.757a14.738,14.738,0,0,1-1.772,7.665c-.5.846-.965,1.023-1.468.973a11.131,11.131,0,0,1-2.31-1.256c-.252-.151-.353.072-.251.176.137.14.972,1.036,1.252,1.383.325.4.3,1.178.606,1.455a1.27,1.27,0,0,0,1.482-.126c2.6-1.957,3.666-6.905,3.39-10.345A2.346,2.346,0,0,0,96.821,45.72Z"/><path d="M162.606,53.017a9.754,9.754,0,0,1-2.07,2.794c-.941.825-2.709,1.516-3.383.017s.468-6.222.708-8.769c.252-2.676-1.462-4.071-3.636-3.635-2.357.471-5.049,3.2-6.431,4.779-.054.064-.2.142-.15-.017a6.537,6.537,0,0,1,.521-1.026,1.331,1.331,0,0,0,.236-.926c-.048-.431-.352-.4-.421-.808s.4-2.626.035-3.635a3.089,3.089,0,0,0-2.121-2.088c-.473-.033-.557.153-.388.3a5.835,5.835,0,0,1,1.127,1.75,9.527,9.527,0,0,1,.27,3.787c-2.188.809-3.655,2.041-3.88,3.174-.2,1.019.674,2.466,1.307,4.007-.417.678-1.36,2.16-1.686,2.6a1.154,1.154,0,0,0-.3,1.162c.168.47.872.579,1.06.2.121-.245.338-.643.668-1.253.232-.428.486-.9.8-1.462a25.718,25.718,0,0,1,1.262,3.429,16.765,16.765,0,0,0,.316,2.214.613.613,0,0,0,.689.337c.811-.257.523-2.642.321-3.821a47.709,47.709,0,0,1-.152-6.009,25.244,25.244,0,0,1,2.747-3.162,22.051,22.051,0,0,1,2.084-1.77,8.538,8.538,0,0,1,1.767-1.026,1.976,1.976,0,0,1,2.642,1.077c.455,1.044-.2,5-.386,6.144-.162,1-1.332,6.2,2.019,6.4,3.181.184,4.612-3.972,4.8-4.512C163.092,52.932,162.755,52.671,162.606,53.017Zm-16.477,2.71c-.177-.319-.558-1.231-.988-2.23.353-.616,1.095-1.842,1.167-1.922.056-.062.122-.041.121.054-.006.8,0,3.845,0,4.081S146.3,56.032,146.129,55.727Zm.584-7.958a21.709,21.709,0,0,1-.972,2.757c-.181.308-.7,1.107-1.1,1.729-.795-2.091-1.2-2.912-.717-3.681a8.231,8.231,0,0,1,2.608-1.818.769.769,0,0,1,.2-.06c.063-.009.082.044.076.126A8.428,8.428,0,0,1,146.713,47.769Z"/></svg>