<svg id="レイヤー_1" data-name="レイヤー 1" xmlns="http://www.w3.org/2000/svg" width="250" height="100" viewBox="0 0 250 100"><path d="M95.48,39.965h2.57v9.466l10.9-9.336h3.773l-8.88,7.612,8.848,12.166h-3.351l-7.351-10.637L98.05,52.619v7.416H95.48Z"/><path d="M127.781,50.8a4.563,4.563,0,0,1,2.212,1.4,3.4,3.4,0,0,1,.748,2.179,3.354,3.354,0,0,1-.488,1.692,2.957,2.957,0,0,1-1.366,1.236,6.772,6.772,0,0,1-2.57.39H121.34V50.439h4.587A5.432,5.432,0,0,1,127.781,50.8Zm-.065-8.458a2.829,2.829,0,0,1,1.594.976,2.689,2.689,0,0,1,.618,1.757,2.42,2.42,0,0,1-1.008,2.082,7.039,7.039,0,0,1-4.327,1.2H121.34V42.079h4.685A7.707,7.707,0,0,1,127.716,42.339Zm2.8,16.915a4.953,4.953,0,0,0,2.309-1.984,5.509,5.509,0,0,0,.813-2.862,5.683,5.683,0,0,0-.455-2.277,3.843,3.843,0,0,0-1.334-1.627,13.161,13.161,0,0,0-2.927-1.268,6.24,6.24,0,0,0,1.984-.944,4.963,4.963,0,0,0,1.4-1.724,4.366,4.366,0,0,0,.358-1.952,4.246,4.246,0,0,0-.781-2.244,4.719,4.719,0,0,0-2.212-1.822,8.645,8.645,0,0,0-3.383-.585h-7.514V59.938h7.384A10.978,10.978,0,0,0,130.514,59.254Z"/><path d="M139.752,39.965H154.52v2.374h-12.2v6.279h9.335V50.9h-9.335V59.97h-2.6v-20Z"/></svg>