<svg id="レイヤー_1" data-name="レイヤー 1" xmlns="http://www.w3.org/2000/svg" width="250" height="100" viewBox="0 0 250 100"><rect width="250" height="100" fill="none"/><path d="M119.56,55.07H120v5.14h-.48Z" fill="#0b1430"/><path d="M125.1,56.5v3.71h-.47v-.64a2.14,2.14,0,0,1-.67.55,1.89,1.89,0,0,1-.82.18,1.79,1.79,0,0,1-1.34-.57,2,2,0,0,1,0-2.75,1.83,1.83,0,0,1,1.35-.57,1.75,1.75,0,0,1,.83.19,1.87,1.87,0,0,1,.65.58V56.5Zm-1.91.37a1.43,1.43,0,0,0-1.27.74,1.51,1.51,0,0,0,0,1.5,1.61,1.61,0,0,0,.54.56,1.46,1.46,0,0,0,.73.2,1.49,1.49,0,0,0,.74-.2,1.4,1.4,0,0,0,.54-.54,1.45,1.45,0,0,0,.19-.76,1.49,1.49,0,0,0-.42-1.07A1.41,1.41,0,0,0,123.19,56.87Z" fill="#0b1430"/><path d="M126.58,60.21V55.07h.48v2.07a1.92,1.92,0,0,1,.67-.55,1.85,1.85,0,0,1,.81-.18,1.79,1.79,0,0,1,1.34.57,1.87,1.87,0,0,1,.56,1.38,1.91,1.91,0,0,1-.56,1.38,1.86,1.86,0,0,1-1.35.56,1.71,1.71,0,0,1-.82-.19,1.87,1.87,0,0,1-.65-.58v.68Zm1.91-.37a1.43,1.43,0,0,0,1.27-.74,1.56,1.56,0,0,0,.2-.75,1.55,1.55,0,0,0-.74-1.31,1.45,1.45,0,0,0-.72-.2,1.53,1.53,0,0,0-.75.2,1.4,1.4,0,0,0-.54.54,1.56,1.56,0,0,0-.19.76,1.46,1.46,0,0,0,.43,1.07A1.39,1.39,0,0,0,128.49,59.84Z" fill="#0b1430"/><path d="M73.88,37.9h.81v4.88q0,.87,0,1.08a1.73,1.73,0,0,0,.28.8,1.65,1.65,0,0,0,.68.54,2.17,2.17,0,0,0,.91.22,1.84,1.84,0,0,0,.77-.17,1.73,1.73,0,0,0,.62-.48,1.85,1.85,0,0,0,.36-.73,5.67,5.67,0,0,0,.08-1.26V37.9h.81v4.88A6,6,0,0,1,79,44.53a2.36,2.36,0,0,1-.85,1.16,2.4,2.4,0,0,1-1.53.5A3,3,0,0,1,75,45.72,2.26,2.26,0,0,1,74,44.48a6.43,6.43,0,0,1-.15-1.7Z" fill="#0b1430"/><path d="M81.87,37.9h1.61a10.13,10.13,0,0,1,1.83.11,2,2,0,0,1,1.17.71,2,2,0,0,1,.45,1.33,2.12,2.12,0,0,1-.31,1.16,1.9,1.9,0,0,1-.89.76,4,4,0,0,1-1.59.26L87.05,46h-1l-2.91-3.75h-.46V46h-.81Zm.81.79v2.75h1.4a3.54,3.54,0,0,0,1.19-.15,1.31,1.31,0,0,0,.61-.5,1.37,1.37,0,0,0,0-1.49,1.29,1.29,0,0,0-.58-.48,3.7,3.7,0,0,0-1.19-.14Z" fill="#0b1430"/><path d="M89.29,37.9h1.6a3.58,3.58,0,0,1,1.47.23,1.75,1.75,0,0,1,.82.7,1.89,1.89,0,0,1,.3,1.05,1.94,1.94,0,0,1-.26,1,2.06,2.06,0,0,1-.77.72,3,3,0,0,1,1,.5,1.92,1.92,0,0,1,.52.7,2,2,0,0,1,.19.88,2.17,2.17,0,0,1-.71,1.65,2.65,2.65,0,0,1-1.91.67H89.29Zm.79.79v2.59h.47a3.5,3.5,0,0,0,1.24-.16,1.31,1.31,0,0,0,.62-.49,1.28,1.28,0,0,0,.23-.75,1,1,0,0,0-.38-.87A2,2,0,0,0,91,38.69Zm0,3.4v3.1h1a3.76,3.76,0,0,0,1.3-.17,1.58,1.58,0,0,0,.66-.54,1.38,1.38,0,0,0,.25-.8,1.4,1.4,0,0,0-.35-.94,1.83,1.83,0,0,0-1-.55,6.84,6.84,0,0,0-1.44-.1Z" fill="#0b1430"/><path d="M99.64,37.9,103.41,46h-.87l-1.27-2.66H97.79L96.53,46h-.9l3.82-8.08Zm-.1,1.72-1.38,2.92h2.76Z" fill="#0b1430"/><path d="M105.28,46V37.9h.18l5.38,6.2V37.9h.79V46h-.18l-5.33-6.12V46Z" fill="#0b1430"/><path d="M117.68,37.9h1.61a10.08,10.08,0,0,1,1.82.11,2,2,0,0,1,1.17.71,2,2,0,0,1,.45,1.33,2.12,2.12,0,0,1-.31,1.16,1.9,1.9,0,0,1-.89.76,4,4,0,0,1-1.59.26L122.85,46h-1l-2.91-3.75h-.46V46h-.8Zm.8.79v2.75h1.4a3.5,3.5,0,0,0,1.19-.15,1.31,1.31,0,0,0,.61-.5,1.37,1.37,0,0,0,0-1.49,1.29,1.29,0,0,0-.58-.48,3.7,3.7,0,0,0-1.19-.14Z" fill="#0b1430"/><path d="M125.08,37.9h4.63v.79h-3.83v2.53h3.8V42h-3.8v3.18h3.8V46h-4.6Z" fill="#0b1430"/><path d="M131.49,44.48l.68-.42c.49.9,1.05,1.34,1.68,1.34a1.53,1.53,0,0,0,.76-.19,1.43,1.43,0,0,0,.55-.51,1.36,1.36,0,0,0,.19-.67,1.41,1.41,0,0,0-.28-.8,6.56,6.56,0,0,0-1.38-1.3,6.67,6.67,0,0,1-1.26-1.1,2,2,0,0,1-.43-1.24,1.86,1.86,0,0,1,.25-1A1.79,1.79,0,0,1,133,38a2,2,0,0,1,1-.25A2.11,2.11,0,0,1,135,38a3.63,3.63,0,0,1,1.05,1l-.66.5a3.11,3.11,0,0,0-.78-.8,1.29,1.29,0,0,0-.7-.19,1.12,1.12,0,0,0-.8.3,1,1,0,0,0-.31.73,1.34,1.34,0,0,0,.11.51,2.32,2.32,0,0,0,.4.54q.16.15,1,.81a5.63,5.63,0,0,1,1.44,1.38,2.19,2.19,0,0,1,.39,1.21,2,2,0,0,1-.67,1.53,2.23,2.23,0,0,1-1.62.65,2.42,2.42,0,0,1-1.34-.4A3.52,3.52,0,0,1,131.49,44.48Z" fill="#0b1430"/><path d="M138.54,37.9h4.64v.79h-3.83v2.53h3.79V42h-3.79v3.18h3.79V46h-4.6Z" fill="#0b1430"/><path d="M148.48,37.9,152.25,46h-.87l-1.27-2.66h-3.48L145.37,46h-.9l3.81-8.08Zm-.1,1.72L147,42.54h2.76Z" fill="#0b1430"/><path d="M154.16,37.9h1.61a10,10,0,0,1,1.82.11,2,2,0,0,1,1.17.71,2,2,0,0,1,.45,1.33,2.12,2.12,0,0,1-.31,1.16A1.88,1.88,0,0,1,158,42a4.07,4.07,0,0,1-1.6.26L159.33,46h-1l-2.91-3.75H155V46h-.81Zm.81.79v2.75h1.39a3.57,3.57,0,0,0,1.2-.15,1.28,1.28,0,0,0,.6-.5,1.3,1.3,0,0,0,.22-.75,1.37,1.37,0,0,0-.22-.74,1.29,1.29,0,0,0-.58-.48,3.66,3.66,0,0,0-1.19-.14Z" fill="#0b1430"/><path d="M168.16,39.4l-.58.49a3.29,3.29,0,0,0-1.17-1,3.19,3.19,0,0,0-1.5-.36,3.1,3.1,0,0,0-1.65.47,3.19,3.19,0,0,0-1.18,1.24,3.7,3.7,0,0,0-.42,1.77,3.42,3.42,0,0,0,.94,2.46,3.1,3.1,0,0,0,2.36,1,3.23,3.23,0,0,0,2.62-1.33l.58.49a3.8,3.8,0,0,1-1.39,1.19,4,4,0,0,1-1.86.42,3.74,3.74,0,0,1-3.09-1.42,4.47,4.47,0,0,1-.94-2.88,4.17,4.17,0,0,1,1.14-3,3.81,3.81,0,0,1,2.88-1.21,4,4,0,0,1,1.89.44A3.68,3.68,0,0,1,168.16,39.4Z" fill="#0b1430"/><path d="M170.39,37.9h.81v3.39h4.11V37.9h.81V46h-.81v-3.9H171.2V46h-.81Z" fill="#0b1430"/><rect x="119.56" y="51.24" width="10.88" height="0.78" fill="#0b1430"/></svg>