<svg id="レイヤー_1" data-name="レイヤー 1" xmlns="http://www.w3.org/2000/svg" width="250" height="100" viewBox="0 0 250 100"><title>pc_laato</title><path d="M88.88,55.487l-.3.857H82.5V44.191l.911-.3v11.6Z"/><path d="M106.308,51.42h-5.064L99.12,56.345h-.956l5.612-12.918,5.63,12.918h-.974Zm-.354-.838L103.776,45.5,101.6,50.582Z"/><path d="M126.8,51.42h-5.064l-2.124,4.925h-.956l5.612-12.918,5.63,12.918h-.974Zm-.354-.838L124.269,45.5l-2.178,5.086Z"/><path d="M142.359,44.727V56.345h-.913V44.727h-3.953l.3-.843,8.512,0,.3.841Z"/><path d="M154.51,50.132a6.5,6.5,0,1,1,6.5,6.441A6.4,6.4,0,0,1,154.51,50.132Zm12.044,0a5.549,5.549,0,1,0-5.549,5.585A5.517,5.517,0,0,0,166.554,50.132Z"/></svg>