<svg xmlns="http://www.w3.org/2000/svg" width="250" height="100" viewBox="0 0 250 100"><g id="レイヤー_2" data-name="レイヤー 2"><g id="レイヤー_1-2" data-name="レイヤー 1"><rect width="250" height="100" fill="none"/><polygon points="161 61.77 159.99 61.77 159.99 45.77 125 30.48 90.01 45.77 90.01 61.77 89 61.77 89 45.11 125 29.39 161 45.11 161 61.77"/><path d="M123.19,38.79v6.7a2.46,2.46,0,0,1-2.52,2.57c-1,0-2.52-.56-2.52-3.07v-6.2h.95v6.7a1.56,1.56,0,0,0,1.57,1.77c1.16,0,1.57-.86,1.57-1.88V38.79Z"/><path d="M126.87,38.79h2.36a2.41,2.41,0,0,1,2.47,2.58,2.71,2.71,0,0,1-1.61,2.51l2.45,4h-1.15l-2.21-3.79c-.46,0-.91,0-1.36,0v3.76h-.95Zm1.84,4.52a1.82,1.82,0,0,0,2-2c0-1.22-.51-1.73-2-1.73h-.93v3.72Z"/><path d="M103,51.66h.93v9.08H103V53.83h0l-1.87,4.45-1.85-4.45,0,0v6.89h-.94V51.66h.92l1.9,4.53Z"/><path d="M117.4,51.66h2.36a2.4,2.4,0,0,1,2.47,2.57,2.71,2.71,0,0,1-1.62,2.51l2.45,4h-1.15L119.71,57l-1.37,0v3.76h-.94Zm1.84,4.51a1.8,1.8,0,0,0,2-2c0-1.21-.5-1.73-2-1.73h-.94v3.72Z"/><path d="M127.78,55.66c.66-.08,2.21-1.66,3.09-4.12l.94.49-.75,1.25c-1.2,2-1.81,2.52-2.39,2.88l3.92,4.58h-1.26l-3.47-4.28h-.08v4.28h-.94V51.66h.94Z"/><path d="M141.15,52.45h-3.78v3.23h2.72v.8h-2.72V60h3.87v.79h-4.81V51.66h4.72Z"/><path d="M151.72,52.45h-2.58v8.29h-.95V52.45h-2.54v-.79h6.07Z"/><path d="M107.38,60.74h1l.81-2.67H112l.81,2.67h1l-3-9.17h-.44Zm2.05-3.47,1.15-3.67,1.16,3.67Z"/><path d="M90.37,66.09v1.83a.67.67,0,0,1-.68.7c-.27,0-.69-.16-.69-.84V66.09h.26v1.83a.43.43,0,0,0,.43.48c.31,0,.42-.24.42-.51v-1.8Z"/><path d="M91.86,66.09h.64a.66.66,0,0,1,.68.7.75.75,0,0,1-.44.69l.66,1.09h-.31l-.6-1h-.37v1h-.26Zm.5,1.23a.5.5,0,0,0,.56-.54c0-.33-.14-.47-.55-.47h-.25v1Z"/><path d="M94.53,68.57V66.09h.52c.29,0,.78,0,.78.63a.58.58,0,0,1-.33.53.65.65,0,0,1,.44.64.67.67,0,0,1-.7.68Zm.26-1.4h.3a.47.47,0,0,0,.48-.46c0-.41-.34-.4-.5-.4h-.28Zm.44,1.18a.42.42,0,0,0,.45-.44.5.5,0,0,0-.56-.52h-.33v1Z"/><path d="M100.07,66.09h.29l.76,1.85h0V66.09h.26v2.5h-.25l-.81-2h0v2h-.25Z"/><path d="M105.11,66.09h.64a.66.66,0,0,1,.68.7.75.75,0,0,1-.44.69l.66,1.09h-.31l-.6-1h-.37v1h-.26Zm.5,1.23a.5.5,0,0,0,.56-.54c0-.33-.14-.47-.55-.47h-.25v1Z"/><path d="M109.18,66.31h-1v.88h.74v.21h-.74v.95h1v.22h-1.31V66.09h1.29Z"/><path d="M111.74,66.54a.82.82,0,0,0-.54-.28.38.38,0,0,0-.4.38c0,.13,0,.24.36.45l.2.12c.45.28.57.41.57.7a.67.67,0,0,1-.72.71.92.92,0,0,1-.75-.41l.19-.16a.68.68,0,0,0,.56.35.46.46,0,0,0,.47-.46c0-.2,0-.27-.45-.53l-.23-.13c-.24-.15-.46-.32-.46-.63a.62.62,0,0,1,.67-.61,1,1,0,0,1,.68.31Z"/><path d="M114.68,66.31h-1v.88h.74v.21h-.74v.95h1v.22H113.4V66.09h1.28Z"/><path d="M118.88,66.09h.64a.65.65,0,0,1,.67.7.73.73,0,0,1-.44.69l.67,1.09h-.31l-.6-1h-.37v1h-.26Zm.5,1.23a.5.5,0,0,0,.56-.54c0-.33-.14-.47-.55-.47h-.25v1Z"/><path d="M122.66,66.63a.35.35,0,0,0-.36-.37c-.53,0-.56.71-.56,1.09s0,1.05.53,1.05a.41.41,0,0,0,.42-.44H123a.65.65,0,0,1-.69.66c-.68,0-.78-.75-.78-1.28s.12-1.3.81-1.3a.61.61,0,0,1,.63.59Z"/><path d="M124.54,67.17h.86V66.09h.25v2.48h-.25V67.39h-.86v1.18h-.26V66.09h.26Z"/><path d="M130,66c.72,0,.76.83.76,1.29s0,1.29-.76,1.29-.76-.94-.76-1.29C129.2,66.29,129.54,66,130,66Zm.5,1.29c0-.23,0-1.07-.5-1.07s-.51.92-.51,1.07,0,1.07.51,1.07C130.21,68.4,130.46,68.23,130.46,67.33Z"/><path d="M132.07,66.09h.3l.75,1.85h0V66.09h.25v2.5h-.24l-.81-2h0v2h-.26Z"/><path d="M135.22,68.35h1.07v.22H135V66.09h.26Z"/><path d="M138.68,66.31h-.34v2h.34v.22h-.93v-.22h.33v-2h-.33v-.22h.93Z"/><path d="M140.33,66.09h.3l.76,1.85h0V66.09h.25v2.5h-.24l-.81-2h0v2h-.26Z"/><path d="M144.46,66.31h-1v.88h.74v.21h-.74v.95h1v.22h-1.31V66.09h1.29Z"/><path d="M149.77,66.54a.82.82,0,0,0-.54-.28.38.38,0,0,0-.4.38c0,.13,0,.24.36.45l.2.12c.45.28.58.41.58.7a.68.68,0,0,1-.73.71.92.92,0,0,1-.75-.41l.2-.16a.65.65,0,0,0,.55.35.46.46,0,0,0,.47-.46c0-.2,0-.27-.45-.53l-.23-.13a.75.75,0,0,1-.45-.63.61.61,0,0,1,.66-.61,1,1,0,0,1,.68.31Z"/><path d="M152.81,66.31h-.7v2.26h-.26V66.31h-.69v-.22h1.65Z"/><path d="M154.74,66c.72,0,.76.83.76,1.29s0,1.29-.76,1.29-.76-.94-.76-1.29C154,66.29,154.32,66,154.74,66Zm.5,1.29c0-.23,0-1.07-.5-1.07s-.51.92-.51,1.07,0,1.07.51,1.07C155,68.4,155.24,68.23,155.24,67.33Z"/><path d="M156.91,66.09h.64a.66.66,0,0,1,.68.7.75.75,0,0,1-.44.69l.66,1.09h-.31l-.6-1h-.37v1h-.26Zm.5,1.23a.5.5,0,0,0,.56-.54c0-.33-.14-.47-.55-.47h-.25v1Z"/><path d="M161,66.31h-1v.88h.74v.21H160v.95H161v.22h-1.31V66.09H161Z"/><path d="M97.08,68.57h.28l.22-.73h.75l.22.73h.28L98,66.07h-.12Zm.56-.95.31-1,.32,1Z"/><path d="M115.83,68.57h.28l.22-.73h.76l.22.73h.28l-.82-2.5h-.12Zm.57-.95.31-1,.32,1Z"/></g></g></svg>