<svg id="レイヤー_1" data-name="レイヤー 1" xmlns="http://www.w3.org/2000/svg" width="250" height="100" viewBox="0 0 250 100"><title>pc_rosso</title><path d="M89,37.167h4.822a7.01,7.01,0,0,1,3.2.635,3.1,3.1,0,0,1,1.765,2.974,3.412,3.412,0,0,1-.8,2.329,5.471,5.471,0,0,1-2.562,1.46,3.03,3.03,0,0,1,.944.511,3.868,3.868,0,0,1,1.036,1.661l1.842,5.016-1.631-.009-.972-3.05a7.3,7.3,0,0,0-1.6-3,3.571,3.571,0,0,0-2.4-.674H90.478v6.724H89Zm5.091,1.284H90.478v5.427h2.233a8.582,8.582,0,0,0,2.251-.254,3.281,3.281,0,0,0,1.489-.817,2.671,2.671,0,0,0,.653-.862,2.377,2.377,0,0,0,.255-1.062,2.081,2.081,0,0,0-.835-1.687A3.719,3.719,0,0,0,94.091,38.451Z" fill="#231815"/><path d="M109.446,52a6,6,0,0,1-4.436-1.963,7.624,7.624,0,0,1-2.091-5.527,7.913,7.913,0,0,1,1.963-5.471A5.927,5.927,0,0,1,113.918,39a7.853,7.853,0,0,1,1.963,5.489,7.624,7.624,0,0,1-2.127,5.581A5.885,5.885,0,0,1,109.446,52Zm-.128-1.357a4.442,4.442,0,0,0,3.528-1.755,6.639,6.639,0,0,0,1.46-4.393A6.9,6.9,0,0,0,112.9,40.1a4.3,4.3,0,0,0-6.992.009,6.928,6.928,0,0,0-1.415,4.419A6.661,6.661,0,0,0,105.981,49,4.249,4.249,0,0,0,109.318,50.638Z" fill="#231815"/><path d="M128.538,38.2v1.872a8.416,8.416,0,0,0-1.958-1.254,5.406,5.406,0,0,0-2.246-.509,3.887,3.887,0,0,0-2.411.727,2.155,2.155,0,0,0-.96,1.764q0,1.472,2.192,2.236,2.029.672,4.077,1.326a3.389,3.389,0,0,1,2.211,3.182,3.974,3.974,0,0,1-1.572,3.29A5.845,5.845,0,0,1,124.148,52a7.388,7.388,0,0,1-2.838-.565,11.439,11.439,0,0,1-1.9-1.055V48.482a8.711,8.711,0,0,0,2.89,1.809,5.564,5.564,0,0,0,1.861.347,4.163,4.163,0,0,0,2.511-.746,2.537,2.537,0,0,0,1.12-2.146q0-1.619-2.159-2.437Q123.6,44.655,121.59,44a3.264,3.264,0,0,1-2.177-3.092,3.524,3.524,0,0,1,1.387-2.855,5.415,5.415,0,0,1,3.529-1.128,7.362,7.362,0,0,1,2.594.473A10.191,10.191,0,0,1,128.538,38.2Z" fill="#231815"/><path d="M142.838,38.2v1.872a8.411,8.411,0,0,0-1.957-1.254,5.41,5.41,0,0,0-2.247-.509,3.882,3.882,0,0,0-2.41.727,2.155,2.155,0,0,0-.96,1.764q0,1.472,2.192,2.236,2.03.672,4.077,1.326a3.39,3.39,0,0,1,2.21,3.182,3.974,3.974,0,0,1-1.572,3.29A5.843,5.843,0,0,1,138.448,52a7.38,7.38,0,0,1-2.837-.565,11.484,11.484,0,0,1-1.9-1.055V48.482a8.714,8.714,0,0,0,2.891,1.809,5.559,5.559,0,0,0,1.86.347,4.164,4.164,0,0,0,2.512-.746,2.539,2.539,0,0,0,1.12-2.146q0-1.619-2.159-2.437Q137.9,44.655,135.891,44a3.265,3.265,0,0,1-2.178-3.092,3.525,3.525,0,0,1,1.388-2.855,5.413,5.413,0,0,1,3.529-1.128,7.366,7.366,0,0,1,2.594.473A10.187,10.187,0,0,1,142.838,38.2Z" fill="#231815"/><path d="M154.564,52a6,6,0,0,1-4.435-1.963,7.624,7.624,0,0,1-2.091-5.527A7.913,7.913,0,0,1,150,39.034,5.927,5.927,0,0,1,159.037,39,7.858,7.858,0,0,1,161,44.487a7.624,7.624,0,0,1-2.127,5.581A5.887,5.887,0,0,1,154.564,52Zm-.127-1.357a4.443,4.443,0,0,0,3.528-1.755,6.639,6.639,0,0,0,1.46-4.393,6.89,6.89,0,0,0-1.406-4.392,4.3,4.3,0,0,0-6.991.009,6.928,6.928,0,0,0-1.415,4.419A6.656,6.656,0,0,0,151.1,49,4.249,4.249,0,0,0,154.437,50.638Z" fill="#231815"/><path d="M89,57.848h.512v3.331A1.287,1.287,0,0,0,90,62.249a1.737,1.737,0,0,0,1.107.346,1.6,1.6,0,0,0,1.036-.34,1.306,1.306,0,0,0,.487-1.076V57.848h.546v3.266a1.824,1.824,0,0,1-.64,1.455,2.081,2.081,0,0,1-1.409.5,2.258,2.258,0,0,1-1.518-.491A1.814,1.814,0,0,1,89,61.134Z" fill="#231815"/><path d="M94.755,57.848h1.7a2.466,2.466,0,0,1,1.127.224,1.1,1.1,0,0,1,.621,1.051,1.21,1.21,0,0,1-.282.824,1.925,1.925,0,0,1-.9.516,1.065,1.065,0,0,1,.333.179,1.357,1.357,0,0,1,.365.583l.656,1.769-.576,0-.34-1.076a2.581,2.581,0,0,0-.565-1.057,1.27,1.27,0,0,0-.848-.236h-.765v2.371h-.519Zm1.793.458H95.274v1.913h.788a3.017,3.017,0,0,0,.793-.09,1.169,1.169,0,0,0,.525-.287.961.961,0,0,0,.231-.3.846.846,0,0,0,.089-.374.733.733,0,0,0-.294-.595A1.314,1.314,0,0,0,96.548,58.306Z" fill="#231815"/><path d="M99.9,57.848h1.768a1.806,1.806,0,0,1,1.044.269,1.055,1.055,0,0,1,.455.925,1.16,1.16,0,0,1-.321.84,1.717,1.717,0,0,1-.531.354,1.433,1.433,0,0,1,.981.532,1.187,1.187,0,0,1,.226.715,1.378,1.378,0,0,1-.487,1.082,1.688,1.688,0,0,1-1.154.429H99.9Zm1.728.458h-1.209v1.763h.979a1.364,1.364,0,0,0,.9-.266.855.855,0,0,0,.316-.683.751.751,0,0,0-.224-.565A1.049,1.049,0,0,0,101.631,58.306Zm-.085,2.221h-1.124v2.008h1.252a1.439,1.439,0,0,0,.924-.283.914.914,0,0,0,.36-.755.818.818,0,0,0-.366-.722A1.853,1.853,0,0,0,101.546,60.527Z" fill="#231815"/><path d="M106.378,57.848h.506l1.915,5.146h-.6l-.611-1.757h-1.953l-.657,1.754-.564,0Zm1.058,2.931-.8-2.314-.855,2.314Z" fill="#231815"/><path d="M110.354,62.994V57.848h.471l3.165,4.36v-4.36h.471v5.146h-.474l-3.162-4.357v4.356Z" fill="#231815"/><path d="M121.387,57.848h1.7a2.472,2.472,0,0,1,1.127.224,1.094,1.094,0,0,1,.62,1.051,1.215,1.215,0,0,1-.281.824,1.929,1.929,0,0,1-.9.516,1.072,1.072,0,0,1,.334.179,1.356,1.356,0,0,1,.364.583L125,62.994l-.577,0-.34-1.076a2.569,2.569,0,0,0-.565-1.057,1.269,1.269,0,0,0-.848-.236h-.764v2.371h-.52Zm1.793.458h-1.273v1.913h.787a3.03,3.03,0,0,0,.794-.09,1.165,1.165,0,0,0,.524-.287.947.947,0,0,0,.231-.3.834.834,0,0,0,.09-.374.734.734,0,0,0-.3-.595A1.312,1.312,0,0,0,123.18,58.306Z" fill="#231815"/><path d="M126.413,57.841h3.2V58.3h-2.677v1.77h2.581v.458h-2.581v2.008h2.7v.459h-3.215Z" fill="#231815"/><path d="M134.186,58.213v.659a2.962,2.962,0,0,0-.69-.442,1.92,1.92,0,0,0-.793-.178,1.375,1.375,0,0,0-.851.255.759.759,0,0,0-.339.621q0,.519.774.788.715.237,1.438.469a1.194,1.194,0,0,1,.781,1.121,1.4,1.4,0,0,1-.555,1.159,2.066,2.066,0,0,1-1.314.41,2.62,2.62,0,0,1-1-.2,4.015,4.015,0,0,1-.67-.372v-.667a3.078,3.078,0,0,0,1.02.637,1.954,1.954,0,0,0,.657.122,1.478,1.478,0,0,0,.887-.263.9.9,0,0,0,.4-.757q0-.569-.762-.857l-1.428-.461a1.151,1.151,0,0,1-.769-1.09,1.243,1.243,0,0,1,.489-1.006,1.918,1.918,0,0,1,1.246-.4,2.615,2.615,0,0,1,.916.166A3.571,3.571,0,0,1,134.186,58.213Z" fill="#231815"/><path d="M136.138,57.841h3.2V58.3h-2.677v1.77h2.581v.458h-2.581v2.008h2.7v.459h-3.216Z" fill="#231815"/><path d="M142.351,57.848h.506l1.915,5.146h-.6l-.61-1.757H141.6l-.656,1.754-.564,0Zm1.058,2.931-.8-2.314-.856,2.314Z" fill="#231815"/><path d="M146.239,57.848h1.7a2.469,2.469,0,0,1,1.127.224,1.094,1.094,0,0,1,.62,1.051,1.21,1.21,0,0,1-.281.824,1.925,1.925,0,0,1-.9.516,1.077,1.077,0,0,1,.333.179,1.348,1.348,0,0,1,.365.583l.656,1.769-.576,0-.34-1.076a2.58,2.58,0,0,0-.566-1.057,1.269,1.269,0,0,0-.847-.236h-.765v2.371h-.519Zm1.792.458h-1.273v1.913h.787a3.03,3.03,0,0,0,.794-.09,1.169,1.169,0,0,0,.525-.287.959.959,0,0,0,.23-.3.834.834,0,0,0,.09-.374.734.734,0,0,0-.295-.595A1.31,1.31,0,0,0,148.031,58.306Z" fill="#231815"/><path d="M155.1,58.257v.66a2.547,2.547,0,0,0-.557-.4,2.061,2.061,0,0,0-.993-.262,1.665,1.665,0,0,0-1.319.646,2.282,2.282,0,0,0-.545,1.518,2.237,2.237,0,0,0,.551,1.519,1.7,1.7,0,0,0,1.326.634,2.129,2.129,0,0,0,.752-.146,3.1,3.1,0,0,0,.785-.455v.64a4.184,4.184,0,0,1-.837.352,2.729,2.729,0,0,1-.759.115,2.21,2.21,0,0,1-1.621-.71,2.643,2.643,0,0,1-.75-1.922,2.744,2.744,0,0,1,.7-1.9,2.253,2.253,0,0,1,1.75-.778,2.486,2.486,0,0,1,.782.125A2.962,2.962,0,0,1,155.1,58.257Z" fill="#231815"/><path d="M156.44,57.848h.512V60.09h2.822V57.848h.513v5.146h-.513V60.527h-2.822v2.467h-.512Z" fill="#231815"/></svg>