<svg id="レイヤー_1" data-name="レイヤー 1" xmlns="http://www.w3.org/2000/svg" width="250" height="100" viewBox="0 0 250 100"><title>pc_sko</title><path d="M75.814,42.069a4.088,4.088,0,0,1,1.078.135l.674-.01a.9.9,0,0,1,.3-.011,1.558,1.558,0,0,1,.238.042c.07.03.119.1.2.124s.2-.016.29.011c.068.019.117.082.187.1l.207.021c.095.04.1.165.176.218s.258.015.342.072c.06.041.072.134.145.166l.239.041c.1.063.115.223.207.291s.224.053.311.114.068.206.145.259.129.013.218.041.112.139.186.187c.058.037.153.023.207.062s.054.1.083.145l.166.176a4.983,4.983,0,0,1,.508.405c.083.081.118.238.238.279a1.174,1.174,0,0,0,.322.011,3.829,3.829,0,0,0,.746-.011c.1-.03.173-.106.28-.134.133-.036.3,0,.4-.052.064-.033.1-.113.176-.135s.177.012.249-.01.125-.084.2-.1c.149-.042.328.026.456-.031a.9.9,0,0,0,.145-.114,1.037,1.037,0,0,1,.757-.321,2.455,2.455,0,0,1,.165.207,1.567,1.567,0,0,1,.063.2,1.411,1.411,0,0,0,.114.2c.044.07.144.094.176.176l.031.2c.048.159.1.318.145.477a4.193,4.193,0,0,1,.124.445.3.3,0,0,1-.01.145c-.061.163-.37.1-.549.156-.1.029-.12.117-.2.155l-.208.031a1.174,1.174,0,0,0-.165.177,1.8,1.8,0,0,0-.767.2c-.171.072-.352.128-.529.186s-.464.032-.56.187.038.409.083.57l.042.269c.035.107.146.129.176.228v.145c.014.163.028.325.041.488.084.366.082.763.166,1.14l.021.518c.023.1.059.206.083.3.033.132-.07.212-.093.31v.622c-.028.1-.106.138-.156.208s-.035.155-.072.238c-.028.06-.107.092-.135.155-.066.152.025.39-.021.571-.04.16-.17.236-.176.424.02.024.025.044.052.063a3.561,3.561,0,0,0,.57.124,3,3,0,0,1,.8.373,1.751,1.751,0,0,1,.58.663.562.562,0,0,1,.094.342.942.942,0,0,1-.218.342.52.52,0,0,0-.166.146c-.041.124-.083.248-.124.373a2.764,2.764,0,0,1-.488.87,1.038,1.038,0,0,1-.331.011.778.778,0,0,1-.228-.155c-.1-.07-.2-.136-.3-.2-.343-.214-.709-.379-1.078-.57-.152-.079-.323-.161-.487-.228-.062-.025-.172-.057-.228-.021-.1.034-.2.25-.3.322-.193.137-.453.193-.643.332-.154.112-.233.377-.373.476-.068.048-.19.035-.259.083s-.075.135-.145.166-.19,0-.259.031-.087.126-.145.166-.19.013-.28.041-.124.1-.2.135c-.1.042-.262,0-.363.041s-.125.167-.228.2h-.176a1.759,1.759,0,0,0-.5.031c-.385.125-.758.276-1.171.373a1.565,1.565,0,0,1-.539-.021H76.4a.327.327,0,0,0-.114-.011,3.43,3.43,0,0,1-.778.073h-.3c-.088-.024-.148-.09-.249-.114H74.26c-.083-.023-.141-.081-.239-.1h-.466c-.086-.025-.122-.113-.2-.146-.111-.049-.255.005-.394-.031-.09-.023-.145-.105-.228-.124-.052-.012-.117.021-.186.021-.068-.1-.15-.115-.27-.166A4.391,4.391,0,0,0,71.8,57c-.15-.041-.4.036-.518-.041l-.2-.228c-.07-.048-.17-.055-.218-.124-.081-.121-.06-.274-.248-.29a1.225,1.225,0,0,1-.394.155l-.332.032c-.083.031-.11.129-.2.155h-.155l-.539.062c-.182.047-.366.076-.539.134-.117.04-.236.1-.363.135s-.3-.027-.425.01L67.5,57.1c-.1.027-.214-.016-.3.01-.072.023-.124.084-.2.1-.132.037-.294-.025-.415.01a6.237,6.237,0,0,0-.622.26,9.788,9.788,0,0,1-1.244.331c-.11.028-.206.015-.321.041a7.24,7.24,0,0,1-1.524.073H60.755c-.072-.02-.124-.081-.2-.1s-.175.014-.259-.01l-.177-.093c-.119-.036-.284.027-.414-.01-.1-.028-.138-.127-.239-.156-.139-.041-.327.012-.445-.041-.085-.039-.112-.154-.207-.187s-.2.006-.27-.031c-.1-.053-.158-.171-.269-.218s-.253-.009-.353-.052-.107-.162-.186-.217-.222-.04-.3-.094a.738.738,0,0,1-.155-.165l-.114-.1a1.344,1.344,0,0,0-.56-.466c-.17-.061-.342.135-.466.186a3.056,3.056,0,0,0-.633.218c-.1.07-.126.2-.2.3a1.457,1.457,0,0,1-.425.291c-.117.071-.512.191-.57.279l-.051.187a1.016,1.016,0,0,1-.5.031c-.13-.2-.318-.332-.456-.518a5.832,5.832,0,0,0-.549-.705.5.5,0,0,0-.156-.1c-.132-.051-.281,0-.321-.146a.861.861,0,0,1,.041-.425.7.7,0,0,1,.146-.093,2.082,2.082,0,0,0,.321-.3,2.6,2.6,0,0,1,.943-.912c.121-.052.327-.052.425-.134.052-.044.045-.147.1-.187.147-.1.34-.038.342-.29a3.6,3.6,0,0,1-.342-1.1l-.032-.279a.627.627,0,0,0-.051-.187c-.036-.053-.112-.077-.135-.145V49.065c.024-.079.109-.1.145-.165a.834.834,0,0,0,.041-.2,1.416,1.416,0,0,0,.063-.467c-.019-.013-.024-.039-.042-.051a.587.587,0,0,0-.176-.052,1.306,1.306,0,0,1-.259-.114,3.162,3.162,0,0,0-.425-.27c-.092-.039-.247-.035-.332-.083-.069-.039-.059-.141-.1-.207l-.187-.156a1.34,1.34,0,0,0-.114-.186c-.047-.046-.136-.051-.176-.1s-.057-.172-.114-.228-.178-.051-.228-.124a1.212,1.212,0,0,1-.114-.84c.017-.074,0-.152.031-.207.067-.1.405-.111.539-.166.108-.045.124-.126.186-.217.04-.058.107-.054.166-.094a1.609,1.609,0,0,0,.228-.456c.028-.068.023-.129.094-.155.067-.053.314-.022.4-.011.017.027.051.052.062.083.035.1.011.207.041.3a1.015,1.015,0,0,0,.3.5.912.912,0,0,0,.228.124,1.318,1.318,0,0,1,.3.083c.041.028.08.076.124.1a1.11,1.11,0,0,0,.611.156,1.469,1.469,0,0,0,.229-.156c.116-.071.263-.1.341-.207.095-.131.128-.3.239-.415a4.679,4.679,0,0,1,.757-.518c.08-.054.1-.175.176-.228.1-.066.284-.089.394-.155.133-.081.262-.172.394-.259a1.007,1.007,0,0,1,.165-.114c.077-.032.193-.008.27-.042s.085-.124.145-.166.2-.015.28-.052.107-.14.186-.176c.163-.072.452.015.612-.051.139-.059.2-.207.352-.249h.508c.1-.025.161-.089.249-.114l.311-.011c.065-.019.118-.074.186-.093h.7c.07-.017.121-.066.176-.083.111-.034.144.1.28.062a1.49,1.49,0,0,1,.259-.093c.075-.007.15.056.248.031a1.632,1.632,0,0,1,.436-.031h.186l.353.042a.49.49,0,0,0,.249.031c.047-.013.112-.039.165-.052a.886.886,0,0,1,.353.021c.174.04.352.024.518.062l.363.01c.17.039.362.041.518.083.117.032.217.029.332.062.387.111.785.2,1.181.311l.446.073.269.021c.078.029.1.123.177.155.05.021.093.006.155.021l.394.083c.351.113.67.24,1.057.331.225.053.318-.14.425-.217.126-.091.293-.122.425-.208.059-.038.077-.127.135-.165a1.857,1.857,0,0,1,.29-.094,3.086,3.086,0,0,0,.508-.228,2.769,2.769,0,0,1,.466-.259c.2-.075.5.025.7-.052.152-.057.3-.153.456-.217a7.623,7.623,0,0,1,.829-.239c.371-.1.771-.117,1.161-.207A3.6,3.6,0,0,0,75.814,42.069Zm.456.519H77c.087.02.138.081.207.1.135.044.2-.1.332-.052.1.036.181.113.29.146l.28.041c.09.038.116.144.217.176.171.054.325.052.477.114.213.087.419.2.622.28.119.048.288.008.384.073.2.133.254.529.425.7a.178.178,0,0,1-.011.052c-.076-.008-.246-.087-.3-.052-.052.02-.056.072-.052.145a.5.5,0,0,1,.145.2.118.118,0,0,0-.021.032c-.159.031-.241-.1-.321-.177-.092,0-.128.044-.083.114l.093.083c.02.029.018.06.042.083a.337.337,0,0,1-.083.249.494.494,0,0,1-.145.021.649.649,0,0,0-.093-.073c.005-.078.114-.179.031-.238l-.125-.042a.114.114,0,0,0-.135.1.255.255,0,0,1-.207-.021c-.248,0-.084.156-.135.259-.048.085-.256-.043-.3-.072-.079-.052-.159-.117-.239-.166s-.18-.077-.259-.135c-.106-.078-.062-.172-.238-.218-.1-.024-.177-.015-.27-.041-.291-.082-.6-.156-.891-.238-.091-.026-.164-.018-.259-.042a2.175,2.175,0,0,0-.529-.052H75.68c-.362.082-.639.206-.964.311-.111.036-.231.046-.342.073l-.114.01c-.075.031-.1.133-.176.166l-.187.031a3.348,3.348,0,0,0-.394.1,3.733,3.733,0,0,0-.508.228,1.836,1.836,0,0,1-.331.176c-.159.053-.417-.03-.581.031-.2.076-.288.38-.5.466-.083.035-.213,0-.291.042s-.139.154-.248.186l-.239.021c-.047.018-.091.067-.145.083l-.207.021c-.13.054-.137.243-.27.3s-.381.015-.518.073c-.255.108-.478.292-.736.4-.091.04-.189.074-.28.1-.07.023-.149.014-.207.052s-.08.125-.145.155a1.593,1.593,0,0,1-.249.042c-.125.032-.258.051-.383.093-.4.132-.779.293-1.182.425l-.373.083-.166.01c-.146.036-.153.147-.269.187-.144.049-.3.037-.435.083-.2.064-.366.182-.56.238l-.352.01c-.08.026-.121.114-.2.145-.111.047-.247,0-.384.032-.1.023-.332.153-.425.124-.041-.013-.082-.061-.124-.073-.11-.03-.167.071-.239.094s-.2-.016-.29.01-.141.081-.238.1h-.207c-.1.031-.123.15-.218.186-.187.072-.492-.016-.7.031a6.163,6.163,0,0,1-1.2.063,3.4,3.4,0,0,1-.653-.021h-.156a1.732,1.732,0,0,1-.559-.124c-.007-.018,0-.011-.011-.021,0-.148.188-.1.291-.145.041-.018.068-.059.1-.083.013-.049.036-.112,0-.156-.034-.09-.19-.049-.259-.1s-.054-.16-.145-.2l-.238-.042c-.146-.041-.312-.08-.456-.124a1.535,1.535,0,0,1-.322-.094.159.159,0,0,1,.011-.041,2.539,2.539,0,0,1,.891.031l.238.01a.687.687,0,0,0,.394-.02c.013-.047.034-.094,0-.135-.025-.072-.192-.108-.269-.124l-.011-.031a2.639,2.639,0,0,1,.612-.177.779.779,0,0,1,.332-.051c.1.021.2.051.29.072a.827.827,0,0,0,.279-.01c.141-.031.287,0,.415-.031l.549-.021c.085-.028.111-.135.2-.166l.85-.041c.239-.053.488-.041.715-.1.2-.055.393-.127.581-.176l.518-.021c.23-.069.461-.175.7-.249.11-.033.232-.036.342-.062l.124-.01c.08-.034.105-.134.187-.166a1.49,1.49,0,0,1,.176-.021,3.457,3.457,0,0,0,.508-.124c.156-.064.311-.129.466-.2.139-.061.275-.158.415-.218.159-.067.442-.012.6-.083.135-.06.195-.222.332-.279.105-.044.278.006.394-.031a1.276,1.276,0,0,0,.259-.146,4,4,0,0,1,.466-.248c.084-.037.177-.066.259-.094s.14-.012.187-.052c.087-.03.055-.129.1-.2.043-.118.265-.1.384-.146a3.672,3.672,0,0,0,.653-.341c.076-.048.156-.1.238-.146l.166-.072c.06-.041.077-.137.135-.176.114-.079.323-.061.456-.115.235-.094.441-.247.673-.331.11-.04.256.015.384-.021.09-.025.129-.115.218-.145s.246,0,.342-.041c.074-.032.095-.115.155-.156s.175-.014.259-.052c.068-.03.11-.116.187-.145.213-.08.494.049.715,0a.655.655,0,0,0,.2-.052l.114-.124c.049-.033.132-.019.186-.052A4.145,4.145,0,0,1,76.27,42.588Zm-13.08.559c.16.038.323.029.477.063.216.046.238-.169.435-.115.075.021.13.084.208.1h.829c.1.024.161.09.249.114h.331a1.614,1.614,0,0,1,.187.083c.087.028.148-.039.207-.052l.342.031c.1.027.127.1.2.145.051.035.1.012.176.031s.123.089.187.115.183,0,.238.041c.008.007,0,0,0,.01l-.01.031c-.071.015-.24.009-.29.052-.094.037-.039.143-.094.187s-.185.008-.29.031a.467.467,0,0,0-.207.093.35.35,0,0,1-.021.187c-.023.048-.132.1-.176.124a.188.188,0,0,0,.021.156c0,.044,0,.085-.021.1-.053.038-.149.014-.218.011l-.5-.063a1.512,1.512,0,0,1-.249.011,2.726,2.726,0,0,0-.529-.021h-1.8a1.507,1.507,0,0,0-.5,0c-.154.034-.347-.02-.488.01h-.207c-.141.032-.3.008-.446.042-.26.061-.5.11-.746.166-.23.052-.515-.059-.684.052-.063.041-.115.111-.176.155a1.143,1.143,0,0,0-.207.145c-.037.043-.047.113-.094.145a1.106,1.106,0,0,1-.2.073,2.832,2.832,0,0,0-.353.176c-.332.2-.628.444-.933.674-.1.076-.179.193-.28.269a1.98,1.98,0,0,0-.393.4c-.112.156-.154.364-.259.529l-.166.166c-.031.042-.042.091-.073.134s-.086.049-.114.083c-.065.08-.06.222-.114.311-.084.139-.228.229-.311.363-.068.11-.009.349-.083.456l-.135.093c-.046.057-.04.156-.083.218l-.113.114c-.054.12,0,.325-.032.446-.042.141-.086.3-.124.466,0,.062-.007.125-.01.187a2.2,2.2,0,0,0,.01.746c.031.143.024.279.052.4v.166l.093.28c.044.135.051.259.1.383a2.121,2.121,0,0,0,.28.394c.022.032.028.074.052.1a.136.136,0,0,1-.032.083c-.041.109-.181.078-.3.114a.3.3,0,0,1-.176.041.525.525,0,0,1-.094-.041.452.452,0,0,1-.02-.145.293.293,0,0,0,.041-.052.259.259,0,0,1,.176.052A.12.12,0,0,0,55.8,53a1.425,1.425,0,0,0-.228-.808c-.029-.078-.02-.274-.063-.332-.024-.037-.062-.044-.093-.073a.2.2,0,0,0-.145.052.68.68,0,0,0-.021.28c.014.052.088.145.052.207-.013.026-.023.024-.042.042-.172-.011-.127-.147-.176-.28a.96.96,0,0,0-.093-.156.191.191,0,0,0-.093.021,1.45,1.45,0,0,0-.011.518c.046.123.12.116.114.291-.064.066-.111.173-.207.207a1.668,1.668,0,0,1-.176-.57c-.061-.2-.094-.433-.145-.653l-.021-.322c-.011-.039-.051-.088-.062-.124,0-.066.007-.131.01-.2a3.2,3.2,0,0,1-.114-.4c-.024-.167.132-.2.166-.3a1.707,1.707,0,0,0,.01-.208V50q.038-.354.073-.706c.051-.213.068-.438.135-.642s.151-.384.207-.57c.043-.141-.01-.335.042-.456.106-.249.375-.44.487-.7.069-.163.027-.411.114-.549.057-.092.166-.15.228-.239.044-.064.06-.164.124-.207s.179-.053.249-.1.081-.159.145-.207.146-.045.187-.1c.05-.074.058-.161.134-.208.1-.06.25-.05.342-.114.15-.1.2-.329.342-.435.1-.075.3-.042.415-.114.082-.054.1-.185.176-.239s.2-.035.269-.083.125-.145.229-.176.242.007.331-.031a1.622,1.622,0,0,0,.259-.2c.076-.05.185-.06.259-.114.05-.036.068-.115.125-.145l.363-.062a4.612,4.612,0,0,1,.466-.176h.56c.054-.015.1-.063.145-.083.067-.028.146,0,.228-.021s.124-.081.2-.1c.1-.031.241.021.352-.011.082-.023.122-.1.2-.135.053-.022.147,0,.2-.031A5.276,5.276,0,0,1,63.19,43.147Zm5.763.943a1.739,1.739,0,0,1,.321.135c.007.018,0,.01.011.021a.448.448,0,0,1-.477.373.736.736,0,0,1-.228-.135c0-.145.051-.139.1-.217l.062-.177a.224.224,0,0,0,.072-.02Zm-1.492.4c0,.028.012.03,0,.052v.02a1.278,1.278,0,0,1-.5-.041c-.072-.016-.146,0-.207-.021s-.189-.053-.125-.155c.014-.034.029-.031.052-.052A2.293,2.293,0,0,1,67.461,44.5Zm13.318.031c.006.018,0,.01.01.021a.159.159,0,0,1-.02.093c-.133,0-.157-.068-.228-.125a.078.078,0,0,1,.02-.062A.306.306,0,0,1,80.779,44.526Zm4.975,0c.073.1.065.274.114.394a3.061,3.061,0,0,0,.207.445c.055.09.128.139.124.29a1.1,1.1,0,0,1-.435.332c-.2.058-.48-.042-.673.021-.218.07-.426.19-.633.28-.331.143-.681.247-1.036.363-.258.083-.539.091-.819.155l-.394.021c-.083.027-.114.134-.2.166s-.151,0-.238.02c-.194.043-.429.019-.622.063l-.228.01c-.106.027-.168.1-.28.124h-.736c-.138.039-.2.18-.342.218s-.176-.088-.238-.125a.777.777,0,0,0-.415-.041c-.212.048-.418.063-.622.124a.622.622,0,0,1-.331.052c-.076-.021-.122-.093-.2-.114H77.4c-.1-.024-.161-.089-.249-.114s-.176.012-.248-.01-.119-.075-.187-.093h-.767a3.379,3.379,0,0,1-.446-.156l-.528-.145a5.469,5.469,0,0,1-.715-.135.285.285,0,0,1,.02-.238v-.114c-.032-.071-.14-.042-.228-.062a2.133,2.133,0,0,1-.5-.135c-.015-.061-.046-.212,0-.269s.191-.053.3-.042a1.874,1.874,0,0,1,.55.1c.031.02.044.059.072.082l.011.011V46a.355.355,0,0,0,.134-.435c-.012-.047-.069-.133-.031-.2s.154-.066.249-.051c.12.018.259.036.373.062l.176.01a1.426,1.426,0,0,1,.26.042l.124.124c.047.029.115.012.176.031s.125.084.2.1h1.3c.1.023.16.081.248.1h.8c.081.019.14.064.208.083a.437.437,0,0,0,.217-.031,2.1,2.1,0,0,1,.488-.052,9.857,9.857,0,0,0,2.207-.207,3.172,3.172,0,0,1,.663-.011h.187c.095-.026.125-.126.218-.155.124-.039.3.028.435-.01.072-.02.124-.082.2-.1s.167.012.248-.01.12-.073.187-.094c.1-.031.273.02.373-.02.115-.047.167-.171.29-.207.154-.047.362.031.529-.011a1.427,1.427,0,0,0,.29-.166c.056-.028.123-.033.156-.083a1.7,1.7,0,0,0,.072-.207.408.408,0,0,0,.114-.041A.273.273,0,0,1,85.754,44.526Zm-8.188.5a2.156,2.156,0,0,1,.767.291.112.112,0,0,1-.021.062c-.085.12-.654.115-.85.072h-.145c-.212-.048-.457-.035-.663-.083a1.82,1.82,0,0,1-.259-.031c-.08-.032-.1-.139-.187-.166l-.331-.02c-.239-.056-.488-.087-.716-.146a1.608,1.608,0,0,1-.445-.1.074.074,0,0,1,.01-.042c.047-.135.358-.14.518-.176.051-.011.119.011.156-.01A7.169,7.169,0,0,1,77.566,45.023ZM68.4,44.775a.139.139,0,0,1-.031.134.39.39,0,0,1-.394-.155.113.113,0,0,1,.02-.062c.022-.005.02,0,.032-.011A.85.85,0,0,1,68.4,44.775Zm-.55.207c.024.125-.086.207-.248.166a2.9,2.9,0,0,1-.933-.322c-.008-.011-.007-.009-.01-.031A4.629,4.629,0,0,1,67.854,44.982Zm6.053.062a.183.183,0,0,1,.042.021v.052c-.018.006-.01,0-.021.01-.053,0-.078.008-.093-.031-.009-.011,0,0-.011-.021l.042-.041C73.89,45.036,73.9,45.036,73.907,45.044Zm-9.608.145c.242.055.485.1.736.156.164.038.34.016.5.052l.238.01c.078.023.093.082.145.124a.675.675,0,0,0,.228.083c.02.124-.107.148-.207.187-.135.051-.29.1-.435.145-.1.03-.208.02-.28.072-.048.035-.067.109-.124.135-.111.05-.265.012-.394.041-.272.062-.548.072-.809.146l-1.213.3-.7.125-.726.062h-.228c-.074.024-.1.112-.166.145a1.113,1.113,0,0,1-.394.021h-1.71a1.362,1.362,0,0,1-.466-.021c-.042-.021-.062-.071-.093-.1s-.082-.054-.094-.124c-.027-.06.058-.159.083-.207.065-.123.085-.077.187-.146.052-.035.078-.115.135-.145l.456-.093c.394-.13.7-.356,1.1-.487.13-.044.275-.051.415-.083l.238-.011c.083-.028.115-.133.2-.165l.332-.052c.137-.039.279-.093.4-.135.05-.016.113-.006.156-.031Zm9.194.073c.011.045.03.076,0,.114s-.045.037-.073.062a.329.329,0,0,1-.176-.041c-.012-.048-.034-.094,0-.135.017-.043.05-.038.083-.063A.257.257,0,0,1,73.493,45.262Zm5.845.041c.024.011.023.018.042.031,0,.024,0,.03-.011.042s-.018.022-.031.041a.256.256,0,0,1-.114-.02l-.02-.063a.33.33,0,0,0,.031-.051C79.283,45.281,79.315,45.282,79.338,45.3Zm-25.776.042a1.29,1.29,0,0,0,.062.217,1.044,1.044,0,0,0,.249.218c.044.034.058.091.093.135a.558.558,0,0,1-.187.279h-.072a.43.43,0,0,0-.083.042c-.04.1.015.2-.01.311-.032.008-.052.02-.073.01-.107-.012-.1-.116-.145-.186-.019-.028-.058-.04-.083-.063-.081.007-.1.04-.145.073,0,.207.185.3.311.394s.237.207.373.29c.181.111.4.178.58.28V47.4c-.3.075-.5-.147-.694-.27-.1-.063-.241-.076-.342-.145-.079-.053-.092-.18-.166-.238s-.187-.074-.259-.135-.05-.173-.114-.218a.72.72,0,0,0-.187-.051,1.129,1.129,0,0,1-.228-.114.728.728,0,0,1-.02-.229l.052-.082a1.147,1.147,0,0,1,.259-.094l.445-.228c.056-.043.073-.2.1-.259a.42.42,0,0,0,.114-.041A.411.411,0,0,1,53.562,45.345Zm19.485.321c0,.123-.1.093-.145.166-.023.036,0,.092-.011.135-.042.009-.093.018-.124-.011h-.021c.011-.079.052-.088.052-.187-.056-.053-.108-.112-.166-.165a.251.251,0,0,1,.032-.135.108.108,0,0,0,.051-.021C72.88,45.456,72.957,45.581,73.047,45.666Zm-.539.218.01.01v.01c-.048,0-.058,0-.072-.031Zm-.611.166c.039.014.037.035.062.062a.181.181,0,0,1-.042.134c-.121.033-.279.062-.331-.062a.145.145,0,0,1,.01-.124c.024-.032.089-.031.124-.052A.278.278,0,0,1,71.9,46.05Zm-17.413.487c.007.017,0,.01.011.02a.157.157,0,0,1-.011.042.865.865,0,0,1-.559-.239.113.113,0,0,1,.02-.052c.022,0,.02,0,.031-.01C54.194,46.311,54.328,46.459,54.484,46.537Zm16.469.2H71.1a2.353,2.353,0,0,1,.559.011c.128.038.18.17.311.207h.29c.1.023.154.09.239.114s.137-.006.2.021.1.121.186.145l.259.01c.067.02.116.076.187.094H73.8c.1.023.155.09.238.114l.259.01.176.093h.591c.1.024.161.09.249.114h.363c.1.023.155.091.238.114H76.4c.1.023.155.081.238.1h1.441a2.053,2.053,0,0,0,.363-.01c.09-.02.212.006.29-.011.139-.03.289.006.414-.021h.2c.182-.039.409,0,.591-.041h.228a1.677,1.677,0,0,1,.7.021c.084.034.083.158.114.248s.083.2.114.291c.023.069.015.142.052.2l.145.124c.088.132.036.378.093.539.035.1.117.151.145.269a3.267,3.267,0,0,1-.01.643c-.021.068-.089.117-.1.187-.021.1.1.147.062.259-.019.062-.075.114-.093.186-.062.249.049.6-.041.819-.058.141-.245.15-.3.28l-.021.29a1.377,1.377,0,0,1-.217.352c-.047.074-.066.157-.156.187a.314.314,0,0,1-.207.01A3.214,3.214,0,0,1,80,52.558a.537.537,0,0,0-.353-.052c-.071.026-.146.11-.259.083a1.8,1.8,0,0,0-.7-.124c-.169.04-.266.145-.435.176-.088.016-.146-.057-.207-.072-.082-.021-.131.053-.218.02-.048-.018-.093-.092-.187-.062a1.645,1.645,0,0,1-.2.093H76.6c-.074.021-.128.084-.207.1a.828.828,0,0,1-.342-.031c-.137-.03-.286,0-.415-.031h-.2a2.742,2.742,0,0,0-.725.114c-.193.046-.478-.035-.674.01s-.158.114-.28.2a1.164,1.164,0,0,1-.3.114l-.239.031c-.282.08-.612.14-.912.208h-.684a.939.939,0,0,0-.28.145,1,1,0,0,1-.3.1,1.215,1.215,0,0,1-.55-.094c-.355-.129-.69-.247-1.036-.373l-.363-.093c-.075-.02-.14-.008-.2-.042-.093-.056-.1-.2-.207-.248s-.362,0-.487-.042c-.158-.048-.274-.147-.435-.187-.2-.049-.455.047-.643-.01-.128-.038-.18-.17-.311-.207H65.6c-.1-.024-.161-.089-.249-.114s-.163,0-.228-.042c-.025-.017-.033-.048-.052-.073a.383.383,0,0,0-.207-.083H64.1a3.822,3.822,0,0,0-.7.011c-.137.03-.312-.016-.436.011s-.255-.011-.352.01H60.682c-.085.028-.122.126-.207.155a3.559,3.559,0,0,1-.7.011h-.176c-.088.024-.148.09-.249.114h-.363c-.1.029-.136.126-.248.156-.212.054-.448-.053-.674,0-.158.036-.164.089-.269.144-.061.032-.15.013-.218.042-.049.021-.08.08-.125.1-.109.056-.257-.022-.383.01a.694.694,0,0,1-.228.041.546.546,0,0,1-.176-.217c-.071-.193,0-.472-.052-.7s-.157-.427-.218-.673c0-.063-.007-.125-.01-.187a1.134,1.134,0,0,1,0-.363c0-.083.007-.165.01-.248.039-.176.045-.379.083-.55a2.863,2.863,0,0,1,.114-.684c.158-.06.375.043.518.083.38.106.791.106,1.192.2l.208.01a2.357,2.357,0,0,0,1.036-.062c.1-.027.229-.009.332-.031a1.3,1.3,0,0,1,.331.021h.166c.15.033.339.019.487.052a1.111,1.111,0,0,0,.373,0,1.183,1.183,0,0,1,.228-.114h.85a2.317,2.317,0,0,0,.3-.125,4.009,4.009,0,0,1,.549-.145c.21-.052.446-.014.664-.062h.2c.039-.011.088-.051.124-.062h.176c.118-.039.182-.169.311-.207.145-.044.341.029.5-.011.07-.018.119-.073.186-.093l.176-.021a1.222,1.222,0,0,1,.208-.1c.177-.042.386.029.528-.031.223-.093.447-.212.684-.3.1-.037.21-.057.311-.083.05-.013.084,0,.125-.021.07-.037.089-.132.165-.166.143-.061.35-.054.5-.1.354-.118.677-.276,1.016-.415a3.213,3.213,0,0,1,.466-.124l.228-.021c.079-.029.109-.112.156-.176a1.344,1.344,0,0,1,.31-.27c.1-.062.179.062.27.042a3.11,3.11,0,0,0,.311-.145A.574.574,0,0,1,70.953,46.733Zm-16.386.249a.117.117,0,0,1-.021.073.665.665,0,0,1-.466-.114.073.073,0,0,0-.021-.042.162.162,0,0,1,.031-.114A.927.927,0,0,1,54.567,46.982Zm3.742.342c0,.022,0,.02-.011.031a.284.284,0,0,1-.176.021,1.851,1.851,0,0,1-.487-.1c-.012-.047-.034-.093,0-.134.014-.034.029-.031.052-.052A.883.883,0,0,1,58.309,47.324Zm24.8.052c.1.042.056.2.083.321.055.247.058.5.124.736.078.278.124.586.2.871.023.088.01.157.031.249a1.981,1.981,0,0,1,.042.611c-.03.134-.056.264-.083.384v1.067c-.054.236-.132.435-.207.664-.1.3-.219.609-.322.891-.036.1,0,.256-.041.352-.048.114-.2.167-.29.238s-.049.184-.1.27-.165.1-.218.176c-.09.125-.109.308-.207.425-.035.042-.1.054-.145.083a1.007,1.007,0,0,0-.3.228c-.061.087-.043.248-.1.332a.458.458,0,0,1-.2.145c-.077.023-.151,0-.208.041-.077.052-.1.163-.155.239-.09.124-.193.065-.3.135l-.145.176c-.09.057-.281.008-.373.062-.061.036-.112.1-.176.135s-.151.024-.207.062-.082.13-.166.166a1.532,1.532,0,0,1-.176.031,3.328,3.328,0,0,0-.384.114c-.317.13-.628.282-.964.394-.131.043-.276.06-.414.093l-.239.02c-.079.031-.1.126-.186.156l-.757.031c-.152.033-.345.008-.5.042h-.177a2.557,2.557,0,0,1-.767.01h-.124c-.146-.033-.277-.077-.414-.1-.231-.045-.443.268-.757.166-.2-.065-.278-.231-.425-.342a2.609,2.609,0,0,1-.228-.187c.013-.063.233-.156.321-.134.045.011.108.064.166.031.028-.009.03-.018.052-.031,0-.077-.023-.082-.052-.125-.061,0-.1.018-.135-.01h-.01l.01-.031c.045-.018.1,0,.166-.021a.882.882,0,0,0,.28-.1c.008-.048-.017-.143.01-.187.066-.152.42.069.529-.01l.021-.011a.086.086,0,0,0-.011-.051c-.033-.083-.2-.075-.29-.1s-.174-.072-.249-.1a1.689,1.689,0,0,1-.228-.072c-.034-.022-.06-.061-.093-.083v-.042l.166-.093a.092.092,0,0,0-.01-.052c-.031-.074-.135-.071-.2-.114l-.073-.083a.092.092,0,0,1,.01-.052c.039-.115.257-.138.394-.124a1.649,1.649,0,0,0,.28.28,1.431,1.431,0,0,0,.384.155c.164.041.327.027.487.062l.383.011a1.73,1.73,0,0,0,.508,0c.269-.039.542.022.788-.031h.176c.1-.029.132-.14.228-.177l.3-.041a5.371,5.371,0,0,0,.684-.186,8.156,8.156,0,0,0,1.741-.923,2.135,2.135,0,0,0,.466-.394c.062-.082.114-.166.176-.249.043-.056.133-.068.187-.113.039-.034.044-.1.073-.146s.1-.1.134-.155c.051-.085.009-.247.052-.342.028-.063.1-.085.156-.125a.364.364,0,0,0,.1-.207c.047-.2-.049-.4.021-.57.061-.147.208-.21.29-.331s.031-.347.1-.488c.034-.065.126-.092.155-.165.089-.224-.175-.517-.114-.736.029-.1.11-.192.145-.3a1.768,1.768,0,0,0-.041-.829c-.054-.192-.1-.4-.156-.591a.44.44,0,0,1,0-.228l.011-.031c.09.015.1.08.145.145.085.138.173.292.249.436.035.066.078.233.186.155.043-.015.054-.044.083-.073,0-.115-.082-.13-.114-.217s0-.177-.041-.239v-.072a.825.825,0,0,1,.248.29,1.292,1.292,0,0,0,.063.176c.038.059.1.117.134.177a.3.3,0,0,0,.083-.011,1.181,1.181,0,0,0-.2-.746c-.029-.073-.038-.255-.072-.311s-.092-.065-.145-.1c-.069-.049-.083-.14-.114-.228-.012-.031-.038-.082-.021-.114a.11.11,0,0,1,.031-.072c.048-.013.1-.035.145,0,.125.046.109.3.156.435a2.339,2.339,0,0,0,.176.269,1.847,1.847,0,0,1,.114.3c.016.053,0,.112.031.155s.066.055.1.083a1.045,1.045,0,0,1,.1.125v.01H83a1.28,1.28,0,0,0-.28-.984.166.166,0,0,1,.042-.114c.128,0,.132.054.217.082.011-.008,0,0,.021-.01,0-.2-.1-.407-.021-.57a.112.112,0,0,0,.052-.021A.123.123,0,0,1,83.111,47.376Zm-1.161.259a1.808,1.808,0,0,1,.021.2c.026.119.043.249.072.363.012.044,0,.1.021.135-.006.018,0,.01-.01.02s-.088-.061-.1-.083c-.064-.087-.1-.191-.166-.279-.021-.029-.067-.038-.093-.063-.043,0-.062,0-.083.021-.051.02-.087.122-.114.166a.11.11,0,0,1-.062-.01c-.1-.033-.2-.337-.093-.415s.314-.024.435-.093A.3.3,0,0,1,81.95,47.635Zm-24.45.809-.01.031c-.18,0-.647.054-.674-.083-.009-.018-.005-.032.011-.052a.054.054,0,0,1,.041-.031c.009-.007.033-.014.042-.021A1.541,1.541,0,0,1,57.5,48.444ZM64.735,52.3c.226.05.463.081.7.135h.114l.716.072c.168.041.327.087.487.125H67.4c.1.024.162.089.249.114.116.032.246-.018.342.021.124.048.166.21.27.279s.3.007.4.052c.076.032.1.121.166.166a1.43,1.43,0,0,0,.166.093l-.011.032a2.237,2.237,0,0,1-1.15-.187,1.156,1.156,0,0,0-.145-.073,1.236,1.236,0,0,0-.384,0c-.052.022-.046.077-.01.114.082.087.227.111.331.177.022.013.039.038.063.051l-.011.031a1.58,1.58,0,0,1-.756-.093c-.078-.022-.252-.076-.311-.031l-.021.011a.087.087,0,0,0,.01.051c.062.179.413.151.581.228.085.039.123.129.2.176l-.011.021a1.383,1.383,0,0,1-.984-.269c-.126,0-.148.06-.208.124a.125.125,0,0,0,.021.083c.046.133.188.057.321.1l.083.051.031.083c-.009.1-.133.237-.186.311-.476.052-.781-.211-1.151-.3h-.642c-.1-.024-.154-.09-.239-.114-.172-.049-.476.045-.642-.011-.07-.023-.115-.093-.187-.113-.187-.053-.247.167-.425.124-.075-.019-.115-.084-.186-.1a3.645,3.645,0,0,0-.612.01,1.254,1.254,0,0,1-.207.094H60.972c-.194.046-.39.12-.59.176-.343.1-.728.076-1.078.166l-.487.114c-.083.027-.171.07-.259.093l-.457.021a1.88,1.88,0,0,0-.4.228c-.226.14-.458.267-.684.4a3.128,3.128,0,0,1-.518.228l-.218.052c-.085.039-.106.157-.2.2-.144.063-.288.085-.424.145-.276.121-.529.285-.819.4l-.28.073-.135.01c-.083.029-.094.113-.155.156a1.8,1.8,0,0,1-.716.113c-.027-.028-.068-.052-.083-.093-.027-.075-.013-.136-.072-.176l-.166-.072a.566.566,0,0,1-.321-.581c.039-.163.145-.145.259-.228.062-.045.056-.136.1-.2.031-.04.113-.042.155-.072.069-.049.1-.149.145-.218l.239-.249a3.612,3.612,0,0,1,.715-.456c.1-.045.214-.056.321-.1.087-.04.143-.142.218-.2a2.742,2.742,0,0,1,.5-.28c.23-.1.473-.189.715-.27l.3-.072c.095-.043.115-.153.228-.187l.155-.01.467-.093.518-.167c.106-.043.221-.108.332-.144s.309.017.445-.021c.069-.02.1-.079.145-.114a.521.521,0,0,1,.156-.052,1.833,1.833,0,0,1,.528-.01c.176.036.366-.014.529.02h.187a2.208,2.208,0,0,0,.663-.1c.11-.03.235-.018.342-.042l.808-.031Zm13.163.664h.279a3.33,3.33,0,0,1,.664.031c.145.031.4-.056.508.021l.02.01a.116.116,0,0,1-.01.041c-.126.05-.323-.013-.477.021a3.287,3.287,0,0,0-.57.1c-.077.041-.085.211-.176.28.007.172.152.125.052.321a.483.483,0,0,1-.156.022c-.1-.116-.13-.115-.248-.032l-.021.062a1.089,1.089,0,0,0,.2.114.065.065,0,0,0,.021.042.2.2,0,0,1-.032.135,6.752,6.752,0,0,1-1.243.031,1.9,1.9,0,0,0-.467.01l-.331.125c-.143.047-.293.074-.436.113-.128.036-.268.034-.394.063l-.2.01c-.09.027-.113.133-.2.166a2.2,2.2,0,0,1-.27.031l-.383.083c-.235.076-.445.189-.674.259-.244.074-.566-.053-.819.031-.092.031-.136.117-.228.145s-.212-.018-.311.011c-.067.019-.117.082-.186.1s-.175-.013-.26.011l-.176.093-.269.01c-.086.028-.123.126-.208.156s-.225-.02-.331.01a.771.771,0,0,0-.135.083c-.068.035-.16.012-.238.041-.048.018-.092.067-.145.083-.12.036-.285-.026-.415.011a.7.7,0,0,0-.135.083c-.087.044-.2,0-.311.031-.072.02-.124.081-.2.1-.089.028-.212-.017-.311.011a1.336,1.336,0,0,0-.145.082c-.055.024-.113,0-.177.022s-.1.07-.155.093l-.218.031c-.07.035-.1.118-.186.145l-.156.01a1.436,1.436,0,0,1-.145.062c-.042.008-.11-.028-.166-.01s-.1.049-.155.062h-.145c-.054.016-.076.066-.114.093a.563.563,0,0,1-.208.073c-.214.049-.447-.055-.653,0-.132.035-.183.133-.321.166h-.58c-.083.023-.145.081-.239.1H64.6c-.095.024-.151.088-.259.113h-.456c-.106.031-.133.134-.27.166H62.8c-.09.026-.131.11-.228.135-.209.054-.414-.1-.57-.124-.088-.013-.147.067-.217.083-.1.021-.16-.075-.228-.094h-.819a.533.533,0,0,1-.228-.145c-.111,0-.173.091-.28.062-.075-.02-.13-.085-.2-.113a1.883,1.883,0,0,0-.311-.073l-.269-.01a4.089,4.089,0,0,1-.55-.073,1.69,1.69,0,0,1-.341-.228c-.064-.045-.141-.06-.208-.1l-.072-.072c.006-.091.059-.09.083-.156.043-.066-.04-.185-.073-.218a.235.235,0,0,1,.01-.072c.084.009.274.11.332.072l.031-.01a1.369,1.369,0,0,1,.021-.249c.2-.076.327.146.539.146.029-.028.08-.041.1-.073.042-.057.059-.161.094-.218a1.674,1.674,0,0,1,.984.166,1.033,1.033,0,0,0,.446.094l.383-.083.405-.032h.2c.122-.026.264,0,.394-.03.194-.044.381-.073.569-.115h.633c.119-.038.128-.164.3-.207l.321-.01h.56a.993.993,0,0,0,.218,0l.332-.011c.114-.028.167-.113.269-.145.152-.047.365.036.529-.01.058-.016.1-.071.155-.093.079-.033.182,0,.28-.021.068-.019.121-.074.187-.093.169-.051.4.033.58-.011s.351-.124.539-.176l.29-.042h.145c.108-.03.132-.142.239-.175.072-.008.145-.015.217-.021l.487-.094c.43-.121.847-.258,1.265-.393.225-.073.471-.08.715-.135l.29-.01c.1-.03.125-.147.218-.187s.212-.042.311-.083c.135-.055.273-.132.4-.187a1.64,1.64,0,0,1,.549-.041h.187c.1-.029.149-.135.269-.166.27-.07.623.051.871,0h.166c.16-.036.2-.119.321-.155s.259.026.373-.011c.067-.021.094-.09.145-.124.066-.044.134-.015.228-.042s.126-.114.228-.134c.128-.026.3.131.415.155.1.02.218-.11.321-.134h.259a2.909,2.909,0,0,0,1.1-.073C77.785,52.906,77.831,52.946,77.9,52.963ZM55,53.377a.154.154,0,0,1-.031.1.207.207,0,0,1-.155-.062.58.58,0,0,1-.01-.125.21.21,0,0,0,.031-.041C54.931,53.274,54.948,53.32,55,53.377Zm24.886.124c.023.011.022.019.041.031a.154.154,0,0,1-.021.073.129.129,0,0,1-.186-.062c-.009-.011,0,0-.011-.021a.333.333,0,0,0,.062-.041A.18.18,0,0,1,79.888,53.5Zm-9.567.259c.007.018,0,.011.01.021v.052a.473.473,0,0,1-.114.01l-.072-.052c0-.059.014-.053.041-.082A.193.193,0,0,1,70.321,53.76Zm8.7-.03.021.01a.139.139,0,0,1-.011.041,1.44,1.44,0,0,1-.559,0l-.021-.01a.109.109,0,0,1,.021-.052c.021,0,.02,0,.031-.01A1.789,1.789,0,0,1,79.017,53.73Zm-9.4.217c.013.047.034.094,0,.135-.025.06-.131.065-.207.041a1.973,1.973,0,0,1-.466-.217.2.2,0,0,1,.01-.063.129.129,0,0,0,.052-.02A1.608,1.608,0,0,1,69.616,53.947Zm-2.1-.072h-.02v-.021a.393.393,0,0,1,.145-.011v.011c.008.011.006.009.01.031A.194.194,0,0,1,67.512,53.875Zm11.8.238c.007.018,0,.01.011.021,0,.046,0,.076-.031.093a.969.969,0,0,1-.457-.083h-.02v-.021a2.728,2.728,0,0,0,.29-.051A.37.37,0,0,1,79.307,54.113Zm-10.52.1a.135.135,0,0,1-.021.124.35.35,0,0,1-.383-.176c-.008-.011,0,0-.01-.021l.02-.021c.022,0,.02,0,.031-.01A.687.687,0,0,1,68.787,54.217Zm-1.047.114a2.853,2.853,0,0,1,.322.093.377.377,0,0,1,.01.083c-.042.043-.057.1-.124.114-.137.036-.31-.173-.425-.1-.074.025-.091.134-.125.2a1.075,1.075,0,0,1-.7-.228v-.041c.16-.036.267.03.435.031a.153.153,0,0,1,.041-.031c.013-.029.033-.072.011-.1a.264.264,0,0,1,.02-.135A1.618,1.618,0,0,1,67.74,54.331Zm17.226.093c.093.069.244.136.29.249a1.012,1.012,0,0,1-.031.435,2.842,2.842,0,0,1-.342.694.919.919,0,0,1-.207.3,1.027,1.027,0,0,1-.508-.3.928.928,0,0,0-.166-.2l-.083-.041c-.034-.042-.069-.083-.1-.124a1.319,1.319,0,0,0-.27-.094l-.331-.166c-.026-.018-.037-.053-.063-.072,0-.095.133-.138.2-.176,0-.1-.026-.1-.062-.156-.07-.009-.216-.029-.269.011l-.032.01c0,.063.037.135.011.176v.021c-.04.008-.074.015-.1-.011-.1-.07-.012-.147.011-.207s-.011-.135.031-.186a.078.078,0,0,1,.051-.042c.087-.052.219.026.27.052a2.145,2.145,0,0,1,.249.125c.072.05.122.138.217.165a.483.483,0,0,0,.291-.031c.036-.012.045-.019.051-.062.009-.017.005-.032-.01-.052-.029-.084-.192-.1-.269-.135-.01-.033-.038-.085-.011-.124l.011-.031a.238.238,0,0,1,.124-.021c.069.016.188.077.249.031l.031-.02c0-.081-.024-.124-.021-.187.118-.029.3.031.4-.041C84.784,54.216,84.848,54.335,84.966,54.424Zm-20.211.218c.187.041.382.023.56.062s.458-.029.57.083c.029.028.076.088.042.145-.053.15-.4.163-.581.207-.147.037-.314.04-.466.083-.126.035-.247.073-.384.1h-.663a1.9,1.9,0,0,0-.425.041c-.067.015-.163,0-.218.01h-.165a2.931,2.931,0,0,0-.6.01c-.159.039-.175.158-.3.2a2.069,2.069,0,0,1-.518.01H60.5c-.138-.032-.168-.136-.27-.166H59.49a1.1,1.1,0,0,1-.539-.29.115.115,0,0,1,.021-.073c.045-.092.174-.047.29-.072l.7-.094c.216-.053.438-.073.653-.134.17-.048.338-.1.518-.145h.684a5.985,5.985,0,0,0,1.306-.052c.072-.019.189,0,.249-.031A6.332,6.332,0,0,1,64.755,54.642Zm13.5.124a.338.338,0,0,1-.3.342l-.238.01-.477.083c-.29.082-.6.125-.912.2-.116.027-.242.007-.352.031h-.156c-.1.033-.134.194-.29.166-.126-.023-.148-.133-.249-.166l-.238-.01a2.981,2.981,0,0,1-.808-.145.109.109,0,0,1,.01-.062c.071-.188.553-.007.746-.052.241-.057.447-.155.7-.218.153-.039.328-.017.487-.052h.155c.071-.02.084-.09.135-.124.016-.011.038-.01.052-.021a.21.21,0,0,1,.155.063c.112-.005.129-.072.207-.1a.934.934,0,0,1,.166-.031.58.58,0,0,1,.2.021,1.059,1.059,0,0,0,.736-.042A.445.445,0,0,1,78.25,54.766Zm-19.661.487c.055.057.056.079.01.145-.073,0-.168-.025-.124-.093.011-.033.021-.031.041-.052Zm14.7.238c.031.013.029.025.052.042a.239.239,0,0,1-.031.176.216.216,0,0,1-.186,0,.1.1,0,0,1-.052-.156.1.1,0,0,1,.072-.072c.009-.007.033-.014.042-.021A.143.143,0,0,1,73.285,55.491Zm-14.126.114.02.011a.122.122,0,0,1-.01.041.126.126,0,0,1-.135-.01.109.109,0,0,1,.021-.052c.021,0,.02,0,.031-.01A.111.111,0,0,1,59.159,55.605Zm13.546.063c.095.033.1.169.155.238v.052a.367.367,0,0,1-.331-.124c0-.125.075-.124.145-.177C72.695,55.661,72.694,55.66,72.705,55.668Zm-15.36.1c.043.041.093.05.114.114h.01v.062a.192.192,0,0,1-.176-.051.079.079,0,0,0-.021-.042c0-.056.007-.055.031-.083Zm14.894.1c.079.034.075.17.145.218.138.094.353.129.5.217a.19.19,0,0,1-.01.062,1.2,1.2,0,0,1-.7-.2,3.758,3.758,0,0,1-.414-.166c.007-.172.187-.1.3-.166A.278.278,0,0,1,72.239,55.875Zm-.726.218c.026.012.024.023.041.041a.118.118,0,0,1-.02.073l-.031.031a.143.143,0,0,1-.094-.021l-.041-.041c0-.025,0-.03.01-.042a.2.2,0,0,1,.031-.052c.022,0,.02,0,.032-.01A.109.109,0,0,1,71.513,56.093Zm.632.342c.115.042.245.057.342.1.01.034.037.086.011.125-.031.079-.157.071-.239.041a3.143,3.143,0,0,1-.622-.29c-.006-.018,0-.01-.01-.021a.118.118,0,0,1,.031-.083c.021,0,.02,0,.031-.01A1.24,1.24,0,0,1,72.145,56.435Zm1.078,0,.021.01a.187.187,0,0,1-.01.041.128.128,0,0,1-.135-.01.109.109,0,0,1,.021-.052c.021,0,.019,0,.031-.01A.107.107,0,0,1,73.223,56.435Z" fill="#231815" fill-rule="evenodd"/><path d="M73.171,55.288a.469.469,0,0,1-.312.125,2.024,2.024,0,0,1-.7-.269,1.762,1.762,0,0,1-1.067-1.207l-.223-1.726a7.047,7.047,0,0,0-.538-2q-.465-.965-1.207-.965a1.33,1.33,0,0,0-.426.075c-.18.068-.269.161-.269.278a.216.216,0,0,0,.009.074v.074q0,.53-.288.529c-.093,0-.139-.052-.139-.157a.888.888,0,0,1,.083-.362,3.947,3.947,0,0,1,.947-.872q.445-.326.7-.534c.17-.14.283-.237.338-.293a1.6,1.6,0,0,0,.585-1.113,1.079,1.079,0,0,0-.427-.817,1.253,1.253,0,0,0-.854-.39,1.37,1.37,0,0,0-1.03.464,1.512,1.512,0,0,0-.427,1.068v4.361a.509.509,0,0,0,.409.511q.018.009.723.12a.484.484,0,0,1,.418-.3.139.139,0,0,1,.158.157c0,.087-.069.161-.2.223a.925.925,0,0,1-.307.056H65.955c-.186.247-.334.371-.446.371-.074,0-.111-.056-.111-.167,0-.167.148-.279.445-.334q.213-.047.423-.084l.422-.074a.564.564,0,0,0,.455-.557V48.044c0-.068,0-.133,0-.2s-.008-.12-.014-.176a.176.176,0,0,0-.139-.065,2.307,2.307,0,0,0-.511.028l-.092.051c-.05.028-.124.067-.223.116a.681.681,0,0,1-.343.112c-.211,0-.316-.075-.316-.223,0-.081.053-.121.158-.121a.464.464,0,0,1,.222.065.536.536,0,0,0,.149.065q.186,0,.9-.641.492-.446.849-.742c.239-.2.435-.35.59-.455a2.954,2.954,0,0,1,1.614-.64,1.479,1.479,0,0,1,1.054.362,1.323,1.323,0,0,1,.385,1.011,1.853,1.853,0,0,1-.631,1.355,12.2,12.2,0,0,1-1.244.938q2.218,1.057,2.219,2.913a1.3,1.3,0,0,1-.261.651,1.415,1.415,0,0,0-.25.714A1.811,1.811,0,0,0,72.312,55a1.088,1.088,0,0,0,.353.111.284.284,0,0,0,.269-.158c.062-.1.111-.149.148-.149.155,0,.232.069.232.205a.372.372,0,0,1-.143.283" fill="#231815"/><path d="M104.032,56.623c-.108-.112-.186-.192-.234-.246s-.1-.115-.162-.187a3.015,3.015,0,0,1-.225-.311c-.09-.14-.231-.345-.421-.621-.226-.336-.431-.638-.6-.908s-.35-.535-.529-.794-.373-.532-.583-.8-.459-.571-.746-.906a7.4,7.4,0,0,0-.782-.771,1.927,1.927,0,0,0-.885-.45,2.983,2.983,0,0,0-.524-.073c-.107,0-.245,0-.411-.014v2.025c0,.577,0,1.059.019,1.457.012.381.022.709.034.983a1.344,1.344,0,0,0,.2.685,1.632,1.632,0,0,0,.557.477,2.535,2.535,0,0,0,1.15.277v.18H94.144v-.18a5.721,5.721,0,0,0,.86-.214,1.454,1.454,0,0,0,.648-.431.915.915,0,0,0,.143-.326,3.562,3.562,0,0,0,.079-.485c.019-.178.034-.37.043-.571s.019-.4.019-.595c0-.167,0-.393.009-.68s.013-.6.018-.944.009-.69.009-1.049V46.606c0-.216,0-.434-.009-.654s-.018-.431-.036-.628a3.27,3.27,0,0,0-.088-.541.789.789,0,0,0-.171-.348,1.35,1.35,0,0,0-.6-.386,5.739,5.739,0,0,0-.815-.168V43.7h.736c.4,0,.865,0,1.382-.006s1.027-.009,1.541-.009h1.258c.8,0,1.512.021,2.138.07a4.277,4.277,0,0,1,1.7.487,3.45,3.45,0,0,1,1.275,1.121,3.087,3.087,0,0,1,.483,1.783,2.851,2.851,0,0,1-.241,1.194,3.192,3.192,0,0,1-.647.935,3.9,3.9,0,0,1-.943.691,7.133,7.133,0,0,1-1.129.484V50.5a2.361,2.361,0,0,1,.592.468,6.9,6.9,0,0,1,.556.68c.312.457.648.949,1.015,1.472s.689,1,.978,1.4a5.441,5.441,0,0,0,1.291,1.365,3.42,3.42,0,0,0,1.472.558v.18ZM102.254,45.44a3.094,3.094,0,0,0-1.31-1.113,4.021,4.021,0,0,0-.908-.287,5.247,5.247,0,0,0-1-.089c-.249,0-.454.006-.609.019s-.276.025-.361.035c-.011.073-.022.134-.035.188a1.676,1.676,0,0,0-.025.207c-.007.084-.013.2-.02.352s-.015.359-.025.634c-.013.419-.02.894-.027,1.416s-.01,1.038-.01,1.528V50.3A13.4,13.4,0,0,0,99.3,50.24a5.489,5.489,0,0,0,1.228-.261,3.27,3.27,0,0,0,.989-.484,2.8,2.8,0,0,0,1.058-1.524,3.391,3.391,0,0,0,.124-.934,2.91,2.91,0,0,0-.448-1.6" fill="#231815"/><path d="M120.522,52.726a6.657,6.657,0,0,1-1.461,2.121,6.5,6.5,0,0,1-2.156,1.382,7.085,7.085,0,0,1-2.61.483,7,7,0,0,1-2.582-.478,6.316,6.316,0,0,1-3.583-3.425,7.082,7.082,0,0,1,.029-5.441,6.22,6.22,0,0,1,1.5-2.08,6.5,6.5,0,0,1,2.209-1.309,7.713,7.713,0,0,1,2.663-.458,6.712,6.712,0,0,1,2.738.533,6.221,6.221,0,0,1,3.347,3.542,6.888,6.888,0,0,1,.447,2.473,6.469,6.469,0,0,1-.538,2.657m-1.965-4.842a6.994,6.994,0,0,0-.841-2.023,4.827,4.827,0,0,0-1.411-1.47,3.48,3.48,0,0,0-1.993-.566,3.567,3.567,0,0,0-2.018.566,4.625,4.625,0,0,0-1.4,1.461,6.837,6.837,0,0,0-.806,2.038,10.359,10.359,0,0,0-.261,2.3,9.39,9.39,0,0,0,.289,2.352,6.614,6.614,0,0,0,.85,2,4.532,4.532,0,0,0,1.418,1.381,3.745,3.745,0,0,0,1.983.52,3.4,3.4,0,0,0,1.965-.575,4.838,4.838,0,0,0,1.39-1.482,7.078,7.078,0,0,0,.835-2.037,9.353,9.353,0,0,0,.28-2.262,8.956,8.956,0,0,0-.28-2.2" fill="#231815"/><path d="M136.01,52.349a5.8,5.8,0,0,1-.879,1.759,5.3,5.3,0,0,1-1.293,1.22,6.908,6.908,0,0,1-1.561.775,8.629,8.629,0,0,1-1.7.4,12.472,12.472,0,0,1-1.7.121h-6.554v-.18a3.23,3.23,0,0,0,.875-.234,1.731,1.731,0,0,0,.634-.43.586.586,0,0,0,.136-.307c.031-.144.056-.3.081-.485s.043-.37.056-.571.015-.4.015-.6c0-.166,0-.392.01-.679s.011-.6.015-.944.011-.69.011-1.049V45.961c0-.215-.011-.416-.026-.6a3.892,3.892,0,0,0-.081-.5.817.817,0,0,0-.161-.352,1.461,1.461,0,0,0-.648-.453,4.51,4.51,0,0,0-.843-.173V43.7c.5,0,1.225,0,2.173-.006s2.086-.009,3.425-.009h1.15c.393,0,.787.015,1.183.05a10.176,10.176,0,0,1,1.184.183,6.168,6.168,0,0,1,1.169.377,6.78,6.78,0,0,1,1.415.825,5.447,5.447,0,0,1,1.158,1.194,5.9,5.9,0,0,1,.79,1.6,6.691,6.691,0,0,1,.3,2.073,7.955,7.955,0,0,1-.323,2.369M133.8,47.991a6.372,6.372,0,0,0-.9-1.786,5.688,5.688,0,0,0-1.363-1.358,4.238,4.238,0,0,0-1.723-.716,7.5,7.5,0,0,0-.79-.118,10.471,10.471,0,0,0-1.057-.043c-.146,0-.3,0-.468.009s-.332.016-.492.034-.311.034-.451.041a2.584,2.584,0,0,0-.331.057c-.06.588-.1,1.4-.108,2.426s-.016,2.253-.016,3.677v2.1q0,.933.016,1.525c0,.17.01.352.028.547s.039.392.063.577a2.259,2.259,0,0,0,.117.5.889.889,0,0,0,.189.334,1.668,1.668,0,0,0,.906.455,5.679,5.679,0,0,0,1.032.1c.3,0,.608-.015.923-.046a4.551,4.551,0,0,0,.888-.169,4.769,4.769,0,0,0,2.9-2.164,7.606,7.606,0,0,0,.962-3.959,6.436,6.436,0,0,0-.325-2.023" fill="#231815"/><path d="M148.588,56.623H137.606v-.18a3.763,3.763,0,0,0,.833-.234,1.672,1.672,0,0,0,.639-.449.844.844,0,0,0,.144-.314c.034-.137.068-.3.1-.476s.048-.368.061-.565.019-.393.019-.585q0-.249.007-.679c.008-.288.014-.6.02-.944s.007-.69.007-1.049V46.606c0-.216,0-.437-.007-.663s-.02-.442-.036-.648a3.605,3.605,0,0,0-.088-.543.785.785,0,0,0-.172-.352,1.2,1.2,0,0,0-.575-.368,7.156,7.156,0,0,0-.788-.151V43.7h9.906L148.9,46.66l-.181.09a8.767,8.767,0,0,0-2.729-2.44,4.465,4.465,0,0,0-1.13-.256,16.476,16.476,0,0,0-2.009-.1c-.253,0-.51.006-.779.028a4.128,4.128,0,0,0-.583.061c-.024.191-.047.585-.064,1.186s-.027,1.29-.027,2.081v1.15c0,.308,0,.563.011.761s.007.349.007.46v.194h.359c.177,0,.385,0,.622-.019s.463-.024.7-.046a3.079,3.079,0,0,0,.585-.079,2.864,2.864,0,0,0,.895-.342,2,2,0,0,0,.584-.518,2.584,2.584,0,0,0,.358-.71,8.23,8.23,0,0,0,.242-.9h.215v5.652h-.215a6.109,6.109,0,0,0-.441-1.186,3.056,3.056,0,0,0-.616-.913,2.285,2.285,0,0,0-.69-.413,3.1,3.1,0,0,0-.946-.2c-.176-.009-.328-.021-.447-.026s-.238-.01-.359-.01h-.823a5.439,5.439,0,0,0-.037.739v2.151c0,.192,0,.376.011.548s.007.32.007.439c.011.382.031.744.064,1.086a1.786,1.786,0,0,0,.2.763,1.137,1.137,0,0,0,.774.359,7.618,7.618,0,0,0,1.327.108c.206,0,.465-.007.779-.018s.65-.041,1-.09a3.674,3.674,0,0,0,1.994-.86,6.14,6.14,0,0,0,.867-.927,11.735,11.735,0,0,0,.87-1.316l.2.051Z" fill="#231815"/><path d="M163.061,54.629a3.473,3.473,0,0,1-.969,1.169,4.019,4.019,0,0,1-1.479.713,7.12,7.12,0,0,1-1.882.237,8.939,8.939,0,0,1-1.51-.109,5.851,5.851,0,0,1-1.044-.262,3.994,3.994,0,0,1-.615-.274.772.772,0,0,0-.262-.126c-.036,0-.113.071-.234.213s-.226.281-.323.413h-.159l-.055-3.571h.179a5.674,5.674,0,0,0,.411.941,9.312,9.312,0,0,0,.547.862,4.938,4.938,0,0,0,.631.709,3.045,3.045,0,0,0,.64.467,4.556,4.556,0,0,0,.8.323,3.351,3.351,0,0,0,3.123-.567,2.472,2.472,0,0,0,.825-1.964,2.17,2.17,0,0,0-.163-.878,2.009,2.009,0,0,0-.439-.658,2.84,2.84,0,0,0-.654-.475,6.849,6.849,0,0,0-.806-.357c-.288-.106-.541-.2-.757-.268s-.412-.142-.6-.21-.379-.13-.576-.2-.432-.153-.706-.262a3.651,3.651,0,0,1-.9-.495,3.5,3.5,0,0,1-.756-.733,3.7,3.7,0,0,1-.522-.935,2.977,2.977,0,0,1-.194-1.083,3.62,3.62,0,0,1,.354-1.67,3.378,3.378,0,0,1,.949-1.167,4.042,4.042,0,0,1,1.376-.691,5.991,5.991,0,0,1,1.64-.223,6.121,6.121,0,0,1,1.385.134,5.332,5.332,0,0,1,.944.3,3.086,3.086,0,0,1,.556.3,1.363,1.363,0,0,0,.206.13c.033,0,.113-.069.223-.216s.218-.286.317-.428h.194v3.32h-.194a7.456,7.456,0,0,0-.557-1.176,5.244,5.244,0,0,0-.792-1.037,3.722,3.722,0,0,0-1.021-.746,2.8,2.8,0,0,0-1.277-.29,3.34,3.34,0,0,0-1.05.163,2.377,2.377,0,0,0-.859.484,2.146,2.146,0,0,0-.574.8,2.682,2.682,0,0,0-.21,1.083,2.071,2.071,0,0,0,.573,1.527,4.086,4.086,0,0,0,1.488.915c.238.1.459.18.673.251s.413.142.617.207.409.135.615.2.432.153.655.234a4.161,4.161,0,0,1,1.889,1.3,3.658,3.658,0,0,1,.32,3.672" fill="#231815"/><path d="M174.666,56.623a1.134,1.134,0,0,1-.163-.1,1,1,0,0,1-.2-.185c-.766-.884-1.489-1.727-2.179-2.521s-1.4-1.6-2.143-2.412a5.982,5.982,0,0,0-.636-.649.532.532,0,0,0-.3-.126c-.095,0-.156.021-.185.065a.847.847,0,0,0-.1.207v1.774c0,.551.009,1.026.018,1.417.014.349.037.673.073.972a1.377,1.377,0,0,0,.235.682,1.07,1.07,0,0,0,.339.3,2.31,2.31,0,0,0,.469.2,4.032,4.032,0,0,0,.489.124c.161.03.3.053.424.066v.18h-5.761v-.18a5.587,5.587,0,0,0,.861-.214,1.446,1.446,0,0,0,.63-.4.856.856,0,0,0,.145-.323,3.648,3.648,0,0,0,.078-.493c.018-.186.032-.384.038-.591s.008-.413.008-.6c0-.166,0-.392.009-.679s.008-.6.008-.938v-5.6c0-.455-.016-.872-.045-1.256a1.254,1.254,0,0,0-.853-1.272,3.027,3.027,0,0,0-.824-.2V43.7h5.565v.184c-.231.023-.451.056-.664.1a1.286,1.286,0,0,0-.577.267,1.619,1.619,0,0,0-.422.619,3.422,3.422,0,0,0-.188,1.168c-.011.274-.022.531-.027.77s-.01.518-.01.827v2.782a7,7,0,0,0,.873-.673q.546-.476,1.147-1.068c.4-.4.8-.8,1.191-1.22s.738-.787,1.025-1.095a6.709,6.709,0,0,0,.549-.738,1.265,1.265,0,0,0,.241-.678.828.828,0,0,0-.359-.756,2.049,2.049,0,0,0-.824-.3V43.7h4.806v.184a3.746,3.746,0,0,0-1.845.767,22.114,22.114,0,0,0-1.9,1.582c-.251.23-.507.474-.77.736s-.524.528-.782.79-.509.516-.751.762-.47.475-.675.691q.144.181.665.782T172.6,51.4c.477.536.986,1.111,1.536,1.719s1.063,1.2,1.565,1.76a5.434,5.434,0,0,0,.411.432c.158.143.309.27.453.388s.269.211.377.293a1.221,1.221,0,0,0,.213.144,4.949,4.949,0,0,0,.639.179,5.924,5.924,0,0,0,.905.127v.18Z" fill="#231815"/><path d="M191.463,52.726A6.65,6.65,0,0,1,190,54.847a6.535,6.535,0,0,1-2.152,1.382,7.269,7.269,0,0,1-5.2.005,6.3,6.3,0,0,1-3.579-3.425,7.105,7.105,0,0,1,.027-5.441,6.242,6.242,0,0,1,1.5-2.08,6.494,6.494,0,0,1,2.206-1.309,7.738,7.738,0,0,1,2.666-.458,6.7,6.7,0,0,1,2.737.533,6.184,6.184,0,0,1,3.345,3.542A6.89,6.89,0,0,1,192,50.069a6.584,6.584,0,0,1-.537,2.657M189.5,47.884a6.883,6.883,0,0,0-.84-2.023,4.832,4.832,0,0,0-1.409-1.47,3.483,3.483,0,0,0-1.991-.566,3.573,3.573,0,0,0-2.022.566,4.586,4.586,0,0,0-1.4,1.461,6.758,6.758,0,0,0-.806,2.038,10.189,10.189,0,0,0-.264,2.3,9.53,9.53,0,0,0,.286,2.352,6.721,6.721,0,0,0,.854,2,4.519,4.519,0,0,0,1.417,1.381,3.745,3.745,0,0,0,1.983.52,3.413,3.413,0,0,0,1.969-.575,4.9,4.9,0,0,0,1.39-1.482,7.071,7.071,0,0,0,.831-2.037,9.355,9.355,0,0,0,.281-2.262,8.957,8.957,0,0,0-.281-2.2" fill="#231815"/><polygon points="109.662 56.783 109.166 56.443 119.112 43.218 119.604 43.576 109.662 56.783" fill="#231815"/></svg>