<svg id="レイヤー_1" data-name="レイヤー 1" xmlns="http://www.w3.org/2000/svg" width="250" height="100" viewBox="0 0 250 100"><title>pc_sonny</title><path d="M93.018,52.132a4.778,4.778,0,0,0,1.157.109c.216,0,.451-.006.708-.019.293-.017.593-.023.893-.023.528,0,1.074.023,1.628.068a2.429,2.429,0,0,1,1.472.414.808.808,0,0,1,.183.566,1.784,1.784,0,0,1-.029.3,3.447,3.447,0,0,1-.446,1.2,4.264,4.264,0,0,1-.878,1.021,4.589,4.589,0,0,1-1.234.767c-.488.206-.964.4-1.44.573a2.639,2.639,0,0,0-1.219.84,2.612,2.612,0,0,0-.527,1.244l-.013.066.022.061a1.107,1.107,0,0,0,.179.368.491.491,0,0,0,.38.2h0a.5.5,0,0,0,.108-.013,2.324,2.324,0,0,0,.726-.388c.278-.2.538-.369.784-.521s.573-.342,1-.569.917-.508,1.451-.836a6.352,6.352,0,0,0,1.507-1.29,4.541,4.541,0,0,0,.937-1.8,7.522,7.522,0,0,0,.216,1.289,3.516,3.516,0,0,0,.686,1.512,1.67,1.67,0,0,0,.986.593,1.439,1.439,0,0,0,.2.014h0a1.664,1.664,0,0,0,.862-.255,3.177,3.177,0,0,0,.965-.956,5.124,5.124,0,0,0,.7-1.824,6.1,6.1,0,0,0,.14-1.266,4.539,4.539,0,0,0-.08-.846,2.465,2.465,0,0,0-.667-1.412,1.438,1.438,0,0,0-.939-.4.827.827,0,0,0-.09.005,1.265,1.265,0,0,0-.738.3.551.551,0,0,0-.061-.111.437.437,0,0,0-.327-.2.193.193,0,0,0-.054-.007.921.921,0,0,0-.371.116,4.209,4.209,0,0,0-.43.266,2.022,2.022,0,0,0-.8,1.175c-.011.042-.021.082-.031.122a1.753,1.753,0,0,0-.659-1.249,3.8,3.8,0,0,0-1.523-.548,9.3,9.3,0,0,0-1.64-.124c-.29,0-.6.011-.923.029-.284.011-.537.02-.753.02a2.835,2.835,0,0,1-1-.11A.13.13,0,0,1,94,50.571h0a.518.518,0,0,1,.106-.222,3.513,3.513,0,0,1,.867-.834c.407-.293.822-.6,1.239-.911a2.772,2.772,0,0,1,1.054-.527,2.383,2.383,0,0,1,.41-.039,1.889,1.889,0,0,1,.5.067,1.786,1.786,0,0,0,.486.075,1.044,1.044,0,0,0,.534-.133,1.142,1.142,0,0,0,.469-1,1.108,1.108,0,0,0,.008-.136,1.275,1.275,0,0,0-.084-.494.581.581,0,0,0-.362-.337,1.538,1.538,0,0,0-.411-.047,4.363,4.363,0,0,0-.664.056,5.6,5.6,0,0,0-1.647.54,15.13,15.13,0,0,0-1.718.97,8.071,8.071,0,0,0-1.508,1.265,6.548,6.548,0,0,0-1.024,1.4,1.868,1.868,0,0,0-.256.847.879.879,0,0,0,.1.411,1.381,1.381,0,0,0,.915.607m8.8,1.064a1.8,1.8,0,0,1,.431-.9,1.742,1.742,0,0,0,.323-.395.841.841,0,0,0,.389.26,2.1,2.1,0,0,1,.478.25c.058.01.227.322.278.925.017.188.026.366.026.535a3.43,3.43,0,0,1-.127.96,4.225,4.225,0,0,1-.687,1.283c-.191.254-.339.314-.408.309a.34.34,0,0,1-.216-.1,2.075,2.075,0,0,1-.526-1.385c-.029-.3-.045-.579-.045-.827a4.41,4.41,0,0,1,.084-.909" fill="#375c77"/><path d="M105.969,53.2a11.332,11.332,0,0,1,.17,1.918,5.108,5.108,0,0,1-.19,1.535,1.668,1.668,0,0,0-.1.541.751.751,0,0,0,.276.618l.06.047.075.011a.968.968,0,0,0,.153.009.824.824,0,0,0,.775-.519,4.314,4.314,0,0,0,.231-1.6c0-.087,0-.18,0-.272a15.992,15.992,0,0,0-.1-1.811,3.828,3.828,0,0,1-.027-.436,1.693,1.693,0,0,1,.188-.862c.19-.32.37-.461.411-.462a.059.059,0,0,1,.022,0s.036,0,.123.127a3.012,3.012,0,0,1,.2,1.172,15.152,15.152,0,0,0,.273,2.163c.142.759.252,1.375.322,1.847a6.427,6.427,0,0,0,.217,1.039.835.835,0,0,0,.645.526,1.126,1.126,0,0,0,.239.028h.018a.647.647,0,0,0,.532-.268.749.749,0,0,0,.127-.406.8.8,0,0,0-.07-.323c-.075-.154-.2-.419-.378-.795a5.272,5.272,0,0,1-.381-1.459q-.14-.983-.31-2.418a7.221,7.221,0,0,0-.466-2.073,1.165,1.165,0,0,0-1.029-.722h-.063a1.2,1.2,0,0,0-.946.377,1.985,1.985,0,0,0-.2.27,1.3,1.3,0,0,0-.131-.264.606.606,0,0,0-.493-.277.546.546,0,0,0-.176.029.633.633,0,0,0-.452.652,1.724,1.724,0,0,0,.082.473,12.907,12.907,0,0,1,.368,1.59" fill="#375c77"/><path d="M110.876,53.2a11.029,11.029,0,0,1,.166,1.918,4.952,4.952,0,0,1-.19,1.535,1.768,1.768,0,0,0-.095.541.762.762,0,0,0,.272.618l.061.047.079.011a.929.929,0,0,0,.151.009.823.823,0,0,0,.773-.519,4.228,4.228,0,0,0,.232-1.6c0-.087,0-.18,0-.272a16.486,16.486,0,0,0-.1-1.811,3.428,3.428,0,0,1-.028-.436,1.66,1.66,0,0,1,.191-.862c.191-.32.366-.461.413-.462.008,0,.008,0,.013,0h0s.041,0,.123.127a3.03,3.03,0,0,1,.207,1.172,15.55,15.55,0,0,0,.268,2.163q.219,1.139.327,1.847a6.656,6.656,0,0,0,.217,1.039.836.836,0,0,0,.641.526,1.155,1.155,0,0,0,.243.028h.018a.652.652,0,0,0,.531-.268.76.76,0,0,0,.129-.406.8.8,0,0,0-.076-.323c-.07-.154-.2-.419-.374-.795a5.272,5.272,0,0,1-.381-1.459c-.093-.655-.2-1.461-.31-2.418a7.234,7.234,0,0,0-.464-2.073,1.171,1.171,0,0,0-1.034-.722h-.058a1.2,1.2,0,0,0-.949.377,2.063,2.063,0,0,0-.2.27,1.406,1.406,0,0,0-.129-.264.618.618,0,0,0-.493-.277.558.558,0,0,0-.178.029.635.635,0,0,0-.452.652,1.69,1.69,0,0,0,.083.473,14.591,14.591,0,0,1,.367,1.59" fill="#375c77"/><path d="M115.694,53.922a2.211,2.211,0,0,0,1.032.979,1.974,1.974,0,0,0,.728.136,2.21,2.21,0,0,0,.434-.043.333.333,0,0,1,.1-.016c.065,0,.069.01.083.022a.331.331,0,0,1,.058.173c.055.361.121.737.209,1.14a1.225,1.225,0,0,1,.024.244.781.781,0,0,1-.185.527c-.227.279-.458.551-.693.82s-.491.519-.76.775a1.14,1.14,0,0,0-.464.771.562.562,0,0,0,.02.139.482.482,0,0,0,.2.287.561.561,0,0,0,.324.095,1.185,1.185,0,0,0,.253-.032,1.765,1.765,0,0,0,.828-.541c.215-.24.411-.439.595-.612a.5.5,0,0,1,.361-.167h.015c.033.007.025,0,.051.027a.6.6,0,0,1,.088.224c.058.3.143.79.242,1.452s.188,1.409.253,2.256.076,1.276.076,1.426a15.405,15.405,0,0,1-.142,2.215,9.425,9.425,0,0,0-.122,1.332,2.336,2.336,0,0,0,.029.411,1.171,1.171,0,0,0,.364.779.449.449,0,0,0,.264.09h0a.679.679,0,0,0,.533-.368,2.312,2.312,0,0,0,.283-1.215c.012-.487.1-3.613.038-4.415-.088-1.1-.2-2.055-.333-2.866s-.234-1.423-.294-1.867a2.5,2.5,0,0,1-.034-.412.919.919,0,0,1,.069-.4,3.343,3.343,0,0,1,.655-.765,1.245,1.245,0,0,0,.5-.81.5.5,0,0,0-.149-.353.612.612,0,0,0-.437-.193.722.722,0,0,0-.442.169c-.188.149-.43.336-.721.565a1.618,1.618,0,0,1-.125-.474,8.972,8.972,0,0,1-.129-1.34,1.724,1.724,0,0,1,.007-.193c.021-.393.049-.862.091-1.413a4.464,4.464,0,0,1,.247-1.256,2.287,2.287,0,0,0,.185-.832,1.285,1.285,0,0,0-.011-.175.787.787,0,0,0-.544-.673.739.739,0,0,0-.216-.033.627.627,0,0,0-.573.409,3.7,3.7,0,0,0-.239.8,8.24,8.24,0,0,0-.113,1.136,4.85,4.85,0,0,1-.252,1.293,1.048,1.048,0,0,1-.222.411.273.273,0,0,1-.2.094.825.825,0,0,1-.625-.337,1.353,1.353,0,0,1-.335-.827,2.887,2.887,0,0,0-.228-1.041.633.633,0,0,0-.564-.395.919.919,0,0,0-.453.14l-.044.022-.026.036a1,1,0,0,0-.229.69,2.351,2.351,0,0,0,.065.535,4.841,4.841,0,0,0,.6,1.445" fill="#375c77"/><path d="M126.463,47.632a1.378,1.378,0,0,1,.505.727,6.24,6.24,0,0,1,.236,1.568c.04.7.062,1.72.062,3.062s-.033,2.589-.1,3.747a15.512,15.512,0,0,1-.225,2.219,1.369,1.369,0,0,0-.048.336.689.689,0,0,0,.422.665,1.774,1.774,0,0,0,.688.119c.113,0,.234-.01.359-.021l.074-.007.06-.046a4.154,4.154,0,0,0,.834-.739c.2-.226.451-.551.777-.974a7.416,7.416,0,0,1,1.012-1.072,6.341,6.341,0,0,1,1.425-.886,3.612,3.612,0,0,1,1.573-.39.732.732,0,0,1,.106.005h.246a1.593,1.593,0,0,0,1.053-.239.583.583,0,0,0,.2-.426.654.654,0,0,0-.153-.4,1.622,1.622,0,0,0-1.2-.389c-.066,0-.128,0-.194,0a4.828,4.828,0,0,0-1.61.291,7.281,7.281,0,0,0-1.779.909,7.622,7.622,0,0,0-1.51,1.346,4.307,4.307,0,0,1-.508.51.814.814,0,0,1-.133.091,1.128,1.128,0,0,1-.014-.188c0-.079.006-.17.014-.278q.079-.817.13-1.995c.033-.784.044-1.6.044-2.461s-.011-1.766-.032-2.728a13.31,13.31,0,0,0-.159-2.046,2.784,2.784,0,0,0-.355-.948,1.483,1.483,0,0,0-.93-.55,1.788,1.788,0,0,0-.418-.057.885.885,0,0,0-.669.257.582.582,0,0,0-.17.4.758.758,0,0,0,.393.6" fill="#375c77"/><path d="M136.77,52.345a.775.775,0,0,0,.237.03,2.184,2.184,0,0,0,.9-.251,1.954,1.954,0,0,1,.833-.2,1.666,1.666,0,0,1,.281.024A.646.646,0,0,1,139.2,52a.244.244,0,0,1-.044.081,2.787,2.787,0,0,1-1.041.818,3.165,3.165,0,0,0-1.379,1.346,2.822,2.822,0,0,0-.32,1.344,4.03,4.03,0,0,0,.064.7,2.263,2.263,0,0,0,.741,1.54,1.649,1.649,0,0,0,.914.287h.008a1.039,1.039,0,0,0,.136-.006,2.022,2.022,0,0,0,1.1-.526,3.056,3.056,0,0,0,.875-1.4,3.016,3.016,0,0,1,.244-.56.258.258,0,0,1,.035-.048,1.127,1.127,0,0,1,.3.23.848.848,0,0,0,.6.284.684.684,0,0,0,.305-.071.615.615,0,0,0,.368-.549.678.678,0,0,0-.03-.2,1.356,1.356,0,0,0-.471-.647,5.716,5.716,0,0,1-.577-.561,1.2,1.2,0,0,1-.321-.616,5.99,5.99,0,0,1-.059-1c0-.073,0-.146,0-.222v-.035a1.594,1.594,0,0,0-.735-1.453,1.894,1.894,0,0,0-1.016-.252,4.192,4.192,0,0,0-.994.134,5.128,5.128,0,0,0-.973.319,1.041,1.041,0,0,0-.55.472l-.012.027,0,.027a1.215,1.215,0,0,0-.028.256.614.614,0,0,0,.433.624m2.574,1.452h.007a.5.5,0,0,1,.035.173,4.455,4.455,0,0,1-.155,1.153,3.347,3.347,0,0,1-.679,1.221,1.056,1.056,0,0,1-.214.207.142.142,0,0,1-.076.036c-.012,0-.067-.05-.131-.185a1.936,1.936,0,0,1-.193-.838,1.721,1.721,0,0,1,.969-1.573,1.073,1.073,0,0,1,.429-.194Z" fill="#375c77"/><path d="M142.591,53.238c.081.911.144,1.769.185,2.562a3.25,3.25,0,0,0,.159.93.639.639,0,0,0,.571.462c.028,0,.058-.005.087-.008a.611.611,0,0,0,.079-.007.971.971,0,0,0-.284.553v.019a.264.264,0,0,0,0,.042.51.51,0,0,0,.172.4.636.636,0,0,0,.385.137h.039a1.688,1.688,0,0,0,.951-.434,5.554,5.554,0,0,0,1.038-1.123,5.459,5.459,0,0,0,.81-1.945,8.378,8.378,0,0,0,.251-1.966c0-.106,0-.213-.009-.312a3.323,3.323,0,0,0-.42-1.678,1.3,1.3,0,0,0-1.133-.575c-.059,0-.123,0-.182.009a1.617,1.617,0,0,0-1.319.9c-.064.116-.123.226-.176.323-.019-.13-.042-.279-.062-.441a15.44,15.44,0,0,1-.149-2.009c0-.151,0-.3.008-.438a3.151,3.151,0,0,1,.282-1.385,1.891,1.891,0,0,0,.343-.891c0-.018,0-.036,0-.052a.626.626,0,0,0-.416-.629.543.543,0,0,0-.157-.026c-.353.026-.542.256-.779.567a3.564,3.564,0,0,0-.568,1.58,6.823,6.823,0,0,0-.07,1.061,14.331,14.331,0,0,0,.083,1.479c.1,1.019.2,1.982.282,2.9m1.733.2a4.159,4.159,0,0,1,.7-1.3,1.275,1.275,0,0,1,.244-.254.313.313,0,0,1,.059-.038s.007.007.007.013a1.882,1.882,0,0,1,.264.95c.008.1.012.2.012.317A8.008,8.008,0,0,1,145.5,54.4a3.3,3.3,0,0,1-.649,1.523,8.521,8.521,0,0,1-.63.74,1.02,1.02,0,0,0,.008-.114.844.844,0,0,0-.017-.178A10.65,10.65,0,0,1,144.123,55a.607.607,0,0,1-.007-.113,4.789,4.789,0,0,1,.208-1.449" fill="#375c77"/><path d="M147.686,55.823a1.37,1.37,0,0,1,.206.412,2.555,2.555,0,0,0,.711,1.071,2.413,2.413,0,0,0,1.447.534h.039a6.454,6.454,0,0,0,1.347-.2,3.894,3.894,0,0,0,1.476-.955,5.007,5.007,0,0,0,1.231-1.649,3.7,3.7,0,0,0,.381-1.265.786.786,0,0,0-.37-.717.61.61,0,0,0-.314-.092.564.564,0,0,0-.449.239,3.893,3.893,0,0,0-.456,1.041,3.2,3.2,0,0,1-.76,1.231,3.149,3.149,0,0,1-1.187.788,1.875,1.875,0,0,1-.667.134,1.225,1.225,0,0,1-.432-.074.845.845,0,0,1-.571-.475.935.935,0,0,1-.071-.326.268.268,0,0,1,.029-.137,1.636,1.636,0,0,1,.714-.445,3.187,3.187,0,0,0,1.373-1.224,2.907,2.907,0,0,0,.506-1.6c0-.086-.006-.172-.013-.255a1.493,1.493,0,0,0-.728-1.319,1.579,1.579,0,0,0-.659-.144,2.02,2.02,0,0,0-.644.118,2.473,2.473,0,0,0-1.149.86A4.759,4.759,0,0,0,147.949,53c-.17.654-.274,1.1-.311,1.368a.625.625,0,0,1-.19.393.686.686,0,0,0-.279.5.5.5,0,0,0,.047.2.641.641,0,0,0,.47.355m1.875-3.279a1.331,1.331,0,0,1,.694-.733.558.558,0,0,1,.174-.037c.076.017.038-.019.093.088a.534.534,0,0,1,.029.188,1.8,1.8,0,0,1-.183.685,1.838,1.838,0,0,1-.88.9.8.8,0,0,1-.3.1h-.021a.354.354,0,0,1-.032-.112,5.13,5.13,0,0,1,.427-1.088" fill="#375c77"/><path d="M154.13,50.62q.3,1.355.773,2.881c.308,1.008.565,1.83.76,2.466s.362,1.128.491,1.478a1.232,1.232,0,0,0,.816.823l.036.008h.033c.032,0,.065,0,.1,0a1.142,1.142,0,0,0,.585-.136A.606.606,0,0,0,158,57.62a.9.9,0,0,0-.007-.109,4.525,4.525,0,0,0-.563-1.427,8.488,8.488,0,0,1-.725-1.782c-.187-.655-.447-1.564-.78-2.716a24.454,24.454,0,0,1-.682-2.9,16.121,16.121,0,0,1-.2-2.016,2.723,2.723,0,0,0-.375-1.482c-.2-.28-.363-.5-.7-.522a.468.468,0,0,0-.191.042.85.85,0,0,0-.464.655,1.217,1.217,0,0,0-.026.273,14.118,14.118,0,0,0,.242,1.915q.3,1.721.6,3.07" fill="#375c77"/><path d="M124.774,36.276a1.58,1.58,0,0,0,.419-.987,1.4,1.4,0,0,1,.814-1.31c.2-.075.21-.022.21.113s.135.16.161.245.223.076.2-.146a1.408,1.408,0,0,1,.322-1.123c.334-.261.593-.348.679-.571s.235-.244.285-.024.174.47.433.434a3.123,3.123,0,0,1,1.1-.087,1.673,1.673,0,0,1,1.333.952c.233.333.125.342-.062.257s-.643-.419-.9-.21a1.5,1.5,0,0,1-.53.345c-.124.027-.052.088.087.138s.2.259.308.48.068.37-.266.245a1.36,1.36,0,0,0-1.055,0c-.333.145-.463.237-.573.275s-.075.183.091.183.537.132.225.353a1.266,1.266,0,0,1-1.316.333,1.39,1.39,0,0,0-1.408.105Z" fill="#375c77"/><path d="M128.174,35.431a3.8,3.8,0,0,1,1.26-.112c.37,0,.852-.277,1.446-.388a1.5,1.5,0,0,1,1.332.388c.443.316,1.167.537,1.445.28s.258-.1.166.183-.278.594-.612.594a1.173,1.173,0,0,1-.7-.13c-.075-.091-.167.057-.112.149a.783.783,0,0,1-.093.683c-.168.149-.147,0-.241-.126s-.65-.279-.8-.448-.353-.091-.37.058-.3.427-.722.2-.779-.667-.964-.667-.464-.353-.633-.407a.688.688,0,0,0-.291-.038c-.019-.092-.019-.185-.113-.222" fill="#375c77"/><path d="M132.435,31.059a4.553,4.553,0,0,1,1.608.318,2.793,2.793,0,0,0,.908.387c.484.113,1.353.742,1.427,1.2s.244.893.13,1.188-.409.813-.666.9-.2-.2-.111-.35.313-.445.093-.722a2.256,2.256,0,0,1-.427-1.128c-.037-.407-.185-.836-.427-.908a5.2,5.2,0,0,1-.573-.239c-.13-.058-.239-.039.057.2a1.75,1.75,0,0,1,.7,1.186,2.612,2.612,0,0,1-.333,1.241c-.112.206-.241.129-.3-.183a1.979,1.979,0,0,0-.3-.889,1.591,1.591,0,0,1-.3-.872,1.593,1.593,0,0,0-.573-.981,1.881,1.881,0,0,0-.926-.206c-.185.04-.277.1-.056.189s.8.258.964.608a2.367,2.367,0,0,1,.3,1.187c-.075.279-.039.7-.3.908s-.428.129-.3-.2a1.293,1.293,0,0,0-.259-1.111c-.2-.2-.686-.462-.76-.761s-.2-.591-.5-.61a3.366,3.366,0,0,0-.979.2c-.148.057-.259.186.056.205a1.334,1.334,0,0,1,.854.3c.256.223.813.575.888.871.121.483.068,1.005-.5,1.149-.223.056-.206-.021-.1-.2a.4.4,0,0,0-.405-.572c-.409,0-1.039-.168-1.206-.483a.975.975,0,0,0-.834-.554.961.961,0,0,0-.645.406.646.646,0,0,1-.52.037,5.263,5.263,0,0,1,3.945-1.685" fill="#375c77"/><path d="M121.035,33.745c-.234.149-.2.273.036.258a.838.838,0,0,1,.6.249,2.091,2.091,0,0,0,.63.408c.194.063.194.172-.013.2a.64.64,0,0,0-.384.207c-.111.085-.123.1.036.187a1.993,1.993,0,0,0,.707.3c.27.023.5.371.889.445s.456.2.492.3h.544c.185-.359-.036-.494.26-.815a2.47,2.47,0,0,0,.407-1.382c-.011-.3-.1-.4-.234-.248s-.383.095-.321-.11c.171-.569-.174-1-.076-1.224s-.1-.109-.284-.037a1.466,1.466,0,0,0-.505.347c-.049.087-.225.1-.335-.075a2.075,2.075,0,0,0-1.171-1.034c-.394-.1-.137.157-.05.318a1.766,1.766,0,0,1,.123.913,1.2,1.2,0,0,0,.027.581c.012.062,0,.1-.2.087a2.018,2.018,0,0,0-1.181.135" fill="#375c77"/><path d="M124.692,36.269a5.952,5.952,0,0,0,.981-2.561c.1-1,.353-1.37.779-1.352s.852.037,1.073-.37.724-.591.909-.333.278.035.144-.241a1.2,1.2,0,0,0-1.2-.483,2.167,2.167,0,0,0-1.442.854,1.434,1.434,0,0,1-.224.461c-.054.058-.148.168-.093-.222a3.335,3.335,0,0,1,.483-1.388c.259-.315.647-.5.959-.294a.923.923,0,0,0,1.059.016c.352-.239.851-.072.887.241s.2.316.167-.091a1.079,1.079,0,0,0-.759-.983,2.744,2.744,0,0,0-1.685.128,1.524,1.524,0,0,1-.482.3s-.076-.037.149-.351a8.174,8.174,0,0,1,1.053-1.037.437.437,0,0,1,.6.057,1.909,1.909,0,0,0,.979.5c.389.035.72.313.72.534s.224.3.263-.09a1.3,1.3,0,0,0-.482-1.223,1.721,1.721,0,0,0-1.445-.3c-.167.074-.26.019-.093-.129s.5-.334.7-.536.444-.242.777.016a1.2,1.2,0,0,0,1.261.15.963.963,0,0,1,1.166.017c.261.295.389.61.556.684s.281.058.109-.165-.183-.814-.516-1.037-.631-.3-1.038-.517a2.081,2.081,0,0,0-1.628.053,7.94,7.94,0,0,0-1.5,1.093c-.076.075-.148.224-.129-.111s-.019-1.313-.28-1.552-.591-.188-.74-.334-.22,0-.074.165.463.5.26.777a1.263,1.263,0,0,0-.02,1.092c.13.167.317.353.13.577s-.554.5-.648.667-.111.22-.166-.058a3.963,3.963,0,0,0-.225-1,1.107,1.107,0,0,0-.942-.595c-.37.04-.723-.2-1.074.04s-.128.3.036.2.262.054.555.221.577.185.52.555a1.043,1.043,0,0,0,.482.927.323.323,0,0,1,.259.447c-.093.238-.15.479-.185.592s-.111.181-.241-.113a1.589,1.589,0,0,0-.905-.814,1.541,1.541,0,0,0-1.242.055,2.864,2.864,0,0,1-.593.386c-.185.076-.168.241.11.241s.667-.314.961.078a1.364,1.364,0,0,0,1.058.592c.259-.058.518-.058.592.092s-.019.333-.055.594a10.1,10.1,0,0,0-.149,1.665,5.976,5.976,0,0,1-.905,3.209Z" fill="#375c77"/><path d="M115.453,36.041c-.092-.243.089-.389.167-.127a.847.847,0,0,0,1.034.367c.408-.183.743-.5.909-.536s.184-.146-.056-.22S117.136,35.1,117,35s.015-.173.187-.3a2.086,2.086,0,0,1,1.224-.125,6.252,6.252,0,0,0,.776.175c.1,0,.134-.086.1-.175s.076-.307.061-.4.027-.183.3-.149a2.212,2.212,0,0,1,1.233.583,5.462,5.462,0,0,0,.778.85,2.17,2.17,0,0,1,.607.766h-.334a.537.537,0,0,0-.667-.185c-.642.3-.789.221-.963.174s-.259-.1-.138-.3.138-.358.236-.408.012-.11-.124-.075a.465.465,0,0,0-.283.422,4.84,4.84,0,0,1-.3,1.209c-.11.2-.16.049-.208-.05a1.893,1.893,0,0,1-.164-.308c-.012-.075-.049-.013-.11.063a4.3,4.3,0,0,1-.5.456c-.32.272-.431.434-.467.68s-.138.309-.21-.088a1.709,1.709,0,0,1,.109-1.235c.224-.247.1-.234-.1-.136a1.834,1.834,0,0,1-1.332.433,1.379,1.379,0,0,1-1.264-.847" fill="#375c77"/><path d="M115.087,32.888c.118-.066.212.027.061.122s-.306.408-.7.741a2.249,2.249,0,0,0-.681,1.89,3.489,3.489,0,0,0,.336,1.332c.025.2.2.036.2-.171s.421-.8.323-1.335a3.578,3.578,0,0,1,.134-1.741,3.418,3.418,0,0,1,.457-.543c.1-.1.186-.124.075.125s-.148.519-.313.935a1.12,1.12,0,0,0,.364,1.4c.183.1.206.049.158-.138a1.8,1.8,0,0,1,.149-.875c.122-.332-.1-.8-.149-1.259a.777.777,0,0,1,.31-.6c.208-.109.715-.443.949-.592a.792.792,0,0,1,.565-.09c.1.016.14.09-.058.139a3.613,3.613,0,0,0-.766.506,1.4,1.4,0,0,0-.236,1.927c.09.112.249.022.224-.187s.309-.581.545-.666a1.242,1.242,0,0,0,.554-.841c.024-.283.123-.589.323-.654a2.626,2.626,0,0,1,1.86.483c.089.073.2.221-.083.136a1.924,1.924,0,0,0-1.386.2,2.227,2.227,0,0,0-.653.8,1.387,1.387,0,0,1-.371.457c-.123.074-.074.16.111.111a3,3,0,0,0,.6-.236,1.409,1.409,0,0,1,.756-.061,1.317,1.317,0,0,0,.865-.456c.147-.2.444-.432.616-.421a1.683,1.683,0,0,1,.949.742,6.291,6.291,0,0,1,1.176,2.185l.258.011a5.325,5.325,0,0,0-1.173-2.271c-.42-.48-.767-.816-.767-1.061a1.264,1.264,0,0,1,.284-.768c.188-.22.063-.64-.124-.973a.882.882,0,0,1-.085-.814c.085-.3-.161-.224-.21-.075s-.409.31-.578.69a1.541,1.541,0,0,0,.134,1.163,3.713,3.713,0,0,1,.185.6c.035.088,0,.149-.185-.061a6.384,6.384,0,0,0-1.556-.74c-.21-.05-.21-.21-.121-.359a1.31,1.31,0,0,0-.174-1.086,2.453,2.453,0,0,0-.631-.531c-.16-.076-.16.013-.111.136a.949.949,0,0,1-.049.593,1.18,1.18,0,0,0,.346.95c.173.087.394.345.051.271a3.683,3.683,0,0,0-.939-.086,1.306,1.306,0,0,1-.768-.2c-.1-.113-.384-.57-.331-.744s-.025-.208-.139-.059a1.359,1.359,0,0,0-.123.814.82.82,0,0,0,.818.419c.245-.086.232.01.06.113s-.558.333-.677.4a1.506,1.506,0,0,1-.83.01c-.357-.085-.8-.766-1.2-.729s-.271.16-.1.2.146.223.42.557a.76.76,0,0,0,1.049.272" fill="#375c77"/><path d="M114.509,29.3c-.015.316.129.464.236-.109a1.9,1.9,0,0,1,1.429-1.392,3.838,3.838,0,0,0,1.463-.649c.372-.2,1.054-.553,1.445.225a7.346,7.346,0,0,0,1.889,2.167c1.474,1.227,1.76,4.163,1.89,6.685l.332.018c.24-2.225-.038-5.28-.852-6.447a28.625,28.625,0,0,0-2.222-2.46,3.386,3.386,0,0,0-2.852-1.02,2.859,2.859,0,0,0-2.758,2.982" fill="#375c77"/><path d="M119.73,29.394c.171.428.314.2.241-.186a2.311,2.311,0,0,1,.167-1.278,5.483,5.483,0,0,1,.536-1.332c.3-.334.8-1.408,1.259-1.5a1.209,1.209,0,0,0-.794-.128c-.242.02-.649.037-.724.445a3.281,3.281,0,0,1-.482,1.332,2.657,2.657,0,0,0-.2,2.649" fill="#375c77"/><path d="M121.284,25.691a2.757,2.757,0,0,1,.834.886,5.7,5.7,0,0,0,.945,1.04A3.407,3.407,0,0,1,123.711,29a7.83,7.83,0,0,1-.054,1.408,16.033,16.033,0,0,0,.054,2.3,1.557,1.557,0,0,1,.389-.242,14.286,14.286,0,0,1,.15-3.037,16.062,16.062,0,0,0,.5-2.2c.091-.538.315-1.855,1.238-2.169a3.241,3.241,0,0,0,1.965-1.278c.221-.535.445-.649.7-.629a.93.93,0,0,0,.59-.168,2.068,2.068,0,0,1,1.168,0c.424.111.316-.072,0-.221a3.638,3.638,0,0,0-1.869-.464,4.052,4.052,0,0,0-2.056,1.018,1.874,1.874,0,0,1-.8.722,2.459,2.459,0,0,0-.924,1.484,16.221,16.221,0,0,1-.518,2.445c-.113.226-.185-.015-.374-.262-.663-.888-1.145-2.387-1.925-2.628-.177-.055-.49.347-.667.612" fill="#375c77"/><path d="M121.481,36.116c-.387.142-.531.5-.752.853s-.667.794-.443,1.276a6.543,6.543,0,0,1,.426.889c.017.167-.019.241-.222-.054a.673.673,0,0,0-.808-.28,1.7,1.7,0,0,1-.966.04.666.666,0,0,0-.811.32c-.213.308-.459.507-.856.2a.848.848,0,0,0-1.173-.034,1.061,1.061,0,0,0-.131,1.1c.131.248.466.2.332-.17s-.137-.8.084-.892a.856.856,0,0,1,.888.2.724.724,0,0,0,1.062-.163.76.76,0,0,1,.854-.306,1.869,1.869,0,0,0,.951-.063c.244-.088.382.1.528.346s.643.334.534-.135a4.236,4.236,0,0,0-.408-1.087c-.148-.259.1-.568.3-.814s.558-.989,1.063-1.087a.486.486,0,0,0-.447-.13" fill="#375c77"/><path d="M119.113,38.121c-.19.116-.133.373,0,.607a.439.439,0,0,0,.569.236c.171-.111.147-.424.011-.632s-.359-.347-.58-.211" fill="#375c77"/><path d="M120.817,38.121c-.1.158-.037.4.209.57s.456.209.555.048a.439.439,0,0,0-.2-.592c-.257-.162-.479-.162-.565-.026" fill="#375c77"/><path d="M119.876,39.579c-.192.12-.111.459.078.692s.418.345.59.207.1-.467-.086-.652-.381-.368-.582-.247" fill="#375c77"/><path d="M119.285,39.072c-.254-.049-.409.161-.5.457s-.074.58.135.668.446-.047.57-.406.059-.668-.2-.719" fill="#375c77"/><path d="M117.878,39.747a.318.318,0,0,0,.313-.317.314.314,0,1,0-.628,0,.317.317,0,0,0,.315.317" fill="#375c77"/><path d="M120.57,38.222c-.241-.08-.458.135-.544.344a.592.592,0,0,0,.086.618c.136.114.481.026.617-.331s-.013-.584-.159-.631" fill="#375c77"/><path d="M127.644,36.246a1.232,1.232,0,0,1,.874,1.175c-.01.541-.059,1.9.633,2.134a1.609,1.609,0,0,0,1.642-.209c.433-.346.69-.346.787.183s.656.876,1.014.445.63-.408.694-.259-.039.2-.212.273-.3.455.113.381.726-.506.5-.85a.82.82,0,0,0-1.123-.062c-.295.246-.554.21-.63-.212s-.482-.726-1.123-.344-1.322.543-1.606.108a4.551,4.551,0,0,1-.283-1.726c-.076-.555-.52-1.259-.84-1.332-.135.073-.334.257-.444.3" fill="#375c77"/><path d="M130.768,40.083a.455.455,0,1,0-.491-.454.472.472,0,0,0,.491.454" fill="#375c77"/><path d="M130.928,38.995a.489.489,0,1,0-.49-.489.486.486,0,0,0,.49.489" fill="#375c77"/><path d="M129.656,40.248a.472.472,0,1,0-.471-.472.47.47,0,0,0,.471.472" fill="#375c77"/><path d="M128.618,39.894a.438.438,0,1,0-.435-.437.437.437,0,0,0,.435.437" fill="#375c77"/><path d="M129.247,38.98a.523.523,0,1,0-.521-.525.522.522,0,0,0,.521.525" fill="#375c77"/><path d="M128.372,39.134a.507.507,0,1,0-.506-.5.5.5,0,0,0,.506.5" fill="#375c77"/><path d="M127.026,40.641c.388,0,.149-.3-.164-.444s-.113-1.074.017-1.427.334-.609.556-.591a1.551,1.551,0,0,0,1.167-.592c.3-.446.794-.353,1.2-.188s.482-.165.295-.277a3.779,3.779,0,0,1-.719-.554c-.333-.317-.982-.2-1.929-.2h-5.628c-.946,0-1.595-.112-1.927.2a3.681,3.681,0,0,1-.724.554c-.183.112-.108.446.3.277s.907-.258,1.2.188a1.541,1.541,0,0,0,1.165.592c.224-.018.428.239.556.591s.335,1.278.021,1.427-.557.444-.167.444Z" fill="#375c77"/><path d="M108.412,73.234h.537v1.479a.809.809,0,0,0,.062.361.528.528,0,0,0,.831,0,.782.782,0,0,0,.062-.361V73.234h.539v1.482a1.194,1.194,0,0,1-.126.6,1.2,1.2,0,0,1-1.78,0,1.184,1.184,0,0,1-.125-.6Z" fill="#375c77"/><path d="M112.429,73.3a.617.617,0,0,1,.229.168.7.7,0,0,1,.124.2.675.675,0,0,1,.046.253.715.715,0,0,1-.089.339.491.491,0,0,1-.291.234.45.45,0,0,1,.24.191.766.766,0,0,1,.071.376v.162a1.2,1.2,0,0,0,.014.225.208.208,0,0,0,.095.138v.059H112.3a.927.927,0,0,1-.034-.128.972.972,0,0,1-.021-.208l0-.224a.465.465,0,0,0-.082-.309.424.424,0,0,0-.293-.077h-.5v.946h-.5v-2.41h1.173a1.113,1.113,0,0,1,.389.063m-1.062.353V74.3h.554a.616.616,0,0,0,.246-.038.27.27,0,0,0,.146-.272.305.305,0,0,0-.141-.3.516.516,0,0,0-.238-.043Z" fill="#375c77"/><path d="M115.072,73.493a.617.617,0,0,1,.109.367.543.543,0,0,1-.109.355.574.574,0,0,1-.182.137.537.537,0,0,1,.275.213.64.64,0,0,1,.094.352.722.722,0,0,1-.107.385.667.667,0,0,1-.169.189.649.649,0,0,1-.269.121,1.623,1.623,0,0,1-.337.031H113.3V73.237h1.151a.724.724,0,0,1,.618.256m-1.293,1.091v.643h.578a.548.548,0,0,0,.242-.042.3.3,0,0,0,.155-.3.261.261,0,0,0-.15-.259.638.638,0,0,0-.239-.04Zm0-.929v.53h.578a.493.493,0,0,0,.253-.058.235.235,0,0,0,.1-.212.215.215,0,0,0-.128-.223.864.864,0,0,0-.282-.037Z" fill="#375c77"/><path d="M116.24,73.234h.586l.878,2.41h-.561l-.164-.5h-.914l-.168.5h-.541Zm-.034,1.5h.635l-.312-.949Z" fill="#375c77"/><polygon points="117.921 73.234 118.455 73.234 119.419 74.912 119.419 73.234 119.893 73.234 119.893 75.643 119.383 75.643 118.395 73.935 118.395 75.643 117.921 75.643 117.921 73.234" fill="#375c77"/><path d="M122.872,73.3a.609.609,0,0,1,.229.168.67.67,0,0,1,.17.455.7.7,0,0,1-.089.339.488.488,0,0,1-.291.234.443.443,0,0,1,.24.191.755.755,0,0,1,.071.376v.162a1.093,1.093,0,0,0,.015.225.212.212,0,0,0,.093.138v.059h-.564a.927.927,0,0,1-.034-.128,1.123,1.123,0,0,1-.023-.208l0-.224a.466.466,0,0,0-.081-.309.422.422,0,0,0-.294-.077h-.5v.946h-.5v-2.41h1.175a1.106,1.106,0,0,1,.388.063m-1.062.353V74.3h.552a.626.626,0,0,0,.249-.038.27.27,0,0,0,.144-.272.306.306,0,0,0-.14-.3.51.51,0,0,0-.238-.043Z" fill="#375c77"/><polygon points="125.474 73.662 124.187 73.662 124.187 74.174 125.367 74.174 125.367 74.591 124.187 74.591 124.187 75.21 125.534 75.21 125.534 75.644 123.691 75.644 123.691 73.237 125.474 73.237 125.474 73.662" fill="#375c77"/><path d="M126.242,74.9a.488.488,0,0,0,.091.247.513.513,0,0,0,.419.149.981.981,0,0,0,.289-.037.285.285,0,0,0,.21-.282.2.2,0,0,0-.1-.184,1.129,1.129,0,0,0-.326-.113l-.255-.056a1.557,1.557,0,0,1-.518-.185.594.594,0,0,1-.238-.521.694.694,0,0,1,.234-.536.978.978,0,0,1,.685-.214,1.035,1.035,0,0,1,.644.2.718.718,0,0,1,.279.584h-.474a.348.348,0,0,0-.19-.309.645.645,0,0,0-.293-.06.557.557,0,0,0-.312.078.252.252,0,0,0-.115.219.208.208,0,0,0,.114.193,1.346,1.346,0,0,0,.313.1l.413.1a1.084,1.084,0,0,1,.408.175.6.6,0,0,1,.21.491.7.7,0,0,1-.249.549,1.049,1.049,0,0,1-.7.219,1.124,1.124,0,0,1-.733-.217.719.719,0,0,1-.269-.591Z" fill="#375c77"/><polygon points="129.828 73.662 128.553 73.662 128.553 74.174 129.722 74.174 129.722 74.591 128.553 74.591 128.553 75.21 129.886 75.21 129.886 75.644 128.06 75.644 128.06 73.237 129.828 73.237 129.828 73.662" fill="#375c77"/><path d="M130.818,73.234h.582l.871,2.41h-.557l-.164-.5h-.9l-.167.5h-.537Zm-.033,1.5h.63l-.31-.949Z" fill="#375c77"/><path d="M134.034,73.3a.616.616,0,0,1,.231.168.7.7,0,0,1,.123.2.675.675,0,0,1,.046.253.714.714,0,0,1-.088.339.5.5,0,0,1-.293.234.458.458,0,0,1,.243.191.781.781,0,0,1,.069.376v.162a1.3,1.3,0,0,0,.014.225.217.217,0,0,0,.094.138v.059h-.565c-.017-.053-.026-.1-.034-.128a1.12,1.12,0,0,1-.021-.208l0-.224a.454.454,0,0,0-.082-.309.417.417,0,0,0-.292-.077h-.5v.946h-.5v-2.41h1.175a1.091,1.091,0,0,1,.387.063m-1.06.353V74.3h.553a.632.632,0,0,0,.247-.038.27.27,0,0,0,.146-.272.306.306,0,0,0-.142-.3.506.506,0,0,0-.237-.043Z" fill="#375c77"/><path d="M135.14,73.488a1.227,1.227,0,0,1,1.705.1.84.84,0,0,1,.172.451h-.525a.634.634,0,0,0-.129-.262.537.537,0,0,0-.42-.159.526.526,0,0,0-.448.223,1.033,1.033,0,0,0-.165.625.921.921,0,0,0,.173.607.548.548,0,0,0,.438.2.507.507,0,0,0,.415-.173.758.758,0,0,0,.132-.278h.524a1.067,1.067,0,0,1-.348.641,1.049,1.049,0,0,1-.716.247,1.1,1.1,0,0,1-.849-.334,1.519,1.519,0,0,1,.041-1.891" fill="#375c77"/><polygon points="137.348 75.644 137.348 73.234 137.871 73.234 137.871 74.155 138.853 74.155 138.853 73.234 139.379 73.234 139.379 75.644 138.853 75.644 138.853 74.57 137.871 74.57 137.871 75.644 137.348 75.644" fill="#375c77"/></svg>