<svg id="レイヤー_1" data-name="レイヤー 1" xmlns="http://www.w3.org/2000/svg" width="250" height="100" viewBox="0 0 250 100"><title>pc_sop</title><path d="M111.184,31.878a2,2,0,0,0-.855-.329l-.681-.135a1.169,1.169,0,0,1-.526-.191c-.059-.056-.078-.1-.082-.248a.342.342,0,0,1,.143-.3,1.221,1.221,0,0,1,.71-.154,1,1,0,0,1,.722.209.615.615,0,0,1,.173.414l.015.2h.644l-.008-.227a1.135,1.135,0,0,0-.484-.943,1.975,1.975,0,0,0-1.122-.281,1.8,1.8,0,0,0-1.064.285.959.959,0,0,0-.409.793.9.9,0,0,0,.308.732,1.965,1.965,0,0,0,.868.351l.618.13a1.534,1.534,0,0,1,.605.211c.071.065.088.1.093.256a.407.407,0,0,1-.164.342,1.188,1.188,0,0,1-.726.177,1.3,1.3,0,0,1-.829-.211.674.674,0,0,1-.223-.555v-.218h-.651V32.4a1.278,1.278,0,0,0,.422,1.015,1.959,1.959,0,0,0,1.3.374h0a1.764,1.764,0,0,0,1.2-.354,1.04,1.04,0,0,0,.353-.8A.911.911,0,0,0,111.184,31.878Z" fill="#e83927" fill-rule="evenodd"/><polygon points="116.576 33.169 116.576 32.169 118.883 32.169 118.883 31.545 116.576 31.545 116.576 30.665 118.98 30.665 118.98 30.041 115.924 30.041 115.924 33.793 116.144 33.793 119.008 33.793 119.008 33.169 116.576 33.169" fill="#e83927" fill-rule="evenodd"/><polygon points="126.155 30.041 126.155 32.675 123.996 30.041 123.403 30.041 123.403 33.793 123.623 33.793 123.836 33.793 124.055 33.793 124.055 31.16 126.215 33.793 126.807 33.793 126.807 30.041 126.155 30.041" fill="#e83927" fill-rule="evenodd"/><path d="M133.966,31.878a2.008,2.008,0,0,0-.854-.329l-.682-.135a1.186,1.186,0,0,1-.526-.19c-.059-.057-.078-.1-.082-.249a.34.34,0,0,1,.143-.3,1.23,1.23,0,0,1,.71-.154,1,1,0,0,1,.722.209.615.615,0,0,1,.173.414l.015.2h.644l-.008-.227a1.134,1.134,0,0,0-.484-.944,1.975,1.975,0,0,0-1.122-.279,1.8,1.8,0,0,0-1.063.284.956.956,0,0,0-.409.793.9.9,0,0,0,.307.732,1.963,1.963,0,0,0,.869.35l.617.131a1.52,1.52,0,0,1,.6.211c.072.064.089.1.095.256a.408.408,0,0,1-.165.342,1.187,1.187,0,0,1-.725.177,1.3,1.3,0,0,1-.83-.211.674.674,0,0,1-.223-.555v-.218h-.651v.22a1.278,1.278,0,0,0,.422,1.013,1.953,1.953,0,0,0,1.3.375h0a1.774,1.774,0,0,0,1.2-.354,1.049,1.049,0,0,0,.353-.8A.913.913,0,0,0,133.966,31.878Z" fill="#e83927" fill-rule="evenodd"/><polygon points="139.172 33.169 139.172 32.169 141.478 32.169 141.478 31.545 139.172 31.545 139.172 30.665 141.575 30.665 141.575 30.041 138.52 30.041 138.52 33.793 138.739 33.793 141.603 33.793 141.603 33.169 139.172 33.169" fill="#e83927" fill-rule="evenodd"/><path d="M119.46,45.375a2.067,2.067,0,0,0-3.115,0,2.048,2.048,0,0,0,0,2.485,1.877,1.877,0,0,0,1.558.708h.012a1.871,1.871,0,0,0,1.545-.708,2.044,2.044,0,0,0,0-2.485ZM117.9,47.943a1.326,1.326,0,1,1,1.326-1.326A1.271,1.271,0,0,1,117.9,47.943Z" fill="#e83927" fill-rule="evenodd"/><polygon points="134.094 45.44 134.094 44.816 131.251 44.816 131.251 48.568 131.471 48.568 131.684 48.568 131.903 48.568 131.903 46.943 133.973 46.943 133.973 46.32 131.903 46.32 131.903 45.44 134.094 45.44" fill="#e83927" fill-rule="evenodd"/><polygon points="116.764 62.718 116.764 59.59 116.112 59.59 116.112 63.342 116.331 63.342 118.936 63.342 118.936 62.718 116.764 62.718" fill="#e83927" fill-rule="evenodd"/><path d="M125.508,59.59h-.521l-1.724,3.752h.724l.487-1.067h1.547l.487,1.067h.725Zm-.75,2.061.49-1.072.489,1.072Z" fill="#e83927" fill-rule="evenodd"/><polygon points="139.564 62.718 139.564 61.718 141.871 61.718 141.871 61.094 139.564 61.094 139.564 60.215 141.968 60.215 141.968 59.59 138.912 59.59 138.912 63.342 139.132 63.342 141.996 63.342 141.996 62.718 139.564 62.718" fill="#e83927" fill-rule="evenodd"/><path d="M111.194,59.806a1.4,1.4,0,0,0-.8-.216h-1.946v3.752h.652V61.885h1.261a1.308,1.308,0,0,0,.944-.322,1.129,1.129,0,0,0,.315-.834A1.058,1.058,0,0,0,111.194,59.806Zm-2.1,1.455V60.215h1.2a1.035,1.035,0,0,1,.45.069c.114.067.2.139.213.454a.457.457,0,0,1-.173.412.762.762,0,0,1-.439.111Z" fill="#e83927" fill-rule="evenodd"/><path d="M134.242,61.572l-.031.182a1.128,1.128,0,0,1-1.2.964,1.243,1.243,0,0,1-1.331-1.325,1.282,1.282,0,0,1,1.331-1.327,1.076,1.076,0,0,1,1.146.762l.041.166h.66l-.06-.267a1.684,1.684,0,0,0-1.787-1.285,1.925,1.925,0,0,0-1.5.64,2.011,2.011,0,0,0-.479,1.311,1.912,1.912,0,0,0,.573,1.435,2.022,2.022,0,0,0,1.41.514h0a1.786,1.786,0,0,0,1.844-1.525l.028-.245Z" fill="#e83927" fill-rule="evenodd"/><path d="M146.8,24.933c0,.595.355.994,1.278.994.88,0,1.132-.414,1.132-.8,0-.45-.308-.631-.872-.741l-.579-.115c-.537-.106-.667-.256-.667-.556,0-.324.224-.576.911-.576.741,0,.923.379.947.7h.181c-.02-.6-.469-.86-1.179-.86s-1.066.308-1.066.73.237.607.853.738l.524.11c.592.122.742.264.742.58,0,.331-.253.627-.943.627-.757,0-1.077-.312-1.081-.836Z" fill="#dcdddd" fill-rule="evenodd"/><polygon points="146.991 48.1 149.019 48.1 149.019 47.942 147.173 47.942 147.173 45.284 146.991 45.284 146.991 48.1" fill="#dcdddd" fill-rule="evenodd"/><path d="M149.265,32.182a1.148,1.148,0,0,1-1.2.975,1.247,1.247,0,0,1-1.318-1.314,1.277,1.277,0,0,1,1.318-1.313,1.1,1.1,0,0,1,1.156.788h.181a1.241,1.241,0,0,0-1.337-.946,1.435,1.435,0,0,0-1.5,1.471,1.4,1.4,0,0,0,1.5,1.471,1.332,1.332,0,0,0,1.385-1.132Z" fill="#dcdddd" fill-rule="evenodd"/><path d="M146.8,61.87c0,.6.355.994,1.278.994.88,0,1.132-.414,1.132-.8,0-.45-.308-.631-.872-.741l-.579-.115c-.537-.106-.667-.256-.667-.556,0-.323.224-.576.911-.576.741,0,.923.379.947.7h.181c-.02-.6-.469-.86-1.179-.86s-1.066.308-1.066.73.237.607.853.738l.524.11c.592.122.742.264.742.58s-.253.627-.943.627c-.757,0-1.077-.311-1.081-.836Z" fill="#dcdddd" fill-rule="evenodd"/><polygon points="146.881 40.713 149.129 40.713 149.129 40.555 147.062 40.555 147.062 39.332 149.022 39.332 149.022 39.174 147.062 39.174 147.062 38.054 149.106 38.054 149.106 37.896 146.881 37.896 146.881 40.713" fill="#dcdddd" fill-rule="evenodd"/><path d="M146.691,54.005a1.314,1.314,0,1,1,1.314,1.314A1.269,1.269,0,0,1,146.691,54.005Zm-.181,0a1.5,1.5,0,1,0,1.5-1.471A1.431,1.431,0,0,0,146.51,54.005Z" fill="#dcdddd" fill-rule="evenodd"/><polygon points="146.744 70.262 146.926 70.262 146.926 67.698 146.934 67.698 149.036 70.262 149.265 70.262 149.265 67.446 149.084 67.446 149.084 70.01 149.076 70.01 146.973 67.446 146.744 67.446 146.744 70.262" fill="#dcdddd" fill-rule="evenodd"/><path d="M108.59,25.938h.181V24.7h1.258c.616,0,.884-.323.884-.8,0-.643-.461-.782-.856-.782H108.59Zm.181-2.659h1.211c.245,0,.75,0,.75.631,0,.5-.363.632-.707.632h-1.254Z" fill="#dcdddd" fill-rule="evenodd"/><path d="M108.355,48.1h.2l.414-.907h1.555l.414.907h.2l-1.294-2.816h-.2Zm1.4-2.611.706,1.546h-1.412Z" fill="#dcdddd" fill-rule="evenodd"/><polygon points="108.73 70.262 108.911 70.262 108.911 68.882 110.67 68.882 110.67 68.724 108.911 68.724 108.911 67.603 110.773 67.603 110.773 67.446 108.73 67.446 108.73 70.262" fill="#dcdddd" fill-rule="evenodd"/><polygon points="108.73 55.488 108.911 55.488 108.911 54.107 110.67 54.107 110.67 53.949 108.911 53.949 108.911 52.829 110.773 52.829 110.773 52.671 108.73 52.671 108.73 55.488" fill="#dcdddd" fill-rule="evenodd"/><polygon points="108.627 40.713 110.876 40.713 110.876 40.555 108.809 40.555 108.809 39.332 110.769 39.332 110.769 39.174 108.809 39.174 108.809 38.054 110.852 38.054 110.852 37.896 108.627 37.896 108.627 40.713" fill="#dcdddd" fill-rule="evenodd"/><polygon points="131.427 55.48 133.455 55.48 133.455 55.322 131.609 55.322 131.609 52.663 131.427 52.663 131.427 55.48" fill="#dcdddd" fill-rule="evenodd"/><polygon points="131.317 70.262 133.565 70.262 133.565 70.104 131.498 70.104 131.498 68.882 133.458 68.882 133.458 68.724 131.498 68.724 131.498 67.603 133.542 67.603 133.542 67.446 131.317 67.446 131.317 70.262" fill="#dcdddd" fill-rule="evenodd"/><path d="M131.279,25.938h.182V24.7h1.258c.615,0,.884-.323.884-.8,0-.643-.462-.782-.856-.782h-1.468Zm.182-2.659h1.211c.244,0,.749,0,.749.631,0,.5-.363.632-.706.632h-1.254Z" fill="#dcdddd" fill-rule="evenodd"/><polygon points="131.419 40.713 131.601 40.713 131.601 39.332 133.36 39.332 133.36 39.174 131.601 39.174 131.601 38.054 133.462 38.054 133.462 37.896 131.419 37.896 131.419 40.713" fill="#dcdddd" fill-rule="evenodd"/><polygon points="139.056 25.938 139.238 25.938 139.238 23.374 139.246 23.374 141.348 25.938 141.577 25.938 141.577 23.121 141.395 23.121 141.395 25.686 141.388 25.686 139.285 23.121 139.056 23.121 139.056 25.938" fill="#dcdddd" fill-rule="evenodd"/><path d="M139.111,47.1c0,.595.356.994,1.279.994.879,0,1.132-.414,1.132-.8,0-.449-.308-.631-.872-.741l-.58-.115c-.536-.106-.666-.256-.666-.556,0-.323.224-.576.911-.576.741,0,.922.379.946.7h.182c-.02-.6-.47-.86-1.18-.86s-1.065.308-1.065.73.237.608.853.738l.524.11c.592.123.742.264.742.58s-.253.627-.943.627c-.758,0-1.077-.312-1.081-.836Z" fill="#dcdddd" fill-rule="evenodd"/><polygon points="139.303 70.147 141.331 70.147 141.331 69.989 139.484 69.989 139.484 67.33 139.303 67.33 139.303 70.147" fill="#dcdddd" fill-rule="evenodd"/><path d="M141.577,54.289a1.149,1.149,0,0,1-1.2.974,1.246,1.246,0,0,1-1.318-1.313,1.278,1.278,0,0,1,1.318-1.314,1.1,1.1,0,0,1,1.156.789h.181a1.242,1.242,0,0,0-1.337-.947,1.434,1.434,0,0,0-1.5,1.472,1.4,1.4,0,0,0,1.5,1.471,1.331,1.331,0,0,0,1.384-1.132Z" fill="#dcdddd" fill-rule="evenodd"/><path d="M139.155,40.713h.181V39.474H140.6c.615,0,.883-.323.883-.8,0-.643-.461-.781-.855-.781h-1.468Zm.181-2.659h1.212c.244,0,.749,0,.749.631,0,.5-.363.631-.706.631h-1.255Z" fill="#dcdddd" fill-rule="evenodd"/><polygon points="124.004 25.938 126.252 25.938 126.252 25.78 124.185 25.78 124.185 24.557 126.145 24.557 126.145 24.4 124.185 24.4 124.185 23.279 126.228 23.279 126.228 23.121 124.004 23.121 124.004 25.938" fill="#dcdddd" fill-rule="evenodd"/><polygon points="124.004 55.488 126.252 55.488 126.252 55.33 124.185 55.33 124.185 54.107 126.145 54.107 126.145 53.949 124.185 53.949 124.185 52.829 126.228 52.829 126.228 52.671 124.004 52.671 124.004 55.488" fill="#dcdddd" fill-rule="evenodd"/><path d="M126.388,39.569a1.149,1.149,0,0,1-1.2.975,1.246,1.246,0,0,1-1.317-1.314,1.277,1.277,0,0,1,1.317-1.313,1.1,1.1,0,0,1,1.156.788h.181a1.242,1.242,0,0,0-1.337-.946,1.435,1.435,0,0,0-1.5,1.471,1.4,1.4,0,0,0,1.5,1.471,1.331,1.331,0,0,0,1.384-1.132Z" fill="#dcdddd" fill-rule="evenodd"/><polygon points="123.868 48.1 124.049 48.1 124.049 45.536 124.057 45.536 126.159 48.1 126.388 48.1 126.388 45.284 126.206 45.284 126.206 47.847 126.199 47.847 124.096 45.284 123.868 45.284 123.868 48.1" fill="#dcdddd" fill-rule="evenodd"/><polygon points="123.868 70.262 124.049 70.262 124.049 67.698 124.057 67.698 126.159 70.262 126.388 70.262 126.388 67.446 126.206 67.446 126.206 70.01 126.199 70.01 124.096 67.446 123.868 67.446 123.868 70.262" fill="#dcdddd" fill-rule="evenodd"/><polygon points="100.735 33.367 100.916 33.367 100.916 30.803 100.924 30.803 103.027 33.367 103.255 33.367 103.255 30.55 103.074 30.55 103.074 33.115 103.066 33.115 100.963 30.55 100.735 30.55 100.735 33.367" fill="#dcdddd" fill-rule="evenodd"/><path d="M100.79,69.257c0,.6.355.994,1.278.994.88,0,1.132-.414,1.132-.8,0-.449-.308-.631-.872-.741l-.579-.115c-.537-.106-.667-.256-.667-.556,0-.323.225-.576.911-.576.741,0,.923.379.947.7h.181c-.02-.6-.469-.86-1.179-.86s-1.065.308-1.065.729.236.608.852.738l.524.11c.592.123.742.265.742.58,0,.332-.252.627-.943.627-.757,0-1.077-.311-1.081-.836Z" fill="#dcdddd" fill-rule="evenodd"/><polygon points="100.871 55.488 103.119 55.488 103.119 55.33 101.052 55.33 101.052 54.107 103.013 54.107 103.013 53.949 101.052 53.949 101.052 52.829 103.096 52.829 103.096 52.671 100.871 52.671 100.871 55.488" fill="#dcdddd" fill-rule="evenodd"/><path d="M100.681,39.189A1.314,1.314,0,1,1,102,40.5,1.269,1.269,0,0,1,100.681,39.189Zm-.181,0a1.5,1.5,0,1,0,1.5-1.472A1.431,1.431,0,0,0,100.5,39.189Z" fill="#dcdddd" fill-rule="evenodd"/><polygon points="100.973 48.1 101.155 48.1 101.155 46.719 102.914 46.719 102.914 46.562 101.155 46.562 101.155 45.442 103.017 45.442 103.017 45.284 100.973 45.284 100.973 48.1" fill="#dcdddd" fill-rule="evenodd"/><path d="M103.255,61.672a1.148,1.148,0,0,1-1.2.975,1.246,1.246,0,0,1-1.317-1.314,1.277,1.277,0,0,1,1.317-1.313,1.1,1.1,0,0,1,1.156.789h.181a1.24,1.24,0,0,0-1.337-.947,1.435,1.435,0,0,0-1.5,1.471,1.4,1.4,0,0,0,1.5,1.472,1.333,1.333,0,0,0,1.385-1.133Z" fill="#dcdddd" fill-rule="evenodd"/><polygon points="100.981 25.938 103.009 25.938 103.009 25.78 101.163 25.78 101.163 23.121 100.981 23.121 100.981 25.938" fill="#dcdddd" fill-rule="evenodd"/><path d="M116.653,55.488h.181V54.249h1.259c.615,0,.883-.323.883-.8,0-.643-.461-.781-.856-.781h-1.467Zm.181-2.659h1.211c.245,0,.75,0,.75.631,0,.5-.363.631-.706.631h-1.255Z" fill="#dcdddd" fill-rule="evenodd"/><path d="M116.418,40.713h.2l.414-.908h1.555l.414.908h.2L117.917,37.9h-.2Zm1.4-2.612.706,1.547h-1.412Z" fill="#dcdddd" fill-rule="evenodd"/><polygon points="116.69 70.262 118.939 70.262 118.939 70.104 116.872 70.104 116.872 68.882 118.832 68.882 118.832 68.724 116.872 68.724 116.872 67.603 118.915 67.603 118.915 67.446 116.69 67.446 116.69 70.262" fill="#dcdddd" fill-rule="evenodd"/><path d="M116.5,24.456a1.314,1.314,0,1,1,1.314,1.313A1.268,1.268,0,0,1,116.5,24.456Zm-.181,0a1.5,1.5,0,1,0,1.5-1.472A1.431,1.431,0,0,0,116.32,24.456Z" fill="#dcdddd" fill-rule="evenodd"/><path d="M110.263,74.236c0,.26,0,.474,0,.645s0,.316,0,.443c0,.154,0,.285,0,.394s0,.2,0,.283a1.2,1.2,0,0,1-.067.415.844.844,0,0,1-.2.313.956.956,0,0,1-.334.21,1.267,1.267,0,0,1-.458.077,1.293,1.293,0,0,1-.458-.076.938.938,0,0,1-.335-.211.844.844,0,0,1-.2-.313,1.18,1.18,0,0,1-.068-.415c0-.079,0-.174,0-.283s0-.24,0-.394c0-.127,0-.274,0-.443s0-.385,0-.645h.319c0,.034,0,.149-.005.346s0,.455,0,.775c0,.1,0,.2,0,.3s0,.211,0,.32a.739.739,0,0,0,.2.563.767.767,0,0,0,.549.192.777.777,0,0,0,.563-.183.766.766,0,0,0,.188-.572c0-.109,0-.215,0-.32s0-.2,0-.3c0-.32,0-.583,0-.786s0-.316,0-.335Z" fill="#e83927"/><path d="M113.148,76.789,112.9,77c-.028-.032-.129-.148-.3-.352s-.439-.521-.8-.952l0-.019a.909.909,0,0,0,.2-.088.981.981,0,0,0,.2-.147.651.651,0,0,0,.125-.17.589.589,0,0,0,.054-.273.451.451,0,0,0-.079-.268.445.445,0,0,0-.216-.166.773.773,0,0,0-.236-.053c-.082-.006-.158-.01-.228-.01h-.161c0,.258-.005.484-.006.681s0,.335,0,.415q0,.279,0,.756c0,.317,0,.517,0,.6h-.318c0-.081,0-.238,0-.471s0-.523,0-.871v-.374c0-.183,0-.516-.009-1l.193,0c.117,0,.224,0,.323,0a2.652,2.652,0,0,1,.326.021,1.153,1.153,0,0,1,.311.086.729.729,0,0,1,.3.251.672.672,0,0,1,.112.389.7.7,0,0,1-.17.479,1.479,1.479,0,0,1-.321.285v.011q.266.324.583.668Z" fill="#e83927"/><path d="M115.108,76.4a.469.469,0,0,1-.168.166.855.855,0,0,1-.321.1,3.3,3.3,0,0,1-.412.025c-.041,0-.082,0-.125,0l-.1-.006c0-.015,0-.141,0-.377s0-.469,0-.7c0-.1,0-.261,0-.484s0-.433,0-.631l.1,0h.167a1.611,1.611,0,0,1,.266.021.739.739,0,0,1,.208.064.408.408,0,0,1,.159.143.384.384,0,0,1,.058.215.422.422,0,0,1-.053.212.5.5,0,0,1-.133.155.588.588,0,0,1-.195.094,1.031,1.031,0,0,1-.253.037l.032.242.087,0c.045,0,.1,0,.176,0a.729.729,0,0,1,.25.042.468.468,0,0,1,.181.113.527.527,0,0,1,.105.157.482.482,0,0,1,.035.186A.467.467,0,0,1,115.108,76.4Zm.347-.508a.6.6,0,0,0-.126-.192.663.663,0,0,0-.22-.154.851.851,0,0,0-.26-.066v-.021a.64.64,0,0,0,.289-.22.582.582,0,0,0,.128-.37.555.555,0,0,0-.1-.336.658.658,0,0,0-.277-.21,1.234,1.234,0,0,0-.285-.075,2.211,2.211,0,0,0-.368-.028c-.117,0-.237,0-.362.008l-.214.009c0,.009,0,.131,0,.362s0,.548,0,.946c0,.211,0,.43,0,.661s0,.477-.007.736c.015,0,.09.006.225.01s.267.008.394.008a2.278,2.278,0,0,0,.461-.042,1.337,1.337,0,0,0,.369-.132.771.771,0,0,0,.289-.267.691.691,0,0,0,.1-.366A.712.712,0,0,0,115.455,75.891Z" fill="#e83927"/><path d="M117.513,75.728h-.94c.061-.139.138-.317.23-.536s.172-.4.238-.551l.008,0c.085.2.166.386.244.566s.152.353.221.519Zm.443.229q-.374-.85-.76-1.76h-.252q-.393.909-.759,1.734t-.415.93l.26.146c.008-.02.048-.117.122-.29s.179-.418.315-.734h1.158c.123.294.222.535.3.721s.115.289.12.3l.3-.163Q118.329,76.81,117.956,75.957Z" fill="#e83927"/><path d="M121.052,74.236c0,.212,0,.455-.005.727s0,.471,0,.592c0,.383,0,.688,0,.914s0,.349,0,.363l-.26.132q-.583-.828-1.093-1.5c-.34-.445-.535-.7-.589-.771l0,0c0,.362,0,.809.007,1.337s.008.834.01.915h-.3c0-.033,0-.154,0-.36s0-.5,0-.865c0-.149,0-.343,0-.588s0-.5-.007-.776l.3-.146.593.79q.561.744,1.054,1.382l0,0c0-.209,0-.558-.008-1.051s-.009-.859-.009-1.1Z" fill="#e83927"/><path d="M124.945,76.789,124.7,77c-.029-.032-.13-.148-.3-.352s-.439-.521-.8-.952l0-.019a.888.888,0,0,0,.2-.088.931.931,0,0,0,.2-.147.677.677,0,0,0,.126-.17.589.589,0,0,0,.053-.273.458.458,0,0,0-.078-.268.45.45,0,0,0-.216-.166.779.779,0,0,0-.236-.053c-.082-.006-.158-.01-.228-.01h-.16c0,.258-.006.484-.007.68s0,.336,0,.416q0,.279,0,.756c0,.317,0,.517.006.6h-.319c0-.081,0-.238.005-.471s0-.523,0-.871v-.374c0-.183,0-.516-.008-1l.194,0c.116,0,.223,0,.321,0a2.681,2.681,0,0,1,.327.021,1.146,1.146,0,0,1,.31.086.716.716,0,0,1,.3.251.672.672,0,0,1,.112.389.694.694,0,0,1-.169.479,1.482,1.482,0,0,1-.322.285v.011q.267.324.583.668Z" fill="#e83927"/><path d="M127.105,76.95c-.012,0-.1,0-.257,0H125.8c-.136,0-.251,0-.346,0q0-.117.006-.51t0-.81q0-.229,0-.608c0-.251,0-.512-.007-.781h.344c.138,0,.279,0,.425,0q.37,0,.6,0h.252v.281l-.243,0-.556,0h-.505c0,.154,0,.306,0,.46s0,.3,0,.433h.417c.226,0,.428,0,.606,0l.285,0v.282l-.318,0h-.99c0,.256,0,.46,0,.609s0,.277,0,.379l.276,0h.35c.192,0,.353,0,.484,0l.219,0Z" fill="#e83927"/><path d="M129.152,76.185a.707.707,0,0,1-.094.366.75.75,0,0,1-.253.254,1.151,1.151,0,0,1-.334.134,1.72,1.72,0,0,1-.416.046c-.083,0-.168,0-.257-.008s-.14-.008-.153-.01l-.016-.29c.017,0,.068.008.151.015s.179.011.291.011a1.581,1.581,0,0,0,.265-.028.9.9,0,0,0,.249-.073.5.5,0,0,0,.175-.142.35.35,0,0,0,.061-.212.411.411,0,0,0-.061-.23.619.619,0,0,0-.2-.182,2.6,2.6,0,0,0-.236-.127,2.588,2.588,0,0,1-.261-.146.815.815,0,0,1-.282-.274.663.663,0,0,1-.083-.332.651.651,0,0,1,.075-.323.8.8,0,0,1,.2-.234.819.819,0,0,1,.3-.145,1.454,1.454,0,0,1,.4-.049c.08,0,.162,0,.244.007s.129.008.141.011l.027.29-.142-.015c-.082-.007-.184-.012-.306-.012a1.026,1.026,0,0,0-.223.026.671.671,0,0,0-.2.078.433.433,0,0,0-.132.131.346.346,0,0,0-.053.194.359.359,0,0,0,.056.192.664.664,0,0,0,.214.19c.053.033.123.072.21.116s.172.092.257.143a.883.883,0,0,1,.29.274A.652.652,0,0,1,129.152,76.185Z" fill="#e83927"/><path d="M131.5,76.95c-.012,0-.1,0-.258,0H130.2c-.137,0-.252,0-.346,0q0-.117.006-.51c0-.261,0-.531,0-.81q0-.229,0-.608c0-.251,0-.512-.007-.781h.343c.139,0,.28,0,.426,0q.369,0,.6,0h.251v.281l-.242,0-.556,0h-.5c0,.154,0,.306,0,.46s0,.3,0,.433h.417c.227,0,.429,0,.607,0l.284,0v.282l-.318,0h-.99c0,.256,0,.46,0,.609s0,.277,0,.379l.276,0h.35c.192,0,.353,0,.484,0l.219,0Z" fill="#e83927"/><path d="M133.565,75.728h-.939c.06-.139.137-.317.23-.536s.171-.4.238-.551l.007,0,.245.566.222.519Zm.444.229q-.375-.85-.76-1.76H133q-.393.909-.758,1.734t-.415.93l.259.146c.008-.02.049-.117.123-.29s.179-.418.315-.734h1.157c.124.294.222.535.3.721s.116.288.121.3l.3-.163Q134.382,76.81,134.009,75.957Z" fill="#e83927"/><path d="M136.874,76.789l-.243.209c-.029-.032-.129-.148-.3-.352s-.44-.521-.8-.952v-.019a.913.913,0,0,0,.2-.088,1.037,1.037,0,0,0,.2-.147.651.651,0,0,0,.125-.17.589.589,0,0,0,.053-.273.458.458,0,0,0-.078-.268.445.445,0,0,0-.216-.166.773.773,0,0,0-.235-.053c-.083-.006-.159-.01-.228-.01h-.161c0,.258-.007.484-.007.68s0,.336,0,.416q0,.279,0,.756c0,.317,0,.517.005.6h-.319c0-.081,0-.238,0-.471s0-.523,0-.871v-.374q0-.274-.008-1l.194,0c.116,0,.223,0,.321,0a2.669,2.669,0,0,1,.327.021,1.153,1.153,0,0,1,.311.086.735.735,0,0,1,.3.251.679.679,0,0,1,.112.389.7.7,0,0,1-.17.479,1.479,1.479,0,0,1-.321.285v.011q.265.324.583.668Z" fill="#e83927"/><path d="M139.1,76.7c0,.013,0,.047-.01.1s-.011.116-.017.184h-.067a2.647,2.647,0,0,1-.841-.125,1.536,1.536,0,0,1-.6-.363,1.224,1.224,0,0,1-.26-.394,1.347,1.347,0,0,1-.1-.523,1.2,1.2,0,0,1,.095-.482,1.3,1.3,0,0,1,.247-.381,1.554,1.554,0,0,1,.6-.374,2.319,2.319,0,0,1,.805-.138h.087c0,.025,0,.063.008.117s.008.111.013.173H139a2.4,2.4,0,0,0-.5.056,1.455,1.455,0,0,0-.447.168,1.037,1.037,0,0,0-.376.374.972.972,0,0,0-.132.493,1.046,1.046,0,0,0,.118.5.965.965,0,0,0,.374.377,1.536,1.536,0,0,0,.467.182,2.329,2.329,0,0,0,.515.057h.037A.5.5,0,0,0,139.1,76.7Z" fill="#e83927"/><path d="M141.869,76.95h-.319c0-.081,0-.23,0-.449s0-.491,0-.816h-1.572c0,.375,0,.661,0,.854s0,.33,0,.411h-.318c0-.081,0-.224,0-.432s0-.555,0-1.047c0-.149,0-.331,0-.543s0-.444-.006-.692h.318c0,.206,0,.406,0,.6s0,.385,0,.564h1.572c0-.179,0-.366,0-.563s0-.4,0-.6h.319q0,.306-.006.707t0,.656c0,.4,0,.7,0,.913S141.867,76.869,141.869,76.95Z" fill="#e83927"/></svg>