<svg id="レイヤー_1" data-name="レイヤー 1" xmlns="http://www.w3.org/2000/svg" width="250" height="100" viewBox="0 0 250 100"><title>pc_smelly</title><path d="M96.163,42.364l-.575.6a6.094,6.094,0,0,0-1.645-1.2,4.137,4.137,0,0,0-1.774-.38,3.633,3.633,0,0,0-2.8,1.151,4.256,4.256,0,0,0-1.085,3.027c0,1.743,1.42,3.1,4.265,4.092.327.116.574.2.74.257a4.8,4.8,0,0,1,2.354,1.657,4.276,4.276,0,0,1,.826,2.658,5.071,5.071,0,0,1-1.437,3.7,4.918,4.918,0,0,1-3.63,1.47,4.986,4.986,0,0,1-2.575-.673A5.088,5.088,0,0,1,87,56.783l.736-.574A5.2,5.2,0,0,0,89.332,58a3.7,3.7,0,0,0,2.07.584,3.928,3.928,0,0,0,2.964-1.23,4.364,4.364,0,0,0,1.169-3.131c0-1.746-1.392-3.083-4.184-4.055-.363-.119-.639-.213-.836-.274a4.907,4.907,0,0,1-2.352-1.623,4.252,4.252,0,0,1-.811-2.6,4.971,4.971,0,0,1,1.426-3.636,4.837,4.837,0,0,1,3.6-1.433,4.75,4.75,0,0,1,2.081.454,4.854,4.854,0,0,1,1.7,1.3"/><polygon points="100.352 40.752 107.622 57.207 115.07 40.752 117.506 58.938 116.701 59.159 114.616 43.576 107.598 59.06 100.775 43.576 98.675 59.159 97.886 58.938 100.352 40.752"/><polygon points="119.683 41.007 127.676 41.007 127.942 41.79 120.531 41.79 120.531 49.25 127.028 49.25 127.028 50.045 120.531 50.045 120.531 58.134 128.306 58.134 128.032 58.938 119.683 58.938 119.683 41.007"/><polygon points="131.608 40.752 131.608 58.128 139.815 58.128 139.506 58.938 130.765 58.938 130.765 41.007 131.608 40.752"/><polygon points="142.977 40.752 142.977 58.128 151.175 58.128 150.876 58.938 142.133 58.938 142.133 41.007 142.977 40.752"/><polygon points="150.606 40.829 156.466 52.181 162.278 40.829 163 41.181 153.792 59.159 153.044 58.891 156.008 53.119 149.86 41.164 150.606 40.829"/></svg>