<svg id="レイヤー_1" data-name="レイヤー 1" xmlns="http://www.w3.org/2000/svg" width="250" height="100" viewBox="0 0 250 100"><path d="M132.815,31a1.681,1.681,0,0,1,.522.028v.014l.055.013v.014h.028l.013.028h.028l.041.054h.014a.816.816,0,0,1,.041.619v.1h-.014v.11h-.014v.11h-.013v.123H133.5v.124h-.014l-.014.261h-.013v.124h-.014v.123a1.48,1.48,0,0,0-.027.371v.151h.013v.083a.953.953,0,0,1,.041.384,5,5,0,0,0-.054,1.182V35.5h.013v.123h.014v.1h.014v.069a1.019,1.019,0,0,1,.041.385h-.014l-.014.178a1.947,1.947,0,0,0-.041.756v.165h.014v.11h.014v.11h.013v.11h.014v.137h.014V37.9c.023.081-.01.219.014.3h.013v.234a2.416,2.416,0,0,1-.013.535v3.847a2.031,2.031,0,0,1-.014.453c-.022.08.006.2-.014.275v.22h-.014l-.013.288v.151h-.014v.206h-.014v.22h-.013v.22a2.078,2.078,0,0,0,.082.591v.123h.014v.22a2.056,2.056,0,0,1-.069.577v.1h-.014v.124h-.013v1.2a3.125,3.125,0,0,0,.068.824v.1h.014v.137h.014V49.88h.013v.1h.014v.069h.014V50.1h.014v.041h.013v.041h.014v.028h.014v.041h.014l.027.082h.014v.028h.014l.027.082.028.014.027.082h.014l.013.042.028.013v.028l.055.041v.028l.11.1.068.082h.028l.027.041h.028l.027.042.055.013v.014h.028v.014l.082.027v.014h.041v.014h.042v.014h.055v.013h.055v.014h.068V51.1h.083v.013h.068v.014h.083v.014h.068v.014h.083v.013h.1v.014h.11V51.2l.234.014.576.151.5.027c.13.038.287.057.412.1l.138.014c.189.061.4.107.59.165l.193.014v.013h.082v.014h.1v.014h.069v.014h.069v.013h.1v.014h.123v.014h.8v.014h.165V51.8h.082v.014h.083c.24.075.524.1.769.179h.083c.061.019.158.036.219.055l.825.123v.014h.068V52.2h.083v.013h.082v.014h.069v.014h.069c.081.026.193.043.274.069h.069c.19.061.41.092.605.151h.082v.014h.1v.013h.11V52.5h.137v.014l1.168.1v.014h.069v.013h.068v.014h.055v.014h.055v.014h.042V52.7h.041v.014h.041v.014h.041v.014l.083.013v.014h.055v.014h.041v.013h.055v.014h.055v.014l.1.014v.013l.178.028v.014h.055V52.9h.055v.014l.124.014v.014l.192.013c.152.045.345.053.495.1l.247.014v.014h.1V53.1h.1v.013h.068c.1.032.23.052.33.083h.069c.193.061.411.093.6.151h.083a1.069,1.069,0,0,0,.288.027h.137v.014h.138V53.4h.1v.014h.069v.013h.055c.262.089.556.138.824.22h.1c.074.022.187.033.261.055h.1v.014h.069v.014h.069v.013h.1v.014h.123v.014l.344.014c.3.087.7.074,1,.164h.082v.014h.1v.014l1.8.137v.014h.1v.014h.069v.014h.055v.013h.055v.014l.123.027v.014h.028v.014h.041v.014h.041v.013h.041v.014h.042v.014h.041V54.3h.041v.013h.041v.014h.041v.014h.042v.014h.055v.013h.055v.014h.055V54.4h.054v.014l.124.013v.014l.22.014v.013H155v.014h.123c.131.038.294.045.426.083l1.223.068v.014l.151.014v.014h.055v.013h.055V54.7h.055v.014h.055v.014h.055v.013h.082v.014h.11v.014h.288v.013h.138c.135.039.3.044.439.083h.152v.014h.219v.013l1.113.055.412.069c.322.1.7.158,1.017.261h.069v.014h.054v.013h.069v.014h.069v.014h.1v.014l1.25.027v.014l.165.014c.23.073.5.118.728.192h.069v.014h.055v.013h.068v.014h.069v.014h.11v.014l.453-.014v-.014h.193a.9.9,0,0,1,.288-.014v.014h.165v.014h.165v.014h.192v.013h.275c.157.045.392,0,.549.042h.275v.013l.22.014c.1.03.219.053.316.083l.206.013v.014h1.182a1.71,1.71,0,0,1,.384.014h.165v.013h.069V55.9h.055v.014l.082.027v.014h.028c.246.164.192.624.192,1.031a.983.983,0,0,1-.055.48c-.123.182-.645.142-.866.069h-.054v-.014h-.042v-.013h-.055c-.164-.059-.354-.111-.522-.165h-.068v-.014h-.069v-.014h-.082V57.3h-.138v-.013h-.769l-.618-.11h-.591a3.232,3.232,0,0,1-.866-.069l-.343-.027v-.014h-.11v-.014h-.1v-.014h-.069v-.013h-.068V57.01h-.1V57h-.123v-.013l-.344-.014a2.431,2.431,0,0,0-.673-.083h-.81l-.413-.013v-.014l-.164-.014v-.014h-.069v-.013h-.055V56.8h-.055V56.79h-.055v-.014h-.069c-.133-.043-.3-.068-.439-.109l-.151-.014v-.014h-.083v-.014h-.068v-.013h-.083V56.6h-.082v-.014h-.1c-.075-.022-.187-.033-.261-.055h-.11c-.122-.035-.289-.033-.413-.069h-.123c-.181-.052-.423-.03-.6-.082h-.137v-.014H158.3v-.013h-.124v-.014l-.4-.028c-.19-.054-.443-.028-.632-.082h-.124v-.014l-.234-.014c-.179-.052-.414-.044-.59-.1h-.1c-.1-.029-.232-.039-.33-.068h-.083c-.081-.025-.193-.044-.274-.069h-.069c-.19-.061-.41-.093-.6-.151l-.289-.028h-.137v-.013h-.124c-.1-.03-.228-.04-.33-.069l-.741-.028c-.242-.07-.517-.093-.756-.164h-.1V55.5h-.124v-.014l-.439-.014c-.1-.029-.229-.039-.33-.068h-.124v-.014h-.123v-.014l-.22-.014c-.1-.031-.24-.05-.344-.082H150.5c-.2-.065-.426-.1-.632-.165l-.179-.014c-.161-.047-.364-.049-.522-.1h-.1v-.013h-.124v-.014h-.192v-.014l-.55-.027v-.014h-.082v-.014h-.069v-.014h-.068v-.013h-.055v-.014h-.042v-.014l-.1-.014v-.013l-.11-.014V54.8l-.123-.014v-.013l-.206-.028V54.73h-.055v-.014h-.055V54.7h-.055v-.014h-.055c-.141-.048-.3-.09-.44-.137h-.055v-.014h-.055v-.014H146.5V54.51l-.742-.028v-.014l-.165-.013c-.133-.043-.314-.055-.453-.1h-.1c-.2-.061-.446-.078-.646-.138l-.549-.041v-.014l-.165-.013c-.224-.073-.479-.118-.7-.193l-.179-.027v-.014l-.151-.014c-.135-.041-.3-.056-.439-.1l-.33-.014v-.013h-.137c-.1-.03-.228-.04-.33-.069h-.124V53.7h-.11v-.014l-.192-.013c-.209-.063-.462-.089-.673-.151h-.1v-.014H140.1v-.014h-.151l-.385-.027c-.252-.076-.569-.078-.824-.151l-.44-.042V53.26h-.068v-.014h-.055v-.014H138.1v-.014h-.082v-.013l-.165-.014v-.014l-.165-.014c-.184-.056-.387-.095-.577-.151l-.591-.055-1.277-.329h-.1a2.828,2.828,0,0,0-.686-.028,1.13,1.13,0,0,1-.261-.014h-.152l-2.253-.48L130.274,52l-.811-.193-.3-.041c-.175-.053-.4-.058-.577-.11h-.1v-.013h-.1v-.014h-.1v-.014h-.1V51.6h-.11v-.013h-.1V51.57l-.33-.028c-.19-.055-.44-.041-.632-.1l-.206-.014v-.013l-.206-.014c-.164-.048-.373-.048-.535-.1l-.165-.014-1.25-.275h-.138a1.389,1.389,0,0,0-.3-.013h-.646a1.509,1.509,0,0,1-.329-.014h-.165v-.014h-.1c-.065-.019-.158-.036-.22-.055h-.083c-.17-.052-.387-.059-.563-.11l-.192-.013c-.118-.035-.281-.035-.4-.069h-.11c-.08-.024-.194-.031-.274-.055h-.083l-.742-.151-.728-.014-.6-.1h-.7a2.33,2.33,0,0,1-.687-.083l-.219-.013v-.014h-.577v-.014h-.138c-.1-.029-.228-.039-.33-.068h-.123V50.21h-.508V50.2h-.138v-.014h-.1a4.883,4.883,0,0,0-1.209-.068h-.646V50.1h-.137c-.1-.029-.228-.04-.33-.069h-.123v-.014h-.591V50l-.234-.014v-.014l-.137-.014-.261-.082-.124-.014v-.013H111.6v-.014h-.1v-.014a.9.9,0,0,0-.3.014l-.152.014v.013l-.109.014v.014H110.9v.014h-.041v.013h-.055v.014h-.069v.014h-.082v.013a1.524,1.524,0,0,1-.385-.013h-.178v-.014l-.275-.014c-.186-.052-.432-.03-.618-.082h-.151v-.014h-.261v-.014l-.165.014a1.852,1.852,0,0,0-.508.069l-.165.014v.013l-.426.014v-.014h-.11v-.013h-.082v-.014h-.069V49.88h-.083v-.014h-.068v-.013h-.083v-.014h-.082v-.014h-.1v-.014h-.11V49.8H106.6v-.014h-.164V49.77h-.248v-.014h-.769l-1.8.055h-1.9v.014H101.6v.014h-.1v.014h-.069v.013h-.069v.014h-.1v.014h-.137v.014h-.481v.013h-.137c-.086.025-.193.045-.275.069h-.1V50h-.124v.013H99.46a2.056,2.056,0,0,0-.577.069h-.1V50.1h-.138v.014h-.906v.013h-.124c-.1.03-.228.04-.33.069h-.137v.014h-.508l-1.2.206h-.563a2.077,2.077,0,0,0-.591.069h-.1V50.5h-.137v.014h-.5l-.948.151v.014h-.055v.014h-.055V50.7h-.041v.014l-.137.028v.013H92.3v.014h-.041v.014H92.22V50.8h-.041v.013h-.041v.014H92.11v.014l-.082.013v.014h-.042v.014h-.041V50.9H91.9v.013l-.11.014c-.2.069-.462.088-.673.151h-.1c-.173.051-.454-.01-.632.041h-.124v.014l-.151.014c-.134.043-.291.08-.426.124h-.068v.013h-.069V51.3h-.069v.014h-.069v.014h-.082c-.126.038-.286.057-.412.1H88.84c-.126.038-.286.056-.412.1l-.137.014c-.283.091-.61.137-.893.233l-.234.041c-.1.033-.229.062-.329.1l-.11.013v.014h-.041v.014l-.1.013v.014l-.1.014V52h-.055v.013H86.4v.014h-.041v.014h-.041v.014h-.041v.013H86.23v.014h-.041v.014l-.082.014v.013h-.055v.014l-.728.124v.013h-.042v.014h-.041V52.3H85.2v.014l-.082.013v.014H85.09v.014h-.041v.014h-.028v.013H84.98v.014h-.027v.014h-.042v.014H84.87v.013h-.041v.014l-.1.014v.014l-.344.041v.013H84.28v.014h-.1v.014h-.11v.014h-.1v.013h-.1c-.091.028-.214.04-.3.069h-.055v.014h-.041v.014l-.11.013v.014h-.041v.014H83.29v.014h-.041v.013h-.027v.014l-.083.014v.013h-.027v.014h-.041v.014l-.083.027v.014h-.027v.014h-.042v.014h-.027V52.9l-.055.014v.014H82.8v.014h-.028v.013l-.123.028V53l-.248.041-.686.151v.014l-.083.013v.014l-.082.028v.013h-.028v.014h-.027V53.3l-.055.014-.014.027H81.4l-.014.027h-.028l-.013.028-.055.014-.014.027-.165.055-.137-.027c-.022-.034-.016-.009-.041-.028l-.069-.082h-.014v-.028l-.027-.013-.014-.042H80.79l-.014-.055h-.013l-.028-.082h-.014V53.1h-.013v-.028h-.014v-.041H80.68V53h-.014v-.042h-.013V52.93h-.014l-.027-.124H80.6l-.028-.137h-.013l-.014-.1h-.014V52.5h-.014v-.1H80.5a.677.677,0,0,1,.027-.193h.014v-.041l.027-.013v-.028l.055-.041.069-.083L80.749,52l.014-.028.068-.014v-.013h.028v-.014l.1-.014V51.9H81v-.014h.069v-.014h.069v-.014H81.2v-.013l.248-.028c.233-.071.523-.079.755-.151l.137-.014.468-.137V51.5h.027v-.014l.082-.013V51.46h.028v-.014l.082-.014v-.013h.028v-.014H83.1v-.014h.055v-.014h.041v-.013h.055V51.35h.041v-.014l.1-.013v-.014l.1-.014v-.014l.1-.013v-.014h.055V51.24h.041v-.014h.041v-.013h.041V51.2H83.8v-.014h.055v-.014H83.9v-.013h.041v-.014h.041V51.13h.028v-.014h.041V51.1h.027v-.014l.083-.014v-.013H84.2v-.014h.041v-.014h.042V51.02l.1-.013v-.014l.274-.041v-.014l.138-.014V50.91l.123-.013v-.014l.124-.014v-.014h.055v-.013h.055v-.014l.11-.014V50.8l.178-.028v-.014l.1-.013v-.014h.041v-.014h.041V50.7l.179-.041v-.014h.027v-.013h.041v-.014h.028v-.014l.082-.014v-.013l.069-.014v-.014h.027v-.014h.042v-.013l.055-.014V50.5l.082-.013v-.014h.041v-.014h.041v-.014h.055V50.43h.055v-.014h.055V50.4l.165-.014c.126-.038.284-.045.412-.082h.138v-.014l.343-.027c.082-.025.19-.044.275-.069l.165-.014v-.013l.178-.014c.213-.066.458-.1.673-.165l.358-.055v-.014h.055v-.013h.055v-.014h.055V49.88H89.4v-.014l.1-.013v-.014h.027v-.014h.042v-.014l.055-.013v-.014h.041V49.77l.055-.014v-.013h.041v-.014h.027v-.014l.069-.014v-.013H89.9v-.014l1.168-.165V49.5h.069v-.013H91.2v-.014h.055v-.014l.124-.014v-.013l.1-.014V49.4h.041v-.013h.042v-.014H91.6v-.014h.041v-.014l.082-.013v-.014l.055-.014v-.014h.042v-.013l.082-.028v-.014l.055-.013.014-.028.055-.014v-.013l.041-.014.014-.028h.027l.014-.027.041-.014L92.234,49h.027l.028-.028v-.027l.082-.069V48.85l.041-.028V48.8l.028-.014.014-.041h.013v-.028L92.5,48.7l.013-.055.028-.014.027-.082h.014V48.52h.014v-.027h.014l.027-.083h.014v-.041h.014v-.028h.013L92.7,48.2h.014v-.041h.013v-.055h.014l.014-.179a2.826,2.826,0,0,0,.027-.673v-2.5a2.1,2.1,0,0,1,.014-.467c.023-.084-.007-.214.014-.289l.013-.494h.014v-.248h.014l.014-.48a.942.942,0,0,0,.013-.289h-.013v-.165c-.045-.159-.038-.361-.083-.522v-.165h-.014l-.013-.453h-.014v-.357h-.014V40.14a2.668,2.668,0,0,1,.014-.563v-.371h.014c.021-.076,0-.194.013-.261v-.193h.014V38.6H92.8v-.123h.014v-.11h.013v-.1h.014v-.11h.014v-.11h.014V37.9h.013v-.55a2.671,2.671,0,0,0-.013-.563v-.11h-.014V36.6l-.1-.289-.014-.151h-.014V35.9a1.385,1.385,0,0,1,.014-.3v-.151l.014-.316h.013l.014-.344H92.8v-.123l.027-.165h.014v-.041h.014v-.028h.014l.013-.055.028-.014v-.027l.027-.014.055-.069h.028l.013-.027.083-.027v-.014a4.43,4.43,0,0,1,1.47-.11h.536v-.014h.123c.1-.029.228-.04.33-.069h.137v-.013h.248v-.014h.137v-.014h.1a3.464,3.464,0,0,1,.948-.082H97.8v-.014h.124v-.014h.1c.271-.08.664-.057.934-.137h.1v-.014h.137V33.67h2.1v-.014h.124c.1-.029.227-.04.329-.069h.138v-.014h.274V33.56l.22-.014v-.014h.069v-.014h.055v-.013h.069v-.014h.1v-.014h.1v-.014h.123V33.45H103v-.014h.1v-.014h.069v-.014h.069V33.4h.1v-.014h.137v-.014h.3v-.013h.124c.1-.03.228-.04.33-.069h.137v-.014h1.1v-.014h.124v-.013h.1V33.23h.069v-.014h.068V33.2h.1v-.013h.109v-.014h.124v-.014h.124c.085-.024.192-.044.274-.068h.1v-.014h.123v-.014H107a3.25,3.25,0,0,0,.645-.014h.138v-.013h.1c.065-.019.157-.037.22-.055h.082v-.014h.069v-.014h.082v-.014h.083v-.013h.11v-.014h.123V32.9h.151v-.014l.454-.013H110.3v-.014h.151v-.014h.1v-.014h.083v-.013h.082c.062-.019.158-.037.22-.055h.1v-.014h.1v-.014h.124v-.013h.137v-.014h.179c.071-.02.195.009.274-.014a2.929,2.929,0,0,1,.426-.014c.027,0,.028-.013.028-.013h1.429l.6-.1.289-.013c.139-.041.3-.069.439-.11l.289-.014v-.014l.494-.013v-.014h.247s0-.012.028-.014h.151v-.014h.11v-.013h.1c.09-.027.209-.042.3-.069l.344-.014v-.013h.123c.1-.03.228-.04.33-.069h.138v-.014H119.3v-.014h.124v-.013h.1v-.014h.069v-.014h.068V32.1h.1V32.09h.069v-.014h.069v-.014h.069v-.014l.123-.013v-.014h.041v-.014h.042v-.014h.041V31.98l.1-.014v-.014h.055v-.013l.192-.014v-.014h.151v.014h.385v.014h.343l.371-.014v-.014h.138V31.9h.123v-.013h.193V31.87h.728v-.014h.123v-.014h.1a1.906,1.906,0,0,1,.412-.068h.659V31.76h.124v-.014h.1a2.232,2.232,0,0,1,.618-.068h.563v-.014h.124V31.65h.1a3.232,3.232,0,0,1,.866-.069h.577v-.013l.22-.014c.232-.07.53-.082.769-.151h.1v-.014h.137v-.014h.564a2.108,2.108,0,0,0,.59-.068h.1v-.014h.137v-.014h1.305v-.014h.124v-.013h.082v-.014h.069v-.014h.055V31.21h.055V31.2h.055v-.014h.055v-.014h.054v-.014h.042v-.013h.055v-.014h.041v-.014l.151-.013v-.014h.1v-.014h.165v-.014h.165v-.013h.11v-.014C132.682,31.015,132.777,31.039,132.815,31Zm-1.484,1.91.083.014v.013l.055.014v.014h.027v.014h.041V33h.028l.014.028.055.014.013.027h.028l.027.041h.028v.014l.055.041v.028l.055.041v.027l.027.014.014.055.027.014.014.055.028.013.013.055h.014v.028h.014l.027.082h.014v.042h.014v.027h.013V33.7h.014l.014.179h.014v.164h-.014v.152h-.014v.151h-.014v.151h-.013v.151h-.014v.165h-.014l-.013.8V38a1.786,1.786,0,0,0,.013.385v.48h.014v.481h.014l.013.962h.014v.481a2.666,2.666,0,0,1,.014.563v.22h-.014v.11c-.037.131-.044.294-.082.425l-.014.234h-.014l-.013.426a1.258,1.258,0,0,0-.014.288,2.3,2.3,0,0,0,.014.522l.013.756h.014v.357a2.1,2.1,0,0,1,.014.454v.1h.014V47.49h.013v.137c.029.1.04.228.069.33v.123h.014v.468h.013v.425h.014v.179h-.014V49.4H132.1l-.028.261h-.014v.055h-.013l-.014.1h-.014v.042h-.013v.041h-.014v.027h-.014l-.014.083h-.013l-.014.055h-.014v.027h-.014l-.013.069-.028.014-.014.055-.027.013v.028l-.041.027v.028h-.014l-.027.041h-.028l-.027.041-.055.014v.014l-.055.013v.014l-.248.069-.3.027v.014l-.426.014v-.014h-.165v-.014h-.1v-.014h-.068v-.013h-.069v-.014l-.11-.014v-.013l-.247-.069V50.4l-.124-.027v-.014h-.041v-.014h-.028v-.014l-.082-.013v-.014l-.124-.028v-.013h-.055v-.014h-.068v-.014h-.083v-.013l-.494-.042v-.013h-.083c-.064-.02-.157-.037-.22-.055h-.1V50.1h-.137v-.014h-.481v-.014h-.11v-.013h-.082v-.014l-.11-.014v-.014h-.055V50h-.055V49.99h-.055v-.014h-.055v-.014h-.082v-.013h-.1v-.014l-.549-.027v-.014h-.137V49.88h-.1v-.014h-.1c-.218-.065-.481-.085-.7-.151l-.22-.014v-.013h-.124v-.014h-.123V49.66h-.1v-.013h-.068v-.014h-.069v-.014h-.1v-.014h-.11v-.013l-.247-.014v-.014l-.165-.014c-.188-.058-.417-.081-.6-.137h-.1V49.4h-.123v-.013h-.687v-.014H122.5c-.1-.029-.228-.04-.33-.069h-.137v-.014h-.206l-1.182-.192h-1.181v-.014l-.22-.013c-.178-.056-.382-.1-.563-.152H118.6c-.107-.032-.258-.036-.37-.068h-.179v-.014a.821.821,0,0,0-.261.014h-.206v.013h-.247v.014h-.248a1.689,1.689,0,0,1-.412.014v-.014h-.11v-.014l-.137-.013c-.189-.059-.441-.067-.632-.124h-.1v-.014h-.138V48.7h-.384l-.742-.138h-.1v-.013h-.069v-.014H114.2V48.52h-.1v-.014h-.137v-.013H113.2v-.014l-.207-.014c-.078-.023-.182-.045-.261-.069h-.082v-.013h-.11v-.014h-.247v-.014h-.357v-.014h-.371v-.013h-.357v-.014h-.385V48.3h-.192a2.232,2.232,0,0,0-.5.014l-.811.014v.013h-.453a1.258,1.258,0,0,1-.288.014h-.838v-.014h-.151l-.3-.013v-.014h-.151V48.3h-.11v-.014h-.11v-.013h-.1a2.252,2.252,0,0,0-.6-.055,1.267,1.267,0,0,0-.289.014h-.357v.013h-.357v.014h-.357v.014H104.5v.013h-.358V48.3h-.975a3.438,3.438,0,0,0-1.017.124h-.082v.014h-.124v.013h-.178v.014h-.151a1.594,1.594,0,0,1-.358-.014h-.384v-.013h-.454v.013h-.192v.014h-.124v.014h-.123v.014h-.151v.013h-.248v.014c-.086.024-.231-.01-.316.014s-.231-.01-.316.014l-.59.013v.014h-.11v.014h-.083c-.094.028-.208.054-.3.082h-.082v.014h-.11V48.7l-.591.013v.014h-.1v.014h-.069v.014H96.85a3.315,3.315,0,0,1-1.773-.055h-.055v-.014h-.041v-.014H94.94v-.014H94.9v-.013h-.041V48.63l-.055-.014V48.6l-.069-.013-.014-.028-.055-.013v-.014l-.041-.014-.014-.027h-.027l-.055-.069-.11-.1V48.3l-.041-.027v-.028l-.041-.027-.014-.055-.028-.014v-.027h-.013l-.014-.055h-.014v-.042h-.014a1.146,1.146,0,0,1-.041-.37h.014V47.5h.014v-.151h.013V47.2h.014V47.05h.014v-.165h.014v-.233h.013v-2.61a2.678,2.678,0,0,1,.014-.564v-.206h.014v-.206h.014V42.86h-.014l-.028-.6V40.841h-.013v-.248h-.014V40.4h-.014v-.179h-.014l-.013-.329.013-.632h.014l.014-.206a2.085,2.085,0,0,0,.069-.577v-.22h-.014v-.206h-.014l-.027-.577a1.844,1.844,0,0,1-.014-.412,1.87,1.87,0,0,1,.288-1.086l.014-.055.028-.013v-.028l.041-.027v-.028l.1-.082.027-.041h.028l.014-.028.041-.014v-.013h.027v-.014H94.9V35.62h.041v-.013h.041v-.014h.041v-.014h.042v-.014h.068v-.013H95.2v-.014h.1v-.014h.11V35.51h.124V35.5h.151v-.014h.151c.019,0,0-.009.014-.014h.192v-.014h.234v-.013h.288v-.014l.577-.014V35.4h.234v-.013h.206v-.014h.165v-.014h.137v-.013H98v-.014h.109v-.014h.1V35.3h.082a3.614,3.614,0,0,1,1.044-.123h.7v-.014h.151l.343-.014v-.014h.22v-.013l.247-.014V35.1l.138-.014v-.013h.055v-.014h.055v-.014h.055V35.03h.055v-.014h.082V35h.11v-.014h1.168v-.013l.206-.014a3.709,3.709,0,0,1,1.016-.083,2.734,2.734,0,0,0,.577-.013h.138c.258-.074.582-.075.838-.151h.1V34.7h.123v-.014h.207v-.014h.137c.1-.029.228-.039.33-.068h.123V34.59h.481v-.014h.124v-.014h.1c.082-.024.19-.044.275-.068h.137V34.48h1.168a5.576,5.576,0,0,0,1.373-.082l.248-.014.577-.1.343-.014c.1-.029.228-.039.33-.069h.124v-.013h.192v-.014h.124c.118-.034.263-.048.384-.083h1.14c.071-.02.2.009.275-.013v-.014h.138l.288-.014V34.04h.22v-.013l.206-.014c.108-.033.238-.063.343-.1h.083V33.9h.11v-.014h1.868v-.013h.137v-.014h.1c.27-.08.663-.057.934-.138h.1v-.013h.124V33.7h.645a2.622,2.622,0,0,0,.756-.082l.206-.014v-.014h.494v-.014h.138c.1-.029.228-.039.329-.068h.124v-.014h.962a1.449,1.449,0,0,0,.329-.014h.138l1.47-.288h1.181v-.014h.138c.128-.037.283-.045.412-.082l.178-.014a3.932,3.932,0,0,1,1.113-.151l.769.013v-.013h.165v-.014h.11V32.9h.11v-.014h.11v-.013h.165a1.41,1.41,0,0,1,.371-.014v.014h.206v.013h.165V32.9h.013a1.437,1.437,0,0,0,.468-.027h.068v-.014h.055v-.014h.055v-.014l.137-.013V32.8c.068-.02.232.009.275-.027A2.294,2.294,0,0,1,131.331,32.914Zm-50.294,24.8h.15v.017a1.278,1.278,0,0,0,.4-.017l.233.017a3.763,3.763,0,0,1,.5,0h.166a2.439,2.439,0,0,1,.483.016l.15-.016H83.5v-.017h.283v.017h1.2a3.048,3.048,0,0,1,.467.016.389.389,0,0,0,.066.084V58.5a.339.339,0,0,0-.083.067h-.416s-.007.018-.05.016a1.326,1.326,0,0,0-.367-.016v.016l-.1-.016a1.784,1.784,0,0,0-.45.016c-.146.041-.4-.111-.45.067-.049.051-.033.185-.033.283v.183h-.016l.016.217v.2h.017c0,.033-.017.033-.017.033v1.749a.976.976,0,0,1,.017.333h-.017l.017.1h-.017c-.022.1,0,.236-.016.317a.347.347,0,0,1-.134.017c-.031-.035-.077-.041-.116-.067l-.017-.033-.05-.017v-.017l-.067-.016v-.017l-.066-.017v-.016h-.034v-.017h-.033v-.017H83v-.016h-.034v-.017l-.066-.017-.017-.033-.066-.017-.017-.033-.1-.033v-.017l-.067-.05c-.019-.028,0-.038-.033-.066l-.017-1.783c.028-.1-.011-.265.017-.366h.017l-.017-.184v-.5h-.017v-.066l-.116-.083-.417.016a1.926,1.926,0,0,0-.416-.016,5.54,5.54,0,0,1-.95-.017l-.017-.05a.2.2,0,0,1-.033-.15h.017v-.133a1.214,1.214,0,0,1,.016-.433c.02-.01.026-.029.034-.034h.033V57.73C80.824,57.7,80.975,57.767,81.037,57.713Zm6.514.05.016.083h.017v.633H87.6a1.25,1.25,0,0,1-.017.4l.017.533c.052.031.047.062.133.067.032.028.124.016.183.016h1.649a2.6,2.6,0,0,0,.584-.016c.178-.05.426.085.516-.05.067-.069.033-.323.033-.45l-.016-.783a1.776,1.776,0,0,0,.016-.4.389.389,0,0,0,.084-.066,2.536,2.536,0,0,1,.6.016l.184-.016v.016l.066.017.017.067h.017v.6l.016.283h-.016c-.027.1.005.248-.017.334v.083h.017v2.349a2.043,2.043,0,0,1,0,.4v.216l-.034.017v.033l-.1.017v.017a1.661,1.661,0,0,1-.433-.017h-.333v-.017h-.033l-.017-.05H90.7v-.033h-.016l.016-.35V60.9a1.7,1.7,0,0,0-.016-.45c-.017-.067-.064-.073-.1-.117-.78-.005-1.5,0-2.249,0l-.517-.016v.016l-.15.017-.016.033c-.044.041-.045.016-.05.1a1.574,1.574,0,0,0-.017.433v.8l.017.3h-.017l-.017.1c-.018.01-.026.029-.033.033H87.5v.017a1.852,1.852,0,0,1-.45-.017l-.367.017c-.031-.052-.061-.047-.066-.133-.033-.038,0-.248,0-.334v-.133H86.6l.017-.166V60.378H86.6v-.133l.017-.316a2.08,2.08,0,0,1,0-.517v-.133l-.017-.533h.017v-.583h.016v-.05a3.072,3.072,0,0,1,0-.333c.018-.01.027-.03.034-.034H86.7V57.73h.25a1.161,1.161,0,0,1,.333,0h.2v.016Zm6.447.8c-.012.049-.028.037-.033.05v.066h-.017a1.54,1.54,0,0,0,.017.417v.133h-.017l.017.183c.041.024.046.052.1.067.042.038.136.033.217.033h1.483c.128,0,.362-.013.433,0h.483V59.5h.1v.017l.083.017a.877.877,0,0,1,.05.45H96.9c-.005.028.015.028.016.033a.262.262,0,0,1-.083.283.17.17,0,0,1-.133.033,2.491,2.491,0,0,0-.517-.016h-.166V60.3h-.067v.017h-.283V60.3l-.15.017L95.3,60.3v.017h-.133v.016l-.25-.016v.016l-.283-.016h-.55v.016L94,60.345c-.01.017-.03.027-.033.033v.034h-.017v.066h-.017l.017.2c.008.2-.055.608.1.65a.338.338,0,0,0,.233.033v-.016H94.3v.016h.083a2.248,2.248,0,0,0,.566-.016.357.357,0,0,1,.167.016h.633v-.016l.283.016h.916l.117.084v.033l.067.05v.033l.05.034v.033l.033.016.017.067.033.017.017.066.05.034v.033a.538.538,0,0,1,.133.25c-.019.019-.007,0-.017.033a1.151,1.151,0,0,1-.3.034v-.017h-.2v.017l-.5-.017H93.831a5.124,5.124,0,0,1-.8-.017c-.016-.03-.023-.026-.034-.066a.5.5,0,0,1-.016-.25H93v-.883a3.32,3.32,0,0,0-.016-.467c-.029-.172.076-.312.033-.466A1.74,1.74,0,0,1,93,59.629V58.213a2.838,2.838,0,0,1,.017-.433l.05-.017v-.017H93.1V57.73h1.383v-.017l.25.017a.043.043,0,0,0,.05.016,4.2,4.2,0,0,1,.749-.016h.1v-.017c.034-.005.034.017.034.017h.416v-.017l.467.017v-.017l.266.017h.567a.145.145,0,0,1,.033.116.817.817,0,0,0-.117.183l-.033.017v.033l-.05.034v.033l-.05.033v.034l-.05.033v.033l-.033.017-.034.1-.033.017v.033l-.116.083a2.717,2.717,0,0,0-.617.017l-.333-.017H94.531c-.023,0,.007.017-.017.017H94.5v-.017h-.434v.017Zm-4.132,5.7a1.593,1.593,0,0,1,.384.05h.183c.126.037.295.059.416.1h.067v.016h.05v.017h.05v.017h.05v.016h.05v.017l.1.033v.017h.033v.017h.033v.016h.034v.017h.033v.017l.1.033v.017l.05.016.017.034.066.016.017.034.067.016.016.034h.034l.016.033h.033l.05.067h.034l.033.049.117.1v.034l.133.1v.033l.05.033v.034l.033.016v.034l.034.016.033.1H92.3v.034h.016v.033h.017l.033.1h.017v.05H92.4v.033h.016v.05h.017v.033h.017l.016.084h.017v.05H92.5v.066h.017v.084h.017v.083h.016v.083h.017v.15h.017l-.017.567h-.017l-.016.283h-.017l-.017.1h-.016v.033h-.017v.05l-.1.283-.033.017v.033l-.033.017v.033l-.05.034v.033l-.034.016-.016.05h-.017l-.017.067-.033.017v.033l-.033.017v.033l-.084.067-.15.166h-.033l-.033.05h-.034l-.033.05H91.7l-.017.034h-.033l-.017.033-.05.017v.016l-.066.017-.017.033-.1.033v.017h-.033v.017l-.1.033v.017h-.05v.016l-.067.017v.017l-.166.033v.017h-.034v.016H90.9v.017h-.05v.017H90.8v.016l-.15.017v.017h-.083v.016H90.5v.017h-.1v.017h-.283v.016h-.183a1.719,1.719,0,0,1-.633-.016l-.317-.017-.666-.2v-.017l-.1-.033v-.017h-.033v-.016H88.15v-.017h-.033v-.017h-.033v-.016H88.05v-.017h-.033l-.033-.033h-.033v-.017l-.05-.016-.017-.034-.067-.016v-.017l-.05-.017-.016-.033h-.034l-.016-.033-.1-.084v-.033l-.15-.133a1.3,1.3,0,0,1-.15-.2l-.033-.017-.017-.066-.033-.017-.017-.067h-.017v-.033h-.016v-.033h-.017l-.033-.1H87.1v-.05h-.017v-.034h-.016l-.017-.15c-.023-.073-.061-.174-.083-.249v-.184h-.017V66.81h-.017a1.585,1.585,0,0,1,.034-.5l.016-.25H87l.017-.133h.016v-.05h.017v-.05h.017v-.05h.016v-.05H87.1l.017-.067h.016v-.033h.017l.05-.15.033-.017.017-.066h.017l.016-.05.033-.017.017-.067.05-.033v-.033l.15-.134.017-.05.033-.016.05-.067h.033l.034-.05h.033l.033-.05H87.8l.016-.033h.034l.016-.033.05-.017v-.017h.034l.033-.033h.033v-.017h.033v-.016l.067-.017.017-.033.066-.017v-.017l.1-.033v-.017h.05v-.016l.067-.017v-.017l.083-.016v-.017l.117-.017v-.016h.067v-.017h.083v-.017h.083v-.016l.167-.017v-.017H89.1v-.016h.1v-.017h.1v-.017h.316a.044.044,0,0,0,.05.017v-.017C89.733,64.261,89.824,64.3,89.866,64.261Zm-6.713.016a3.754,3.754,0,0,1,2.1.434l.066.016.017.034h.033v.016H85.4l.033.034h.033l.017.033c.1.065.253.123.267.266h-.017v.034l-.05.033v.017h-.033l-.017.033H85.6l-.017.033h-.033l-.034.05h-.033l-.033.05h-.034l-.033.05h-.033l-.05.067h-.034l-.05.067a.357.357,0,0,1-.183.066c-.029-.033-.036-.014-.066-.033l-.017-.033h-.033l-.034-.05h-.033l-.017-.034-.05-.016v-.017h-.033l-.017-.033H84.7l-.017-.034h-.033l-.017-.033H84.6l-.017-.033h-.033v-.017h-.033V65.26h-.05v-.016h-.034v-.017l-.183-.033v-.017H84.2V65.16h-.083v-.016h-.083v-.017h-.084V65.11h-.116v-.016a.483.483,0,0,0-.184.016,1.753,1.753,0,0,0-.316,0h-.15l-.317.034v.016H82.8v.017h-.05v.017H82.7v.016h-.05v.017H82.6v.017h-.05v.016l-.15.034v.016l-.1.034v.016H82.27l-.017.034H82.22l-.267.25v.033l-.066.05v.033l-.034.017-.016.066-.034.017v.033h-.016v.05H81.77l-.017.067h-.016v.05a1.127,1.127,0,0,0-.1.483v.2h.016v.2h.017v.15h.017v.066H81.7v.034h.017v.05h.017l.016.066h.017l.017.067.033.017.017.066.033.017v.033l.083.067v.033l.117.1.017.034h.033l.05.066H82.2l.017.034.05.016v.017H82.3l.017.033.066.017v.016h.034v.017l.1.033v.017h.05v.017H82.6v.016h.067v.017h.05v.017h.066v.016h.067v.017h.1a2.34,2.34,0,0,0,1.016.033h.15v-.016l.183-.017v-.017h.067v-.016l.183-.05v-.017l.067-.017v-.016h.05v-.017H84.7v-.017l.083-.016.017-.034.067-.016.033-.05h.033l.05-.067h.034l.05-.066h.016c.019-.028,0-.038.033-.067.012-.15.067-.411-.083-.45-.068-.063-.293-.033-.416-.033h-.633a1.618,1.618,0,0,1-.417-.017.311.311,0,0,1-.016-.116c.049-.034.007-.015.033-.05l.066-.05v-.034l.034-.016v-.034l.033-.016v-.034l.033-.016v-.034l.034-.016.016-.067h.017l.017-.05.033-.017v-.033l.033-.017v-.033h.017l.083-.1h.05c.029-.025.1-.016.15-.016h.85l.166-.017v.017h.134a3.972,3.972,0,0,1,.633.016l.033.05h.017v.033h.016l-.016.3v.8a1.161,1.161,0,0,1-.017.4l-.033.016v.034l-.15.133v.033l-.083.067-.017.033H85.7l-.067.084H85.6l-.05.066h-.034l-.016.034-.05.016v.017l-.1.033-.017.034-.1.033v.016H85.2v.017l-.1.033v.017l-.083.017v.016h-.034v.017l-.233.05v.017l-.1.016v.017h-.033v.017h-.05v.016l-.15.017v.017h-.067v.016h-.066v.017h-.1a1.3,1.3,0,0,1-.35.033h-.184v.017a.449.449,0,0,1-.183-.017l-.533-.016v-.017l-.383-.033v-.017h-.067v-.017H82.42v-.016h-.067v-.017H82.3v-.017h-.05v-.016H82.22v-.017l-.1-.017v-.016l-.067-.017v-.017l-.083-.016v-.017h-.05v-.017l-.067-.016v-.017l-.066-.017-.017-.033h-.033l-.034-.05H81.67l-.033-.033H81.6v-.017H81.57v-.016l-.05-.017-.017-.033H81.47l-.067-.084H81.37l-.116-.133-.067-.05v-.033l-.117-.1v-.034l-.05-.033v-.033l-.033-.017-.033-.1-.034-.016-.016-.067h-.017l-.033-.1h-.017v-.05H80.82v-.033H80.8v-.05h-.017v-.05H80.77v-.05h-.016v-.05h-.017v-.05H80.72v-.084H80.7l-.017-.149H80.67v-.1a1.874,1.874,0,0,1-.016-.417v-.166h.016v-.184h.017v-.1H80.7v-.066h.016v-.05h.017V65.91h.017v-.067h.016v-.05h.017l.033-.1h.017V65.66h.017v-.033h.016v-.033h.017V65.56H80.9v-.033h.016v-.05h.017l.017-.067.033-.016V65.36H81v-.033l.033-.017v-.033l.067-.05v-.033l.083-.067v-.033l.133-.117.034-.05h.033l.033-.05h.033l.017-.033H81.5l.034-.05h.033l.017-.033h.033l.017-.034.066-.016.017-.034.067-.016v-.017h.033v-.017l.1-.033v-.017h.05v-.016H82l.017-.034h.05v-.016H82.1v-.017h.05v-.017h.05v-.016h.05v-.017l.233-.033v-.017l.134-.017v-.016h.05v-.017h.1v-.017h.1v-.016h.117v-.017C83.045,64.277,83.115,64.31,83.153,64.277Zm12.694,0a4.676,4.676,0,0,1,1.949.284v.016l.067.017v.017H97.9l.017.033.066.017.017.033h.033l.017.033h.033l.017.034h.033l.017.033h.033l.017.033h.033v.017l.05.017.017.033h.033l.034.05H98.4l.116.133.05.033v.034l.05.033v.033l.05.034v.033l.05.033v.034l.034.016v.034l.033.016.033.1h.017v.034h.017v.033h.016l.034.1h.016l.017.1h.017v.05h.016v.05h.017v.05H99v.033h.016l.017.133h.017v.117A2.188,2.188,0,0,1,99,67.243l-.017.133-.15.383-.033.017v.033l-.034.017v.033l-.033.017v.033h-.017v.033l-.033.034v.033l-.033.017v.033l-.034.017-.1.116h-.033l-.233.25h-.033l-.017.034-.05.016v.017l-.067.017-.016.033h-.034L98,68.592h-.033v.017h-.034l-.016.033h-.05l-.017.033h-.033v.017h-.034v.017h-.05v.016l-.066.017v.017l-.217.05v.016H97.4v.017h-.05v.017H97.3v.016H97.23v.017h-.067v.017H97.1v.016H97.03v.017h-.117v.017l-.466.016a1.11,1.11,0,0,1-.35.017v-.017H95.78v-.016h-.133v-.017h-.133v-.017h-.083l-.467-.133v-.017l-.083-.016v-.017h-.034v-.017l-.1-.016v-.017l-.066-.017v-.016l-.15-.05-.017-.033-.066-.017v-.017l-.05-.016-.017-.034h-.033l-.017-.033-.05-.017-.083-.1h-.034l-.066-.083h-.034l-.016-.033-.067-.05v-.034l-.083-.066v-.034l-.05-.033v-.033l-.05-.034v-.033l-.033-.017v-.033l-.034-.016-.016-.05H93.7l-.05-.15h-.017l-.016-.067H93.6v-.05h-.017l-.016-.067h-.017v-.05h-.017v-.066h-.016v-.067H93.5v-.083a1.944,1.944,0,0,1-.033-.916l.033-.3h.017v-.05h.016v-.05h.017v-.05h.017l.016-.1H93.6l.017-.067h.016v-.033h.017v-.05h.017l.016-.067H93.7l.017-.066.033-.017.017-.067.033-.016V65.31l.05-.033v-.033l.067-.05V65.16l.033-.016.083-.1h.033l.217-.233h.033l.017-.034.05-.016v-.017h.033l.017-.033.1-.034.017-.033.066-.017v-.016l.1-.034v-.016l.1-.017v-.017l.067-.016v-.017l.083-.017v-.016l.133-.017v-.017h.05v-.016h.05v-.017h.05v-.017h.084v-.016h.083v-.017H95.5v-.017h.067v-.016C95.633,64.289,95.8,64.316,95.847,64.277Zm5.331.117h.2v.017h.749a2.391,2.391,0,0,1,.534.016h.333v.017h.166c.083.024.2.042.284.067h.1v.016h.05v.017h.049v.017h.05v.016h.05v.017h.067v.017h.05v.016h.05v.017h.05v.017h.05v.016l.1.034v.016l.067.017.016.033.15.05.017.034h.033l.017.033h.033l.033.05h.034v.016l.05.017.016.033h.034l.116.134a1.738,1.738,0,0,1,.25.25l.017.066.033.017v.033l.034.017.049.15h.017v.033h.017v.033h.016l.034.1h.016l.017.1h.017v.034h.016v.066h.017v.084h.017v.116h.016v.1a2.054,2.054,0,0,1,.017.5h-.017v.217h-.016v.083h-.017v.066h-.017v.067h-.016l-.017.083h-.017v.034h-.016v.05h-.017l-.017.066h-.016v.034h-.017v.05h-.017l-.033.1h-.016v.033h-.017l-.017.067-.033.016v.034l-.05.033v.033l-.1.083v.034l-.15.133-.05.067h-.033l-.034.05h-.033v.016l-.05.017-.017.033h-.033l-.033.05-.05.017-.017.033h-.033l-.033.034h-.034v.016h-.033l-.017.034-.066.016v.017l-.067.017v.016l-.117.017v.016h-.05v.017h-.05v.017h-.05v.016h-.033v.017l-.1.017v.016h-.066v.017l-.15.017v.016h-.1v.017h-.15v.017h-.1v.016h-.1v.017h-1.05a5.057,5.057,0,0,1-.566,0h-.667a2.725,2.725,0,0,1-.433-.017l-.016-.05h-.017v-.033h-.017v-.666h-.016l.016-.2V65.227h-.016l.016-.466c0-.119-.022-.268.05-.317.041-.039.119-.033.2-.033h.483C101.026,64.411,101.141,64.426,101.178,64.394Zm17.392.05h.033l.017-.033h.666a.919.919,0,0,1,.284.016v.017h.033l.033.05h.034l.133.167.05.016.083.1.283.267v.033l.217.183v.034l.616.6.367.384.2.183a1.106,1.106,0,0,1,.083.133l.033.017.084.1h.033l.15.166.067.05.016.034h.034l.049.066.034.017v.033l.15.133c.079.08.09.179.25.184.015-.03.023-.027.033-.067a.479.479,0,0,0,.033-.283,4.177,4.177,0,0,1,0-.55,2.427,2.427,0,0,0-.016-.333l.016-.2h-.016v-.267h.016v-.516h.017l-.033-.35h.016v-.3h.017v-.066c.045-.027.041-.046.117-.05.023-.019.13,0,.2,0,.189,0,.367-.016.517,0l.05.066h.017v.317a.408.408,0,0,1,.016.216,2.9,2.9,0,0,0-.016.65v.317h-.017v.083h.017v.283a2.47,2.47,0,0,0,0,.367l-.017.483h.017v.2h-.017l.017.15a1.235,1.235,0,0,0,0,.333v.666c0,.065.015.18-.017.217-.015.068-.048.084-.133.083a1.469,1.469,0,0,1-.334,0h-.333c-.078-.029-.128-.112-.183-.167l-.05-.033-.283-.3-.333-.316v-.034l-.05-.033-.1-.116h-.034l-.066-.084h-.034l-.366-.4L121,67.11l-.35-.367-.166-.15V66.56l-.217-.2-.183-.2L120,66.093V66.06l-.034-.017-.05-.066h-.033V65.96l-.066-.05c-.094-.093-.109-.2-.3-.2a.226.226,0,0,1-.05.067c0,.639,0,1.289,0,1.966a6.891,6.891,0,0,1-.017,1.032.969.969,0,0,1-.1.067h-.366v.017l-.384-.017-.05-.067h-.016v-.749h-.017c-.011-.027.016-.031.017-.034V66.876h-.017l.017-.4V65.81l-.017-.25h.017v-.516l-.017-.133h.017v-.4h.016Zm8.663-.05c.071.025.194-.009.283.017s.238-.011.333.016v.017h.1v.017h.117v.016h.1c.083.025.186.058.266.084h.084v.016h.05v.017h.05v.017h.05v.016l.1.034v.016h.033v.017h.05v.017l.066.016v.017h.034v.017H129l.016.033.067.017v.016l.05.017.017.033h.033v.017l.05.017.017.033h.033l.033.05h.034l.033.05h.033l.1.116.05.034v.033l.05.033v.034l.033.016v.034l.05.033v.033l.034.017.016.05h.017v.033l.05.034.017.066.033.017.017.066h.016l.017.067h.017v.05h.016v.033h.017l.017.117H130v.067h.017v.05h.017v.05h.016v.05h.017v.066h.017v.383a1.624,1.624,0,0,1-.1.7v.05h-.017v.033h-.017l-.016.1h-.017l-.033.1h-.017v.034h-.017l-.016.066-.034.017v.033l-.033.017v.033l-.033.017v.033h-.017l-.017.05-.033.017v.033l-.083.067-.167.183h-.033l-.083.1-.05.017-.017.033-.067.017-.016.033-.067.017-.017.033-.05.017v.016l-.066.017v.017l-.067.016v.017h-.05v.017l-.066.016v.017h-.05v.016h-.05v.017h-.05v.017h-.05v.016l-.134.017v.017h-.066v.016h-.05v.017h-.034v.017h-.066v.016l-.25.017v.017h-.117a2.545,2.545,0,0,1-.7.033l-.417.017v-.017h-.983v.017a1.2,1.2,0,0,1-.383-.017h-.15v-.017c-.054-.014-.084.024-.117.017v-.017h-.049v-.016l-.05-.017c-.024-.254-.017-.569-.017-.85V66.626a3.3,3.3,0,0,1,0-.5v-.2H125l-.017-.05A1.293,1.293,0,0,1,125,65.46l-.017-.749c0-.129-.016-.253.083-.284a1.7,1.7,0,0,1,.45-.016h1.249A1.785,1.785,0,0,0,127.233,64.394Zm8.413,2.282h.033l.017.034h.133c.023-.029.013,0,.033-.017l.034-.05h.016V66.61l.034-.017v-.017l.05-.033V66.51l.066-.05v-.034l.034-.016v-.033l.05-.034V66.31l.116-.1v-.033h.017l.033-.05.05-.034V66.06l.05-.033v-.034h.017l.016-.05.034-.016v-.034l.05-.033v-.033l.1-.084V65.71l.116-.1v-.033l.05-.033.017-.067.033-.017v-.033l.05-.033.034-.05h.016V65.31l.083-.066V65.21l.034-.016.016-.05.067-.05V65.06l.05-.033v-.033l.033-.017V64.96l.034-.016v-.033l.066-.05v-.034l.1-.083.017-.05.033-.017v-.033l.134-.117v-.033l.033-.033h.033v-.017c.021-.016.032-.012.05-.033h.633l.233-.017v.017h.067l.05.066h.017v.883a.317.317,0,0,0-.017.184,2.852,2.852,0,0,1,.017.7v1.183l.016.466h-.016v.65l.016.2h-.016v.033h-.017l-.017.05c-.179.017-.411.016-.616.017l-.217.017v-.017l-.066-.017-.017-.05h-.017v-.033h-.016l.016-.533v-.8l-.016-.316h.016V66.91a1.907,1.907,0,0,0-.016-.434v-.2h.016a.894.894,0,0,0-.033-.4.258.258,0,0,0-.1-.017c-.026.041-.02.01-.05.033l-.016.034h-.017v.033l-.067.05v.033l-.066.05v.034l-.117.1v.033l-.067.05v.033l-.066.05v.033l-.067.05v.034l-.067.05v.033l-.166.15v.033l-.05.034v.033h-.017l-.016.05-.034.017v.033l-.133.117v.033l-.033.017v.033l-.05.033v.033l-.117.1v.034l-.05.033v.033l-.05.034v.033l-.25.233v.034l-.05.033-.016.05-.034.017v.033l-.033.016v.034l-.033.016v.034h-.017a.129.129,0,0,0-.033.066c-.031.009-.091.06-.117.05v-.016h-.05l-.067-.084H135.6v-.033l-.05-.033v-.034l-.083-.066v-.033l-.034-.017v-.017l-.033-.016-.017-.05-.133-.117v-.033l-.033-.017-.017-.05-.067-.05v-.033l-.066-.05v-.034l-.034-.016v-.034l-.083-.066v-.034l-.1-.083v-.033l-.1-.083v-.034l-.05-.033V66.86l-.05-.034v-.033h-.016l-.017-.05-.033-.017v-.033l-.1-.083-.017-.05-.067-.05v-.034l-.116-.1v-.034l-.067-.05V66.26l-.067-.05v-.033l-.1-.084-.016-.05-.05-.033c-.065-.091-.058-.163-.217-.167l-.016.034c-.058.059-.017.18-.034.283v.017H133.7l.016.15v.383a5.279,5.279,0,0,1,0,.549l-.016.184a2.23,2.23,0,0,1,.016.483l.017.783h-.017v.066a.364.364,0,0,0-.083.067,4.984,4.984,0,0,1-.816-.017l-.017-.05c-.041-.046-.017-.22-.017-.3l-.016-.467a.814.814,0,0,0,.033-.3,2.8,2.8,0,0,1-.017-.633v-.633a1.774,1.774,0,0,1,.017-.366c.011-.042-.013-.061-.017-.084v-1h-.016l.033-.533c.03-.016.026-.023.067-.034.048-.042.159,0,.233-.016v-.017a1.709,1.709,0,0,1,.45.017c.117.019.236-.019.316.033l.05.067.1.083.017.05.066.05v.033l.034.017v.033l.05.034v.033l.066.05v.033l.067.05v.033l.133.117v.033l.067.05v.034l.033.016.017.05h.017v.034l.05.033v.033l.066.05v.034l.083.066v.034l.034.016.016.05.067.05v.033l.05.034v.033l.05.033v.034l.067.05.016.05.034.016v.034l.116.1v.033l.05.033v.034l.117.1v.033l.083.066v.034l.05.033v.033l.033.017.017.05h.017A.182.182,0,0,1,135.646,66.676Zm11.2-2.282a1.5,1.5,0,0,0,.4.017v-.017h.183a3.1,3.1,0,0,0,.666.017h.4l.133.016a4.588,4.588,0,0,1,.817-.016l.3-.017v.017h.234c.022.006-.007.013.016.016h.184v.017h.083v.017h.083v.016h.083v.017h.1v.017l.117.016v.017h.05v.017h.05v.016l.1.017v.017l.1.033v.017l.067.016.016.034.1.033.05.067h.033l.117.133h.017l.016.033h.034l.016.05.067.05.017.067.033.016.017.067h.016l.017.067h.017v.066h.016a1.494,1.494,0,0,1,.084.55v.15h-.017v.133h-.017l-.016.117h-.017l-.033.1h-.017v.033h-.017v.05h-.016l-.017.067h-.017v.033l-.033.017v.033l-.217.2-.1.117h-.033l-.033.05h-.034l-.016.033-.067.017v.016h-.033v.017l-.1.033v.017l-.15.033v.017h-.033v.016h-.05l-.05.067h-.017v.117c.021.017.017.029.033.05h.017v.033l.1.083v.034l.167.15v.033l.1.083v.033l.083.067v.033l.066.05v.034l.184.166v.034l.116.1v.033l.117.1v.033l.05.034v.033l.05.033v.033l.033.017a.177.177,0,0,1,.05.117.359.359,0,0,1-.216.033v-.017l-.267.017c-.229,0-.516.032-.65-.067l-.033-.033v-.033l-.067-.05v-.034l-.033-.016a.88.88,0,0,0-.083-.133l-.067-.05v-.034l-.166-.15v-.033l-.134-.117v-.033l-.083-.067v-.033l-.1-.083v-.033l-.067-.05v-.034l-.033-.016v-.034l-.05-.033v-.033l-.133-.117v-.033l-.167-.15a1.12,1.12,0,0,0-.366-.017v.017a.347.347,0,0,1-.15-.017h-.433a2.186,2.186,0,0,0-.65.033c-.016.031-.055.069-.067.1v.417a5.752,5.752,0,0,1-.033.916c-.03.016-.026.023-.067.033-.035.032-.152.017-.216.017a3.666,3.666,0,0,1-.6-.017c-.016-.03-.023-.026-.033-.066-.039-.045-.017-.207-.017-.283v-3.7a.8.8,0,0,1,.017-.333l.05-.017v-.016h.05Zm10.878.033v.084c-.041.023-.054.062-.083.083H157.6l-.034.05h-.033l-.033.05h-.034l-.033.05H157.4l-.15.167h-.034l-.05.066h-.033l-.05.067h-.033l-.117.133H156.9l-.067.083H156.8l-.033.05h-.034l-.066.084h-.034l-.066.083h-.034l-.166.183h-.034l-.05.067h-.033l-.05.066h-.033l-.033.05-.05.017-.1.117h-.034l-.1.116v.034h-.016a.313.313,0,0,0,.05.2l.05.033.05.066H156v.034l.05.033v.033l.05.034v.033l.067.05v.033l.05.034v.033l.066.05v.033l.167.15v.034l.033.016v.034l.084.066v.033l.1.084v.033l.083.067v.033l.033.017.017.05.067.05v.033l.083.067v.033l.033.017v.016l.033.017v.033l.084.067v.033l.083.067v.033l.067.05v.033l.05.034v.033l.05.033v.034l.066.05v.033l.067.05v.033l.067.05v.034l.133.116v.034l.066.05v.033l.034.016a.283.283,0,0,1,.083.184,2.122,2.122,0,0,1-.666.033c-.086-.075-.242.039-.35,0v-.017l-.067-.016-.05-.067-.15-.133v-.033l-.1-.084v-.033l-.083-.067v-.033l-.05-.033v-.034l-.067-.05v-.033l-.083-.067v-.033l-.033-.017v-.033l-.15-.133v-.034l-.05-.033v-.033l-.033-.017v-.033l-.05-.033v-.034l-.084-.066v-.034l-.083-.066v-.034l-.1-.083v-.033l-.117-.1v-.034l-.033-.016-.016-.05-.084-.067v-.033l-.066-.05c-.076-.106-.128-.241-.3-.25v.017l-.084.016-.033.05h-.033l-.05.067h-.034l-.083.1h-.033l-.083.1h-.034l-.066.083h-.017l-.017.033H154.4l-.2.217h-.033l-.034.05-.066.017-.034.05H154l-.016.033-.067.05-.033.1h-.017a.764.764,0,0,0-.017.283h.017a1.916,1.916,0,0,1-.017.483c-.037.133.047.2-.066.267-.044.044-.146.033-.234.033a2.108,2.108,0,0,1-.633-.033,3.364,3.364,0,0,1-.033-.867l.017-.216a1.836,1.836,0,0,1-.017-.4V65.61a3.443,3.443,0,0,1,0-.433v-.2a3.306,3.306,0,0,1,.017-.516c.018-.01.026-.03.033-.034h.033v-.016h.283a2.236,2.236,0,0,1,.55.016.21.21,0,0,1,.034.067c.026.031.016.11.016.167v1.2h.017a.549.549,0,0,1-.017.217,1.457,1.457,0,0,0,.034.483.311.311,0,0,0,.116.016c.031-.035.078-.039.117-.066l.033-.05h.033l.05-.067h.034l.066-.083h.034l.166-.183h.034l.1-.117h.033l.066-.083h.034l.1-.117h.033l.133-.15h.034l.05-.066h.033l.033-.05h.034l.033-.05h.033l.2-.217h.033l.067-.083h.033l.067-.084h.033l.05-.066h.034l.033-.05h.033l.05-.067h.034l.2-.216h.033l.066-.084h.034l.05-.066h.033l.067-.084h.033l.017-.033.083-.017v-.016h.133a1.58,1.58,0,0,1,.417-.017v.017h.166A2.666,2.666,0,0,1,157.719,64.427Zm1.516-.033.167.017a3.851,3.851,0,0,1,.566.016l.833-.033c.51.01,1.069.017,1.633.017h.3v-.017c.052-.014.078.014.116.017h.383a.562.562,0,0,1,.234.016v.017c.038.034.028.013.033.083-.033.029-.014.038-.033.067l-.05.033v.034l-.034.016v.034l-.033.016-.017.05h-.016l-.017.067-.033.017-.034.1-.05.034v.033l-.133.117-.017.033-.066.017v.016h-.683c-.114,0-.244.009-.333.017l-1.117-.017c-.194,0-.676-.042-.749.067-.044.044-.034.145-.034.233v.517h.017l.017.083.05.033v.017h.033v.017h.05v.016H161l.716-.016v.016h.067a2.546,2.546,0,0,1,.516.017.337.337,0,0,0,.15-.017,1.867,1.867,0,0,1,.5.017c.016.03.023.026.033.067.026.027.017.1.017.149a1.916,1.916,0,0,1-.017.484c-.011.045-.018.043-.05.066v.017h-.666a4.334,4.334,0,0,0-.5,0,1.95,1.95,0,0,1-.483,0h-.266v-.017h-.084v.017h-.316c-.185,0-.493-.05-.533.1-.046.046-.034.158-.034.25v.549h.017l.017.084a.774.774,0,0,0,.116.066h.683v.017l.267-.017a1.278,1.278,0,0,0,.316,0h.1v-.016a.571.571,0,0,1,.267.033l.167-.017h1.049v.017h.033l.1.083.017.067.033.017v.033l.034.017v.033l.05.033.016.067.034.017v.033l.033.017.017.066.033.017v.033l.05.033a.261.261,0,0,1,.067.184l-.05.016c-.049.043-.235.017-.317.017h-.983v.017l-.283-.017h-.716l-.45-.017v.017h-.4a1.782,1.782,0,0,1-.45,0h-.283s0,.015-.033.017l-.167-.017-.217.017v-.017h-.066l-.05-.067h-.017v-.266a.539.539,0,0,1-.016-.267,2.382,2.382,0,0,0,.016-.533v-.216a1.807,1.807,0,0,1,.017-.367V67.06h-.017v-.634l-.016-.649h.016v-.15a1.782,1.782,0,0,1,0-.45v-.266h-.016l.016-.134h-.016a.681.681,0,0,1,.033-.316.255.255,0,0,0,.067-.05h.066Zm7.23,4.348a5.076,5.076,0,0,1-.016-.766v-.25h-.017l.017-.217h.016v-.116a2.749,2.749,0,0,1-.016-.6V65.41a.984.984,0,0,1-.05-.116c-.05-.012-.038-.028-.05-.034h-.067v-.016h-1.249a3.14,3.14,0,0,1-.484-.017.36.36,0,0,0-.066-.083,3.808,3.808,0,0,1,.033-.683c.171-.092.31-.05.55-.05a1.622,1.622,0,0,0,.35-.017l.549.017h.833l.167.016h.05v-.016h.183v-.017a.043.043,0,0,1,.05.017h1.2v.016h.2v-.016h.2a3.048,3.048,0,0,1,.467.016.191.191,0,0,1,.033.067h.017v.133a2.551,2.551,0,0,1-.017.383c0,.029.016.029.017.034a.24.24,0,0,1-.067.2h-1.749v.016h-.05l-.05.067c-.049.05-.033.185-.033.283v1.05H167.4c-.009.04.017.043.017.066a.037.037,0,0,0-.017.034,2.3,2.3,0,0,1,.017.416l-.017.383a2.144,2.144,0,0,1,.017.467v.183H167.4l-.017.067-.066.05v.016h-.033l-.017.034h-.033v.016l-.067.017-.017.033h-.033v.017h-.033v.017h-.034l-.033.033h-.033l-.017.033h-.033l-.017.034h-.033l-.017.033-.067.016-.016.034h-.034v.016h-.05v.017h-.033a.3.3,0,0,1-.166.067C166.48,68.74,166.5,68.752,166.465,68.742Zm-52.326-4.331a5.5,5.5,0,0,1,1.016.033l.033.05h.017v.033l.033.017v.033l.034.017.016.067.034.016.166.383h.017v.034l.033.016v.034l.033.016v.034l.034.016v.034l.033.016.017.067h.016l.017.067h.017v.05h.016l.017.066h.017v.05h.016v.034l.034.016.016.067.034.016v.034l.033.016.033.1h.017l.017.067h.016l.017.067h.017v.033h.016v.033h.017v.034h.017v.033h.016l.034.1h.016l.017.067h.017v.033h.016v.033h.017v.034h.016v.033h.017l.017.066.033.017.017.067.033.016v.034h.017l.1.25.033.016.017.067h.016l.017.05.033.017.017.066.033.017.017.066.033.034v.033h.017v.033h.017v.034h.016l.017.066h.017l.016.067h.017v.033h.017v.034l.033.033v.033l.033.017.034.1.033.017v.033l.033.033v.034h.017v.033h.016v.033H117v.033h.017v.034l.033.033v.033l.033.017.034.1.033.017v.033l.033.033v.034h.017v.033h.017v.033h.016v.034h.017v.033h.017l.033.1h.017v.05h.016v.033l.034.017.016.066h.017a.307.307,0,0,1,.05.184c-.044.023-.028.029-.1.033-.041.037-.146,0-.217,0a3.766,3.766,0,0,1-.649-.033c-.023-.042-.063-.055-.084-.084v-.033l-.033-.017v-.033l-.033-.033v-.033h-.017v-.034H116.3l-.033-.1h-.017l-.016-.066h-.017l-.017-.067h-.016v-.033h-.017v-.034h-.016v-.033h-.017v-.033h-.017v-.034h-.016c-.046-.084-.065-.19-.167-.216-.043-.042-.132-.033-.217-.034h-2.382a.984.984,0,0,1-.116.05l-.134.217v.05h-.016v.033h-.017v.034h-.017l-.033.1h-.017v.05h-.016l-.034.1h-.016v.033h-.017l-.017.066-.033.017-.033.1-.117.1c-.291,0-.644.007-.883,0a.215.215,0,0,1-.033-.133h.016l.017-.067.033-.017.017-.049h.017v-.034l.033-.033v-.033h.017v-.034h.016v-.033h.017v-.033h.017l.016-.067h.017v-.033h.017v-.034h.016v-.033h.017v-.033h.017v-.034h.016l.034-.1.033-.016.033-.1.034-.017v-.033l.033-.033v-.034h.017v-.033h.016l.017-.067.033-.016.017-.067h.017v-.033h.016v-.034h.017v-.033l.033-.033v-.034l.034-.016v-.034l.033-.016v-.034h.016v-.033h.017v-.05h.017l.016-.067h.017l.05-.149.033-.017.034-.1.033-.017.017-.066.033-.017V66.81h.017v-.034l.033-.033V66.71l.033-.017.017-.067.033-.016v-.034h.017v-.05h.017v-.033h.016l.117-.266.033-.017v-.033l.034-.034V66.11h.016v-.033h.017v-.034h.017V66.01l.033-.033v-.034l.033-.016.033-.1.034-.017.016-.067.034-.016v-.034h.016V65.66h.017l.017-.083.15-.25.016-.067h.017v-.033h.017v-.033h.016V65.16h.017v-.033h.017v-.033h.016l.017-.067.033-.017v-.033l.034-.017v-.033h.016v-.033h.017v-.05h.017l.016-.067h.017l.017-.066.033-.017v-.033h.017v-.034h.016v-.033l.033-.033v-.034l.034-.016v-.034h.016l.017-.033C114.1,64.425,114.11,64.443,114.139,64.411Zm31.486,4.4h-.034v.016h-.333c-.091.026-.248-.011-.35.017v.017h-.116v-.017h-.084s0-.01-.033-.017l-.05-.066h-.017l-.033-.1-.033-.017-.017-.066h-.017l-.033-.1h-.017v-.05h-.016l-.034-.1h-.016v-.034h-.017v-.033h-.016v-.033h-.017v-.034h-.017v-.033h-.016l-.017-.067-.033-.016-.017-.067-.067-.05-.016-.033h-.05a2.685,2.685,0,0,0-.767-.034h-.216v-.016l-.583.016a2.208,2.208,0,0,0-.467.017l-.166-.017c-.15,0-.307.01-.434.017-.024.041-.022.011-.05.033l-.016.05-.05.034-.017.066-.033.017-.017.067h-.016l-.034.1h-.016v.05h-.017l-.017.066h-.016l-.017.067-.033.017v.033h-.017v.033h-.017v.034h-.016c-.049.089-.064.183-.15.233-.051.052-.2.033-.3.033h-.133v.017l-.3-.017c-.1,0-.153.011-.2-.05h-.017v-.083h.017l.016-.067.034-.017.016-.066.034-.017v-.033l.033-.033v-.034h.017v-.033l.033-.033v-.034l.033-.016v-.034h.017v-.033l.033-.033v-.034l.034-.016.016-.067.034-.017v-.033h.016v-.05h.017v-.033h.017v-.05h.016l.017-.067h.017l.016-.066.034-.017.016-.067.034-.016v-.034l.033-.033v-.033h.017v-.034h.016v-.033h.017v-.033h.017v-.034h.016l.017-.066.033-.017v-.033h.017v-.034h.016v-.033l.034-.033v-.034l.033-.016v-.034l.033-.033v-.033h.017V67.06h.017v-.034h.016v-.033h.017V66.96h.017v-.034l.033-.033V66.86l.033-.017.034-.1.033-.017.017-.066h.016l.017-.067h.017v-.05l.033-.017.017-.066.033-.017.017-.05h.016l.117-.283.033-.033v-.034l.033-.016.034-.1h.016v-.034h.017V65.86h.017l.033-.1h.017v-.05h.016v-.033h.017v-.033l.033-.017.017-.067.033-.016.034-.1.033-.017v-.033h.017V65.36h.016v-.033l.034-.033V65.26l.033-.016V65.21h.017v-.033l.033-.033V65.11l.033-.016V65.06l.034-.033v-.033h.016l.034-.117.033-.016.017-.067.033-.017.017-.05h.016c.063-.1.074-.267.2-.3.036-.032.152-.016.217-.016h.533c.061,0,.166-.014.2.016.142.041.152.167.216.284h.017v.033l.033.017.034.1.033.016.016.067.034.016v.034h.016l.017.066h.017v.05h.016l.017.067h.017l.016.067.034.016v.034l.033.033v.033h.017v.034h.016l.017.066.033.017.017.067h.017v.033l.033.017v.033l.033.033v.033h.017v.034h.017l.016.066.034.017.016.067.034.016.016.067.034.033v.034h.016v.033h.017v.033h.017v.034h.016v.033h.017l.05.15h.017l.016.067h.017v.033l.033.016v.034l.033.016v.034l.05.033v.033h.017l.033.1h.017v.05h.017l.033.1h.017v.034h.016l.017.066.033.017.017.067.033.016v.034l.034.033v.033h.016v.033h.017v.034h.017v.033h.016v.033l.034.017.016.067.034.033v.033h.016v.034h.017v.033h.017v.033h.016v.034l.034.033v.033l.033.017v.033h.017v.034h.016v.05h.017l.016.066h.017v.05l.033.017v.033h.017v.033l.033.034v.033l.034.017.033.1.033.016.017.067h.017v.033h.016v.034h.017v.033h.017v.033h.016v.034l.034.033v.033l.033.017v.033l.033.017a.653.653,0,0,1,.1.266C145.622,68.794,145.635,68.775,145.625,68.809Zm-38.25-4.3h.1c.029.049.048.047.05.133.035.041.017.179.017.25l-.017.65v1.382a3.05,3.05,0,0,0,.017.667l-.017.3h.017l.016.084c.019.01.026.029.034.033h.033v.017h.083v.016l.15-.016h.433l.5-.017a2.048,2.048,0,0,0,.45.017,4.505,4.505,0,0,1,.633.016l.583-.016a.466.466,0,0,1,.2.016l.017.034.033.016v.434a.507.507,0,0,1-.017.266h-.016c-.022.025-.009.023-.05.033-.058.057-.151.017-.25.017h-.333v.017h-.084l-.216-.017a1.748,1.748,0,0,1-.333,0h-.767v-.017h-.066l-.45.017v.017l-.233-.017h-.65a3.967,3.967,0,0,1-.633-.017l-.017-.05a.228.228,0,0,1-.033-.183,2.391,2.391,0,0,0,.016-.6V65.244a.561.561,0,0,1,.034-.25c.031-.11.125-.118.216-.167v-.016h.034v-.017h.033v-.017h.033v-.016h.034v-.017l.066-.017.017-.033.1-.033.017-.034h.033l.033-.033h.034l.016-.033h.033v-.017C107.342,64.525,107.349,64.541,107.375,64.511Zm-17.342.616h.25l.366.117v.016h.034v.017l.15.05.016.033h.034v.017h.033v.017h.033l.034.033h.033l.033.05h.033l.15.167.117.1v.034l.033.016.017.067h.017l.016.067h.017v.05h.017v.033h.016l.017.067h.017l.016.116a.927.927,0,0,1,.05.483v.217l-.083.35h-.017v.033h-.016l-.017.083-.033.017v.033H91.4l-.017.05-.033.017v.033l-.05.034v.033l-.067.05-.016.033h-.034l-.166.184h-.033l-.017.033h-.033l-.017.033-.15.05v.017h-.033v.016h-.05v.017h-.05v.017h-.05v.016h-.067v.017h-.033v.017h-.05v.016H90.4v.017h-.066v.017H90.25v.016h-.1a1.923,1.923,0,0,1-.484.017v-.017H89.45v-.016H89.3v-.017l-.183-.017v-.016H89.05v-.017h-.067v-.017h-.066v-.016h-.05v-.017h-.05v-.017h-.05v-.016h-.033v-.017H88.7l-.016-.033-.1-.034v-.016l-.05-.017-.017-.033h-.033l-.1-.117H88.35v-.016l-.066-.05v-.034l-.1-.083v-.033l-.05-.034v-.033l-.034-.017-.016-.066h-.017l-.017-.067h-.016v-.05h-.017v-.05H88v-.05h-.017V67.06h-.017v-.084h-.016v-.083h-.017a2.024,2.024,0,0,1-.017-.483c.024-.083.057-.187.084-.267l.016-.116h.017l.016-.067h.017v-.033l.033-.017v-.033l.034-.017v-.033h.016v-.034l.034-.033v-.033l.033-.017v-.033l.05-.033.1-.117H88.4l.034-.05h.033l.033-.05h.034l.016-.033h.034l.016-.034h.034v-.016h.033v-.017h.05V65.31h.033v-.016l.067-.017V65.26l.15-.033V65.21H89v-.016l.483-.084c.059-.016.129.016.167-.016A1.494,1.494,0,0,1,90.033,65.127Zm6.98.083.1.017v.017l.083.016v.017l.067.017v.016H97.3v.017h.05v.017l.067.016v.017l.067.017.016.033h.034l.083.1h.033l.1.117.05.033v.033l.05.033v.034l.033.016.034.1h.016v.034h.017v.033h.017l.033.1h.017l.033.15h.017v.1h.016l.017.383h-.017v.183l-.066.3H98l-.017.067h-.016v.05h-.017l-.017.066h-.016l-.017.067-.033.017-.017.066-.033.017v.033l-.05.034v.033l-.067.05-.066.083H97.6l-.033.05H97.53l-.017.034H97.48l-.034.033h-.033v.016H97.38v.017h-.034v.017h-.033v.016H97.28v.017l-.1.033v.017h-.05v.017H97.1v.016l-.15.034v.016H96.83v.017h-.1v.017h-.067v.016h-.15v.017h-.566v-.017h-.1v-.016l-.267-.017v-.017h-.05v-.016l-.066-.017v-.017l-.083-.016v-.017h-.05v-.017l-.1-.016v-.017l-.067-.017v-.016h-.033l-.017-.034-.067-.016-.016-.033H95l-.033-.05h-.033l-.067-.084-.133-.116v-.034l-.05-.033v-.033l-.033-.017-.034-.1-.033-.017-.017-.066h-.016l-.034-.1H94.5l-.017-.117a1.869,1.869,0,0,1,0-.916v-.067H94.5V66.06h.016l.017-.083.033-.017.034-.1.033-.017V65.81h.017v-.033l.05-.034V65.71l.083-.066V65.61l.066-.05.017-.033H94.9l.067-.083.067-.017.016-.033.1-.034v-.016h.034v-.017h.033V65.31l.1-.033V65.26l.15-.033V65.21l.483-.1c.07-.02.17.023.217-.016A2.55,2.55,0,0,1,97.013,65.21Zm51.677-.016v.016h.666a2.166,2.166,0,0,1,.483.017h.217v.017h.133v.016h.067v.017h.033v.017h.05v.016h.033v.017h.034l.016.033h.034l.033.05.05.017.017.05.05.033v.034l.033.016v.034h.017l.016.066h.017a.867.867,0,0,1-.083.6l-.034.017-.066.083-.067.017-.017.033h-.033v.016l-.1.034v.016h-.05v.017h-.05v.017h-.116v.016l-.384-.016a2.074,2.074,0,0,1-.533.016V66.51c-.023,0,.007.012-.016.016h-.583a2.536,2.536,0,0,1-.55-.016c-.075-.021-.174.017-.233-.017a.459.459,0,0,1-.084-.383h.017l-.017-.2a1.977,1.977,0,0,0,.017-.4.384.384,0,0,1-.017-.166h.017v-.05h.017l.016-.05c.023-.01.038-.006.067-.017V65.21a.359.359,0,0,1,.167.017.955.955,0,0,0,.316-.017c.077-.006.22.024.267-.016Zm-20.008,2.415v.017h-.033l-.017.033H128.6l-.033.05h-.034l-.016.034h-.034l-.016.033h-.034l-.016.033h-.034v.017h-.033v.017h-.05v.016h-.033v.017h-.05v.016h-.05v.017h-.05v.017h-.05v.016l-.167.017v.017h-.116v.016h-.134v.017h-.133v.017h-.15v.016l-.65-.016c-.131.011-.309.016-.466.016h-.183v-.016h-.034v-.017l-.05-.017-.016-.066h-.017v-.717c0-.389-.014-.821.017-1.182.017-.2-.076-.606.016-.7l.05-.067a1.31,1.31,0,0,1,.384-.033.319.319,0,0,0,.15.017,1.951,1.951,0,0,1,.433-.017,1.8,1.8,0,0,1,.516.017h.083v.016h.1v.017h.184v.017h.083v.016h.083v.017l.15.033v.017h.033v.017h.05v.016l.1.034v.016h.034v.017l.1.033.016.034.05.016.034.05h.033l.05.067h.033l.034.05h.016v.033l.067.05v.033l.033.017.017.05h.016v.033l.034.017v.033l.033.017v.033H129l.016.067h.017v.05h.017v.05h.016v.083h.017v.1a2.256,2.256,0,0,1,.017.517h-.017v.05h-.017v.05h-.016l-.017.1h-.017l-.016.066h-.017v.05h-.017l-.016.067h-.017l-.017.066-.033.017v.033l-.033.017v.017l-.034.016v.034H128.8a.182.182,0,0,0-.05.083A.141.141,0,0,0,128.682,67.609Zm-26.338-2.365a1.854,1.854,0,0,1,.45-.017v.017h.116v.016h.117v.017h.1v.017h.067v.016h.066v.017h.067l.4.167.016.033h.034l.016.033h.034l.033.05h.033l.05.067.117.1v.033l.05.033v.034l.033.016.017.05h.017v.034l.033.016v.034h.017v.05h.016v.033h.017l.083.35v.2a1.1,1.1,0,0,1-.05.366l-.016.117h-.017l-.033.1h-.017l-.017.066-.033.017v.033h-.017v.034l-.05.033v.033l-.133.117-.033.05-.067.017-.017.033h-.033l-.033.05h-.034l-.033.05h-.033l-.017.033-.233.067v.016h-.05v.017h-.05v.017h-.05v.016h-.067v.017l-.133.017v.016h-.083v.017h-.267a1.427,1.427,0,0,1-.366.033h-.283v.017h-.067s-.006-.014-.033-.017h-.284v-.016h-.283a.043.043,0,0,1-.05.016.55.55,0,0,1-.133-.066.931.931,0,0,1-.033-.383.82.82,0,0,0,.016-.317,1.5,1.5,0,0,1-.016-.433,1.861,1.861,0,0,0-.017-.367V66.41h.017v-.25a3.523,3.523,0,0,1,.016-.733l.017-.117h.017l.033-.05.083-.016v-.017Zm40.482.083v.017c.1.025.073.081.116.15l.034.016v.034l.033.033v.033h.017v.034h.016v.033h.017l.017.083h.016v.033h.017v.034h.017v.033l.033.033.017.067.033.017v.033l.033.033v.034h.017v.033h.017v.033h.016v.05h.017l.017.067h.016l.017.067.033.016.017.067.033.016v.034l.034.033v.033h.016v.034h.017v.033h.017v.033h.016v.034l.034.016.016.067a.8.8,0,0,1,.117.267h-.017v.05l-.033.016v.017h-.034v.017h-.366a2.9,2.9,0,0,1-.65.016c-.1,0-.283.009-.333,0-.11-.019-.252.028-.316-.033l-.05-.017v-.15h.016l.017-.066h.017v-.034l.033-.016.017-.067h.016V66.71h.017v-.034h.017v-.033h.016V66.61h.017v-.05l.033-.017V66.51l.033-.034.117-.283.033-.016.017-.067h.017v-.033h.016v-.034h.017V66.01l.033-.033v-.034l.034-.016.016-.067.034-.017V65.81h.016l.017-.067h.017v-.05h.016V65.66h.017l.017-.083h.016l.034-.1h.016v-.033h.017l.017-.067h.016l.017-.033h.033v-.017Zm-28.171.017v.016c.042.011.028.009.05.034h.017v.033l.033.017v.05h.017v.033h.016v.033l.034.034v.033l.033.017v.033h.017v.033h.016v.05h.017l.017.067h.016l.017.066.033.017.034.1.033.017.017.066h.016v.034h.017l.033.1h.017v.05h.017v.033h.016v.05h.017v.033l.033.017.034.1h.016v.05h.017l.017.066h.016l.017.067.033.017v.033h.017v.033h.017v.034h.016v.033l.033.017.017.066h.017c0,.095,0,.127-.05.167v.017a1.451,1.451,0,0,1-.417.016V67.11h-.3v.016h-.249v.017l-.184-.017a2.626,2.626,0,0,1-.333-.016c-.058-.013-.079.047-.133,0-.095,0-.084-.041-.133-.084a.464.464,0,0,1,.083-.233l.033-.017.017-.066.033-.017.017-.067h.017v-.033h.016V66.56h.017v-.034h.017l.049-.166h.017l.017-.067h.016V66.26l.034-.017.033-.1.033-.016v-.034h.017V66.06l.033-.017.05-.15h.017l.033-.1h.017V65.76h.017v-.033h.016l.034-.1.033-.017v-.033h.017l.016-.083h.017l.017-.067.033-.017v-.033c.012-.015.034-.013.05-.033Z" fill-rule="evenodd"/></svg>