<svg id="レイヤー_1" data-name="レイヤー 1" xmlns="http://www.w3.org/2000/svg" width="250" height="100" viewBox="0 0 250 100"><title>pc_ur</title><path d="M93.987,62.031q0,.782-.008,1.294c-.007.341-.01.637-.01.89,0,.308,0,.574.005.792s0,.409,0,.569a2.292,2.292,0,0,1-.142.834,1.7,1.7,0,0,1-.426.629,2.032,2.032,0,0,1-.7.422,2.772,2.772,0,0,1-.963.153,2.842,2.842,0,0,1-.963-.151,2.026,2.026,0,0,1-.7-.424,1.692,1.692,0,0,1-.427-.629,2.271,2.271,0,0,1-.142-.834c0-.16,0-.349,0-.569s.005-.484.005-.792c0-.253,0-.549-.01-.89s-.009-.773-.009-1.294h.672q0,.1-.011.694t-.007,1.558c0,.2,0,.4,0,.606s0,.423,0,.643a1.445,1.445,0,0,0,.427,1.13,1.662,1.662,0,0,0,1.155.386,1.685,1.685,0,0,0,1.186-.368,1.5,1.5,0,0,0,.394-1.148c0-.22,0-.434,0-.643s0-.41,0-.606c0-.645,0-1.171-.01-1.58s-.009-.634-.009-.672Z" fill="#572d38"/><path d="M100.057,67.159l-.512.42c-.06-.064-.271-.3-.636-.706s-.924-1.049-1.682-1.915l0-.036a2.561,2.561,0,0,0,.845-.473,1.376,1.376,0,0,0,.264-.342,1.145,1.145,0,0,0,.113-.547.893.893,0,0,0-.166-.54.948.948,0,0,0-.454-.332,1.716,1.716,0,0,0-.5-.108c-.173-.012-.333-.019-.48-.019h-.339c-.006.517-.012.973-.013,1.366s0,.673,0,.836c0,.373,0,.879.009,1.518s0,1.039.008,1.2h-.669q0-.243.009-.947t.008-1.748v-.753c0-.367-.007-1.036-.017-2l.406-.01q.367-.009.678-.009a5.5,5.5,0,0,1,.688.042,2.438,2.438,0,0,1,.653.174,1.5,1.5,0,0,1,.64.5,1.31,1.31,0,0,1,.236.78,1.36,1.36,0,0,1-.357.963,3.162,3.162,0,0,1-.675.573v.02q.558.654,1.225,1.344l.715.747" fill="#572d38"/><path d="M104.182,66.375a.942.942,0,0,1-.352.333,1.836,1.836,0,0,1-.676.2,7.112,7.112,0,0,1-.868.05c-.085,0-.172,0-.263-.007l-.217-.011c0-.032,0-.285,0-.759s-.005-.942-.005-1.41c0-.2,0-.525,0-.972s0-.869.008-1.268c.031,0,.1,0,.206,0s.224,0,.352,0a3.415,3.415,0,0,1,.559.044,1.6,1.6,0,0,1,.439.127.849.849,0,0,1,.334.289.751.751,0,0,1,.122.431.842.842,0,0,1-.11.426.981.981,0,0,1-.282.311,1.286,1.286,0,0,1-.408.19,2.188,2.188,0,0,1-.533.072l.066.488c.03,0,.091,0,.184,0s.217,0,.369,0a1.576,1.576,0,0,1,.528.086,1,1,0,0,1,.381.226,1.056,1.056,0,0,1,.219.315.974.974,0,0,1-.05.852m.732-1.019a1.23,1.23,0,0,0-.266-.387,1.385,1.385,0,0,0-.464-.31,1.889,1.889,0,0,0-.545-.132v-.041a1.372,1.372,0,0,0,.608-.443,1.13,1.13,0,0,0,.268-.743,1.077,1.077,0,0,0-.211-.675,1.347,1.347,0,0,0-.583-.422,2.8,2.8,0,0,0-.6-.152,5.008,5.008,0,0,0-.774-.056q-.369,0-.763.016c-.261.01-.412.017-.45.02,0,.017,0,.262.009.727s.009,1.1.009,1.9c0,.423,0,.864,0,1.328s-.007.958-.014,1.48c.033,0,.191.009.475.018s.56.016.828.016a5.035,5.035,0,0,0,.97-.084,2.844,2.844,0,0,0,.776-.266,1.558,1.558,0,0,0,.609-.537,1.334,1.334,0,0,0,.21-.734,1.379,1.379,0,0,0-.089-.523" fill="#572d38"/><path d="M109.243,65.026h-1.977q.192-.417.484-1.075c.195-.438.362-.806.5-1.107l.017,0c.179.394.351.774.514,1.137s.319.709.466,1.041Zm.933.462q-.786-1.708-1.6-3.536h-.532q-.825,1.827-1.6,3.484t-.873,1.868l.546.292c.017-.042.1-.234.259-.583s.376-.838.662-1.472h2.436q.389.885.625,1.448c.159.374.243.578.254.607l.636-.327c-.022-.046-.3-.638-.818-1.781" fill="#572d38"/><path d="M116.692,62.031c0,.426-.009.912-.011,1.461s0,.945,0,1.187c0,.771,0,1.384.007,1.838s.009.7.009.728l-.547.265q-1.229-1.666-2.3-3.007t-1.238-1.549l-.008.005c0,.727,0,1.624.015,2.686s.016,1.675.021,1.837H112c0-.066.006-.31.01-.724s.007-.995.007-1.737c0-.3,0-.689,0-1.181s-.007-1.01-.015-1.56l.62-.293q.073.092,1.249,1.588t2.217,2.775l.008,0c0-.42-.006-1.123-.017-2.113s-.018-1.724-.018-2.2Z" fill="#572d38"/><path d="M124.885,67.159l-.513.42c-.059-.064-.272-.3-.634-.706s-.925-1.049-1.684-1.915l0-.036a2.57,2.57,0,0,0,.844-.473,1.379,1.379,0,0,0,.265-.342,1.147,1.147,0,0,0,.11-.547.892.892,0,0,0-.164-.54.945.945,0,0,0-.453-.332,1.723,1.723,0,0,0-.5-.108c-.173-.012-.334-.019-.481-.019h-.337q-.012.776-.015,1.366c0,.4,0,.673,0,.836q0,.559.008,1.518c0,.637.007,1.039.011,1.2h-.672c0-.162.006-.478.011-.947s.008-1.05.008-1.748v-.753c0-.367-.006-1.036-.019-2,.028,0,.164,0,.409-.01s.47-.009.675-.009a5.535,5.535,0,0,1,.69.042,2.441,2.441,0,0,1,.652.174,1.475,1.475,0,0,1,.639.5,1.3,1.3,0,0,1,.236.78,1.359,1.359,0,0,1-.356.963,3.117,3.117,0,0,1-.676.573v.02q.559.654,1.226,1.344l.716.747" fill="#572d38"/><path d="M129.43,67.482c-.025,0-.205,0-.542,0s-.753,0-1.251,0q-.517,0-.946,0c-.287,0-.529,0-.728,0q.008-.234.012-1.023t.006-1.629c0-.308,0-.713,0-1.22s-.006-1.029-.014-1.571c.194,0,.434,0,.724,0s.586,0,.893,0q.778,0,1.268,0l.529,0V62.6c-.027,0-.2,0-.51,0s-.7,0-1.171,0h-1.063c0,.309,0,.615,0,.923s0,.6,0,.871h.877c.475,0,.9,0,1.275,0l.6,0v.566l-.669,0c-.425,0-.814,0-1.165,0h-.917c0,.514,0,.924,0,1.225s0,.557,0,.761l.582.007h.736c.4,0,.742,0,1.018,0s.428,0,.461,0Z" fill="#572d38"/><path d="M133.738,65.945a1.355,1.355,0,0,1-.2.735,1.522,1.522,0,0,1-.531.511,2.546,2.546,0,0,1-.7.27,3.875,3.875,0,0,1-.876.092c-.175,0-.355-.006-.542-.016l-.323-.019-.033-.585c.037.007.145.016.318.032s.378.021.614.021a3.432,3.432,0,0,0,.556-.058,1.9,1.9,0,0,0,.525-.145,1.036,1.036,0,0,0,.368-.286.685.685,0,0,0,.127-.426.8.8,0,0,0-.127-.46,1.3,1.3,0,0,0-.426-.367c-.128-.075-.293-.161-.5-.256a5.167,5.167,0,0,1-.55-.292,1.7,1.7,0,0,1-.593-.551,1.28,1.28,0,0,1-.175-.666,1.245,1.245,0,0,1,.16-.649,1.607,1.607,0,0,1,.419-.47,1.8,1.8,0,0,1,.64-.292,3.261,3.261,0,0,1,.84-.1c.168,0,.34,0,.512.015s.272.016.3.02l.056.582-.3-.028c-.173-.015-.387-.025-.643-.025a2.215,2.215,0,0,0-.471.053,1.361,1.361,0,0,0-.426.157.838.838,0,0,0-.277.261.682.682,0,0,0-.114.392.69.69,0,0,0,.12.385,1.345,1.345,0,0,0,.449.38c.112.069.259.146.443.235s.362.184.539.286a1.823,1.823,0,0,1,.612.552,1.268,1.268,0,0,1,.206.71" fill="#572d38"/><path d="M138.674,67.482c-.025,0-.205,0-.542,0s-.755,0-1.25,0q-.517,0-.948,0c-.287,0-.529,0-.727,0q.007-.234.012-1.023t.006-1.629c0-.308,0-.713,0-1.22s-.007-1.029-.014-1.571c.193,0,.434,0,.723,0s.587,0,.895,0q.777,0,1.267,0l.529,0V62.6c-.027,0-.2,0-.51,0s-.7,0-1.17,0h-1.064c0,.309,0,.615,0,.923s0,.6,0,.871h.877q.716,0,1.278,0l.6,0v.566l-.669,0c-.426,0-.813,0-1.166,0h-.918c0,.514,0,.924,0,1.225s0,.557,0,.761l.582.007h.736c.4,0,.743,0,1.019,0s.428,0,.46,0Z" fill="#572d38"/><path d="M143.025,65.026h-1.976q.192-.417.484-1.075c.2-.438.36-.806.5-1.107l.017,0c.18.394.351.774.515,1.137s.319.709.466,1.041Zm.934.462q-.788-1.708-1.6-3.536h-.532q-.827,1.827-1.595,3.484t-.874,1.868l.546.292c.016-.042.1-.234.258-.583s.375-.838.662-1.472h2.437c.26.59.467,1.072.625,1.448s.242.578.253.607l.637-.327c-.023-.046-.295-.638-.818-1.781" fill="#572d38"/><path d="M149.989,67.159l-.512.42q-.09-.1-.635-.706t-1.683-1.915l0-.036a2.139,2.139,0,0,0,.413-.178,2.2,2.2,0,0,0,.432-.3,1.328,1.328,0,0,0,.263-.342,1.122,1.122,0,0,0,.112-.547.892.892,0,0,0-.164-.54.943.943,0,0,0-.454-.332,1.724,1.724,0,0,0-.5-.108c-.175-.012-.334-.019-.481-.019h-.338q-.012.776-.014,1.366c0,.4,0,.673,0,.836q0,.559.006,1.518c0,.637.009,1.039.011,1.2h-.67q0-.243.01-.947t.007-1.748v-.753c0-.367-.006-1.036-.017-2l.407-.01c.245-.006.47-.009.677-.009a5.475,5.475,0,0,1,.687.042,2.435,2.435,0,0,1,.654.174,1.484,1.484,0,0,1,.64.5,1.31,1.31,0,0,1,.236.78,1.36,1.36,0,0,1-.358.963,3.138,3.138,0,0,1-.675.573v.02q.559.654,1.226,1.344l.715.747" fill="#572d38"/><path d="M154.682,66.986c0,.025-.01.093-.023.206s-.022.235-.034.37h-.142a5.745,5.745,0,0,1-1.769-.252,3.224,3.224,0,0,1-1.271-.728,2.4,2.4,0,0,1-.548-.791,2.589,2.589,0,0,1-.2-1.051,2.3,2.3,0,0,1,.2-.969,2.641,2.641,0,0,1,.521-.766,3.294,3.294,0,0,1,1.261-.749,5.047,5.047,0,0,1,1.692-.278h.183c0,.048.009.126.017.235s.017.223.028.348h-.139a5.291,5.291,0,0,0-1.055.112,3.217,3.217,0,0,0-.942.336,2.145,2.145,0,0,0-.792.753,1.894,1.894,0,0,0-.277.99,2.049,2.049,0,0,0,.248,1,1.989,1.989,0,0,0,.787.756,3.29,3.29,0,0,0,.983.367,5.219,5.219,0,0,0,1.083.114h.078c.035,0,.072,0,.113,0" fill="#572d38"/><path d="M160.5,67.482h-.67c0-.162,0-.462.009-.9s.008-.985.008-1.639h-3.31c0,.755,0,1.328.006,1.716s.007.664.01.826h-.67c0-.162.006-.45.01-.867s.007-1.115.007-2.1c0-.3,0-.663,0-1.09s-.007-.892-.012-1.389h.67c0,.412,0,.814-.007,1.211s-.009.774-.009,1.131h3.31c0-.357,0-.734-.008-1.128s-.009-.8-.009-1.214h.67c0,.409-.009.883-.012,1.421s-.006.976-.006,1.315q0,1.2.007,1.834c.006.426.007.719.011.881" fill="#572d38"/><path d="M117.773,57.691a14.533,14.533,0,0,1-3.953-8.644c-.025-.165-.031-.258-.054-.423V32.386h-4.953V49.1a16.079,16.079,0,0,0,3.534,9.383c.056.083.095.132.154.214h10.6V32.386h-5.329Z" fill="#572d38"/><path d="M138.557,47.569a10.717,10.717,0,0,0-.207-15.183H128.013V58.7h5.33V47.779L136.123,58.7h5.431l-3.148-10.968.151-.159m-2.857-5.02a5.715,5.715,0,0,1-2.471,2.989V34.861a8.6,8.6,0,0,1,1.378,1.379,6.729,6.729,0,0,1,1.564,3.842,5.629,5.629,0,0,1-.471,2.467" fill="#572d38"/></svg>