<svg id="レイヤー_1" data-name="レイヤー 1" xmlns="http://www.w3.org/2000/svg" width="250" height="100" viewBox="0 0 250 100"><title>pc_urbs</title><path d="M94.936,36.778V48.486a6.44,6.44,0,0,0,.818,3.663,4.384,4.384,0,0,0,6.892,0,6.33,6.33,0,0,0,.819-3.663V36.778H106.4V49.3a7.006,7.006,0,0,1-1.915,5.065,7.408,7.408,0,0,1-10.57,0A7.006,7.006,0,0,1,92,49.3V36.778Z"/><path d="M119.007,47.94l6.022,8.29h-3.591l-5.555-7.963h-.53V56.23h-2.935V36.778h3.439q3.855,0,5.569,1.449a5.321,5.321,0,0,1,1.89,4.258,5.526,5.526,0,0,1-1.185,3.553A5.277,5.277,0,0,1,119.007,47.94Zm-3.654-2.23h.933q4.17,0,4.17-3.187,0-2.987-4.057-2.986h-1.046Z"/><path d="M129.692,56.23V36.778h2.923a12.781,12.781,0,0,1,3.112.3,4.692,4.692,0,0,1,1.978,1.02,5.305,5.305,0,0,1,1.3,1.852,5.6,5.6,0,0,1,.492,2.268,4.6,4.6,0,0,1-1.6,3.54,4.7,4.7,0,0,1,2.444,1.853,5.482,5.482,0,0,1-.7,6.9,5.3,5.3,0,0,1-2.18,1.349,12.7,12.7,0,0,1-3.313.365Zm2.936-11.1h.919a3.389,3.389,0,0,0,2.4-.725,2.807,2.807,0,0,0,.763-2.135,2.681,2.681,0,0,0-.782-2.086,3.255,3.255,0,0,0-2.267-.711h-1.033Zm0,8.34h1.814a4.51,4.51,0,0,0,2.923-.781,2.7,2.7,0,0,0,.983-2.142,2.747,2.747,0,0,0-.945-2.117,4.906,4.906,0,0,0-3.289-.844h-1.486Z"/><path d="M157.5,39.663l-2.381,1.411a4.08,4.08,0,0,0-1.273-1.512,2.965,2.965,0,0,0-1.625-.4,3,3,0,0,0-2.028.693,2.15,2.15,0,0,0-.806,1.715q0,1.425,2.116,2.294l1.94.8A8.283,8.283,0,0,1,156.9,47,5.276,5.276,0,0,1,158,50.38a5.954,5.954,0,0,1-1.789,4.438,6.141,6.141,0,0,1-4.473,1.764,5.964,5.964,0,0,1-4.182-1.505,6.93,6.93,0,0,1-2.029-4.227L148.5,50.2a5.057,5.057,0,0,0,.7,2.369,3.355,3.355,0,0,0,4.926.341,3.177,3.177,0,0,0,.907-2.329,3.268,3.268,0,0,0-.157-1.039,2.649,2.649,0,0,0-.491-.869,3.953,3.953,0,0,0-.864-.743,8.275,8.275,0,0,0-1.259-.66l-1.877-.781Q146.4,44.8,146.4,41.549a4.68,4.68,0,0,1,1.675-3.664,6.058,6.058,0,0,1,4.17-1.485A5.826,5.826,0,0,1,157.5,39.663Z"/><path d="M92.618,61.19v1.368a.75.75,0,0,0,.095.427.511.511,0,0,0,.805,0,.736.736,0,0,0,.1-.427V61.19h.343v1.463a.818.818,0,0,1-.224.591.866.866,0,0,1-1.235,0,.818.818,0,0,1-.223-.591V61.19Z"/><path d="M95.715,62.494l.7.968H96l-.649-.93h-.062v.93h-.343V61.19h.4a1,1,0,0,1,.65.169.622.622,0,0,1,.221.5.648.648,0,0,1-.138.416A.626.626,0,0,1,95.715,62.494Zm-.427-.261H95.4c.324,0,.487-.124.487-.372q0-.349-.474-.349h-.122Z"/><path d="M97.364,63.462V61.19h.341a1.535,1.535,0,0,1,.364.035.553.553,0,0,1,.231.119.608.608,0,0,1,.151.217.64.64,0,0,1,.058.265.539.539,0,0,1-.187.413.543.543,0,0,1,.285.216.611.611,0,0,1,.106.357.6.6,0,0,1-.188.45.613.613,0,0,1-.255.157,1.456,1.456,0,0,1-.387.043Zm.343-1.3h.107a.4.4,0,0,0,.281-.085.33.33,0,0,0,.088-.25.312.312,0,0,0-.091-.243.378.378,0,0,0-.265-.083h-.12Zm0,.974h.212a.531.531,0,0,0,.341-.091.316.316,0,0,0,.115-.251.32.32,0,0,0-.111-.247.569.569,0,0,0-.384-.1h-.173Z"/><path d="M101.014,62.91h-.973l-.253.552h-.369l1.124-2.415,1.085,2.415h-.375Zm-.14-.322-.337-.773-.353.773Z"/><path d="M102.469,63.462V61.035l1.657,1.734V61.19h.343V63.6l-1.657-1.729v1.591Z"/><path d="M107.444,62.494l.7.968h-.42l-.649-.93h-.061v.93h-.343V61.19h.4a1,1,0,0,1,.651.169.622.622,0,0,1,.221.5.648.648,0,0,1-.139.416A.623.623,0,0,1,107.444,62.494Zm-.426-.261h.108q.487,0,.488-.372,0-.349-.474-.349h-.122Z"/><path d="M110.27,61.512h-.911v.546h.885v.322h-.885v.76h.911v.322h-1.254V61.19h1.254Z"/><path d="M112.657,61.527l-.278.165a.471.471,0,0,0-.149-.177.4.4,0,0,0-.427.034.253.253,0,0,0-.094.2c0,.111.083.2.247.268l.227.093a.977.977,0,0,1,.4.273.621.621,0,0,1,.128.4.7.7,0,0,1-.209.518.717.717,0,0,1-.523.206.692.692,0,0,1-.488-.176.8.8,0,0,1-.237-.493l.347-.077a.588.588,0,0,0,.083.277.355.355,0,0,0,.309.147.362.362,0,0,0,.266-.107.372.372,0,0,0,.106-.272.363.363,0,0,0-.019-.122.309.309,0,0,0-.057-.1.441.441,0,0,0-.1-.087.909.909,0,0,0-.147-.077l-.219-.091q-.466-.2-.467-.577a.55.55,0,0,1,.2-.428.71.71,0,0,1,.487-.173A.681.681,0,0,1,112.657,61.527Z"/><path d="M115.005,61.512h-.911v.546h.885v.322h-.885v.76h.911v.322h-1.254V61.19h1.254Z"/><path d="M117.467,62.91H116.5l-.254.552h-.369L117,61.047l1.085,2.415h-.375Zm-.139-.322-.338-.773-.353.773Z"/><path d="M119.675,62.494l.7.968h-.419l-.649-.93h-.062v.93h-.343V61.19h.4a1,1,0,0,1,.65.169.622.622,0,0,1,.221.5.643.643,0,0,1-.139.416A.623.623,0,0,1,119.675,62.494Zm-.427-.261h.109c.324,0,.487-.124.487-.372q0-.349-.474-.349h-.122Z"/><path d="M122.835,61.311v.406a.949.949,0,0,0-.615-.249.783.783,0,0,0-.59.252.848.848,0,0,0-.241.612.827.827,0,0,0,.241.6.8.8,0,0,0,.591.246.729.729,0,0,0,.308-.059.971.971,0,0,0,.147-.079,1.98,1.98,0,0,0,.159-.121v.414a1.226,1.226,0,0,1-.618.167,1.137,1.137,0,0,1-.831-.34,1.124,1.124,0,0,1-.343-.827,1.165,1.165,0,0,1,.287-.774,1.143,1.143,0,0,1,.914-.416A1.164,1.164,0,0,1,122.835,61.311Z"/><path d="M124.28,62.079h.98V61.19h.343v2.272h-.343V62.4h-.98v1.061h-.343V61.19h.343Z"/><path d="M127.809,63.462V61.19h.341a1.535,1.535,0,0,1,.364.035.553.553,0,0,1,.231.119.608.608,0,0,1,.151.217.64.64,0,0,1,.058.265.539.539,0,0,1-.187.413.543.543,0,0,1,.285.216.611.611,0,0,1,.106.357.644.644,0,0,1-.443.607,1.456,1.456,0,0,1-.387.043Zm.343-1.3h.107a.4.4,0,0,0,.281-.085.33.33,0,0,0,.089-.25.312.312,0,0,0-.092-.243.378.378,0,0,0-.265-.083h-.12Zm0,.974h.212a.531.531,0,0,0,.341-.091.316.316,0,0,0,.115-.251.322.322,0,0,0-.11-.247.573.573,0,0,0-.385-.1h-.173Z"/><path d="M130.358,61.19v1.368a.758.758,0,0,0,.095.427.511.511,0,0,0,.805,0,.736.736,0,0,0,.1-.427V61.19h.343v1.463a.818.818,0,0,1-.224.591.864.864,0,0,1-1.234,0,.814.814,0,0,1-.224-.591V61.19Z"/><path d="M133.337,62.48l-.741-1.29h.394l.52.908.521-.908h.394l-.745,1.29v.982h-.343Z"/><path d="M136.64,61.512h-.911v.546h.884v.322h-.884v.76h.911v.322h-1.254V61.19h1.254Z"/><path d="M138.542,62.494l.7.968h-.42l-.649-.93h-.062v.93h-.343V61.19h.4a1.006,1.006,0,0,1,.651.169.621.621,0,0,1,.22.5.648.648,0,0,1-.138.416A.623.623,0,0,1,138.542,62.494Zm-.427-.261h.109q.488,0,.487-.372,0-.349-.474-.349h-.122Z"/><path d="M141.388,61.527l-.278.165a.47.47,0,0,0-.148-.177.4.4,0,0,0-.427.034.25.25,0,0,0-.094.2c0,.111.082.2.247.268l.227.093a.973.973,0,0,1,.4.273.615.615,0,0,1,.128.4.691.691,0,0,1-.209.518.713.713,0,0,1-.522.206.7.7,0,0,1-.489-.176.813.813,0,0,1-.237-.493l.348-.077a.589.589,0,0,0,.082.277.358.358,0,0,0,.309.147.363.363,0,0,0,.267-.107.376.376,0,0,0,.106-.272.39.39,0,0,0-.019-.122.309.309,0,0,0-.057-.1.463.463,0,0,0-.1-.087.909.909,0,0,0-.147-.077l-.22-.091q-.466-.2-.466-.577a.547.547,0,0,1,.2-.428.71.71,0,0,1,.487-.173A.679.679,0,0,1,141.388,61.527Z"/><path d="M144.807,61.527l-.278.165a.48.48,0,0,0-.149-.177.4.4,0,0,0-.427.034.253.253,0,0,0-.094.2c0,.111.082.2.247.268l.227.093a.984.984,0,0,1,.405.273.621.621,0,0,1,.128.4.7.7,0,0,1-.209.518.717.717,0,0,1-.523.206.692.692,0,0,1-.488-.176.8.8,0,0,1-.237-.493l.347-.077a.6.6,0,0,0,.082.277.358.358,0,0,0,.309.147.363.363,0,0,0,.267-.107.376.376,0,0,0,.106-.272.363.363,0,0,0-.019-.122.309.309,0,0,0-.057-.1.463.463,0,0,0-.1-.087.909.909,0,0,0-.147-.077l-.219-.091q-.467-.2-.467-.577a.55.55,0,0,1,.2-.428.71.71,0,0,1,.487-.173A.681.681,0,0,1,144.807,61.527Z"/><path d="M147.063,61.512h-.911v.546h.884v.322h-.884v.76h.911v.322h-1.254V61.19h1.254Z"/><path d="M148.541,61.19v1.95h.668v.322H148.2V61.19Z"/><path d="M151.535,61.512h-.911v.546h.885v.322h-.885v.76h.911v.322h-1.254V61.19h1.254Z"/><path d="M154.274,61.311v.406a.951.951,0,0,0-.615-.249.784.784,0,0,0-.591.252.848.848,0,0,0-.241.612.827.827,0,0,0,.241.6.8.8,0,0,0,.592.246.733.733,0,0,0,.308-.059.918.918,0,0,0,.146-.079,1.984,1.984,0,0,0,.16-.121v.414a1.232,1.232,0,0,1-.618.167,1.14,1.14,0,0,1-.832-.34,1.124,1.124,0,0,1-.343-.827,1.17,1.17,0,0,1,.287-.774,1.145,1.145,0,0,1,.914-.416A1.17,1.17,0,0,1,154.274,61.311Z"/><path d="M156.147,61.512v1.95H155.8v-1.95h-.522V61.19h1.386v.322Z"/></svg>