<?xml version="1.0" encoding="utf-8"?>
<!-- Generator: Adobe Illustrator 24.1.0, SVG Export Plug-In . SVG Version: 6.00 Build 0)  -->
<!DOCTYPE svg PUBLIC "-//W3C//DTD SVG 1.1//EN" "http://www.w3.org/Graphics/SVG/1.1/DTD/svg11.dtd" [
	<!ENTITY st0 "fill:#FFFFFF;">
]>
<svg xmlns:xlink="http://www.w3.org/1999/xlink" version="1.1" id="Logo" xmlns="http://www.w3.org/2000/svg" x="0px" y="0px"
	 viewBox="0 0 70 70" style="enable-background:new 0 0 70 70;" xml:space="preserve">
<circle cx="35" cy="35" r="35"/>
<path style="&st0;" d="M56.081,24.341c-0.506-1.905-1.997-3.406-3.89-3.915C48.759,19.5,35,19.5,35,19.5s-13.759,0-17.191,0.925
	c-1.893,0.509-3.384,2.01-3.89,3.915C13,27.794,13,35,13,35s0,7.206,0.919,10.659c0.506,1.905,1.997,3.406,3.89,3.915
	C21.241,50.5,35,50.5,35,50.5s13.759,0,17.191-0.925c1.893-0.509,3.384-2.01,3.89-3.915C57,42.206,57,35,57,35
	S57,27.794,56.081,24.341z M30.5,41.542V28.458L42,35L30.5,41.542z"/>
</svg>
