<?xml version="1.0" encoding="utf-8"?>
<!-- Generator: Adobe Illustrator 24.1.0, SVG Export Plug-In . SVG Version: 6.00 Build 0)  -->
<!DOCTYPE svg PUBLIC "-//W3C//DTD SVG 1.1//EN" "http://www.w3.org/Graphics/SVG/1.1/DTD/svg11.dtd" [
	<!ENTITY st0 "fill:#FFFFFF;">
]>
<svg xmlns:xlink="http://www.w3.org/1999/xlink" version="1.1" id="レイヤー_1" xmlns="http://www.w3.org/2000/svg" x="0px"
	 y="0px" viewBox="0 0 70 70" style="enable-background:new 0 0 70 70;" xml:space="preserve">
<g id="Dark_Blue">
	<circle cx="35" cy="35" r="35"/>
</g>
<g id="Logo__x2014__FIXED">
	<path style="&st0;" d="M28.595,53.463c15.523,0,24.01-12.863,24.01-24.01c0-0.368,0-0.735-0.018-1.085
		c1.645-1.19,3.08-2.677,4.218-4.375c-1.505,0.665-3.132,1.12-4.848,1.33c1.75-1.05,3.08-2.695,3.71-4.672
		c-1.627,0.962-3.43,1.662-5.355,2.047c-1.54-1.645-3.728-2.66-6.16-2.66c-4.655,0-8.435,3.78-8.435,8.435
		c0,0.665,0.07,1.312,0.228,1.925c-7.017-0.35-13.23-3.71-17.395-8.82c-0.717,1.243-1.137,2.695-1.137,4.235
		c0,2.923,1.487,5.513,3.762,7.017c-1.382-0.035-2.677-0.42-3.815-1.05c0,0.035,0,0.07,0,0.105c0,4.095,2.905,7.49,6.772,8.278
		c-0.7,0.193-1.452,0.298-2.222,0.298c-0.542,0-1.067-0.053-1.592-0.158c1.067,3.36,4.183,5.793,7.875,5.863
		c-2.887,2.257-6.528,3.605-10.483,3.605c-0.683,0-1.347-0.035-2.012-0.123C19.39,52.062,23.835,53.463,28.595,53.463"/>
</g>
</svg>
