<?xml version="1.0" encoding="utf-8"?>
<!-- Generator: Adobe Illustrator 24.1.0, SVG Export Plug-In . SVG Version: 6.00 Build 0)  -->
<!DOCTYPE svg PUBLIC "-//W3C//DTD SVG 1.1//EN" "http://www.w3.org/Graphics/SVG/1.1/DTD/svg11.dtd" [
	<!ENTITY st0 "fill:#FFFFFF;">
]>
<svg xmlns:xlink="http://www.w3.org/1999/xlink" version="1.1" id="Logo" xmlns="http://www.w3.org/2000/svg" x="0px" y="0px"
	 viewBox="0 0 70 70" style="enable-background:new 0 0 70 70;" xml:space="preserve">
<circle cx="35" cy="35" r="35"/>
<g>
	<path style="&st0;" d="M35,17.784c5.607,0,6.271,0.021,8.486,0.122c2.047,0.093,3.159,0.436,3.899,0.723
		c0.98,0.381,1.68,0.836,2.415,1.571c0.735,0.735,1.19,1.434,1.571,2.415c0.288,0.74,0.63,1.852,0.723,3.899
		c0.101,2.214,0.122,2.879,0.122,8.486s-0.021,6.271-0.122,8.486c-0.093,2.047-0.436,3.159-0.723,3.899
		c-0.381,0.98-0.836,1.68-1.571,2.415c-0.735,0.735-1.434,1.19-2.415,1.571c-0.74,0.288-1.852,0.63-3.899,0.723
		c-2.214,0.101-2.878,0.122-8.486,0.122s-6.272-0.021-8.486-0.122c-2.047-0.093-3.159-0.436-3.899-0.723
		c-0.98-0.381-1.68-0.836-2.415-1.571c-0.735-0.735-1.19-1.434-1.571-2.415c-0.288-0.74-0.63-1.852-0.723-3.899
		c-0.101-2.214-0.122-2.879-0.122-8.486s0.021-6.271,0.122-8.486c0.093-2.047,0.436-3.159,0.723-3.899
		c0.381-0.98,0.836-1.68,1.571-2.415c0.735-0.735,1.434-1.19,2.415-1.571c0.74-0.288,1.852-0.63,3.899-0.723
		C28.729,17.805,29.393,17.784,35,17.784 M35,14c-5.703,0-6.418,0.024-8.658,0.126c-2.235,0.102-3.762,0.457-5.098,0.976
		c-1.381,0.537-2.552,1.255-3.72,2.422c-1.167,1.167-1.886,2.339-2.422,3.72c-0.519,1.336-0.874,2.862-0.976,5.098
		C14.024,28.582,14,29.297,14,35c0,5.703,0.024,6.418,0.126,8.658c0.102,2.235,0.457,3.762,0.976,5.098
		c0.537,1.381,1.255,2.552,2.422,3.72c1.167,1.167,2.339,1.886,3.72,2.422c1.336,0.519,2.862,0.874,5.098,0.976
		C28.582,55.976,29.297,56,35,56s6.418-0.024,8.658-0.126c2.235-0.102,3.762-0.457,5.098-0.976c1.381-0.537,2.552-1.255,3.72-2.422
		c1.167-1.167,1.886-2.339,2.422-3.72c0.519-1.336,0.874-2.862,0.976-5.098C55.976,41.418,56,40.703,56,35s-0.024-6.418-0.126-8.658
		c-0.102-2.235-0.457-3.762-0.976-5.098c-0.537-1.381-1.255-2.552-2.422-3.72c-1.167-1.167-2.339-1.886-3.72-2.422
		c-1.336-0.519-2.862-0.874-5.098-0.976C41.418,14.024,40.703,14,35,14L35,14z"/>
	<path style="&st0;" d="M35,24.216c-5.956,0-10.784,4.828-10.784,10.784S29.044,45.784,35,45.784S45.784,40.956,45.784,35
		S40.956,24.216,35,24.216z M35,42c-3.866,0-7-3.134-7-7c0-3.866,3.134-7,7-7s7,3.134,7,7C42,38.866,38.866,42,35,42z"/>
	<circle style="&st0;" cx="46.21" cy="23.79" r="2.52"/>
</g>
</svg>
