<svg id="レイヤー_1" data-name="レイヤー 1" xmlns="http://www.w3.org/2000/svg" width="230" height="100" viewBox="0 0 230 100"><defs><style>.cls-1{fill:none;}</style></defs><rect class="cls-1" width="230" height="100"/><path d="M75.533,71.889c-2.943,0-4.131-2.255-4.131-4.927,0-2.728,1.364-5.117,4.212-5.117a3.213,3.213,0,0,1,2.7,1.161,2.387,2.387,0,0,1,.5,1.323h-.945A2.044,2.044,0,0,0,75.6,62.615c-2.336,0-3.254,2.214-3.254,4.239,0,2.092.77,4.265,3.213,4.265a2.214,2.214,0,0,0,2.322-1.768h.972A3.112,3.112,0,0,1,75.533,71.889Z"/><path d="M83.755,71.9c-2.133,0-3.2-1.606-3.2-3.6,0-1.971,1.121-3.5,3.2-3.5,2.105,0,3.185,1.5,3.185,3.5C86.94,70.215,85.807,71.9,83.755,71.9Zm0-6.425c-1.634,0-2.322,1.349-2.322,2.821,0,1.444.675,2.97,2.322,2.97,1.62,0,2.308-1.566,2.308-2.97C86.063,66.84,85.388,65.477,83.755,65.477Z"/><path d="M93.434,71.754l-.027-1.094a2.441,2.441,0,0,1-2.214,1.161c-1.822,0-2.43-1-2.43-2.713V64.937h.824v3.847c0,1.269.3,2.349,1.741,2.349,1.539,0,2.052-1.283,2.052-2.632V64.937H94.2v4.778c0,.675.014,1.364.041,2.039Z"/><path d="M96.661,71.754v-9.76h.823v9.76Z"/><path d="M100.548,68.473v.162a2.384,2.384,0,0,0,2.268,2.66,1.871,1.871,0,0,0,1.931-1.7h.783a2.613,2.613,0,0,1-2.822,2.308c-2.079,0-3-1.525-3-3.442,0-1.958.959-3.631,3.105-3.631,2.174,0,2.754,1.822,2.754,3.644Zm4.185-.742a2.035,2.035,0,0,0-1.971-2.268,2.316,2.316,0,0,0-2.187,2.4h4.158Z"/><path d="M112.334,71.754l-.027-1.094a2.441,2.441,0,0,1-2.214,1.161c-1.823,0-2.43-1-2.43-2.713V64.937h.823v3.847c0,1.269.3,2.349,1.742,2.349,1.539,0,2.052-1.283,2.052-2.632V64.937h.823v4.778c0,.675.014,1.364.041,2.039Z"/><path d="M118.166,65.692c-1.458,0-1.917.851-1.917,2.2v3.861h-.823v-4.82c0-.661-.068-1.336-.041-2h.81L116.249,66a2.269,2.269,0,0,1,2.092-1.107,3.413,3.413,0,0,1,.378.027v.824A3.7,3.7,0,0,0,118.166,65.692Z"/><path d="M133.137,71.754V62.723l-3.672,9.031H128.6l-3.685-9.031v9.031h-.824v-9.76h1.445L129.06,70.7l3.5-8.707H134v9.76Z"/><path d="M136.917,68.473v.162a2.383,2.383,0,0,0,2.268,2.66,1.869,1.869,0,0,0,1.93-1.7h.783a2.612,2.612,0,0,1-2.821,2.308c-2.079,0-3-1.525-3-3.442,0-1.958.958-3.631,3.1-3.631,2.173,0,2.753,1.822,2.753,3.644Zm4.185-.742a2.035,2.035,0,0,0-1.971-2.268,2.316,2.316,0,0,0-2.187,2.4H141.1Z"/><path d="M144.217,71.754v-9.76h.824v9.76Z"/><path d="M148.055,68.473v.162a2.383,2.383,0,0,0,2.267,2.66,1.871,1.871,0,0,0,1.931-1.7h.782a2.612,2.612,0,0,1-2.821,2.308c-2.078,0-3-1.525-3-3.442,0-1.958.959-3.631,3.1-3.631,2.174,0,2.754,1.822,2.754,3.644Zm4.184-.742a2.035,2.035,0,0,0-1.971-2.268,2.316,2.316,0,0,0-2.187,2.4h4.158Z"/><path d="M158.044,65.692c-1.458,0-1.917.851-1.917,2.2v3.861H155.3v-4.82c0-.661-.068-1.336-.041-2h.81L156.127,66A2.272,2.272,0,0,1,158.22,64.9a3.448,3.448,0,0,1,.378.027v.824A3.713,3.713,0,0,0,158.044,65.692Z"/><path d="M96.012,79.186a1.128,1.128,0,0,1-1.245-1.246V75.885h.305v1.952a1.269,1.269,0,0,0,.149.728.934.934,0,0,0,.791.373.9.9,0,0,0,.855-.49,1.559,1.559,0,0,0,.085-.611V75.885h.306V77.94A1.149,1.149,0,0,1,96.012,79.186Z"/><path d="M99.972,79.136a2.385,2.385,0,0,1-.13-.782c-.045-.54-.077-.788-.666-.788h-.769v1.57h-.293V75.885h1.093c.509,0,1.026.189,1.026.782a.757.757,0,0,1-.625.774.519.519,0,0,1,.413.283c.158.351.1,1.2.288,1.412Zm-.832-3.009h-.733v1.2h.711c.431,0,.805-.122.805-.625C99.923,76.213,99.545,76.127,99.14,76.127Z"/><path d="M101.975,79.136h-.895V75.885h.895a2.159,2.159,0,0,1,.567.045.779.779,0,0,1,.593.76.722.722,0,0,1-.6.746.76.76,0,0,1,.737.8C103.27,78.979,102.582,79.136,101.975,79.136Zm.175-2.991h-.778v1.188h.693c.414,0,.756-.158.756-.621C102.821,76.307,102.515,76.145,102.15,76.145Zm-.031,1.421h-.747v1.31h.576c.472,0,1.012-.032,1.012-.648C102.96,77.693,102.569,77.566,102.119,77.566Z"/><path d="M106.375,79.136l-.368-.908H104.36l-.35.908H103.7l1.327-3.251h.31l1.381,3.251Zm-1.214-2.968-.706,1.817H105.9Z"/><path d="M109.305,79.136l-1.763-2.9v2.9h-.274V75.885h.4l1.762,2.905V75.885h.275v3.251Z"/><path d="M113.747,79.136a2.412,2.412,0,0,1-.131-.782c-.045-.54-.076-.788-.665-.788h-.769v1.57h-.293V75.885h1.093c.508,0,1.025.189,1.025.782a.756.756,0,0,1-.625.774.52.52,0,0,1,.414.283c.157.351.1,1.2.288,1.412Zm-.832-3.009h-.733v1.2h.71c.432,0,.805-.122.805-.625C113.7,76.213,113.319,76.127,112.915,76.127Z"/><path d="M114.81,79.136V75.885h1.929v.242H115.1v1.2h1.574v.242H115.1v1.328h1.7v.242Z"/><path d="M118.535,79.177a.952.952,0,0,1-1.088-.886h.306c.013.463.382.638.8.638.391,0,.845-.17.845-.629,0-.895-1.853-.495-1.853-1.592,0-.608.535-.864,1.075-.864.5,0,1.007.184,1.016.76h-.3c-.04-.395-.342-.517-.7-.517s-.791.166-.791.6a.455.455,0,0,0,.185.382c.4.311,1.07.315,1.452.652a.694.694,0,0,1,.216.531C119.691,78.9,119.115,79.177,118.535,79.177Z"/><path d="M120.52,79.136V75.885h1.93v.242h-1.638v1.2h1.574v.242h-1.574v1.328h1.7v.242Z"/><path d="M125.8,79.136l-.369-.908h-1.646l-.351.908h-.31l1.327-3.251h.31l1.381,3.251Zm-1.214-2.968-.706,1.817h1.448Z"/><path d="M128.565,79.136a2.385,2.385,0,0,1-.13-.782c-.045-.54-.077-.788-.666-.788H127v1.57h-.293V75.885H127.8c.508,0,1.026.189,1.026.782a.757.757,0,0,1-.625.774.519.519,0,0,1,.413.283c.158.351.1,1.2.289,1.412Zm-.832-3.009H127v1.2h.711c.431,0,.8-.122.8-.625C128.516,76.213,128.138,76.127,127.733,76.127Z"/><path d="M130.824,79.181c-.98,0-1.376-.751-1.376-1.641,0-.909.454-1.705,1.4-1.705a1.072,1.072,0,0,1,.9.387.793.793,0,0,1,.166.441H131.6a.682.682,0,0,0-.756-.571c-.778,0-1.084.737-1.084,1.412,0,.7.256,1.421,1.07,1.421a.738.738,0,0,0,.774-.589h.324A1.036,1.036,0,0,1,130.824,79.181Z"/><path d="M134.941,79.136V77.585h-1.808v1.551h-.292V75.885h.292v1.457h1.808V75.885h.292v3.251Z"/><path d="M162.709,34.334a.848.848,0,0,0-1.154.3,4.442,4.442,0,0,0-.214.505c0,.013,0,.016,0,.027a.765.765,0,0,0-.078.057,1.665,1.665,0,0,0-.513.768c-.022.083-.092.245-.084.246-.082.128-.19.241-.275.367a1.764,1.764,0,0,0-.249.484.893.893,0,0,0-.021.095,2.191,2.191,0,0,0-.5.738,1.159,1.159,0,0,0-.026.143,1.85,1.85,0,0,0-.183.241,1,1,0,0,0-.1.312l-.009.007a2.205,2.205,0,0,0-.533.82,2.259,2.259,0,0,0-.1.263c-.024.02-.052.045-.084.077a1.041,1.041,0,0,0-.251.393,2.449,2.449,0,0,0-.487.748c-.024.056-.046.113-.069.17,0-.02-.015-.008-.059.045-.081.068-.17.114-.259.186a1.212,1.212,0,0,0-.379.663l-.024.058a1,1,0,0,0-.227.167,1.043,1.043,0,0,0-.238.413c-.018.017-.031.027-.053.049a.845.845,0,0,0-.282.424.956.956,0,0,0-.3.224.74.74,0,0,0-.119.278,1.38,1.38,0,0,0-.394.39c-.168.218-.221.494-.39.676-.008.009-.261.258-.371.387a1.319,1.319,0,0,0-.147.07,1.362,1.362,0,0,0-.359.4l-.085.2c.006-.089-.03-.089-.107,0a1.643,1.643,0,0,0-.443.393,1.857,1.857,0,0,1-.126.147,1.512,1.512,0,0,0-.326.3,1.025,1.025,0,0,0-.132.054,1.64,1.64,0,0,0-.67.711l-.015.032a3.4,3.4,0,0,0-.4.332c-.262.209-.554.352-.82.544a.777.777,0,0,0-.162.146l-.034.038c-.089.035-.177.07-.265.109a2.312,2.312,0,0,0-.432.329.379.379,0,0,0-.075.089.671.671,0,0,0-.11.038,2.256,2.256,0,0,0-.8.457c-.021,0-.043.006-.065.011a1.724,1.724,0,0,0-.536.148c-.277.149-.607.267-.871.441-.108.071-.277.341-.386.386.056-.023-.191-.023-.226-.021a1.176,1.176,0,0,0-.719.257.966.966,0,0,0-.386.061,2.175,2.175,0,0,0-.319.169,1.152,1.152,0,0,0-.283-.045,3.07,3.07,0,0,0-.684.146,2.684,2.684,0,0,1-.558.076.852.852,0,0,0-.33.088,1.464,1.464,0,0,0-.234-.07,3.54,3.54,0,0,0-.764.009c-.193,0-.361-.087-.556-.087a.813.813,0,0,0-.342.083,8.029,8.029,0,0,1-2.071-.815c-.013-.009-.157-.123-.245-.182l-.016-.029a2.52,2.52,0,0,0-.48-.555c-.126-.116-.327-.381-.483-.44a.057.057,0,0,0-.033,0,1.336,1.336,0,0,0-.114-.33,2.547,2.547,0,0,0-.411-.568c-.054-.061-.116-.122-.169-.188a1.042,1.042,0,0,1-.036-.131,1.31,1.31,0,0,0-.347-.73c-.022-.023-.124-.118-.169-.152-.022-.058-.084-.187-.085-.191-.115-.372-.032-.823-.151-1.23s-.241-.793-.356-1.192a.978.978,0,0,0,.062-.449,1.405,1.405,0,0,0-.143-.419c0-.005-.062.28-.025-.006a4.738,4.738,0,0,0,.064-1.368,1.678,1.678,0,0,0,.036-.709,2.419,2.419,0,0,0,0-.613c.046-.229.094-.458.139-.688a1.258,1.258,0,0,0-.05-.66,1.715,1.715,0,0,0,.016-.514l.007-.015.01-.018h0c.031-.066.063-.133.087-.2.338-.935-1.043-1.417-1.542-.65-.139.214-.248.439-.38.655a3.988,3.988,0,0,0-.265.659l-.062.076c-.089.114-.223.183-.3.316a.888.888,0,0,0-.1.386.8.8,0,0,0-.232.3.927.927,0,0,0-.079.3l-.022.025a1.559,1.559,0,0,0-.409.513.779.779,0,0,0-.058.164,1.188,1.188,0,0,0-.127.108,1.84,1.84,0,0,0-.37.66,1.4,1.4,0,0,0-.039.224v0c-.006,0-.01.005-.016,0a.994.994,0,0,0-.5.747,1.9,1.9,0,0,0-.318.33,10.47,10.47,0,0,0-.589.876,2.624,2.624,0,0,0-.184.487c0,.133-.012.148-.049.046a.536.536,0,0,0-.132.206.29.29,0,0,0-.023.053c-.01.007-.022.012-.032.02a2.371,2.371,0,0,0-.406.328c-.264.26-.289.629-.421.809a4.236,4.236,0,0,1-.363.334l-.132.171-.009.013c-.139.078-.377.229-.376.228a1.993,1.993,0,0,0-.251.437c0-.027-.288.27-.277.251-.014.024-.024.044-.032.061l-.043.025a4.486,4.486,0,0,0-.771.6,1.278,1.278,0,0,0-.233.37,2.66,2.66,0,0,0-.651.584.769.769,0,0,1-.2.2c.114-.072-.2.054-.284.081a.952.952,0,0,0-.5.388c-.012.018-.045.087-.079.161l-.077.017a1.029,1.029,0,0,0-.484.245c-.048.06-.095.121-.142.182a3.8,3.8,0,0,0-.4.128,4.983,4.983,0,0,0-.792.411,1.238,1.238,0,0,0-.445.066,4.2,4.2,0,0,0-.528.273c-.271.031-.536.076-.81.114a2.242,2.242,0,0,0-.538.069,1.3,1.3,0,0,0-.259.145A4.362,4.362,0,0,1,120,51.832a3.787,3.787,0,0,1-.546-.092c-.08-.039-.01-.074-.127-.134a1.582,1.582,0,0,0-.484-.232c-.019,0-.04,0-.06-.006a.684.684,0,0,0-.2-.176.709.709,0,0,0-.29-.092.922.922,0,0,0-.348-.3c.021.01-.328-.173-.351-.177a.559.559,0,0,0-.043-.047l0-.012a1.8,1.8,0,0,0-.522-.828.708.708,0,0,0-.1-.075h0c-.045-.16-.164-.325-.2-.481-.065-.279-.1-.567-.189-.86-.081-.256-.3-.588-.344-.715-.055-.155-.02-.352-.069-.517-.045-.148-.1-.281-.132-.433a3.153,3.153,0,0,0-.09-.537,1.074,1.074,0,0,0-.13-.228c.006-.023.01-.038.017-.068a1.265,1.265,0,0,0,.036-.45.839.839,0,0,0-.229-.432,3.437,3.437,0,0,0,.038-.4,3.98,3.98,0,0,0-.164-.822c-.014-.073,0-.5,0-.7a1.14,1.14,0,0,0-.136-.525,2.014,2.014,0,0,0-.023-.741c-.012-.052-.079-.346-.094-.3.008-.171.067-.355.086-.524a7.324,7.324,0,0,0-.027-.97c-.006-.232,0-.454-.011-.68a1.143,1.143,0,0,0,.141-.3c.082-.323-.112-.48-.117-.76,0,.172.115-.294.1-.211a1.254,1.254,0,0,0,.027-.376c.015-.035.035-.082.064-.156a2.789,2.789,0,0,0,.093-.621.827.827,0,0,0,.128-.206,1.157,1.157,0,0,0,.06-.507c.041-.094.088-.181.133-.271a2.791,2.791,0,0,0,.274-.319,9.122,9.122,0,0,0,.531-1.094l.117-.276a.837.837,0,0,0,.034-.129.913.913,0,0,0,.073-.065,1.279,1.279,0,0,0,.212-.313,2.011,2.011,0,0,0,.264-.9.949.949,0,0,0,.22-.367,1.8,1.8,0,0,0,.02-.451v-.029c.1-.174.265-.3.368-.471a.946.946,0,0,0,.131-.539.811.811,0,0,0,.19-.326,1.076,1.076,0,0,0,.027-.339q-.078-.36,0-.165c.074-.373.209-.7.279-1.067a4.572,4.572,0,0,0,.465-1.55.893.893,0,0,0,.176-.326.821.821,0,0,0-.013-.421.988.988,0,0,0,.114-.337,1.041,1.041,0,0,0-.024-.342c.007-.016.016-.03.024-.047a.858.858,0,0,0-.218-1.088.838.838,0,0,0-1.107.066,1.982,1.982,0,0,0-.45.553,1.148,1.148,0,0,0-.067.377,1.5,1.5,0,0,0-.107.145c-.014.025-.1.221-.123.3-.055.062-.184.234-.2.258-.077.137-.128.3-.2.442s-.225.255-.2.414a.09.09,0,0,0,.009.029l0,0a1.289,1.289,0,0,0-.272.524,1.021,1.021,0,0,0-.138.116,2,2,0,0,0-.238.513,2.5,2.5,0,0,0-.265.442,1.161,1.161,0,0,0-.032.313,2.266,2.266,0,0,0-.4,1.239,2.693,2.693,0,0,0-.241.5,1.866,1.866,0,0,0-.059.242,2.3,2.3,0,0,0-.191.243,2.321,2.321,0,0,0-.186,1.079.916.916,0,0,0-.249.372,4.934,4.934,0,0,0-.165.941,3.908,3.908,0,0,1-.021.62,1.723,1.723,0,0,0-.18.578c0,.05,0,.442.025.267-.028.205-.074.406-.112.609a2.253,2.253,0,0,0-.371.492,1.514,1.514,0,0,0-.136.328.823.823,0,0,0-.016.189,1.911,1.911,0,0,0-.255.215,8.354,8.354,0,0,0-.656,1.278c-.183.3-.656.521-.806.985-.005.016-.024.079-.04.145l-.058.053c-.169.154-.25.427-.4.609-.076.089-.148.182-.219.275l-.067.092c-.046.031-.1.071-.142.095a1.3,1.3,0,0,0-.351.334,2.184,2.184,0,0,0-.33.558c-.008.02-.032.073-.054.123a2.837,2.837,0,0,0-.942.951,2.358,2.358,0,0,0-.155.224l-.006.013a1.089,1.089,0,0,0-.433.426c-.119.223-.047.128-.3.278a2.032,2.032,0,0,0-.425.418l-.047.025a1,1,0,0,0-.289.241c-.112.131-.2.23-.306.344a2.711,2.711,0,0,0-.3.474l-.068.052c-.109.086-.256.138-.37.227a3.613,3.613,0,0,0-.58.482,1.178,1.178,0,0,0-.106.158,1.861,1.861,0,0,0-.514.281,1.348,1.348,0,0,0-.25.282.449.449,0,0,0-.079.144.536.536,0,0,0-.078.023,1.075,1.075,0,0,0-.34.17c-.176.127-.355.246-.529.374a3.731,3.731,0,0,0-.453.471,1.076,1.076,0,0,1-.374.243,1.08,1.08,0,0,0-.731.427.718.718,0,0,0-.044.091.093.093,0,0,0-.042.021l-.107.008a1.17,1.17,0,0,0-.31.116,3.135,3.135,0,0,0-.3.288l-.025.007a1.013,1.013,0,0,0-.41.259c-.018.019-.043.05-.069.084a1.543,1.543,0,0,1-.2.1,1.746,1.746,0,0,0-.364.127s-.158.123-.274.231l-.08.017a1.835,1.835,0,0,0-.484.244,2.663,2.663,0,0,0-.253.208l-.066.086a1.19,1.19,0,0,0-.463.07,1.223,1.223,0,0,0-.356.249l-.019.025h0a1.145,1.145,0,0,0-.62.146,1.823,1.823,0,0,0-.373.338,1.683,1.683,0,0,0-.449.058,1.348,1.348,0,0,0-.443.2,2.676,2.676,0,0,0-.242.225,1.491,1.491,0,0,0-.424.074,1.8,1.8,0,0,0-.576.308,3.2,3.2,0,0,0-1.192.4,5.112,5.112,0,0,0-.688.112,1.622,1.622,0,0,0-.608.317c-.338.062-.656.167-1,.248a8.992,8.992,0,0,0-.882.248.934.934,0,0,0-.343-.074,3.385,3.385,0,0,0-.555.11,5.305,5.305,0,0,0-1.077.331,1.842,1.842,0,0,0-.516-.053,1.037,1.037,0,0,0-.473.141.792.792,0,0,0-.362-.047c-.236.024-.446.15-.678.187-.207.033-.437.043-.645.064a2.411,2.411,0,0,0-.419.072.918.918,0,0,1-.106-.057,1.22,1.22,0,0,0-.371-.047,4.256,4.256,0,0,0-.945.167c-.061.014-.077.022-.077.028L84.4,54.3a3.637,3.637,0,0,0-.435-.106.967.967,0,0,0-.534.209c-.3-.015-.576-.037-.862-.023a1.13,1.13,0,0,0-.318-.155,1.11,1.11,0,0,0-.6.053,2.5,2.5,0,0,0-.5-.01,1.242,1.242,0,0,0-.75-.033,1.283,1.283,0,0,0-.194.06,1.494,1.494,0,0,1-.188,0,1.3,1.3,0,0,0-.35-.174,2.416,2.416,0,0,0-.488-.013c-.359-.023-.749-.107-1.105-.163-.057-.009-.136-.066-.325-.124a3.341,3.341,0,0,0-.542-.094,3.574,3.574,0,0,0-.834,0,1.312,1.312,0,0,0-.344-.125,3.359,3.359,0,0,0-.551-.048,2.852,2.852,0,0,0-.652-.278c-.315-.077-.658-.1-.964-.182s-.639-.26-.948-.375c.28.1.086.043-.027-.055a1.024,1.024,0,0,0-.358-.2.86.86,0,0,0-.3-.349,1.965,1.965,0,0,0-.448-.151c-.046-.036-.092-.073-.139-.108L71.6,51.84a1.283,1.283,0,0,0-.084-.163.84.84,0,0,0-.475-.354.8.8,0,0,0-.146-.217c-.122-.125-.265-.187-.386-.3-.309-.277-.324-.656-.555-.99a3.546,3.546,0,0,1-.635-1.021,4.349,4.349,0,0,0-.186-.637.967.967,0,0,0-.19-.27,2.8,2.8,0,0,0-.133-.938c-.036-.093-.135-.2-.163-.283-.107-.328.024.089-.005-.1-.031-.209-.042-.384-.09-.577.057-.419.046-.833.095-1.259a4.614,4.614,0,0,0-.019-1.2,3.189,3.189,0,0,0,.227-.8,1.152,1.152,0,0,0-.026-.42.685.685,0,0,0,.08-.136c.124-.307,0-.568.049-.876.037-.231.169-.441.222-.668a1.975,1.975,0,0,0,.044-.447.819.819,0,0,0,.194-.331,1.122,1.122,0,0,0,.02-.385,3.243,3.243,0,0,0,.289-.822c.082-.173.166-.344.252-.515.052-.105.108-.211.149-.32.019-.049.1-.279.064-.267a1.062,1.062,0,0,0,.282-.41,1.023,1.023,0,0,0,.021-.382,2.389,2.389,0,0,0,.407-.518c.162-.313.283-.641.452-.954.156-.289.377-.53.537-.813a2.945,2.945,0,0,0,.148-.33,4.484,4.484,0,0,0,.273-.364,1.759,1.759,0,0,0,.212-.565.236.236,0,0,0,.008-.078.516.516,0,0,0,.044-.039,2.939,2.939,0,0,0,.642-.665,5,5,0,0,1,1.159-1.439,2.408,2.408,0,0,0,.694-.72l.028-.013a1.019,1.019,0,0,0,.4-.357,2.284,2.284,0,0,1,.412-.6c.013-.012.263-.194.37-.29l.034-.006a1.041,1.041,0,0,0,.215-.077,2.621,2.621,0,0,0,.789-.737l.011-.016a1.069,1.069,0,0,0,.472-.247c.252-.239.244-.359.58-.579a2.624,2.624,0,0,0,.415-.26.909.909,0,0,0,.148-.2.9.9,0,0,0,.188-.083,1.226,1.226,0,0,0,.17-.143,1.39,1.39,0,0,0,.582-.29.894.894,0,0,0,.152-.2,2.765,2.765,0,0,0,.624-.3,1.582,1.582,0,0,0,.379-.312c.029-.037.043-.059.059-.083l.019,0a4.739,4.739,0,0,0,.988-.515,5.6,5.6,0,0,0,.5-.3,1.2,1.2,0,0,0,.155-.024.97.97,0,0,0,.484-.238c.056-.061.106-.127.156-.193.118-.015.26-.015.286-.022a1.374,1.374,0,0,0,.521-.3,2.145,2.145,0,0,1,.867-.317,2.03,2.03,0,0,0,.746-.449,1.109,1.109,0,0,0,.387-.073,1.049,1.049,0,0,0,.315-.223,3.372,3.372,0,0,0,1.047-.334,1.278,1.278,0,0,0,.164.011.844.844,0,0,0,0-1.687,1.611,1.611,0,0,0-.68.047,4.007,4.007,0,0,1-.571.252c-.178.047-.377.051-.57.107a1,1,0,0,0-.41.263,1.539,1.539,0,0,0-.849.37.976.976,0,0,0-.09.1l-.019,0a1.622,1.622,0,0,0-.565.132,2.329,2.329,0,0,0-.623.336c-.159.081-.184.114-.075.1-.112.013-.224.029-.336.049a1.992,1.992,0,0,0-.508.2.908.908,0,0,0-.22.194,3.44,3.44,0,0,0-.9.485c-.192.1-.365.236-.562.329a5.808,5.808,0,0,0-.619.235c-.27.169-.422.525-.556.572-.27.093-.472.064-.7.28a.8.8,0,0,0-.12.148c-.248.054-.541.149-.536.329-.022.009-.045.01-.066.02a1,1,0,0,0-.5.388.437.437,0,0,0-.043.076,3.854,3.854,0,0,0-.424.316,3.158,3.158,0,0,0-.451.428.926.926,0,0,0-.554.313c-.1.118-.149.193-.245.3-.036.032-.066.07-.1.105-.376.019-1.421,1.128-1.526,1.252a2.56,2.56,0,0,0-.2.289c-.028.014-.059.025-.086.042a1.084,1.084,0,0,0-.36.4c-.157.286-.011.145-.09.221-.216.209-.5.357-.715.591s-.413.506-.618.758a3.186,3.186,0,0,0-.331.428,1.562,1.562,0,0,0-.134.293c-.18.213-.448.333-.619.57a3.614,3.614,0,0,0-.306.778c-.071.146-.22.244-.3.384s-.126.3-.211.442c-.171.281-.364.531-.521.824-.139.259-.233.595-.392.833a7.5,7.5,0,0,0-.508.627.955.955,0,0,0-.121.58.759.759,0,0,0-.1.126,6.474,6.474,0,0,0-.214.615A5.223,5.223,0,0,0,68.1,38.4a3.733,3.733,0,0,0-.284.565,1.143,1.143,0,0,0-.059.4.933.933,0,0,0-.2.43c-.038.234.015.4-.013.5-.063.227-.2.432-.255.664a2.018,2.018,0,0,0-.014.636.983.983,0,0,0-.147.223c-.149.373.071.577.063.85,0,.1-.2.4-.239.55a1.275,1.275,0,0,0,.065.657c-.052.594-.029,1.191-.1,1.788a3.37,3.37,0,0,0,.308,1.851,3.775,3.775,0,0,1,.037.616,1.047,1.047,0,0,0,.121.535,2.527,2.527,0,0,0,.212.214.412.412,0,0,0,.037.136l.04.154a4.332,4.332,0,0,0,.136.46,4.39,4.39,0,0,0,.6.911,3.786,3.786,0,0,1,.35.714,2.584,2.584,0,0,0,.618.8,2.081,2.081,0,0,0,.268.231.949.949,0,0,0,.044.1,6.876,6.876,0,0,1,.883.854c.178.081.386.192.629.288a.991.991,0,0,0,.1.169.841.841,0,0,0,.438.3c.165.04.2.03.037-.074a2.923,2.923,0,0,0,.689.417c.215.077.429.168.643.252.448.177.922.172,1.367.328.2.07.357.223.565.277a3.108,3.108,0,0,0,.694.062,1.454,1.454,0,0,0,.818.122,1.8,1.8,0,0,1,.747.07,4.789,4.789,0,0,0,1.016.193,7.843,7.843,0,0,0,.939.123,1.95,1.95,0,0,0,.739.2,2.105,2.105,0,0,0,.75-.081,1.892,1.892,0,0,0,.61.024,1.808,1.808,0,0,0,.479.012,2.174,2.174,0,0,0,.29.136,4.171,4.171,0,0,0,.812-.023,3.673,3.673,0,0,0,.824.046.956.956,0,0,0,.344-.142,1.873,1.873,0,0,0,.9-.033,2.889,2.889,0,0,1,.38-.094l.027.017a1.389,1.389,0,0,0,.285.11c.321.077.468-.059.755-.128-.241.058.421-.005.335.01.346-.06.671-.127,1-.216a.841.841,0,0,0,.5.1.873.873,0,0,0,.438-.209.716.716,0,0,0,.189.046,1.207,1.207,0,0,0,.756-.124,9.191,9.191,0,0,1,1.027-.283,1.057,1.057,0,0,0,.471.07c.246-.03.483-.169.73-.223a8.147,8.147,0,0,0,1.2-.334,1.428,1.428,0,0,0,.584-.13c.039-.02.3-.234.223-.193.35-.178.752-.062,1.1-.275a1.515,1.515,0,0,1,.331-.2c.192-.061.411,0,.608-.056s.294-.191.463-.282a2.563,2.563,0,0,0,.325-.076,1.889,1.889,0,0,0,.622-.2c-.006,0,.169-.133.287-.245a.88.88,0,0,0,.192,0,1.227,1.227,0,0,0,.568-.2,1.565,1.565,0,0,0,.393-.3l0,0c.036-.006.073-.009.109-.016a1.629,1.629,0,0,0,.665-.337,1.347,1.347,0,0,0,.45-.1,4.46,4.46,0,0,0,.671-.5c.154-.093.474-.111.672-.307l.044-.045a4.318,4.318,0,0,0,.4-.159,1.2,1.2,0,0,0,.41-.258.907.907,0,0,0,.118-.142,2.6,2.6,0,0,0,.293-.122,2.26,2.26,0,0,0,.211-.2c.014-.005.03,0,.045-.01a1.857,1.857,0,0,0,.414-.2,1.142,1.142,0,0,0,.315-.3.716.716,0,0,0,.2-.051,4.371,4.371,0,0,0,.507-.312c.335-.2.487-.491.8-.7.091-.062.231-.112.292-.211a2.069,2.069,0,0,0,.435-.217,1.958,1.958,0,0,0,.445-.472c.014-.02.034-.059.055-.1.023,0,.068-.023.123-.037a1.072,1.072,0,0,0,.493-.252c.015-.016.146-.21.223-.344l.036-.02a1.662,1.662,0,0,0,.246-.2.439.439,0,0,0,.1-.062,2.967,2.967,0,0,0,.369-.227,1.84,1.84,0,0,0,.388-.453c.044-.078.06-.181.111-.253-.056.078.046.029.121-.057a.9.9,0,0,0,.083-.123c.012,0,.071-.052.162-.093a.883.883,0,0,0,.342-.264.824.824,0,0,0,.118-.186l.013-.027a2.47,2.47,0,0,0,.289-.248c.114-.118.2-.273.3-.4a1.252,1.252,0,0,0,.337-.222c.245-.251.317-.61.582-.855.216-.2.569-.3.76-.7a3.913,3.913,0,0,0,.179-.41l.022-.04c.381-.145.588-.573.846-.866a5.392,5.392,0,0,0,.358-.592c-.017.05.22-.157.262-.227a1.236,1.236,0,0,0,.117-.312c.006-.026.008-.041.012-.061.073-.064.18-.151.247-.2,0,.119,0,.236,0,.357a6.223,6.223,0,0,1-.063,1.053,3.142,3.142,0,0,0,.149.823c.015.207-.087.4-.031.613a1.106,1.106,0,0,0,.135.292c-.008.229,0,.455.008.685a1.289,1.289,0,0,0,.06.41c.112.321.111.031.1.3a4.411,4.411,0,0,0-.055.663.872.872,0,0,0,.2.482,1.342,1.342,0,0,0-.013.389,1.6,1.6,0,0,0,.236.65c.051.338.141.66.186,1a1.317,1.317,0,0,0,.395,1,10.076,10.076,0,0,1,.278,1.079c.079.2.149.419.241.618a2.339,2.339,0,0,0,.387.515c.125.158.014-.029.134.2a2.149,2.149,0,0,0,.375.6,2.71,2.71,0,0,0,.565.439c.041.024.087.039.13.059a.9.9,0,0,0,.63.467,1.761,1.761,0,0,0,.506.317,1.046,1.046,0,0,0,.283.031,1.626,1.626,0,0,0,.63.339,12.277,12.277,0,0,0,1.243.218,4.117,4.117,0,0,0,1.239.009,2.947,2.947,0,0,0,.845-.244c.318-.016.606-.1.931-.129a2.323,2.323,0,0,0,.976-.328,1.3,1.3,0,0,0,.342-.03,2.566,2.566,0,0,0,.63-.327c.328-.192.748-.214,1.072-.42a.761.761,0,0,0,.245-.22l.021-.023a1.992,1.992,0,0,0,.284-.115,1.585,1.585,0,0,0,.574-.487.684.684,0,0,0,.054-.1,2.018,2.018,0,0,0,1-.76.946.946,0,0,1,.06-.085c.143-.106-.058.042.267-.133a1.036,1.036,0,0,0,.507-.585c.1-.069.174-.176.27-.249-.094,0-.08-.017.042-.049a.659.659,0,0,0,.194-.1,1.663,1.663,0,0,0,.347-.373,3.759,3.759,0,0,0,.414-.5l.039-.017a1.292,1.292,0,0,0,.4-.358,3.3,3.3,0,0,0,.945-1.316,1.964,1.964,0,0,0,.3-.2,2.935,2.935,0,0,0,.5-.737,1.239,1.239,0,0,0,.171-.373c.093-.386-.053-.052.153-.293.051-.059.2-.394.327-.57l.03-.013a.473.473,0,0,0,.194-.112,1.006,1.006,0,0,0,.3-.3.856.856,0,0,0,.108-.372,2.144,2.144,0,0,0,.161-.168,1.366,1.366,0,0,0,.362-.723c.008-.045.012-.071.014-.088.047-.038.127-.105.158-.136a1.021,1.021,0,0,0,.215-.31l.012-.024a2.626,2.626,0,0,1,.055.641,2.41,2.41,0,0,0-.113.678,1.634,1.634,0,0,0,.13.521,1.042,1.042,0,0,0-.039.52c.059.295.174.582.257.87a8.038,8.038,0,0,1,.227.779.374.374,0,0,0,.01.079l-.023.168a2.749,2.749,0,0,0,.044.444,2.885,2.885,0,0,0,.306.881,1.226,1.226,0,0,0,.238.363c.044.043.079.076.107.1.09.226.3.685.326.721.1.134.217.248.32.377.059.074.066.064.066.059a.523.523,0,0,0,.028.091,1.5,1.5,0,0,0,.463.751c.2.177.411.362.6.552a4.011,4.011,0,0,0,.511.613,6.538,6.538,0,0,0,.685.464,7.688,7.688,0,0,0,1.509.564c.291.093.572.2.86.3a.967.967,0,0,0,.7-.033,2.378,2.378,0,0,0,.866.008c.131.038.257.081.4.12.325.09.482-.046.761-.1-.029.015.114.026.146.026a1.352,1.352,0,0,0,.377-.082l.581-.15a1.434,1.434,0,0,0,.609.017,1.5,1.5,0,0,0,.519-.226.959.959,0,0,0,.434-.062.97.97,0,0,0,.293-.2,2.306,2.306,0,0,0,.892-.23c.257-.133.449-.375.633-.46a3.518,3.518,0,0,1,.768-.3,1.321,1.321,0,0,0,.622-.206,3.717,3.717,0,0,0,.291-.3c.047-.035.349-.124.446-.182.141-.085.245-.224.381-.315a6.16,6.16,0,0,0,.7-.416c.1-.2.148-.238.127-.109a.579.579,0,0,0,.238-.134c.127-.089.247-.191.372-.282.07-.052.375-.349.3-.3.158-.11.321-.123.469-.272.164-.165.14-.3.275-.472-.087.111.07-.018.138-.057a1.413,1.413,0,0,0,.406-.351l.043-.057a1.32,1.32,0,0,0,.22-.151,2.251,2.251,0,0,0,.334-.429c-.209.277.124-.034.213-.1a1.587,1.587,0,0,0,.39-.377c.021-.031.038-.058.054-.083a2.108,2.108,0,0,0,.281-.208,1.794,1.794,0,0,0,.219-.313c-.112.081-.111.078,0-.007a1.985,1.985,0,0,0,.674-.911h0a2.362,2.362,0,0,0,.236-.114.769.769,0,0,0,.35-.51l.036-.021a1,1,0,0,0,.405-.561.91.91,0,0,0,.2-.2.95.95,0,0,0,.147-.3.958.958,0,0,0,.323-.3,2.165,2.165,0,0,0,.2-.505c.069-.053.165-.139.189-.16a2.348,2.348,0,0,0,.518-.761c.068-.127.2-.189.333-.375a1.032,1.032,0,0,0,.173-.342.988.988,0,0,0,.382-.594.882.882,0,0,1,.181-.427c.206-.215.406-.316.488-.635a1.17,1.17,0,0,0,.021-.132l.029-.035a1,1,0,0,0,.23-.428c.02-.075.094-.274.07-.256a3.411,3.411,0,0,0,.351-.447,3.48,3.48,0,0,1,.369-.7,1.741,1.741,0,0,0,.356-.643l.03-.225a.58.58,0,0,1,.021.082,2.628,2.628,0,0,0,.267-.185c.218-.226.228-.528.344-.8A.875.875,0,0,0,162.709,34.334Z"/></svg>