<svg id="レイヤー_1" data-name="レイヤー 1" xmlns="http://www.w3.org/2000/svg" width="230" height="100" viewBox="0 0 230 100"><title>sp_doors</title><path d="M57.841,37.277c0,2.4-.956,3.645-3.491,3.645-2.4,0-3.565-.827-3.565-3.232V34.527a8.061,8.061,0,0,0-.126-1.765c-.182-.447-.729-.447-1.159-.447v-.3c.625.015,1.275.04,1.9.05.682-.01,1.359-.035,2.034-.05v.3c-.431,0-.994-.018-1.153.447a8.188,8.188,0,0,0-.124,1.765v3.255c0,1.705.667,2.667,2.506,2.667a2.444,2.444,0,0,0,2.771-2.723V34.821a9.326,9.326,0,0,0-.127-1.9c-.189-.556-.737-.607-1.253-.607v-.3c.516.015,1.03.04,1.566.05.494-.01.987-.035,1.481-.05v.3c-.423.013-.887,0-1.077.48a7.3,7.3,0,0,0-.186,2.026Z"/><path d="M64.728,36.492c1.338-.121,2.433-.845,2.433-2.273,0-1.843-1.543-2.186-3.063-2.186-.564.015-1.145.04-1.709.05-.755-.01-1.532-.035-2.3-.05v.3c.427,0,.993-.017,1.131.447a8.668,8.668,0,0,1,.117,1.766v3.738a8.58,8.58,0,0,1-.117,1.759c-.138.45-.7.45-1.131.45V40.8c.669-.012,1.334-.043,2-.055.649.012,1.277.043,1.888.055V40.5c-.423,0-.988.017-1.139-.45a8.58,8.58,0,0,1-.117-1.759V36.725c.705,0,.652.081,1.1.576l2.219,2.725.634.776c.33-.012.666-.043,1-.055.4.012.8.043,1.2.055V40.5a1.75,1.75,0,0,1-1.315-.784Zm-2-3.586c0-.148-.039-.4.142-.477a4.762,4.762,0,0,1,.873-.012A1.789,1.789,0,0,1,65.618,34.4c0,1.926-1.21,1.965-2.888,1.965Z"/><path d="M70.975,38.287a8.58,8.58,0,0,1-.117,1.759c-.157.467-.712.45-1.151.45V40.8c.754-.013,1.518-.043,2.261-.055.6.012,1.175.042,1.761.055a5.66,5.66,0,0,0,2.466-.346,2.168,2.168,0,0,0,1.3-1.925,2.193,2.193,0,0,0-1.037-1.821,4.045,4.045,0,0,0-1.961-.545v-.028c1.032-.306,2.024-.819,2.024-2.026,0-1.762-1.9-2.115-3.3-2.079-.529.015-1.056.041-1.591.051-.644-.01-1.27-.036-1.92-.051v.3c.439,0,.994-.017,1.151.447a8.668,8.668,0,0,1,.117,1.766Zm1.369-1.916h.427a4.642,4.642,0,0,1,2.089.282,1.849,1.849,0,0,1,.957,1.766c0,1.25-.587,2.023-1.9,2.023-.51,0-1.177.014-1.4-.556a5.36,5.36,0,0,1-.172-1.668Zm0-3.333c0-.1,0-.476.087-.556.105-.095.613-.066.787-.066a1.6,1.6,0,0,1,1.836,1.759,1.669,1.669,0,0,1-.682,1.568,2.887,2.887,0,0,1-1.595.277h-.433Z"/><path d="M80.53,37.6h3.3l.528,1.361a3.106,3.106,0,0,1,.26,1.031c0,.521-.649.491-1.025.5V40.8c.638-.012,1.3-.043,1.945-.055.623.012,1.273.043,1.905.055V40.5a1.478,1.478,0,0,1-1.162-.5,9.663,9.663,0,0,1-.695-1.454l-2.7-6.728h-.453l-2.058,5.212c-.374.846-.734,1.68-1.11,2.522a1.286,1.286,0,0,1-1.279.943V40.8c.468-.012.921-.043,1.388-.055.5.012.977.043,1.48.055V40.5c-.406-.04-1.089,0-1.089-.568a7.591,7.591,0,0,1,.643-2Zm.171-.431,1.486-3.732,1.471,3.732Z"/><path d="M89.327,33.108a1.534,1.534,0,0,0-1.459-.793v-.3c.429.015.841.04,1.266.05.357-.01.712-.035,1.064-.05l5.647,6.818h.032V35.148a11.266,11.266,0,0,0-.122-2.04c-.168-.742-.529-.691-1.2-.793v-.3c.5.015.979.04,1.474.05.471-.01.923-.035,1.422-.05v.3c-.5.051-.844.013-1.019.586a13.082,13.082,0,0,0-.163,2.316v5.7h-.394c-.3-.357-.6-.728-.887-1.091l-5.234-6.284h-.034v4.462a6.236,6.236,0,0,0,.2,1.921c.235.519.666.491,1.164.545v.306c-.5-.012-1.024-.043-1.528-.056-.494.013-.991.044-1.489.056v-.306c.526-.054,1.019-.082,1.158-.644a10.777,10.777,0,0,0,.1-1.822Z"/><path d="M111,36.471c1.333-.121,2.425-.845,2.425-2.273,0-1.843-1.535-2.187-3.068-2.187-.56.015-1.14.04-1.7.05-.761-.01-1.542-.035-2.293-.05v.3c.422,0,.983-.018,1.127.447a8.668,8.668,0,0,1,.117,1.765v3.739a8.585,8.585,0,0,1-.117,1.759c-.144.45-.7.45-1.127.45v.306c.667-.012,1.335-.043,2-.056.64.013,1.26.044,1.883.056v-.306c-.429,0-.978.017-1.131-.45a8.374,8.374,0,0,1-.12-1.759V36.7c.7,0,.648.081,1.1.575l2.22,2.726.636.776c.323-.012.667-.043.989-.056.415.013.8.044,1.215.056v-.306a1.774,1.774,0,0,1-1.319-.784Zm-2-3.586c0-.149-.039-.4.137-.477a4.749,4.749,0,0,1,.873-.013,1.8,1.8,0,0,1,1.882,1.983c0,1.926-1.215,1.965-2.892,1.965Z"/><path d="M117.572,34.572a7.4,7.4,0,0,0-.136-1.755c-.171-.451-.727-.451-1.157-.451v-.355h6.657v2h-.307c-.26-1.547-.954-1.642-2.37-1.642h-.969c-.2,0-.289-.011-.333.051a2.122,2.122,0,0,0-.018.495v3.142c1.838.077,2.107-.677,2.194-1.631h.307c-.012.593-.037,1.2-.057,1.8.02.54.045,1.095.057,1.641h-.307c-.194-1.4-.9-1.454-2.194-1.454v2.162a2.552,2.552,0,0,0,.238,1.347c.363.458,1.177.484,1.725.471,1.394-.02,2.292-.2,2.469-1.775h.311l-.121,2.134h-7.282v-.3c.43,0,.986,0,1.157-.449a7.44,7.44,0,0,0,.136-1.768Z"/><path d="M125.47,38.1h.315c.268,1.336.986,2.461,2.535,2.461a1.7,1.7,0,0,0,1.9-1.654c0-1.2-1.051-1.678-2.025-2.066-1.226-.461-2.522-1.1-2.522-2.608a2.423,2.423,0,0,1,2.653-2.391,3.486,3.486,0,0,1,2.02.679l.309-.514h.15l.068,2.288h-.3c-.315-1.1-.944-2.085-2.245-2.085a1.431,1.431,0,0,0-1.559,1.4c0,1.046.944,1.4,1.776,1.751,1.392.567,2.947,1.258,2.947,2.994s-1.633,2.564-3.2,2.564a3.715,3.715,0,0,1-2.34-.8l-.327.561h-.155Z"/><path d="M134.311,34.572a7.191,7.191,0,0,0-.14-1.755c-.17-.451-.725-.451-1.144-.451v-.355h6.637v2h-.3c-.25-1.547-.952-1.642-2.376-1.642h-.961c-.2,0-.3-.011-.339.051a2.281,2.281,0,0,0-.013.495v3.142c1.839.077,2.1-.677,2.192-1.631h.308c-.017.593-.035,1.2-.057,1.8.022.54.04,1.095.057,1.641h-.308c-.189-1.4-.911-1.454-2.192-1.454v2.162a2.524,2.524,0,0,0,.241,1.347c.359.458,1.181.484,1.719.471,1.393-.02,2.3-.2,2.467-1.775h.314l-.122,2.134h-7.271v-.3c.419,0,.974,0,1.144-.449a7.233,7.233,0,0,0,.14-1.768Z"/><path d="M143.811,37.579h3.306l.528,1.361a3.064,3.064,0,0,1,.264,1.031c0,.521-.657.491-1.036.5v.306c.653-.012,1.3-.043,1.956-.056.624.013,1.263.044,1.9.056v-.306a1.468,1.468,0,0,1-1.155-.5,9.509,9.509,0,0,1-.693-1.454L146.17,31.8h-.459l-2.041,5.212c-.376.847-.739,1.68-1.115,2.522a1.3,1.3,0,0,1-1.293.944v.306c.483-.012.928-.043,1.4-.056.5.013.979.044,1.478.056v-.306c-.407-.041-1.093,0-1.093-.568a7.653,7.653,0,0,1,.643-2Zm.174-.431,1.485-3.733,1.475,3.733Z"/><path d="M156.116,36.471c1.335-.121,2.43-.845,2.43-2.273,0-1.843-1.537-2.187-3.063-2.187-.565.015-1.15.04-1.707.05-.757-.01-1.545-.035-2.3-.05v.3c.434,0,.992-.018,1.128.447a8.254,8.254,0,0,1,.123,1.765v3.739a8.174,8.174,0,0,1-.123,1.759c-.136.45-.694.45-1.128.45v.306c.668-.012,1.333-.043,2-.056.644.013,1.278.044,1.889.056v-.306c-.434,0-.983.017-1.136-.45a8.443,8.443,0,0,1-.119-1.759V36.7c.7,0,.646.081,1.1.575l2.223,2.726.633.776c.316-.012.667-.043.991-.056.409.013.807.044,1.217.056v-.306a1.763,1.763,0,0,1-1.32-.784Zm-2-3.586c0-.149-.033-.4.141-.477a4.737,4.737,0,0,1,.872-.013,1.8,1.8,0,0,1,1.879,1.983c0,1.926-1.214,1.965-2.892,1.965Z"/><path d="M168.4,32.051h.2l.112,2.608H168.4a2.769,2.769,0,0,0-2.827-2.506c-2.394,0-3.112,2.341-3.112,4.332s.771,4.13,3.146,4.13c1.868,0,2.551-1.319,2.953-2.908h.24v2.9h-.168l-.319-.677a4.5,4.5,0,0,1-2.955.992,4.25,4.25,0,0,1-4.577-4.437,4.51,4.51,0,0,1,4.693-4.639,4.639,4.639,0,0,1,2.718.824Z"/><path d="M173.05,38.266a7.686,7.686,0,0,0,.131,1.759c.179.45.724.45,1.152.45v.306c-.635-.012-1.3-.043-1.931-.056-.675.013-1.362.044-2.018.056v-.306c.432,0,.974,0,1.146-.45a7.305,7.305,0,0,0,.138-1.759V34.527a7.376,7.376,0,0,0-.138-1.765c-.172-.447-.714-.447-1.146-.447v-.3c.633.015,1.276.04,1.918.05.68-.01,1.347-.035,2.031-.05v.3c-.428,0-.973,0-1.152.447a7.76,7.76,0,0,0-.131,1.765v1.537h4.777V34.527a8.061,8.061,0,0,0-.126-1.765c-.182-.447-.732-.447-1.158-.447v-.3c.661.015,1.3.04,1.961.05.666-.01,1.331-.035,2-.05v.3c-.431,0-.981,0-1.147.447a7.223,7.223,0,0,0-.141,1.765v3.739a7.154,7.154,0,0,0,.141,1.759c.166.45.716.45,1.147.45v.306c-.654-.012-1.3-.043-1.949-.056-.662.013-1.342.044-2.008.056v-.306c.426,0,.976,0,1.158-.45a7.984,7.984,0,0,0,.126-1.759V36.485H173.05Z"/><path d="M79.86,53.967a10.521,10.521,0,0,0-1.461-2.9,9.422,9.422,0,0,0-2.227-2.2,6.857,6.857,0,0,0-2.8-1.166c-.393-.075-.818-.139-1.288-.187a16.948,16.948,0,0,0-1.726-.075c-.233,0-.492.007-.767.014s-.535.032-.8.061-.508.054-.734.072a2.84,2.84,0,0,0-.539.086c-.1.953-.161,2.263-.185,3.936s-.031,3.663-.031,5.976v3.409q0,1.518.043,2.479c0,.272.016.569.045.891s.063.624.1.929a3.962,3.962,0,0,0,.193.82,1.477,1.477,0,0,0,.3.536,2.779,2.779,0,0,0,1.478.745,9.767,9.767,0,0,0,1.681.161c.492,0,.991-.028,1.51-.073A7.588,7.588,0,0,0,74.1,67.2a7.758,7.758,0,0,0,4.732-3.513,12.334,12.334,0,0,0,1.561-6.426A10.528,10.528,0,0,0,79.86,53.967Zm3.577,7.085a9.272,9.272,0,0,1-1.431,2.856,8.346,8.346,0,0,1-2.1,1.982,11.317,11.317,0,0,1-2.536,1.253,13.542,13.542,0,0,1-2.767.651,19.826,19.826,0,0,1-2.769.2H61.2v-.294a5.071,5.071,0,0,0,1.413-.377,2.75,2.75,0,0,0,1.039-.7.992.992,0,0,0,.214-.494c.05-.23.092-.5.128-.788s.072-.6.093-.928.029-.651.029-.963c0-.271,0-.638.007-1.106s.017-.977.023-1.529.013-1.119.013-1.7V50.689c0-.351-.014-.674-.043-.975a5.486,5.486,0,0,0-.136-.815,1.314,1.314,0,0,0-.262-.569,2.3,2.3,0,0,0-1.047-.728,7,7,0,0,0-1.371-.293V47.02c.819,0,1.992-.006,3.529-.022s3.393-.021,5.574-.021h1.861q.966,0,1.931.085a17.65,17.65,0,0,1,1.925.293,9.642,9.642,0,0,1,1.895.613,11.087,11.087,0,0,1,2.307,1.339A8.928,8.928,0,0,1,82.2,51.245a9.456,9.456,0,0,1,1.283,2.6,10.743,10.743,0,0,1,.482,3.365A12.834,12.834,0,0,1,83.437,61.052Z"/><path d="M103.442,53.793a11.484,11.484,0,0,0-1.363-3.282,7.81,7.81,0,0,0-2.286-2.389,5.652,5.652,0,0,0-3.226-.916,5.772,5.772,0,0,0-3.27.916A7.436,7.436,0,0,0,91.029,50.5a10.9,10.9,0,0,0-1.31,3.306,16.82,16.82,0,0,0-.42,3.746,15.514,15.514,0,0,0,.465,3.816,10.423,10.423,0,0,0,1.382,3.239,7.306,7.306,0,0,0,2.292,2.246,6.056,6.056,0,0,0,3.216.842,5.45,5.45,0,0,0,3.184-.933,7.836,7.836,0,0,0,2.251-2.4,11.562,11.562,0,0,0,1.353-3.313,15.438,15.438,0,0,0,.451-3.67A14.866,14.866,0,0,0,103.442,53.793Zm3.2,7.859a10.836,10.836,0,0,1-2.373,3.435,10.39,10.39,0,0,1-3.494,2.244,11.8,11.8,0,0,1-8.424.015,10.526,10.526,0,0,1-3.465-2.183,10.188,10.188,0,0,1-2.342-3.379,10.663,10.663,0,0,1-.861-4.324,10.8,10.8,0,0,1,.9-4.5,10.054,10.054,0,0,1,2.43-3.375,10.638,10.638,0,0,1,3.579-2.127,12.6,12.6,0,0,1,4.323-.743,10.828,10.828,0,0,1,4.439.874,10.085,10.085,0,0,1,3.331,2.341,10.228,10.228,0,0,1,2.1,3.4,11.22,11.22,0,0,1,.727,4.017A10.533,10.533,0,0,1,106.638,61.652Z"/><path d="M126.991,53.793a11.468,11.468,0,0,0-1.37-3.282,7.812,7.812,0,0,0-2.279-2.389,5.672,5.672,0,0,0-3.23-.916,5.769,5.769,0,0,0-3.267.916,7.413,7.413,0,0,0-2.271,2.378,10.9,10.9,0,0,0-1.307,3.306,16.707,16.707,0,0,0-.424,3.746,15.419,15.419,0,0,0,.466,3.816,10.591,10.591,0,0,0,1.382,3.239,7.252,7.252,0,0,0,2.3,2.246,6.03,6.03,0,0,0,3.211.842,5.474,5.474,0,0,0,3.186-.933,7.833,7.833,0,0,0,2.25-2.4,11.71,11.71,0,0,0,1.355-3.313,15.329,15.329,0,0,0,.446-3.67A14.758,14.758,0,0,0,126.991,53.793Zm3.2,7.859a10.869,10.869,0,0,1-2.379,3.435,10.383,10.383,0,0,1-3.49,2.244,11.809,11.809,0,0,1-8.428.015,10.514,10.514,0,0,1-3.46-2.183,10.3,10.3,0,0,1-2.347-3.379,10.761,10.761,0,0,1-.854-4.324,10.873,10.873,0,0,1,.9-4.5,10.059,10.059,0,0,1,2.432-3.375,10.642,10.642,0,0,1,3.582-2.127,12.568,12.568,0,0,1,4.321-.743,10.829,10.829,0,0,1,4.44.874,10.126,10.126,0,0,1,3.331,2.341,10.294,10.294,0,0,1,2.1,3.4,11.264,11.264,0,0,1,.728,4.017A10.582,10.582,0,0,1,130.187,61.652Z"/><path d="M144.8,49.83a5.049,5.049,0,0,0-2.134-1.812,6.625,6.625,0,0,0-1.47-.466,9.014,9.014,0,0,0-1.623-.145c-.409,0-.74.01-1,.03s-.446.042-.584.059c-.018.117-.038.22-.055.3a2.548,2.548,0,0,0-.042.335c-.013.136-.019.327-.029.567s-.025.59-.043,1.038c-.028.681-.048,1.447-.062,2.3s-.024,1.682-.024,2.477v3.206c.8,0,1.551-.034,2.243-.1a9.088,9.088,0,0,0,2-.424,5.367,5.367,0,0,0,1.613-.788,4.585,4.585,0,0,0,1.1-1.122,4.668,4.668,0,0,0,.631-1.354,5.613,5.613,0,0,0,.2-1.516A4.7,4.7,0,0,0,144.8,49.83Zm2.892,18.159c-.173-.177-.3-.308-.376-.4s-.166-.187-.268-.3-.214-.286-.362-.51-.372-.56-.681-1.007q-.557-.819-.976-1.471t-.863-1.3c-.29-.425-.607-.86-.951-1.3s-.752-.925-1.218-1.471a12.215,12.215,0,0,0-1.278-1.254,3.175,3.175,0,0,0-1.452-.728,4.524,4.524,0,0,0-.854-.12c-.178,0-.405-.008-.676-.026V61.4q0,1.4.045,2.361c.013.624.037,1.156.057,1.606a2.08,2.08,0,0,0,.32,1.1,2.567,2.567,0,0,0,.9.774,4.122,4.122,0,0,0,1.87.451v.294h-9.3v-.294a8.163,8.163,0,0,0,1.4-.345,2.267,2.267,0,0,0,1.046-.7,1.329,1.329,0,0,0,.242-.523,6.285,6.285,0,0,0,.127-.788c.027-.288.053-.6.074-.928s.027-.651.027-.963c0-.271.006-.638.015-1.106s.014-.977.016-1.529.013-1.119.013-1.7V51.736c0-.347-.007-.7-.015-1.063s-.029-.7-.063-1.019a4.926,4.926,0,0,0-.142-.874,1.2,1.2,0,0,0-.279-.567,2.184,2.184,0,0,0-.975-.628,10.522,10.522,0,0,0-1.328-.276V47.02h1.2c.662,0,1.408-.006,2.244-.022s1.669-.021,2.5-.021h2.042q1.956,0,3.477.118a6.869,6.869,0,0,1,2.771.784A5.651,5.651,0,0,1,148.1,49.7a5.04,5.04,0,0,1,.789,2.9,4.626,4.626,0,0,1-.395,1.939,5.15,5.15,0,0,1-1.052,1.517,6.3,6.3,0,0,1-1.531,1.12,12.015,12.015,0,0,1-1.83.788v.087a3.787,3.787,0,0,1,.961.759,10.341,10.341,0,0,1,.9,1.105c.507.741,1.054,1.537,1.65,2.389s1.123,1.613,1.584,2.275a8.885,8.885,0,0,0,2.1,2.213,5.627,5.627,0,0,0,2.385.9v.294Z"/><path d="M168.341,64.759a5.627,5.627,0,0,1-1.574,1.9,6.623,6.623,0,0,1-2.405,1.168,11.566,11.566,0,0,1-3.061.378,14.112,14.112,0,0,1-2.445-.176,9.661,9.661,0,0,1-1.689-.42,6.029,6.029,0,0,1-1.008-.453,1.279,1.279,0,0,0-.423-.2c-.063,0-.187.116-.379.35s-.37.457-.524.668h-.257l-.089-5.8h.257a9.781,9.781,0,0,0,.673,1.531,12.346,12.346,0,0,0,.894,1.4,7.4,7.4,0,0,0,1.022,1.151,4.974,4.974,0,0,0,1.037.759,8.061,8.061,0,0,0,1.313.526,5.208,5.208,0,0,0,1.579.26,5.113,5.113,0,0,0,3.5-1.181,4.032,4.032,0,0,0,1.344-3.2,3.655,3.655,0,0,0-.259-1.427,3.476,3.476,0,0,0-.716-1.065,4.327,4.327,0,0,0-1.065-.774,11.771,11.771,0,0,0-1.319-.581c-.461-.177-.868-.32-1.221-.439s-.673-.228-.975-.335-.616-.216-.931-.32-.711-.249-1.157-.425a6.254,6.254,0,0,1-1.46-.8,5.9,5.9,0,0,1-1.223-1.2,5.828,5.828,0,0,1-.846-1.518,4.857,4.857,0,0,1-.326-1.763,6.01,6.01,0,0,1,.577-2.71,5.532,5.532,0,0,1,1.553-1.9,6.458,6.458,0,0,1,2.237-1.125,9.583,9.583,0,0,1,2.664-.367,9.8,9.8,0,0,1,2.244.223,8.866,8.866,0,0,1,1.532.48,5.181,5.181,0,0,1,.906.481,1.6,1.6,0,0,0,.334.218c.055,0,.179-.112.363-.349s.358-.467.509-.7h.322v5.4h-.322a11.834,11.834,0,0,0-.9-1.911,8.947,8.947,0,0,0-1.285-1.694,6.127,6.127,0,0,0-1.662-1.2,4.493,4.493,0,0,0-2.066-.473,5.5,5.5,0,0,0-1.707.261,3.978,3.978,0,0,0-1.4.792,3.562,3.562,0,0,0-.934,1.3,4.4,4.4,0,0,0-.337,1.766,3.373,3.373,0,0,0,.929,2.483,6.67,6.67,0,0,0,2.417,1.484c.391.157.749.294,1.089.409s.678.228,1.008.337.667.218,1,.335.7.246,1.068.376a6.809,6.809,0,0,1,3.067,2.117,5.933,5.933,0,0,1,.522,5.964Z"/></svg>