<svg id="レイヤー_1" data-name="レイヤー 1" xmlns="http://www.w3.org/2000/svg" width="230" height="100" viewBox="0 0 230 100"><title>sp_ekal</title><path d="M69.418,56.3H59.526V51.649h8.868a.2.2,0,0,0,.2-.2V47.917a.2.2,0,0,0-.2-.2H59.526V43.7h9.682a.207.207,0,0,0,.2-.205V39.679a.2.2,0,0,0-.2-.205h-14a.2.2,0,0,0-.2.205V60.318a.207.207,0,0,0,.2.208H69.418a.207.207,0,0,0,.2-.208V56.505a.2.2,0,0,0-.2-.205"/><path d="M99.863,47.853l7.213-8.036a.206.206,0,0,0-.153-.343h-5.139a.2.2,0,0,0-.157.07l-6.955,8.134v-8a.205.205,0,0,0-.2-.205H90.351a.2.2,0,0,0-.2.205V60.318a.207.207,0,0,0,.2.208h4.116a.208.208,0,0,0,.2-.208v-6.57L96.8,51.384l5.5,9.041a.211.211,0,0,0,.176.1h5.165a.209.209,0,0,0,.18-.107.2.2,0,0,0-.007-.209Z"/><path d="M136.967,39.612a.208.208,0,0,0-.2-.138H132.55a.2.2,0,0,0-.193.138l-7.082,20.642a.2.2,0,0,0,.027.185.207.207,0,0,0,.167.087h4.144a.2.2,0,0,0,.193-.144l1.426-4.452h6.7l1.371,4.452a.207.207,0,0,0,.2.144h4.285a.207.207,0,0,0,.205-.208.2.2,0,0,0-.04-.121Zm-.237,12.525h-4.293l2.179-6.775Z"/><path d="M176.8,56.3h-8.921V39.679a.2.2,0,0,0-.2-.205h-4.115a.207.207,0,0,0-.209.205V60.318a.209.209,0,0,0,.209.208H176.8a.207.207,0,0,0,.205-.208V56.505a.2.2,0,0,0-.205-.205"/></svg>