<svg id="レイヤー_1" data-name="レイヤー 1" xmlns="http://www.w3.org/2000/svg" width="230" height="100" viewBox="0 0 230 100"><title>sp_freitag</title><polygon points="45 27.403 185 27.403 185 74.597 45 74.597 45 27.403 45 27.403"/><polygon points="60.556 56.008 66.921 56.008 66.921 53.497 74.556 53.497 74.556 50.421 66.921 50.421 66.921 49.391 74.556 49.391 74.556 45.935 60.556 45.935 60.556 56.008" fill="#fff" fill-rule="evenodd"/><path d="M83.238,48.7H85.3c1.129,0,1.658.254,1.658.889,0,.748-.317,1.129-1.763,1.129H83.238Zm-6.366,7.308h6.366V52.763h.035l2.98,3.245h7.529l-4.373-4.162c1.975-.127,3.914-.945,3.914-2.948,0-1.905-1.675-2.963-4.531-2.963H76.872Z" fill="#fff" fill-rule="evenodd"/><polygon points="95.702 56.008 109.914 56.008 109.914 53.37 102.068 53.37 102.068 52.425 109.914 52.425 109.914 50.083 102.068 50.083 102.068 49.124 109.914 49.124 109.914 45.935 95.702 45.935 95.702 56.008" fill="#fff" fill-rule="evenodd"/><rect x="112.279" y="45.935" width="6.365" height="10.072" fill="#fff"/><polygon points="124.528 56.008 130.893 56.008 130.893 49.9 134.631 49.9 134.631 45.935 120.79 45.935 120.79 49.9 124.528 49.9 124.528 56.008" fill="#fff" fill-rule="evenodd"/><path d="M145.232,51.959H142.5l1.322-3.682h.053Zm-10.421,4.049H141.3l.477-1.284h4.214l.405,1.284h6.577l-4.055-10.073H138.831Z" fill="#fff" fill-rule="evenodd"/><path d="M169.381,50.887h-5.818v2.779h-.917c-1.6,0-2.733-.621-2.733-2.187,0-1.89,2.257-2.059,4.073-2.059a45.342,45.342,0,0,1,5.2.3V46.175a52.368,52.368,0,0,0-7.123-.536c-4.62,0-8.516,1.242-8.516,5.375,0,3.752,3.262,5.29,8.234,5.29a27.446,27.446,0,0,0,7.6-.889Z" fill="#fff" fill-rule="evenodd"/><path d="M175.81,47.654a2.251,2.251,0,1,1-2.251-2.289A2.236,2.236,0,0,1,175.81,47.654Z" fill="#fff"/><path d="M175.392,47.654a1.834,1.834,0,1,0-1.833,1.895A1.779,1.779,0,0,0,175.392,47.654Z" fill="#231815"/><path d="M174.077,47.866l.443.947h-.456l-.4-.879H173.2v.879h-.418V46.425h.88a.765.765,0,0,1,.848.748A.709.709,0,0,1,174.077,47.866Z" fill="#fff"/><path d="M173.659,47.547c.249,0,.411-.112.411-.374a.364.364,0,0,0-.411-.361h-.468v.735Z" fill="#231815"/></svg>