<svg id="レイヤー_1" data-name="レイヤー 1" xmlns="http://www.w3.org/2000/svg" viewBox="0 0 132 25"><defs><style>.cls-1{fill:#fff;}.cls-2{fill:#b48f58;}</style></defs><title>spfooter-urclub</title><path class="cls-1" d="M0,5.05c1.2,0,1.63,0,2.73,0s1.55,0,2.74,0v.54l-1,.52c-.24.16-.33.25-.35.48s0,.68,0,1.07,0,.8,0,1.26v7.62c0,2.65.43,4.49,1.27,5.52A5,5,0,0,0,9.47,23.6,5,5,0,0,0,13.61,22q1.28-1.59,1.28-5.31V8.92c0-.46,0-.88,0-1.26s0-.74,0-1.07a.46.46,0,0,0-.36-.43l-1-.61v-.5c1.18,0,1.56,0,2.4,0s1.14,0,2.3,0l0,.5-1.08.64a.47.47,0,0,0-.34.47c0,.31,0,.65,0,1v8.43c0,3-.62,5.3-1.86,6.75S11.7,25.06,9,25.06s-4.54-.66-5.78-2S1.39,19.74,1.39,17V7.69c0-.38,0-.72,0-1A.54.54,0,0,0,1,6.13L0,5.61Z"/><path class="cls-1" d="M72.45,8.92V20.24c0,1,0,2.05,0,3.05l8.45-.1,1.18-2,.52,0-.25,3.26-.09.1c-2.4,0-5.63,0-7.68,0H71.12c-1.13,0-1.66-.07-2.83,0v-.66l1-.38A.47.47,0,0,0,69.7,23c0-.37,0-.79,0-1.25V7.69c0-.38,0-.72,0-1a.62.62,0,0,0-.32-.59l-1-.65V5.05c1.2,0,1.61,0,2.71,0s1.54,0,2.72,0v.39l-1,.65c-.21.14-.29.17-.31.4s0,.9,0,1.52S72.45,8.94,72.45,8.92Z"/><path class="cls-1" d="M84.65,5.05c1.2,0,1.84,0,2.95,0s1.76,0,3,0l0,.6-1.22.51a.45.45,0,0,0-.36.43c0,.33,0,.68,0,1.07s0,.8,0,1.26v7.62q0,4,1.27,5.52a6.18,6.18,0,0,0,8.22,0q1.27-1.59,1.28-5.31V8.92c0-.46,0-.88,0-1.26s0-.74,0-1.07a.46.46,0,0,0-.36-.43l-1.13-.47,0-.64c1.18,0,1.69,0,2.53,0s1.29,0,2.45,0l0,.6L102,6.19a.47.47,0,0,0-.34.47c0,.31,0,.65,0,1v8.43c0,3-.62,5.3-1.86,6.75s-3.2,2.19-5.86,2.19-4.54-.66-5.78-2S86.26,19.74,86.26,17V7.69c0-.38,0-.72,0-1a.48.48,0,0,0-.34-.47l-1.22-.54Z"/><path class="cls-1" d="M106.8,5.05c1.2,0,2,0,3.12,0L112,5c1,0,1.63-.06,2-.06a7.85,7.85,0,0,1,4.63,1.14,3.78,3.78,0,0,1,1.56,3.27q0,3.42-3.69,4.66a5.72,5.72,0,0,1,3.32,1.6A4.5,4.5,0,0,1,121,18.79a5.07,5.07,0,0,1-2,4.31,9.12,9.12,0,0,1-5.61,1.53c-.48,0-1,0-1.55,0s-1.17,0-1.86,0c-1.13,0-1.59,0-2.77,0V24l1-.48a.56.56,0,0,0,.33-.51c0-.37,0-.79,0-1.25s0-1,0-1.52V9c0-.47,0-.9,0-1.28s0-.72,0-1a.47.47,0,0,0-.33-.47l-1.36-.52Zm4.45,8.69H113a4.33,4.33,0,0,0,3.09-1,3.81,3.81,0,0,0,1-2.89A3.51,3.51,0,0,0,116.07,7a4.83,4.83,0,0,0-3.1-.87l-.79,0c-.29,0-.6,0-.93.08Zm0,1.11v8.46a3.8,3.8,0,0,0,1,.19c.37,0,.7,0,1,0a4.9,4.9,0,0,0,3.5-1.14,4.36,4.36,0,0,0,1.2-3.31,4.08,4.08,0,0,0-1.21-3.23,6,6,0,0,0-3.92-1C112.26,14.81,111.75,14.82,111.25,14.85Z"/><path class="cls-1" d="M58.3,23.38A8,8,0,0,1,52.13,21a9,9,0,0,1-2.21-6,9.06,9.06,0,0,1,2.21-6.05A8,8,0,0,1,58.3,6.43a13.76,13.76,0,0,1,4.61.83l.21-.61a10.7,10.7,0,0,0-6.21-1.9A9.91,9.91,0,0,0,49.63,7.5a9.72,9.72,0,0,0-2.78,7.23c0,.12,0,.22,0,.34h0a9.72,9.72,0,0,0,2.78,7.23,9.91,9.91,0,0,0,7.28,2.75,10.63,10.63,0,0,0,6.21-1.9L63,22.53A14.45,14.45,0,0,1,58.3,23.38Z"/><polyline class="cls-1" points="63.12 6.64 62.43 8.7 62.15 8.7 61.6 6.83"/><path class="cls-1" d="M39.79,24.13c-2,0-3.6-2.78-3.6-2.78L32.1,14.07a6,6,0,0,0,2.38-1.61,4.78,4.78,0,0,0,1-3.22A3.93,3.93,0,0,0,34,5.9a7.55,7.55,0,0,0-4.55-1.15l-.76,0-1.2,0-1.2,0-.81,0c-1.08,0-1.71,0-2.84-.06l0,.57,1.15.52c.2.07.54.23.55.46v.7c0,.37,0,1,0,1.44v6.12h0v5.64c0,.56,0,1.06,0,1.52s0,.88,0,1.25a.64.64,0,0,1-.38.57l-1,.55,0,.42c1.18,0,1.63,0,2.76,0s1.47,0,2.58,0V24.2l-.89-.53c-.29-.15-.31-.4-.32-.68s0-.77,0-1.22,0-.94,0-1.5V14.78c.88,0,1.67-.08,2.33-.15l4.38,7.65c1.77,2.84,6,2.36,6,2.36ZM26.75,6.2c.33,0,.63-.06.91-.08l.79,0A4.77,4.77,0,0,1,31.63,7a3.6,3.6,0,0,1,1,2.83,3.7,3.7,0,0,1-1.06,2.93,4.94,4.94,0,0,1-3.34.94c-.45,0-.95,0-1.49,0Z"/><rect class="cls-2" x="125.71" y="1.02" width="5.21" height="5.21" transform="translate(35.02 91.79) rotate(-45)"/></svg>