<svg id="レイヤー_1" data-name="レイヤー 1" xmlns="http://www.w3.org/2000/svg" viewBox="0 0 129 48"><defs><style>.cls-1{fill:#fff;}</style></defs><title>spfooter-ur</title><path class="cls-1" d="M5.65,39.32c0,.69,0,1.26,0,1.71s0,.84,0,1.18,0,.76,0,1V44a3.39,3.39,0,0,1-.17,1.1,2.38,2.38,0,0,1-.54.83,2.44,2.44,0,0,1-.89.55,3.23,3.23,0,0,1-1.21.21,3.55,3.55,0,0,1-1.22-.2,2.5,2.5,0,0,1-.88-.56,2.38,2.38,0,0,1-.54-.83A3.13,3.13,0,0,1,0,44c0-.22,0-.47,0-.76v-1c0-.34,0-.73,0-1.18s0-1,0-1.71H.85c0,.09,0,.4,0,.92s0,1.21,0,2.06c0,.26,0,.52,0,.8s0,.56,0,.85a2,2,0,0,0,.53,1.49A2,2,0,0,0,2.83,46a2,2,0,0,0,1.49-.49A2,2,0,0,0,4.82,44c0-.29,0-.57,0-.85v-.8c0-.85,0-1.55,0-2.09s0-.83,0-.89Z"/><path class="cls-1" d="M13.31,46.1l-.65.55c-.08-.08-.34-.39-.8-.93L9.74,43.19v0a2.12,2.12,0,0,0,.52-.23,2.67,2.67,0,0,0,.55-.39,2.18,2.18,0,0,0,.33-.45,1.63,1.63,0,0,0,.14-.73,1.21,1.21,0,0,0-.21-.71,1.15,1.15,0,0,0-.57-.44,1.92,1.92,0,0,0-.63-.14c-.21,0-.41,0-.6,0H8.84c0,.68,0,1.28,0,1.8s0,.89,0,1.1c0,.49,0,1.16,0,2s0,1.37,0,1.58H8c0-.21,0-.63,0-1.25S8,43.89,8,43V42c0-.48,0-1.37,0-2.65H9.37a8.11,8.11,0,0,1,.86.05,3.54,3.54,0,0,1,.83.23,2,2,0,0,1,.8.67,1.76,1.76,0,0,1,.3,1,1.84,1.84,0,0,1-.45,1.27,4,4,0,0,1-.85.76v0c.47.57,1,1.16,1.54,1.77l.91,1"/><path class="cls-1" d="M18.5,45.06a1.16,1.16,0,0,1-.44.44,2.3,2.3,0,0,1-.85.27,9.22,9.22,0,0,1-1.09.07l-.34,0h-.27s0-.38,0-1V41.66c0-.59,0-1.14,0-1.67h.7a4,4,0,0,1,.71.06,1.69,1.69,0,0,1,.55.17,1,1,0,0,1,.42.38,1,1,0,0,1,.16.57,1.19,1.19,0,0,1-.14.56,1.42,1.42,0,0,1-.36.41,1.52,1.52,0,0,1-.51.25,2.7,2.7,0,0,1-.67.1l.08.64h.7a2,2,0,0,1,.66.11,1.27,1.27,0,0,1,.76.72,1.26,1.26,0,0,1,.09.49,1.18,1.18,0,0,1-.16.63m.93-1.35a1.82,1.82,0,0,0-.34-.51,1.77,1.77,0,0,0-.58-.4,2.2,2.2,0,0,0-.69-.18v0a1.78,1.78,0,0,0,.77-.59,1.55,1.55,0,0,0,.33-1,1.44,1.44,0,0,0-.26-.89,1.76,1.76,0,0,0-.74-.56,3.65,3.65,0,0,0-.75-.2,5.94,5.94,0,0,0-1-.07c-.31,0-.63,0-1,0l-.57,0s0,.35,0,1,0,1.46,0,2.51c0,.56,0,1.14,0,1.76s0,1.26,0,2l.6,0,1,0a6.43,6.43,0,0,0,1.22-.11,4,4,0,0,0,1-.36,2.09,2.09,0,0,0,.77-.7,1.88,1.88,0,0,0,.26-1,2,2,0,0,0-.11-.7"/><path class="cls-1" d="M24.88,43.28H22.39c.16-.37.37-.84.61-1.42l.63-1.46h0c.23.52.44,1,.65,1.51s.4.93.59,1.37Zm1.18.61q-1-2.25-2-4.67h-.67q-1,2.41-2,4.6c-.64,1.46-1,2.28-1.1,2.47l.69.38.33-.77c.19-.46.47-1.1.83-1.94h3.07c.33.78.59,1.42.79,1.91s.3.77.32.8l.8-.43-1-2.35"/><path class="cls-1" d="M34.27,39.32c0,.57,0,1.21,0,1.93s0,1.25,0,1.57c0,1,0,1.83,0,2.43s0,.92,0,1l-.69.35q-1.55-2.2-2.9-4l-1.56-2.05h0c0,1,0,2.14,0,3.55s0,2.21,0,2.42h-.81c0-.09,0-.41,0-1s0-1.32,0-2.3c0-.39,0-.91,0-1.56s0-1.33,0-2.06l.79-.38,1.57,2.09q1.48,2,2.79,3.67h0c0-.55,0-1.48,0-2.79s0-2.27,0-2.91Z"/><path class="cls-1" d="M44.6,46.1l-.65.55-.8-.93L41,43.19v0a2.09,2.09,0,0,0,.51-.23,2.67,2.67,0,0,0,.55-.39,1.87,1.87,0,0,0,.33-.45,1.51,1.51,0,0,0,.14-.73,1.28,1.28,0,0,0-.2-.71,1.17,1.17,0,0,0-.58-.44,1.81,1.81,0,0,0-.62-.14c-.22,0-.42,0-.61,0h-.42c0,.68,0,1.28,0,1.8s0,.89,0,1.1c0,.49,0,1.16,0,2s0,1.37,0,1.58h-.85c0-.21,0-.63,0-1.25s0-1.38,0-2.31V42c0-.48,0-1.37,0-2.65h1.37a8.3,8.3,0,0,1,.87.05,3.46,3.46,0,0,1,.82.23,1.89,1.89,0,0,1,.8.67,1.76,1.76,0,0,1,.3,1A1.84,1.84,0,0,1,43,42.55a4,4,0,0,1-.85.76v0c.47.57,1,1.16,1.55,1.77l.9,1"/><path class="cls-1" d="M50.33,46.52H46c0-.2,0-.65,0-1.35s0-1.41,0-2.15V41.41c0-.67,0-1.36,0-2.07h4.3v.74H46.8v1.22c0,.41,0,.79,0,1.15h3.47v.75H46.79c0,.67,0,1.22,0,1.61v1h3.53Z"/><path class="cls-1" d="M55.76,44.49a1.89,1.89,0,0,1-.25,1,2,2,0,0,1-.67.68,3.37,3.37,0,0,1-.89.35,4.2,4.2,0,0,1-1.1.13l-.68,0-.41,0,0-.77.4,0c.21,0,.47,0,.77,0a4.39,4.39,0,0,0,.7-.08,2.3,2.3,0,0,0,.66-.19,1.4,1.4,0,0,0,.47-.38,1,1,0,0,0,.16-.56,1.18,1.18,0,0,0-.16-.61,1.62,1.62,0,0,0-.54-.48,5.66,5.66,0,0,0-.63-.34,5.65,5.65,0,0,1-.69-.39,2.17,2.17,0,0,1-.75-.72,1.88,1.88,0,0,1-.22-.88,1.79,1.79,0,0,1,.2-.86,2.27,2.27,0,0,1,.53-.62,2.17,2.17,0,0,1,.81-.38,3.89,3.89,0,0,1,1.06-.14l.64,0,.38,0,.07.77-.38,0q-.31,0-.81,0a2.44,2.44,0,0,0-.59.07,1.6,1.6,0,0,0-.54.21,1.13,1.13,0,0,0-.35.34,1,1,0,0,0-.14.52,1,1,0,0,0,.15.51,1.71,1.71,0,0,0,.57.5,6.07,6.07,0,0,0,.56.31c.23.12.45.24.68.38a2.26,2.26,0,0,1,.77.73,1.71,1.71,0,0,1,.26.93"/><path class="cls-1" d="M62,46.52H57.61c0-.2,0-.65,0-1.35s0-1.41,0-2.15V41.41c0-.67,0-1.36,0-2.07h4.3v.74H58.45v1.22c0,.41,0,.79,0,1.15h3.47v.75H58.44c0,.67,0,1.22,0,1.61v1H62Z"/><path class="cls-1" d="M67.46,43.28H65c.16-.37.37-.84.61-1.42l.63-1.46h0c.23.52.44,1,.65,1.51s.4.93.59,1.37Zm1.18.61q-1-2.25-2-4.67H66q-1,2.41-2,4.6c-.64,1.46-1,2.28-1.1,2.47l.69.38.32-.77L64.69,44h3.07c.33.78.59,1.42.79,1.91s.3.76.32.8l.8-.43-1-2.35"/><path class="cls-1" d="M76.24,46.1l-.65.55-.8-.93-2.12-2.53v0a2.3,2.3,0,0,0,.52-.23,2.89,2.89,0,0,0,.54-.39,1.87,1.87,0,0,0,.33-.45,1.5,1.5,0,0,0,.15-.73,1.21,1.21,0,0,0-.21-.71,1.19,1.19,0,0,0-.57-.44,1.92,1.92,0,0,0-.63-.14c-.22,0-.42,0-.6,0h-.43c0,.68,0,1.28,0,1.8v1.1c0,.49,0,1.16,0,2s0,1.37,0,1.58h-.85c0-.21,0-.63,0-1.25s0-1.38,0-2.31V42c0-.48,0-1.37,0-2.65H72.3a8.14,8.14,0,0,1,.87.05,3.46,3.46,0,0,1,.82.23,2,2,0,0,1,.81.67,2,2,0,0,1-.16,2.3,4,4,0,0,1-.85.76v0c.47.57,1,1.16,1.55,1.77l.9,1"/><path class="cls-1" d="M82.15,45.87s0,.12,0,.27,0,.31,0,.49H81.9a7,7,0,0,1-2.23-.33,4.05,4.05,0,0,1-1.6-1,3.3,3.3,0,0,1-.69-1.05,3.59,3.59,0,0,1-.25-1.39,3.14,3.14,0,0,1,.25-1.28,3.73,3.73,0,0,1,.65-1,4.19,4.19,0,0,1,1.59-1,6.28,6.28,0,0,1,2.14-.36H82c0,.06,0,.16,0,.31s0,.29,0,.46h-.17a6.2,6.2,0,0,0-1.33.14,3.88,3.88,0,0,0-1.19.45,2.87,2.87,0,0,0-1,1A2.62,2.62,0,0,0,78,42.92a2.8,2.8,0,0,0,.32,1.32,2.56,2.56,0,0,0,1,1,4.11,4.11,0,0,0,1.24.48,6.37,6.37,0,0,0,1.36.15h.24"/><path class="cls-1" d="M89.49,46.52h-.85c0-.21,0-.61,0-1.19s0-1.3,0-2.16H84.49c0,1,0,1.75,0,2.26s0,.88,0,1.09h-.84c0-.21,0-.59,0-1.14s0-1.48,0-2.78c0-.4,0-.88,0-1.44s0-1.18,0-1.84h.84c0,.55,0,1.08,0,1.6s0,1,0,1.5h4.17c0-.48,0-1,0-1.49s0-1.06,0-1.61h.85c0,.55,0,1.17,0,1.88s0,1.29,0,1.74c0,1.05,0,1.86,0,2.42s0,1,0,1.16"/><path class="cls-1" d="M99.14,45.61s0,.12,0,.26,0,.31,0,.48h-.18A7.52,7.52,0,0,1,96.61,46,4.19,4.19,0,0,1,95,45.09a3,3,0,0,1-.71-1A3.35,3.35,0,0,1,94,42.72a3,3,0,0,1,.26-1.24,3.39,3.39,0,0,1,.67-1,4.25,4.25,0,0,1,1.62-1,6.47,6.47,0,0,1,2.18-.36H99c0,.07,0,.17,0,.31s0,.28,0,.44h-.18a6.51,6.51,0,0,0-1.36.15,4,4,0,0,0-1.21.43,2.72,2.72,0,0,0-1,1,2.45,2.45,0,0,0-.35,1.27A2.49,2.49,0,0,0,96.24,45a4.62,4.62,0,0,0,1.26.47,6.64,6.64,0,0,0,1.39.15h.25"/><path class="cls-1" d="M105.09,43.59a3.08,3.08,0,0,1-.22,1.17,2.55,2.55,0,0,1-.63,1,2.51,2.51,0,0,1-.76.5,2.61,2.61,0,0,1-1,.17,2.42,2.42,0,0,1-.94-.17,2.26,2.26,0,0,1-.79-.5,2.7,2.7,0,0,1-.62-.94,3.39,3.39,0,0,1-.21-1.19,3.21,3.21,0,0,1,.18-1.1,2.8,2.8,0,0,1,.58-.92,2.62,2.62,0,0,1,2.79-.57,2.23,2.23,0,0,1,.79.54,2.63,2.63,0,0,1,.59.93,3.15,3.15,0,0,1,.2,1.13m-.84,0a2.85,2.85,0,0,0-.16-1,1.87,1.87,0,0,0-.5-.78,1.33,1.33,0,0,0-.48-.31,1.65,1.65,0,0,0-.58-.1,1.48,1.48,0,0,0-.63.11,1.7,1.7,0,0,0-.51.36,2,2,0,0,0-.43.72,2.61,2.61,0,0,0-.16.91,2.76,2.76,0,0,0,.16,1,1.85,1.85,0,0,0,.52.77,1.34,1.34,0,0,0,.47.28,1.56,1.56,0,0,0,.57.1,1.8,1.8,0,0,0,.62-.11,1.53,1.53,0,0,0,.5-.34,2,2,0,0,0,.45-.73,2.51,2.51,0,0,0,.16-.9"/><rect class="cls-1" x="106.44" y="45.13" width="1.05" height="1.12"/><path class="cls-1" d="M110.55,45.2v0l-1.37,2.58-.54-.24c0-.06.17-.36.41-.91s.51-1.14.77-1.81Z"/><path class="cls-1" d="M116.66,46.25h-4.3c0-.6,0-1.21,0-1.83V42.6c0-1,0-1.75,0-2.27s0-.89,0-1.1h.87c0,.45,0,1,0,1.56v3.76c0,.61,0,.94,0,1h3.44Z"/><path class="cls-1" d="M120.76,45.61l-.1.66h-.42a2.53,2.53,0,0,1-1.63-.45,1.66,1.66,0,0,1-.54-1.37V43.21c0-.44,0-1,0-1.64h-.87V41h.91V39.71h.76V41h1.88v.62h-1.88v.65c0,.36,0,.63,0,.81v1.3a1.18,1.18,0,0,0,.37,1,1.75,1.75,0,0,0,1.13.3h.39Z"/><path class="cls-1" d="M126.13,46.33h-.47a10.29,10.29,0,0,1-1.55-.09,4,4,0,0,1-1.1-.34A2.61,2.61,0,0,1,122,45a2.25,2.25,0,0,1-.36-1.24,2.5,2.5,0,0,1,.4-1.41,2.67,2.67,0,0,1,1.17-1,4.07,4.07,0,0,1,1-.32,6.24,6.24,0,0,1,1.13-.1V38.57h.83c0,.07,0,.56,0,1.47s0,1.83,0,2.76c0,.73,0,1.4,0,2s0,1.11,0,1.54m-.82-3.68v-1a5.21,5.21,0,0,0-1,.09,3.07,3.07,0,0,0-.79.24,1.83,1.83,0,0,0-.81.69,1.8,1.8,0,0,0-.29,1,1.52,1.52,0,0,0,.28.92,1.93,1.93,0,0,0,.69.61,3.23,3.23,0,0,0,.81.29,4.85,4.85,0,0,0,1,.1h.14s0-.3,0-.79V42.65"/><rect class="cls-1" x="127.95" y="45.13" width="1.05" height="1.12"/><path class="cls-1" d="M55.13,33.87a19.59,19.59,0,0,1-5-11.42c0-.21,0-.34-.07-.55V.45H43.83V22.52a21.77,21.77,0,0,0,4.46,12.39l.19.28H61.84V.45H55.13Z"/><path class="cls-1" d="M81.32,20.5a14.63,14.63,0,0,0-.26-20H68V35.19h6.72V20.78l3.5,14.41H85.1l-4-14.48.19-.21M78,13.87a7.49,7.49,0,0,1-3.12,4V3.72a11.19,11.19,0,0,1,1.74,1.82,9.12,9.12,0,0,1,2,5.08A7.66,7.66,0,0,1,78,13.87"/></svg>