<svg xmlns="http://www.w3.org/2000/svg" viewBox="0 0 226 49.27"><defs><style>.cls-1,.cls-2{fill:#fff;}.cls-2{stroke:#fff;stroke-miterlimit:10;stroke-width:0.4px;}</style></defs><title>footer_mediasite</title><g id="レイヤー_2" data-name="レイヤー 2"><g id="レイヤー_1-2" data-name="レイヤー 1"><path class="cls-1" d="M0,.48H3.47v10A5.74,5.74,0,0,0,3.87,13a2.63,2.63,0,0,0,2.7,1.38A2.61,2.61,0,0,0,9.25,13a5.59,5.59,0,0,0,.4-2.46V.48h3.48V10.54a8.41,8.41,0,0,1-.81,4.06c-1,1.78-2.92,2.67-5.75,2.67S1.82,16.38.81,14.6A8.41,8.41,0,0,1,0,10.54Z"/><path class="cls-1" d="M27.8.9A4.1,4.1,0,0,1,29.33,2a5.09,5.09,0,0,1,.82,1.38,4.63,4.63,0,0,1,.3,1.72,4.9,4.9,0,0,1-.58,2.29A3.33,3.33,0,0,1,27.93,9a3.06,3.06,0,0,1,1.6,1.29A5.44,5.44,0,0,1,30,12.88V14a8.29,8.29,0,0,0,.09,1.52,1.37,1.37,0,0,0,.63.93v.42H27c-.1-.37-.18-.66-.22-.88a8.22,8.22,0,0,1-.15-1.41l0-1.52A3.05,3.05,0,0,0,26,11a2.75,2.75,0,0,0-1.95-.52H20.74v6.42H17.4V.48h7.82A7,7,0,0,1,27.8.9ZM20.74,3.32v4.4h3.67a3.91,3.91,0,0,0,1.65-.27,1.84,1.84,0,0,0,1-1.84,2.08,2.08,0,0,0-.94-2,3.42,3.42,0,0,0-1.58-.29Z"/><path class="cls-1" d="M47.29,2.22A4.18,4.18,0,0,1,48,4.72a3.63,3.63,0,0,1-.76,2.41A3.94,3.94,0,0,1,46,8.06a3.61,3.61,0,0,1,1.88,1.45,4.27,4.27,0,0,1,.64,2.39,4.75,4.75,0,0,1-.73,2.61,4.48,4.48,0,0,1-1.16,1.29,4.35,4.35,0,0,1-1.84.82,11.16,11.16,0,0,1-2.31.23H35.15V.48h7.9C45.05.51,46.46,1.09,47.29,2.22Zm-8.88,1.1V6.93h4a3.28,3.28,0,0,0,1.73-.41,1.53,1.53,0,0,0,.67-1.43,1.47,1.47,0,0,0-.88-1.52A6.19,6.19,0,0,0,42,3.32Zm0,6.32V14h4A3.77,3.77,0,0,0,44,13.71a2.06,2.06,0,0,0,1.07-2,1.76,1.76,0,0,0-1-1.75,4.14,4.14,0,0,0-1.64-.28Z"/><path class="cls-1" d="M56.63.48H60.5l5.78,16.37h-3.7L61.5,13.48h-6l-1.11,3.37H50.79Zm-.22,10.18H60.6L58.53,4.22Z"/><path class="cls-1" d="M69.22.48H72.8l6.49,11.41V.48h3.19V16.85H79.06L72.4,5.23V16.85H69.22Z"/><path class="cls-1" d="M104.75.9A4.1,4.1,0,0,1,106.28,2a5.09,5.09,0,0,1,.82,1.38,4.43,4.43,0,0,1,.31,1.72,4.91,4.91,0,0,1-.59,2.29A3.3,3.3,0,0,1,104.88,9a3,3,0,0,1,1.6,1.29,5.32,5.32,0,0,1,.47,2.56V14A8.29,8.29,0,0,0,107,15.5a1.37,1.37,0,0,0,.63.93v.42H103.9c-.1-.37-.18-.66-.22-.88a8.22,8.22,0,0,1-.15-1.41l0-1.52A3.05,3.05,0,0,0,103,11a2.72,2.72,0,0,0-1.94-.52H97.69v6.42H94.35V.48h7.82A7,7,0,0,1,104.75.9ZM97.69,3.32v4.4h3.68A3.86,3.86,0,0,0,103,7.45a1.83,1.83,0,0,0,1-1.84,2.06,2.06,0,0,0-.94-2,3.42,3.42,0,0,0-1.58-.29Z"/><path class="cls-1" d="M124.14,3.38h-8.66V6.85h8V9.69h-8V13.9h9.06v3h-12.4V.48h12Z"/><path class="cls-1" d="M130.8,11.79a3.27,3.27,0,0,0,.62,1.68,3.65,3.65,0,0,0,2.91,1,6.21,6.21,0,0,0,2-.27,1.9,1.9,0,0,0,1.46-1.89,1.4,1.4,0,0,0-.72-1.26,7.82,7.82,0,0,0-2.27-.77L133,9.9a11.08,11.08,0,0,1-3.59-1.25,4,4,0,0,1-1.65-3.54,4.71,4.71,0,0,1,1.62-3.66A6.94,6.94,0,0,1,134.17,0a7.3,7.3,0,0,1,4.46,1.37,4.86,4.86,0,0,1,1.94,4h-3.28A2.35,2.35,0,0,0,136,3.25a4.6,4.6,0,0,0-2-.41,3.84,3.84,0,0,0-2.16.54A1.67,1.67,0,0,0,131,4.86a1.39,1.39,0,0,0,.8,1.31,9.57,9.57,0,0,0,2.17.68l2.87.68a7.15,7.15,0,0,1,2.83,1.19,4,4,0,0,1,1.46,3.34,4.67,4.67,0,0,1-1.73,3.72,7.29,7.29,0,0,1-4.89,1.49,8,8,0,0,1-5.08-1.46,4.83,4.83,0,0,1-1.85-4Z"/><path class="cls-1" d="M156.72,3.38h-8.65V6.85H156V9.69h-7.94V13.9h9.05v3H144.73V.48h12Z"/><path class="cls-1" d="M165.37.48h3.86L175,16.85h-3.7l-1.08-3.37h-6l-1.1,3.37h-3.58Zm-.23,10.18h4.19l-2.07-6.44Z"/><path class="cls-1" d="M188.26.9A4.1,4.1,0,0,1,189.79,2a5.39,5.39,0,0,1,.83,1.38,4.63,4.63,0,0,1,.3,1.72,4.91,4.91,0,0,1-.59,2.29A3.3,3.3,0,0,1,188.39,9a3,3,0,0,1,1.6,1.29,5.32,5.32,0,0,1,.47,2.56V14a8.29,8.29,0,0,0,.09,1.52,1.37,1.37,0,0,0,.63.93v.42h-3.77c-.1-.37-.18-.66-.22-.88a7.33,7.33,0,0,1-.14-1.41L187,13a3.05,3.05,0,0,0-.54-2.09,2.72,2.72,0,0,0-1.94-.52H181.2v6.42h-3.34V.48h7.82A7,7,0,0,1,188.26.9ZM181.2,3.32v4.4h3.68a3.83,3.83,0,0,0,1.64-.27,1.83,1.83,0,0,0,1-1.84,2.06,2.06,0,0,0-.94-2A3.42,3.42,0,0,0,185,3.32Z"/><path class="cls-1" d="M196.89,2.19a6.72,6.72,0,0,1,5-2q4.08,0,6,2.71A5.92,5.92,0,0,1,209,5.93h-3.42a4.77,4.77,0,0,0-.83-1.78,3.38,3.38,0,0,0-2.71-1.06,3.33,3.33,0,0,0-2.88,1.5,7.36,7.36,0,0,0-1.06,4.26A6.37,6.37,0,0,0,199.23,13a3.47,3.47,0,0,0,2.82,1.38,3.17,3.17,0,0,0,2.68-1.18,5.12,5.12,0,0,0,.85-1.9H209a7.39,7.39,0,0,1-2.25,4.35,6.51,6.51,0,0,1-4.63,1.68A6.93,6.93,0,0,1,196.62,15a9.1,9.1,0,0,1-2-6.24A9.08,9.08,0,0,1,196.89,2.19Z"/><path class="cls-1" d="M212.85,16.85V.48h3.4V6.72h6.36V.48H226V16.85h-3.39V9.54h-6.36v7.31Z"/><path class="cls-2" d="M59.73,34.3a10.67,10.67,0,0,0-.63,1.3,29.87,29.87,0,0,1-2.55,5.11,41.31,41.31,0,0,1,4,3.82l-1.74,1.86a26.22,26.22,0,0,0-3.66-3.81,20.06,20.06,0,0,1-2.81,3,22.61,22.61,0,0,1-4.3,3,5.52,5.52,0,0,0-1.58-1.88,18.21,18.21,0,0,0,4.67-3.12,17.64,17.64,0,0,0,2.29-2.45,32.47,32.47,0,0,0-4.78-3.25l1.59-1.59c1.31.78,2.09,1.29,3,1.92l1.5,1.06a21.63,21.63,0,0,0,2.54-5.81Z"/><path class="cls-2" d="M75.45,40.62c-.2,4.45-1.89,6.83-6,8.4A5.67,5.67,0,0,0,68,47c3.54-1.12,4.94-2.91,5.07-6.4H68.69a14.68,14.68,0,0,0-2.29.09V38.56a11.73,11.73,0,0,0,2.32.12H79.28a11.73,11.73,0,0,0,2.32-.12v2.15a14.68,14.68,0,0,0-2.29-.09Zm2.73-4.43a15.21,15.21,0,0,0-2.3-.09H70.51a15.22,15.22,0,0,0-2.29.09V34a11.32,11.32,0,0,0,2.33.13h5.3A11.2,11.2,0,0,0,78.18,34Zm1-3.37a12.81,12.81,0,0,1,1.61,2.85l-1.36.51a13.43,13.43,0,0,0-1.58-2.89Zm2.58,2.56a13.24,13.24,0,0,0-1.55-2.79l1.3-.47a11.3,11.3,0,0,1,1.59,2.74Z"/><path class="cls-2" d="M98.77,37.57a3.11,3.11,0,0,0-.61.59,24,24,0,0,1-3.36,3v6.13A10.88,10.88,0,0,0,94.89,49H92.56a10.06,10.06,0,0,0,.09-1.72V42.42a25.86,25.86,0,0,1-5.1,2.29,7.37,7.37,0,0,0-1.12-1.88,19,19,0,0,0,4.28-1.62,20.72,20.72,0,0,0,5.12-3.66,7.21,7.21,0,0,0,1.1-1.3Z"/><path class="cls-2" d="M112.58,37.75a9.13,9.13,0,0,0-.07,1.46c-.07,3.08-.56,4.81-1.79,6.38a10.43,10.43,0,0,1-4.65,3.25,6.35,6.35,0,0,0-1.43-2.06,8.25,8.25,0,0,0,3.16-1.53c1.84-1.46,2.42-3,2.42-6.42a4.62,4.62,0,0,0-.09-1.08Zm7.33-2.28a4.85,4.85,0,0,0-.73,1.27,11.46,11.46,0,0,1-2.77,3.62,11.64,11.64,0,0,1-2.17,1.5,6,6,0,0,0-1.62-1.64,8.38,8.38,0,0,0,2.63-1.66A7.5,7.5,0,0,0,117,36.27h-9.47a17.61,17.61,0,0,0-2.45.1V34.12a14.16,14.16,0,0,0,2.49.15H117a4.8,4.8,0,0,0,1.75-.17Z"/><path class="cls-2" d="M134.74,36.79l0-.81V35.4a11.67,11.67,0,0,0-.09-2H137a7.05,7.05,0,0,0-.07,1.21c0,1.1,0,1.1,0,2.18h1.15a12.67,12.67,0,0,0,2.35-.13v2.2a18.8,18.8,0,0,0-2.31-.09h-1.21a22.24,22.24,0,0,1-.13,3,7.22,7.22,0,0,1-2.59,5.18,10,10,0,0,1-3.52,1.89,5.4,5.4,0,0,0-1.35-1.91,8.39,8.39,0,0,0,3.44-1.71,5.63,5.63,0,0,0,1.91-4.33c0-.42,0-.85.08-2.1h-4.68v2.71a9.85,9.85,0,0,0,.08,1.51h-2.35a10.87,10.87,0,0,0,.07-1.55V38.77h-1.1a18.9,18.9,0,0,0-2.31.09v-2.2a12.67,12.67,0,0,0,2.35.13h1.06V35a8.88,8.88,0,0,0-.09-1.61h2.37a8.16,8.16,0,0,0-.08,1.55v1.86Z"/><path class="cls-2" d="M159.63,34.7a6.72,6.72,0,0,0-.67.63,31.81,31.81,0,0,1-4.25,3.72v7.7a12.62,12.62,0,0,0,.09,2h-2.53a10.09,10.09,0,0,0,.11-2V40.45a29.31,29.31,0,0,1-6.44,2.92,6.89,6.89,0,0,0-1.21-2,26.45,26.45,0,0,0,9.47-4.69,14.51,14.51,0,0,0,3.36-3.38Z"/><path class="cls-2" d="M166.77,48.71a12.05,12.05,0,0,0,.11-2V35.13a11.88,11.88,0,0,0-.11-1.84h2.47a12.53,12.53,0,0,0-.07,1.9v3.35a53,53,0,0,1,8.19,3.81l-1.27,2.12A43.25,43.25,0,0,0,169.71,41a6.46,6.46,0,0,1-.62-.31,8.47,8.47,0,0,1,.08,1.23v4.76c0,.94,0,1.41.07,2Z"/></g></g></svg>