<svg id="レイヤー_1" data-name="レイヤー 1" xmlns="http://www.w3.org/2000/svg" width="230" height="100" viewBox="0 0 230 100"><title>sp_furniture</title><path d="M48.76,47.072c-3.247,0-4.76-1.608-4.76-4.792V35.455h2.018v6.762c0,1.939.583,3.373,2.79,3.373,2.19,0,2.79-1.5,2.79-3.42V35.455h1.954v6.872C53.552,45.464,51.913,47.072,48.76,47.072Z"/><path d="M62.412,46.851a15.061,15.061,0,0,1-.442-2.868c-.157-1.529-.267-2.191-1.986-2.191H57.825v5.059H55.87v-11.4h4.32c1.938,0,4.066.41,4.066,2.837a2.681,2.681,0,0,1-2.3,2.727c1.434.252,1.67,1.1,1.781,2.475a10.147,10.147,0,0,0,.678,3.357ZM59.764,36.89H57.825v3.515h1.639c1.34,0,2.853-.174,2.853-1.829C62.317,37.094,60.993,36.89,59.764,36.89Z"/><path d="M70.764,46.851H66.508v-11.4h4.319c1.907,0,3.8.583,3.8,2.869a2.564,2.564,0,0,1-2.111,2.585,2.7,2.7,0,0,1,2.537,2.758C75.051,46.189,72.813,46.851,70.764,46.851Zm-.236-9.961H68.415v3.42H70.37c1.214,0,2.285-.394,2.285-1.765C72.655,37.3,71.647,36.89,70.528,36.89Zm.094,4.776H68.415v3.751h1.876c1.356,0,2.759-.221,2.759-1.86C73.05,42.044,71.962,41.666,70.622,41.666Z"/><path d="M85.106,46.851l-1.088-2.837h-5.28l-1.072,2.837H75.712l4.649-11.4h2.16l4.776,11.4Zm-3.767-9.835-2.065,5.611h4.193Z"/><path d="M94.845,46.851,89.8,37.315v9.536H88.067v-11.4h2.68l5.044,9.536V35.455h1.734v11.4Z"/><path d="M111.314,46.851a15.138,15.138,0,0,1-.441-2.868c-.157-1.529-.268-2.191-1.986-2.191h-2.159v5.059h-1.955v-11.4h4.319c1.939,0,4.067.41,4.067,2.837a2.681,2.681,0,0,1-2.3,2.727c1.434.252,1.67,1.1,1.781,2.475a10.121,10.121,0,0,0,.678,3.357Zm-2.648-9.961h-1.938v3.515h1.639c1.34,0,2.853-.174,2.853-1.829C111.22,37.094,109.9,36.89,108.666,36.89Z"/><path d="M115.411,46.851v-11.4h7.376v1.45h-5.453v3.389h5.2v1.435h-5.2V45.4h5.658v1.45Z"/><path d="M128.508,47.025c-2.192,0-4.146-.883-4.272-3.358h1.954a2.1,2.1,0,0,0,2.365,1.908c1.135,0,2.427-.536,2.427-1.829,0-1.087-1.166-1.482-2.018-1.749-1.812-.568-4.444-1.151-4.444-3.484,0-2.38,2.206-3.247,4.256-3.247,2.017,0,3.924.725,3.94,3.089h-1.954c-.111-1.245-.915-1.7-2.081-1.7-1.056,0-2.175.5-2.175,1.687,0,1.387,2.175,1.734,3.215,2.065,1.624.52,3.279,1.2,3.279,3.168C133,46.063,130.667,47.025,128.508,47.025Z"/><path d="M135,46.851v-11.4h7.377v1.45h-5.453v3.389h5.2v1.435h-5.2V45.4h5.658v1.45Z"/><path d="M152.715,46.851l-1.087-2.837h-5.281l-1.072,2.837h-1.954l4.65-11.4h2.159l4.776,11.4Zm-3.767-9.835-2.065,5.611h4.193Z"/><path d="M162.391,46.851a15.138,15.138,0,0,1-.441-2.868c-.158-1.529-.268-2.191-1.986-2.191H157.8v5.059H155.85v-11.4h4.319c1.939,0,4.066.41,4.066,2.837a2.681,2.681,0,0,1-2.3,2.727c1.435.252,1.671,1.1,1.782,2.475a10.147,10.147,0,0,0,.677,3.357Zm-2.648-9.961H157.8v3.515h1.64c1.34,0,2.853-.174,2.853-1.829C162.3,37.094,160.973,36.89,159.743,36.89Z"/><path d="M170.807,47.04c-3.594,0-5.17-2.49-5.17-5.8,0-3.247,1.655-5.99,5.17-5.99,2.064,0,4.177.978,4.24,3.358h-2.018a2.04,2.04,0,0,0-2.238-1.829c-2.4,0-3.121,2.443-3.121,4.461,0,2.033.772,4.319,3.168,4.319a2.154,2.154,0,0,0,2.349-2h2.049C175.015,46.079,172.95,47.04,170.807,47.04Z"/><path d="M184.045,46.851V41.776h-5.438v5.075h-1.954v-11.4h1.954v4.824h5.438V35.455H186v11.4Z"/><path d="M70.641,55.261v2.585h4.666v2.1H70.641V64.5H67.268V53.1h8.323v2.159Z"/><path d="M86.4,63.347a5.741,5.741,0,0,1-4.256,1.4c-1.954,0-3.578-.489-4.429-1.829a5.4,5.4,0,0,1-.709-3.026V53.1h3.5V60.21c0,1.545.347,2.428,1.781,2.428,1.45,0,1.86-.946,1.86-2.459V53.1h3.373v6.7A4.75,4.75,0,0,1,86.4,63.347Z"/><path d="M96.375,64.5a10.561,10.561,0,0,1-.3-1.4c-.079-.5-.142-1.009-.221-1.5-.2-1.277-.441-1.623-1.7-1.623H92.923V64.5H89.439V53.1h5.47a6.7,6.7,0,0,1,2.963.425A2.649,2.649,0,0,1,99.5,55.986a2.69,2.69,0,0,1-1.057,2.191,3.947,3.947,0,0,1-1.591.662A2.418,2.418,0,0,1,99.2,61.124c.126.662.236,1.34.331,2.018a5.78,5.78,0,0,0,.378,1.355Zm-2.349-9.331h-1.1v2.806H94c1.213,0,2.206-.237,2.206-1.435C96.2,55.371,95.3,55.166,94.026,55.166Z"/><path d="M107.735,64.5l-3.516-8.385V64.5h-3.01V53.1h4.65l3.5,8.2V53.1h3.026V64.5Z"/><path d="M114.416,64.5V53.1h3.5V64.5Z"/><path d="M125.953,55.292v9.2h-3.5v-9.2h-3.436V53.1h10.387v2.19Z"/><path d="M139.885,63.347a5.745,5.745,0,0,1-4.256,1.4c-1.955,0-3.578-.489-4.429-1.829a5.389,5.389,0,0,1-.709-3.026V53.1h3.5V60.21c0,1.545.347,2.428,1.781,2.428,1.45,0,1.86-.946,1.86-2.459V53.1H141v6.7A4.75,4.75,0,0,1,139.885,63.347Z"/><path d="M149.908,64.5a10.4,10.4,0,0,1-.3-1.4c-.079-.5-.142-1.009-.221-1.5-.205-1.277-.442-1.623-1.7-1.623h-1.229V64.5h-3.483V53.1h5.469a6.7,6.7,0,0,1,2.963.425,2.648,2.648,0,0,1,1.624,2.459,2.692,2.692,0,0,1-1.056,2.191,3.952,3.952,0,0,1-1.592.662,2.418,2.418,0,0,1,2.348,2.285c.126.662.237,1.34.331,2.018a5.782,5.782,0,0,0,.379,1.355Zm-2.349-9.331h-1.1v2.806h1.072c1.214,0,2.207-.237,2.207-1.435C149.735,55.371,148.836,55.166,147.559,55.166Z"/><path d="M154.74,64.5V53.1h8.528v2.159h-5.154v2.411h4.9v2.113h-4.9V62.37h5.327V64.5Z"/></svg>