<svg id="レイヤー_1" data-name="レイヤー 1" xmlns="http://www.w3.org/2000/svg" viewBox="0 0 237 72"><defs><style>.cls-1{fill:#661116;}</style></defs><title>sp-header-logo</title><path class="cls-1" d="M93.58,3.25a11.72,11.72,0,0,0-16,0,11.27,11.27,0,0,0-3,8.14,11.13,11.13,0,0,0,3,8.1,11.82,11.82,0,0,0,16,0,11.11,11.11,0,0,0,3.08-8.11,11.15,11.15,0,0,0-3.08-8.14m-2.85,14.6a6.75,6.75,0,0,1-10.31,0,10.33,10.33,0,0,1-1.94-6.47,10.14,10.14,0,0,1,1.94-6.47,6.68,6.68,0,0,1,10.31,0,10.2,10.2,0,0,1,2,6.47,10.23,10.23,0,0,1-2,6.46"/><path class="cls-1" d="M100.43,22.25h5.38a.48.48,0,0,0,.48-.47v-.31a.49.49,0,0,0-.48-.48h-.5c-.47,0-.55-.16-.57-.22a3.7,3.7,0,0,1-.2-1.52V5.7l12.55,16.52a.45.45,0,0,0,.38.18h1.7a.48.48,0,0,0,.48-.47V3.55A4.45,4.45,0,0,1,119.83,2c0-.05.11-.22.57-.22h.54a.47.47,0,0,0,.48-.47V1a.47.47,0,0,0-.48-.48h-5.41a.47.47,0,0,0-.47.48v.31a.47.47,0,0,0,.47.47h.57c.32,0,.52.08.58.21a4.27,4.27,0,0,1,.18,1.59V16.29c-1.8-2.47-3.61-4.89-5.4-7.23-2-2.67-4.15-5.5-6.24-8.37a.43.43,0,0,0-.38-.2h-4.41A.48.48,0,0,0,100,1v.31a.48.48,0,0,0,.48.47h.4a1.55,1.55,0,0,1,.35,0,.3.3,0,0,1,.07.08l.5.84V19.25a3.87,3.87,0,0,1-.18,1.52c-.07.15-.27.22-.61.22h-.53a.49.49,0,0,0-.48.48v.31a.48.48,0,0,0,.48.47"/><path class="cls-1" d="M141.77,17.59l-.43-.09-.1,0a.48.48,0,0,0-.43.28,3.24,3.24,0,0,1-1.48,1.73,8.19,8.19,0,0,1-2.7.34h-4.87a2.87,2.87,0,0,1-1.17-.11V2.78a1.77,1.77,0,0,1,.14-.9s.1-.13.59-.13h.5a.47.47,0,0,0,.47-.47V1a.47.47,0,0,0-.47-.48h-6.15a.48.48,0,0,0-.48.48v.31a.48.48,0,0,0,.48.47h.47c.35,0,.51.08.52.11a1.86,1.86,0,0,1,.14.92V20a2,2,0,0,1-.13.92.84.84,0,0,1-.53.11h-.47a.49.49,0,0,0-.48.48v.31a.48.48,0,0,0,.48.47h15.07a.47.47,0,0,0,.46-.36l.93-3.72a.45.45,0,0,0,0-.36.47.47,0,0,0-.31-.22"/><path class="cls-1" d="M146.55,22.25H153a.47.47,0,0,0,.47-.47v-.31A.48.48,0,0,0,153,21h-.53c-.54,0-.66-.11-.66-.11a1.86,1.86,0,0,1-.14-.92V2.78a2,2,0,0,1,.13-.91s.13-.12.67-.12H153a.47.47,0,0,0,.47-.47V1A.47.47,0,0,0,153,.49h-6.48a.47.47,0,0,0-.47.48v.31a.46.46,0,0,0,.47.47h.54c.53,0,.65.12.65.12a1.76,1.76,0,0,1,.14.91V20a2.12,2.12,0,0,1-.13.92s-.13.11-.66.11h-.54a.47.47,0,0,0-.47.48v.31a.46.46,0,0,0,.47.47"/><path class="cls-1" d="M163.65,21h-.49c-.47,0-.55-.16-.57-.22a3.78,3.78,0,0,1-.19-1.52V5.7l12.54,16.52a.46.46,0,0,0,.38.18H177a.47.47,0,0,0,.47-.47V3.54A4,4,0,0,1,177.69,2c0-.05.1-.22.57-.22h.53a.48.48,0,0,0,.48-.47V1a.48.48,0,0,0-.48-.48h-5.41a.48.48,0,0,0-.48.48v.31a.48.48,0,0,0,.48.47H174c.33,0,.52.08.58.21a4.24,4.24,0,0,1,.18,1.58V16.29c-1.82-2.5-3.64-4.93-5.4-7.23-2.06-2.68-4.16-5.51-6.24-8.37a.46.46,0,0,0-.38-.2h-4.41a.48.48,0,0,0-.48.48v.31a.48.48,0,0,0,.48.47h.4a1.47,1.47,0,0,1,.35,0,.3.3,0,0,1,.07.08l.51.84V19.25a3.9,3.9,0,0,1-.19,1.52c-.07.15-.28.22-.61.22h-.53a.49.49,0,0,0-.48.48v.31a.48.48,0,0,0,.48.47h5.37a.47.47,0,0,0,.49-.47v-.31a.48.48,0,0,0-.49-.48"/><path class="cls-1" d="M199.88,17.82a.51.51,0,0,0-.37-.18H199a.47.47,0,0,0-.43.27,4,4,0,0,1-.63,1,2.66,2.66,0,0,1-.7.56,2.5,2.5,0,0,1-.89.27,10.1,10.1,0,0,1-1.33.08h-5.51a2.8,2.8,0,0,1-1.16-.11V12.17h6.3a6.15,6.15,0,0,1,1,.07,1.14,1.14,0,0,1,.42.15.59.59,0,0,1,.16.28,3.52,3.52,0,0,1,.16.69.46.46,0,0,0,.46.41h.44a.47.47,0,0,0,.48-.47V8.65a.47.47,0,0,0-.48-.47h-.44a.48.48,0,0,0-.47.42c-.07.66-.23.86-.3.91s-.31.2-1.4.2h-6.3V2.93h7a4.66,4.66,0,0,1,1.54.19c.34.12.49.67.55,1.1a.49.49,0,0,0,.48.4h.47a.46.46,0,0,0,.47-.48l0-3.16a.47.47,0,0,0-.46-.48h-14.9A.47.47,0,0,0,183,1v.31a.47.47,0,0,0,.48.47h.46c.31,0,.46.07.49.12s.14.25.14.92V20a1.73,1.73,0,0,1-.14.92c0,.05-.18.11-.49.11h-.46a.48.48,0,0,0-.48.48v.31a.47.47,0,0,0,.48.47h15.22a.47.47,0,0,0,.47-.37l.83-3.65a.49.49,0,0,0-.08-.41"/><path class="cls-1" d="M90.09,40.5A9.47,9.47,0,0,0,88.21,39a18.85,18.85,0,0,0-2.12-1.18.3.3,0,0,0-.1-.07,29.4,29.4,0,0,1-3.74-2.2,3,3,0,0,1-1.45-2.24,2.49,2.49,0,0,1,.92-2,3.68,3.68,0,0,1,2.48-.81,5.79,5.79,0,0,1,3.45.91,4.82,4.82,0,0,1,1.75,2.25.48.48,0,0,0,.45.32l.52,0a.53.53,0,0,0,.34-.17.5.5,0,0,0,.11-.36l-.43-4.63a.48.48,0,0,0-.48-.44h-.37a.48.48,0,0,0-.46.37,1.18,1.18,0,0,1-.06.19l-.09,0c-.2,0-.45-.1-.72-.18l-1.16-.32A9.84,9.84,0,0,0,84.17,28a7.4,7.4,0,0,0-4.84,1.62,5,5,0,0,0-2,4,5.25,5.25,0,0,0,1.84,4.15A17.06,17.06,0,0,0,81,39.15c.69.42,1.46.85,2.29,1.26a18.66,18.66,0,0,1,1.88,1,15.8,15.8,0,0,1,1.48,1,3,3,0,0,1,1.19,2.45,2.69,2.69,0,0,1-.3,1.26,3.31,3.31,0,0,1-.84,1,3.67,3.67,0,0,1-1.26.7,5,5,0,0,1-1.63.25,6.62,6.62,0,0,1-2-.28,6.75,6.75,0,0,1-1.65-.77A5.61,5.61,0,0,1,78.91,46,5.9,5.9,0,0,1,78,44.63a.5.5,0,0,0-.29-.24l-.14,0a.48.48,0,0,0-.23.07l-.34.18a.49.49,0,0,0-.24.47l.57,4.64a.48.48,0,0,0,.47.42h.4a.44.44,0,0,0,.47-.45s0,0,.11-.08l.78.19,1.3.36a13.65,13.65,0,0,0,3.19.38,8.38,8.38,0,0,0,5.33-1.7,5.25,5.25,0,0,0,2.3-4.3,5.78,5.78,0,0,0-.41-2.2,6.2,6.2,0,0,0-1.2-1.84"/><path class="cls-1" d="M113.49,28.41H95.93a.48.48,0,0,0-.48.46l-.14,3.69a.5.5,0,0,0,.14.35.45.45,0,0,0,.35.15h.46a.49.49,0,0,0,.47-.39c.25-1.24.6-1.45.72-1.5a3.58,3.58,0,0,1,1.45-.24h3.93v17c0,.66-.11.86-.15.9s-.1.13-.65.13h-.53a.48.48,0,0,0-.48.47v.31a.48.48,0,0,0,.48.48H108a.48.48,0,0,0,.48-.48v-.31a.48.48,0,0,0-.48-.47h-.53c-.46,0-.63-.09-.65-.13s-.15-.24-.15-.9v-17h3.87a3.54,3.54,0,0,1,1.49.25c.1,0,.44.25.71,1.5a.49.49,0,0,0,.47.38h.44a.46.46,0,0,0,.34-.15.48.48,0,0,0,.13-.35l-.1-3.69a.48.48,0,0,0-.48-.46"/><path class="cls-1" d="M127.15,28a10.76,10.76,0,0,0-8,3.16,11.31,11.31,0,0,0-3,8.13,11.18,11.18,0,0,0,3,8.12,11.83,11.83,0,0,0,16,0,11.13,11.13,0,0,0,3.07-8.12,11.14,11.14,0,0,0-3.07-8.13,10.66,10.66,0,0,0-8-3.16m5.13,17.76a6.71,6.71,0,0,1-10.29,0A10.16,10.16,0,0,1,120,39.3,10,10,0,0,1,122,32.84a6.66,6.66,0,0,1,10.29,0,10.07,10.07,0,0,1,2,6.46,10.18,10.18,0,0,1-2,6.47"/><path class="cls-1" d="M161.41,48.91a1.1,1.1,0,0,1-.81-.34,4.49,4.49,0,0,1-.81-1.06c-.26-.46-.54-.95-.81-1.49a8.81,8.81,0,0,0-1-1.58L156.7,43c-.38-.46-.73-.85-1-1.21a16.41,16.41,0,0,0-1.25-1.23l-.94-.82A7.15,7.15,0,0,0,157,38a4.81,4.81,0,0,0,1.57-3.63,5.18,5.18,0,0,0-2.17-4.49,10,10,0,0,0-5.79-1.49h-8a.49.49,0,0,0-.49.48v.31a.48.48,0,0,0,.49.47h.45a.77.77,0,0,1,.5.11,1.86,1.86,0,0,1,.14.92V47.88a1.82,1.82,0,0,1-.14.92s-.16.11-.5.11h-.45a.49.49,0,0,0-.49.47v.31a.48.48,0,0,0,.49.48h6.07a.47.47,0,0,0,.47-.48v-.31a.48.48,0,0,0-.47-.47h-.46a1,1,0,0,1-.6-.11,1.91,1.91,0,0,1-.13-.92V40.45l1.44,0a18,18,0,0,1,3,2.45l1.39,1.6A25.79,25.79,0,0,1,155,46.64c.19.3.41.64.64,1s.43.75.61,1.07.38.74.63,1.2a.47.47,0,0,0,.42.24h4.07a.47.47,0,0,0,.48-.48v-.31a.48.48,0,0,0-.48-.47M147.53,31.07a.93.93,0,0,1,.5-.18,12.52,12.52,0,0,1,1.59-.08,7.24,7.24,0,0,1,3.88.83,2.66,2.66,0,0,1,1.19,2.44A3.2,3.2,0,0,1,153.17,37a8.47,8.47,0,0,1-4.52,1h-1.12Z"/><path class="cls-1" d="M181.78,45.57h-.53a.48.48,0,0,0-.44.27,4.45,4.45,0,0,1-.62,1,2.54,2.54,0,0,1-.7.57,3.14,3.14,0,0,1-.9.26,10,10,0,0,1-1.32.07h-5.52a3.15,3.15,0,0,1-1.15-.1V40.09h6.3a6.25,6.25,0,0,1,1,.07.77.77,0,0,1,.41.16.47.47,0,0,1,.17.27,3.58,3.58,0,0,1,.15.69.47.47,0,0,0,.47.41h.44a.49.49,0,0,0,.48-.48V36.58a.48.48,0,0,0-.48-.48h-.44a.47.47,0,0,0-.47.42c-.07.65-.24.85-.31.91s-.31.21-1.39.21h-6.3V30.85h7a4.64,4.64,0,0,1,1.53.19c.34.12.49.67.56,1.1a.49.49,0,0,0,.47.4h.47a.48.48,0,0,0,.34-.14.47.47,0,0,0,.14-.33l0-3.18a.48.48,0,0,0-.48-.46h-14.9a.48.48,0,0,0-.48.47v.31a.48.48,0,0,0,.48.47h.46c.33,0,.47.08.5.12a1.84,1.84,0,0,1,.13.91V47.88a1.8,1.8,0,0,1-.13.91c0,.06-.19.12-.5.12h-.46a.48.48,0,0,0-.48.47v.31a.48.48,0,0,0,.48.48h15.23a.48.48,0,0,0,.47-.37l.83-3.65a.47.47,0,0,0-.09-.41.48.48,0,0,0-.37-.17"/><path class="cls-1" d="M17.25,48.55C12.58,43.22,10.67,39,9.69,32c-.06-.33-.06-.5-.11-.82V.09H.1v32c.62,7.46,2.31,11.94,6.76,18,.12.15.19.25.3.41h20.3V.09H17.25Z"/><path class="cls-1" d="M57.06,29.17A20.53,20.53,0,0,0,56.66.09H36.86V50.27l10.21-.1V29.57l5.24,20.6H62.73l-6-20.71.29-.29M52,19.55a10.94,10.94,0,0,1-4.74,5.72V4.83a16.53,16.53,0,0,1,2.65,2.64,12.93,12.93,0,0,1,3,7.36,10.77,10.77,0,0,1-.9,4.72"/><path class="cls-1" d="M12.66,57.87H9.47a.25.25,0,0,0-.24.25v.18a.24.24,0,0,0,.24.24h.3c.3,0,.36.13.39.17a3.6,3.6,0,0,1,.11,1.06v6.68a3.05,3.05,0,0,1-.9,2.35,3.6,3.6,0,0,1-2.56.85c-2.28,0-3.39-1.12-3.39-3.42v-7a1,1,0,0,1,.1-.57s.06-.09.38-.09h.28a.23.23,0,0,0,.24-.24v-.18a.24.24,0,0,0-.24-.25H.46a.25.25,0,0,0-.25.25v.18a.24.24,0,0,0,.25.24H.75c.3,0,.38.07.4.1a1.2,1.2,0,0,1,.08.56v7A4.65,4.65,0,0,0,2.64,69.8a5.62,5.62,0,0,0,3.91,1.26,5.64,5.64,0,0,0,3.91-1.26,4.55,4.55,0,0,0,1.4-3.57V59.77A3.26,3.26,0,0,1,12,58.71s.09-.17.39-.17h.3a.23.23,0,0,0,.24-.24v-.18a.24.24,0,0,0-.24-.25"/><path class="cls-1" d="M26.25,70.17a.7.7,0,0,1-.52-.22,2.83,2.83,0,0,1-.49-.65c-.16-.27-.32-.57-.49-.89a5.27,5.27,0,0,0-.62-.94l-.74-.89-.63-.72a8.9,8.9,0,0,0-.75-.73c-.2-.18-.4-.37-.63-.56a4.26,4.26,0,0,0,2.2-1,2.88,2.88,0,0,0,.93-2.14,3,3,0,0,0-1.29-2.66,5.85,5.85,0,0,0-3.45-.89H15a.25.25,0,0,0-.24.25v.18a.24.24,0,0,0,.24.24h.28c.17,0,.29,0,.33.09a1,1,0,0,1,.09.57V69.51a1.08,1.08,0,0,1-.09.57c0,.06-.16.09-.33.09H15a.24.24,0,0,0-.24.24v.19a.24.24,0,0,0,.24.24h3.64a.24.24,0,0,0,.24-.24v-.19a.24.24,0,0,0-.24-.24h-.28c-.26,0-.36-.06-.38-.09a1,1,0,0,1-.1-.57V65h.94a10.15,10.15,0,0,1,1.8,1.48c.21.22.49.54.85,1a13.29,13.29,0,0,1,1,1.31c.12.17.24.39.39.61l.36.64c.11.21.23.45.38.72a.23.23,0,0,0,.21.13h2.45a.24.24,0,0,0,.24-.24v-.19a.24.24,0,0,0-.24-.24M17.87,59.4a.55.55,0,0,1,.34-.13,7.69,7.69,0,0,1,1-.05,4.38,4.38,0,0,1,2.36.51,1.66,1.66,0,0,1,.73,1.5A1.92,1.92,0,0,1,21.32,63a5,5,0,0,1-2.72.63h-.73Z"/><path class="cls-1" d="M35.79,64a3,3,0,0,0,1.27-.8,2.76,2.76,0,0,0,.68-1.91,2.93,2.93,0,0,0-1.35-2.62,6.92,6.92,0,0,0-3.68-.83H28a.25.25,0,0,0-.25.25v.18a.24.24,0,0,0,.25.24h.31c.33,0,.42.08.44.1a1,1,0,0,1,.1.56V69.51a1.15,1.15,0,0,1-.09.56s-.08.1-.42.1H28a.24.24,0,0,0-.24.24v.19a.24.24,0,0,0,.24.24h5.11a6.73,6.73,0,0,0,3.76-1,3.13,3.13,0,0,0,1.43-2.74,3,3,0,0,0-.9-2.17,4.26,4.26,0,0,0-1.63-1m-.67,4.85a4.82,4.82,0,0,1-2.67.6,5.67,5.67,0,0,1-1.11-.06.48.48,0,0,1-.29-.18V64.79h.77a6.83,6.83,0,0,1,3.19.59,1.88,1.88,0,0,1,1,1.8,1.86,1.86,0,0,1-.88,1.7m.45-7.58a1.78,1.78,0,0,1-.7,1.55,3.62,3.62,0,0,1-2.12.54H31.07v-4a.54.54,0,0,1,.33-.11l1.08,0a4.1,4.1,0,0,1,2.32.55,1.69,1.69,0,0,1,.77,1.53"/><path class="cls-1" d="M52.65,70.17a1.07,1.07,0,0,1-.37-.11A1,1,0,0,1,52,69.7L46.64,57.89a.23.23,0,0,0-.22-.14h-.91a.25.25,0,0,0-.22.14L40.16,69.22a2.34,2.34,0,0,1-.47.68,1,1,0,0,1-.63.27.24.24,0,0,0-.22.24v.19a.25.25,0,0,0,.25.24h3a.24.24,0,0,0,.24-.24v-.19a.25.25,0,0,0-.06-.17.24.24,0,0,0-.18-.07c-.34,0-.46-.08-.52-.19a1.56,1.56,0,0,1,.15-.47l1-2.43h5.73l1.18,2.67a.69.69,0,0,1,.07.32,1,1,0,0,1-.54.1.24.24,0,0,0-.24.24v.19a.24.24,0,0,0,.24.24h3.41a.24.24,0,0,0,.24-.24v-.19a.24.24,0,0,0-.2-.24M43.38,65.7l2.28-5.18,2.27,5.18Z"/><path class="cls-1" d="M66.68,57.87H63.43a.25.25,0,0,0-.24.25v.18a.24.24,0,0,0,.24.24h.35q.31,0,.39.15a3.17,3.17,0,0,1,.1,1v7.78c-1.1-1.52-2.21-3-3.31-4.44-1.23-1.61-2.49-3.31-3.74-5a.23.23,0,0,0-.2-.11H54.37a.24.24,0,0,0-.23.25v.18a.23.23,0,0,0,.23.24h.25a.36.36,0,0,1,.29.09l.3.51v9.94a2.52,2.52,0,0,1-.11.93s-.07.16-.4.16h-.33a.23.23,0,0,0-.23.24v.19a.23.23,0,0,0,.23.24H57.6a.25.25,0,0,0,.25-.24v-.19a.24.24,0,0,0-.25-.24h-.3c-.3,0-.36-.12-.38-.16a2.38,2.38,0,0,1-.12-.93V60.82l7.6,10a.23.23,0,0,0,.19.1h1a.24.24,0,0,0,.24-.24v-11a2.62,2.62,0,0,1,.12-1s.07-.15.38-.15h.32a.24.24,0,0,0,.24-.24v-.18a.25.25,0,0,0-.24-.25"/><path class="cls-1" d="M85.49,70.17A.67.67,0,0,1,85,70a2.86,2.86,0,0,1-.5-.65c-.16-.27-.31-.57-.48-.89a5.27,5.27,0,0,0-.62-.94l-.74-.89L82,65.86c-.2-.21-.45-.46-.76-.73s-.4-.37-.63-.56a4.26,4.26,0,0,0,2.2-1,2.88,2.88,0,0,0,.92-2.14,3.07,3.07,0,0,0-1.28-2.66A5.87,5.87,0,0,0,79,57.87H74.23a.25.25,0,0,0-.25.25v.18a.25.25,0,0,0,.25.24h.28c.17,0,.29,0,.33.09a1,1,0,0,1,.09.57V69.51c0,.39-.06.53-.1.57s-.15.09-.32.09h-.28a.25.25,0,0,0-.25.24v.19a.25.25,0,0,0,.25.24h3.64a.25.25,0,0,0,.25-.24v-.19a.24.24,0,0,0-.25-.24H77.6c-.33,0-.39-.08-.39-.09a1,1,0,0,1-.1-.57V65H78a9.26,9.26,0,0,1,1.81,1.48c.21.22.49.54.85,1a16.16,16.16,0,0,1,1,1.31c.12.17.25.39.39.61s.25.45.35.65l.39.71a.25.25,0,0,0,.22.13h2.44a.24.24,0,0,0,.24-.24v-.19a.24.24,0,0,0-.24-.24M77.11,59.4a.57.57,0,0,1,.34-.13,7.69,7.69,0,0,1,1-.05,4.38,4.38,0,0,1,2.36.51,1.64,1.64,0,0,1,.73,1.5A1.94,1.94,0,0,1,80.57,63a5.05,5.05,0,0,1-2.74.63h-.72Z"/><path class="cls-1" d="M97.15,68.16h-.32a.24.24,0,0,0-.22.13,2.29,2.29,0,0,1-.38.62,1.54,1.54,0,0,1-.43.34,1.47,1.47,0,0,1-.55.17,6.15,6.15,0,0,1-.81,0h-3.3c-.48,0-.66,0-.74-.11V64.79h3.82a4.42,4.42,0,0,1,.59,0,.53.53,0,0,1,.27.11.32.32,0,0,1,.11.19,2.46,2.46,0,0,1,.1.41.26.26,0,0,0,.24.21h.26a.24.24,0,0,0,.24-.24V62.72a.24.24,0,0,0-.24-.24h-.26a.24.24,0,0,0-.24.22c0,.39-.15.52-.21.57s-.21.13-.86.13H90.4V59.25h4.24a2.78,2.78,0,0,1,.94.12c.22.08.33.42.37.69a.24.24,0,0,0,.24.2h.28a.25.25,0,0,0,.17-.06.26.26,0,0,0,.07-.18l0-1.9a.24.24,0,0,0-.24-.24H87.52a.25.25,0,0,0-.25.25v.18a.24.24,0,0,0,.25.24h.27c.17,0,.29,0,.33.09a1.08,1.08,0,0,1,.09.57V69.51a1,1,0,0,1-.09.57c0,.06-.16.09-.33.09h-.27a.24.24,0,0,0-.25.24v.19a.25.25,0,0,0,.25.24h9.13a.24.24,0,0,0,.23-.19l.51-2.19a.29.29,0,0,0,0-.22.26.26,0,0,0-.19-.08"/><path class="cls-1" d="M107.57,65.11a5.7,5.7,0,0,0-1.12-.91,10.81,10.81,0,0,0-1.28-.72l-.06,0a18.42,18.42,0,0,1-2.24-1.33,1.81,1.81,0,0,1-.89-1.37,1.55,1.55,0,0,1,.56-1.22,2.29,2.29,0,0,1,1.53-.49,3.45,3.45,0,0,1,2.09.56A2.8,2.8,0,0,1,107.22,61a.26.26,0,0,0,.23.17l.32,0a.25.25,0,0,0,.17-.08.27.27,0,0,0,0-.18l-.25-2.78a.27.27,0,0,0-.25-.23h-.21A.25.25,0,0,0,107,58a.33.33,0,0,1-.09.17l-.49-.11-.69-.2a6.09,6.09,0,0,0-1.71-.24,4.42,4.42,0,0,0-2.88,1A3,3,0,0,0,100,61,3.14,3.14,0,0,0,101,63.41a9.69,9.69,0,0,0,1.14.81c.42.26.88.52,1.37.77a10.83,10.83,0,0,1,1.14.62,10.17,10.17,0,0,1,.88.62,1.78,1.78,0,0,1,.73,1.5,1.66,1.66,0,0,1-.18.78,2,2,0,0,1-.51.64,2.49,2.49,0,0,1-.77.43,3.48,3.48,0,0,1-1,.14,3.91,3.91,0,0,1-1.22-.17,4,4,0,0,1-1-.47,3.93,3.93,0,0,1-.78-.68,3.69,3.69,0,0,1-.53-.82.2.2,0,0,0-.15-.12l-.07,0a.24.24,0,0,0-.12,0l-.2.11a.22.22,0,0,0-.12.24L100,70.6a.24.24,0,0,0,.24.22h.23c.14,0,.29-.21.29-.34l.54.14.79.21a8,8,0,0,0,1.89.23,5,5,0,0,0,3.18-1,3.12,3.12,0,0,0,1.36-2.55,3.42,3.42,0,0,0-.24-1.3,3.59,3.59,0,0,0-.71-1.09"/><path class="cls-1" d="M120.94,68.16h-.32a.24.24,0,0,0-.22.13,2.46,2.46,0,0,1-.39.62,1.54,1.54,0,0,1-.43.34,1.37,1.37,0,0,1-.55.17,6,6,0,0,1-.8,0h-3.31c-.47,0-.66,0-.74-.11V64.79H118a4.26,4.26,0,0,1,.58,0,.46.46,0,0,1,.27.11.4.4,0,0,1,.13.19c0,.1.06.25.09.41a.24.24,0,0,0,.23.21h.27a.24.24,0,0,0,.24-.24V62.72a.24.24,0,0,0-.24-.24h-.27a.24.24,0,0,0-.23.22c0,.39-.15.52-.21.57s-.22.13-.86.13h-3.83v-4a.92.92,0,0,0,0-.17h4.25a2.78,2.78,0,0,1,.94.12c.22.08.32.42.37.69a.23.23,0,0,0,.23.2h.28a.28.28,0,0,0,.18-.06.3.3,0,0,0,.06-.18v-1.9a.25.25,0,0,0-.25-.24h-8.94a.24.24,0,0,0-.23.25v.18a.23.23,0,0,0,.23.24h.28c.18,0,.3,0,.34.09a1,1,0,0,1,.09.57V69.51a1,1,0,0,1-.09.57c0,.06-.16.09-.34.09h-.28a.23.23,0,0,0-.23.24v.19a.24.24,0,0,0,.23.24h9.14a.25.25,0,0,0,.24-.19l.5-2.19a.29.29,0,0,0,0-.22.27.27,0,0,0-.19-.08"/><path class="cls-1" d="M136.22,70.17a1.17,1.17,0,0,1-.36-.11c-.05,0-.16-.09-.32-.36l-5.33-11.81a.23.23,0,0,0-.22-.14h-.9a.27.27,0,0,0-.23.14l-5.12,11.32a2.16,2.16,0,0,1-.48.69,1,1,0,0,1-.62.27.24.24,0,0,0-.23.24v.19a.25.25,0,0,0,.25.24h3a.24.24,0,0,0,.24-.24v-.19a.23.23,0,0,0-.24-.24c-.25,0-.43,0-.51-.19a1.36,1.36,0,0,1,.14-.47l1.06-2.43h5.71l1.18,2.67a.69.69,0,0,1,.07.32,1,1,0,0,1-.53.1.23.23,0,0,0-.25.24v.19a.24.24,0,0,0,.25.24h3.4a.25.25,0,0,0,.25-.24v-.19a.25.25,0,0,0-.21-.24M127,65.7l2.27-5.18,2.28,5.18Z"/><path class="cls-1" d="M149.37,70.17a.7.7,0,0,1-.52-.22,3.55,3.55,0,0,1-.49-.65c-.15-.27-.32-.57-.48-.89a5.87,5.87,0,0,0-.62-.94l-.74-.89-.63-.72a8.9,8.9,0,0,0-.75-.73c-.19-.18-.41-.37-.63-.56a4.26,4.26,0,0,0,2.2-1,2.88,2.88,0,0,0,.93-2.14,3.07,3.07,0,0,0-1.29-2.66,5.89,5.89,0,0,0-3.45-.89h-4.79a.25.25,0,0,0-.24.25v.18a.24.24,0,0,0,.24.24h.29c.17,0,.29,0,.32.09a1,1,0,0,1,.09.57V69.51a1.08,1.08,0,0,1-.09.57c0,.06-.15.09-.32.09h-.29a.24.24,0,0,0-.24.24v.19a.24.24,0,0,0,.24.24h3.64a.25.25,0,0,0,.26-.24v-.19a.24.24,0,0,0-.26-.24h-.27c-.32,0-.38-.08-.39-.09a1.08,1.08,0,0,1-.09-.57V65h.93a10.84,10.84,0,0,1,1.82,1.48l.83,1a14.16,14.16,0,0,1,1,1.31c.12.17.26.39.39.61l.37.65.37.71a.26.26,0,0,0,.22.13h2.44a.25.25,0,0,0,.25-.24v-.19a.24.24,0,0,0-.25-.24M141,59.4a.55.55,0,0,1,.34-.13,7.81,7.81,0,0,1,1-.05,4.4,4.4,0,0,1,2.36.51,1.64,1.64,0,0,1,.73,1.5,2,2,0,0,1-.93,1.78,5.07,5.07,0,0,1-2.74.63H141Z"/><path class="cls-1" d="M162.26,68.57a.26.26,0,0,0-.17-.15H162a.25.25,0,0,0-.15.06,4.8,4.8,0,0,1-1.7.87,6.89,6.89,0,0,1-2.05.31,4.9,4.9,0,0,1-3.72-1.42,5.42,5.42,0,0,1-1.34-3.89,5.6,5.6,0,0,1,1.33-3.89A4.71,4.71,0,0,1,158,59a4.79,4.79,0,0,1,1.06.12,5.84,5.84,0,0,1,1,.35,3.79,3.79,0,0,1,.9.62,3.28,3.28,0,0,1,.69,1,.25.25,0,0,0,.22.13H162l.22-.06a.25.25,0,0,0,.18-.24l0-.54-.12-2.51a.23.23,0,0,0-.24-.23h-.22a.25.25,0,0,0-.24.18.67.67,0,0,1-.13.25s-.07.09-.05.09l-.54-.13-.85-.19a10.94,10.94,0,0,0-2.17-.21,7.13,7.13,0,0,0-5.07,1.88,7.06,7.06,0,0,0-.06,9.72,7.18,7.18,0,0,0,5.13,1.82,8.41,8.41,0,0,0,2.51-.36,6.85,6.85,0,0,0,2.17-1.17.25.25,0,0,0,.07-.28Z"/><path class="cls-1" d="M176.21,58.63s.13-.09.35-.09h.29a.23.23,0,0,0,.24-.24v-.18a.24.24,0,0,0-.24-.25h-3.69a.25.25,0,0,0-.24.25v.18a.24.24,0,0,0,.24.24h.29c.32,0,.38.08.38.09a1.08,1.08,0,0,1,.09.57v4.29h-6.07V59.2a1,1,0,0,1,.09-.57s.13-.09.35-.09h.28a.23.23,0,0,0,.24-.24v-.18a.24.24,0,0,0-.24-.25H164.9a.25.25,0,0,0-.24.25v.18a.24.24,0,0,0,.24.24h.29c.32,0,.38.08.38.09a1,1,0,0,1,.09.57V69.51a1,1,0,0,1-.09.57s-.06.09-.38.09h-.29a.24.24,0,0,0-.24.24v.19a.24.24,0,0,0,.24.24h3.67a.24.24,0,0,0,.24-.24v-.19a.23.23,0,0,0-.24-.24h-.28c-.22,0-.32,0-.35-.09a1,1,0,0,1-.09-.57V64.92h6.07v4.59a1,1,0,0,1-.09.57s-.06.09-.38.09h-.29a.24.24,0,0,0-.24.24v.19a.24.24,0,0,0,.24.24h3.69a.24.24,0,0,0,.24-.24v-.19a.23.23,0,0,0-.24-.24h-.29a.55.55,0,0,1-.37-.09,1.27,1.27,0,0,1-.08-.57V59.2c0-.4.06-.53.1-.57"/><path class="cls-1" d="M193.34,71.94a1.87,1.87,0,0,1-.8-.18,1.89,1.89,0,0,1-.91-2.51L223.32,1.43A1.9,1.9,0,0,1,225,.34h10.08a1.89,1.89,0,1,1,0,3.77h-8.87L195.05,70.85a1.88,1.88,0,0,1-1.71,1.09"/></svg>