<svg id="レイヤー_1" data-name="レイヤー 1" xmlns="http://www.w3.org/2000/svg" width="230" height="100" viewBox="0 0 230 100"><title>sp_item</title><rect x="79.48" y="30.717" width="1.172" height="17.435"/><polygon points="100.315 30.717 93.531 30.717 92.358 30.717 85.575 30.717 85.575 31.89 92.358 31.89 92.358 48.152 93.531 48.152 93.531 31.89 100.315 31.89 100.315 30.717"/><polygon points="106.738 46.979 106.738 39.946 115.231 39.946 115.231 38.773 106.738 38.773 106.738 31.89 115.476 31.89 115.476 30.718 106.738 30.718 105.566 30.718 105.566 31.89 105.566 38.773 105.566 39.946 105.566 46.979 105.566 48.152 106.738 48.152 115.716 48.152 115.716 46.979 106.738 46.979"/><path d="M149.976,33.238l-.162-.15a5.331,5.331,0,0,0-3.8-1.2c-2.58,0-3.383,1.765-3.383,2.408,0,.767,0,2.194,3.185,3.945,3.47,1.909,4.7,3.451,4.7,5.892,0,2.619-2.661,4.015-4.583,4.015a7.944,7.944,0,0,1-4.607-1.64l-.025-.02V44.814l.095.113.042.052a6.41,6.41,0,0,0,4.5,1.972c1.384,0,3.385-1,3.385-2.814,0-1.942-1.03-3.163-4.079-4.84-3.355-1.844-3.806-3.561-3.806-5,0-1.131,1.152-3.609,4.581-3.609a7.357,7.357,0,0,1,3.924,1.007l.031.02Z"/><path d="M134.881,30.717v.006l-.008-.006-6.412,8.155-6.4-8.136v-.019h-1.173V48.152h1.173s0-10.994,0-15.518l6.393,8.129h.008l6.416-8.159V48.152h1.172V30.717Z"/><path d="M59.087,59.242q0,1.412-.015,2.333t-.014,1.606q0,.837,0,1.429t0,1.025a4.115,4.115,0,0,1-.253,1.5,3.085,3.085,0,0,1-.768,1.136,3.672,3.672,0,0,1-1.263.761,5.024,5.024,0,0,1-1.734.275,5.077,5.077,0,0,1-1.733-.272,3.624,3.624,0,0,1-1.271-.764,3.094,3.094,0,0,1-.767-1.136,4.115,4.115,0,0,1-.253-1.5q0-.433,0-1.025t0-1.429q0-.684-.015-1.606T51,59.242h1.212q-.008.185-.018,1.253t-.011,2.81q0,.53,0,1.1c0,.376,0,.764,0,1.16a2.6,2.6,0,0,0,.771,2.039,3,3,0,0,0,2.086.7,3.044,3.044,0,0,0,2.138-.662,2.7,2.7,0,0,0,.713-2.072c0-.4,0-.784,0-1.16s0-.743,0-1.1q0-1.742-.015-2.85t-.015-1.213Z"/><path d="M70.022,68.493l-.919.757q-.162-.169-1.145-1.276t-3.032-3.453l.007-.066a3.75,3.75,0,0,0,.742-.319,3.844,3.844,0,0,0,.779-.534,2.385,2.385,0,0,0,.475-.618,2.053,2.053,0,0,0,.2-.985,1.616,1.616,0,0,0-.3-.975,1.713,1.713,0,0,0-.819-.6,3.192,3.192,0,0,0-.9-.2c-.314-.021-.6-.032-.867-.032-.176,0-.311,0-.4,0s-.161,0-.2,0q-.015,1.4-.019,2.464c0,.71,0,1.213,0,1.506q0,1.008.012,2.736t.018,2.17H62.437q.008-.441.022-1.708t.015-3.156v-1.36q0-.992-.037-3.614c.049,0,.293-.006.734-.016s.846-.015,1.217-.015a10,10,0,0,1,1.24.075A4.329,4.329,0,0,1,66.8,59.6a2.653,2.653,0,0,1,1.152.907,2.364,2.364,0,0,1,.425,1.406,2.456,2.456,0,0,1-.641,1.736,5.6,5.6,0,0,1-1.214,1.032v.037q1.008,1.177,2.209,2.427t1.289,1.346"/><path d="M78.942,66.186a2.391,2.391,0,0,1-.378,1.322,2.806,2.806,0,0,1-1.1.963,5.232,5.232,0,0,1-1.4.481,9.045,9.045,0,0,1-1.747.151q-.726,0-1.493-.026c-.512-.017-.8-.027-.855-.033q.023-1.41.029-2.663t.008-2.392q0-2.16-.019-3.421t-.018-1.311c.068,0,.339-.017.81-.037s.931-.029,1.377-.029a9.118,9.118,0,0,1,1.393.1,4.947,4.947,0,0,1,1.079.276,2.393,2.393,0,0,1,1.048.76,1.933,1.933,0,0,1,.383,1.216,2.051,2.051,0,0,1-.48,1.341,2.453,2.453,0,0,1-1.093.8v.074a3.353,3.353,0,0,1,.981.238,2.531,2.531,0,0,1,.836.555,2.229,2.229,0,0,1,.476.7,2.433,2.433,0,0,1,.161.941m-1.249.037a1.638,1.638,0,0,0-.132-.672,1.982,1.982,0,0,0-.4-.57,1.792,1.792,0,0,0-.687-.4,2.83,2.83,0,0,0-.95-.154c-.275,0-.5,0-.666.007s-.28.007-.334.007l-.118-.882a4.072,4.072,0,0,0,.96-.128,2.342,2.342,0,0,0,.737-.342,1.78,1.78,0,0,0,.507-.562,1.5,1.5,0,0,0,.2-.768,1.359,1.359,0,0,0-.219-.775,1.542,1.542,0,0,0-.6-.518,2.948,2.948,0,0,0-.791-.232,6.239,6.239,0,0,0-1-.077c-.23,0-.442,0-.634.011s-.316.011-.371.011q-.021,1.073-.025,2.278t0,1.749q0,1.264.011,2.539t.011,1.363l.393.018c.163.007.321.011.473.011a12.913,12.913,0,0,0,1.565-.088,3.293,3.293,0,0,0,1.221-.368,1.663,1.663,0,0,0,.634-.6,1.62,1.62,0,0,0,.224-.859"/><path d="M89.754,68.688l-1.143.591q-.03-.081-.47-1.094t-1.163-2.609H82.629q-.776,1.713-1.2,2.653c-.281.627-.435.977-.465,1.05l-.984-.532q.191-.382,1.576-3.368T84.436,59.1h.955q1.47,3.289,2.887,6.375t1.476,3.21m-3.192-4.053q-.389-.9-.821-1.875t-.908-2.044l-.03.006q-.369.809-.891,1.986t-.862,1.927l0,.008h3.518Z"/><path d="M100.016,59.242Q100,60.4,99.99,61.88t-.011,2.138q0,2.088.014,3.318c.011.821.015,1.258.015,1.311l-.976.478q-2.22-3-4.147-5.411l-2.229-2.788-.015.007q0,1.97.026,4.838t.033,3.31H91.554q.007-.184.022-1.308t.015-3.131q0-.8-.008-2.126t-.029-2.811l1.116-.529q.132.169,2.252,2.856t3.992,4.993l.015-.007q0-1.13-.03-3.807t-.029-3.969Z"/><path d="M114.785,68.493l-.919.757q-.162-.169-1.145-1.276t-3.032-3.453l.007-.066a3.8,3.8,0,0,0,.742-.319,3.873,3.873,0,0,0,.779-.534,2.4,2.4,0,0,0,.474-.618,2.052,2.052,0,0,0,.2-.985,1.616,1.616,0,0,0-.3-.975,1.723,1.723,0,0,0-.819-.6,3.2,3.2,0,0,0-.9-.2q-.471-.031-.867-.032c-.176,0-.311,0-.4,0s-.162,0-.206,0q-.015,1.4-.018,2.464c0,.71,0,1.213,0,1.506q0,1.008.011,2.736t.018,2.17H107.2q.009-.441.022-1.708t.015-3.156v-1.36q0-.992-.037-3.614c.05,0,.293-.006.734-.016s.846-.015,1.218-.015a10,10,0,0,1,1.239.075,4.32,4.32,0,0,1,1.174.315,2.647,2.647,0,0,1,1.152.907,2.358,2.358,0,0,1,.426,1.406,2.46,2.46,0,0,1-.641,1.736,5.644,5.644,0,0,1-1.214,1.032v.037q1.006,1.177,2.209,2.427t1.289,1.346"/><path d="M122.985,69.066l-.978-.007q-.91-.007-2.254-.008c-.623,0-1.191,0-1.708.008s-.954.007-1.311.007q.014-.426.026-1.844t.011-2.932q0-.831-.008-2.2t-.029-2.829q.521,0,1.3.007t1.612.008q1.4,0,2.285-.008l.955-.007v1.022l-.921-.011q-.849-.012-2.113-.011-.551,0-1.079,0t-.838,0c0,.553,0,1.106-.014,1.656s-.015,1.072-.015,1.562q.33,0,.782,0t.8,0q1.293,0,2.31-.011l1.083-.012v1.014q-.058,0-1.212-.011c-.769-.006-1.471-.011-2.109-.011q-.351,0-.84.005l-.819,0q0,1.391.007,2.2t.015,1.367c.289,0,.639.008,1.05.011s.855,0,1.33,0q1.095,0,1.84-.008l.834-.007Z"/><path d="M130.748,66.311a2.445,2.445,0,0,1-.356,1.326,2.747,2.747,0,0,1-.96.922,4.469,4.469,0,0,1-1.265.488,6.9,6.9,0,0,1-1.581.166c-.314,0-.639-.009-.975-.029s-.53-.032-.584-.037l-.059-1.058q.1.015.572.055t1.11.041a6.455,6.455,0,0,0,1.006-.1,3.557,3.557,0,0,0,.948-.265,1.857,1.857,0,0,0,.665-.514,1.222,1.222,0,0,0,.231-.765,1.452,1.452,0,0,0-.231-.833,2.363,2.363,0,0,0-.768-.658q-.345-.206-.9-.463a9.73,9.73,0,0,1-.991-.529,3.025,3.025,0,0,1-1.068-1,2.3,2.3,0,0,1-.32-1.2,2.275,2.275,0,0,1,.291-1.172,2.908,2.908,0,0,1,.753-.849,3.275,3.275,0,0,1,1.152-.529,6.044,6.044,0,0,1,1.511-.176q.456,0,.923.025c.312.018.489.029.533.034l.1,1.065-.537-.051q-.47-.045-1.16-.044a4.081,4.081,0,0,0-.849.092,2.587,2.587,0,0,0-.767.282,1.511,1.511,0,0,0-.5.471,1.214,1.214,0,0,0-.206.7,1.264,1.264,0,0,0,.216.7,2.459,2.459,0,0,0,.812.687q.3.183.8.422t.973.518a3.3,3.3,0,0,1,1.106,1,2.278,2.278,0,0,1,.37,1.283"/><path d="M139.651,69.066l-.977-.007q-.91-.007-2.255-.008-.931,0-1.708.008t-1.311.007q.015-.426.026-1.844t.012-2.932q0-.831-.008-2.2t-.03-2.829q.522,0,1.3.007t1.612.008q1.4,0,2.285-.008l.955-.007v1.022l-.922-.011q-.849-.012-2.112-.011-.55,0-1.08,0t-.837,0c0,.553,0,1.106-.015,1.656s-.014,1.072-.014,1.562q.33,0,.782,0t.8,0q1.293,0,2.31-.011l1.084-.012v1.014c-.04,0-.443,0-1.212-.011s-1.472-.011-2.108-.011c-.235,0-.516,0-.841.005l-.819,0q0,1.391.007,2.2t.015,1.367c.289,0,.639.008,1.05.011s.855,0,1.33,0q1.095,0,1.839-.008l.834-.007Z"/><path d="M150.661,68.688l-1.142.591q-.03-.081-.471-1.094t-1.163-2.609h-4.349q-.774,1.713-1.195,2.653t-.465,1.05l-.984-.532q.192-.382,1.577-3.368t2.875-6.276h.955q1.468,3.289,2.887,6.375l1.475,3.21m-3.191-4.053q-.388-.9-.822-1.875t-.907-2.044l-.03.006q-.369.809-.891,1.986t-.862,1.927l0,.008h3.519Z"/><path d="M160.047,68.493l-.92.757q-.161-.169-1.145-1.276t-3.032-3.453l.008-.066a3.775,3.775,0,0,0,.742-.319,3.844,3.844,0,0,0,.779-.534,2.407,2.407,0,0,0,.475-.618,2.053,2.053,0,0,0,.2-.985,1.616,1.616,0,0,0-.3-.975,1.721,1.721,0,0,0-.82-.6,3.178,3.178,0,0,0-.9-.2c-.314-.021-.6-.032-.867-.032-.177,0-.311,0-.4,0s-.162,0-.206,0q-.013,1.4-.018,2.464c0,.71,0,1.213,0,1.506q0,1.008.011,2.736t.019,2.17h-1.212q.006-.441.022-1.708t.014-3.156v-1.36q0-.992-.036-3.614c.048,0,.293-.006.733-.016s.847-.015,1.218-.015a10.024,10.024,0,0,1,1.24.075,4.339,4.339,0,0,1,1.174.315,2.644,2.644,0,0,1,1.151.907,2.358,2.358,0,0,1,.426,1.406,2.457,2.457,0,0,1-.642,1.736,5.6,5.6,0,0,1-1.213,1.032v.037q1.006,1.177,2.208,2.427t1.29,1.346"/><path d="M168.511,68.177c0,.044-.018.168-.04.371s-.043.425-.063.665h-.257a10.35,10.35,0,0,1-3.188-.452,5.839,5.839,0,0,1-2.291-1.312,4.347,4.347,0,0,1-.989-1.425,4.686,4.686,0,0,1-.363-1.895,4.16,4.16,0,0,1,.36-1.746,4.727,4.727,0,0,1,.94-1.377,5.864,5.864,0,0,1,2.269-1.352,9.134,9.134,0,0,1,3.049-.5h.331c0,.088.014.229.029.423s.032.4.052.627H168.1a9.461,9.461,0,0,0-1.905.2,5.812,5.812,0,0,0-1.7.606,3.869,3.869,0,0,0-1.427,1.356,3.373,3.373,0,0,0-.5,1.781,3.655,3.655,0,0,0,.449,1.8,3.561,3.561,0,0,0,1.419,1.363,6.035,6.035,0,0,0,1.776.662,9.509,9.509,0,0,0,1.952.206h.141c.063,0,.132,0,.2-.008"/><path d="M179,69.081h-1.212q.007-.441.019-1.628t.01-2.957l-1.308,0q-1.2,0-1.8,0-.726,0-1.744,0l-1.106,0q0,2.041.011,3.093t.019,1.492h-1.213q.009-.441.023-1.565t.015-3.8c0-.539,0-1.2-.011-1.969s-.017-1.61-.027-2.506h1.213q0,1.118-.015,2.194t-.015,2.046l.959,0q.87,0,1.9,0l1.91,0,1.189,0q0-.971-.014-2.043t-.015-2.2H179q-.015,1.11-.026,2.565t-.011,2.373q0,2.16.015,3.31T179,69.081"/></svg>