<svg id="レイヤー_1" data-name="レイヤー 1" xmlns="http://www.w3.org/2000/svg" width="230" height="100" viewBox="0 0 230 100"><path d="M74,36.062h3.569V49.209L92.7,36.243h5.241L85.611,46.815,97.9,63.712H93.246L83.036,48.938l-5.467,4.7v10.3H74Z"/><path d="M118.863,51.107a6.34,6.34,0,0,1,3.072,1.943,4.726,4.726,0,0,1,1.039,3.027,4.663,4.663,0,0,1-.678,2.349,4.114,4.114,0,0,1-1.9,1.717,9.4,9.4,0,0,1-3.569.542h-6.913V50.61h6.371A7.532,7.532,0,0,1,118.863,51.107Zm-.091-11.747a3.923,3.923,0,0,1,2.214,1.356,3.729,3.729,0,0,1,.859,2.439,3.361,3.361,0,0,1-1.4,2.892,9.774,9.774,0,0,1-6.009,1.671h-4.518V39h6.506A10.632,10.632,0,0,1,118.772,39.36Zm3.886,23.493a6.887,6.887,0,0,0,3.208-2.755A7.674,7.674,0,0,0,127,56.122a7.913,7.913,0,0,0-.632-3.163A5.343,5.343,0,0,0,124.51,50.7a18.309,18.309,0,0,0-4.066-1.762,8.675,8.675,0,0,0,2.756-1.31,6.914,6.914,0,0,0,1.943-2.394,6.069,6.069,0,0,0,.5-2.711,5.891,5.891,0,0,0-1.085-3.117,6.54,6.54,0,0,0-3.072-2.531,12,12,0,0,0-4.7-.813H106.348V63.8H116.6A15.251,15.251,0,0,0,122.658,62.853Z"/><path d="M135.489,36.062H156v3.3H139.058v8.72h12.966v3.162H139.058V63.847h-3.614V36.062Z"/></svg>