<svg id="レイヤー_1" data-name="レイヤー 1" xmlns="http://www.w3.org/2000/svg" width="230" height="100" viewBox="0 0 230 100"><title>sp_kagure</title><path d="M109.037,52.97c-.73-.817-2-2.258-1.745-3.49.407-1.949,5.8-9.229,6.4-10.076.528-.743,1.057-1.18.906-2a3.426,3.426,0,0,0-2.914-2.089c-.348.054-.344.331-.089.577a1.537,1.537,0,0,1,.63,1.746c-.219.942-2.5,4.819-3.439,6.538-1.565,2.874-2.61,4.072-2.657,5.77-.042,1.489,1.977,3.7,3.373,5.632a23.22,23.22,0,0,1,3.212,7.352c.189,1.093.767,1.769,1.325,1.769s1-.86.885-2.071C114.643,59.728,110.409,54.506,109.037,52.97Z"/><path d="M125.366,40.369c-.714-1.475-3.553-2.466-4.8-2.581-.418-.039-.507.438-.069.6a10.639,10.639,0,0,1,2.626,1.843c.875.806,1.043,1.52,1.733,1.682C125.278,42.011,125.923,41.52,125.366,40.369Z"/><path d="M118.091,40.778c-.431-.095-.571.361-.15.616a11.133,11.133,0,0,1,2.488,2.267c.8.953.885,1.715,1.576,1.977.422.16,1.158-.264.732-1.537C122.189,42.474,119.37,41.065,118.091,40.778Z"/><path d="M88.529,49.538c-1.054-3.17-4.352-5.1-7.024-5.59-.458-.084-.415.327-.049.475a9.9,9.9,0,0,1,5.022,4.493c.487,1,.51,1.948.115,2.3-.428.385-3.179.782-3.663.829-.211.02-.207.368,0,.368a12.488,12.488,0,0,1,2.558.415c.806.253.83.807,1.105.968a1.118,1.118,0,0,0,1.245-.161C88.776,52.8,88.992,50.933,88.529,49.538Z"/><path d="M75.7,44.03a8.629,8.629,0,0,0-4.25.181l.013-.041c.158-.509,1.4-3.642,1.367-4.9s-1.856-2.032-2.768-2.067c-.843-.032-.98.56-.664.666a2.142,2.142,0,0,1,1.3,1.226c.5,1.044-.181,4.027-.707,5.464l-.01.029c-.256.07-.472.132-.631.176-1.516.415-2.9.8-3.905.985-1.934.347-2.838-.525-3.118-1.051-.047-.088-.11-.106-.152-.09-.084.031-.131.224-.127.44a2.64,2.64,0,0,0,1.89,2.7c1.4.212,3.331-.973,5.534-1.75a54.431,54.431,0,0,1-6.934,12.853c-.407.545-.7.841-.421,1.576.369.974,1.191.841,1.646.21A71.218,71.218,0,0,0,70.53,46.8c.165-.459.333-.909.491-1.346a23.073,23.073,0,0,1,2.436-.687c1-.206,2.584-.581,2.942,2.45.4,3.35-1.038,8.246-2.472,10.691-.692,1.18-1.345,1.427-2.046,1.357a15.5,15.5,0,0,1-3.223-1.752c-.351-.21-.492.1-.35.246.192.2,1.356,1.445,1.747,1.928.452.558.425,1.644.844,2.03a1.773,1.773,0,0,0,2.068-.176c3.631-2.729,5.113-9.631,4.728-14.429A3.273,3.273,0,0,0,75.7,44.03Z"/><path d="M167.451,54.208a13.608,13.608,0,0,1-2.887,3.9c-1.314,1.151-3.779,2.115-4.72.025s.653-8.678.989-12.231c.351-3.733-2.04-5.677-5.071-5.07-3.288.657-7.043,4.459-8.97,6.666-.076.089-.272.2-.209-.023a8.917,8.917,0,0,1,.727-1.432,1.866,1.866,0,0,0,.328-1.292c-.066-.6-.491-.563-.587-1.126s.563-3.662.049-5.071a4.309,4.309,0,0,0-2.958-2.911c-.659-.047-.777.212-.542.422a8.086,8.086,0,0,1,1.572,2.441,13.3,13.3,0,0,1,.378,5.282c-3.052,1.128-5.1,2.846-5.412,4.427-.283,1.421.939,3.439,1.823,5.588-.583.945-1.9,3.012-2.352,3.626a1.609,1.609,0,0,0-.422,1.619c.235.657,1.217.808,1.479.282.169-.342.472-.9.932-1.747.323-.6.678-1.256,1.117-2.039a35.959,35.959,0,0,1,1.76,4.782,23.361,23.361,0,0,0,.44,3.088.855.855,0,0,0,.961.47c1.131-.358.73-3.685.448-5.329a66.755,66.755,0,0,1-.212-8.38,35.211,35.211,0,0,1,3.831-4.411,30.867,30.867,0,0,1,2.907-2.469,11.875,11.875,0,0,1,2.465-1.431,2.756,2.756,0,0,1,3.685,1.5c.635,1.455-.281,6.971-.539,8.568-.226,1.4-1.857,8.648,2.816,8.921,4.438.257,6.433-5.539,6.69-6.292C168.128,54.09,167.658,53.725,167.451,54.208Zm-22.982,3.779c-.246-.444-.777-1.716-1.377-3.11.492-.859,1.527-2.568,1.627-2.68.078-.087.17-.058.169.075-.009,1.114,0,5.363,0,5.692S144.706,58.414,144.469,57.987Zm.815-11.1a30.172,30.172,0,0,1-1.356,3.844c-.253.43-.981,1.545-1.535,2.412-1.108-2.916-1.676-4.062-1-5.134.619-.981,3.122-2.325,3.638-2.536a1.116,1.116,0,0,1,.28-.084c.088-.011.114.062.106.176A11.625,11.625,0,0,1,145.284,46.889Z"/></svg>