<svg id="レイヤー_1" data-name="レイヤー 1" xmlns="http://www.w3.org/2000/svg" width="230" height="100" viewBox="0 0 230 100"><title>sp_laato</title><path d="M64.858,57.618l-.422,1.189H56V41.936l1.265-.422v16.1Z"/><path d="M89.051,51.972H82.022l-2.95,6.837H77.745l7.791-17.934,7.816,17.934H92Zm-.492-1.164-3.023-7.06-3.023,7.06Z"/><path d="M117.5,51.972h-7.029l-2.95,6.837h-1.327l7.791-17.934L121.8,58.809h-1.352Zm-.492-1.164-3.023-7.06-3.023,7.06Z"/><path d="M139.1,42.679V58.808h-1.266V42.679h-5.489l.421-1.169,11.817,0L145,42.679Z"/><path d="M155.967,50.183a9.017,9.017,0,1,1,9.017,8.942A8.877,8.877,0,0,1,155.967,50.183Zm16.72,0a7.7,7.7,0,1,0-7.7,7.753A7.659,7.659,0,0,0,172.687,50.183Z"/></svg>