<svg id="レイヤー_1" data-name="レイヤー 1" xmlns="http://www.w3.org/2000/svg" width="230" height="100" viewBox="0 0 230 100"><rect width="230" height="100" fill="none"/><path d="M107.44,59.43h.67v7.14h-.67Z" fill="#0b1430"/><path d="M115.14,61.42v5.15h-.66v-.89a2.8,2.8,0,0,1-.93.77,2.53,2.53,0,0,1-1.13.25,2.5,2.5,0,0,1-1.87-.79,2.65,2.65,0,0,1-.78-1.93,2.61,2.61,0,0,1,.79-1.9,2.52,2.52,0,0,1,1.87-.79,2.41,2.41,0,0,1,1.15.27,2.47,2.47,0,0,1,.9.81v-.95Zm-2.65.51a2,2,0,0,0-1,.27,2,2,0,0,0-.75.76,2.15,2.15,0,0,0-.27,1,2.06,2.06,0,0,0,.28,1,1.92,1.92,0,0,0,.75.77,1.89,1.89,0,0,0,1,.28,2.12,2.12,0,0,0,1-.27,1.91,1.91,0,0,0,.74-.75,2.18,2.18,0,0,0-.32-2.54A2,2,0,0,0,112.49,61.93Z" fill="#0b1430"/><path d="M117.2,66.57V59.43h.66V62.3a2.76,2.76,0,0,1,.93-.76,2.62,2.62,0,0,1,3,.54,2.74,2.74,0,0,1,0,3.83,2.54,2.54,0,0,1-1.88.79,2.4,2.4,0,0,1-1.14-.27,2.64,2.64,0,0,1-.9-.81v.95Zm2.65-.51a2,2,0,0,0,1-.27,2.08,2.08,0,0,0,.74-.76,2.14,2.14,0,0,0-.75-2.87,2,2,0,0,0-1-.27,2.11,2.11,0,0,0-1,.27,2.07,2.07,0,0,0-.75.75,2.16,2.16,0,0,0-.26,1.06,2.06,2.06,0,0,0,.59,1.49A1.94,1.94,0,0,0,119.85,66.06Z" fill="#0b1430"/><path d="M44,35.58h1.12v6.78a13.69,13.69,0,0,0,.05,1.5A2.29,2.29,0,0,0,45.56,45a2.21,2.21,0,0,0,.94.75,2.92,2.92,0,0,0,1.27.3,2.64,2.64,0,0,0,1.07-.23,2.32,2.32,0,0,0,.85-.66,2.72,2.72,0,0,0,.51-1,8.94,8.94,0,0,0,.11-1.75V35.58h1.12v6.78a8.14,8.14,0,0,1-.29,2.43A3.31,3.31,0,0,1,50,46.4a3.37,3.37,0,0,1-2.14.69,4.06,4.06,0,0,1-2.33-.65,3.08,3.08,0,0,1-1.29-1.71A9,9,0,0,1,44,42.36Z" fill="#0b1430"/><path d="M55.1,35.58h2.24a13.7,13.7,0,0,1,2.53.15,2.91,2.91,0,0,1,1.63,1,2.78,2.78,0,0,1,.63,1.85,3,3,0,0,1-.44,1.61,2.55,2.55,0,0,1-1.23,1,5.65,5.65,0,0,1-2.21.37l4,5.21H60.9l-4-5.21h-.63v5.21H55.1Zm1.13,1.1V40.5h1.93a4.87,4.87,0,0,0,1.66-.21,1.72,1.72,0,0,0,.84-.68,1.9,1.9,0,0,0,0-2.08,1.66,1.66,0,0,0-.8-.66,4.91,4.91,0,0,0-1.65-.2Z" fill="#0b1430"/><path d="M65.41,35.58h2.21a5.26,5.26,0,0,1,2,.32,2.51,2.51,0,0,1,1.14,1,2.75,2.75,0,0,1,.41,1.46,2.63,2.63,0,0,1-.36,1.36,2.8,2.8,0,0,1-1.07,1,4.07,4.07,0,0,1,1.34.7,2.73,2.73,0,0,1,.74,1,3,3,0,0,1,.26,1.23,3,3,0,0,1-1,2.28,3.67,3.67,0,0,1-2.65.94H65.41Zm1.1,1.1v3.6h.64a5.14,5.14,0,0,0,1.72-.22,1.87,1.87,0,0,0,.87-.69,1.75,1.75,0,0,0,.32-1,1.48,1.48,0,0,0-.54-1.21,2.72,2.72,0,0,0-1.71-.44Zm0,4.73v4.3H67.9a5,5,0,0,0,1.8-.24,2,2,0,0,0,.92-.75A2,2,0,0,0,71,43.61a1.88,1.88,0,0,0-.49-1.3,2.45,2.45,0,0,0-1.34-.77,10.19,10.19,0,0,0-2-.13Z" fill="#0b1430"/><path d="M79.78,35.58,85,46.81H83.81L82,43.12H77.21l-1.75,3.69H74.21l5.3-11.23ZM79.64,38,77.72,42h3.84Z" fill="#0b1430"/><path d="M87.61,46.81V35.58h.25l7.47,8.61V35.58h1.11V46.81h-.25l-7.42-8.5v8.5Z" fill="#0b1430"/><path d="M104.83,35.58h2.23a13.91,13.91,0,0,1,2.54.15,2.88,2.88,0,0,1,1.62,1,2.78,2.78,0,0,1,.63,1.85,3,3,0,0,1-.43,1.61,2.64,2.64,0,0,1-1.23,1,5.74,5.74,0,0,1-2.22.37l4,5.21h-1.39l-4-5.21H106v5.21h-1.12Zm1.12,1.1V40.5h1.93a4.94,4.94,0,0,0,1.67-.21,1.72,1.72,0,0,0,.84-.68,1.94,1.94,0,0,0,.3-1,1.78,1.78,0,0,0-.31-1,1.66,1.66,0,0,0-.8-.66,4.91,4.91,0,0,0-1.65-.2Z" fill="#0b1430"/><path d="M115.11,35.58h6.43v1.1h-5.31V40.2h5.26v1.1h-5.26v4.41h5.26v1.1h-6.38Z" fill="#0b1430"/><path d="M124,44.72l.95-.57c.68,1.23,1.45,1.85,2.33,1.85a2.28,2.28,0,0,0,1.06-.26,1.86,1.86,0,0,0,1-1.65A1.93,1.93,0,0,0,129,43a9.38,9.38,0,0,0-1.93-1.81,9.16,9.16,0,0,1-1.74-1.53,2.79,2.79,0,0,1-.6-1.72,2.62,2.62,0,0,1,.35-1.33,2.45,2.45,0,0,1,1-1,2.86,2.86,0,0,1,1.38-.35,3,3,0,0,1,1.49.39,5.07,5.07,0,0,1,1.46,1.45l-.91.69a4.45,4.45,0,0,0-1.08-1.1,1.88,1.88,0,0,0-1-.27,1.57,1.57,0,0,0-1.11.41,1.35,1.35,0,0,0-.43,1,1.78,1.78,0,0,0,.15.71,2.57,2.57,0,0,0,.56.74c.15.15.63.52,1.45,1.13a8,8,0,0,1,2,1.91,3.09,3.09,0,0,1,.54,1.69,2.86,2.86,0,0,1-.93,2.12,3.1,3.1,0,0,1-2.25.9,3.37,3.37,0,0,1-1.86-.54A5.16,5.16,0,0,1,124,44.72Z" fill="#0b1430"/><path d="M133.81,35.58h6.43v1.1h-5.31V40.2h5.27v1.1h-5.27v4.41h5.27v1.1h-6.39Z" fill="#0b1430"/><path d="M147.61,35.58l5.24,11.23h-1.21l-1.77-3.69H145l-1.75,3.69H142l5.3-11.23ZM147.47,38,145.55,42h3.84Z" fill="#0b1430"/><path d="M155.5,35.58h2.23a13.84,13.84,0,0,1,2.54.15,2.88,2.88,0,0,1,1.62,1,2.78,2.78,0,0,1,.63,1.85,3,3,0,0,1-.43,1.61,2.64,2.64,0,0,1-1.23,1,5.74,5.74,0,0,1-2.22.37l4,5.21h-1.39l-4-5.21h-.63v5.21H155.5Zm1.12,1.1V40.5h1.93a4.94,4.94,0,0,0,1.67-.21,1.72,1.72,0,0,0,.84-.68,1.94,1.94,0,0,0,.3-1,1.78,1.78,0,0,0-.31-1,1.66,1.66,0,0,0-.8-.66,4.91,4.91,0,0,0-1.65-.2Z" fill="#0b1430"/><path d="M175,37.67l-.82.67a4.62,4.62,0,0,0-1.62-1.44,4.4,4.4,0,0,0-2.08-.49,4.31,4.31,0,0,0-2.29.64,4.47,4.47,0,0,0-1.64,1.73,5.09,5.09,0,0,0-.58,2.45,4.79,4.79,0,0,0,1.3,3.43A4.32,4.32,0,0,0,170.49,46a4.45,4.45,0,0,0,3.64-1.85l.82.68A5.37,5.37,0,0,1,173,46.51a5.67,5.67,0,0,1-2.59.58,5.2,5.2,0,0,1-4.29-2,6.27,6.27,0,0,1-1.31-4A5.82,5.82,0,0,1,166.42,37a5.29,5.29,0,0,1,4-1.68,5.57,5.57,0,0,1,2.62.62A5.33,5.33,0,0,1,175,37.67Z" fill="#0b1430"/><path d="M178,35.58h1.12v4.71h5.72V35.58H186V46.81h-1.12V41.39h-5.72v5.42H178Z" fill="#0b1430"/><rect x="107.44" y="54.11" width="15.11" height="1.08" fill="#0b1430"/></svg>