<svg id="レイヤー_1" data-name="レイヤー 1" xmlns="http://www.w3.org/2000/svg" viewBox="0 0 230 100"><rect width="230" height="100" fill="none"/><polygon points="165 65.74 163.6 65.74 163.6 43.51 115 22.28 66.4 43.51 66.4 65.74 65 65.74 65 42.6 115 20.76 165 42.6 165 65.74"/><path d="M112.48,33.82v9.31A3.4,3.4,0,0,1,109,46.69c-1.37,0-3.51-.77-3.51-4.26V33.82h1.32v9.31A2.17,2.17,0,0,0,109,45.58c1.61,0,2.17-1.19,2.17-2.61V33.82Z"/><path d="M117.6,33.82h3.27a3.34,3.34,0,0,1,3.44,3.58,3.78,3.78,0,0,1-2.24,3.49l3.4,5.55h-1.6l-3.07-5.26-1.89,0v5.22H117.6Zm2.56,6.28A2.52,2.52,0,0,0,123,37.33c0-1.69-.71-2.41-2.79-2.41h-1.3V40.1Z"/><path d="M84.46,51.69h1.3V64.31H84.44V54.7h0l-2.6,6.19L79.23,54.7l0,0v9.57H77.89V51.69h1.27L81.81,58Z"/><path d="M104.44,51.69h3.28a3.34,3.34,0,0,1,3.43,3.57,3.77,3.77,0,0,1-2.24,3.49l3.4,5.56h-1.6l-3.06-5.26-1.9,0v5.22h-1.31ZM107,58a2.52,2.52,0,0,0,2.84-2.77c0-1.68-.7-2.4-2.79-2.4h-1.3V58Z"/><path d="M118.86,57.25c.92-.11,3.07-2.3,4.3-5.72l1.3.68-1,1.74c-1.66,2.79-2.52,3.49-3.33,4l5.45,6.36h-1.75L119,58.37h-.11v5.94h-1.31V51.69h1.31Z"/><path d="M137.43,52.79h-5.25v4.49H136v1.1h-3.77v4.83h5.37v1.1h-6.68V51.69h6.56Z"/><path d="M152.11,52.79h-3.59V64.31h-1.31V52.79h-3.53v-1.1h8.43Z"/><path d="M90.52,64.31h1.42l1.12-3.72H96.9L98,64.31h1.42L95.28,51.57h-.61Zm2.86-4.82,1.6-5.1,1.61,5.1Z"/><path d="M66.91,71.74v2.53a.93.93,0,0,1-1,1c-.38,0-1-.21-1-1.16V71.74h.36v2.53a.59.59,0,0,0,.6.67c.43,0,.59-.32.59-.71V71.74Z"/><path d="M69,71.74h.9a.9.9,0,0,1,.93,1,1,1,0,0,1-.61,1l.93,1.52h-.44l-.83-1.44h-.52v1.43H69Zm.7,1.71a.68.68,0,0,0,.77-.76c0-.46-.19-.65-.76-.65h-.35v1.41Z"/><path d="M72.69,75.18V71.74h.72c.39,0,1.08,0,1.08.87a.82.82,0,0,1-.46.74.91.91,0,0,1,.61.89.93.93,0,0,1-1,.94ZM73,73.24h.42a.66.66,0,0,0,.67-.65c0-.57-.48-.55-.7-.55H73Zm.61,1.64a.59.59,0,0,0,.63-.62.7.7,0,0,0-.79-.72H73v1.34Z"/><path d="M80.37,71.74h.41l1,2.57h0V71.74h.36v3.47h-.34l-1.12-2.78h0v2.74h-.36Z"/><path d="M87.38,71.74h.89a.91.91,0,0,1,.94,1,1,1,0,0,1-.62,1l.93,1.52h-.43l-.84-1.44h-.52v1.43h-.35Zm.69,1.71a.69.69,0,0,0,.78-.76c0-.46-.19-.65-.76-.65h-.36v1.41Z"/><path d="M93,72H91.6v1.22h1v.3h-1v1.32h1.46v.3H91.24V71.74H93Z"/><path d="M96.58,72.36a1.17,1.17,0,0,0-.74-.39.53.53,0,0,0-.56.53c0,.18,0,.34.5.62l.27.17c.63.39.8.57.8,1a.93.93,0,0,1-1,1,1.27,1.27,0,0,1-1-.56l.28-.22a.9.9,0,0,0,.76.48.64.64,0,0,0,.66-.63c0-.28,0-.38-.63-.74l-.31-.19c-.34-.2-.64-.43-.64-.86a.85.85,0,0,1,.93-.85,1.44,1.44,0,0,1,1,.43Z"/><path d="M100.67,72H99.24v1.22h1v.3h-1v1.32h1.47v.3H98.89V71.74h1.78Z"/><path d="M106.5,71.74h.89a.91.91,0,0,1,.94,1,1,1,0,0,1-.62,1l.93,1.52h-.43l-.84-1.44h-.52v1.43h-.35Zm.69,1.71a.69.69,0,0,0,.78-.76c0-.46-.19-.65-.76-.65h-.36v1.41Z"/><path d="M111.75,72.48a.5.5,0,0,0-.5-.51c-.73,0-.78,1-.78,1.52s.06,1.45.74,1.45a.57.57,0,0,0,.58-.6h.36a.89.89,0,0,1-1,.9c-1,0-1.09-1-1.09-1.76s.16-1.81,1.13-1.81a.84.84,0,0,1,.87.81Z"/><path d="M114.35,73.24h1.2v-1.5h.36v3.44h-.36V73.54h-1.2v1.64H114V71.74h.35Z"/><path d="M121.88,71.67c1,0,1.06,1.15,1.06,1.79,0,.46,0,1.78-1.06,1.78s-1-1.3-1-1.78C120.83,72,121.3,71.67,121.88,71.67Zm.7,1.79c0-.32,0-1.49-.7-1.49s-.7,1.29-.7,1.49c0,.39,0,1.48.7,1.48C122.24,74.94,122.58,74.7,122.58,73.46Z"/><path d="M124.82,71.74h.42l1,2.57h0V71.74h.36v3.47h-.34l-1.13-2.78h0v2.74h-.36Z"/><path d="M129.2,74.88h1.49v.3h-1.85V71.74h.36Z"/><path d="M134,72h-.47v2.84H134v.3h-1.29v-.3h.46V72h-.46v-.3H134Z"/><path d="M136.3,71.74h.41l1,2.57h0V71.74h.36v3.47h-.34l-1.13-2.78h0v2.74h-.35Z"/><path d="M142,72h-1.43v1.22h1v.3h-1v1.32h1.46v.3h-1.82V71.74H142Z"/><path d="M149.4,72.36a1.17,1.17,0,0,0-.74-.39.53.53,0,0,0-.56.53c0,.18,0,.34.5.62l.27.17c.63.39.8.57.8,1a.93.93,0,0,1-1,1,1.27,1.27,0,0,1-1-.56l.28-.22a.9.9,0,0,0,.76.48.64.64,0,0,0,.66-.63c0-.28,0-.38-.63-.74l-.31-.19c-.34-.2-.64-.43-.64-.86a.85.85,0,0,1,.93-.85,1.44,1.44,0,0,1,1,.43Z"/><path d="M153.63,72h-1v3.14h-.36V72h-1v-.3h2.3Z"/><path d="M156.3,71.67c1,0,1.06,1.15,1.06,1.79,0,.46,0,1.78-1.06,1.78s-1.06-1.3-1.06-1.78C155.24,72,155.72,71.67,156.3,71.67Zm.7,1.79c0-.32.05-1.49-.7-1.49s-.7,1.29-.7,1.49c0,.39,0,1.48.7,1.48C156.66,74.94,157,74.7,157,73.46Z"/><path d="M159.32,71.74h.89a.91.91,0,0,1,.94,1,1,1,0,0,1-.61,1l.92,1.52H161l-.84-1.44h-.51v1.43h-.36Zm.7,1.71a.69.69,0,0,0,.77-.76c0-.46-.19-.65-.76-.65h-.35v1.41Z"/><path d="M165,72h-1.43v1.22h1v.3h-1v1.32H165v.3h-1.82V71.74H165Z"/><path d="M76.22,75.18h.39l.3-1h1l.3,1h.39l-1.13-3.47h-.17ZM77,73.86l.43-1.39.44,1.39Z"/><path d="M102.27,75.18h.39l.3-1H104l.31,1h.38l-1.13-3.47h-.17Zm.78-1.32.43-1.39.44,1.39Z"/></svg>