<svg id="レイヤー_1" data-name="レイヤー 1" xmlns="http://www.w3.org/2000/svg" width="230" height="100" viewBox="0 0 230 100">
<title>sp_musve</title>
<path d="M58,50.8c0,1.5,0,2.9,0,4.4c0,0.5,0.2,1,0.6,1.3c0.1,0.1,0.3,0.2,0.4,0.2c0.1,0.1,0.3,0.1,0.4,0.2c0.2,0.2,0.5,0.3,0.4,0.5
	c-0.1,0.3-0.4,0.5-0.7,0.4c-0.4,0-0.9,0.1-1.3-0.1c-0.1,0-0.2,0-0.3,0c-0.7,0-1.4,0-2,0c-0.2,0-0.4,0.1-0.6,0.1s-0.5,0-0.7,0
	c-0.3,0-0.5,0-0.8-0.1c-0.2,0-0.3-0.2-0.3-0.3c0-0.2,0-0.3,0.2-0.4c0.2-0.1,0.4-0.1,0.5-0.1c0.4-0.2,0.7-0.4,0.9-0.7
	c0.1-0.1,0.1-0.2,0.2-0.3c0-0.3,0.2-0.5,0.2-0.8c0-0.2,0-0.4,0-0.6v-8.5c0-0.7-0.3-1.3-0.7-1.7c-0.1-0.1-0.2-0.2-0.3-0.3
	c-0.2-0.2-0.2-0.6,0-0.8c0.1-0.1,0.1-0.1,0.2-0.1c0.6-0.3,1.2-0.6,1.9-0.9c0.2-0.1,0.4-0.2,0.6-0.3c0.6-0.3,0.9-0.2,1.1,0.5
	c0,0.1,0.1,0.2,0.1,0.3c0.1,0.5,0.5,0.8,1,0.8c0.1,0,0.2,0,0.3-0.1c0.5-0.2,0.9-0.5,1.4-0.8c0.5-0.2,1.1-0.4,1.7-0.6
	c0.7-0.2,1.4-0.2,2.1-0.1c0.8,0.1,1.5,0.4,2.1,0.9c0.3,0.3,0.7,0.6,1,0.9c0.4,0.3,1,0.4,1.4,0.2c0.6-0.3,1.2-0.6,1.8-1
	c0.5-0.3,1.1-0.5,1.7-0.7c0.4-0.1,0.7-0.2,1.1-0.3c0.4,0,0.8,0,1.1,0c1,0,2,0.4,2.7,1.1c0.6,0.5,1,1.2,1.3,2
	c0.1,0.3,0.2,0.6,0.2,0.9c0.1,1.5,0.2,3,0.1,4.5c0,1.5,0,3,0,4.5c-0.1,0.9,0.5,1.7,1.4,1.9c0,0,0,0,0,0c0.3,0.1,0.4,0.3,0.6,0.5
	c0.1,0.1-0.1,0.4-0.2,0.4c-0.2,0.1-0.4,0.1-0.6,0.1c-0.5,0-0.9,0-1.4-0.1c-0.5-0.1-0.9-0.1-1.4,0c-0.7,0-1.4,0.1-2.1,0.1
	c-0.3,0-0.5-0.1-0.8-0.1c-0.2,0-0.3-0.2-0.3-0.3c0-0.2,0.1-0.3,0.2-0.4c0.2-0.1,0.5-0.2,0.7-0.3c0.5-0.3,0.9-0.8,0.9-1.4
	c0-0.5,0-1.1,0-1.6c0-2.3,0-4.5,0-6.8c0-0.8-0.3-1.7-0.9-2.3c-0.4-0.5-0.9-0.8-1.5-0.9c-0.2,0-0.3-0.1-0.5-0.1c-0.6,0-1.2,0-1.8,0
	c-0.5,0-0.9,0.2-1.3,0.4c-0.5,0.3-1,0.8-1.3,1.3c-0.2,0.3-0.3,0.6-0.3,1c0,3,0,5.9,0,8.9c0,0.3,0.1,0.7,0.3,0.9
	c0.2,0.3,0.6,0.5,0.9,0.6c0.1,0,0.2,0,0.2,0c0.1,0.2,0.5,0.3,0.4,0.5c-0.1,0.3-0.3,0.4-0.6,0.4c-0.5,0.1-1,0.1-1.5-0.1
	c-0.1,0-0.3,0-0.4,0c-0.6,0-1.2,0-1.8,0c-0.4,0-0.9,0.1-1.3,0.1c-0.3,0-0.5,0-0.8-0.1c-0.2-0.1-0.3-0.3-0.3-0.5
	c0-0.1,0.1-0.1,0.1-0.2c0.1-0.2,0.3-0.3,0.6-0.3c0.1,0,0.2-0.1,0.3-0.2c0.5-0.3,0.8-0.9,0.8-1.4c0-2.8,0-5.6,0-8.4
	c0-0.8-0.3-1.6-0.9-2.2c-0.6-0.6-1.4-1-2.2-1c-0.4,0-0.8,0-1.1,0c-0.5,0-1,0.1-1.4,0.3c-0.5,0.2-1,0.6-1.3,1.1
	c-0.3,0.5-0.5,1.1-0.5,1.6C58,48,58,49.4,58,50.8"/>
<path d="M105.2,48.7c0,1.9,0,3.8,0,5.7c0,0.4,0.1,0.9,0.4,1.2c0.3,0.4,0.8,0.7,1.3,0.6c0.3-0.1,0.5,0,0.7,0.3c0,0.1,0.1,0.2,0.1,0.3
	c-0.2,0.2-0.3,0.4-0.6,0.5c-1.2,0.2-2.3,0.5-3.5,0.9c-0.7,0.3-1,0-1.3-0.7c0-0.1-0.1-0.2-0.1-0.3c-0.2-0.5-0.7-0.7-1.2-0.5
	c0,0-0.1,0-0.1,0.1c-0.2,0.1-0.4,0.3-0.7,0.4c-0.7,0.3-1.4,0.6-2.1,0.8c-0.7,0.2-1.5,0.3-2.3,0.2c-0.6,0-1.2-0.2-1.7-0.4
	c-0.7-0.3-1.3-0.8-1.7-1.4c-0.2-0.4-0.4-0.9-0.5-1.3c-0.2-0.8-0.3-1.7-0.3-2.6c0-2.4,0-4.8,0-7.1c0-0.6-0.2-1.2-0.7-1.7
	c-0.1-0.1-0.3-0.3-0.4-0.4c-0.2-0.2-0.2-0.4-0.2-0.6c0,0,0.1-0.1,0.1-0.1c0.3-0.2,0.6-0.3,0.9-0.3c0.3,0.1,0.6,0,0.9-0.1
	c0.2-0.1,0.5,0,0.8-0.1c0.3-0.1,0.6-0.1,0.9,0c0.2,0,0.4,0.2,0.4,0.4c0.1,0.3,0.1,0.5,0.1,0.8c0,3.3,0,6.5,0,9.8
	c0,0.9,0.3,1.8,0.8,2.5c0.3,0.4,0.8,0.7,1.2,0.8c0.6,0.2,1.2,0.3,1.9,0.3c0.9-0.1,1.8-0.4,2.6-0.9c0.5-0.3,0.8-0.8,1-1.4
	c0.1-0.3,0.1-0.6,0.1-0.9c0-2.7,0-5.3,0-8c0-0.8-0.4-1.5-1-1.9c-0.1-0.1-0.3-0.2-0.4-0.3c-0.4-0.3-0.4-0.7,0.1-0.9
	c0.2-0.1,0.4-0.1,0.6-0.1c0.2,0,0.3,0,0.5,0c0.3,0,0.5,0,0.8-0.1c0.2-0.1,0.5,0,0.7-0.1c0.4-0.1,0.7-0.1,1.1,0
	c0.2,0,0.5,0.4,0.5,0.7c0,0.1,0,0.3,0,0.4L105.2,48.7z"/>
<path d="M171.4,47.7h-3.8c-0.4,0-0.8,0.1-1,0.4c-0.2,0.2-0.1,0.4-0.3,0.6c0,0.6,0,1.2,0,1.8c0.1,0.5,0.2,1,0.4,1.4
	c0.2,0.5,0.4,1.1,0.8,1.5c0.6,0.9,1.5,1.7,2.5,2.2c0.6,0.3,1.3,0.5,2,0.5c0.5,0,0.9,0,1.4,0c0.8,0,1.6-0.3,2.3-0.9
	c0.1-0.1,0.3-0.3,0.4-0.3c0.1,0,0.2-0.2,0.4-0.1c0.1,0.1,0.1,0.3,0.1,0.4c0,0.2-0.1,0.3-0.2,0.4c-0.5,0.5-1,1-1.6,1.4
	c-0.7,0.4-1.4,0.7-2.1,0.9c-0.7,0.2-1.3,0.2-2,0.2c-0.7,0-1.4-0.2-2-0.4c-0.6-0.2-1.3-0.5-1.8-0.9c-0.4-0.2-0.7-0.5-1-0.8
	c-0.3-0.3-0.6-0.7-0.9-1.1c-0.4-0.6-0.6-1.2-0.8-1.8c-0.1-0.5-0.3-1.1-0.4-1.6c-0.1-0.5-0.1-0.9-0.1-1.4c0-0.3,0.1-0.5,0.1-0.8
	c0-0.2-0.1-0.5,0.1-0.7c0.1-0.7,0.2-1.3,0.5-1.9c0.2-0.5,0.4-1,0.7-1.4c0.3-0.5,0.7-1,1.1-1.4c0.7-0.7,1.6-1.2,2.5-1.6
	c1.1-0.5,2.4-0.7,3.6-0.6c0.5,0.1,1,0.2,1.4,0.4c0.4,0.2,0.8,0.4,1.2,0.6c0.2,0.1,0.3,0.2,0.4,0.3c0.2,0.2,0.5,0.4,0.7,0.7
	c0.2,0.2,0.4,0.5,0.5,0.8c0.3,0.6,0.5,1.3,0.5,2c-0.1,0.5-0.5,0.8-0.9,1c-0.4,0.1-0.8,0.1-1.2,0.1C173.8,47.6,172.6,47.7,171.4,47.7
	 M170,46.5h1c0.3,0,0.6,0,1,0c0.3,0,0.6-0.1,0.9-0.1c0.3,0,0.7-0.1,0.9-0.4c0.3-0.3,0.4-0.7,0.3-1.1c-0.1-0.4-0.2-0.8-0.5-1.1
	c-0.5-0.5-1.2-0.9-1.9-0.9c-0.8-0.1-1.5,0-2.3,0.3c-0.4,0.2-0.7,0.3-1,0.6c-0.4,0.2-0.7,0.5-1,0.9c-0.2,0.2-0.4,0.5-0.4,0.8
	c0,0.2-0.1,0.5,0,0.6c0.2,0.3,0.6,0.6,1,0.6C168.6,46.5,169.3,46.5,170,46.5"/>
<path d="M140.8,42.2c0.8,0,1.5,0,2.3,0c0.2,0,0.4,0.1,0.6,0.2c0.4,0.3,0.3,0.3,0,0.6c-0.2,0.2-0.3,0.5-0.6,0.5
	c-0.3,0.4-0.4,0.8-0.3,1.3c0.5,1.3,0.9,2.6,1.4,3.9c0.3,0.7,0.6,1.4,0.8,2.2c0.2,0.4,0.4,0.9,0.6,1.3c0.1,0.1,0.1,0.2,0.2,0.3
	c0.2,0.3,0.5,0.3,0.8,0.3c0.3,0,0.5-0.2,0.6-0.5c0.3-0.7,0.6-1.3,0.8-1.9c0.3-0.7,0.5-1.4,0.8-2.1c0.5-1.1,0.9-2.2,1.2-3.3
	c0.1-0.3,0-0.6-0.1-0.9c-0.1-0.3-0.3-0.5-0.5-0.6c-0.1,0-0.1-0.1-0.2-0.2c-0.4-0.3-0.4-0.4-0.1-0.7c0.2-0.1,0.4-0.2,0.6-0.2
	c1.1,0,2.3,0,3.4,0c0.2,0,0.3,0.1,0.5,0.1c0.5,0.3,0.5,0.4,0.1,0.7c-0.1,0.1-0.3,0.2-0.4,0.3c-0.7,0.3-1.3,0.9-1.6,1.6
	c-0.3,0.5-0.5,0.9-0.8,1.4c-0.3,0.7-0.6,1.3-0.9,2c-0.2,0.5-0.4,1-0.6,1.5c-0.2,0.4-0.4,0.8-0.5,1.2s-0.5,0.7-0.5,1.2
	c-0.3,0.6-0.6,1.2-0.8,1.8c-0.4,1-0.9,2-1.3,3.1c-0.1,0.2-0.2,0.4-0.3,0.5c-0.5,0.5-0.7,0.5-1.1-0.1c-0.2-0.3-0.3-0.6-0.4-0.9
	c-0.2-0.7-0.5-1.4-0.8-2.1c-0.2-0.6-0.5-1.1-0.6-1.6c-0.1-0.3-0.3-0.6-0.4-1c-0.3-0.9-0.8-1.9-1.1-2.8c-0.3-0.7-0.5-1.3-0.8-2
	c-0.2-0.5-0.4-1.1-0.7-1.6c-0.2-0.5-0.5-1-0.8-1.5c-0.3-0.3-0.6-0.5-1-0.7c-0.2-0.1-0.4-0.2-0.5-0.3c-0.2-0.1-0.2-0.3-0.2-0.5
	c0-0.2,0.2-0.2,0.4-0.3c0.2-0.1,0.4-0.1,0.7-0.1C139.4,42.2,140.1,42.2,140.8,42.2"/>
<path d="M122.2,58.2c-0.7,0.1-1.5,0-2.2-0.3c-0.5-0.1-1.1-0.4-1.5-0.7c-0.3-0.3-0.5-0.7-0.6-1.1c-0.1-0.3-0.1-0.7-0.2-1
	c-0.1-0.3-0.1-0.6-0.1-0.8c0-0.2,0.1-0.4,0.1-0.5c0.1-0.2,0.3-0.3,0.6-0.2c0,0,0.1,0.1,0.1,0.1c0.1,0.1,0.2,0.2,0.2,0.3
	c0.1,0.3,0.3,0.5,0.4,0.8c0.5,1,1.2,1.8,2.2,2.2c0.2,0.1,0.5,0.2,0.7,0.2c1,0.2,2-0.1,2.8-0.8c0.3-0.3,0.5-0.7,0.5-1.1
	c0.1-0.6,0.1-1.2-0.1-1.7c-0.3-0.7-0.8-1.3-1.4-1.7c-0.8-0.6-1.6-1.1-2.5-1.5c-0.2-0.1-0.3-0.3-0.4-0.4c-1.1-0.7-1.9-1.7-2.2-2.9
	c-0.1-0.2-0.1-0.4-0.1-0.5c0-0.2,0-0.5,0-0.7c0.1-1.2,0.7-2.2,1.6-2.9c0.6-0.4,1.3-0.8,2-1c0.3-0.1,0.7-0.1,1-0.2
	c0.2,0,0.4,0.1,0.5-0.1c0,0,0.2,0,0.2,0c0.4,0.2,0.8,0,1.2,0.1s0.7,0.1,1,0.2c0.6,0.2,1.1,0.6,1.3,1.2c0.1,0.5,0.2,0.9,0.3,1.4
	c0,0.1,0,0.3-0.1,0.4c-0.2,0.3-0.4,0.4-0.6,0.2c-0.3-0.3-0.6-0.6-0.8-0.9c-0.2-0.3-0.5-0.6-0.9-0.8c-0.3-0.2-0.7-0.4-1.1-0.5
	c-0.7-0.2-1.5-0.1-2.1,0.1c0,0-0.1,0-0.1,0c-0.7,0.5-1,1.2-1.1,2c0,1,0.5,1.9,1.3,2.5c0.7,0.6,1.6,1,2.4,1.5
	c0.7,0.4,1.3,0.9,1.9,1.4c0.2,0.3,0.5,0.6,0.7,0.9c0.2,0.4,0.5,0.9,0.6,1.4c0.1,0.2,0.1,0.4,0,0.6c0,0.2,0.3,0.3,0,0.5
	c-0.1,0.1,0,0.4,0,0.6c0,0.2-0.1,0.4-0.1,0.6c-0.1,0.2-0.1,0.3-0.2,0.5c-0.1,0.2-0.2,0.4-0.3,0.5c-0.4,0.5-0.9,0.9-1.4,1.2
	c-0.7,0.4-1.5,0.6-2.2,0.8C123.2,58.2,122.7,58.2,122.2,58.2"/>
</svg>
