<svg id="レイヤー_1" data-name="レイヤー 1" xmlns="http://www.w3.org/2000/svg" width="230" height="100" viewBox="0 0 230 100"><title>sp_rosso</title><path d="M65,32.177h6.7a9.751,9.751,0,0,1,4.447.881,4.3,4.3,0,0,1,2.451,4.13,4.736,4.736,0,0,1-1.111,3.236,7.6,7.6,0,0,1-3.558,2.028,4.228,4.228,0,0,1,1.312.709,5.378,5.378,0,0,1,1.439,2.307l2.557,6.966-2.264-.012-1.35-4.236A10.156,10.156,0,0,0,73.4,44.015a4.958,4.958,0,0,0-3.336-.936H67.053v9.339H65Zm7.071,1.783H67.053V41.5h3.1a11.975,11.975,0,0,0,3.127-.353,4.57,4.57,0,0,0,2.068-1.135,3.721,3.721,0,0,0,.907-1.2,3.306,3.306,0,0,0,.354-1.475,2.891,2.891,0,0,0-1.16-2.344A5.171,5.171,0,0,0,72.071,33.96Z" fill="#231815"/><path d="M93.4,52.77a8.338,8.338,0,0,1-6.161-2.726,10.589,10.589,0,0,1-2.9-7.676,10.993,10.993,0,0,1,2.727-7.6,8.231,8.231,0,0,1,12.549-.05,10.91,10.91,0,0,1,2.727,7.624,10.584,10.584,0,0,1-2.955,7.751A8.169,8.169,0,0,1,93.4,52.77Zm-.177-1.884a6.169,6.169,0,0,0,4.9-2.437,9.226,9.226,0,0,0,2.028-6.1,9.576,9.576,0,0,0-1.953-6.1,5.972,5.972,0,0,0-9.711.012A9.633,9.633,0,0,0,86.519,42.4a9.245,9.245,0,0,0,2.066,6.214A5.9,5.9,0,0,0,93.22,50.886Z" fill="#231815"/><path d="M119.913,33.607v2.6a11.689,11.689,0,0,0-2.718-1.742,7.512,7.512,0,0,0-3.12-.707,5.389,5.389,0,0,0-3.348,1.01,2.991,2.991,0,0,0-1.334,2.45q0,2.044,3.045,3.1,2.818.934,5.663,1.843a4.708,4.708,0,0,1,3.07,4.419,5.518,5.518,0,0,1-2.184,4.569,8.116,8.116,0,0,1-5.171,1.616,10.269,10.269,0,0,1-3.941-.783,15.929,15.929,0,0,1-2.635-1.467V47.891a12.063,12.063,0,0,0,4.014,2.513,7.723,7.723,0,0,0,2.585.482,5.782,5.782,0,0,0,3.487-1.036,3.523,3.523,0,0,0,1.556-2.98q0-2.248-3-3.385-2.824-.909-5.621-1.819a4.533,4.533,0,0,1-3.023-4.294,4.9,4.9,0,0,1,1.927-3.966,7.522,7.522,0,0,1,4.9-1.566,10.247,10.247,0,0,1,3.6.657A14.123,14.123,0,0,1,119.913,33.607Z" fill="#231815"/><path d="M139.775,33.607v2.6a11.689,11.689,0,0,0-2.718-1.742,7.509,7.509,0,0,0-3.121-.707,5.388,5.388,0,0,0-3.347,1.01,2.994,2.994,0,0,0-1.334,2.45q0,2.044,3.045,3.1,2.818.934,5.663,1.843a4.707,4.707,0,0,1,3.069,4.419,5.52,5.52,0,0,1-2.183,4.569,8.116,8.116,0,0,1-5.171,1.616,10.266,10.266,0,0,1-3.941-.783A15.934,15.934,0,0,1,127.1,50.52V47.891a12.07,12.07,0,0,0,4.016,2.513,7.707,7.707,0,0,0,2.583.482,5.788,5.788,0,0,0,3.489-1.036,3.528,3.528,0,0,0,1.556-2.98q0-2.248-3-3.385-2.823-.909-5.62-1.819a4.534,4.534,0,0,1-3.025-4.294,4.9,4.9,0,0,1,1.928-3.966,7.522,7.522,0,0,1,4.9-1.566,10.247,10.247,0,0,1,3.6.657A14.123,14.123,0,0,1,139.775,33.607Z" fill="#231815"/><path d="M156.062,52.77a8.338,8.338,0,0,1-6.161-2.726,10.589,10.589,0,0,1-2.9-7.676,10.988,10.988,0,0,1,2.727-7.6,8.231,8.231,0,0,1,12.549-.05A10.91,10.91,0,0,1,165,42.343a10.588,10.588,0,0,1-2.954,7.751A8.173,8.173,0,0,1,156.062,52.77Zm-.177-1.884a6.171,6.171,0,0,0,4.9-2.437,9.226,9.226,0,0,0,2.028-6.1,9.576,9.576,0,0,0-1.953-6.1,5.971,5.971,0,0,0-9.71.012,9.627,9.627,0,0,0-1.966,6.139,9.245,9.245,0,0,0,2.066,6.214A5.9,5.9,0,0,0,155.885,50.886Z" fill="#231815"/><path d="M65,60.9h.712v4.627a1.787,1.787,0,0,0,.675,1.485,2.413,2.413,0,0,0,1.538.481,2.229,2.229,0,0,0,1.439-.471,1.817,1.817,0,0,0,.676-1.5V60.9H70.8v4.536a2.533,2.533,0,0,1-.889,2.021,2.889,2.889,0,0,1-1.957.7,3.132,3.132,0,0,1-2.108-.682A2.517,2.517,0,0,1,65,65.465Z" fill="#231815"/><path d="M72.992,60.9h2.357a3.425,3.425,0,0,1,1.565.311,1.521,1.521,0,0,1,.863,1.46,1.681,1.681,0,0,1-.392,1.144,2.673,2.673,0,0,1-1.255.716,1.492,1.492,0,0,1,.463.249,1.875,1.875,0,0,1,.507.81l.912,2.457-.8,0-.472-1.5a3.576,3.576,0,0,0-.785-1.467,1.765,1.765,0,0,0-1.178-.328H73.714v3.293h-.722Zm2.491.636H73.714v2.657h1.094a4.17,4.17,0,0,0,1.1-.125,1.612,1.612,0,0,0,.729-.4,1.328,1.328,0,0,0,.32-.423,1.163,1.163,0,0,0,.125-.519,1.02,1.02,0,0,0-.409-.827A1.824,1.824,0,0,0,75.483,61.536Z" fill="#231815"/><path d="M80.143,60.9H82.6a2.511,2.511,0,0,1,1.451.374,1.463,1.463,0,0,1,.631,1.284,1.615,1.615,0,0,1-.445,1.168,2.4,2.4,0,0,1-.738.491,1.991,1.991,0,0,1,1.363.738,1.655,1.655,0,0,1,.314.994,1.913,1.913,0,0,1-.677,1.5,2.346,2.346,0,0,1-1.6.6H80.143Zm2.4.636H80.864v2.448h1.36a1.89,1.89,0,0,0,1.248-.369,1.185,1.185,0,0,0,.439-.949,1.039,1.039,0,0,0-.311-.783A1.453,1.453,0,0,0,82.543,61.536Zm-.118,3.084H80.864v2.79H82.6a2.008,2.008,0,0,0,1.284-.393,1.271,1.271,0,0,0,.5-1.049,1.139,1.139,0,0,0-.509-1A2.573,2.573,0,0,0,82.425,64.62Z" fill="#231815"/><path d="M89.135,60.9h.7l2.66,7.147h-.84l-.848-2.44H88.1l-.911,2.436-.784,0Zm1.47,4.071L89.5,61.756l-1.188,3.215Z" fill="#231815"/><path d="M94.658,68.047V60.9h.655l4.395,6.055V60.9h.655v7.147h-.658L95.313,62v6.05Z" fill="#231815"/><path d="M109.982,60.9h2.356a3.432,3.432,0,0,1,1.566.311,1.521,1.521,0,0,1,.861,1.46,1.681,1.681,0,0,1-.391,1.144,2.675,2.675,0,0,1-1.254.716,1.5,1.5,0,0,1,.463.249,1.883,1.883,0,0,1,.506.81L115,68.047l-.8,0-.472-1.5a3.564,3.564,0,0,0-.785-1.467,1.761,1.761,0,0,0-1.178-.328H110.7v3.293h-.722Zm2.49.636H110.7v2.657H111.8a4.165,4.165,0,0,0,1.1-.125,1.607,1.607,0,0,0,.729-.4,1.331,1.331,0,0,0,.321-.423,1.175,1.175,0,0,0,.124-.519,1.016,1.016,0,0,0-.41-.827A1.818,1.818,0,0,0,112.472,61.536Z" fill="#231815"/><path d="M116.962,60.89h4.44v.637h-3.719v2.457h3.585v.636h-3.585v2.79h3.745v.637h-4.466Z" fill="#231815"/><path d="M127.759,61.407v.916a4.108,4.108,0,0,0-.96-.615,2.665,2.665,0,0,0-1.1-.247,1.908,1.908,0,0,0-1.182.355,1.05,1.05,0,0,0-.47.862q0,.72,1.074,1.1.994.328,2,.65A1.659,1.659,0,0,1,128.2,65.98a1.941,1.941,0,0,1-.771,1.61,2.859,2.859,0,0,1-1.824.57,3.651,3.651,0,0,1-1.391-.275,5.551,5.551,0,0,1-.929-.517v-.926a4.263,4.263,0,0,0,1.416.885,2.729,2.729,0,0,0,.913.168,2.052,2.052,0,0,0,1.231-.364,1.241,1.241,0,0,0,.549-1.051q0-.79-1.058-1.192-1-.32-1.984-.64a1.6,1.6,0,0,1-1.067-1.513,1.725,1.725,0,0,1,.679-1.4,2.667,2.667,0,0,1,1.73-.551,3.655,3.655,0,0,1,1.272.23A5.012,5.012,0,0,1,127.759,61.407Z" fill="#231815"/><path d="M130.469,60.89h4.439v.637H131.19v2.457h3.585v.636H131.19v2.79h3.746v.637h-4.467Z" fill="#231815"/><path d="M139.1,60.9h.7l2.659,7.147h-.84l-.847-2.44h-2.712l-.912,2.436-.784,0Zm1.469,4.071-1.105-3.215-1.189,3.215Z" fill="#231815"/><path d="M144.5,60.9h2.356a3.425,3.425,0,0,1,1.565.311,1.52,1.52,0,0,1,.862,1.46,1.685,1.685,0,0,1-.39,1.144,2.684,2.684,0,0,1-1.255.716,1.509,1.509,0,0,1,.462.249,1.875,1.875,0,0,1,.507.81l.911,2.457-.8,0-.472-1.5a3.576,3.576,0,0,0-.785-1.467,1.767,1.767,0,0,0-1.178-.328H145.22v3.293H144.5Zm2.49.636H145.22v2.657h1.093a4.17,4.17,0,0,0,1.1-.125,1.607,1.607,0,0,0,.729-.4,1.346,1.346,0,0,0,.321-.423,1.175,1.175,0,0,0,.124-.519,1.018,1.018,0,0,0-.41-.827A1.82,1.82,0,0,0,146.988,61.536Z" fill="#231815"/><path d="M156.807,61.469v.916a3.536,3.536,0,0,0-.774-.56,2.866,2.866,0,0,0-1.379-.364,2.313,2.313,0,0,0-1.832.9,3.173,3.173,0,0,0-.756,2.109,3.109,3.109,0,0,0,.765,2.11,2.354,2.354,0,0,0,1.841.88,2.952,2.952,0,0,0,1.045-.2,4.322,4.322,0,0,0,1.09-.631v.888a5.764,5.764,0,0,1-1.163.489,3.788,3.788,0,0,1-1.054.16,3.072,3.072,0,0,1-2.252-.986,3.675,3.675,0,0,1-1.04-2.67,3.8,3.8,0,0,1,.969-2.637,3.127,3.127,0,0,1,2.43-1.081,3.457,3.457,0,0,1,1.086.173A4.115,4.115,0,0,1,156.807,61.469Z" fill="#231815"/><path d="M158.666,60.9h.712v3.114H163.3V60.9h.713v7.147H163.3V64.621h-3.919v3.426h-.712Z" fill="#231815"/></svg>