<svg id="レイヤー_1" data-name="レイヤー 1" xmlns="http://www.w3.org/2000/svg" width="230" height="100" viewBox="0 0 230 100"><title>sp_sko</title><path d="M50,40.01a5.588,5.588,0,0,1,1.493.187l.934-.014a1.274,1.274,0,0,1,.417-.015,2.087,2.087,0,0,1,.33.058c.1.041.165.14.273.172s.272-.022.4.014c.094.027.162.115.259.144l.287.029c.132.055.137.228.244.3s.358.021.474.1c.083.057.1.185.2.23l.33.057c.137.087.16.308.287.4s.311.075.431.158.095.286.2.359c.087.061.18.018.3.058s.156.192.259.258c.08.052.211.033.287.087.059.042.075.137.115.2.076.081.153.162.229.244a6.836,6.836,0,0,1,.7.56c.115.113.163.331.331.388a1.627,1.627,0,0,0,.445.014,5.435,5.435,0,0,0,1.034-.014c.142-.042.24-.148.388-.187.185-.049.408.007.56-.072.088-.046.136-.156.244-.186s.244.016.345-.015.172-.116.272-.143c.207-.058.455.035.632-.043a1.208,1.208,0,0,0,.2-.158,1.441,1.441,0,0,1,1.049-.446c.071.1.165.181.23.287a2.315,2.315,0,0,1,.086.274,2.113,2.113,0,0,0,.158.273c.062.1.2.129.244.244.014.091.029.181.043.273l.2.66a5.865,5.865,0,0,1,.172.618.409.409,0,0,1-.014.2c-.084.225-.513.143-.761.215-.136.04-.166.162-.273.216l-.287.043a1.587,1.587,0,0,0-.23.244,2.493,2.493,0,0,0-1.063.273c-.237.1-.487.178-.732.258-.263.086-.643.044-.776.259s.052.567.115.79l.058.373c.048.148.2.178.244.316v.2l.057.675c.116.508.113,1.059.23,1.58.009.239.019.479.029.718.032.137.082.286.115.417.045.183-.1.293-.13.43v.862c-.037.133-.146.192-.215.287s-.049.216-.1.331c-.038.083-.148.127-.186.215-.092.211.034.54-.029.79-.056.222-.235.327-.244.589.028.033.034.061.072.086a4.921,4.921,0,0,0,.79.172,4.194,4.194,0,0,1,1.105.518,2.432,2.432,0,0,1,.8.919.772.772,0,0,1,.129.474,1.294,1.294,0,0,1-.3.473.72.72,0,0,0-.229.2c-.058.172-.115.344-.173.517a3.848,3.848,0,0,1-.675,1.206,1.462,1.462,0,0,1-.46.014,1.043,1.043,0,0,1-.315-.214c-.136-.1-.28-.189-.417-.274-.476-.3-.983-.525-1.494-.79-.211-.11-.448-.222-.674-.316-.087-.035-.239-.078-.317-.029-.144.048-.277.346-.416.446-.267.19-.627.267-.891.46-.214.155-.322.522-.517.66-.094.067-.262.049-.359.115-.081.056-.1.187-.2.23s-.262,0-.359.043-.12.174-.2.23-.262.018-.388.057-.171.144-.272.187c-.139.058-.363,0-.5.057s-.173.231-.316.273h-.244a2.485,2.485,0,0,0-.69.043c-.534.175-1.05.384-1.622.517a2.142,2.142,0,0,1-.747-.028H50.8a.42.42,0,0,0-.158-.015,4.827,4.827,0,0,1-1.077.1h-.417c-.121-.034-.2-.125-.344-.158h-.963c-.114-.033-.194-.113-.33-.144h-.646c-.119-.034-.169-.156-.273-.2-.154-.068-.353.006-.546-.043-.125-.032-.2-.146-.316-.173-.072-.016-.162.029-.258.029-.094-.139-.207-.159-.374-.23a5.842,5.842,0,0,0-.661-.359c-.207-.058-.557.05-.718-.057l-.272-.316c-.1-.066-.236-.076-.3-.172-.113-.168-.084-.379-.345-.4a1.721,1.721,0,0,1-.545.215l-.46.044c-.116.043-.153.179-.273.214h-.215l-.747.087c-.252.065-.507.1-.747.186-.162.055-.327.143-.5.187s-.417-.037-.588.014l-.245.13c-.133.037-.3-.023-.416.014-.1.031-.173.116-.273.144-.182.051-.406-.035-.575.014a8.7,8.7,0,0,0-.861.359,13.286,13.286,0,0,1-1.724.46c-.153.039-.286.02-.445.057a10.079,10.079,0,0,1-2.111.1H29.132c-.1-.029-.173-.113-.273-.144s-.243.019-.36-.014c-.081-.043-.162-.087-.244-.129-.165-.05-.394.037-.574-.015-.134-.038-.192-.175-.33-.215-.194-.057-.454.017-.618-.058-.118-.053-.155-.213-.287-.258-.116-.04-.274.008-.374-.044-.141-.072-.218-.236-.373-.3-.138-.058-.35-.013-.488-.072s-.148-.225-.259-.3-.307-.055-.416-.13a1,1,0,0,1-.216-.229c-.052-.049-.105-.1-.158-.144a1.856,1.856,0,0,0-.775-.646c-.235-.084-.475.188-.646.258a4.241,4.241,0,0,0-.877.3c-.134.1-.175.281-.273.416a2,2,0,0,1-.588.4c-.163.1-.711.265-.79.388l-.072.259a1.43,1.43,0,0,1-.69.043c-.18-.275-.44-.46-.632-.719a7.975,7.975,0,0,0-.761-.976.715.715,0,0,0-.215-.143c-.183-.07-.39-.006-.446-.2a1.184,1.184,0,0,1,.058-.589c.047-.058.138-.085.2-.129a2.8,2.8,0,0,0,.445-.417,3.613,3.613,0,0,1,1.307-1.263c.168-.073.454-.072.589-.187.072-.061.063-.2.144-.258.2-.14.472-.053.474-.4a4.991,4.991,0,0,1-.474-1.522c-.014-.129-.029-.258-.043-.388a.9.9,0,0,0-.072-.259c-.05-.073-.155-.105-.187-.2V49.705c.033-.11.152-.139.2-.23A1.139,1.139,0,0,0,20.1,49.2a1.948,1.948,0,0,0,.086-.646c-.026-.019-.033-.055-.057-.072a.882.882,0,0,0-.245-.072,1.768,1.768,0,0,1-.359-.157,4.334,4.334,0,0,0-.589-.374c-.128-.054-.342-.048-.459-.115-.1-.055-.083-.2-.144-.287l-.258-.216a2.221,2.221,0,0,0-.158-.258c-.066-.064-.189-.071-.244-.144-.068-.089-.079-.238-.158-.316s-.247-.071-.316-.172a1.686,1.686,0,0,1-.159-1.164c.024-.1,0-.21.044-.287.092-.145.562-.153.747-.229.15-.063.172-.175.258-.3.054-.08.147-.075.23-.129a2.266,2.266,0,0,0,.316-.632c.039-.1.032-.18.129-.215.094-.074.435-.031.56-.015.024.037.072.072.086.115.049.139.016.287.058.417a1.393,1.393,0,0,0,.416.689,1.238,1.238,0,0,0,.316.172,1.846,1.846,0,0,1,.417.115c.058.039.112.106.172.144a1.537,1.537,0,0,0,.847.215,2,2,0,0,0,.316-.215c.162-.1.366-.137.474-.288.131-.181.177-.419.331-.574a6.441,6.441,0,0,1,1.048-.718c.112-.075.135-.243.244-.316.138-.092.395-.123.546-.216.185-.112.364-.238.546-.359a1.48,1.48,0,0,1,.23-.157c.106-.045.267-.012.373-.058s.118-.173.2-.23.276-.021.388-.072.149-.2.258-.244c.226-.1.627.02.848-.072.192-.08.282-.286.488-.344h.7c.139-.034.223-.124.345-.158l.431-.015c.09-.027.163-.1.258-.129h.962a2.353,2.353,0,0,0,.244-.115c.154-.047.2.138.388.086a2,2,0,0,1,.359-.129c.105-.009.208.077.345.043a2.26,2.26,0,0,1,.6-.043h.258l.489.058a.692.692,0,0,0,.345.043c.065-.018.155-.055.23-.072a1.237,1.237,0,0,1,.488.029c.241.056.488.034.718.086l.5.014c.237.054.5.056.719.115.162.044.3.04.459.086.537.153,1.088.282,1.638.431l.617.1.374.029c.107.042.139.171.244.215.069.03.13.009.215.029l.546.115c.487.158.929.334,1.465.46.311.073.44-.2.589-.3.175-.126.406-.168.589-.287.081-.053.106-.176.186-.23a2.66,2.66,0,0,1,.4-.129,4.215,4.215,0,0,0,.7-.316,3.79,3.79,0,0,1,.647-.359c.281-.1.694.035.976-.072.211-.08.417-.213.632-.3a11.048,11.048,0,0,1,1.149-.33c.514-.146,1.068-.162,1.608-.287A5.111,5.111,0,0,0,50,40.01Zm.632.719h1.005c.121.028.192.112.287.143.187.06.278-.138.46-.072.135.05.251.156.4.2l.388.057c.124.052.161.2.3.244.236.074.45.072.661.158.295.12.58.273.862.388.165.067.4.011.531.1.273.185.352.734.589.977A.234.234,0,0,1,56.1,43c-.106-.012-.341-.122-.417-.072-.071.027-.077.1-.072.2a.678.678,0,0,1,.2.273.145.145,0,0,0-.028.043c-.221.044-.334-.132-.445-.244-.128,0-.178.061-.115.158l.129.115c.027.039.025.083.057.115a.464.464,0,0,1-.115.345.661.661,0,0,1-.2.028.781.781,0,0,0-.129-.1c.009-.109.159-.248.043-.331l-.172-.057a.157.157,0,0,0-.187.143.353.353,0,0,1-.287-.028c-.344-.007-.117.216-.187.359-.067.117-.355-.06-.416-.1-.109-.071-.22-.161-.331-.23s-.249-.106-.359-.186c-.148-.109-.086-.239-.33-.3-.135-.035-.245-.021-.373-.057-.4-.114-.829-.216-1.236-.331-.125-.035-.228-.024-.359-.057a2.962,2.962,0,0,0-.732-.072h-.23c-.5.114-.884.284-1.336.431-.152.049-.319.063-.473.1l-.159.014c-.1.042-.137.184-.243.23l-.259.043a4.248,4.248,0,0,0-.546.144,5.173,5.173,0,0,0-.7.315,2.426,2.426,0,0,1-.459.244c-.219.073-.578-.041-.8.043-.281.106-.4.527-.689.647-.115.047-.3,0-.4.057-.127.066-.193.213-.345.259l-.33.029c-.066.024-.127.092-.2.114l-.287.029c-.18.075-.19.337-.374.417s-.528.02-.718.1c-.354.15-.663.405-1.02.56-.127.056-.261.1-.388.144a1.231,1.231,0,0,0-.287.072c-.079.051-.11.173-.2.215a2.019,2.019,0,0,1-.345.057c-.173.045-.357.072-.531.13-.552.183-1.08.4-1.637.589l-.517.115-.23.014c-.2.05-.213.2-.373.259-.2.068-.413.051-.6.115-.27.089-.506.252-.775.33l-.488.014c-.11.036-.168.157-.273.2-.154.065-.343,0-.532.043-.139.032-.46.213-.589.173-.056-.018-.113-.085-.172-.1-.152-.042-.232.1-.33.129-.116.036-.273-.021-.4.015s-.2.112-.331.143h-.287c-.136.044-.17.209-.3.259-.259.1-.682-.023-.976.043a8.518,8.518,0,0,1-1.666.086,4.785,4.785,0,0,1-.905-.028h-.215a2.373,2.373,0,0,1-.776-.173c-.009-.025,0-.014-.014-.029,0-.2.26-.139.4-.2.057-.025.094-.082.143-.115.018-.067.05-.154,0-.215-.047-.125-.263-.068-.359-.144s-.075-.222-.2-.272l-.33-.058c-.2-.057-.432-.112-.632-.172a2.152,2.152,0,0,1-.445-.13.175.175,0,0,1,.014-.057,3.507,3.507,0,0,1,1.235.043l.33.014a.951.951,0,0,0,.546-.028c.017-.066.047-.13,0-.187-.035-.1-.266-.149-.373-.173l-.015-.042a3.663,3.663,0,0,1,.848-.245,1.1,1.1,0,0,1,.46-.072c.139.03.272.071.4.1a1.147,1.147,0,0,0,.387-.014c.2-.043.4-.005.575-.043l.761-.029c.117-.039.154-.187.273-.23l1.178-.058c.33-.072.676-.055.991-.143.274-.076.543-.176.8-.244l.718-.029c.319-.1.638-.243.977-.345.152-.046.322-.05.474-.086l.172-.014c.111-.047.145-.186.259-.23a1.761,1.761,0,0,1,.244-.028,4.945,4.945,0,0,0,.7-.173c.217-.088.432-.178.647-.273.192-.084.381-.219.574-.3.221-.094.613-.017.833-.115.187-.084.27-.309.46-.388.145-.061.386.008.546-.043a1.733,1.733,0,0,0,.359-.2,5.338,5.338,0,0,1,.646-.345c.116-.051.245-.092.359-.129.092-.031.194-.018.259-.072.12-.043.077-.179.143-.273.059-.163.367-.14.531-.2a5.011,5.011,0,0,0,.9-.474c.106-.066.217-.142.331-.2l.229-.1c.083-.056.107-.189.187-.244.159-.109.448-.083.632-.158.326-.131.612-.342.934-.459.151-.056.354.021.531-.029.124-.035.179-.16.3-.2.141-.047.342,0,.474-.057.1-.044.131-.159.215-.216s.242-.02.359-.072c.095-.042.152-.161.259-.2.3-.112.684.068.991,0a.87.87,0,0,0,.272-.072l.158-.172c.069-.046.183-.026.259-.072A5.715,5.715,0,0,1,50.632,40.729ZM32.507,41.5c.221.052.446.04.66.086.3.065.33-.233.6-.158.1.029.179.116.287.144h1.149c.139.033.223.124.344.158h.46a2.157,2.157,0,0,1,.259.115c.12.039.2-.054.287-.072l.474.043c.141.036.175.136.272.2.071.047.145.016.245.043s.169.123.258.158c.105.042.255-.007.331.058.011.009,0,0,0,.014l-.015.043c-.1.02-.332.012-.4.072-.129.051-.054.2-.129.258-.093.076-.258.012-.4.043a.647.647,0,0,0-.287.13.489.489,0,0,1-.029.258c-.032.067-.183.135-.244.173a.258.258,0,0,0,.028.215c0,.061.007.118-.028.144-.073.052-.207.019-.3.014l-.69-.086a2.2,2.2,0,0,1-.344.015,3.759,3.759,0,0,0-.733-.029h-2.5a2.07,2.07,0,0,0-.689,0c-.212.046-.481-.028-.675.014H30.41c-.2.044-.416.011-.618.057-.361.085-.691.153-1.034.23-.319.072-.713-.081-.948.072-.088.058-.16.154-.244.215a1.616,1.616,0,0,0-.287.2c-.051.06-.064.157-.129.2a1.468,1.468,0,0,1-.273.1,4.052,4.052,0,0,0-.489.244c-.46.281-.87.616-1.292.934-.141.106-.249.268-.388.373a2.734,2.734,0,0,0-.546.56c-.154.216-.213.5-.359.733-.077.076-.153.153-.23.23-.043.058-.057.126-.1.186s-.12.068-.158.115c-.09.11-.083.307-.158.431-.116.192-.316.317-.431.5-.094.152-.013.484-.115.632l-.187.129c-.064.079-.056.215-.115.3l-.157.158c-.074.165.007.45-.044.617-.059.2-.119.422-.172.647,0,.086-.009.172-.014.258a3.067,3.067,0,0,0,.014,1.034c.043.2.033.386.072.56v.23l.129.387c.061.188.07.359.144.532a2.954,2.954,0,0,0,.388.546c.031.043.039.1.072.143a.192.192,0,0,1-.044.115c-.058.151-.252.108-.416.158-.063.02-.144.082-.244.058a.66.66,0,0,1-.13-.058.644.644,0,0,1-.029-.2.339.339,0,0,0,.058-.072.377.377,0,0,1,.244.072.157.157,0,0,0,.087-.028,1.965,1.965,0,0,0-.317-1.121c-.039-.107-.027-.378-.086-.459-.034-.051-.086-.061-.129-.1a.281.281,0,0,0-.2.072.947.947,0,0,0-.029.388c.02.072.122.2.072.287-.017.036-.032.033-.058.058-.238-.015-.176-.2-.244-.389a1.276,1.276,0,0,0-.129-.215.273.273,0,0,0-.129.029A2.009,2.009,0,0,0,21,54.43c.062.17.166.16.157.4-.089.093-.154.241-.287.287a2.338,2.338,0,0,1-.244-.789c-.084-.281-.13-.6-.2-.905-.01-.148-.019-.3-.028-.446-.016-.054-.071-.122-.087-.172l.015-.273a4.122,4.122,0,0,1-.158-.56c-.035-.232.182-.27.23-.416a2.687,2.687,0,0,0,.014-.288V51c.033-.326.067-.651.1-.977.071-.3.1-.607.187-.89.087-.266.209-.533.287-.79.059-.2-.014-.464.058-.632.147-.345.519-.61.675-.977.095-.226.038-.57.157-.761.08-.128.23-.207.317-.33.062-.089.083-.228.172-.288s.248-.073.345-.144.112-.22.2-.287.2-.062.258-.143c.07-.1.082-.222.187-.287.135-.084.346-.071.474-.159.207-.141.27-.456.474-.6.143-.1.422-.058.574-.157.114-.075.135-.257.244-.331s.274-.05.374-.115.173-.2.316-.244.336.009.459-.043a2.31,2.31,0,0,0,.359-.273c.1-.07.257-.083.36-.158.069-.05.093-.16.172-.2l.5-.086a6.337,6.337,0,0,1,.646-.244h.776a2.151,2.151,0,0,0,.2-.115c.093-.039.2,0,.316-.029s.172-.112.272-.144c.14-.042.335.03.489-.014.113-.032.169-.143.273-.187.073-.03.2,0,.273-.043A7.352,7.352,0,0,1,32.507,41.5Zm7.985,1.307a2.4,2.4,0,0,1,.445.187c.009.024,0,.014.015.028,0,.234-.355.6-.661.518a1.041,1.041,0,0,1-.316-.187c0-.2.071-.194.144-.3l.086-.244a.326.326,0,0,0,.1-.029Zm-2.068.56c.007.04.017.042,0,.072v.029a1.761,1.761,0,0,1-.69-.057c-.1-.022-.2-.006-.287-.029s-.261-.074-.172-.216c.019-.047.04-.042.072-.072A3.2,3.2,0,0,1,38.424,43.371Zm18.455.044c.009.024,0,.013.015.028a.222.222,0,0,1-.029.13c-.184,0-.217-.095-.316-.173a.1.1,0,0,1,.029-.086A.412.412,0,0,1,56.879,43.415Zm6.894,0c.1.138.09.379.158.545a4.463,4.463,0,0,0,.287.618c.077.124.178.192.173.4a1.554,1.554,0,0,1-.6.459c-.272.08-.666-.057-.934.029-.3.1-.59.264-.876.388-.459.2-.945.342-1.436.5-.357.115-.747.127-1.135.215l-.546.029c-.115.038-.158.186-.273.23s-.209,0-.33.028c-.268.06-.594.026-.862.087l-.316.014c-.146.037-.232.135-.387.172h-1.02c-.192.054-.281.249-.474.3-.175.048-.244-.122-.33-.173a1.072,1.072,0,0,0-.575-.057c-.295.066-.58.088-.862.172a.858.858,0,0,1-.459.072c-.106-.029-.168-.129-.273-.158h-.5c-.139-.033-.223-.124-.344-.158s-.245.016-.345-.014-.165-.1-.259-.13H50.187a4.476,4.476,0,0,1-.618-.215l-.733-.2a7.547,7.547,0,0,1-.991-.187.4.4,0,0,1,.029-.33V45.9c-.044-.1-.2-.058-.316-.086a2.948,2.948,0,0,1-.689-.187c-.021-.085-.064-.294,0-.373.073-.1.264-.073.416-.058a2.58,2.58,0,0,1,.761.144c.044.027.062.083.1.115l.014.014v-.014a.492.492,0,0,0,.187-.6c-.017-.065-.1-.185-.043-.273.037-.085.213-.092.345-.072.166.025.358.05.517.086l.244.014a2.024,2.024,0,0,1,.359.058c.058.057.115.115.172.172.065.04.16.018.245.043.1.031.172.116.273.144h1.8c.139.032.222.112.344.144h1.106c.112.025.194.088.288.114a.6.6,0,0,0,.3-.043,2.923,2.923,0,0,1,.675-.071,13.733,13.733,0,0,0,3.059-.288,4.46,4.46,0,0,1,.92-.014h.258c.131-.037.173-.175.3-.216.172-.054.414.039.6-.014.1-.028.172-.113.273-.143s.231.016.344-.015c.094-.025.166-.1.259-.129.144-.044.378.028.517-.029.159-.064.231-.236.4-.287.213-.064.5.044.733-.015a2.032,2.032,0,0,0,.4-.229c.078-.039.17-.046.215-.115a2.462,2.462,0,0,0,.1-.287.638.638,0,0,0,.158-.058A.375.375,0,0,1,63.773,43.415ZM52.427,44.1a2.989,2.989,0,0,1,1.063.4.142.142,0,0,1-.029.086c-.118.167-.907.159-1.177.1h-.2c-.294-.067-.634-.049-.92-.115a2.554,2.554,0,0,1-.359-.044c-.111-.044-.136-.192-.258-.229l-.46-.029c-.331-.077-.676-.12-.991-.2a2.292,2.292,0,0,1-.618-.143c0-.034,0-.041.015-.058.065-.187.5-.2.718-.244.071-.016.164.015.216-.015A9.932,9.932,0,0,1,52.427,44.1Zm-12.7-.345a.193.193,0,0,1-.043.187.543.543,0,0,1-.546-.216.148.148,0,0,1,.029-.086c.029-.006.027,0,.043-.014A1.185,1.185,0,0,1,39.731,43.759Zm-.761.287c.032.174-.121.287-.345.23a4.008,4.008,0,0,1-1.293-.445c-.011-.016-.009-.014-.014-.043A6.476,6.476,0,0,1,38.97,44.046Zm8.387.086a.224.224,0,0,1,.058.029v.072c-.025.009-.014,0-.029.014-.074,0-.108.011-.129-.043-.012-.015-.006,0-.015-.029l.058-.057A.1.1,0,0,1,47.357,44.132Zm-13.314.2c.336.077.672.134,1.02.216.226.053.47.022.69.072l.33.014c.108.032.128.113.2.172a.917.917,0,0,0,.316.115c.027.172-.149.206-.287.259-.187.072-.4.14-.6.2-.136.041-.287.028-.387.1-.066.048-.093.15-.173.186-.153.069-.366.017-.545.058-.377.085-.76.1-1.121.2l-1.68.416-.977.173-1,.086h-.316c-.1.033-.141.155-.23.2a1.554,1.554,0,0,1-.546.029H26.36a1.894,1.894,0,0,1-.647-.029c-.058-.03-.086-.1-.129-.144s-.113-.075-.129-.172c-.038-.083.079-.22.115-.287.089-.17.117-.106.258-.2.073-.049.108-.16.187-.2.211-.042.421-.086.632-.129.546-.18.975-.493,1.522-.675.181-.06.381-.07.575-.115l.33-.014c.115-.04.158-.185.273-.23l.46-.072c.189-.054.387-.128.56-.186.069-.024.157-.009.215-.044Zm12.74.1c.016.063.042.105,0,.158-.022.054-.063.052-.1.086a.447.447,0,0,1-.244-.057c-.017-.065-.046-.13,0-.187.024-.059.069-.052.115-.086A.356.356,0,0,1,46.783,44.434Zm8.1.058c.033.014.031.024.058.042,0,.034,0,.041-.015.058-.015.033-.025.031-.043.057a.331.331,0,0,1-.158-.028l-.029-.087a.423.423,0,0,0,.044-.071C54.806,44.461,54.85,44.462,54.883,44.492Zm-35.719.057a1.8,1.8,0,0,0,.086.3,1.449,1.449,0,0,0,.345.3c.062.047.081.127.129.187a.786.786,0,0,1-.258.388h-.1a.587.587,0,0,0-.115.057c-.055.141.022.281-.014.431-.044.011-.072.028-.1.014-.148-.016-.134-.161-.2-.258-.026-.039-.08-.055-.115-.086-.112.008-.133.055-.2.1,0,.287.257.423.431.546s.328.287.517.4c.251.153.556.247.8.388v.071c-.417.1-.688-.2-.963-.373-.142-.088-.334-.106-.474-.2-.109-.074-.128-.25-.23-.33s-.258-.1-.358-.187c-.082-.068-.069-.24-.158-.3a1.033,1.033,0,0,0-.259-.072,1.5,1.5,0,0,1-.316-.158,1.028,1.028,0,0,1-.029-.316l.072-.115a1.708,1.708,0,0,1,.359-.13l.618-.315c.077-.06.1-.271.143-.36a.574.574,0,0,0,.158-.057A.583.583,0,0,1,19.164,44.549Zm27,.445c-.007.171-.139.129-.2.23-.031.051,0,.128-.014.187a.191.191,0,0,1-.173-.015h-.028c.014-.109.071-.122.071-.258-.078-.075-.149-.157-.229-.23a.347.347,0,0,1,.043-.187.181.181,0,0,0,.072-.028C45.933,44.7,46.041,44.876,46.165,44.994Zm-.747.3.015.014v.014c-.068,0-.081.008-.1-.043Zm-.847.23c.055.02.052.049.086.086a.248.248,0,0,1-.057.186c-.169.045-.388.085-.46-.086a.2.2,0,0,1,.014-.172c.033-.044.124-.043.173-.072A.379.379,0,0,1,44.571,45.526ZM20.442,46.2c.01.024,0,.014.015.028a.2.2,0,0,1-.015.058,1.2,1.2,0,0,1-.775-.331.151.151,0,0,1,.028-.071c.03-.006.028,0,.044-.014A1.729,1.729,0,0,1,20.442,46.2Zm22.822.272h.2a3.22,3.22,0,0,1,.776.015c.177.052.249.236.43.287h.4c.136.032.212.125.33.158.1.029.191-.008.273.029.1.044.14.167.258.2l.359.014c.093.028.161.1.259.129h.661c.135.033.215.126.33.159l.359.014.244.129h.819c.139.033.223.124.344.158h.5c.136.032.216.125.331.158h.66c.136.031.216.112.33.144h2a2.741,2.741,0,0,0,.5-.015c.126-.026.295.009.4-.014.193-.041.4.009.574-.029h.273c.251-.054.566,0,.819-.057h.315a2.337,2.337,0,0,1,.977.029c.118.047.116.219.158.344s.116.272.158.4c.032.1.021.2.072.273l.2.173c.123.182.051.524.129.746.049.137.162.21.2.374a4.384,4.384,0,0,1-.014.89c-.029.1-.123.162-.144.259-.029.135.134.2.086.359-.026.086-.1.158-.129.259-.085.345.068.831-.057,1.134-.08.2-.34.208-.417.388-.009.134-.019.268-.028.4a1.944,1.944,0,0,1-.3.488c-.065.1-.091.217-.215.259a.442.442,0,0,1-.288.014,4.735,4.735,0,0,1-.6-.2.74.74,0,0,0-.488-.072c-.1.036-.2.152-.359.115a2.468,2.468,0,0,0-.977-.172c-.235.055-.37.2-.6.244-.122.023-.2-.08-.287-.1-.113-.029-.181.073-.3.028-.067-.025-.129-.127-.258-.086a2.515,2.515,0,0,1-.273.129H51.091c-.1.029-.178.116-.287.144a1.163,1.163,0,0,1-.474-.043c-.19-.042-.395,0-.574-.043h-.273a3.77,3.77,0,0,0-1.006.158c-.267.063-.662-.049-.933.014s-.219.158-.388.273a1.665,1.665,0,0,1-.416.158l-.331.043c-.391.11-.848.193-1.263.287H44.2a1.308,1.308,0,0,0-.388.2,1.366,1.366,0,0,1-.417.143,1.654,1.654,0,0,1-.761-.13c-.493-.179-.957-.341-1.436-.516l-.5-.13c-.1-.027-.193-.01-.273-.057-.129-.078-.141-.284-.287-.344s-.5-.006-.675-.058c-.218-.066-.38-.2-.6-.259-.281-.068-.63.064-.891-.014-.177-.053-.249-.236-.431-.287H35.839c-.14-.033-.224-.123-.345-.158s-.226,0-.316-.058c-.034-.023-.045-.067-.072-.1a.521.521,0,0,0-.287-.115H33.771a5.276,5.276,0,0,0-.977.015c-.19.041-.432-.023-.6.015-.153.033-.354-.016-.489.014H29.031c-.119.038-.169.175-.287.215a4.915,4.915,0,0,1-.977.015h-.244c-.121.034-.2.125-.345.158h-.5c-.141.04-.19.175-.345.215-.294.076-.62-.073-.933,0-.22.051-.228.124-.374.2-.084.044-.207.017-.3.058-.068.029-.111.111-.173.144-.151.077-.357-.031-.532.014a1,1,0,0,1-.315.057.778.778,0,0,1-.244-.3c-.1-.268,0-.654-.072-.963-.079-.327-.217-.591-.3-.933-.005-.087-.009-.173-.014-.259a1.544,1.544,0,0,1,0-.5c0-.115.009-.229.014-.344.054-.243.062-.525.115-.761a3.932,3.932,0,0,1,.158-.948c.218-.084.52.059.718.115.526.147,1.1.147,1.652.272l.287.015a3.3,3.3,0,0,0,1.436-.086c.142-.038.318-.013.46-.044a1.848,1.848,0,0,1,.459.029h.23c.208.046.469.027.675.072a1.52,1.52,0,0,0,.517,0,1.663,1.663,0,0,1,.316-.158h1.178a3.1,3.1,0,0,0,.416-.172,5.413,5.413,0,0,1,.762-.2c.29-.072.618-.02.919-.087h.273c.054-.015.122-.07.172-.086h.244c.164-.053.252-.233.431-.287.2-.06.472.041.689-.014.1-.026.166-.1.259-.13l.244-.028a1.669,1.669,0,0,1,.287-.144c.247-.059.536.039.733-.043.308-.129.619-.3.948-.416a4.155,4.155,0,0,1,.431-.115c.069-.018.116,0,.172-.029.1-.051.124-.184.23-.23.2-.086.484-.075.689-.144.491-.162.939-.382,1.408-.574a4.5,4.5,0,0,1,.646-.172l.316-.029c.11-.04.151-.155.215-.244a1.862,1.862,0,0,1,.431-.374c.139-.086.247.086.374.058a4.276,4.276,0,0,0,.431-.2A.82.82,0,0,1,43.264,46.473Zm-22.707.345a.167.167,0,0,1-.028.1.926.926,0,0,1-.647-.158.106.106,0,0,0-.028-.058.217.217,0,0,1,.043-.158A1.272,1.272,0,0,1,20.557,46.818Zm5.185.474c-.006.03,0,.028-.014.043a.4.4,0,0,1-.244.029,2.567,2.567,0,0,1-.675-.144c-.017-.065-.047-.129,0-.187.018-.047.04-.041.071-.071A1.215,1.215,0,0,1,25.742,47.292Zm34.369.072c.141.057.077.279.115.445.076.342.08.689.172,1.02.107.385.172.812.273,1.206.031.123.013.218.043.345a2.773,2.773,0,0,1,.058.848c-.042.185-.077.365-.115.531v1.479a9.5,9.5,0,0,1-.288.919c-.137.416-.3.845-.445,1.235-.05.137,0,.355-.057.489-.067.158-.273.231-.4.33-.11.083-.067.255-.144.373s-.228.142-.3.245c-.124.173-.151.427-.287.589-.048.057-.134.074-.2.114a1.414,1.414,0,0,0-.417.317c-.084.119-.06.343-.143.459a.618.618,0,0,1-.273.2c-.107.032-.208.005-.287.057-.107.072-.14.226-.216.331-.124.172-.266.09-.416.187l-.2.244c-.125.08-.39.011-.517.086-.085.049-.156.14-.245.187s-.208.033-.287.086-.113.181-.23.23a2.091,2.091,0,0,1-.244.043,4.628,4.628,0,0,0-.531.158c-.439.18-.87.39-1.336.545-.181.061-.383.084-.574.13l-.33.028c-.11.042-.144.175-.259.216l-1.049.043c-.21.046-.478.01-.689.057h-.244a3.535,3.535,0,0,1-1.063.015h-.172c-.2-.046-.384-.107-.575-.144-.319-.062-.613.371-1.048.23-.276-.09-.385-.321-.589-.474a3.63,3.63,0,0,1-.316-.259c.018-.087.322-.216.445-.186.063.015.149.089.23.043a.264.264,0,0,0,.072-.043c0-.106-.032-.113-.072-.173-.085,0-.137.025-.187-.014h-.014l.014-.043c.063-.025.142-.007.23-.029a1.209,1.209,0,0,0,.388-.143c.011-.067-.024-.2.014-.259.091-.21.582.1.733-.014l.028-.015a.115.115,0,0,0-.014-.071c-.047-.115-.28-.1-.4-.144s-.241-.1-.345-.144a2.289,2.289,0,0,1-.316-.1c-.047-.03-.083-.084-.129-.115V59l.23-.129a.127.127,0,0,0-.015-.072c-.041-.1-.186-.1-.273-.158l-.1-.115a.13.13,0,0,1,.014-.071c.054-.16.356-.192.546-.173a2.3,2.3,0,0,0,.388.388,1.978,1.978,0,0,0,.531.215c.228.057.454.037.675.086l.532.015a2.407,2.407,0,0,0,.7,0c.372-.054.751.03,1.091-.043h.244c.141-.04.183-.194.316-.245l.417-.057a7.5,7.5,0,0,0,.948-.258A11.3,11.3,0,0,0,55.615,57.1a2.994,2.994,0,0,0,.647-.546c.085-.114.157-.23.244-.345.059-.078.184-.095.258-.158.054-.046.062-.138.1-.2s.14-.137.187-.216c.07-.117.012-.341.072-.473.039-.088.14-.118.215-.173a.5.5,0,0,0,.144-.287c.064-.273-.068-.556.028-.79.085-.2.289-.291.4-.459s.043-.48.144-.676c.048-.091.175-.128.215-.229.123-.31-.242-.717-.158-1.02.041-.143.153-.266.2-.416a2.443,2.443,0,0,0-.058-1.149c-.075-.266-.144-.552-.215-.819a.584.584,0,0,1,0-.316l.014-.043c.126.021.145.11.2.2.118.19.24.4.345.6.048.093.108.323.258.216.06-.021.075-.062.115-.1-.007-.16-.114-.181-.158-.3-.036-.1,0-.245-.057-.331v-.1a1.168,1.168,0,0,1,.345.4,1.624,1.624,0,0,0,.086.244c.053.081.134.161.186.244a.364.364,0,0,0,.115-.014,1.641,1.641,0,0,0-.273-1.035c-.041-.1-.053-.353-.1-.43-.036-.092-.128-.091-.2-.144-.095-.068-.114-.2-.158-.316-.016-.044-.052-.114-.029-.158.007-.065.019-.061.043-.1.067-.018.142-.049.2,0,.173.064.151.414.216.6a3.264,3.264,0,0,0,.244.373,2.543,2.543,0,0,1,.158.417c.022.073.008.155.043.215s.091.076.143.115a1.49,1.49,0,0,1,.144.172v.015h.029a1.775,1.775,0,0,0-.388-1.365.238.238,0,0,1,.058-.158c.178,0,.183.076.3.115.015-.011,0-.005.029-.014,0-.27-.137-.564-.029-.79A.163.163,0,0,0,60,47.335.174.174,0,0,1,60.111,47.364Zm-1.609.359a2.493,2.493,0,0,1,.029.273c.036.165.06.345.1.5.015.061,0,.139.028.186-.009.025,0,.014-.014.029s-.122-.085-.144-.115c-.088-.121-.139-.265-.23-.388-.029-.04-.093-.051-.129-.086-.06,0-.085,0-.115.029-.071.028-.121.168-.158.23a.158.158,0,0,1-.086-.015c-.135-.045-.283-.466-.129-.574s.436-.033.6-.129A.412.412,0,0,1,58.5,47.723Zm-33.88,1.12-.014.043c-.25,0-.9.075-.934-.115-.012-.024-.007-.044.014-.072a.078.078,0,0,1,.058-.043c.012-.009.045-.019.057-.028A2.156,2.156,0,0,1,24.622,48.843Zm10.025,5.343c.313.07.641.112.976.187h.158l.991.1c.234.056.455.12.675.173h.891c.14.033.223.123.345.158.16.044.34-.025.473.028.172.068.23.292.374.388.128.086.41.009.56.072.1.044.144.167.23.23a2.253,2.253,0,0,0,.23.129l-.015.043a3.089,3.089,0,0,1-1.594-.259,1.711,1.711,0,0,0-.2-.1,1.688,1.688,0,0,0-.531,0c-.072.03-.064.106-.015.158.115.12.315.153.46.244.029.019.054.054.086.072l-.014.043a2.194,2.194,0,0,1-1.049-.129c-.107-.031-.348-.106-.431-.043l-.029.014a.127.127,0,0,0,.015.072c.086.247.572.209.8.316.118.054.171.178.273.244l-.014.028a1.917,1.917,0,0,1-1.365-.373c-.174,0-.2.084-.287.172a.17.17,0,0,0,.029.116c.064.183.261.078.445.143l.115.072.043.115c-.013.142-.185.328-.259.43-.66.072-1.082-.293-1.594-.416h-.89c-.136-.033-.213-.124-.33-.158-.24-.068-.661.063-.891-.014-.1-.032-.159-.13-.259-.158-.259-.072-.343.232-.588.172-.1-.026-.159-.115-.259-.144a5.045,5.045,0,0,0-.847.015,1.769,1.769,0,0,1-.288.129H29.433c-.269.065-.54.166-.819.244-.474.133-1.008.106-1.493.23l-.675.158c-.115.038-.236.1-.359.129-.211.01-.422.019-.632.03a2.534,2.534,0,0,0-.56.315c-.313.194-.636.37-.948.56a4.318,4.318,0,0,1-.718.316l-.3.072c-.118.055-.147.218-.273.273-.2.087-.4.118-.589.2-.381.168-.733.4-1.134.56l-.388.1-.187.014c-.115.04-.13.156-.215.216a2.512,2.512,0,0,1-.991.157c-.038-.04-.094-.072-.115-.129-.038-.105-.019-.188-.1-.244l-.23-.1a.786.786,0,0,1-.445-.8c.054-.226.2-.2.359-.316.086-.062.079-.189.144-.272.044-.057.157-.059.215-.1.1-.068.133-.206.2-.3l.33-.344a4.946,4.946,0,0,1,.991-.632c.143-.063.3-.078.445-.144.121-.054.2-.2.3-.273a3.8,3.8,0,0,1,.689-.388c.319-.14.655-.262.991-.373l.417-.1c.132-.058.159-.212.316-.258l.215-.015.646-.128.718-.231c.148-.061.307-.151.46-.2.174-.057.428.025.618-.028.094-.028.132-.11.2-.158a.736.736,0,0,1,.215-.072,2.573,2.573,0,0,1,.733-.014c.243.05.506-.019.732.028h.259a3.051,3.051,0,0,0,.919-.143c.152-.041.325-.025.474-.058l1.12-.043Zm18.24.92h.387a4.664,4.664,0,0,1,.92.042c.2.044.559-.077.7.029l.029.014a.245.245,0,0,1-.014.058c-.174.068-.448-.018-.661.028a4.478,4.478,0,0,0-.79.144c-.107.056-.118.292-.244.388.01.238.211.173.072.445a.688.688,0,0,1-.216.029c-.142-.16-.18-.159-.344-.043l-.029.086a1.556,1.556,0,0,0,.273.158.1.1,0,0,0,.029.058.276.276,0,0,1-.044.186,9.184,9.184,0,0,1-1.723.043,2.6,2.6,0,0,0-.646.015l-.46.172c-.2.065-.405.1-.6.158-.178.049-.371.047-.546.086l-.273.014c-.126.038-.157.185-.273.23a2.79,2.79,0,0,1-.373.043l-.531.115c-.326.106-.616.262-.934.36-.339.1-.784-.074-1.135.042-.127.043-.189.162-.315.2s-.294-.025-.431.015c-.094.026-.163.113-.259.143s-.242-.018-.359.015c-.081.043-.163.085-.244.129l-.373.014c-.119.039-.17.175-.288.216s-.312-.027-.459.014c-.073.02-.129.086-.187.115-.095.049-.223.017-.331.057-.066.025-.126.093-.2.116-.166.049-.393-.037-.574.014a.983.983,0,0,0-.187.115c-.121.062-.273,0-.431.043-.1.028-.172.112-.272.144-.124.037-.294-.025-.431.014a1.754,1.754,0,0,0-.2.114c-.077.032-.156,0-.245.03s-.144.1-.215.129l-.3.043c-.1.049-.139.163-.258.2l-.215.014c-.065.018-.134.074-.2.086s-.152-.039-.23-.014c-.06.019-.14.068-.215.086h-.2c-.074.022-.1.091-.158.129a.786.786,0,0,1-.287.1c-.3.068-.619-.077-.905,0-.184.049-.254.184-.445.23h-.8c-.115.032-.2.112-.331.143H34.46c-.132.034-.209.123-.359.158h-.632c-.147.042-.184.185-.374.23H31.961c-.125.035-.182.152-.316.187-.29.074-.575-.141-.79-.173-.123-.017-.2.094-.3.115-.134.03-.22-.1-.316-.129H29.1a.738.738,0,0,1-.316-.2c-.154,0-.24.126-.388.086-.1-.028-.18-.118-.273-.158a2.714,2.714,0,0,0-.431-.1l-.373-.015a5.545,5.545,0,0,1-.761-.1,2.316,2.316,0,0,1-.474-.316c-.088-.062-.2-.083-.287-.144l-.1-.1c.009-.126.082-.125.115-.216.06-.091-.054-.257-.1-.3a.3.3,0,0,1,.015-.1c.115.013.379.152.459.1l.043-.013a2.041,2.041,0,0,1,.029-.346c.283-.106.453.2.747.2.04-.038.111-.056.144-.1.057-.079.081-.224.129-.3a2.324,2.324,0,0,1,1.364.23,1.433,1.433,0,0,0,.618.13c.179-.038.358-.076.531-.115l.56-.044h.273c.17-.036.366,0,.546-.042.269-.06.529-.1.79-.159h.876c.165-.053.178-.227.416-.287l.446-.014h.775a1.386,1.386,0,0,0,.3,0l.46-.015c.158-.038.232-.157.373-.2.211-.065.5.05.733-.014.08-.023.14-.1.215-.129.109-.045.252.008.388-.029.094-.026.167-.1.258-.129.235-.07.55.046.8-.015s.487-.171.747-.243l.4-.058h.2c.15-.042.183-.2.331-.244l.3-.029.676-.129c.594-.168,1.173-.358,1.751-.546.313-.1.654-.111.992-.187l.4-.014c.137-.041.173-.2.3-.259s.294-.058.431-.114c.187-.077.378-.183.56-.259a2.258,2.258,0,0,1,.762-.058h.258c.144-.04.207-.186.373-.229.374-.1.863.07,1.207,0h.23c.222-.051.281-.165.445-.216.146-.044.359.037.517-.014.092-.03.131-.125.2-.172.091-.062.186-.021.316-.058s.174-.158.316-.186c.177-.036.408.181.574.215.142.028.3-.153.446-.186h.359a4.041,4.041,0,0,0,1.522-.1C52.731,55.027,52.8,55.082,52.887,55.106ZM21.16,55.68a.225.225,0,0,1-.042.144.284.284,0,0,1-.216-.087.791.791,0,0,1-.014-.172.312.312,0,0,0,.043-.058C21.062,55.537,21.085,55.6,21.16,55.68Zm34.484.172c.033.015.031.025.058.043a.237.237,0,0,1-.029.1.181.181,0,0,1-.259-.087c-.011-.015-.005,0-.014-.028a.513.513,0,0,0,.086-.057A.24.24,0,0,1,55.644,55.852Zm-13.256.359c.009.025,0,.014.014.029v.071a.662.662,0,0,1-.158.015l-.1-.072c0-.083.019-.075.057-.115A.271.271,0,0,1,42.388,56.211Zm12.05-.043.029.014a.209.209,0,0,1-.015.058,2.046,2.046,0,0,1-.776,0l-.028-.014a.155.155,0,0,1,.028-.073c.03,0,.028,0,.044-.014A2.536,2.536,0,0,1,54.438,56.168Zm-13.027.3c.017.065.047.129,0,.186-.035.084-.182.091-.287.057a2.735,2.735,0,0,1-.646-.3.236.236,0,0,1,.014-.086.163.163,0,0,0,.072-.029A2.22,2.22,0,0,1,41.411,56.47Zm-2.915-.1h-.029V56.34a.544.544,0,0,1,.2-.014v.014c.011.016.009.014.015.043A.258.258,0,0,1,38.5,56.369Zm16.344.33c.009.025,0,.014.014.029,0,.064,0,.106-.043.129a1.332,1.332,0,0,1-.632-.114h-.028v-.03a3.463,3.463,0,0,0,.4-.071A.511.511,0,0,1,54.84,56.7Zm-14.578.144a.2.2,0,0,1-.028.172.485.485,0,0,1-.532-.244c-.011-.014,0,0-.014-.028l.029-.03c.029-.005.027,0,.042-.014A.945.945,0,0,1,40.262,56.843ZM38.812,57a4.071,4.071,0,0,1,.445.129.472.472,0,0,1,.014.116c-.057.058-.078.133-.172.157-.19.051-.43-.24-.589-.144-.1.036-.126.185-.172.273a1.488,1.488,0,0,1-.977-.316v-.057c.222-.049.371.041.6.043a.25.25,0,0,1,.058-.043c.017-.039.045-.1.014-.144a.369.369,0,0,1,.029-.186A2.255,2.255,0,0,1,38.812,57Zm23.869.129c.13.1.338.19.4.345a1.39,1.39,0,0,1-.043.6,4.019,4.019,0,0,1-.474.963,1.3,1.3,0,0,1-.288.416,1.437,1.437,0,0,1-.7-.416,1.327,1.327,0,0,0-.23-.274l-.115-.057-.143-.172a1.935,1.935,0,0,0-.374-.13l-.46-.23c-.034-.025-.051-.074-.086-.1.006-.131.185-.191.273-.244,0-.134-.036-.143-.086-.215-.1-.014-.3-.041-.373.014l-.044.014c0,.088.051.188.015.244v.029a.157.157,0,0,1-.144-.014c-.136-.1-.017-.2.015-.287.038-.1-.015-.189.043-.259a.106.106,0,0,1,.071-.057c.121-.073.3.035.374.071a3.174,3.174,0,0,1,.345.173c.1.07.169.192.3.229a.669.669,0,0,0,.4-.042c.051-.017.063-.028.072-.087a.06.06,0,0,0-.014-.071c-.041-.117-.266-.141-.374-.187-.013-.047-.051-.119-.014-.173l.014-.043a.343.343,0,0,1,.173-.028c.1.021.261.1.344.043l.044-.029c0-.112-.033-.171-.029-.258.163-.04.418.042.56-.058C62.429,56.842,62.517,57.008,62.681,57.13Zm-28.006.3c.258.058.529.032.776.086s.635-.04.79.115c.039.04.1.122.057.2-.073.208-.558.226-.8.287-.2.051-.435.056-.646.115-.174.049-.343.1-.532.144H33.4a2.676,2.676,0,0,0-.589.057c-.093.021-.226,0-.3.015h-.23a4.041,4.041,0,0,0-.833.013c-.221.054-.243.219-.417.274a2.9,2.9,0,0,1-.718.014H28.772c-.19-.045-.231-.189-.373-.23h-1.02a1.521,1.521,0,0,1-.747-.4.157.157,0,0,1,.029-.1c.063-.129.241-.065.4-.1l.977-.129c.3-.074.606-.1.905-.187.236-.067.468-.144.718-.2h.948a8.273,8.273,0,0,0,1.81-.072c.1-.026.261.008.344-.043A8.886,8.886,0,0,1,34.675,57.432Zm18.7.172a.469.469,0,0,1-.417.474l-.33.014-.66.115c-.4.113-.833.174-1.265.273-.16.037-.335.01-.488.043H50c-.138.045-.186.269-.4.23-.176-.032-.206-.184-.345-.23l-.33-.014a4.185,4.185,0,0,1-1.12-.2.15.15,0,0,1,.014-.086c.1-.261.766-.009,1.034-.072.334-.079.619-.214.962-.3.212-.055.456-.024.675-.073H50.7c.1-.028.117-.124.187-.172.023-.015.053-.013.072-.028a.3.3,0,0,1,.216.086c.155-.006.178-.1.287-.144a1.36,1.36,0,0,1,.229-.043.825.825,0,0,1,.274.029,1.462,1.462,0,0,0,1.019-.058A.621.621,0,0,1,53.375,57.6Zm-27.245.675c.077.08.078.109.014.2-.1.007-.232-.035-.172-.129.016-.045.03-.043.057-.072Zm20.365.33c.043.017.041.034.072.058a.333.333,0,0,1-.043.244.3.3,0,0,1-.258,0,.139.139,0,0,1-.072-.216.146.146,0,0,1,.1-.1c.013-.009.045-.019.058-.029A.2.2,0,0,1,46.5,58.609Zm-19.575.158.029.015a.2.2,0,0,1-.015.057.173.173,0,0,1-.186-.014.155.155,0,0,1,.028-.072c.03-.006.028,0,.043-.014A.154.154,0,0,1,26.92,58.767Zm18.771.087c.132.046.133.234.216.33v.072a.51.51,0,0,1-.46-.172c0-.173.1-.172.2-.245C45.677,58.845,45.676,58.843,45.691,58.854ZM24.406,59c.06.056.129.069.158.158h.015v.087a.269.269,0,0,1-.244-.072.1.1,0,0,0-.029-.058c0-.078.01-.076.043-.115Zm20.639.144c.11.047.1.236.2.3.192.131.49.179.689.3a.24.24,0,0,1-.014.086,1.661,1.661,0,0,1-.976-.272,5.064,5.064,0,0,1-.575-.23c.01-.238.26-.139.416-.23A.39.39,0,0,1,45.045,59.141Zm-1.005.3c.035.017.032.032.057.057a.156.156,0,0,1-.029.1l-.043.043a.194.194,0,0,1-.129-.029l-.058-.057c0-.034,0-.041.015-.058a.241.241,0,0,1,.043-.072c.03-.006.028,0,.043-.014A.156.156,0,0,1,44.04,59.443Zm.876.474c.159.059.339.079.473.143.014.047.052.118.015.172-.042.11-.217.1-.33.058a4.322,4.322,0,0,1-.862-.4c-.009-.025,0-.014-.014-.029a.155.155,0,0,1,.043-.115c.029-.005.027,0,.043-.014A1.725,1.725,0,0,1,44.916,59.917Zm1.493,0,.029.014a.235.235,0,0,1-.014.057.177.177,0,0,1-.187-.014.151.151,0,0,1,.029-.072c.029-.006.027,0,.043-.014A.151.151,0,0,1,46.409,59.917Z" fill="#231815" fill-rule="evenodd"/><path d="M46.336,58.327a.645.645,0,0,1-.431.174,2.8,2.8,0,0,1-.977-.373,2.443,2.443,0,0,1-1.479-1.672l-.308-2.392a9.793,9.793,0,0,0-.746-2.778q-.645-1.337-1.672-1.337a1.86,1.86,0,0,0-.592.1q-.374.141-.373.386a.312.312,0,0,0,.013.1v.1q0,.733-.4.733c-.13,0-.194-.072-.194-.218a1.224,1.224,0,0,1,.116-.5,5.492,5.492,0,0,1,1.312-1.209q.617-.45.971-.739t.469-.405a2.219,2.219,0,0,0,.811-1.544,1.492,1.492,0,0,0-.592-1.131,1.738,1.738,0,0,0-1.183-.54,1.9,1.9,0,0,0-1.428.643,2.09,2.09,0,0,0-.591,1.479v6.044a.7.7,0,0,0,.566.707c.016.009.351.064,1,.167a.669.669,0,0,1,.578-.411.193.193,0,0,1,.219.218c0,.121-.095.223-.283.309a1.282,1.282,0,0,1-.424.077H36.338q-.387.515-.618.515c-.1,0-.154-.078-.154-.232,0-.231.2-.386.617-.463q.3-.063.585-.116l.585-.1a.782.782,0,0,0,.63-.772V48.29c0-.094,0-.185-.006-.271s-.011-.166-.019-.244a.245.245,0,0,0-.193-.09,3.2,3.2,0,0,0-.708.039c-.017.009-.06.032-.128.071s-.172.092-.309.16a.927.927,0,0,1-.475.155q-.438,0-.438-.309c0-.111.073-.167.219-.167a.656.656,0,0,1,.308.09.728.728,0,0,0,.206.09q.257,0,1.248-.887.681-.618,1.176-1.029t.817-.63a4.1,4.1,0,0,1,2.237-.888,2.046,2.046,0,0,1,1.46.5,1.83,1.83,0,0,1,.534,1.4,2.572,2.572,0,0,1-.875,1.877,16.828,16.828,0,0,1-1.723,1.3q3.074,1.467,3.074,4.038a1.807,1.807,0,0,1-.36.9,1.961,1.961,0,0,0-.348.989,2.509,2.509,0,0,0,1.467,2.535,1.473,1.473,0,0,0,.488.153.39.39,0,0,0,.373-.218c.086-.138.155-.206.206-.206.214,0,.322.095.322.283a.513.513,0,0,1-.2.392" fill="#231815"/><path d="M89.1,60.177c-.15-.154-.259-.265-.325-.341s-.144-.159-.225-.259a4.56,4.56,0,0,1-.312-.43c-.123-.194-.32-.478-.582-.86-.314-.466-.6-.885-.833-1.259s-.485-.742-.733-1.1-.517-.736-.809-1.112-.635-.791-1.033-1.256a10.139,10.139,0,0,0-1.084-1.069,2.676,2.676,0,0,0-1.226-.623,4.178,4.178,0,0,0-.726-.1c-.148,0-.339-.008-.57-.021v2.806c0,.8.007,1.469.027,2.02.017.528.031.983.047,1.363a1.854,1.854,0,0,0,.273.948,2.244,2.244,0,0,0,.772.661,3.483,3.483,0,0,0,1.593.383v.25H75.4v-.25a7.836,7.836,0,0,0,1.192-.3,2.029,2.029,0,0,0,.9-.6,1.266,1.266,0,0,0,.2-.451,4.86,4.86,0,0,0,.11-.672c.027-.247.047-.513.06-.792s.026-.559.026-.825c0-.231.005-.543.012-.942s.018-.832.025-1.308.013-.955.013-1.454V46.3c0-.3,0-.6-.013-.906s-.025-.6-.049-.87a4.482,4.482,0,0,0-.123-.75,1.1,1.1,0,0,0-.237-.483,1.854,1.854,0,0,0-.834-.534,8.03,8.03,0,0,0-1.129-.234v-.254h1.019c.561,0,1.2,0,1.915-.009s1.423-.012,2.136-.012h1.743c1.11,0,2.095.03,2.963.1a5.976,5.976,0,0,1,2.359.674A4.8,4.8,0,0,1,89.45,44.57a4.281,4.281,0,0,1,.669,2.471,3.949,3.949,0,0,1-.334,1.655,4.443,4.443,0,0,1-.9,1.3,5.444,5.444,0,0,1-1.308.958,9.843,9.843,0,0,1-1.564.67v.074a3.244,3.244,0,0,1,.82.649,9.542,9.542,0,0,1,.771.942c.431.632.9,1.315,1.407,2.039s.953,1.381,1.354,1.941a7.547,7.547,0,0,0,1.79,1.891,4.713,4.713,0,0,0,2.039.772v.25ZM86.637,44.682a4.272,4.272,0,0,0-1.814-1.543,5.521,5.521,0,0,0-1.258-.4,7.154,7.154,0,0,0-1.379-.124c-.346,0-.629.008-.844.026s-.383.035-.5.049c-.016.1-.032.185-.049.26a2.292,2.292,0,0,0-.035.287c-.01.117-.017.278-.028.487s-.021.5-.035.879c-.017.581-.028,1.239-.036,1.963s-.015,1.438-.015,2.117v2.736a18.311,18.311,0,0,0,1.905-.09,7.562,7.562,0,0,0,1.7-.361,4.5,4.5,0,0,0,1.37-.671,3.957,3.957,0,0,0,.93-.954,4,4,0,0,0,.536-1.158,4.689,4.689,0,0,0,.173-1.294,4.018,4.018,0,0,0-.622-2.212" fill="#231815"/><path d="M111.952,54.778a9.232,9.232,0,0,1-2.024,2.939,9.051,9.051,0,0,1-2.988,1.915,9.841,9.841,0,0,1-3.616.669,9.7,9.7,0,0,1-3.579-.662,8.747,8.747,0,0,1-4.965-4.747,9.822,9.822,0,0,1,.041-7.54A8.623,8.623,0,0,1,96.9,44.47a9.04,9.04,0,0,1,3.06-1.814,10.707,10.707,0,0,1,3.691-.635,9.288,9.288,0,0,1,3.793.74,8.629,8.629,0,0,1,4.639,4.907,9.545,9.545,0,0,1,.62,3.427,8.975,8.975,0,0,1-.746,3.683m-2.723-6.711a9.713,9.713,0,0,0-1.165-2.8,6.7,6.7,0,0,0-1.956-2.038,4.816,4.816,0,0,0-2.761-.784,4.943,4.943,0,0,0-2.8.784,6.43,6.43,0,0,0-1.94,2.024,9.516,9.516,0,0,0-1.117,2.825,14.4,14.4,0,0,0-.362,3.2,13.054,13.054,0,0,0,.4,3.259,9.149,9.149,0,0,0,1.179,2.764,6.26,6.26,0,0,0,1.965,1.914,5.183,5.183,0,0,0,2.747.719,4.714,4.714,0,0,0,2.723-.8,6.721,6.721,0,0,0,1.926-2.054,9.807,9.807,0,0,0,1.157-2.823,12.976,12.976,0,0,0,.388-3.135,12.431,12.431,0,0,0-.388-3.053" fill="#231815"/><path d="M133.413,54.255a7.993,7.993,0,0,1-1.217,2.437,7.317,7.317,0,0,1-1.792,1.691,9.571,9.571,0,0,1-2.163,1.074,11.875,11.875,0,0,1-2.363.553,17.154,17.154,0,0,1-2.359.167h-9.082v-.25a4.386,4.386,0,0,0,1.211-.323,2.385,2.385,0,0,0,.88-.6.818.818,0,0,0,.188-.425c.043-.2.077-.422.112-.672s.06-.513.077-.792.022-.559.022-.826c0-.23,0-.542.013-.941s.016-.832.021-1.308.016-.955.016-1.454V45.4c0-.3-.016-.577-.037-.834a5.252,5.252,0,0,0-.112-.694,1.141,1.141,0,0,0-.223-.488,2.022,2.022,0,0,0-.9-.627,6.443,6.443,0,0,0-1.169-.241v-.253c.7,0,1.7,0,3.011-.009s2.891-.013,4.746-.013h1.594c.544,0,1.09.022,1.639.069a13.977,13.977,0,0,1,1.641.255,8.464,8.464,0,0,1,1.62.522,9.289,9.289,0,0,1,1.96,1.143,7.519,7.519,0,0,1,1.6,1.653A8.153,8.153,0,0,1,133.45,48.1a9.269,9.269,0,0,1,.411,2.872,10.956,10.956,0,0,1-.448,3.283m-3.058-6.039a8.89,8.89,0,0,0-1.245-2.475,7.883,7.883,0,0,0-1.889-1.881,5.826,5.826,0,0,0-2.387-.992,10.439,10.439,0,0,0-1.095-.165c-.4-.04-.884-.059-1.465-.059-.2,0-.416,0-.649.012s-.459.022-.681.047-.431.047-.626.058a3.689,3.689,0,0,0-.458.078q-.124,1.223-.15,3.362t-.022,5.1v2.91q0,1.293.022,2.113c0,.236.015.487.039.758s.054.542.088.8a3.077,3.077,0,0,0,.162.693,1.213,1.213,0,0,0,.262.463,2.3,2.3,0,0,0,1.256.631,7.828,7.828,0,0,0,1.429.136c.414,0,.842-.02,1.279-.062a6.492,6.492,0,0,0,1.23-.234,6.614,6.614,0,0,0,4.017-3,10.554,10.554,0,0,0,1.332-5.487,8.956,8.956,0,0,0-.449-2.8" fill="#231815"/><path d="M150.844,60.177H135.626v-.25a5.165,5.165,0,0,0,1.154-.323,2.334,2.334,0,0,0,.886-.622,1.177,1.177,0,0,0,.2-.435c.048-.191.095-.412.138-.66s.067-.51.085-.783.026-.544.026-.811c0-.23,0-.542.01-.941s.02-.832.027-1.308.01-.955.01-1.454V46.3c0-.3,0-.6-.01-.919s-.027-.612-.049-.9a5,5,0,0,0-.123-.752,1.092,1.092,0,0,0-.238-.488,1.668,1.668,0,0,0-.8-.511,10.078,10.078,0,0,0-1.092-.209v-.254h13.727l1.692,4.105-.25.125a12.163,12.163,0,0,0-3.782-3.38,6.168,6.168,0,0,0-1.566-.355,22.759,22.759,0,0,0-2.785-.143c-.35,0-.706.008-1.078.038a5.735,5.735,0,0,0-.809.086c-.033.264-.065.81-.088,1.643s-.038,1.788-.038,2.883v1.594c0,.427,0,.78.016,1.055s.009.484.009.637v.269h.5c.245,0,.533,0,.861-.026s.642-.033.965-.065a4.413,4.413,0,0,0,.811-.108,3.99,3.99,0,0,0,1.241-.475,2.771,2.771,0,0,0,.808-.717,3.555,3.555,0,0,0,.5-.985,11.644,11.644,0,0,0,.337-1.252h.3v7.832h-.3a8.582,8.582,0,0,0-.612-1.643,4.235,4.235,0,0,0-.854-1.265,3.177,3.177,0,0,0-.957-.574,4.278,4.278,0,0,0-1.31-.274c-.244-.013-.455-.03-.619-.037s-.33-.013-.5-.013h-1.14a7.6,7.6,0,0,0-.052,1.023v2.981c0,.266,0,.522.016.76s.009.443.009.608c.016.529.044,1.031.089,1.5a2.474,2.474,0,0,0,.281,1.058,1.582,1.582,0,0,0,1.073.5,10.639,10.639,0,0,0,1.839.148c.285,0,.644-.008,1.079-.024s.9-.056,1.384-.124a5.108,5.108,0,0,0,2.762-1.192,8.564,8.564,0,0,0,1.2-1.285,16.447,16.447,0,0,0,1.2-1.824l.278.071Z" fill="#231815"/><path d="M170.9,57.414a4.81,4.81,0,0,1-1.342,1.62,5.6,5.6,0,0,1-2.051.989,9.882,9.882,0,0,1-2.607.328,12.294,12.294,0,0,1-2.093-.152,7.976,7.976,0,0,1-1.446-.363,5.563,5.563,0,0,1-.853-.379,1.062,1.062,0,0,0-.363-.175c-.05,0-.156.1-.324.3s-.313.391-.447.573h-.22l-.077-4.949h.248a7.844,7.844,0,0,0,.57,1.3,12.632,12.632,0,0,0,.758,1.193,6.875,6.875,0,0,0,.874.984,4.214,4.214,0,0,0,.886.646,6.3,6.3,0,0,0,1.115.448,4.64,4.64,0,0,0,4.327-.786A3.425,3.425,0,0,0,169,56.269a3,3,0,0,0-.226-1.216,2.809,2.809,0,0,0-.608-.912,3.937,3.937,0,0,0-.907-.657,9.586,9.586,0,0,0-1.116-.5c-.4-.147-.751-.273-1.05-.372s-.571-.2-.83-.291-.524-.18-.8-.271-.6-.211-.979-.362a5.068,5.068,0,0,1-1.241-.686,4.849,4.849,0,0,1-1.047-1.016,5.122,5.122,0,0,1-.724-1.3,4.137,4.137,0,0,1-.268-1.5,5.018,5.018,0,0,1,.49-2.314,4.664,4.664,0,0,1,1.315-1.617,5.617,5.617,0,0,1,1.906-.958A8.28,8.28,0,0,1,165.189,42a8.6,8.6,0,0,1,1.919.185,7.329,7.329,0,0,1,1.307.413,4.254,4.254,0,0,1,.771.411,1.965,1.965,0,0,0,.285.18c.047,0,.157-.095.309-.3s.3-.4.44-.593h.268v4.6h-.268a10.322,10.322,0,0,0-.772-1.629,7.292,7.292,0,0,0-1.1-1.438,5.218,5.218,0,0,0-1.415-1.033,3.9,3.9,0,0,0-1.77-.4,4.626,4.626,0,0,0-1.455.226,3.32,3.32,0,0,0-1.191.67,2.973,2.973,0,0,0-.794,1.109,3.708,3.708,0,0,0-.291,1.5,2.869,2.869,0,0,0,.793,2.115,5.672,5.672,0,0,0,2.063,1.269c.329.132.636.25.932.348s.573.2.854.287.568.186.853.284.6.212.908.323a5.778,5.778,0,0,1,2.617,1.8,5.067,5.067,0,0,1,.444,5.088" fill="#231815"/><path d="M186.981,60.177a1.379,1.379,0,0,1-.226-.143,1.411,1.411,0,0,1-.278-.257c-1.061-1.225-2.064-2.393-3.02-3.493s-1.945-2.219-2.969-3.343a8.365,8.365,0,0,0-.882-.9.74.74,0,0,0-.414-.175.294.294,0,0,0-.257.09,1.219,1.219,0,0,0-.141.287V54.7c0,.764.012,1.421.025,1.963.018.484.051.932.1,1.348a1.9,1.9,0,0,0,.326.944,1.462,1.462,0,0,0,.47.422,3.158,3.158,0,0,0,.65.285,5.46,5.46,0,0,0,.677.171c.223.042.419.074.588.091v.25h-7.983v-.25a7.648,7.648,0,0,0,1.193-.3,2,2,0,0,0,.872-.551,1.182,1.182,0,0,0,.2-.447,5.33,5.33,0,0,0,.108-.683c.025-.258.044-.532.052-.82s.011-.571.011-.838c0-.23,0-.542.013-.941s.011-.832.011-1.3V46.3c0-.63-.023-1.208-.062-1.741a1.74,1.74,0,0,0-1.182-1.762,4.241,4.241,0,0,0-1.142-.274v-.254h7.712v.254c-.32.033-.626.078-.921.136a1.794,1.794,0,0,0-.8.37,2.26,2.26,0,0,0-.586.859,4.753,4.753,0,0,0-.259,1.618c-.016.38-.031.736-.038,1.066s-.013.718-.013,1.147v3.855a9.735,9.735,0,0,0,1.209-.933q.757-.657,1.59-1.48c.558-.548,1.1-1.11,1.65-1.691s1.023-1.09,1.421-1.517a9.22,9.22,0,0,0,.76-1.022,1.753,1.753,0,0,0,.334-.94,1.15,1.15,0,0,0-.5-1.048,2.846,2.846,0,0,0-1.142-.42v-.254h6.66v.254a5.2,5.2,0,0,0-2.556,1.064,30.6,30.6,0,0,0-2.639,2.192q-.521.477-1.067,1.02c-.364.364-.726.731-1.084,1.095s-.7.714-1.04,1.056-.652.658-.935.956q.2.254.92,1.084c.481.553,1.051,1.2,1.718,1.954s1.366,1.54,2.128,2.382,1.473,1.663,2.169,2.439a7.308,7.308,0,0,0,.57.6c.219.2.428.375.627.537s.373.293.523.407a1.749,1.749,0,0,0,.295.2,7.105,7.105,0,0,0,.885.247,8.187,8.187,0,0,0,1.254.175v.25Z" fill="#231815"/><path d="M210.256,54.778a9.243,9.243,0,0,1-2.028,2.939,9.091,9.091,0,0,1-2.983,1.915,9.851,9.851,0,0,1-3.618.669,9.749,9.749,0,0,1-3.585-.662,9.024,9.024,0,0,1-2.959-1.86,8.918,8.918,0,0,1-2-2.887,9.839,9.839,0,0,1,.038-7.54A8.672,8.672,0,0,1,195.2,44.47a9.046,9.046,0,0,1,3.057-1.814,10.738,10.738,0,0,1,3.695-.635,9.278,9.278,0,0,1,3.793.74,8.58,8.58,0,0,1,4.635,4.907A9.546,9.546,0,0,1,211,51.1a9.122,9.122,0,0,1-.744,3.683m-2.727-6.711a9.52,9.52,0,0,0-1.164-2.8,6.712,6.712,0,0,0-1.952-2.038,4.831,4.831,0,0,0-2.76-.784,4.95,4.95,0,0,0-2.8.784,6.363,6.363,0,0,0-1.936,2.024,9.332,9.332,0,0,0-1.117,2.825,14.059,14.059,0,0,0-.367,3.2,13.242,13.242,0,0,0,.4,3.259,9.307,9.307,0,0,0,1.183,2.764,6.267,6.267,0,0,0,1.964,1.914,5.187,5.187,0,0,0,2.748.719,4.73,4.73,0,0,0,2.728-.8,6.807,6.807,0,0,0,1.926-2.054,9.771,9.771,0,0,0,1.152-2.823,12.977,12.977,0,0,0,.389-3.135,12.433,12.433,0,0,0-.389-3.053" fill="#231815"/><polygon points="96.904 60.399 96.215 59.927 109.998 41.601 110.68 42.098 96.904 60.399" fill="#231815"/></svg>