<svg id="レイヤー_1" data-name="レイヤー 1" xmlns="http://www.w3.org/2000/svg" width="230" height="100" viewBox="0 0 230 100"><title>sp_sop</title><path d="M95.827,24.851a2.793,2.793,0,0,0-1.186-.457l-.946-.187a1.619,1.619,0,0,1-.73-.265c-.081-.078-.108-.136-.113-.344a.474.474,0,0,1,.2-.422,1.693,1.693,0,0,1,.985-.214,1.392,1.392,0,0,1,1,.29.855.855,0,0,1,.241.575l.02.281h.893l-.01-.314a1.578,1.578,0,0,0-.672-1.31,2.741,2.741,0,0,0-1.558-.388,2.5,2.5,0,0,0-1.475.395,1.329,1.329,0,0,0-.568,1.1,1.253,1.253,0,0,0,.427,1.016,2.725,2.725,0,0,0,1.205.486l.857.181a2.076,2.076,0,0,1,.839.294c.1.089.123.138.131.355a.569.569,0,0,1-.229.474,1.645,1.645,0,0,1-1.007.246,1.8,1.8,0,0,1-1.15-.293.932.932,0,0,1-.31-.77l0-.3h-.9v.3a1.769,1.769,0,0,0,.584,1.407,2.728,2.728,0,0,0,1.807.52h0a2.451,2.451,0,0,0,1.659-.492,1.447,1.447,0,0,0,.49-1.113A1.267,1.267,0,0,0,95.827,24.851Z" fill="#e83927" fill-rule="evenodd"/><polygon points="103.31 26.643 103.31 25.255 106.511 25.255 106.511 24.389 103.31 24.389 103.31 23.168 106.646 23.168 106.646 22.302 102.405 22.302 102.405 27.509 102.71 27.509 106.685 27.509 106.685 26.643 103.31 26.643" fill="#e83927" fill-rule="evenodd"/><polygon points="116.603 22.302 116.603 25.957 113.606 22.302 112.784 22.302 112.784 27.509 113.089 27.509 113.385 27.509 113.689 27.509 113.689 23.854 116.686 27.509 117.508 27.509 117.508 22.302 116.603 22.302" fill="#e83927" fill-rule="evenodd"/><path d="M127.443,24.851a2.788,2.788,0,0,0-1.186-.457l-.946-.187a1.635,1.635,0,0,1-.73-.264c-.082-.079-.108-.136-.113-.345a.474.474,0,0,1,.2-.423,1.711,1.711,0,0,1,.985-.213,1.4,1.4,0,0,1,1,.29.859.859,0,0,1,.24.575l.021.282h.893l-.01-.315a1.576,1.576,0,0,0-.672-1.31,2.739,2.739,0,0,0-1.558-.388,2.5,2.5,0,0,0-1.475.395,1.327,1.327,0,0,0-.567,1.1,1.249,1.249,0,0,0,.426,1.016,2.735,2.735,0,0,0,1.206.486l.856.181a2.092,2.092,0,0,1,.839.294c.1.089.123.138.131.355a.564.564,0,0,1-.229.474,1.644,1.644,0,0,1-1.006.246,1.8,1.8,0,0,1-1.151-.293.935.935,0,0,1-.31-.771l0-.3h-.9v.3a1.77,1.77,0,0,0,.585,1.407,2.721,2.721,0,0,0,1.806.52h0a2.461,2.461,0,0,0,1.66-.492,1.451,1.451,0,0,0,.49-1.113A1.269,1.269,0,0,0,127.443,24.851Z" fill="#e83927" fill-rule="evenodd"/><polygon points="134.667 26.643 134.667 25.255 137.867 25.255 137.867 24.388 134.667 24.388 134.667 23.168 138.002 23.168 138.002 22.302 133.762 22.302 133.762 27.509 134.066 27.509 138.041 27.509 138.041 26.643 134.667 26.643" fill="#e83927" fill-rule="evenodd"/><path d="M107.312,43.581a2.872,2.872,0,0,0-4.323,0,2.843,2.843,0,0,0,0,3.45,2.607,2.607,0,0,0,2.162.982h.017a2.6,2.6,0,0,0,2.144-.982,2.84,2.84,0,0,0,0-3.45Zm-2.161,3.565a1.84,1.84,0,1,1,1.84-1.84A1.764,1.764,0,0,1,105.151,47.146Z" fill="#e83927" fill-rule="evenodd"/><polygon points="127.62 43.672 127.62 42.805 123.675 42.805 123.675 48.013 123.98 48.013 124.276 48.013 124.58 48.013 124.58 45.758 127.452 45.758 127.452 44.892 124.58 44.892 124.58 43.672 127.62 43.672" fill="#e83927" fill-rule="evenodd"/><polygon points="103.571 67.65 103.571 63.309 102.666 63.309 102.666 68.516 102.97 68.516 106.584 68.516 106.584 67.65 103.571 67.65" fill="#e83927" fill-rule="evenodd"/><path d="M115.705,63.309h-.723l-2.392,5.207h1l.676-1.482h2.146l.676,1.482h1Zm-1.04,2.859.679-1.487.679,1.487Z" fill="#e83927" fill-rule="evenodd"/><polygon points="135.211 67.65 135.211 66.262 138.412 66.262 138.412 65.396 135.211 65.396 135.211 64.175 138.547 64.175 138.547 63.309 134.307 63.309 134.307 68.516 134.611 68.516 138.586 68.516 138.586 67.65 135.211 67.65" fill="#e83927" fill-rule="evenodd"/><path d="M95.841,63.608a1.944,1.944,0,0,0-1.114-.3h-2.7v5.207h.9V66.494h1.751a1.82,1.82,0,0,0,1.31-.447,1.567,1.567,0,0,0,.437-1.158A1.472,1.472,0,0,0,95.841,63.608Zm-2.91,2.02V64.175H94.6a1.443,1.443,0,0,1,.625.1c.159.093.282.193.3.63a.632.632,0,0,1-.239.572,1.073,1.073,0,0,1-.61.154Z" fill="#e83927" fill-rule="evenodd"/><path d="M127.826,66.06l-.044.251a1.566,1.566,0,0,1-1.664,1.339,1.726,1.726,0,0,1-1.847-1.84,1.779,1.779,0,0,1,1.847-1.84,1.494,1.494,0,0,1,1.592,1.057l.056.231h.916l-.084-.372a2.334,2.334,0,0,0-2.48-1.782,2.669,2.669,0,0,0-2.086.887,2.8,2.8,0,0,0-.666,1.819,2.654,2.654,0,0,0,.8,1.992,2.807,2.807,0,0,0,1.956.714h0A2.478,2.478,0,0,0,128.68,66.4l.04-.339Z" fill="#e83927" fill-rule="evenodd"/><path d="M145.253,15.213c0,.827.493,1.38,1.773,1.38,1.221,0,1.571-.575,1.571-1.106,0-.625-.426-.876-1.209-1.029l-.805-.159c-.744-.148-.925-.356-.925-.772,0-.449.312-.8,1.264-.8,1.029,0,1.281.525,1.314.974h.252c-.027-.832-.651-1.193-1.637-1.193-.969,0-1.478.427-1.478,1.012s.328.843,1.183,1.024l.728.153c.821.17,1.029.367,1.029.8,0,.46-.35.87-1.308.87-1.051,0-1.5-.432-1.5-1.16Z" fill="#dcdddd" fill-rule="evenodd"/><polygon points="145.518 47.364 148.332 47.364 148.332 47.144 145.77 47.144 145.77 43.455 145.518 43.455 145.518 47.364" fill="#dcdddd" fill-rule="evenodd"/><path d="M148.674,25.273a1.593,1.593,0,0,1-1.669,1.353,1.73,1.73,0,0,1-1.829-1.823,1.773,1.773,0,0,1,1.829-1.823,1.529,1.529,0,0,1,1.6,1.095h.251a1.722,1.722,0,0,0-1.855-1.314,1.991,1.991,0,0,0-2.081,2.042,1.944,1.944,0,0,0,2.081,2.042,1.849,1.849,0,0,0,1.921-1.572Z" fill="#dcdddd" fill-rule="evenodd"/><path d="M145.253,66.472c0,.827.493,1.38,1.773,1.38,1.221,0,1.571-.575,1.571-1.106,0-.624-.426-.876-1.209-1.029l-.805-.159c-.744-.147-.925-.356-.925-.772,0-.448.312-.8,1.264-.8,1.029,0,1.281.525,1.314.974h.252c-.027-.832-.651-1.193-1.637-1.193-.969,0-1.478.427-1.478,1.013s.328.843,1.183,1.023l.728.154c.821.17,1.029.366,1.029.805,0,.459-.35.87-1.308.87-1.051,0-1.5-.432-1.5-1.161Z" fill="#dcdddd" fill-rule="evenodd"/><polygon points="145.365 37.111 148.485 37.111 148.485 36.892 145.617 36.892 145.617 35.195 148.337 35.195 148.337 34.976 145.617 34.976 145.617 33.422 148.453 33.422 148.453 33.203 145.365 33.203 145.365 37.111" fill="#dcdddd" fill-rule="evenodd"/><path d="M145.1,55.558a1.823,1.823,0,1,1,1.823,1.823A1.761,1.761,0,0,1,145.1,55.558Zm-.251,0a2.075,2.075,0,1,0,2.074-2.042A1.985,1.985,0,0,0,144.851,55.558Z" fill="#dcdddd" fill-rule="evenodd"/><polygon points="145.176 78.119 145.428 78.119 145.428 74.561 145.439 74.561 148.357 78.119 148.674 78.119 148.674 74.211 148.422 74.211 148.422 77.768 148.411 77.768 145.494 74.211 145.176 74.211 145.176 78.119" fill="#dcdddd" fill-rule="evenodd"/><path d="M92.226,16.608h.252V14.889h1.746c.855,0,1.227-.449,1.227-1.106,0-.892-.641-1.084-1.188-1.084H92.226Zm.252-3.69h1.681c.339,0,1.04,0,1.04.876,0,.69-.5.876-.98.876H92.478Z" fill="#dcdddd" fill-rule="evenodd"/><path d="M91.9,47.364h.284l.575-1.26h2.157l.575,1.26h.285l-1.8-3.909H93.7Zm1.938-3.624.98,2.145h-1.96Z" fill="#dcdddd" fill-rule="evenodd"/><polygon points="92.421 78.119 92.673 78.119 92.673 76.203 95.114 76.203 95.114 75.984 92.673 75.984 92.673 74.429 95.256 74.429 95.256 74.211 92.421 74.211 92.421 78.119" fill="#dcdddd" fill-rule="evenodd"/><polygon points="92.421 57.615 92.673 57.615 92.673 55.699 95.114 55.699 95.114 55.48 92.673 55.48 92.673 53.926 95.256 53.926 95.256 53.707 92.421 53.707 92.421 57.615" fill="#dcdddd" fill-rule="evenodd"/><polygon points="92.279 37.111 95.399 37.111 95.399 36.892 92.53 36.892 92.53 35.195 95.251 35.195 95.251 34.976 92.53 34.976 92.53 33.422 95.366 33.422 95.366 33.203 92.279 33.203 92.279 37.111" fill="#dcdddd" fill-rule="evenodd"/><polygon points="123.919 57.605 126.733 57.605 126.733 57.386 124.171 57.386 124.171 53.696 123.919 53.696 123.919 57.605" fill="#dcdddd" fill-rule="evenodd"/><polygon points="123.766 78.119 126.886 78.119 126.886 77.9 124.018 77.9 124.018 76.203 126.738 76.203 126.738 75.984 124.018 75.984 124.018 74.429 126.854 74.429 126.854 74.211 123.766 74.211 123.766 78.119" fill="#dcdddd" fill-rule="evenodd"/><path d="M123.714,16.608h.252V14.889h1.746c.854,0,1.227-.449,1.227-1.106,0-.892-.641-1.084-1.188-1.084h-2.037Zm.252-3.69h1.681c.339,0,1.039,0,1.039.876,0,.69-.5.876-.98.876h-1.74Z" fill="#dcdddd" fill-rule="evenodd"/><polygon points="123.908 37.111 124.16 37.111 124.16 35.195 126.602 35.195 126.602 34.976 124.16 34.976 124.16 33.422 126.744 33.422 126.744 33.203 123.908 33.203 123.908 37.111" fill="#dcdddd" fill-rule="evenodd"/><polygon points="134.506 16.608 134.759 16.608 134.759 13.05 134.77 13.05 137.687 16.608 138.005 16.608 138.005 12.699 137.753 12.699 137.753 16.258 137.742 16.258 134.824 12.699 134.506 12.699 134.506 16.608" fill="#dcdddd" fill-rule="evenodd"/><path d="M134.583,45.968c0,.827.493,1.38,1.774,1.38,1.221,0,1.571-.575,1.571-1.106,0-.624-.427-.876-1.21-1.029l-.8-.159c-.745-.147-.925-.356-.925-.772,0-.448.311-.8,1.264-.8,1.029,0,1.281.526,1.314.975h.252c-.028-.833-.652-1.194-1.637-1.194-.969,0-1.478.427-1.478,1.013s.328.843,1.182,1.024l.728.152c.822.171,1.029.367,1.029.806,0,.459-.35.87-1.308.87-1.051,0-1.494-.433-1.5-1.161Z" fill="#dcdddd" fill-rule="evenodd"/><polygon points="134.849 77.958 137.663 77.958 137.663 77.74 135.101 77.74 135.101 74.05 134.849 74.05 134.849 77.958" fill="#dcdddd" fill-rule="evenodd"/><path d="M138.005,55.952a1.593,1.593,0,0,1-1.67,1.352,1.73,1.73,0,0,1-1.829-1.823,1.773,1.773,0,0,1,1.829-1.822,1.527,1.527,0,0,1,1.6,1.094h.252a1.723,1.723,0,0,0-1.856-1.313,1.99,1.99,0,0,0-2.08,2.041,1.943,1.943,0,0,0,2.08,2.042,1.847,1.847,0,0,0,1.921-1.571Z" fill="#dcdddd" fill-rule="evenodd"/><path d="M134.644,37.111h.251V35.392h1.747c.854,0,1.226-.448,1.226-1.105,0-.892-.64-1.084-1.188-1.084h-2.036Zm.251-3.689h1.681c.34,0,1.04,0,1.04.876,0,.689-.5.875-.98.875H134.9Z" fill="#dcdddd" fill-rule="evenodd"/><polygon points="113.617 16.608 116.737 16.608 116.737 16.389 113.869 16.389 113.869 14.692 116.589 14.692 116.589 14.473 113.869 14.473 113.869 12.918 116.705 12.918 116.705 12.699 113.617 12.699 113.617 16.608" fill="#dcdddd" fill-rule="evenodd"/><polygon points="113.617 57.615 116.737 57.615 116.737 57.396 113.869 57.396 113.869 55.699 116.589 55.699 116.589 55.48 113.869 55.48 113.869 53.926 116.705 53.926 116.705 53.707 113.617 53.707 113.617 57.615" fill="#dcdddd" fill-rule="evenodd"/><path d="M116.926,35.525a1.593,1.593,0,0,1-1.669,1.352,1.73,1.73,0,0,1-1.829-1.823,1.774,1.774,0,0,1,1.829-1.823,1.53,1.53,0,0,1,1.6,1.095h.251a1.723,1.723,0,0,0-1.855-1.314,1.991,1.991,0,0,0-2.08,2.042,1.943,1.943,0,0,0,2.08,2.042,1.849,1.849,0,0,0,1.921-1.571Z" fill="#dcdddd" fill-rule="evenodd"/><polygon points="113.428 47.364 113.68 47.364 113.68 43.805 113.691 43.805 116.609 47.364 116.926 47.364 116.926 43.455 116.674 43.455 116.674 47.013 116.664 47.013 113.746 43.455 113.428 43.455 113.428 47.364" fill="#dcdddd" fill-rule="evenodd"/><polygon points="113.428 78.119 113.68 78.119 113.68 74.561 113.691 74.561 116.609 78.119 116.926 78.119 116.926 74.211 116.674 74.211 116.674 77.768 116.664 77.768 113.746 74.211 113.428 74.211 113.428 78.119" fill="#dcdddd" fill-rule="evenodd"/><polygon points="81.326 26.917 81.577 26.917 81.577 23.359 81.589 23.359 84.506 26.917 84.824 26.917 84.824 23.009 84.572 23.009 84.572 26.567 84.561 26.567 81.643 23.009 81.326 23.009 81.326 26.917" fill="#dcdddd" fill-rule="evenodd"/><path d="M81.4,76.724c0,.827.493,1.38,1.774,1.38,1.221,0,1.571-.575,1.571-1.106,0-.624-.427-.876-1.21-1.029l-.8-.159c-.745-.147-.925-.356-.925-.771,0-.449.311-.8,1.264-.8,1.029,0,1.281.526,1.314.975h.252c-.028-.833-.652-1.194-1.637-1.194-.969,0-1.478.427-1.478,1.013s.328.843,1.182,1.024l.728.153c.821.17,1.029.367,1.029.805,0,.46-.35.87-1.308.87-1.051,0-1.494-.433-1.5-1.161Z" fill="#dcdddd" fill-rule="evenodd"/><polygon points="81.515 57.615 84.635 57.615 84.635 57.396 81.766 57.396 81.766 55.699 84.487 55.699 84.487 55.48 81.766 55.48 81.766 53.926 84.602 53.926 84.602 53.707 81.515 53.707 81.515 57.615" fill="#dcdddd" fill-rule="evenodd"/><path d="M81.252,35a1.823,1.823,0,1,1,1.823,1.823A1.761,1.761,0,0,1,81.252,35ZM81,35a2.075,2.075,0,1,0,2.075-2.042A1.986,1.986,0,0,0,81,35Z" fill="#dcdddd" fill-rule="evenodd"/><polygon points="81.657 47.364 81.909 47.364 81.909 45.447 84.35 45.447 84.35 45.228 81.909 45.228 81.909 43.674 84.493 43.674 84.493 43.455 81.657 43.455 81.657 47.364" fill="#dcdddd" fill-rule="evenodd"/><path d="M84.824,66.2a1.594,1.594,0,0,1-1.67,1.353,1.729,1.729,0,0,1-1.828-1.823,1.772,1.772,0,0,1,1.828-1.823A1.528,1.528,0,0,1,84.758,65h.252a1.723,1.723,0,0,0-1.856-1.314,1.991,1.991,0,0,0-2.08,2.042,1.943,1.943,0,0,0,2.08,2.042A1.847,1.847,0,0,0,85.075,66.2Z" fill="#dcdddd" fill-rule="evenodd"/><polygon points="81.668 16.608 84.482 16.608 84.482 16.389 81.92 16.389 81.92 12.699 81.668 12.699 81.668 16.608" fill="#dcdddd" fill-rule="evenodd"/><path d="M103.416,57.615h.252V55.9h1.746c.854,0,1.227-.448,1.227-1.106,0-.892-.641-1.083-1.188-1.083h-2.037Zm.252-3.689h1.681c.339,0,1.04,0,1.04.876,0,.689-.5.875-.98.875h-1.741Z" fill="#dcdddd" fill-rule="evenodd"/><path d="M103.09,37.111h.285l.575-1.259h2.157l.575,1.259h.284L105.171,33.2h-.285Zm1.938-3.623.98,2.145h-1.959Z" fill="#dcdddd" fill-rule="evenodd"/><polygon points="103.468 78.119 106.589 78.119 106.589 77.9 103.72 77.9 103.72 76.203 106.441 76.203 106.441 75.984 103.72 75.984 103.72 74.429 106.556 74.429 106.556 74.211 103.468 74.211 103.468 78.119" fill="#dcdddd" fill-rule="evenodd"/><path d="M103.206,14.551a1.823,1.823,0,1,1,1.822,1.822A1.76,1.76,0,0,1,103.206,14.551Zm-.252,0a2.075,2.075,0,1,0,2.074-2.042A1.986,1.986,0,0,0,102.954,14.551Z" fill="#dcdddd" fill-rule="evenodd"/><path d="M94.549,83.634q0,.54-.005.895c0,.235-.007.439-.007.614,0,.214,0,.4,0,.548s0,.282,0,.392a1.649,1.649,0,0,1-.094.576,1.18,1.18,0,0,1-.28.434,1.331,1.331,0,0,1-.464.292,1.75,1.75,0,0,1-.635.106,1.8,1.8,0,0,1-.636-.1,1.31,1.31,0,0,1-.464-.294,1.173,1.173,0,0,1-.282-.434,1.649,1.649,0,0,1-.093-.576c0-.11,0-.241,0-.392s0-.334,0-.548c0-.175,0-.379-.007-.614s-.006-.535-.006-.895h.443c0,.046,0,.206-.007.48s0,.631,0,1.076c0,.135,0,.274,0,.418s0,.294,0,.445a1.024,1.024,0,0,0,.281.781,1.067,1.067,0,0,0,.762.266,1.079,1.079,0,0,0,.781-.254,1.065,1.065,0,0,0,.26-.793c0-.151,0-.3,0-.445s0-.283,0-.418c0-.445,0-.809-.007-1.091s-.006-.438-.006-.465Z" fill="#e83927"/><path d="M98.552,87.177l-.338.29c-.039-.044-.179-.206-.419-.489s-.609-.723-1.11-1.321l0-.026a1.337,1.337,0,0,0,.272-.122,1.374,1.374,0,0,0,.285-.2.927.927,0,0,0,.174-.235.818.818,0,0,0,.075-.379.637.637,0,0,0-.11-.373.626.626,0,0,0-.3-.229,1.1,1.1,0,0,0-.328-.075c-.114-.008-.22-.012-.317-.012h-.223c0,.356-.008.671-.008.944s0,.465,0,.576c0,.258,0,.608,0,1.049s0,.718.006.83h-.441c0-.112,0-.33.006-.653s.005-.727.005-1.209v-.52c0-.253,0-.716-.011-1.384l.267-.006c.162,0,.311-.007.448-.007a3.724,3.724,0,0,1,.454.029,1.577,1.577,0,0,1,.43.12.992.992,0,0,1,.422.349.93.93,0,0,1,.156.539.966.966,0,0,1-.236.665,2.08,2.08,0,0,1-.445.4v.014c.246.3.515.61.808.927Z" fill="#e83927"/><path d="M101.272,86.635a.64.64,0,0,1-.232.23,1.177,1.177,0,0,1-.447.141,4.615,4.615,0,0,1-.571.034c-.057,0-.114,0-.174-.006s-.107,0-.143-.007c0-.021,0-.2,0-.524s0-.65,0-.973c0-.141,0-.363,0-.672s0-.6,0-.876l.136,0c.07,0,.148,0,.232,0a2.154,2.154,0,0,1,.369.03,1.049,1.049,0,0,1,.289.088.565.565,0,0,1,.22.2.529.529,0,0,1,.081.3.6.6,0,0,1-.073.294.676.676,0,0,1-.185.215.837.837,0,0,1-.27.131,1.44,1.44,0,0,1-.351.05l.043.337.122,0c.061,0,.143,0,.243,0a.982.982,0,0,1,.348.06.653.653,0,0,1,.251.156.734.734,0,0,1,.145.218.664.664,0,0,1,.049.259A.648.648,0,0,1,101.272,86.635Zm.482-.7a.829.829,0,0,0-.175-.267.931.931,0,0,0-.3-.214,1.246,1.246,0,0,0-.361-.092V85.33a.9.9,0,0,0,.4-.3.807.807,0,0,0,.176-.514.764.764,0,0,0-.139-.466.888.888,0,0,0-.384-.291,1.7,1.7,0,0,0-.4-.106,3.113,3.113,0,0,0-.51-.038c-.163,0-.33,0-.5.011l-.3.013c0,.012,0,.181.006.5s.006.761.006,1.313c0,.292,0,.6,0,.917s-.005.662-.01,1.022c.022,0,.126.008.313.014s.37.011.547.011a3.216,3.216,0,0,0,.639-.058,1.851,1.851,0,0,0,.513-.184,1.068,1.068,0,0,0,.4-.371.954.954,0,0,0,.138-.508A.981.981,0,0,0,101.754,85.931Z" fill="#e83927"/><path d="M104.61,85.7h-1.3c.084-.193.19-.44.319-.743s.239-.557.329-.765l.011,0c.119.273.231.536.339.786s.211.49.308.72Zm.615.319q-.519-1.18-1.055-2.443h-.35c-.364.84-.715,1.644-1.053,2.406s-.529,1.194-.576,1.291l.36.2c.011-.028.068-.162.171-.4s.248-.579.436-1.017h1.607q.255.611.412,1c.1.259.16.4.168.42l.419-.226Q105.742,87.205,105.225,86.023Z" fill="#e83927"/><path d="M109.521,83.634c0,.294,0,.631-.007,1.009s0,.654,0,.82q0,.8.005,1.27c0,.315,0,.483,0,.5l-.36.183q-.811-1.149-1.518-2.077c-.471-.617-.742-.975-.816-1.07l0,0q0,.755.01,1.855t.013,1.27h-.42c0-.046.005-.214.007-.5s0-.688,0-1.2c0-.206,0-.476,0-.816s0-.7-.01-1.077l.409-.2.824,1.1q.777,1.032,1.462,1.917l0,0c0-.29,0-.775-.011-1.459s-.012-1.192-.012-1.522Z" fill="#e83927"/><path d="M114.924,87.177l-.338.29c-.039-.044-.18-.206-.419-.489s-.609-.723-1.11-1.321l0-.026a1.61,1.61,0,0,0,.557-.327.929.929,0,0,0,.175-.235.833.833,0,0,0,.073-.379.636.636,0,0,0-.109-.373.621.621,0,0,0-.3-.229,1.1,1.1,0,0,0-.327-.075c-.115-.008-.22-.012-.318-.012h-.222c-.005.356-.008.671-.009.943s0,.466,0,.577q0,.387,0,1.049c0,.441,0,.718.007.83h-.442q0-.168.007-.653t0-1.209v-.52c0-.253,0-.716-.011-1.384l.269-.006c.161,0,.31-.007.445-.007a3.741,3.741,0,0,1,.455.029,1.577,1.577,0,0,1,.43.12.977.977,0,0,1,.421.349.922.922,0,0,1,.156.539.966.966,0,0,1-.235.665,2.059,2.059,0,0,1-.446.4v.014c.246.3.516.61.809.927Z" fill="#e83927"/><path d="M117.921,87.4c-.016,0-.135,0-.356,0l-.826,0-.624,0c-.189,0-.349,0-.48,0q0-.162.008-.708t0-1.124c0-.213,0-.493,0-.843s0-.712-.009-1.085l.477,0c.191,0,.387,0,.59,0,.342,0,.621,0,.835,0l.349,0v.39l-.336,0q-.312,0-.772,0h-.7c0,.214,0,.425,0,.638s0,.414,0,.6h.578c.313,0,.594,0,.841,0l.395,0v.39l-.441,0h-1.373c0,.354,0,.637,0,.845s0,.384,0,.525c.105,0,.234,0,.383.006h.486c.266,0,.49,0,.671,0l.3,0Z" fill="#e83927"/><path d="M120.762,86.338a.986.986,0,0,1-.13.508,1.04,1.04,0,0,1-.351.353,1.61,1.61,0,0,1-.464.186,2.393,2.393,0,0,1-.577.064c-.115,0-.233,0-.357-.011s-.194-.012-.213-.014l-.022-.4c.025,0,.095.011.21.022s.249.015.4.015a2.257,2.257,0,0,0,.367-.04,1.258,1.258,0,0,0,.346-.1.7.7,0,0,0,.243-.2.491.491,0,0,0,.084-.294.582.582,0,0,0-.084-.32.878.878,0,0,0-.28-.252c-.085-.052-.194-.112-.328-.177a3.179,3.179,0,0,1-.362-.2,1.147,1.147,0,0,1-.392-.381.921.921,0,0,1-.115-.46.9.9,0,0,1,.105-.448,1.06,1.06,0,0,1,.7-.525,1.992,1.992,0,0,1,.554-.069c.111,0,.224,0,.338.01s.179.011.2.014l.037.4-.2-.02c-.114-.011-.255-.017-.424-.017a1.422,1.422,0,0,0-.311.036.89.89,0,0,0-.281.109.561.561,0,0,0-.182.181.481.481,0,0,0-.075.269.5.5,0,0,0,.079.267.89.89,0,0,0,.3.263,3.317,3.317,0,0,0,.291.161c.121.062.239.128.356.2a1.229,1.229,0,0,1,.4.382A.9.9,0,0,1,120.762,86.338Z" fill="#e83927"/><path d="M124.017,87.4c-.016,0-.135,0-.357,0l-.825,0-.625,0c-.189,0-.349,0-.479,0,0-.108.005-.344.008-.708s0-.737,0-1.124c0-.213,0-.493,0-.843s-.006-.712-.01-1.085l.476,0c.192,0,.388,0,.591,0,.341,0,.62,0,.835,0l.349,0v.39l-.336,0q-.311,0-.772,0h-.7c0,.214,0,.425,0,.638s0,.414,0,.6h.578c.315,0,.6,0,.843,0l.394,0v.39l-.441,0h-1.374c0,.354,0,.637,0,.845s0,.384,0,.525c.105,0,.233,0,.384.006h.485c.266,0,.49,0,.672,0l.3,0Z" fill="#e83927"/><path d="M126.886,85.7h-1.3c.084-.193.191-.44.32-.743s.237-.557.329-.765l.01,0q.178.41.34.786l.308.72Zm.616.319q-.519-1.18-1.054-2.443H126.1c-.363.84-.714,1.644-1.051,2.406s-.53,1.194-.577,1.291l.36.2c.011-.028.068-.162.171-.4s.248-.579.437-1.017h1.606q.256.611.412,1c.105.259.16.4.168.42l.419-.226Q128.019,87.205,127.5,86.023Z" fill="#e83927"/><path d="M131.479,87.177l-.338.29c-.04-.044-.18-.206-.419-.489s-.611-.723-1.11-1.321l0-.026a1.337,1.337,0,0,0,.272-.122,1.4,1.4,0,0,0,.285-.2.9.9,0,0,0,.174-.235.819.819,0,0,0,.074-.379.643.643,0,0,0-.109-.373.621.621,0,0,0-.3-.229,1.1,1.1,0,0,0-.327-.075c-.115-.008-.22-.012-.317-.012h-.223c-.006.356-.009.671-.009.943s0,.466,0,.577q0,.387,0,1.049c0,.441,0,.718.007.83H128.7q0-.168.007-.653t0-1.209v-.52c0-.253,0-.716-.011-1.384l.269-.006c.161,0,.31-.007.446-.007a3.7,3.7,0,0,1,.453.029,1.584,1.584,0,0,1,.431.12.986.986,0,0,1,.422.349.93.93,0,0,1,.156.539.966.966,0,0,1-.236.665,2.082,2.082,0,0,1-.446.4v.014c.246.3.516.61.809.927Z" fill="#e83927"/><path d="M134.573,87.058c0,.017-.006.064-.015.143s-.015.161-.023.254h-.093a3.643,3.643,0,0,1-1.167-.174,2.115,2.115,0,0,1-.838-.5,1.7,1.7,0,0,1-.361-.547,1.87,1.87,0,0,1-.133-.727,1.646,1.646,0,0,1,.132-.668,1.787,1.787,0,0,1,.343-.529,2.135,2.135,0,0,1,.831-.518,3.19,3.19,0,0,1,1.117-.192h.121c0,.034,0,.087.01.162s.012.154.019.241h-.092a3.289,3.289,0,0,0-.7.077,2.048,2.048,0,0,0-.62.232,1.448,1.448,0,0,0-.523.52,1.349,1.349,0,0,0-.183.684,1.462,1.462,0,0,0,.164.691,1.341,1.341,0,0,0,.519.523,2.144,2.144,0,0,0,.649.254,3.35,3.35,0,0,0,.714.078h.051C134.522,87.06,134.547,87.06,134.573,87.058Z" fill="#e83927"/><path d="M138.41,87.4h-.442c0-.112,0-.32.006-.623s.005-.681.005-1.132H135.8c0,.52,0,.916,0,1.184s0,.459.006.571h-.442c0-.112,0-.311.007-.6s0-.77,0-1.453q0-.31,0-.755c0-.3,0-.616-.008-.959h.442c0,.285,0,.563,0,.837s0,.534,0,.781h2.182q0-.371-.006-.78c0-.273-.005-.552-.005-.838h.442q0,.425-.008.981t0,.91q0,.825,0,1.267C138.406,87.086,138.408,87.288,138.41,87.4Z" fill="#e83927"/></svg>