<svg id="レイヤー_1" data-name="レイヤー 1" xmlns="http://www.w3.org/2000/svg" width="230" height="100" viewBox="0 0 230 100"><title>sp_sonny</title><path d="M70.9,54.318a6.516,6.516,0,0,0,1.595.151c.3,0,.622-.009.976-.027.4-.022.818-.031,1.231-.031.728,0,1.481.031,2.245.093a3.357,3.357,0,0,1,2.03.571,1.118,1.118,0,0,1,.252.78,2.312,2.312,0,0,1-.041.418,4.768,4.768,0,0,1-.613,1.651,5.87,5.87,0,0,1-1.212,1.407,6.318,6.318,0,0,1-1.7,1.059c-.671.283-1.328.544-1.984.79a3.488,3.488,0,0,0-2.408,2.873l-.018.091.031.083a1.505,1.505,0,0,0,.246.507.676.676,0,0,0,.524.279h.006A.7.7,0,0,0,72.211,65a3.209,3.209,0,0,0,1-.536c.383-.27.741-.508,1.081-.717s.79-.472,1.372-.785,1.266-.7,2-1.153a8.729,8.729,0,0,0,2.078-1.779,6.252,6.252,0,0,0,1.292-2.479,10.423,10.423,0,0,0,.3,1.778,4.862,4.862,0,0,0,.946,2.085,2.3,2.3,0,0,0,1.36.817,1.869,1.869,0,0,0,.271.02h0a2.306,2.306,0,0,0,1.189-.352,4.362,4.362,0,0,0,1.33-1.319,7.027,7.027,0,0,0,.971-2.515,8.374,8.374,0,0,0,.194-1.744,6.194,6.194,0,0,0-.111-1.167,3.4,3.4,0,0,0-.92-1.948,1.982,1.982,0,0,0-1.294-.556,1.171,1.171,0,0,0-.124.007,1.742,1.742,0,0,0-1.018.415.765.765,0,0,0-.084-.153.606.606,0,0,0-.451-.279.281.281,0,0,0-.074-.009,1.253,1.253,0,0,0-.512.16,5.783,5.783,0,0,0-.593.367,2.787,2.787,0,0,0-1.105,1.62c-.016.058-.029.112-.044.168a2.411,2.411,0,0,0-.908-1.722,5.256,5.256,0,0,0-2.1-.757A12.786,12.786,0,0,0,76,52.292c-.4,0-.827.016-1.273.041-.391.014-.741.027-1.038.027a3.851,3.851,0,0,1-1.374-.152.183.183,0,0,1-.058-.042h0a.732.732,0,0,1,.146-.306,4.847,4.847,0,0,1,1.2-1.15c.562-.4,1.133-.823,1.708-1.256a3.805,3.805,0,0,1,1.453-.726,3.166,3.166,0,0,1,.566-.055,2.63,2.63,0,0,1,.688.092,2.469,2.469,0,0,0,.67.1,1.442,1.442,0,0,0,.736-.183,1.573,1.573,0,0,0,.647-1.377,1.383,1.383,0,0,0,.011-.187,1.762,1.762,0,0,0-.116-.681.8.8,0,0,0-.5-.465,2.121,2.121,0,0,0-.567-.064,6.135,6.135,0,0,0-.915.076,7.731,7.731,0,0,0-2.271.745,20.908,20.908,0,0,0-2.369,1.337,11.177,11.177,0,0,0-2.079,1.744,9.068,9.068,0,0,0-1.412,1.934,2.584,2.584,0,0,0-.353,1.168,1.2,1.2,0,0,0,.142.566,1.9,1.9,0,0,0,1.262.837m12.128,1.467a2.468,2.468,0,0,1,.594-1.243A2.385,2.385,0,0,0,84.071,54a1.17,1.17,0,0,0,.537.359,2.946,2.946,0,0,1,.659.344c.079.014.312.444.382,1.276.025.259.037.5.037.737a4.733,4.733,0,0,1-.175,1.323,5.785,5.785,0,0,1-.948,1.769c-.263.352-.468.434-.563.427a.468.468,0,0,1-.3-.143,2.86,2.86,0,0,1-.726-1.911c-.039-.414-.061-.8-.061-1.14a6.087,6.087,0,0,1,.116-1.253" fill="#375c77"/><path d="M88.761,55.788a15.716,15.716,0,0,1,.233,2.645,7.041,7.041,0,0,1-.261,2.115,2.3,2.3,0,0,0-.138.747,1.033,1.033,0,0,0,.381.852l.083.064.1.016a1.336,1.336,0,0,0,.211.013,1.137,1.137,0,0,0,1.068-.716,5.95,5.95,0,0,0,.318-2.208c0-.12.007-.248.007-.374a22.03,22.03,0,0,0-.138-2.5,5.038,5.038,0,0,1-.038-.6,2.329,2.329,0,0,1,.26-1.189c.26-.44.509-.635.566-.636a.073.073,0,0,1,.031-.006s.049,0,.169.176A4.16,4.16,0,0,1,91.9,55.8a20.653,20.653,0,0,0,.375,2.983c.2,1.046.348,1.9.445,2.546a9.013,9.013,0,0,0,.3,1.433,1.155,1.155,0,0,0,.89.725,1.534,1.534,0,0,0,.33.038h.025a.889.889,0,0,0,.732-.369,1.03,1.03,0,0,0,.176-.56,1.108,1.108,0,0,0-.1-.446c-.1-.212-.275-.577-.521-1.095a7.3,7.3,0,0,1-.525-2.012q-.193-1.354-.427-3.334a9.922,9.922,0,0,0-.643-2.857,1.605,1.605,0,0,0-1.418-1h-.087a1.648,1.648,0,0,0-1.3.52,2.543,2.543,0,0,0-.279.372,1.848,1.848,0,0,0-.182-.364.837.837,0,0,0-.68-.382.731.731,0,0,0-.242.04.873.873,0,0,0-.623.9,2.36,2.36,0,0,0,.113.653,18.113,18.113,0,0,1,.508,2.192" fill="#375c77"/><path d="M95.526,55.788a15.21,15.21,0,0,1,.228,2.645,6.762,6.762,0,0,1-.261,2.115,2.426,2.426,0,0,0-.131.747,1.048,1.048,0,0,0,.375.852l.084.064.109.016a1.291,1.291,0,0,0,.208.013,1.133,1.133,0,0,0,1.065-.716,5.8,5.8,0,0,0,.321-2.208c0-.12,0-.248,0-.374a22.771,22.771,0,0,0-.134-2.5,4.849,4.849,0,0,1-.039-.6,2.3,2.3,0,0,1,.264-1.189c.263-.44.5-.635.569-.636.012-.006.012-.006.018-.006h0c.007,0,.057,0,.169.176a4.15,4.15,0,0,1,.286,1.615,21.333,21.333,0,0,0,.37,2.983c.2,1.046.353,1.9.45,2.546a9.221,9.221,0,0,0,.3,1.433,1.155,1.155,0,0,0,.885.725,1.579,1.579,0,0,0,.335.038h.025a.9.9,0,0,0,.732-.369,1.049,1.049,0,0,0,.178-.56,1.1,1.1,0,0,0-.106-.446c-.1-.212-.272-.577-.515-1.095a7.265,7.265,0,0,1-.525-2.012c-.128-.9-.275-2.014-.429-3.334a9.955,9.955,0,0,0-.638-2.857,1.615,1.615,0,0,0-1.426-1h-.081a1.648,1.648,0,0,0-1.307.52,2.694,2.694,0,0,0-.279.372,1.838,1.838,0,0,0-.179-.364.846.846,0,0,0-.679-.382.74.74,0,0,0-.245.04.874.874,0,0,0-.623.9,2.363,2.363,0,0,0,.114.653,20.292,20.292,0,0,1,.506,2.192" fill="#375c77"/><path d="M102.169,56.786a3.042,3.042,0,0,0,1.424,1.35,2.7,2.7,0,0,0,1,.188,3.132,3.132,0,0,0,.6-.059.444.444,0,0,1,.145-.023c.089,0,.095.014.115.03a.5.5,0,0,1,.08.239c.075.5.166,1.017.287,1.573a1.67,1.67,0,0,1,.034.336,1.082,1.082,0,0,1-.256.727c-.312.384-.631.759-.955,1.13s-.677.715-1.047,1.068a1.57,1.57,0,0,0-.641,1.064.748.748,0,0,0,.028.192.67.67,0,0,0,.272.395.783.783,0,0,0,.447.13,1.6,1.6,0,0,0,.35-.044,2.426,2.426,0,0,0,1.141-.746c.3-.33.567-.6.82-.843a.693.693,0,0,1,.5-.23h.02c.046.009.036,0,.071.037a.824.824,0,0,1,.122.309c.079.417.2,1.089.333,2s.259,1.943.349,3.11.105,1.759.105,1.967a21.275,21.275,0,0,1-.2,3.053,13.044,13.044,0,0,0-.169,1.836,3.263,3.263,0,0,0,.041.568,1.61,1.61,0,0,0,.5,1.073.624.624,0,0,0,.365.124h.006a.931.931,0,0,0,.735-.506,3.186,3.186,0,0,0,.39-1.676c.017-.671.134-4.981.053-6.088-.121-1.516-.271-2.833-.46-3.951s-.322-1.962-.4-2.574a3.424,3.424,0,0,1-.047-.568,1.275,1.275,0,0,1,.094-.552,4.683,4.683,0,0,1,.9-1.055,1.713,1.713,0,0,0,.685-1.116.688.688,0,0,0-.2-.487.848.848,0,0,0-.6-.265.99.99,0,0,0-.609.232c-.26.205-.593.463-1,.779a2.26,2.26,0,0,1-.172-.653,12.319,12.319,0,0,1-.177-1.848,2.549,2.549,0,0,1,.009-.266c.029-.541.068-1.188.126-1.948a6.139,6.139,0,0,1,.34-1.732,3.159,3.159,0,0,0,.255-1.147,1.617,1.617,0,0,0-.016-.241,1.08,1.08,0,0,0-.749-.928,1.02,1.02,0,0,0-.3-.047.867.867,0,0,0-.79.565,5.134,5.134,0,0,0-.329,1.1,11.53,11.53,0,0,0-.157,1.566,6.63,6.63,0,0,1-.347,1.784,1.414,1.414,0,0,1-.306.566.37.37,0,0,1-.282.129,1.135,1.135,0,0,1-.861-.464,1.873,1.873,0,0,1-.462-1.141,3.986,3.986,0,0,0-.314-1.434.869.869,0,0,0-.778-.544,1.268,1.268,0,0,0-.624.192l-.06.031-.036.049a1.373,1.373,0,0,0-.317.951,3.23,3.23,0,0,0,.09.738,6.653,6.653,0,0,0,.826,1.992" fill="#375c77"/><path d="M117.017,48.113a1.912,1.912,0,0,1,.7,1,8.688,8.688,0,0,1,.325,2.163c.055.959.085,2.37.085,4.221s-.045,3.57-.141,5.166a21.6,21.6,0,0,1-.31,3.059,1.852,1.852,0,0,0-.067.465.948.948,0,0,0,.582.916,2.456,2.456,0,0,0,.948.164c.157,0,.323-.013.5-.029l.1-.01.083-.063a5.788,5.788,0,0,0,1.149-1.018c.27-.312.622-.76,1.072-1.344a10.275,10.275,0,0,1,1.4-1.478,8.692,8.692,0,0,1,1.964-1.221,4.964,4.964,0,0,1,2.17-.539,1,1,0,0,1,.146.007c.119,0,.227,0,.339,0a2.191,2.191,0,0,0,1.452-.33.8.8,0,0,0,.276-.587.9.9,0,0,0-.211-.555,2.242,2.242,0,0,0-1.66-.535c-.091,0-.176,0-.267,0a6.669,6.669,0,0,0-2.22.4,10.068,10.068,0,0,0-2.453,1.253,10.59,10.59,0,0,0-2.082,1.856,5.958,5.958,0,0,1-.7.7,1.151,1.151,0,0,1-.185.126,1.563,1.563,0,0,1-.019-.259c0-.109.008-.235.019-.384q.109-1.128.18-2.751c.046-1.08.06-2.21.06-3.392s-.014-2.436-.044-3.762a18.272,18.272,0,0,0-.219-2.822,3.834,3.834,0,0,0-.49-1.306,2.04,2.04,0,0,0-1.282-.759,2.485,2.485,0,0,0-.576-.077,1.219,1.219,0,0,0-.922.354.8.8,0,0,0-.235.544,1.043,1.043,0,0,0,.542.821" fill="#375c77"/><path d="M131.228,54.612a1.045,1.045,0,0,0,.327.041,3.018,3.018,0,0,0,1.247-.346,2.688,2.688,0,0,1,1.148-.268,2.31,2.31,0,0,1,.388.033.887.887,0,0,1,.247.061.338.338,0,0,1-.062.112,3.843,3.843,0,0,1-1.434,1.129,4.347,4.347,0,0,0-1.9,1.855,3.884,3.884,0,0,0-.441,1.852,5.55,5.55,0,0,0,.088.965,3.117,3.117,0,0,0,1.022,2.123,2.271,2.271,0,0,0,1.259.4h.012a1.308,1.308,0,0,0,.187-.009,2.778,2.778,0,0,0,1.511-.725,4.211,4.211,0,0,0,1.207-1.926,4.133,4.133,0,0,1,.336-.773.322.322,0,0,1,.049-.067,1.576,1.576,0,0,1,.419.317,1.164,1.164,0,0,0,.824.392.966.966,0,0,0,.42-.1.852.852,0,0,0,.508-.757.958.958,0,0,0-.042-.273,1.868,1.868,0,0,0-.65-.892,7.928,7.928,0,0,1-.8-.772,1.676,1.676,0,0,1-.442-.85,8.232,8.232,0,0,1-.082-1.379c0-.1,0-.2,0-.306V54.4a2.2,2.2,0,0,0-1.013-2,2.626,2.626,0,0,0-1.4-.347,5.821,5.821,0,0,0-1.37.184,7.242,7.242,0,0,0-1.342.44,1.436,1.436,0,0,0-.757.651l-.018.038-.006.037a1.686,1.686,0,0,0-.039.352.85.85,0,0,0,.6.861m3.549,2h.009a.693.693,0,0,1,.05.239,6.173,6.173,0,0,1-.214,1.59,4.619,4.619,0,0,1-.937,1.684,1.522,1.522,0,0,1-.294.286c-.066.046-.095.049-.106.049s-.092-.069-.18-.255a2.656,2.656,0,0,1-.266-1.156,2.608,2.608,0,0,1,.064-.586,2.639,2.639,0,0,1,1.272-1.583,1.487,1.487,0,0,1,.592-.268Z" fill="#375c77"/><path d="M139.254,55.843c.112,1.257.2,2.439.255,3.533a4.5,4.5,0,0,0,.219,1.281.881.881,0,0,0,.788.638c.039,0,.08-.007.12-.011a.89.89,0,0,0,.109-.009,1.337,1.337,0,0,0-.392.762v.026a.342.342,0,0,0-.006.058.709.709,0,0,0,.237.546.872.872,0,0,0,.532.189h.053a2.321,2.321,0,0,0,1.312-.6,7.627,7.627,0,0,0,1.431-1.549,7.525,7.525,0,0,0,1.117-2.681,11.586,11.586,0,0,0,.346-2.71c0-.147,0-.3-.012-.431a4.583,4.583,0,0,0-.58-2.313,1.788,1.788,0,0,0-1.562-.792c-.082,0-.17,0-.25.012a2.224,2.224,0,0,0-1.819,1.241l-.244.445c-.025-.18-.057-.385-.085-.609a21.471,21.471,0,0,1-.205-2.769c0-.208.006-.412.01-.6a4.341,4.341,0,0,1,.39-1.91,2.614,2.614,0,0,0,.473-1.229c0-.025,0-.049,0-.071a.862.862,0,0,0-.574-.867.747.747,0,0,0-.217-.036c-.486.036-.746.352-1.074.782a4.916,4.916,0,0,0-.783,2.178,9.4,9.4,0,0,0-.1,1.462,19.941,19.941,0,0,0,.114,2.041c.146,1.4.275,2.732.389,4m2.39.277a5.735,5.735,0,0,1,.969-1.789,1.821,1.821,0,0,1,.336-.351.4.4,0,0,1,.082-.052c.006,0,.01.009.01.018a2.583,2.583,0,0,1,.363,1.31c.011.134.017.281.017.437a10.816,10.816,0,0,1-.161,1.746,4.539,4.539,0,0,1-.894,2.1,11.56,11.56,0,0,1-.868,1.02,1.527,1.527,0,0,0,.011-.157,1.149,1.149,0,0,0-.024-.245,14.772,14.772,0,0,1-.119-1.884.9.9,0,0,1-.009-.156,6.581,6.581,0,0,1,.287-2" fill="#375c77"/><path d="M146.279,59.407a1.869,1.869,0,0,1,.284.568,3.508,3.508,0,0,0,.981,1.477,3.326,3.326,0,0,0,1.994.737h.055a8.894,8.894,0,0,0,1.856-.275,5.357,5.357,0,0,0,2.036-1.316,6.906,6.906,0,0,0,1.7-2.274,5.1,5.1,0,0,0,.525-1.744,1.085,1.085,0,0,0-.51-.989.85.85,0,0,0-.433-.127.779.779,0,0,0-.619.33,5.413,5.413,0,0,0-.629,1.435,4.406,4.406,0,0,1-1.047,1.7,4.361,4.361,0,0,1-1.637,1.086,2.6,2.6,0,0,1-.919.185,1.689,1.689,0,0,1-.6-.1,1.16,1.16,0,0,1-.787-.655,1.3,1.3,0,0,1-.1-.449.37.37,0,0,1,.04-.188,2.259,2.259,0,0,1,.984-.614A4.4,4.4,0,0,0,151.35,56.5a4.015,4.015,0,0,0,.7-2.2c0-.118-.008-.237-.018-.351a2.055,2.055,0,0,0-1-1.818,2.169,2.169,0,0,0-.907-.2,2.784,2.784,0,0,0-.889.162,3.424,3.424,0,0,0-1.584,1.186,6.566,6.566,0,0,0-1,2.239c-.234.9-.377,1.513-.428,1.885a.855.855,0,0,1-.264.542.948.948,0,0,0-.383.7.7.7,0,0,0,.064.279.885.885,0,0,0,.648.489m2.586-4.521a1.832,1.832,0,0,1,.956-1.011.806.806,0,0,1,.24-.05c.1.024.053-.027.129.121a.744.744,0,0,1,.039.259,2.446,2.446,0,0,1-.253.945,2.535,2.535,0,0,1-1.212,1.247,1.076,1.076,0,0,1-.416.143h-.028a.45.45,0,0,1-.044-.153,7.015,7.015,0,0,1,.589-1.5" fill="#375c77"/><path d="M155.165,52.233q.408,1.869,1.065,3.973c.425,1.39.779,2.523,1.048,3.4s.5,1.556.677,2.038a1.694,1.694,0,0,0,1.124,1.134l.05.011h.047c.044,0,.089,0,.135,0a1.569,1.569,0,0,0,.806-.187.834.834,0,0,0,.382-.721,1.208,1.208,0,0,0-.009-.15,6.235,6.235,0,0,0-.776-1.968,11.693,11.693,0,0,1-1-2.457c-.257-.9-.616-2.155-1.074-3.745a33.715,33.715,0,0,1-.941-4,21.993,21.993,0,0,1-.273-2.779,3.76,3.76,0,0,0-.517-2.044c-.272-.385-.5-.686-.961-.719a.645.645,0,0,0-.264.058,1.173,1.173,0,0,0-.64.9,1.672,1.672,0,0,0-.035.375,19.4,19.4,0,0,0,.333,2.64q.408,2.374.823,4.233" fill="#375c77"/><path d="M114.689,32.457a2.186,2.186,0,0,0,.577-1.362,1.93,1.93,0,0,1,1.122-1.8c.275-.105.29-.031.29.155s.186.221.222.338.308.1.27-.2a1.944,1.944,0,0,1,.445-1.549c.459-.359.817-.479.936-.787s.323-.337.392-.033.24.647.6.6a4.3,4.3,0,0,1,1.515-.12A2.308,2.308,0,0,1,122.894,29c.321.458.172.471-.086.354s-.887-.577-1.244-.289a2.084,2.084,0,0,1-.731.475c-.171.038-.072.122.119.191s.273.356.425.661.094.51-.367.338a1.874,1.874,0,0,0-1.455,0c-.459.2-.638.326-.79.379s-.1.253.126.253.74.182.311.487a1.75,1.75,0,0,1-1.816.458,1.913,1.913,0,0,0-1.941.146Z" fill="#375c77"/><path d="M119.376,31.291a5.26,5.26,0,0,1,1.738-.154c.509,0,1.174-.382,1.993-.535a2.076,2.076,0,0,1,1.837.535c.61.435,1.609.74,1.992.386s.356-.133.229.252-.383.819-.844.819a1.62,1.62,0,0,1-.966-.179c-.1-.126-.23.079-.154.206a1.084,1.084,0,0,1-.129.941c-.232.205-.2,0-.332-.173s-.9-.385-1.1-.618-.485-.126-.509.08-.408.588-1,.279-1.074-.919-1.329-.919-.639-.487-.872-.562a.952.952,0,0,0-.4-.052c-.027-.127-.027-.255-.156-.306" fill="#375c77"/><path d="M125.251,25.263a6.255,6.255,0,0,1,2.218.439,3.836,3.836,0,0,0,1.251.533c.668.155,1.866,1.023,1.968,1.658s.336,1.231.178,1.638-.563,1.12-.917,1.246-.28-.275-.154-.483.432-.613.129-1a3.113,3.113,0,0,1-.589-1.555c-.051-.562-.255-1.153-.588-1.252a7.58,7.58,0,0,1-.791-.33c-.178-.079-.329-.053.079.275A2.417,2.417,0,0,1,129,28.072a3.634,3.634,0,0,1-.46,1.711c-.155.283-.333.178-.409-.252a2.749,2.749,0,0,0-.407-1.226,2.189,2.189,0,0,1-.41-1.2,2.194,2.194,0,0,0-.79-1.353,2.58,2.58,0,0,0-1.277-.284c-.255.054-.382.132-.077.26s1.1.357,1.329.839a3.257,3.257,0,0,1,.408,1.636c-.1.385-.054.971-.408,1.253s-.591.177-.41-.282a1.773,1.773,0,0,0-.357-1.531c-.28-.279-.946-.638-1.047-1.05s-.282-.815-.694-.841a4.637,4.637,0,0,0-1.35.279c-.2.08-.357.257.078.283a1.836,1.836,0,0,1,1.177.408c.352.307,1.121.792,1.225,1.2.167.666.094,1.385-.689,1.584-.307.078-.284-.028-.134-.283a.557.557,0,0,0-.557-.788c-.564,0-1.434-.232-1.663-.666a1.348,1.348,0,0,0-1.15-.764,1.328,1.328,0,0,0-.89.56.894.894,0,0,1-.717.051,7.257,7.257,0,0,1,5.44-2.324" fill="#375c77"/><path d="M109.533,28.966c-.323.206-.279.377.05.357a1.153,1.153,0,0,1,.832.343,2.891,2.891,0,0,0,.87.562c.267.087.267.237-.019.275a.868.868,0,0,0-.529.285c-.153.118-.17.135.05.257a2.733,2.733,0,0,0,.974.409c.373.031.7.512,1.226.614s.628.269.678.407h.75c.256-.5-.049-.682.359-1.124a3.408,3.408,0,0,0,.562-1.906c-.017-.41-.138-.548-.324-.342s-.528.131-.443-.152c.237-.784-.239-1.377-.1-1.687s-.135-.15-.391-.051a2.024,2.024,0,0,0-.7.478c-.067.12-.309.144-.461-.1a2.864,2.864,0,0,0-1.615-1.425c-.544-.14-.189.216-.07.438a2.442,2.442,0,0,1,.17,1.26,1.679,1.679,0,0,0,.037.8c.017.085,0,.137-.276.12a2.785,2.785,0,0,0-1.629.185" fill="#375c77"/><path d="M114.576,32.446a8.227,8.227,0,0,0,1.352-3.531c.132-1.376.486-1.888,1.074-1.863s1.175.051,1.479-.511,1-.815,1.253-.458.384.048.2-.333a1.653,1.653,0,0,0-1.655-.666,2.984,2.984,0,0,0-1.988,1.177,1.957,1.957,0,0,1-.31.637c-.074.079-.2.231-.128-.307a4.637,4.637,0,0,1,.666-1.914c.357-.434.893-.689,1.323-.405a1.271,1.271,0,0,0,1.459.022c.486-.33,1.174-.1,1.224.332s.281.436.23-.126a1.489,1.489,0,0,0-1.047-1.355,3.784,3.784,0,0,0-2.323.177,2.106,2.106,0,0,1-.664.41s-.105-.051.206-.485a11.271,11.271,0,0,1,1.451-1.43.6.6,0,0,1,.824.08,2.637,2.637,0,0,0,1.348.688c.537.049.994.432.994.737s.309.41.362-.124a1.8,1.8,0,0,0-.664-1.687,2.379,2.379,0,0,0-1.993-.409c-.23.1-.358.027-.127-.177s.69-.461.97-.739.612-.335,1.071.022a1.655,1.655,0,0,0,1.739.205,1.331,1.331,0,0,1,1.608.025c.359.407.536.84.766.942s.387.081.151-.227-.253-1.122-.712-1.43-.87-.407-1.432-.713a2.868,2.868,0,0,0-2.243.073,10.958,10.958,0,0,0-2.071,1.507c-.1.1-.2.309-.178-.152s-.025-1.811-.386-2.14-.815-.26-1.02-.461-.3,0-.1.228.639.69.358,1.071a1.738,1.738,0,0,0-.026,1.5c.178.231.436.488.178.8s-.764.688-.893.921-.153.3-.229-.08a5.422,5.422,0,0,0-.31-1.378,1.525,1.525,0,0,0-1.3-.82c-.51.055-1-.277-1.481.055s-.177.408.05.279.361.075.765.306.8.255.718.765a1.433,1.433,0,0,0,.664,1.278.445.445,0,0,1,.356.616c-.128.329-.206.661-.254.816s-.154.25-.333-.155a2.187,2.187,0,0,0-1.248-1.122,2.124,2.124,0,0,0-1.712.075,3.968,3.968,0,0,1-.817.533c-.255.105-.233.332.152.332s.919-.433,1.324.107a1.884,1.884,0,0,0,1.458.817c.358-.08.715-.08.817.126s-.026.46-.076.819a14.109,14.109,0,0,0-.2,2.3,8.233,8.233,0,0,1-1.248,4.425Z" fill="#375c77"/><path d="M101.836,32.132c-.127-.334.123-.536.231-.175a1.17,1.17,0,0,0,1.426.507c.562-.253,1.024-.688,1.252-.739s.255-.2-.077-.3-.51-.59-.7-.724.021-.239.257-.409a2.873,2.873,0,0,1,1.688-.172,8.765,8.765,0,0,0,1.071.241c.134,0,.184-.12.134-.241s.1-.424.085-.545.036-.253.41-.206a3.063,3.063,0,0,1,1.7.8,7.547,7.547,0,0,0,1.073,1.174,2.986,2.986,0,0,1,.837,1.055h-.461a.739.739,0,0,0-.919-.254c-.885.407-1.088.3-1.328.239s-.358-.14-.19-.409.19-.494.326-.563.016-.151-.171-.1a.639.639,0,0,0-.391.582,6.667,6.667,0,0,1-.408,1.666c-.152.275-.221.068-.288-.069a2.672,2.672,0,0,1-.225-.425c-.017-.1-.068-.018-.151.087a5.958,5.958,0,0,1-.684.629c-.441.376-.594.6-.643.938s-.19.425-.29-.121a2.358,2.358,0,0,1,.15-1.7c.31-.341.14-.323-.136-.188a2.524,2.524,0,0,1-1.837.6,1.9,1.9,0,0,1-1.743-1.168" fill="#375c77"/><path d="M101.332,27.785c.162-.091.293.037.084.168s-.422.562-.969,1.022a3.1,3.1,0,0,0-.938,2.606,4.845,4.845,0,0,0,.462,1.837c.035.272.272.049.272-.237s.58-1.1.445-1.84a4.929,4.929,0,0,1,.185-2.4,4.658,4.658,0,0,1,.629-.749c.138-.135.258-.171.1.173s-.2.714-.431,1.288a1.547,1.547,0,0,0,.5,1.928c.254.137.285.068.219-.191a2.481,2.481,0,0,1,.2-1.206c.169-.458-.142-1.1-.2-1.735a1.073,1.073,0,0,1,.427-.835c.287-.151.986-.61,1.308-.817a1.1,1.1,0,0,1,.78-.123c.142.021.192.123-.08.192a4.986,4.986,0,0,0-1.057.7,1.926,1.926,0,0,0-.325,2.657c.123.154.343.031.309-.258s.426-.8.751-.918a1.712,1.712,0,0,0,.764-1.16c.034-.389.17-.813.446-.9a3.611,3.611,0,0,1,2.564.666c.123.1.279.3-.114.187a2.658,2.658,0,0,0-1.911.27,3.093,3.093,0,0,0-.9,1.108,1.915,1.915,0,0,1-.511.631c-.17.1-.1.221.153.153a4.118,4.118,0,0,0,.833-.326,1.961,1.961,0,0,1,1.042-.084,1.811,1.811,0,0,0,1.192-.628c.2-.275.613-.6.849-.58a2.305,2.305,0,0,1,1.309,1.023,8.665,8.665,0,0,1,1.622,3.012l.355.016a7.335,7.335,0,0,0-1.617-3.132c-.578-.662-1.057-1.125-1.057-1.463a1.739,1.739,0,0,1,.392-1.059c.258-.3.087-.883-.172-1.341a1.219,1.219,0,0,1-.117-1.123c.117-.411-.222-.309-.29-.1s-.563.427-.8.952a2.119,2.119,0,0,0,.186,1.6,5.162,5.162,0,0,1,.255.833c.048.121,0,.2-.255-.085a8.805,8.805,0,0,0-2.146-1.02c-.29-.069-.29-.29-.167-.5a1.8,1.8,0,0,0-.24-1.5,3.4,3.4,0,0,0-.869-.733c-.221-.1-.221.017-.154.188a1.306,1.306,0,0,1-.067.817,1.626,1.626,0,0,0,.477,1.311c.238.119.543.475.07.373a5.049,5.049,0,0,0-1.294-.119,1.808,1.808,0,0,1-1.059-.27c-.139-.155-.53-.786-.457-1.025s-.035-.288-.191-.082a1.875,1.875,0,0,0-.17,1.123,1.132,1.132,0,0,0,1.127.577c.339-.119.32.014.083.155s-.77.46-.934.547a2.069,2.069,0,0,1-1.144.013c-.492-.117-1.1-1.056-1.651-1s-.374.221-.136.272.2.308.579.768a1.05,1.05,0,0,0,1.447.375" fill="#375c77"/><path d="M100.535,22.84c-.02.435.177.639.325-.151a2.616,2.616,0,0,1,1.971-1.92,5.3,5.3,0,0,0,2.017-.893c.513-.277,1.453-.764,1.992.309a10.165,10.165,0,0,0,2.6,2.989c2.032,1.691,2.426,5.739,2.606,9.217l.457.024c.331-3.068-.053-7.28-1.175-8.89a39.4,39.4,0,0,0-3.063-3.391,4.669,4.669,0,0,0-3.932-1.407,3.944,3.944,0,0,0-3.8,4.113" fill="#375c77"/><path d="M107.734,22.968c.235.59.432.279.332-.257a3.191,3.191,0,0,1,.23-1.762,7.561,7.561,0,0,1,.739-1.837c.41-.46,1.1-1.941,1.737-2.07a1.67,1.67,0,0,0-1.1-.177c-.333.027-.895.051-1,.613a4.5,4.5,0,0,1-.666,1.837,3.665,3.665,0,0,0-.279,3.653" fill="#375c77"/><path d="M109.876,17.861a3.8,3.8,0,0,1,1.15,1.222,7.865,7.865,0,0,0,1.3,1.434,4.689,4.689,0,0,1,.894,1.913,10.864,10.864,0,0,1-.074,1.941,22.055,22.055,0,0,0,.074,3.167,2.142,2.142,0,0,1,.536-.334,19.625,19.625,0,0,1,.207-4.187,22.018,22.018,0,0,0,.689-3.035c.125-.742.435-2.557,1.707-2.99s2.4-1.019,2.71-1.763.613-.894.97-.867a1.276,1.276,0,0,0,.813-.231,2.848,2.848,0,0,1,1.611,0c.585.153.435-.1,0-.3a5,5,0,0,0-2.576-.639,5.587,5.587,0,0,0-2.836,1.4,2.6,2.6,0,0,1-1.1,1,3.385,3.385,0,0,0-1.275,2.045A22.346,22.346,0,0,1,113.966,21c-.156.312-.255-.02-.515-.361-.914-1.224-1.58-3.291-2.655-3.623-.244-.075-.676.478-.92.843" fill="#375c77"/><path d="M110.149,32.236c-.534.2-.733.688-1.038,1.176s-.919,1.095-.611,1.759a9.008,9.008,0,0,1,.588,1.226c.023.23-.026.332-.307-.075a.927.927,0,0,0-1.113-.385,2.358,2.358,0,0,1-1.333.054.92.92,0,0,0-1.118.441c-.293.426-.633.7-1.18.27a1.168,1.168,0,0,0-1.616-.046,1.462,1.462,0,0,0-.182,1.512c.182.341.642.272.458-.235s-.188-1.108.116-1.231a1.185,1.185,0,0,1,1.224.275,1,1,0,0,0,1.465-.224,1.046,1.046,0,0,1,1.177-.422,2.6,2.6,0,0,0,1.312-.087c.336-.121.525.138.728.476s.886.461.735-.186a5.831,5.831,0,0,0-.562-1.5c-.2-.356.135-.784.407-1.123s.769-1.363,1.465-1.5a.666.666,0,0,0-.615-.179" fill="#375c77"/><path d="M106.883,35c-.261.16-.183.514,0,.837a.605.605,0,0,0,.784.325c.237-.152.2-.584.016-.871s-.5-.479-.8-.291" fill="#375c77"/><path d="M109.232,35c-.138.218-.05.55.289.786s.629.288.765.067a.606.606,0,0,0-.275-.817c-.353-.224-.66-.224-.779-.036" fill="#375c77"/><path d="M107.935,37.01c-.264.166-.152.634.107.954s.577.476.814.286.136-.644-.119-.9-.525-.508-.8-.341" fill="#375c77"/><path d="M107.12,36.311c-.35-.067-.564.223-.7.631s-.1.8.187.92.615-.064.785-.559.082-.921-.275-.992" fill="#375c77"/><path d="M105.18,37.243a.438.438,0,0,0,.432-.439.433.433,0,0,0-.866,0,.438.438,0,0,0,.434.439" fill="#375c77"/><path d="M108.891,35.14c-.331-.111-.631.186-.749.473a.817.817,0,0,0,.118.853c.188.157.664.036.851-.457s-.018-.8-.22-.869" fill="#375c77"/><path d="M118.645,32.415a1.7,1.7,0,0,1,1.206,1.62c-.014.746-.082,2.621.872,2.942a2.217,2.217,0,0,0,2.264-.288c.6-.477.952-.477,1.086.253s.905,1.207,1.4.612.869-.562.957-.356-.053.273-.292.377-.408.627.155.524,1-.7.7-1.171a1.131,1.131,0,0,0-1.549-.086c-.407.339-.763.29-.868-.292s-.665-1-1.549-.475-1.822.749-2.214.15a6.273,6.273,0,0,1-.39-2.38c-.1-.766-.717-1.736-1.159-1.837-.185.1-.459.354-.612.407" fill="#375c77"/><path d="M122.952,37.705a.627.627,0,1,0-.676-.626.651.651,0,0,0,.676.626" fill="#375c77"/><path d="M123.174,36.205a.674.674,0,1,0-.677-.673.67.67,0,0,0,.677.673" fill="#375c77"/><path d="M121.42,37.933a.651.651,0,1,0-.65-.65.648.648,0,0,0,.65.65" fill="#375c77"/><path d="M119.988,37.444a.6.6,0,1,0-.6-.6.6.6,0,0,0,.6.6" fill="#375c77"/><path d="M120.856,36.185a.721.721,0,1,0-.719-.724.72.72,0,0,0,.719.724" fill="#375c77"/><path d="M119.65,36.4a.7.7,0,1,0-.7-.7.7.7,0,0,0,.7.7" fill="#375c77"/><path d="M117.793,38.475c.536,0,.2-.411-.226-.613s-.155-1.48.023-1.967.461-.84.767-.815a2.13,2.13,0,0,0,1.609-.817c.409-.615,1.1-.486,1.657-.258s.665-.228.407-.382a5.259,5.259,0,0,1-.991-.765c-.459-.436-1.354-.281-2.66-.281H110.62c-1.305,0-2.2-.155-2.657.281a5.123,5.123,0,0,1-1,.765c-.253.154-.15.614.413.382s1.25-.357,1.657.258a2.122,2.122,0,0,0,1.607.817c.309-.025.589.33.767.815s.461,1.762.029,1.967-.769.613-.232.613Z" fill="#375c77"/><path d="M92.129,83.414h.741v2.039a1.125,1.125,0,0,0,.085.5.571.571,0,0,0,.575.278.565.565,0,0,0,.57-.278,1.07,1.07,0,0,0,.085-.5V83.414h.744v2.043a1.638,1.638,0,0,1-.174.823,1.658,1.658,0,0,1-2.454,0,1.629,1.629,0,0,1-.172-.823Z" fill="#375c77"/><path d="M97.667,83.5a.848.848,0,0,1,.316.233,1,1,0,0,1,.172.277.939.939,0,0,1,.062.349.974.974,0,0,1-.123.467.673.673,0,0,1-.4.323.619.619,0,0,1,.332.264,1.056,1.056,0,0,1,.1.518v.223a1.737,1.737,0,0,0,.018.311.293.293,0,0,0,.131.19v.081h-.779a1.559,1.559,0,0,1-.047-.177,1.445,1.445,0,0,1-.029-.286l0-.309a.637.637,0,0,0-.112-.425.583.583,0,0,0-.4-.106H96.2v1.3h-.689V83.414h1.617a1.53,1.53,0,0,1,.536.086m-1.464.487v.894h.763a.847.847,0,0,0,.341-.052.372.372,0,0,0,.2-.374.421.421,0,0,0-.194-.408.709.709,0,0,0-.329-.06Z" fill="#375c77"/><path d="M101.312,83.77a.855.855,0,0,1,.149.507.744.744,0,0,1-.15.489.778.778,0,0,1-.251.189.735.735,0,0,1,.38.294.875.875,0,0,1,.129.485.985.985,0,0,1-.147.53.893.893,0,0,1-.234.262.905.905,0,0,1-.371.166,2.177,2.177,0,0,1-.464.044h-1.48V83.418h1.587a1,1,0,0,1,.852.352m-1.784,1.506v.885h.8a.752.752,0,0,0,.334-.057.423.423,0,0,0,.215-.417.357.357,0,0,0-.207-.356.866.866,0,0,0-.331-.055Zm0-1.282v.731h.8a.687.687,0,0,0,.35-.08.323.323,0,0,0,.133-.292.3.3,0,0,0-.176-.308,1.2,1.2,0,0,0-.39-.051Z" fill="#375c77"/><path d="M102.922,83.413h.807l1.211,3.323h-.774l-.225-.682h-1.26l-.233.682H101.7Zm-.046,2.069h.875l-.43-1.309Z" fill="#375c77"/><polygon points="105.239 83.414 105.975 83.414 107.305 85.727 107.305 83.414 107.958 83.414 107.958 86.736 107.256 86.736 105.893 84.38 105.893 86.736 105.239 86.736 105.239 83.414" fill="#375c77"/><path d="M112.066,83.5a.84.84,0,0,1,.316.233.948.948,0,0,1,.171.277.92.92,0,0,1,.063.349.962.962,0,0,1-.123.467.669.669,0,0,1-.4.323.608.608,0,0,1,.332.264,1.034,1.034,0,0,1,.1.518v.223a1.493,1.493,0,0,0,.021.311.289.289,0,0,0,.128.19v.081h-.778a1.339,1.339,0,0,1-.046-.177,1.449,1.449,0,0,1-.032-.286l0-.309a.637.637,0,0,0-.112-.425.579.579,0,0,0-.4-.106H110.6v1.3h-.69V83.414h1.619a1.526,1.526,0,0,1,.536.086m-1.465.487v.894h.762a.851.851,0,0,0,.343-.052.371.371,0,0,0,.2-.374.421.421,0,0,0-.194-.408.7.7,0,0,0-.328-.06Z" fill="#375c77"/><polygon points="115.653 84.003 113.879 84.003 113.879 84.709 115.507 84.709 115.507 85.284 113.879 85.284 113.879 86.138 115.736 86.138 115.736 86.736 113.195 86.736 113.195 83.418 115.653 83.418 115.653 84.003" fill="#375c77"/><path d="M116.712,85.709a.675.675,0,0,0,.126.341.709.709,0,0,0,.578.206,1.343,1.343,0,0,0,.4-.052.393.393,0,0,0,.29-.388.283.283,0,0,0-.142-.255,1.578,1.578,0,0,0-.45-.155l-.351-.078a2.136,2.136,0,0,1-.714-.254.819.819,0,0,1-.329-.719.959.959,0,0,1,.323-.739,1.35,1.35,0,0,1,.945-.3,1.431,1.431,0,0,1,.888.278,1,1,0,0,1,.383.806H118a.48.48,0,0,0-.261-.426.885.885,0,0,0-.4-.082.777.777,0,0,0-.431.106.348.348,0,0,0-.158.3.289.289,0,0,0,.156.267,1.867,1.867,0,0,0,.433.137l.569.137a1.473,1.473,0,0,1,.562.241.827.827,0,0,1,.29.678.959.959,0,0,1-.344.757,1.443,1.443,0,0,1-.971.3,1.548,1.548,0,0,1-1.011-.3.993.993,0,0,1-.371-.815Z" fill="#375c77"/><polygon points="121.657 84.003 119.898 84.003 119.898 84.709 121.511 84.709 121.511 85.284 119.898 85.284 119.898 86.138 121.736 86.138 121.736 86.736 119.219 86.736 119.219 83.418 121.657 83.418 121.657 84.003" fill="#375c77"/><path d="M123.022,83.413h.8l1.2,3.323h-.768l-.225-.682h-1.248l-.23.682h-.741Zm-.046,2.069h.869l-.428-1.309Z" fill="#375c77"/><path d="M127.456,83.5a.84.84,0,0,1,.318.233.967.967,0,0,1,.17.277.939.939,0,0,1,.064.349.984.984,0,0,1-.122.467.682.682,0,0,1-.4.323.635.635,0,0,1,.335.264,1.072,1.072,0,0,1,.1.518v.223a1.776,1.776,0,0,0,.02.311.3.3,0,0,0,.13.19v.081h-.78c-.023-.073-.035-.133-.047-.177a1.613,1.613,0,0,1-.029-.286l-.005-.309a.62.62,0,0,0-.113-.425.575.575,0,0,0-.4-.106H126v1.3H125.3V83.414h1.62a1.5,1.5,0,0,1,.534.086M126,83.987v.894h.763a.856.856,0,0,0,.339-.052.371.371,0,0,0,.2-.374.42.42,0,0,0-.2-.408.7.7,0,0,0-.327-.06Z" fill="#375c77"/><path d="M128.981,83.764a1.69,1.69,0,0,1,2.351.139,1.168,1.168,0,0,1,.237.622h-.724a.886.886,0,0,0-.178-.362.738.738,0,0,0-.579-.218.728.728,0,0,0-.618.306,1.434,1.434,0,0,0-.227.863,1.266,1.266,0,0,0,.239.837.755.755,0,0,0,.6.279.7.7,0,0,0,.572-.24,1.043,1.043,0,0,0,.182-.383h.723a1.475,1.475,0,0,1-.48.884,1.444,1.444,0,0,1-.987.341,1.513,1.513,0,0,1-1.17-.461,2.093,2.093,0,0,1,.056-2.607" fill="#375c77"/><polygon points="132.025 86.736 132.025 83.414 132.746 83.414 132.746 84.684 134.101 84.684 134.101 83.414 134.825 83.414 134.825 86.736 134.101 86.736 134.101 85.255 132.746 85.255 132.746 86.736 132.025 86.736" fill="#375c77"/></svg>