<svg id="レイヤー_1" data-name="レイヤー 1" xmlns="http://www.w3.org/2000/svg" width="230" height="100" viewBox="0 0 230 100"><title>sp_smelly</title><path d="M74.781,39.349l-.8.834a8.513,8.513,0,0,0-2.294-1.672,5.785,5.785,0,0,0-2.474-.53A5.066,5.066,0,0,0,65.3,39.587a5.934,5.934,0,0,0-1.513,4.222c0,2.43,1.981,4.326,5.948,5.708.456.161.8.278,1.033.357a6.694,6.694,0,0,1,3.282,2.311,5.959,5.959,0,0,1,1.153,3.708,7.069,7.069,0,0,1-2,5.156A6.857,6.857,0,0,1,68.139,63.1a6.956,6.956,0,0,1-3.591-.939A7.1,7.1,0,0,1,62,59.46l1.027-.8a7.253,7.253,0,0,0,2.225,2.5,5.162,5.162,0,0,0,2.887.814,5.483,5.483,0,0,0,4.135-1.715,6.085,6.085,0,0,0,1.63-4.367c0-2.436-1.942-4.3-5.836-5.655-.5-.167-.89-.3-1.166-.383a6.843,6.843,0,0,1-3.28-2.264,5.931,5.931,0,0,1-1.13-3.621A6.933,6.933,0,0,1,64.48,38.9a6.747,6.747,0,0,1,5.024-2,6.623,6.623,0,0,1,2.9.634,6.8,6.8,0,0,1,2.374,1.815"/><polygon points="80.622 37.102 90.762 60.052 101.15 37.102 104.547 62.466 103.425 62.775 100.517 41.04 90.729 62.636 81.212 41.04 78.284 62.775 77.184 62.466 80.622 37.102"/><polygon points="107.584 37.457 118.732 37.457 119.103 38.549 108.767 38.549 108.767 48.954 117.828 48.954 117.828 50.063 108.767 50.063 108.767 61.344 119.611 61.344 119.229 62.466 107.584 62.466 107.584 37.457"/><polygon points="124.216 37.102 124.216 61.336 135.664 61.336 135.232 62.466 123.041 62.466 123.041 37.457 124.216 37.102"/><polygon points="140.074 37.102 140.074 61.336 151.508 61.336 151.09 62.466 138.897 62.466 138.897 37.457 140.074 37.102"/><polygon points="150.713 37.209 158.887 53.042 166.993 37.209 168 37.7 155.157 62.775 154.113 62.401 158.248 54.351 149.673 37.675 150.713 37.209"/></svg>