<?xml version="1.0" encoding="utf-8"?>
<!-- Generator: Adobe Illustrator 22.1.0, SVG Export Plug-In . SVG Version: 6.00 Build 0)  -->
<!DOCTYPE svg PUBLIC "-//W3C//DTD SVG 1.1//EN" "http://www.w3.org/Graphics/SVG/1.1/DTD/svg11.dtd" [
	<!ENTITY st0 "fill:#FFFFFF;">
]>
<svg version="1.1" id="レイヤー_1" xmlns="http://www.w3.org/2000/svg" xmlns:xlink="http://www.w3.org/1999/xlink" x="0px"
	 y="0px" viewBox="0 0 27 22" style="enable-background:new 0 0 27 22;" xml:space="preserve">
<path style="&st0;" d="M8.491,21.939c10.189,0,15.762-8.441,15.762-15.762c0-0.24,0-0.478-0.016-0.716
	C25.32,4.677,26.256,3.706,27,2.594c-1.011,0.448-2.084,0.742-3.182,0.872c1.156-0.692,2.022-1.781,2.435-3.064
	c-1.087,0.645-2.277,1.1-3.518,1.345c-2.098-2.231-5.607-2.338-7.838-0.241c-1.439,1.353-2.049,3.369-1.603,5.293
	C8.842,6.575,4.692,4.471,1.879,1.011C0.409,3.542,1.16,6.78,3.594,8.405C2.713,8.379,1.85,8.141,1.08,7.712c0,0.023,0,0.046,0,0.07
	c0.001,2.637,1.859,4.908,4.444,5.43c-0.816,0.222-1.671,0.255-2.501,0.095c0.726,2.257,2.805,3.802,5.175,3.847
	c-1.962,1.542-4.385,2.379-6.88,2.376C0.878,19.53,0.438,19.503,0,19.451c2.533,1.626,5.481,2.488,8.491,2.484"/>
</svg>
