<svg id="レイヤー_1" data-name="レイヤー 1" xmlns="http://www.w3.org/2000/svg" width="230" height="100" viewBox="0 0 230 100"><path d="M125.888,22.534a2.362,2.362,0,0,1,.728.038v.02l.076.019v.019h.039l.019.038h.038l.057.077h.02a1.128,1.128,0,0,1,.057.861v.134H126.9v.153h-.019v.153h-.019v.173h-.02v.172h-.019l-.019.363h-.019v.173h-.019V25.1a2.032,2.032,0,0,0-.038.517v.21h.019v.115a1.356,1.356,0,0,1,.057.536,6.924,6.924,0,0,0-.076,1.646v.67h.019v.172h.019V29.1h.019v.1a1.4,1.4,0,0,1,.057.536h-.019l-.019.249a2.671,2.671,0,0,0-.057,1.052v.23h.019v.153h.019v.153h.019v.154h.019v.191h.019v.23c.032.113-.013.3.02.421h.019v.325a3.338,3.338,0,0,1-.019.747v5.359a2.77,2.77,0,0,1-.02.631c-.031.111.009.285-.019.383v.306h-.019l-.019.4v.211h-.019v.287h-.019v.306h-.019v.307a2.9,2.9,0,0,0,.114.823v.172h.02v.306a2.883,2.883,0,0,1-.1.8v.134h-.019v.172h-.019V45.9a4.336,4.336,0,0,0,.095,1.149v.134h.019v.191h.02v1.455h.019v.134h.019v.1h.019v.076h.019V49.2h.019v.057h.019v.038H127v.058h.019l.038.115h.019V49.5h.019l.039.115.038.019.038.115h.019l.019.057.039.019v.038l.076.058v.038l.153.134.1.115h.038l.039.057h.038l.038.058.077.019v.019h.038v.019l.115.039v.019h.057v.019h.058v.019h.076V50.5h.077v.019h.1v.019h.114v.02h.1v.019h.115v.019h.1v.019h.114v.019h.134v.019h.154v.019l.325.02.8.21.689.038c.181.053.4.08.574.134l.191.019c.264.085.552.149.824.23l.267.019v.019h.115v.02h.134V51.4h.1v.019h.1v.019h.134v.019h.172v.019h1.11v.019h.23v.02h.115v.019h.114c.335.105.73.145,1.072.249h.115c.086.026.22.05.306.076l1.149.172v.019h.1v.02h.114v.019h.115v.019h.1v.019h.1c.113.036.269.06.382.1h.1c.265.085.571.128.842.21h.115v.019h.134v.02h.153v.019h.192v.019l1.627.134v.019h.095v.019h.1V52.7h.077v.019h.076v.02h.057v.019h.058v.019h.057V52.8h.058v.019l.115.019v.019h.076v.02h.058v.019h.076v.019h.077v.019l.134.019v.019l.248.038v.02h.077v.019h.077v.019l.172.019V53.1l.268.019c.211.063.48.074.689.134l.344.019v.02h.134v.019h.134v.019h.1c.136.044.321.071.459.115h.1c.269.084.574.129.842.21h.115a1.558,1.558,0,0,0,.4.039h.192v.019h.191v.019h.134v.019h.1v.019h.076c.365.124.776.192,1.149.306h.134c.1.031.259.046.363.077h.134v.019h.1v.019h.1v.019h.134v.019h.172v.02l.478.019c.422.122.981.1,1.4.229h.114v.02h.134v.019l2.508.191v.019h.134v.019h.095v.02h.077v.019h.077v.019l.172.038v.019h.038V54.9h.058v.02h.057v.019h.057v.019h.058v.019h.057V55h.058v.019h.057v.019h.058v.019h.057v.02h.076v.019H156v.019h.077v.019h.076v.019l.172.019v.019l.307.02v.019h.172v.019h.172c.183.053.41.062.594.115l1.7.095v.02l.211.019v.019h.076v.019h.077v.019h.076v.019h.077v.019h.076v.02h.115v.019h.153v.019h.4v.019h.192c.188.054.423.061.612.115h.211V55.8h.306v.019l1.55.077.575.095c.448.145.967.22,1.416.364h.1v.019h.076v.019h.1v.019h.1v.02h.134v.019l1.741.038v.019l.23.019c.321.1.691.165,1.014.268h.1v.019h.077v.02h.095v.019h.1v.019h.153v.019l.632-.019v-.019h.268a1.2,1.2,0,0,1,.4-.019v.019h.229v.019h.23v.019h.268v.019h.383c.219.062.546,0,.766.058h.382v.019l.307.019c.137.041.305.074.44.115l.287.019v.019h1.646a2.394,2.394,0,0,1,.536.019h.23V57.2h.095v.019h.077v.019l.115.039v.019h.038c.344.228.268.869.268,1.435a1.377,1.377,0,0,1-.077.67c-.171.253-.9.2-1.2.1h-.077v-.019h-.057v-.019H175.5c-.229-.082-.493-.155-.727-.23h-.1v-.019h-.1v-.019h-.115v-.019h-.191V59.15H173.2L172.342,59h-.823a4.513,4.513,0,0,1-1.206-.095l-.479-.039v-.019h-.153v-.019h-.134v-.019h-.095v-.019h-.1v-.019h-.134v-.019h-.172v-.02l-.479-.019a3.408,3.408,0,0,0-.938-.115H166.5l-.574-.019v-.019l-.23-.019v-.019h-.1V58.5h-.076V58.48h-.077v-.02h-.076v-.019h-.1c-.186-.06-.421-.1-.612-.153l-.211-.019V58.25h-.115v-.019h-.095v-.019h-.115v-.02h-.115v-.019h-.134c-.1-.03-.26-.046-.364-.076h-.153c-.17-.05-.4-.047-.574-.1h-.172c-.252-.072-.589-.043-.843-.115h-.191v-.019h-.191v-.019h-.173v-.019l-.555-.038c-.264-.076-.616-.04-.88-.115h-.172v-.019l-.326-.02c-.249-.072-.577-.061-.823-.134h-.134c-.137-.04-.322-.054-.459-.095h-.115c-.114-.035-.269-.061-.383-.1h-.1c-.264-.085-.571-.13-.842-.21l-.4-.039h-.191v-.019h-.172c-.142-.041-.318-.055-.46-.1l-1.033-.038c-.336-.1-.72-.13-1.053-.23h-.134v-.019h-.172v-.019l-.613-.019c-.141-.041-.317-.055-.459-.1h-.172v-.019H151.4v-.019l-.306-.019c-.145-.044-.334-.07-.478-.115h-.1c-.282-.091-.592-.142-.881-.23l-.248-.019c-.225-.066-.507-.069-.728-.134h-.134v-.019h-.172v-.019h-.268v-.019l-.765-.038v-.02h-.115v-.019h-.1v-.019h-.1V55.8h-.076v-.019h-.058v-.019l-.134-.019v-.02L146.6,55.7v-.019l-.172-.019v-.019l-.287-.038v-.02h-.077V55.57h-.076v-.019h-.077v-.019h-.076c-.2-.067-.418-.125-.613-.191h-.076v-.02h-.077V55.3h-.115v-.019l-1.033-.038v-.019l-.23-.019c-.186-.06-.437-.077-.632-.134h-.134c-.278-.084-.621-.109-.9-.192l-.766-.057v-.019l-.23-.019c-.312-.1-.667-.164-.976-.268l-.249-.039V54.46l-.21-.019c-.188-.057-.418-.078-.613-.134l-.459-.019v-.019h-.191c-.142-.041-.318-.055-.46-.1H137.7v-.019h-.153v-.019l-.268-.019c-.292-.088-.644-.123-.938-.211h-.134v-.019h-.172v-.019h-.211l-.536-.038c-.351-.106-.793-.109-1.148-.211l-.613-.057v-.02h-.095v-.019h-.077V53.5h-.1v-.019h-.114v-.019l-.23-.019v-.019l-.23-.02c-.256-.078-.54-.132-.8-.21l-.823-.077-1.78-.459h-.134a4.015,4.015,0,0,0-.957-.038,1.659,1.659,0,0,1-.363-.019h-.211l-3.139-.67-2.125-.153-1.129-.268-.421-.058c-.243-.074-.556-.08-.8-.153h-.134v-.019h-.134v-.019h-.134v-.019h-.134v-.02H119.3v-.019h-.134v-.019l-.459-.038c-.266-.078-.614-.057-.881-.134L117.543,51v-.019l-.287-.02c-.229-.067-.521-.066-.746-.134l-.23-.019-1.742-.382h-.191a1.83,1.83,0,0,0-.421-.02h-.9a2.053,2.053,0,0,1-.459-.019h-.23v-.019H112.2c-.09-.026-.219-.05-.306-.076h-.115c-.237-.073-.54-.082-.785-.154l-.268-.019c-.164-.048-.39-.048-.555-.095h-.153c-.112-.033-.27-.044-.383-.077h-.115l-1.033-.21-1.015-.02-.842-.134h-.976a3.284,3.284,0,0,1-.957-.114l-.306-.02v-.019h-.8v-.019H103.4c-.142-.04-.318-.055-.46-.1h-.172v-.019h-.708v-.019h-.192v-.019h-.134a6.765,6.765,0,0,0-1.684-.1h-.9v-.019h-.191c-.142-.04-.318-.055-.459-.1h-.173v-.019H97.5v-.019l-.325-.019v-.019l-.191-.019-.364-.115-.172-.019V48.8h-.115v-.02H96.2v-.019a1.315,1.315,0,0,0-.421.019l-.211.02v.019l-.153.019v.019H95.36v.019H95.3v.019h-.076v.019h-.1v.02h-.115v.019a2.146,2.146,0,0,1-.536-.019H94.23v-.02l-.382-.019c-.26-.073-.6-.041-.862-.115h-.21v-.019h-.364v-.019l-.23.019a2.664,2.664,0,0,0-.708.1l-.229.019v.019l-.594.019V48.89H90.5v-.019h-.115v-.019h-.095v-.019h-.115v-.019h-.1V48.8h-.115v-.02h-.115v-.019h-.134v-.019H89.56v-.019h-.191V48.7h-.23V48.68H88.8v-.019H87.723l-2.508.076H82.574v.019H82.4v.019h-.134v.02h-.1v.019h-.1v.019h-.134v.019h-.191v.019h-.67v.019H80.89c-.119.035-.269.062-.383.1h-.134v.019H80.2v.019h-.785a2.837,2.837,0,0,0-.8.1h-.134v.019h-.191v.019H77.023v.019h-.172c-.142.041-.318.056-.459.1H76.2v.019h-.708l-1.665.287h-.785a2.93,2.93,0,0,0-.823.1h-.134v.019h-.191v.019h-.689l-1.321.211v.019h-.077v.019h-.076v.019h-.058V50l-.191.039v.019h-.038v.019h-.058V50.1h-.057v.019h-.057v.019h-.058v.02h-.038v.019l-.115.019v.019H69v.019h-.058v.019h-.057v.019l-.153.02c-.283.1-.645.123-.938.21h-.134c-.24.07-.632-.014-.881.058h-.172v.019l-.211.019c-.186.06-.405.112-.593.172h-.1v.019h-.095V50.8h-.1v.019h-.1v.02h-.115c-.175.054-.4.08-.574.134H64.62c-.175.054-.4.079-.574.134l-.191.019c-.394.128-.85.191-1.244.325l-.326.058c-.141.045-.319.086-.459.134l-.153.019v.019h-.058V51.7l-.134.019v.019l-.134.019v.02h-.076V51.8h-.058v.019h-.057v.019H61.1v.019h-.058v.019h-.057V51.9h-.058v.019l-.114.02v.019h-.077v.019l-1.014.172v.019h-.058v.019h-.057v.02h-.058v.019l-.115.019v.019H59.4v.019h-.057V52.3H59.3v.019h-.057v.02H59.2v.019h-.058v.019h-.057v.019h-.058v.019l-.134.019v.019l-.478.058v.019h-.153v.019h-.134v.019h-.153v.019h-.134v.02h-.134c-.128.037-.3.054-.421.095h-.077v.019h-.057v.02L57,52.757v.019h-.058V52.8h-.057v.019H56.83v.019h-.038v.019l-.115.02v.019h-.038v.019h-.057v.019l-.115.038v.019h-.039v.019h-.057v.02h-.038v.019l-.077.019v.019H56.2V53.1H56.16v.019l-.172.039v.019l-.344.057-.957.211v.019l-.115.019V53.5l-.115.038v.02h-.038v.019H54.38V53.6l-.076.019-.019.038h-.039l-.019.039h-.038l-.019.038-.077.019-.019.038-.23.077-.191-.038c-.03-.047-.022-.012-.057-.039l-.1-.115h-.019v-.038l-.038-.019-.02-.057H53.4l-.019-.077h-.019l-.038-.115h-.019v-.057h-.02v-.039H53.27v-.057h-.019v-.038h-.019V53.12h-.019v-.038h-.019l-.039-.172h-.019l-.038-.192h-.019l-.019-.134h-.019v-.1h-.02v-.134H53a.933.933,0,0,1,.039-.268h.019v-.058l.038-.019v-.038l.077-.058.1-.114.077-.019.019-.039.1-.019V51.7H53.5v-.019l.134-.019v-.019h.057v-.02h.1v-.019h.1v-.019h.095V51.57l.345-.038c.326-.1.73-.11,1.053-.211l.191-.019.651-.191v-.02h.038v-.019l.115-.019v-.019h.038v-.019L56.524,51v-.019h.038v-.02h.058v-.019H56.7v-.019h.058V50.9h.076v-.019h.058v-.019l.134-.019v-.02l.134-.019v-.019l.134-.019v-.019h.076v-.019h.058v-.019h.057V50.69h.058v-.02H57.6v-.019h.077v-.019h.057v-.019h.057v-.019h.058v-.019h.038v-.019h.057v-.02h.039v-.019l.115-.019v-.019h.057V50.46h.057v-.019h.058v-.019l.134-.02v-.019l.383-.057v-.019l.191-.019v-.02l.172-.019V50.23l.173-.019v-.019H59.4v-.019h.077v-.019l.153-.02v-.019l.249-.038v-.019l.134-.019V50.02h.057V50h.057v-.019l.249-.057v-.019h.039v-.019h.057v-.02h.038v-.019l.115-.019v-.019l.1-.019v-.019h.038v-.019h.058v-.019l.076-.02v-.019L61,49.675v-.019h.057v-.019h.058v-.019h.076V49.6h.077v-.02h.076V49.56l.23-.019c.175-.053.4-.063.574-.115h.192v-.019l.478-.038c.114-.035.265-.06.383-.1l.23-.019v-.019l.249-.019c.3-.092.637-.136.937-.23l.5-.077V48.89h.077v-.019h.076v-.019h.077v-.019h.057v-.019l.134-.019v-.02h.038v-.019h.058v-.019l.076-.019V48.7h.058V48.68l.076-.019v-.019H65.9v-.02h.038V48.6l.1-.019v-.019h.057v-.019l1.627-.23V48.3h.1v-.019h.1v-.019h.076V48.24l.172-.02V48.2l.134-.019v-.019h.058v-.019h.057v-.019h.058v-.019h.057v-.02l.115-.019v-.019l.076-.019V48.01h.058v-.019l.115-.039v-.019l.076-.019.019-.038.077-.019v-.019l.057-.02.02-.038h.038l.019-.038.057-.019.1-.115h.038l.039-.038v-.039l.114-.095V47.4l.058-.038v-.038l.038-.019.019-.058h.019v-.038l.039-.019.019-.077.038-.019.038-.115h.02v-.038h.019V46.9h.019l.038-.115h.019v-.058h.019v-.038h.02L70,46.5h.019V46.44h.019v-.076h.019l.019-.249a3.908,3.908,0,0,0,.039-.938V41.694a2.89,2.89,0,0,1,.019-.651c.032-.116-.01-.3.019-.4l.019-.689h.019v-.345h.019l.02-.67a1.348,1.348,0,0,0,.019-.4h-.019v-.229c-.063-.223-.052-.5-.115-.728v-.229H70.1l-.02-.632h-.019v-.5h-.019v-.957a3.738,3.738,0,0,1,.019-.784v-.517h.019c.03-.1-.007-.271.02-.364v-.268h.019v-.21h.019v-.173h.019v-.153h.019v-.134h.019v-.153h.019v-.153h.02v-.21h.019v-.766a3.681,3.681,0,0,0-.019-.785v-.153h-.02v-.115l-.134-.4-.019-.21h-.019v-.364a1.95,1.95,0,0,1,.019-.421v-.211l.019-.44h.02l.019-.478h.019v-.173l.038-.229h.019v-.058h.019V27.3h.02l.019-.076.038-.02v-.038l.038-.019.077-.1h.038l.019-.038.115-.038v-.019a6.177,6.177,0,0,1,2.048-.154h.747v-.019h.172c.142-.04.317-.055.459-.1h.192v-.02h.344v-.019h.191V26.63h.134a4.848,4.848,0,0,1,1.321-.115H77.1V26.5h.172v-.019h.134c.377-.112.925-.08,1.3-.191h.134v-.019h.191v-.02h2.929v-.019h.172c.141-.04.317-.055.459-.1h.192v-.02h.382v-.019l.307-.019v-.019h.095v-.019h.077v-.019h.1V26h.134v-.02h.134V25.96h.172v-.019h.172v-.019h.134V25.9h.1v-.019h.095v-.019h.134v-.02h.192v-.019h.421v-.019H85.6c.142-.041.318-.055.46-.1h.191v-.019H87.78v-.019h.172v-.019h.134v-.019h.1v-.019h.1V25.6h.134v-.02h.153v-.019h.172v-.019h.172c.119-.034.269-.062.383-.1h.134v-.02H89.6v-.019h.326a4.5,4.5,0,0,0,.9-.019h.192v-.019h.134c.09-.026.219-.05.306-.077h.115v-.019h.1v-.019h.114v-.019H91.9v-.019h.153V25.2h.173v-.019h.21v-.02l.632-.019h1.455v-.019h.21V25.1h.134V25.08h.115v-.019h.115c.085-.026.22-.051.306-.077h.134v-.019h.134v-.019h.172v-.019h.192v-.019h.248c.1-.028.273.012.383-.02a4.063,4.063,0,0,1,.594-.019c.036,0,.038-.019.038-.019h1.99l.843-.134.4-.019c.194-.057.417-.095.612-.153l.4-.019v-.019l.689-.02v-.019h.345s0-.016.038-.019h.21v-.019h.154V24.41h.134c.125-.037.29-.058.421-.1l.478-.019v-.019h.172c.142-.041.318-.055.46-.1h.191v-.019h2.22v-.019h.173v-.019h.134V24.1h.095v-.019h.1v-.02h.134v-.019h.1v-.019h.095v-.019h.1v-.019l.172-.019v-.019h.058v-.02h.057v-.019h.058v-.019l.134-.019v-.019h.076v-.019l.268-.019V23.8h.211v.02h.536v.019h.478l.517-.019V23.8h.191v-.019h.173v-.019h.268V23.74h1.014v-.019h.172V23.7h.134a2.646,2.646,0,0,1,.574-.1h.919v-.019h.172v-.019h.134a3.051,3.051,0,0,1,.862-.1h.784v-.019h.173v-.019h.134a4.469,4.469,0,0,1,1.206-.1h.8v-.019l.307-.019c.324-.1.739-.114,1.072-.211h.134V23.07h.191v-.019h.785a2.894,2.894,0,0,0,.823-.1h.134v-.019h.191v-.019h1.818V22.9h.173v-.019h.115V22.86h.095v-.02h.077v-.019h.076V22.8h.077v-.019h.076v-.019h.077v-.019h.057v-.019h.077v-.02h.057v-.019l.211-.019v-.019h.134V22.63h.23v-.019h.229v-.019h.153v-.02C125.7,22.549,125.835,22.582,125.888,22.534ZM123.821,25.2l.115.019v.019l.077.019v.019h.038v.019h.057v.02h.039l.019.038.076.019.019.038h.039l.038.058h.038v.019l.077.057v.038l.076.058v.038l.039.019.019.077.038.019.019.077.039.019.019.076h.019V26h.019l.038.114h.019v.058h.02v.038h.019v.077h.019l.019.248h.019v.23h-.019v.211h-.019v.21h-.019V27.4h-.019v.21h-.02v.23h-.019l-.019,1.11v3.331a2.457,2.457,0,0,0,.019.536v.669h.019v.67h.02l.019,1.34h.019v.67a3.681,3.681,0,0,1,.019.785v.306h-.019v.153c-.052.183-.062.41-.115.594l-.019.325H124.7l-.019.593a1.774,1.774,0,0,0-.02.4,3.226,3.226,0,0,0,.02.728L124.7,41.1h.019v.5a2.9,2.9,0,0,1,.019.632v.133h.019V45.5h.019v.191c.041.142.056.317.1.459v.173h.019v.65h.019v.594h.019v.248h-.019v.345h-.019l-.038.364h-.019V48.6h-.019l-.02.134h-.019V48.8h-.019v.057h-.019v.038h-.019l-.019.115h-.019l-.02.077h-.019v.038h-.019l-.019.1-.038.019-.019.076-.039.02v.038l-.057.038v.038h-.019l-.039.058h-.038l-.038.057-.077.019v.02l-.076.019v.019l-.345.1-.421.038v.019l-.593.019V49.79h-.23v-.019h-.134v-.019h-.1v-.019h-.095v-.02l-.153-.019v-.019l-.345-.1V49.56l-.172-.038V49.5h-.058v-.019h-.038v-.019l-.115-.02v-.019l-.172-.038v-.019h-.077V49.35h-.095v-.019h-.115v-.02l-.689-.057v-.019h-.115c-.09-.027-.219-.051-.306-.077h-.134v-.019h-.192V49.12h-.669V49.1h-.154v-.019h-.114v-.019l-.154-.02v-.019h-.076v-.019h-.077v-.019h-.076v-.019h-.077v-.019h-.115v-.019h-.134v-.02l-.765-.038v-.019h-.192v-.019h-.134v-.019h-.134c-.3-.091-.67-.119-.976-.211l-.306-.019v-.019h-.172v-.019h-.173v-.019h-.134v-.019h-.095v-.02h-.1v-.019h-.134V48.45h-.153v-.019l-.345-.019v-.019l-.229-.019c-.262-.082-.582-.114-.842-.192h-.134v-.019h-.173v-.019h-.957v-.019h-.172c-.142-.041-.318-.055-.459-.1h-.192V48.01h-.287l-1.646-.268h-1.646v-.019l-.306-.019c-.248-.077-.533-.135-.785-.211h-.115c-.15-.045-.36-.051-.517-.1h-.248v-.019a1.162,1.162,0,0,0-.364.019h-.287v.02h-.345v.019h-.344a2.358,2.358,0,0,1-.574.019v-.019h-.154v-.019l-.191-.02c-.264-.081-.614-.093-.88-.172h-.134v-.019h-.192v-.019h-.536L100.279,47h-.134v-.019h-.1v-.019h-.1v-.019h-.134v-.019h-.191V46.9H98.556v-.019l-.287-.02c-.109-.032-.254-.062-.364-.095h-.114v-.019h-.154v-.02h-.344v-.019h-.5v-.019h-.517V46.67h-.5v-.019h-.536v-.019h-.268a3.056,3.056,0,0,0-.689.019l-1.129.019v.019h-.632a1.834,1.834,0,0,1-.4.019H90.957v-.019h-.21l-.421-.019v-.019h-.211v-.019h-.153v-.019h-.153v-.02h-.134a3.168,3.168,0,0,0-.842-.076,1.834,1.834,0,0,0-.4.019h-.5v.019h-.5v.019h-.5v.019h-.5v.02h-.5v.019H84.584a4.784,4.784,0,0,0-1.417.172h-.114v.019H82.88v.019h-.249v.019h-.21a2.17,2.17,0,0,1-.5-.019h-.536v-.019h-.631v.019h-.268v.019h-.173v.02h-.172V46.9h-.21v.019h-.345v.019c-.12.034-.322-.014-.44.019s-.322-.014-.44.019L77.885,47v.02h-.153v.019h-.115c-.132.039-.29.075-.421.115h-.115v.019h-.153v.019l-.823.019v.019h-.134v.019h-.1v.019h-.1a4.607,4.607,0,0,1-2.469-.076h-.076v-.019h-.058v-.019h-.057v-.02h-.058V47.11H73v-.019l-.077-.019v-.019l-.1-.019L72.812,47l-.076-.019v-.019l-.058-.019-.019-.038h-.038l-.077-.1-.153-.134v-.038l-.057-.039v-.038l-.057-.038-.02-.077-.038-.019v-.038H72.2l-.019-.077h-.019v-.057h-.019a1.575,1.575,0,0,1-.058-.517H72.1v-.21h.019v-.211h.02V45.1h.019V44.89h.019v-.23H72.2v-.325h.019V40.7a3.738,3.738,0,0,1,.019-.784v-.288h.019v-.287h.02v-.287h-.02l-.038-.842V36.239H72.2v-.345h-.019v-.268h-.019v-.249h-.019l-.02-.459.02-.881h.019l.019-.287a2.9,2.9,0,0,0,.1-.8V32.64h-.02v-.287h-.019l-.038-.8a2.557,2.557,0,0,1-.019-.574,2.6,2.6,0,0,1,.4-1.512l.019-.077.038-.019v-.038l.058-.038v-.039l.134-.114.038-.058h.038l.019-.038.058-.019V29h.038v-.02h.038v-.019h.058v-.019h.057v-.019h.058v-.019h.057v-.019h.1V28.87h.095v-.02h.134v-.019h.153v-.019h.173v-.019h.21v-.019h.211c.027,0-.007-.012.019-.019h.268v-.019h.325v-.02h.4V28.7l.8-.019v-.019h.326V28.64h.287v-.019h.229V28.6h.192v-.019h.172v-.02h.153v-.019h.134v-.019h.115a5.005,5.005,0,0,1,1.455-.172h.976v-.019h.21l.479-.019V28.3h.306v-.019l.345-.019v-.019l.191-.019V28.2h.077v-.019H81.9v-.02h.077v-.019h.076v-.019h.115V28.1h.153v-.019h1.627v-.019l.287-.019a5.178,5.178,0,0,1,1.417-.115,3.783,3.783,0,0,0,.8-.019h.192c.36-.1.812-.105,1.167-.211h.134v-.019h.173v-.019h.287v-.019H88.6c.142-.041.318-.055.46-.1h.172V27.53h.67v-.019h.172v-.019h.134c.114-.034.264-.062.383-.1h.191v-.019h1.627a7.731,7.731,0,0,0,1.914-.115l.345-.019.8-.134.478-.019c.142-.041.318-.055.459-.1h.173v-.019h.268v-.019h.172c.166-.048.367-.067.536-.115h1.588c.1-.028.273.012.383-.019V26.8h.192l.4-.019v-.019h.306v-.019l.287-.019c.151-.046.331-.088.478-.134h.115v-.019h.153v-.019h2.6v-.02h.191v-.019h.134c.377-.111.924-.079,1.3-.191h.134v-.019H106v-.019h.9a3.613,3.613,0,0,0,1.053-.115l.287-.019v-.019h.689v-.02h.192c.141-.04.317-.055.459-.095h.172V26h1.34a2.049,2.049,0,0,0,.459-.02h.192l2.048-.4h1.646v-.019h.191c.178-.051.4-.062.574-.114l.249-.02a5.464,5.464,0,0,1,1.551-.21l1.071.019v-.019h.23V25.2h.153v-.019h.153v-.02h.154v-.019h.229a2.039,2.039,0,0,1,.517-.019v.019h.287v.019h.23v.02h.019a2.029,2.029,0,0,0,.651-.039h.095v-.019h.077V25.1h.077V25.08l.191-.019v-.019c.095-.028.322.013.383-.039A3.21,3.21,0,0,1,123.821,25.2ZM53.748,59.746h.209v.023a1.726,1.726,0,0,0,.557-.023l.325.023a5.532,5.532,0,0,1,.7,0h.232a3.345,3.345,0,0,1,.674.024l.208-.024h.534v-.023h.4v.023h1.671a4.106,4.106,0,0,1,.65.024.5.5,0,0,0,.093.116v.928a.5.5,0,0,0-.116.093H59.3s-.009.026-.069.023a1.883,1.883,0,0,0-.511-.023v.023l-.139-.023a2.463,2.463,0,0,0-.627.023c-.2.057-.558-.155-.626.093-.069.071-.047.257-.047.394V61.7h-.023l.023.3v.278H57.3c.008.047-.023.046-.023.046V64.76a1.347,1.347,0,0,1,.023.464h-.023l.023.139h-.023c-.031.139,0,.328-.023.441a.476.476,0,0,1-.186.023c-.044-.049-.107-.056-.162-.093l-.023-.046-.07-.023v-.023l-.093-.024V65.6l-.093-.023v-.023H56.58v-.023h-.047V65.5h-.046v-.023h-.046v-.023l-.093-.023-.023-.047-.093-.023-.024-.046-.139-.047v-.023l-.093-.07c-.026-.039,0-.052-.046-.092L55.907,62.6c.038-.137-.016-.37.023-.511h.023l-.023-.255v-.7h-.023v-.093l-.163-.116-.58.023a2.646,2.646,0,0,0-.58-.023,7.637,7.637,0,0,1-1.323-.023l-.023-.07a.267.267,0,0,1-.047-.209h.023v-.186a1.7,1.7,0,0,1,.024-.6c.026-.014.036-.04.046-.046h.046v-.024C53.451,59.724,53.662,59.822,53.748,59.746Zm9.075.07.024.116h.023v.882h.023a1.756,1.756,0,0,1-.023.557l.023.743c.073.043.066.085.186.092.045.04.173.024.255.024h2.3a3.6,3.6,0,0,0,.812-.024c.249-.069.594.119.72-.069.094-.1.046-.45.046-.627l-.023-1.091a2.5,2.5,0,0,0,.023-.557.479.479,0,0,0,.116-.093,3.6,3.6,0,0,1,.836.024l.255-.024v.024l.093.023.023.093h.023v.835l.024.4h-.024c-.036.134.008.345-.023.464v.116h.023v3.273a2.783,2.783,0,0,1,0,.557v.3l-.046.024v.046l-.139.023v.024a2.344,2.344,0,0,1-.6-.024H67.3V65.92h-.046l-.024-.07H67.21V65.8h-.023l.023-.487V64.179a2.358,2.358,0,0,0-.023-.626c-.024-.093-.088-.1-.139-.163-1.086-.007-2.087,0-3.134,0l-.719-.023v.023l-.209.023-.023.047c-.061.057-.062.021-.07.139a2.236,2.236,0,0,0-.023.6v1.114l.023.417H62.87l-.023.14c-.026.013-.037.04-.047.046h-.046v.023a2.642,2.642,0,0,1-.627-.023l-.51.023c-.044-.073-.086-.066-.093-.185-.046-.052,0-.346,0-.465v-.185H61.5l.024-.232V63.46H61.5v-.186l.024-.441a2.836,2.836,0,0,1,0-.719v-.186l-.024-.743h.024v-.812h.023V60.3a3.581,3.581,0,0,1,0-.464c.025-.014.037-.041.046-.046h.047v-.024h.348a1.716,1.716,0,0,1,.464,0h.279v.024Zm8.983,1.114c-.017.068-.039.052-.046.069v.093h-.024a2.21,2.21,0,0,0,.024.581v.185h-.024l.024.256c.057.033.064.072.139.092.057.053.189.047.3.047h2.065c.179,0,.5-.019.6,0h.673V62.23h.139v.023l.116.023a1.236,1.236,0,0,1,.07.627h-.023c-.007.039.021.04.023.046a.367.367,0,0,1-.116.4.24.24,0,0,1-.186.046,3.439,3.439,0,0,0-.719-.023h-.233v-.023h-.092v.023h-.4v-.023l-.209.023-.3-.023v.023h-.185v.023l-.348-.023v.023l-.395-.023h-.766v.023l-.116.023c-.014.024-.041.038-.046.047v.046h-.024V63.6h-.023l.023.279c.012.275-.076.847.14.905a.475.475,0,0,0,.325.046v-.023h.023v.023h.116a3.138,3.138,0,0,0,.789-.023.513.513,0,0,1,.232.023h.882v-.023l.4.023h1.276l.163.116v.047l.093.069v.047l.069.046V65.2l.047.023.023.093.046.023.023.093.07.046v.047a.74.74,0,0,1,.186.348c-.027.026-.01,0-.023.046a1.665,1.665,0,0,1-.418.047v-.024h-.279v.024l-.7-.024H71.574a7.161,7.161,0,0,1-1.114-.023c-.022-.042-.032-.036-.047-.093a.688.688,0,0,1-.023-.348h.023v-1.23a4.5,4.5,0,0,0-.023-.65c-.04-.24.106-.435.047-.65a2.4,2.4,0,0,1-.024-.534V60.442a3.864,3.864,0,0,1,.024-.6l.069-.023v-.023h.047v-.024h1.926v-.023l.348.023a.063.063,0,0,0,.07.024,5.879,5.879,0,0,1,1.044-.024h.14v-.023c.046-.007.046.023.046.023h.58v-.023l.65.023v-.023l.372.023h.789a.2.2,0,0,1,.046.163,1.119,1.119,0,0,0-.162.255l-.047.023v.047l-.069.046v.047l-.07.046v.046l-.07.047v.046l-.046.023-.047.14-.046.023v.046l-.162.116a3.784,3.784,0,0,0-.859.024l-.464-.024H72.549c-.032.008.009.024-.024.024H72.5v-.024h-.6v.024ZM66.05,68.869a2.232,2.232,0,0,1,.534.07h.255c.176.052.411.082.58.139h.093V69.1h.07v.023h.069v.024h.07v.023h.07v.023l.139.046v.024h.046v.023h.047v.023h.046v.023h.046v.023l.14.047v.023l.069.023.024.047.092.023.024.046.092.024.024.046h.046l.023.046H68.7l.069.093h.047l.046.07.163.139v.047l.185.139v.046l.07.047v.046l.046.023v.047l.047.023.046.139h.023v.047h.024v.046h.023l.046.139h.024v.07h.023v.046H69.6v.07h.023V71h.023l.024.116h.023v.07h.023v.093h.023V71.4h.023v.116h.024v.116h.023v.209h.023l-.023.789h-.023l-.024.395H69.74l-.023.139h-.023v.046h-.023v.07l-.14.4-.046.023v.046l-.047.023v.047l-.069.046v.047l-.047.023L69.3,74h-.023l-.023.092-.047.024v.046l-.046.023v.047l-.116.092-.209.233h-.046l-.047.069H68.7l-.047.07H68.6l-.023.046h-.047l-.023.047-.07.023v.023l-.092.023-.024.047-.139.046v.023h-.046V75l-.14.046v.023H67.93v.023l-.093.024v.023l-.232.046v.023h-.047v.024h-.069v.023h-.07v.023H67.35V75.3l-.209.024v.023h-.116v.023h-.093v.023h-.14v.023H66.4v.024h-.255a2.388,2.388,0,0,1-.882-.024l-.441-.023-.929-.278v-.024l-.139-.046V75.02h-.047V75h-.046v-.024h-.046V74.95h-.047v-.023H63.52V74.9h-.047l-.046-.047h-.046v-.023l-.07-.023-.023-.047-.093-.023v-.023l-.07-.023-.023-.047h-.046l-.024-.046-.139-.116V74.44l-.209-.186a1.781,1.781,0,0,1-.209-.279l-.046-.023-.023-.093-.047-.023-.023-.093h-.023V73.7H62.29V73.65h-.024l-.046-.139H62.2v-.07h-.023V73.4H62.15l-.023-.209c-.032-.1-.085-.243-.116-.348v-.255h-.023V72.42h-.023a2.209,2.209,0,0,1,.046-.7l.023-.348h.024l.023-.186H62.1v-.07h.023v-.069h.023v-.07h.024v-.069H62.2l.023-.093h.023v-.047h.023l.07-.209.046-.023.024-.093h.023l.023-.069.047-.024.023-.092.069-.047v-.046l.209-.186.023-.07.047-.023.07-.093h.046l.046-.069h.047l.046-.07h.047l.023-.046h.046l.023-.047.07-.023v-.023h.047l.046-.047h.046v-.023h.047v-.023l.093-.023.023-.047.093-.023V69.31l.139-.046V69.24h.07v-.023l.092-.023v-.023l.116-.023v-.024l.163-.023v-.023H64.4v-.023h.116v-.024h.116v-.023l.232-.023v-.023h.116v-.023h.139v-.024h.14v-.023H65.7a.061.061,0,0,0,.069.023v-.023C65.863,68.869,65.991,68.921,66.05,68.869Zm-9.354.023a5.223,5.223,0,0,1,2.924.6l.093.023.023.046h.047v.024h.046l.047.046h.046l.023.046c.136.091.352.171.372.372h-.023V70.1l-.07.047v.023h-.047l-.023.046h-.046l-.023.047h-.047l-.046.069h-.047l-.046.07h-.046l-.047.07H59.76l-.07.092h-.046l-.07.093a.509.509,0,0,1-.255.093c-.041-.047-.051-.019-.093-.046l-.023-.047h-.047l-.046-.069h-.047l-.023-.047-.069-.023v-.023h-.047l-.023-.047h-.047l-.023-.046h-.046l-.023-.047h-.047l-.023-.046h-.046v-.023H58.6v-.023H58.53v-.024h-.047v-.023l-.255-.046v-.023h-.07v-.024h-.116V70.1h-.116v-.023H57.81v-.023h-.162V70.03a.642.642,0,0,0-.256.023,2.4,2.4,0,0,0-.441,0h-.209L56.3,70.1v.023h-.093v.024h-.069v.023h-.07v.023H56v.023h-.07v.023h-.07v.024l-.209.046v.023l-.139.047V70.4h-.046l-.023.046H55.4l-.371.348v.047l-.093.07v.046l-.047.023-.023.093-.046.023v.047h-.023v.069h-.024l-.023.093h-.023v.07a1.566,1.566,0,0,0-.139.673v.278h.023v.279h.023v.209h.023v.093h.024v.046H54.7v.07h.023l.023.093h.023l.024.092.046.024.023.092.047.024V73.4l.116.093v.046l.162.14.023.046h.047l.069.093h.047l.023.046.07.023v.024h.046l.023.046.093.023V74h.047v.023l.139.046v.023h.07v.024h.046v.023h.093v.023h.069v.023h.093v.023h.093v.024h.139a3.266,3.266,0,0,0,1.416.046h.209v-.023l.255-.023v-.024h.093v-.023l.256-.069v-.024l.092-.023v-.023h.07v-.023h.046V74l.117-.024.023-.046.093-.023.046-.07h.046l.07-.093H59.3l.07-.093h.023c.027-.039,0-.052.047-.092.015-.209.092-.572-.116-.627-.1-.088-.409-.047-.581-.047h-.882a2.184,2.184,0,0,1-.58-.023.449.449,0,0,1-.023-.162c.069-.047.01-.021.046-.07l.093-.07v-.046l.047-.023v-.047l.046-.023v-.046l.046-.023V72.3l.047-.023.023-.093h.023l.024-.07.046-.023v-.046l.046-.023v-.047h.024l.116-.139h.069c.04-.035.135-.023.209-.023h1.184l.232-.023v.023h.186a5.527,5.527,0,0,1,.882.023l.046.07h.023v.046h.024l-.024.418v1.114a1.609,1.609,0,0,1-.023.557l-.046.023v.047l-.209.185v.047l-.116.093-.023.046h-.047l-.093.116h-.046l-.07.093h-.046l-.023.046-.07.023v.024l-.139.046-.024.047-.139.046v.023h-.046v.023l-.139.047v.023l-.117.023v.023h-.046v.024l-.325.069v.023l-.139.024v.023h-.047v.023h-.069V75.3l-.209.024v.023h-.093v.023h-.093v.023h-.139a1.859,1.859,0,0,1-.487.047h-.256v.023a.645.645,0,0,1-.255-.023l-.743-.024v-.023l-.534-.046v-.023h-.093V75.3h-.092v-.023h-.093v-.023h-.07v-.023h-.069v-.024H55.4v-.023l-.139-.023v-.023l-.093-.023v-.024l-.116-.023v-.023h-.07V75.02L54.885,75v-.024l-.092-.023-.024-.046h-.046l-.046-.07H54.63l-.046-.046h-.047v-.024h-.046v-.023l-.07-.023-.023-.046h-.046l-.093-.116h-.047l-.162-.186-.093-.07v-.046l-.162-.139v-.047l-.07-.046v-.047l-.046-.023-.047-.139-.046-.023-.024-.093h-.023l-.046-.139H53.47v-.07h-.024v-.047h-.023v-.069H53.4V73.3h-.023v-.069h-.023v-.07H53.33v-.07h-.023v-.116h-.023l-.023-.209h-.023v-.139a2.522,2.522,0,0,1-.024-.58v-.232h.024v-.256h.023v-.139h.023v-.093h.023V71.26h.023v-.093h.024v-.093h.023V71H53.4l.046-.139h.024v-.046h.023v-.047h.023v-.046h.023v-.047h.023v-.046h.024v-.07h.023l.023-.092.047-.024V70.4H53.7v-.047l.046-.023v-.046l.093-.07v-.046l.116-.093V70.03l.186-.163.046-.07h.047l.046-.069h.046l.024-.047H54.4l.046-.069h.047l.023-.047h.047l.023-.046.093-.023.023-.047.093-.023V69.4h.046V69.38l.139-.047V69.31h.07v-.023h.046l.024-.047h.069v-.023h.047v-.023H55.3v-.023h.07v-.023h.07v-.024l.324-.046v-.023l.186-.024v-.023h.07v-.023h.139v-.023H56.3v-.023h.163v-.024C56.546,68.892,56.643,68.938,56.7,68.892Zm17.686,0a6.543,6.543,0,0,1,2.716.4v.023l.093.023v.023h.046l.023.047.093.023.023.046h.047l.023.047h.047l.023.046h.046l.023.047h.047l.023.046H77.7v.023l.07.024.023.046h.047l.046.07h.047l.162.185.07.047V70.1l.069.047v.046l.07.046v.047l.07.046v.047l.046.023v.046l.046.024.047.139h.023v.046h.023V70.7h.023l.047.139h.023l.023.139H78.7v.07h.024v.069h.023v.07h.023v.046h.023l.024.186h.023v.163a3.035,3.035,0,0,1-.07,1.439l-.023.185-.209.534-.046.023v.047l-.047.023v.046l-.046.024v.046h-.023V74l-.047.046v.046l-.046.024v.046l-.047.023-.139.163H78.05l-.325.348h-.047l-.023.046-.07.023v.024l-.092.023-.024.046h-.046l-.047.047H77.33v.023h-.046l-.024.046h-.069l-.023.047h-.047v.023h-.046v.023h-.07v.023l-.093.024v.023l-.3.069v.024h-.07v.023h-.07v.023H76.4V75.3h-.093v.024h-.093v.023h-.093v.023H76.03v.023h-.162v.023l-.65.024a1.583,1.583,0,0,1-.488.023v-.023h-.441v-.024H74.1v-.023h-.186v-.023H73.8l-.65-.186v-.023l-.116-.023v-.023H72.99v-.024l-.14-.023v-.023l-.092-.023V75l-.209-.07-.024-.046-.092-.024v-.023l-.07-.023-.023-.047h-.047l-.023-.046-.069-.023-.117-.139h-.046l-.093-.116H71.9l-.023-.047-.093-.07v-.046l-.116-.093v-.046l-.07-.047v-.046L71.527,74v-.047l-.046-.023v-.047l-.046-.023-.024-.069h-.023l-.069-.209H71.3l-.023-.093h-.023v-.07h-.023l-.024-.093h-.023v-.069h-.023v-.093h-.023V73.07H71.11v-.116a2.711,2.711,0,0,1-.047-1.277l.047-.417h.023v-.07h.023v-.07h.023v-.069H71.2l.024-.139h.023l.023-.093H71.3v-.047h.024V70.7h.023l.023-.093h.023l.023-.093.047-.023.023-.093.046-.023v-.047l.07-.046v-.047l.093-.069v-.047l.046-.023.116-.139H71.9l.3-.325h.046l.023-.046.07-.024v-.023h.046l.023-.046.14-.047.023-.046.093-.023v-.024l.139-.046v-.023l.139-.023V69.24l.093-.023v-.023l.116-.023v-.023l.186-.024V69.1h.069v-.023h.07v-.023h.07v-.024h.116v-.023h.116v-.023H73.9v-.023h.093v-.023C74.084,68.909,74.32,68.946,74.382,68.892Zm7.428.163h.278v.023h1.045a3.272,3.272,0,0,1,.742.023h.465v.023h.232c.115.034.279.058.394.093h.14v.023h.069v.024h.07v.023h.069v.023h.07v.023h.093v.023h.07v.024h.069V69.4h.07v.023h.069v.023l.14.047v.023l.093.023.023.047.209.069.023.047h.046l.024.046h.046l.046.07h.047v.023l.069.023.024.046h.046l.163.186a2.6,2.6,0,0,1,.348.348l.023.093.046.023v.047l.047.023.069.209h.024v.046h.023v.047h.023l.046.139h.024l.023.139h.023v.047H87.5v.093h.023v.116h.024v.162h.023v.139a2.854,2.854,0,0,1,.023.7h-.023v.3h-.023v.116h-.024v.093H87.5v.093h-.023l-.023.116h-.023v.047H87.4V73.3H87.38l-.023.093h-.023v.046h-.023v.07h-.024l-.046.139h-.023V73.7H87.2l-.024.093-.046.023v.046l-.07.047v.046l-.139.116v.047l-.209.185-.07.093h-.046l-.046.07H86.5v.023l-.069.023-.024.047h-.046l-.046.069-.07.023-.023.047h-.047l-.046.046H86.08v.023h-.046l-.023.047-.093.023v.023l-.093.024V74.9l-.162.023v.023h-.07v.023h-.07V75h-.069v.023h-.047v.023l-.139.023v.023h-.093v.024l-.209.023v.023h-.139v.023h-.209v.023h-.139v.024H84.34v.023H82.877a7.114,7.114,0,0,1-.789,0H81.16a4.016,4.016,0,0,1-.6-.023l-.023-.07H80.51v-.046h-.023v-.929h-.024l.024-.278V70.215h-.024l.024-.65c0-.165-.032-.373.069-.441.057-.055.165-.046.279-.046h.673C81.6,69.078,81.759,69.1,81.81,69.055Zm24.231.069h.047l.023-.046h.929a1.238,1.238,0,0,1,.394.023v.023h.047l.046.07h.046l.186.232.07.023.116.14.394.371v.046l.3.256v.046l.859.836.51.533.279.256a1.443,1.443,0,0,1,.116.185l.046.024.117.139h.046l.209.232.093.07.023.046h.046l.07.093.046.023v.047l.209.185c.111.111.126.249.348.256.022-.042.033-.037.047-.093a.676.676,0,0,0,.046-.395,5.72,5.72,0,0,1,0-.766,3.3,3.3,0,0,0-.023-.464l.023-.279h-.023v-.371h.023v-.719h.023l-.046-.488h.023V69.24h.023v-.092c.064-.037.057-.064.163-.07.033-.026.182,0,.278,0,.263,0,.511-.021.72,0l.07.093h.023v.441a.562.562,0,0,1,.023.3,4.032,4.032,0,0,0-.023.906v.441h-.023v.116h.023v.394a3.449,3.449,0,0,0,0,.511l-.023.673h.023v.279h-.023l.023.208a1.762,1.762,0,0,0,0,.465v.928c0,.09.021.251-.023.3-.021.094-.067.117-.186.116a2.025,2.025,0,0,1-.464,0h-.464c-.11-.04-.179-.156-.256-.232l-.069-.047-.395-.417-.464-.441v-.047l-.07-.046-.139-.163h-.047l-.092-.116h-.047l-.51-.557-.372-.348-.487-.511-.232-.209v-.046l-.3-.278-.255-.279-.116-.093v-.046l-.047-.023-.069-.093h-.047v-.024l-.093-.069c-.13-.13-.151-.275-.418-.279a.3.3,0,0,1-.069.093c0,.891,0,1.8,0,2.739a9.629,9.629,0,0,1-.023,1.439,1.616,1.616,0,0,1-.14.093h-.51v.023l-.534-.023-.07-.093H106V74.115h-.023c-.015-.038.022-.044.023-.047V72.513h-.023l.023-.557v-.928l-.023-.349H106V69.96l-.023-.186H106v-.557h.023Zm12.07-.069c.1.034.27-.013.395.023s.331-.015.464.023v.023h.139v.024h.162v.023h.14l.371.116h.116v.023h.07v.023h.069v.023h.07v.024l.139.046v.023h.047v.023h.069V69.5l.093.023v.023h.047v.023h.069l.023.047.093.023v.023l.07.023.023.047h.047v.023l.069.023.023.047h.047l.046.069h.047l.046.07h.047l.139.162.069.047v.046l.07.047v.046l.046.023v.047l.07.046v.047l.047.023.023.069h.023v.047l.07.046.023.093.046.023.023.093h.024l.023.093h.023v.07h.023v.046h.023l.024.162h.023v.093h.023v.07h.023v.07h.024v.069h.023v.093h.023v.534a2.255,2.255,0,0,1-.139.975v.069h-.024v.047h-.023l-.023.139h-.023l-.047.139h-.023v.047h-.023l-.023.093-.047.023v.046l-.046.023v.047l-.046.023v.046h-.024l-.023.07-.046.023v.047l-.116.093-.232.255h-.047l-.116.139-.07.023-.023.047-.093.023-.023.046-.093.024-.023.046-.07.023v.023l-.092.024v.023l-.093.023v.023h-.07v.024l-.093.023v.023h-.069v.023h-.07v.023h-.07V75h-.069v.023l-.186.023v.023h-.093v.023h-.069v.024h-.047v.023h-.093v.023l-.348.023v.023h-.162a3.529,3.529,0,0,1-.975.047l-.58.023v-.023h-1.37v.023a1.641,1.641,0,0,1-.534-.023H115.3v-.023c-.074-.02-.117.032-.162.023v-.023h-.07v-.024L115,75.182c-.034-.353-.023-.793-.023-1.183V72.165a4.585,4.585,0,0,1,0-.7V71.19H115l-.023-.07a1.778,1.778,0,0,1,.023-.58l-.023-1.044c0-.179-.023-.353.116-.395a2.36,2.36,0,0,1,.626-.023h1.741A2.544,2.544,0,0,0,118.111,69.055Zm11.721,3.18h.047l.023.046h.186c.032-.041.017,0,.046-.023l.046-.07h.024v-.046l.046-.024V72.1l.07-.046V72l.093-.069v-.047l.046-.023v-.046l.07-.047v-.046l.162-.139v-.047h.023l.047-.069.069-.047v-.046l.07-.047v-.046h.023l.023-.07.047-.023v-.046l.069-.047v-.046l.14-.116v-.047l.162-.139V70.7l.07-.047.023-.093.046-.023v-.046l.07-.047.046-.069h.024v-.047l.116-.093v-.046l.046-.023.023-.07.093-.069v-.047l.07-.046V69.89l.046-.023v-.023l.047-.023v-.047l.093-.069v-.047l.139-.116.023-.07.046-.023V69.4l.186-.163v-.046l.047-.046h.046v-.024c.029-.022.045-.017.07-.046h.882l.325-.023v.023h.092l.07.093h.023V70.4a.442.442,0,0,0-.023.255,3.987,3.987,0,0,1,.023.975v1.648l.023.65h-.023v.905l.023.279h-.023v.046H134.1l-.023.07c-.25.023-.573.022-.859.023l-.3.023v-.023l-.093-.023-.023-.07h-.023v-.046h-.023l.023-.743V73.256l-.023-.441h.023v-.256a2.733,2.733,0,0,0-.023-.6v-.279h.023a1.269,1.269,0,0,0-.046-.557.366.366,0,0,0-.14-.023c-.036.057-.028.015-.069.047l-.024.046h-.023v.046l-.093.07v.047l-.092.069v.047l-.163.139v.046l-.093.07v.046l-.093.07v.046l-.092.07V72l-.093.07v.046l-.232.209v.047l-.07.046v.047h-.023l-.023.069-.047.023v.047l-.186.162v.047l-.046.023v.046l-.07.047v.046l-.162.14v.046l-.07.046v.047l-.069.046v.047l-.348.325v.046l-.07.046-.023.07-.047.023v.047l-.046.023v.046L130.18,74v.046h-.023a.19.19,0,0,0-.046.093c-.044.012-.127.083-.163.069v-.023h-.069l-.093-.116h-.023v-.046l-.07-.047v-.046l-.116-.093V73.79l-.046-.024v-.023l-.047-.023-.023-.07-.186-.162v-.047l-.046-.023-.023-.069-.093-.07v-.046l-.093-.07v-.046l-.047-.024v-.046l-.116-.093v-.046l-.139-.116v-.047l-.139-.116v-.046l-.07-.047V72.49l-.069-.047V72.4h-.024l-.023-.07-.046-.023v-.046l-.139-.116-.024-.07-.093-.07v-.046l-.162-.139V71.77l-.093-.069v-.047l-.093-.069v-.047l-.139-.116-.023-.069-.07-.047c-.09-.127-.081-.227-.3-.232l-.023.046c-.08.082-.022.251-.046.395v.023h-.023l.023.209v.534c.019.226.006.489,0,.766l-.023.255a3.07,3.07,0,0,1,.023.673l.023,1.091h-.023v.093a.5.5,0,0,0-.116.093,7,7,0,0,1-1.138-.023l-.023-.07c-.056-.065-.023-.307-.023-.418l-.023-.65a1.15,1.15,0,0,0,.046-.417,3.937,3.937,0,0,1-.023-.882V71.91a2.518,2.518,0,0,1,.023-.511c.015-.058-.018-.084-.023-.116V69.89h-.023l.046-.742c.042-.022.037-.033.093-.047.068-.059.223,0,.325-.023v-.023a2.442,2.442,0,0,1,.627.023c.163.027.329-.026.441.046l.069.093.14.116.023.07.093.069v.047l.046.023v.047l.07.046v.046l.093.07V69.8l.092.07v.046l.186.163v.046l.093.07v.046l.046.024.024.069h.023v.047l.069.046v.047l.093.069v.047l.116.092v.047l.047.023.023.07.093.069v.047l.069.046v.047l.07.046v.046l.093.07.023.07.047.023v.046l.162.14v.046l.07.046v.047l.162.139v.047l.116.092v.047l.07.046v.047l.046.023.023.069h.024A.252.252,0,0,1,129.832,72.235Zm15.6-3.18a2.122,2.122,0,0,0,.557.023v-.023h.255a4.359,4.359,0,0,0,.929.023h.557l.185.023a6.282,6.282,0,0,1,1.138-.023l.417-.023v.023h.325c.032.009-.009.018.024.023h.255v.023h.116v.024h.116v.023h.116v.023h.139v.023l.163.023v.024h.069v.023h.07v.023l.139.023v.023l.14.047v.023l.092.023.024.047.139.046.07.093h.046l.162.186h.024l.023.046h.046l.023.07.093.069.024.093.046.023.023.093H152l.024.093h.023V70.4h.023a2.079,2.079,0,0,1,.116.766v.209h-.023v.185h-.023l-.024.163h-.023l-.046.139h-.023v.047H152v.069h-.023l-.023.093h-.023v.046l-.047.024v.046l-.3.279-.14.162H151.4l-.047.07H151.3l-.023.046-.093.023v.024h-.046v.023l-.14.046v.023l-.209.047v.023h-.046v.023h-.07l-.069.093h-.023v.163c.029.024.024.041.046.069h.023v.047l.139.116v.046l.233.209v.046l.139.116v.047l.116.093v.046l.093.07v.046l.255.232v.047l.162.139v.046l.163.14v.046l.07.047v.046l.069.046v.047l.047.023a.246.246,0,0,1,.069.162.5.5,0,0,1-.3.047v-.023l-.372.023a1.852,1.852,0,0,1-.905-.093l-.046-.046v-.047L150.49,75V74.95l-.047-.023a1.241,1.241,0,0,0-.116-.186l-.093-.069v-.047L150,74.416V74.37l-.185-.163v-.046l-.116-.093v-.046l-.14-.116v-.047l-.093-.069v-.047l-.046-.023v-.046l-.07-.047v-.046l-.185-.163v-.046l-.232-.209a1.552,1.552,0,0,0-.511-.023v.023a.483.483,0,0,1-.209-.023h-.6a3.032,3.032,0,0,0-.906.046,1.389,1.389,0,0,0-.092.139v.581a7.944,7.944,0,0,1-.047,1.276c-.042.022-.036.032-.093.047-.05.044-.212.023-.3.023a5.177,5.177,0,0,1-.836-.023c-.022-.042-.032-.037-.046-.093-.055-.062-.024-.288-.024-.395V69.589a1.112,1.112,0,0,1,.024-.465l.069-.023v-.023h.07Zm15.156.046v.116c-.057.032-.075.087-.116.116h-.046l-.047.07h-.046l-.046.069h-.047l-.046.07h-.047l-.209.232h-.046l-.07.093h-.046l-.07.093h-.046l-.163.186h-.046l-.093.116h-.046l-.047.069h-.046l-.093.116h-.046l-.093.116h-.047l-.232.256h-.046l-.07.093h-.046l-.07.092h-.046l-.047.07-.069.023-.14.163h-.046l-.139.162v.047h-.024a.437.437,0,0,0,.07.278l.07.047.069.092h.024v.047l.069.046v.047l.07.046v.046l.093.07v.047l.069.046v.046l.093.07v.046l.232.209V72.7l.047.023v.046l.116.093v.047l.139.116v.046l.116.093v.046l.046.024.024.069.093.07v.046l.116.093v.047l.046.023V73.6l.046.023v.047l.116.092v.047l.117.093v.046l.092.07v.046l.07.047v.046l.07.046v.047l.092.069v.047l.093.07v.046l.093.07V74.6l.186.162v.047l.093.07v.046l.046.023a.391.391,0,0,1,.116.255,2.9,2.9,0,0,1-.928.047c-.119-.1-.337.054-.488,0v-.023l-.093-.024-.069-.092-.209-.186v-.046l-.139-.117v-.046l-.116-.093v-.046l-.07-.047v-.046l-.093-.07V74.37l-.116-.093v-.046l-.046-.024v-.046l-.209-.186v-.046l-.07-.047v-.046l-.046-.023v-.047l-.07-.046v-.046l-.116-.093v-.047l-.116-.093V73.4l-.139-.116v-.046l-.163-.14v-.046l-.046-.023-.023-.07-.116-.093v-.046l-.093-.07c-.106-.147-.179-.336-.418-.348v.023l-.116.023-.047.07h-.046l-.07.093h-.046l-.116.139h-.046l-.117.139h-.046L156.06,73h-.023l-.023.047h-.047l-.278.3h-.047l-.046.069-.093.023-.046.07h-.047l-.023.047-.093.069-.046.139h-.023a1.1,1.1,0,0,0-.024.395h.024a2.659,2.659,0,0,1-.024.673c-.051.185.066.274-.092.371-.061.062-.2.047-.325.047a2.9,2.9,0,0,1-.882-.047A4.682,4.682,0,0,1,153.855,74l.023-.3a2.621,2.621,0,0,1-.023-.557V70.749a4.806,4.806,0,0,1,0-.6v-.279a4.77,4.77,0,0,1,.023-.719c.025-.014.038-.041.047-.047h.046v-.023h.4a3.17,3.17,0,0,1,.766.023c.022.042.032.037.046.093.037.042.023.154.023.232V71.1h.024a.774.774,0,0,1-.024.3,2.084,2.084,0,0,0,.047.673.449.449,0,0,0,.162.023c.044-.049.109-.055.163-.093l.046-.069h.047l.069-.093h.047l.093-.116h.046l.232-.255h.046l.14-.163h.046l.093-.116h.046l.14-.162h.046l.186-.209h.046l.07-.093h.046l.047-.07h.046l.047-.069h.046l.278-.3h.047l.093-.116h.046l.093-.116h.046l.07-.093h.046l.047-.07h.046l.07-.093h.046l.279-.3h.046l.093-.116h.047l.069-.093h.047l.092-.116h.047l.023-.047.116-.023v-.023h.186a2.161,2.161,0,0,1,.58-.023v.023h.232A3.643,3.643,0,0,1,160.586,69.1Zm2.112-.046.233.023a5.314,5.314,0,0,1,.789.023l1.16-.046c.711.014,1.489.023,2.275.023h.418v-.023c.073-.019.109.018.162.023h.534c.1,0,.261-.021.325.023v.023c.053.048.04.018.046.116-.046.041-.019.053-.046.093l-.07.047v.046l-.046.023V69.5l-.047.023-.023.07h-.023l-.023.092-.047.024-.046.139-.07.046v.047l-.185.162-.024.047-.092.023v.023h-.952c-.158,0-.34.012-.464.023l-1.555-.023c-.271,0-.943-.059-1.045.093-.061.061-.046.2-.046.325v.719h.023l.023.116.07.047v.023H164v.023h.07v.023h1.091l1-.023v.023h.093a3.577,3.577,0,0,1,.719.024.483.483,0,0,0,.209-.024,2.609,2.609,0,0,1,.7.024c.022.041.032.036.047.092.035.039.023.136.023.209a2.725,2.725,0,0,1-.023.673c-.017.064-.026.061-.07.093v.024h-.928a5.718,5.718,0,0,0-.7,0,2.753,2.753,0,0,1-.673,0h-.371v-.024h-.116v.024h-.441c-.258,0-.686-.071-.743.139-.064.064-.046.221-.046.348v.766h.023l.023.116a1.185,1.185,0,0,0,.163.093H165v.023l.372-.023a1.849,1.849,0,0,0,.441,0h.139v-.023a.784.784,0,0,1,.371.046l.232-.023h1.463v.023h.046l.139.116.024.093.046.023v.047l.046.023v.046l.07.047.023.092.047.024v.046l.046.023.023.093.047.023V74.9l.069.046a.353.353,0,0,1,.093.255l-.069.024c-.068.059-.327.023-.441.023h-1.37v.023l-.394-.023h-1l-.626-.023v.023h-.557a2.48,2.48,0,0,1-.627,0h-.4s0,.02-.046.023l-.232-.023-.3.023v-.023h-.093l-.069-.093h-.023v-.371a.749.749,0,0,1-.024-.372,3.269,3.269,0,0,0,.024-.742v-.3a2.459,2.459,0,0,1,.023-.511v-.093h-.023v-.882l-.024-.905h.024v-.209a2.427,2.427,0,0,1,0-.626v-.372h-.024l.024-.185h-.024a.964.964,0,0,1,.047-.441.339.339,0,0,0,.093-.07h.092Zm10.074,6.058a6.943,6.943,0,0,1-.023-1.068V73.7h-.024l.024-.3h.023v-.162a3.761,3.761,0,0,1-.023-.836V70.471a1.329,1.329,0,0,1-.07-.163c-.069-.017-.052-.038-.07-.046h-.093v-.024h-1.74a4.289,4.289,0,0,1-.673-.023.557.557,0,0,0-.093-.116,5.331,5.331,0,0,1,.046-.951c.238-.128.433-.07.766-.07a2.228,2.228,0,0,0,.488-.023l.765.023h1.161l.232.023h.07v-.023h.255v-.023a.062.062,0,0,1,.07.023h1.671V69.1h.278v-.023h.279a4.24,4.24,0,0,1,.65.023c.022.042.032.037.046.093h.023v.186a3.437,3.437,0,0,1-.023.533c-.007.04.022.04.023.047a.334.334,0,0,1-.092.278H174.28v.024h-.069l-.07.092c-.069.071-.046.258-.046.395v1.462h-.023c-.013.056.023.061.023.093a.05.05,0,0,0-.023.047,3.261,3.261,0,0,1,.023.58l-.023.534a3.043,3.043,0,0,1,.023.65v.255h-.023l-.024.093-.092.069v.024h-.047l-.023.046h-.047v.023l-.092.023-.024.047h-.046v.023h-.046v.023h-.047l-.046.047h-.047l-.023.046h-.046l-.024.047h-.046l-.023.046-.093.023-.023.047h-.047v.023H173.1v.023h-.047a.42.42,0,0,1-.232.093C172.792,75.109,172.818,75.127,172.772,75.113Zm-72.9-6.035a7.655,7.655,0,0,1,1.416.046l.047.07h.023v.046l.046.024v.046l.047.023.023.093.046.023.233.534h.023v.047l.046.023V70.1l.047.023v.047l.046.023v.046l.046.024.024.092H102l.023.093h.023v.07h.023l.024.093h.023v.069h.023v.047l.047.023.023.093.046.023v.047l.047.023.046.139h.023l.023.093h.024l.023.093h.023v.046h.023v.047h.023V71.4h.024v.046h.023l.046.14h.024l.023.092h.023v.047h.023v.046h.023v.047h.024v.046h.023l.023.093.046.023.024.093.046.023v.047h.023l.14.348.046.023.023.093h.023l.024.07.046.023.023.093.047.023.023.093.046.046V73h.023v.047h.024v.046h.023l.023.093h.023l.024.093h.023v.046h.023v.047l.046.046v.047l.047.023.046.139.047.023V73.7l.046.046v.047h.023v.046h.023v.046h.024v.047h.023v.046l.046.047v.046l.047.023.046.14.047.023V74.3l.046.047v.046h.023v.047h.023v.046h.024v.046h.023v.047h.023l.046.139h.024v.07h.023v.046l.046.023.024.093h.023a.416.416,0,0,1,.069.255c-.06.033-.039.042-.139.047-.057.051-.2,0-.3,0a5.23,5.23,0,0,1-.905-.047c-.031-.057-.087-.075-.116-.116v-.046l-.046-.023v-.047l-.047-.046v-.046h-.023v-.047h-.023l-.047-.139h-.023l-.023-.093h-.023l-.023-.093h-.024v-.046H102.7v-.047h-.023V74.37h-.023v-.047h-.023v-.046h-.024c-.063-.118-.089-.265-.232-.3-.059-.058-.183-.046-.3-.046H98.753a1.6,1.6,0,0,1-.162.07l-.186.3v.07h-.023v.046h-.023v.047h-.023l-.047.139h-.023v.07h-.023l-.047.139h-.023v.046H98.15l-.023.093-.047.023-.046.14-.163.139c-.405,0-.9.01-1.23,0a.3.3,0,0,1-.046-.186h.023l.023-.093.047-.023.023-.069h.023v-.047l.046-.046v-.047H96.8v-.046h.023v-.047h.023V74.6h.023l.024-.093h.023v-.046h.023v-.047h.023V74.37h.023v-.047h.024v-.046h.023l.046-.139.047-.023.046-.14.046-.023v-.046l.047-.047v-.046h.023v-.047h.023l.024-.092.046-.024.023-.092h.023v-.047h.024v-.046h.023v-.047l.046-.046v-.047l.047-.023v-.046l.046-.023v-.047h.023V73.14h.023v-.07h.024l.023-.093h.023l.07-.209.046-.023.047-.139.046-.023.023-.093.047-.023V72.42h.023v-.046l.046-.047v-.046l.047-.023.023-.093.046-.023V72.1h.024v-.069h.023v-.047h.023l.162-.371.047-.023v-.047l.046-.046v-.047h.023V71.4h.024v-.046h.023v-.047l.046-.046v-.047l.047-.023.046-.139.047-.023.023-.093.046-.023v-.047h.023v-.046h.024l.023-.116.209-.349.023-.092h.023v-.047h.023v-.046h.024v-.047h.023v-.046h.023V70.03h.023l.023-.093.047-.024v-.046l.046-.023V69.8h.023v-.046h.024v-.07h.023l.023-.092h.023l.024-.093.046-.024v-.046h.023V69.38h.023v-.047l.047-.046V69.24l.046-.023v-.046h.023l.024-.047C99.812,69.1,99.827,69.123,99.867,69.078Zm43.868,6.127h-.046v.024h-.464c-.127.035-.346-.016-.488.023v.023h-.162v-.023h-.116s0-.015-.047-.023l-.069-.093h-.023L142.273,75l-.046-.024-.023-.092h-.024l-.046-.14h-.023v-.069h-.024l-.046-.14h-.023v-.046H142V74.44h-.024v-.047h-.023v-.046h-.023V74.3H141.9l-.023-.093-.047-.023-.023-.093-.093-.069-.023-.047h-.07a3.693,3.693,0,0,0-1.067-.046h-.3v-.023l-.813.023a3.036,3.036,0,0,0-.649.023l-.233-.023c-.208,0-.427.013-.6.023-.035.057-.032.015-.07.047l-.023.069-.07.047-.023.092-.046.024-.023.092h-.024l-.046.14h-.023v.069h-.023l-.024.093h-.023l-.023.093-.046.023v.047h-.024v.046h-.023v.047H137.4c-.067.125-.088.255-.209.324-.071.073-.278.047-.418.047h-.185v.023l-.418-.023c-.146,0-.213.016-.279-.07h-.023v-.116h.023l.023-.093.047-.023.023-.093.046-.023v-.046l.047-.047v-.046h.023v-.047l.047-.046v-.046l.046-.024v-.046h.023V74.44l.047-.047v-.046l.046-.024.023-.092.047-.024v-.046h.023v-.07h.023v-.046h.023v-.07h.023l.024-.093h.023l.023-.092.047-.024.023-.092.046-.024V73.6l.047-.046v-.047h.023v-.046h.023v-.047h.023v-.046h.023v-.047h.024l.023-.092.046-.024v-.046h.023v-.046h.024V73.07l.046-.046v-.047l.047-.023v-.046l.046-.047v-.046h.023v-.047h.023v-.046h.024v-.046h.023v-.047h.023v-.046l.046-.047V72.49l.047-.023.046-.14.047-.023.023-.093h.023l.023-.093h.024v-.069l.046-.023.023-.093.047-.023.023-.07h.023l.162-.4.047-.046v-.046l.046-.024.047-.139h.023v-.046h.023V71.1H138l.047-.139h.023v-.07h.023v-.046h.023V70.8l.047-.023.023-.093.046-.023.047-.139.046-.023v-.047h.024V70.4h.023v-.047l.046-.046v-.046l.047-.024v-.046h.023v-.046l.046-.047v-.046l.047-.023v-.047l.046-.046V69.89h.023l.047-.162.046-.023.023-.093.047-.023.023-.07h.023c.088-.138.1-.372.279-.418.049-.045.212-.023.3-.023h.743c.086,0,.231-.019.279.023.2.056.212.232.3.395h.024v.046l.046.023.046.14.047.023.023.093.047.023v.046h.023l.023.093h.023v.07h.023l.024.093h.023l.023.092.046.024v.046l.047.046V70.4h.023v.046h.023l.023.093.047.023.023.093h.023V70.7l.047.023v.046l.046.047v.046h.023v.047h.024l.023.092.046.024.023.092.047.024.023.092.047.047v.046h.023v.047h.023v.046h.023v.047h.023v.046h.024l.069.209h.023l.024.093h.023v.046l.046.023v.047l.047.023V72l.069.047V72.1h.024l.046.14h.023V72.3h.023l.047.139h.023v.047h.023l.023.093.047.023.023.093.046.023v.046l.047.047v.046h.023v.047h.023v.046h.024V73h.023v.047l.046.023.023.093.047.046v.047h.023V73.3h.023v.047h.023V73.4h.024v.046l.046.047v.046l.046.024V73.6h.024v.046h.023v.07h.023l.023.093h.024v.069l.046.024v.046h.023V74l.047.046v.046l.046.024.046.139.047.023.023.093h.023v.046h.023v.047h.024v.046h.023v.047h.023V74.6l.047.046v.047l.046.023v.046l.046.024a.917.917,0,0,1,.14.371C143.732,75.185,143.749,75.159,143.735,75.205ZM90.444,69.217h.139c.04.068.067.067.07.186.049.057.023.249.023.348l-.023.905c0,.65,0,1.344,0,1.927a4.231,4.231,0,0,0,.023.928l-.023.418h.023l.023.116c.027.014.036.04.047.046h.046v.024h.116v.023l.209-.023h.6l.7-.024a2.825,2.825,0,0,0,.627.024,6.188,6.188,0,0,1,.882.023l.812-.023a.625.625,0,0,1,.278.023l.024.046.046.023v.6a.7.7,0,0,1-.023.371H95.04c-.031.035-.012.033-.07.047-.081.078-.21.023-.348.023h-.464v.023h-.116l-.3-.023a2.458,2.458,0,0,1-.464,0H92.208v-.023h-.093l-.627.023v.023l-.324-.023h-.906a5.651,5.651,0,0,1-.882-.023l-.023-.07a.322.322,0,0,1-.046-.255,3.343,3.343,0,0,0,.023-.836v-3.83a.772.772,0,0,1,.046-.348c.044-.152.175-.164.3-.232v-.023h.046v-.023h.047v-.023h.046v-.024h.047v-.023l.093-.023.023-.047.139-.046.023-.046h.047l.046-.047h.047l.023-.046h.046v-.023C90.4,69.237,90.408,69.259,90.444,69.217Zm-24.162.859h.348l.511.162v.024h.046v.023l.209.069.023.047h.047v.023h.046v.023h.046l.047.047h.046l.047.069h.046l.209.232.162.14v.046l.047.023.023.093h.023l.024.093h.023v.07h.023v.046H68.3l.023.093h.024l.023.162a1.3,1.3,0,0,1,.069.674v.3l-.116.488H68.3v.046h-.023l-.023.116-.047.023v.047h-.023l-.023.069-.047.024V73.4l-.069.046v.047l-.093.07-.023.046h-.047l-.232.255h-.046l-.023.047h-.047l-.023.046-.209.07v.023h-.046v.023h-.07v.023h-.07v.024h-.069v.023h-.093v.023h-.046v.023h-.07v.023h-.047v.024H66.7v.023h-.116v.023h-.14a2.659,2.659,0,0,1-.673.023v-.023h-.3v-.023h-.208v-.023l-.256-.024v-.023h-.093v-.023H64.82v-.023h-.093v-.023h-.07v-.024h-.07v-.023h-.069v-.023h-.047v-.023h-.046l-.023-.047-.139-.046v-.023l-.07-.024-.023-.046h-.047l-.139-.162h-.046V73.65l-.093-.069v-.047l-.14-.116v-.046l-.069-.047v-.046l-.047-.023-.023-.093h-.023l-.023-.093H63.5V73h-.024v-.069H63.45v-.07h-.023v-.093H63.4v-.116h-.023v-.116h-.024a2.873,2.873,0,0,1-.023-.673c.033-.115.079-.26.116-.371l.023-.163H63.5l.023-.093h.023V71.19l.046-.023V71.12l.047-.023v-.046h.023V71l.046-.046v-.046l.047-.024v-.046l.07-.047.139-.162h.046l.047-.07H64.1l.046-.069h.047l.023-.047h.047l.023-.046h.046v-.023h.047v-.024h.069v-.023H64.5v-.023l.092-.023v-.023l.209-.047v-.023h.047v-.023l.673-.116c.082-.024.179.021.232-.023A2.032,2.032,0,0,1,66.282,70.076Zm9.725.116.139.023v.023l.116.024v.023l.093.023v.023H76.4v.023h.069v.024l.093.023v.023l.093.023.023.047h.047l.116.139h.046l.139.162.07.047v.046l.07.047v.046l.046.023.046.14h.024v.046h.023v.046h.023l.046.14H77.4l.046.209h.023v.139h.024l.023.534h-.023v.255l-.093.418h-.024l-.023.093H77.33v.069h-.023l-.023.093H77.26l-.023.093-.046.023-.023.093-.047.023v.047l-.069.046v.047l-.093.069-.093.116h-.047l-.046.07h-.046l-.024.046h-.046l-.046.047h-.047v.023h-.046v.023h-.047v.023h-.046V74h-.047v.023l-.139.046v.023H76.17v.024h-.047v.023l-.209.046v.023h-.162v.024h-.14v.023H75.52v.023h-.209V74.3h-.789v-.023h-.14v-.023l-.371-.023v-.024h-.07v-.023l-.093-.023v-.023l-.116-.023v-.024h-.069v-.023l-.139-.023v-.023L73.431,74v-.024h-.047l-.023-.046-.093-.023-.023-.047H73.2l-.047-.069h-.046l-.093-.116-.186-.163v-.046l-.069-.047v-.046l-.047-.023-.046-.14-.047-.023-.023-.093h-.023l-.047-.139H72.5l-.023-.162a2.616,2.616,0,0,1,0-1.277v-.093H72.5v-.046h.023l.024-.116.046-.024.047-.139.046-.023v-.046h.023v-.047l.07-.046v-.047L72.9,70.8v-.046l.093-.07.023-.046h.046l.093-.116.093-.023.023-.047.139-.046v-.023h.047v-.024H73.5v-.023l.14-.046v-.023l.208-.047v-.023l.674-.139c.1-.028.236.031.3-.023A3.556,3.556,0,0,1,76.007,70.192Zm72-.023v.023h.929a3.072,3.072,0,0,1,.673.023h.3v.023h.186v.024h.093v.023h.046v.023h.07v.023h.046v.023h.047l.023.047h.046l.047.07.07.023.023.069.069.047v.046l.047.023v.047h.023l.023.093h.023a1.2,1.2,0,0,1-.116.835l-.046.023-.093.117-.093.023-.023.046h-.046v.023l-.14.047v.023h-.069v.023h-.07V72h-.162v.024L149.4,72a2.923,2.923,0,0,1-.743.024V72c-.033,0,.009.017-.023.024h-.813a3.416,3.416,0,0,1-.765-.024c-.105-.028-.242.024-.325-.023a.637.637,0,0,1-.116-.534h.023l-.023-.278a2.853,2.853,0,0,0,.023-.557.506.506,0,0,1-.023-.232h.023v-.07h.023l.023-.07c.032-.012.052-.008.093-.023v-.023a.5.5,0,0,1,.232.023,1.342,1.342,0,0,0,.441-.023c.108-.009.306.033.371-.023ZM120.13,73.534v.024h-.046l-.023.046h-.047l-.046.07h-.047l-.023.046h-.046l-.023.046h-.047l-.023.047h-.047v.023h-.046v.023h-.07v.023h-.046v.024h-.07v.023h-.069v.023h-.07v.023h-.07V74l-.232.023v.023h-.162v.023h-.186v.023h-.185v.024H118.3v.023l-.906-.023c-.183.015-.43.023-.649.023h-.256v-.023h-.046v-.024l-.07-.023-.023-.093h-.023v-1c0-.542-.02-1.144.023-1.648.024-.282-.106-.843.023-.975l.07-.092a1.777,1.777,0,0,1,.534-.047.437.437,0,0,0,.209.023,2.733,2.733,0,0,1,.6-.023,2.568,2.568,0,0,1,.72.023h.116v.024h.139v.023h.255v.023h.116v.023h.116v.023l.209.047v.023h.047v.023h.069v.024l.139.046v.023h.047v.023l.139.047.023.046.07.023.046.07h.047l.069.093h.047l.046.07h.024v.046l.092.07v.046l.047.023.023.07h.023v.046l.047.023v.047l.046.023v.047h.023l.023.092h.024v.07h.023v.07h.023V71.7h.023v.139a3.042,3.042,0,0,1,.024.719h-.024v.07h-.023v.07h-.023l-.023.139h-.024l-.023.093h-.023V73h-.023l-.023.093h-.024l-.023.093-.046.023v.047l-.047.023V73.3l-.046.023v.047h-.023a.242.242,0,0,0-.07.116A.194.194,0,0,0,120.13,73.534Zm-36.7-3.3a2.7,2.7,0,0,1,.627-.023v.023h.163v.024h.162v.023h.139v.023h.093v.023h.093v.023H84.8l.557.233.023.046h.047l.023.046H85.5l.047.07h.046l.07.093.162.139v.047l.07.046v.046l.046.024.023.069h.024v.047l.046.023v.046h.023v.07h.023v.046H86.1l.116.488v.278a1.57,1.57,0,0,1-.07.511l-.023.162H86.1l-.047.14h-.023l-.023.093-.047.023v.046h-.023v.047l-.069.046v.046l-.186.163-.047.07-.092.023-.024.046h-.046l-.046.07h-.047l-.046.069h-.047l-.023.047-.325.093v.023h-.07v.023H84.8v.023h-.07V74h-.093v.023l-.185.023v.023H84.34v.023h-.372a1.964,1.964,0,0,1-.51.047h-.395v.023H82.97s-.008-.02-.046-.023h-.4v-.023h-.394a.061.061,0,0,1-.07.023.809.809,0,0,1-.186-.093,1.309,1.309,0,0,1-.046-.534,1.113,1.113,0,0,0,.023-.441,2.083,2.083,0,0,1-.023-.6,2.593,2.593,0,0,0-.023-.511v-.093h.023v-.348a4.947,4.947,0,0,1,.023-1.021l.023-.163H81.9l.046-.069.116-.024v-.023Zm56.4.116v.024c.136.035.1.114.162.209l.047.023v.046l.046.047v.046h.024V70.8h.023v.047h.023l.023.116h.023V71h.024v.047h.023V71.1l.046.047.023.092.047.024v.046l.046.047V71.4h.023v.046h.024v.047h.023v.069h.023l.023.093h.024l.023.093.046.023.023.093.047.023v.047l.046.046v.047h.023v.046h.024v.046h.023v.047h.023v.046l.046.024.024.092a1.11,1.11,0,0,1,.162.372h-.023v.069l-.046.024v.023h-.047v.023h-.511a4.021,4.021,0,0,1-.905.023c-.144,0-.395.012-.464,0-.153-.026-.351.038-.441-.046l-.07-.023v-.209h.024l.023-.093h.023v-.047l.046-.023.024-.093h.023v-.046h.023v-.046h.023v-.047h.024v-.046h.023v-.07l.046-.023V72l.047-.046.162-.395.046-.023.024-.093h.023V71.4h.023v-.046h.023v-.047l.047-.046v-.047l.046-.023.023-.093.047-.023v-.046h.023l.023-.093h.023v-.07h.024v-.046h.023l.023-.116h.023l.047-.14h.023v-.046h.023l.023-.093h.024l.023-.046h.046v-.024Zm-39.249.024V70.4c.058.015.038.012.07.046h.023v.047l.046.023v.07h.023v.046h.024v.046l.046.047v.046l.047.023v.047h.023v.046h.023v.07h.023l.023.093h.024l.023.093.046.023.047.139.046.023.023.093h.023v.047h.024l.046.139h.023v.069h.024v.047h.023v.07h.023v.046l.046.023.047.139h.023v.07h.023l.023.093h.024l.023.093.046.023v.046h.023v.047h.024v.046h.023v.047l.046.023.024.093h.023c0,.132,0,.176-.07.232v.023a1.991,1.991,0,0,1-.58.023v-.023H100.7v.023h-.348v.023l-.255-.023a3.492,3.492,0,0,1-.465-.023c-.08-.017-.11.066-.185,0-.132-.007-.117-.057-.186-.116a.654.654,0,0,1,.116-.325l.046-.023.024-.093.046-.023.023-.093h.024v-.047h.023v-.046h.023v-.046h.023l.07-.232h.023l.023-.093h.023v-.047l.047-.023.046-.139.047-.023v-.047h.023v-.046l.046-.023.07-.209h.023L100.1,71h.023v-.046h.023v-.046h.023l.047-.14.046-.023V70.7h.023l.023-.116h.024l.023-.093.046-.023v-.047c.016-.021.048-.018.07-.046Z" fill-rule="evenodd"/></svg>