<svg id="レイヤー_1" data-name="レイヤー 1" xmlns="http://www.w3.org/2000/svg" width="230" height="100" viewBox="0 0 230 100"><title>sp_urbs</title><path d="M73.092,31.569v16.32A8.978,8.978,0,0,0,74.233,53a6.11,6.11,0,0,0,9.607,0q1.141-1.562,1.141-5.107V31.569h4.092V49.025a9.77,9.77,0,0,1-2.669,7.06,10.325,10.325,0,0,1-14.734,0A9.767,9.767,0,0,1,69,49.025V31.569Z"/><path d="M106.646,47.128l8.394,11.556h-5.005l-7.744-11.1h-.738v11.1H97.461V31.569h4.8q5.373,0,7.762,2.02a7.417,7.417,0,0,1,2.634,5.935A7.7,7.7,0,0,1,111,44.477,7.356,7.356,0,0,1,106.646,47.128Zm-5.093-3.108h1.3q5.813,0,5.813-4.443,0-4.162-5.655-4.162h-1.458Z"/><path d="M121.54,58.684V31.569h4.075a17.852,17.852,0,0,1,4.338.421,6.519,6.519,0,0,1,2.757,1.423,7.386,7.386,0,0,1,1.809,2.581,7.806,7.806,0,0,1,.685,3.161,6.406,6.406,0,0,1-2.231,4.935,6.551,6.551,0,0,1,3.407,2.582A7.641,7.641,0,0,1,135.4,56.3a7.389,7.389,0,0,1-3.038,1.879,17.658,17.658,0,0,1-4.619.509Zm4.093-15.472h1.282a4.723,4.723,0,0,0,3.345-1.01,3.916,3.916,0,0,0,1.062-2.976,3.736,3.736,0,0,0-1.088-2.907,4.542,4.542,0,0,0-3.161-.992h-1.44Zm0,11.626h2.528a6.28,6.28,0,0,0,4.075-1.089,3.764,3.764,0,0,0,1.37-2.985,3.828,3.828,0,0,0-1.318-2.951q-1.281-1.176-4.583-1.176h-2.072Z"/><path d="M160.3,35.59l-3.32,1.967A5.691,5.691,0,0,0,155.2,35.45a4.132,4.132,0,0,0-2.265-.562,4.178,4.178,0,0,0-2.827.967,3,3,0,0,0-1.124,2.39q0,1.986,2.95,3.2l2.705,1.107a11.546,11.546,0,0,1,4.829,3.261A7.353,7.353,0,0,1,161,50.529a8.3,8.3,0,0,1-2.494,6.187,8.556,8.556,0,0,1-6.234,2.46,8.32,8.32,0,0,1-5.831-2.1,9.665,9.665,0,0,1-2.827-5.892l4.144-.913a7.043,7.043,0,0,0,.984,3.3,4.674,4.674,0,0,0,6.867.476,4.43,4.43,0,0,0,1.264-3.247,4.6,4.6,0,0,0-.219-1.448,3.72,3.72,0,0,0-.685-1.211,5.511,5.511,0,0,0-1.2-1.035,11.491,11.491,0,0,0-1.756-.921L150.393,45.1q-5.568-2.352-5.567-6.88a6.522,6.522,0,0,1,2.336-5.106,8.436,8.436,0,0,1,5.812-2.071Q157.663,31.042,160.3,35.59Z"/><path d="M69.861,65.6v1.907a1.049,1.049,0,0,0,.133.6.715.715,0,0,0,1.122,0,1.023,1.023,0,0,0,.134-.6V65.6h.478v2.039a1.173,1.173,0,1,1-2.345,0V65.6Z"/><path d="M74.178,67.416l.981,1.349h-.585l-.905-1.3h-.086v1.3h-.478V65.6h.56a1.4,1.4,0,0,1,.907.236.867.867,0,0,1,.308.693.9.9,0,0,1-.193.579A.87.87,0,0,1,74.178,67.416Zm-.595-.364h.152c.452,0,.679-.173.679-.519q0-.486-.661-.486h-.17Z"/><path d="M76.477,68.765V65.6h.476a2.071,2.071,0,0,1,.506.049.754.754,0,0,1,.322.166.871.871,0,0,1,.212.3.919.919,0,0,1,.08.369.75.75,0,0,1-.261.577.766.766,0,0,1,.4.3.9.9,0,0,1-.47,1.344,2.045,2.045,0,0,1-.539.059Zm.478-1.807H77.1a.549.549,0,0,0,.391-.118.456.456,0,0,0,.124-.348.434.434,0,0,0-.127-.339.532.532,0,0,0-.369-.116h-.168Zm0,1.358h.3a.732.732,0,0,0,.476-.127.44.44,0,0,0,.16-.349.445.445,0,0,0-.154-.344.793.793,0,0,0-.535-.138h-.242Z"/><path d="M81.565,68H80.209l-.353.769h-.515L80.909,65.4l1.512,3.366H81.9Zm-.195-.449L80.9,66.47l-.492,1.077Z"/><path d="M83.593,68.765V65.383L85.9,67.8V65.6h.478v3.36l-2.31-2.41v2.217Z"/><path d="M90.529,67.416l.98,1.349h-.585l-.9-1.3h-.086v1.3h-.478V65.6h.56a1.4,1.4,0,0,1,.906.236.864.864,0,0,1,.308.693.9.9,0,0,1-.193.579A.864.864,0,0,1,90.529,67.416Zm-.595-.364h.151q.68,0,.679-.519,0-.486-.66-.486h-.17Z"/><path d="M94.467,66.047H93.2v.761H94.43v.45H93.2v1.058h1.269v.449H92.72V65.6h1.747Z"/><path d="M97.794,66.068l-.387.23a.677.677,0,0,0-.207-.247.553.553,0,0,0-.595.048.348.348,0,0,0-.132.279q0,.233.345.373l.316.13a1.348,1.348,0,0,1,.564.381.856.856,0,0,1,.179.551.973.973,0,0,1-.292.723,1,1,0,0,1-.728.287.969.969,0,0,1-.681-.246,1.123,1.123,0,0,1-.33-.688l.484-.106a.817.817,0,0,0,.115.385.5.5,0,0,0,.43.2.505.505,0,0,0,.372-.149.519.519,0,0,0,.147-.379.531.531,0,0,0-.025-.169.426.426,0,0,0-.08-.142.66.66,0,0,0-.141-.121,1.386,1.386,0,0,0-.2-.107l-.306-.128a.88.88,0,0,1-.65-.8.759.759,0,0,1,.273-.6.983.983,0,0,1,.679-.243A.949.949,0,0,1,97.794,66.068Z"/><path d="M101.068,66.047H99.8v.761h1.233v.45H99.8v1.058h1.27v.449H99.32V65.6h1.748Z"/><path d="M104.5,68h-1.356l-.353.769h-.515l1.568-3.366,1.511,3.366h-.523Zm-.195-.449-.47-1.077-.492,1.077Z"/><path d="M107.577,67.416l.98,1.349h-.584l-.905-1.3h-.086v1.3H106.5V65.6h.56a1.4,1.4,0,0,1,.906.236.864.864,0,0,1,.308.693.9.9,0,0,1-.193.579A.864.864,0,0,1,107.577,67.416Zm-.595-.364h.151q.68,0,.679-.519,0-.486-.66-.486h-.17Z"/><path d="M111.982,65.767v.565a1.324,1.324,0,0,0-.857-.346,1.092,1.092,0,0,0-.823.351,1.181,1.181,0,0,0-.336.853,1.156,1.156,0,0,0,.336.841,1.115,1.115,0,0,0,.825.342,1.01,1.01,0,0,0,.429-.082,1.29,1.29,0,0,0,.2-.11,2.522,2.522,0,0,0,.222-.169v.578a1.719,1.719,0,0,1-.861.233,1.589,1.589,0,0,1-1.159-.474,1.571,1.571,0,0,1-.478-1.153,1.626,1.626,0,0,1,.4-1.079,1.593,1.593,0,0,1,1.274-.581A1.629,1.629,0,0,1,111.982,65.767Z"/><path d="M114,66.837h1.366V65.6h.478v3.167h-.478V67.286H114v1.479h-.478V65.6H114Z"/><path d="M118.915,68.765V65.6h.476a2.08,2.08,0,0,1,.507.049.76.76,0,0,1,.322.166.868.868,0,0,1,.211.3.9.9,0,0,1,.08.369.752.752,0,0,1-.26.577.766.766,0,0,1,.4.3.856.856,0,0,1,.147.5.843.843,0,0,1-.262.627.862.862,0,0,1-.355.22,2.05,2.05,0,0,1-.539.059Zm.478-1.807h.15a.551.551,0,0,0,.391-.118.456.456,0,0,0,.124-.348.434.434,0,0,0-.127-.339.532.532,0,0,0-.369-.116h-.169Zm0,1.358h.3a.734.734,0,0,0,.476-.127.443.443,0,0,0,.16-.349.449.449,0,0,0-.154-.344.8.8,0,0,0-.536-.138h-.242Z"/><path d="M122.468,65.6v1.907a1.048,1.048,0,0,0,.134.6.715.715,0,0,0,1.122,0,1.032,1.032,0,0,0,.133-.6V65.6h.478v2.039a1.173,1.173,0,1,1-2.345,0V65.6Z"/><path d="M126.622,67.4l-1.034-1.8h.55l.724,1.266.726-1.266h.55L127.1,67.4v1.368h-.478Z"/><path d="M131.225,66.047h-1.27v.761h1.233v.45h-1.233v1.058h1.27v.449h-1.748V65.6h1.748Z"/><path d="M133.877,67.416l.98,1.349h-.584l-.905-1.3h-.086v1.3H132.8V65.6h.56a1.4,1.4,0,0,1,.907.236.866.866,0,0,1,.307.693.9.9,0,0,1-.192.579A.87.87,0,0,1,133.877,67.416Zm-.595-.364h.152c.452,0,.679-.173.679-.519,0-.324-.221-.486-.661-.486h-.17Z"/><path d="M137.845,66.068l-.388.23a.677.677,0,0,0-.207-.247.553.553,0,0,0-.595.048.348.348,0,0,0-.132.279q0,.233.345.373l.316.13a1.348,1.348,0,0,1,.564.381.856.856,0,0,1,.179.551.973.973,0,0,1-.292.723,1,1,0,0,1-.728.287.969.969,0,0,1-.681-.246,1.129,1.129,0,0,1-.33-.688l.484-.106a.817.817,0,0,0,.115.385.5.5,0,0,0,.431.2.5.5,0,0,0,.371-.149.52.52,0,0,0,.148-.379.53.53,0,0,0-.026-.169.426.426,0,0,0-.08-.142.637.637,0,0,0-.141-.121,1.386,1.386,0,0,0-.205-.107l-.305-.128q-.651-.274-.651-.8a.759.759,0,0,1,.273-.6.983.983,0,0,1,.679-.243A.951.951,0,0,1,137.845,66.068Z"/><path d="M142.609,66.068l-.387.23a.668.668,0,0,0-.208-.247.551.551,0,0,0-.594.048.348.348,0,0,0-.132.279q0,.233.345.373l.316.13a1.348,1.348,0,0,1,.564.381.855.855,0,0,1,.178.551.972.972,0,0,1-.291.723,1,1,0,0,1-.728.287.969.969,0,0,1-.681-.246,1.118,1.118,0,0,1-.33-.688l.484-.106a.806.806,0,0,0,.115.385.5.5,0,0,0,.43.2.505.505,0,0,0,.372-.149.519.519,0,0,0,.147-.379.531.531,0,0,0-.025-.169.426.426,0,0,0-.08-.142.66.66,0,0,0-.141-.121,1.386,1.386,0,0,0-.2-.107l-.306-.128a.88.88,0,0,1-.65-.8.759.759,0,0,1,.273-.6.983.983,0,0,1,.679-.243A.949.949,0,0,1,142.609,66.068Z"/><path d="M145.754,66.047h-1.27v.761h1.233v.45h-1.233v1.058h1.27v.449h-1.748V65.6h1.748Z"/><path d="M147.814,65.6v2.718h.932v.449h-1.41V65.6Z"/><path d="M151.988,66.047h-1.27v.761h1.233v.45h-1.233v1.058h1.27v.449H150.24V65.6h1.748Z"/><path d="M155.806,65.767v.565a1.325,1.325,0,0,0-.858-.346,1.09,1.09,0,0,0-.822.351,1.178,1.178,0,0,0-.337.853,1.153,1.153,0,0,0,.337.841,1.111,1.111,0,0,0,.824.342,1.007,1.007,0,0,0,.429-.082,1.209,1.209,0,0,0,.2-.11,2.388,2.388,0,0,0,.223-.169v.578a1.725,1.725,0,0,1-.862.233,1.59,1.59,0,0,1-1.159-.474,1.571,1.571,0,0,1-.478-1.153,1.626,1.626,0,0,1,.4-1.079,1.593,1.593,0,0,1,1.274-.581A1.635,1.635,0,0,1,155.806,65.767Z"/><path d="M158.417,66.047v2.718h-.478V66.047h-.728V65.6h1.932v.449Z"/></svg>