<svg id="レイヤー_1" data-name="レイヤー 1" xmlns="http://www.w3.org/2000/svg" width="230" height="100" viewBox="0 0 230 100"><title>sp_ur</title><path d="M72.193,66.606q0,1.079-.011,1.786t-.013,1.229c0,.425,0,.792.007,1.093s.006.565.006.785a3.151,3.151,0,0,1-.2,1.151,2.353,2.353,0,0,1-.587.869,2.806,2.806,0,0,1-.971.582,3.844,3.844,0,0,1-1.329.212A3.891,3.891,0,0,1,67.77,74.1a2.8,2.8,0,0,1-.973-.585,2.331,2.331,0,0,1-.588-.869,3.13,3.13,0,0,1-.2-1.151c0-.22,0-.482.007-.785s.006-.668.006-1.093q0-.523-.013-1.229T66,66.606h.928q-.007.139-.015.958t-.01,2.15c0,.271,0,.549.006.837s.007.584.007.888A1.993,1.993,0,0,0,67.5,73a2.3,2.3,0,0,0,1.595.533,2.324,2.324,0,0,0,1.637-.508,2.071,2.071,0,0,0,.544-1.584c0-.3,0-.6.006-.888s.007-.566.007-.837c0-.89-.007-1.615-.013-2.181s-.013-.874-.013-.927Z" fill="#572d38"/><path d="M80.572,73.684l-.707.579q-.123-.131-.878-.974t-2.322-2.643l.006-.049a3.559,3.559,0,0,0,1.166-.653,1.892,1.892,0,0,0,.364-.473,1.567,1.567,0,0,0,.156-.754,1.229,1.229,0,0,0-.229-.746,1.3,1.3,0,0,0-.627-.458,2.334,2.334,0,0,0-.685-.149c-.239-.016-.46-.026-.663-.026h-.468c-.008.713-.016,1.342-.017,1.885s-.005.929-.005,1.154c0,.515,0,1.213.011,2.095s.007,1.435.011,1.658h-.923c0-.223.008-.66.012-1.307s.012-1.449.012-2.413V69.371c0-.507-.01-1.429-.024-2.765.037,0,.223,0,.56-.014s.65-.012.936-.012a7.69,7.69,0,0,1,.949.058,3.383,3.383,0,0,1,.9.24,2.047,2.047,0,0,1,.883.695,1.811,1.811,0,0,1,.327,1.078,1.877,1.877,0,0,1-.493,1.328,4.3,4.3,0,0,1-.933.791V70.8q.771.9,1.692,1.855c.613.638.942.983.987,1.03" fill="#572d38"/><path d="M86.265,72.6a1.307,1.307,0,0,1-.485.458,2.574,2.574,0,0,1-.934.282,10.136,10.136,0,0,1-1.2.068c-.117,0-.237,0-.362-.01l-.3-.015c0-.044,0-.394-.006-1.047s-.006-1.3-.006-1.946c0-.28,0-.725,0-1.343s.005-1.2.011-1.749c.042,0,.135,0,.285,0s.308-.005.485-.005a4.723,4.723,0,0,1,.772.06,2.24,2.24,0,0,1,.6.176,1.183,1.183,0,0,1,.462.4,1.041,1.041,0,0,1,.168.6,1.16,1.16,0,0,1-.152.588,1.359,1.359,0,0,1-.389.429,1.8,1.8,0,0,1-.564.263,3.089,3.089,0,0,1-.735.1l.091.673.254-.006c.129,0,.3-.006.51-.006a2.177,2.177,0,0,1,.729.118,1.41,1.41,0,0,1,.526.312,1.484,1.484,0,0,1,.3.436,1.354,1.354,0,0,1-.07,1.176m1.01-1.408a1.649,1.649,0,0,0-.367-.533,1.89,1.89,0,0,0-.639-.428,2.581,2.581,0,0,0-.754-.182V70a1.892,1.892,0,0,0,.84-.611,1.566,1.566,0,0,0,.37-1.027,1.483,1.483,0,0,0-.292-.931,1.868,1.868,0,0,0-.8-.583,3.871,3.871,0,0,0-.826-.209,6.933,6.933,0,0,0-1.069-.078q-.51,0-1.053.023c-.361.013-.568.024-.621.027,0,.024,0,.362.012,1s.012,1.52.012,2.623c0,.584,0,1.192-.005,1.833s-.01,1.322-.019,2.043c.045,0,.263.013.655.025s.773.022,1.143.022a6.873,6.873,0,0,0,1.338-.116,3.974,3.974,0,0,0,1.073-.367,2.158,2.158,0,0,0,.84-.741,1.842,1.842,0,0,0,.29-1.014,1.885,1.885,0,0,0-.124-.722" fill="#572d38"/><path d="M93.251,70.74H90.522q.264-.576.669-1.483c.269-.605.5-1.113.689-1.528l.024,0q.37.816.709,1.569t.644,1.437Zm1.288.638q-1.085-2.359-2.207-4.881H91.6q-1.139,2.521-2.2,4.809t-1.205,2.579l.754.4c.024-.057.142-.323.357-.8s.52-1.158.914-2.032h3.363q.535,1.221.863,2c.219.518.334.8.35.838l.877-.451c-.03-.063-.407-.88-1.128-2.458" fill="#572d38"/><path d="M103.532,66.606q-.007.882-.015,2.017t-.007,1.638q0,1.6.011,2.537c.007.629.011.963.011,1l-.754.367q-1.7-2.3-3.177-4.15T97.893,67.88l-.011.007q0,1.506.021,3.707t.028,2.537h-.879c0-.093.009-.428.014-1s.01-1.373.01-2.4c0-.411,0-.951,0-1.63s-.009-1.394-.02-2.153l.857-.4,1.723,2.191q1.626,2.063,3.059,3.83l.012-.006q0-.867-.023-2.916c-.016-1.368-.025-2.379-.025-3.039Z" fill="#572d38"/><path d="M114.841,73.684l-.708.579q-.123-.131-.876-.974t-2.323-2.643l.006-.049a2.988,2.988,0,0,0,.568-.246,2.957,2.957,0,0,0,.6-.407,1.918,1.918,0,0,0,.365-.473,1.569,1.569,0,0,0,.153-.754,1.234,1.234,0,0,0-.227-.746,1.3,1.3,0,0,0-.626-.458,2.348,2.348,0,0,0-.686-.149c-.238-.016-.46-.026-.664-.026h-.465q-.017,1.07-.02,1.885c0,.546-.006.929-.006,1.154,0,.515,0,1.213.011,2.095s.01,1.435.015,1.658h-.927c0-.223.008-.66.015-1.307s.011-1.449.011-2.413V69.371q0-.76-.026-2.765c.039,0,.226,0,.565-.014s.648-.012.932-.012a7.748,7.748,0,0,1,.951.058,3.4,3.4,0,0,1,.9.24,2.039,2.039,0,0,1,.882.695,1.8,1.8,0,0,1,.325,1.078,1.872,1.872,0,0,1-.492,1.328,4.227,4.227,0,0,1-.932.791V70.8q.773.9,1.692,1.855c.613.638.944.983.988,1.03" fill="#572d38"/><path d="M121.114,74.131c-.033,0-.282,0-.747-.008s-1.04,0-1.727,0q-.714,0-1.306,0c-.4.006-.73.008-1.005.008q.012-.326.017-1.414t.007-2.247c0-.425,0-.985,0-1.685s-.009-1.42-.02-2.167c.268,0,.6,0,1,.006s.81.005,1.233.005q1.076,0,1.75-.005c.451,0,.693-.006.731-.006v.78l-.7,0c-.435,0-.972-.006-1.616-.006h-1.467c0,.427,0,.849-.005,1.275s0,.825,0,1.2h1.21q.986,0,1.761,0l.827-.006v.78c-.029,0-.337,0-.924-.005s-1.124,0-1.608,0h-1.266c0,.709,0,1.274,0,1.691s.006.768.007,1.049c.22,0,.489.007.8.01h1.016q.836,0,1.405-.005c.38-.006.591-.006.636-.006Z" fill="#572d38"/><path d="M127.061,72.009a1.879,1.879,0,0,1-.274,1.014,2.108,2.108,0,0,1-.733.7,3.5,3.5,0,0,1-.97.373,5.3,5.3,0,0,1-1.209.127c-.242,0-.489-.008-.747-.022l-.446-.026-.046-.807c.051.008.2.022.439.044s.521.029.847.029a4.835,4.835,0,0,0,.768-.08,2.649,2.649,0,0,0,.724-.2,1.424,1.424,0,0,0,.508-.4.94.94,0,0,0,.176-.587,1.1,1.1,0,0,0-.176-.636,1.794,1.794,0,0,0-.587-.506c-.177-.1-.4-.222-.686-.353a7.255,7.255,0,0,1-.758-.4,2.322,2.322,0,0,1-.819-.76,1.766,1.766,0,0,1-.242-.919,1.722,1.722,0,0,1,.221-.9,2.226,2.226,0,0,1,.578-.649,2.475,2.475,0,0,1,.884-.4,4.525,4.525,0,0,1,1.159-.135c.233,0,.47,0,.708.021s.375.022.41.027l.078.8-.411-.039c-.24-.021-.535-.034-.888-.034a3.028,3.028,0,0,0-.651.073,1.9,1.9,0,0,0-.588.216,1.171,1.171,0,0,0-.382.361.935.935,0,0,0-.157.54.95.95,0,0,0,.166.532,1.852,1.852,0,0,0,.62.524,6.68,6.68,0,0,0,.61.324q.379.184.745.4a2.52,2.52,0,0,1,.845.762,1.748,1.748,0,0,1,.284.98" fill="#572d38"/><path d="M133.874,74.131c-.034,0-.282,0-.749-.008s-1.041,0-1.724,0q-.716,0-1.309,0c-.4.006-.73.008-1,.008.007-.217.011-.688.016-1.414s.008-1.473.008-2.247c0-.425,0-.985,0-1.685s-.009-1.42-.019-2.167c.266,0,.6,0,1,.006s.811.005,1.236.005q1.072,0,1.748-.005c.45,0,.693-.006.731-.006v.78l-.7,0c-.433,0-.97-.006-1.615-.006h-1.468c0,.427,0,.849-.006,1.275s-.007.825-.007,1.2h1.211q.987,0,1.763,0l.826-.006v.78c-.03,0-.336,0-.923-.005s-1.123,0-1.61,0H130c0,.709,0,1.274,0,1.691s0,.768.008,1.049q.332.006.8.01h1.015c.558,0,1.026,0,1.407-.005s.59-.006.635-.006Z" fill="#572d38"/><path d="M139.88,70.74h-2.727q.263-.576.667-1.483c.269-.605.5-1.113.689-1.528l.023,0q.374.816.711,1.569t.644,1.437Zm1.288.638q-1.085-2.359-2.207-4.881h-.734q-1.14,2.521-2.2,4.809t-1.206,2.579l.754.4c.023-.057.142-.323.356-.8s.518-1.158.914-2.032h3.364q.537,1.221.862,2c.219.518.335.8.35.838l.878-.451c-.031-.063-.407-.88-1.129-2.458" fill="#572d38"/><path d="M149.492,73.684l-.707.579q-.124-.131-.877-.974t-2.322-2.643l0-.049a3.507,3.507,0,0,0,1.166-.653,1.821,1.821,0,0,0,.363-.473,1.544,1.544,0,0,0,.155-.754,1.24,1.24,0,0,0-.226-.746,1.3,1.3,0,0,0-.627-.458,2.348,2.348,0,0,0-.685-.149c-.24-.016-.461-.026-.663-.026h-.467q-.016,1.07-.019,1.885c0,.546,0,.929,0,1.154q0,.772.008,2.095c0,.88.012,1.435.015,1.658h-.925c0-.223.007-.66.014-1.307s.009-1.449.009-2.413V69.371q0-.76-.023-2.765c.036,0,.224,0,.562-.014s.649-.012.934-.012a7.69,7.69,0,0,1,.949.058,3.393,3.393,0,0,1,.9.24,2.036,2.036,0,0,1,.883.695,1.811,1.811,0,0,1,.326,1.078,1.877,1.877,0,0,1-.493,1.328,4.273,4.273,0,0,1-.932.791V70.8q.771.9,1.692,1.855c.613.638.941.983.987,1.03" fill="#572d38"/><path d="M155.969,73.446c0,.034-.014.128-.031.284s-.031.325-.047.51h-.2a7.939,7.939,0,0,1-2.441-.347,4.451,4.451,0,0,1-1.754-1,3.317,3.317,0,0,1-.756-1.092,3.564,3.564,0,0,1-.279-1.451,3.176,3.176,0,0,1,.276-1.337,3.617,3.617,0,0,1,.718-1.057,4.524,4.524,0,0,1,1.741-1.034,6.934,6.934,0,0,1,2.336-.384h.253c0,.066.011.174.023.324s.023.308.038.481h-.191a7.249,7.249,0,0,0-1.457.155,4.433,4.433,0,0,0-1.3.463A2.961,2.961,0,0,0,151.808,69a2.6,2.6,0,0,0-.382,1.366,2.829,2.829,0,0,0,.342,1.382,2.744,2.744,0,0,0,1.086,1.043,4.571,4.571,0,0,0,1.358.506,7.206,7.206,0,0,0,1.494.158h.107c.049,0,.1,0,.156,0" fill="#572d38"/><path d="M164,74.131h-.925q.006-.336.013-1.247t.01-2.262h-4.567c0,1.041,0,1.832.007,2.368s.01.917.015,1.141h-.926c0-.224.008-.622.014-1.2s.01-1.54.01-2.906c0-.412,0-.915-.007-1.505s-.01-1.231-.017-1.917h.926c0,.569,0,1.124-.011,1.671s-.011,1.069-.011,1.562H163.1q0-.739-.011-1.558t-.012-1.675H164c-.006.565-.013,1.218-.017,1.961s-.007,1.347-.007,1.816q0,1.651.009,2.531c.007.588.01.993.015,1.217" fill="#572d38"/><path d="M105.024,60.615a20.056,20.056,0,0,1-5.456-11.93c-.034-.228-.043-.357-.075-.584V25.688H92.658V48.757a22.181,22.181,0,0,0,4.878,12.951c.077.114.131.182.211.294H112.38V25.688h-7.356Z" fill="#572d38"/><path d="M133.712,46.644a14.791,14.791,0,0,0-.286-20.957H119.159V62h7.357l0-15.069L130.352,62h7.5L133.5,46.864c.078-.081.13-.136.208-.22m-3.943-6.929a7.881,7.881,0,0,1-3.411,4.126V29.1a11.843,11.843,0,0,1,1.9,1.9,9.289,9.289,0,0,1,2.159,5.3,7.768,7.768,0,0,1-.65,3.405" fill="#572d38"/></svg>